<?xml version="1.0" encoding="UTF-8" standalone="no"?>
<svg xmlns:rdf="http://www.w3.org/1999/02/22-rdf-syntax-ns#" xmlns="http://www.w3.org/2000/svg" height="281.6484" width="281.64159" version="1.1" xmlns:cc="http://creativecommons.org/ns#" xmlns:dc="http://purl.org/dc/elements/1.1/" viewBox="0 0 281.64159 281.6484"><circle cx="140.81982" cy="140.82643" r="140.82079"/><path d="M94.421,239.60662,87.80478,252.0653l-5.82789-3.10392A4.548,4.548,0,1,1,86.248,240.9388l3.16843,1.69753,2.35182-4.4323Zm-11.78189,4.567a1.89726,1.89726,0,0,0,.93373,2.65656l2.81478,1.4827,1.78834-3.34425-2.80988-1.4982A1.90007,1.90007,0,0,0,82.63908,244.17364Z" transform="translate(0.0381 0.0381)" fill="#fff"/><path d="M74.60279,236.42259A7.3559,7.3559,0,1,1,73.337,226.1732,7.07517,7.07517,0,0,1,74.60279,236.42259Zm-9.13894-7.19237c-1.62222,2.07258-1.52651,4.67253.51277,6.286,2.03548,1.60182,4.57292,1.07635,6.20694-1.002,1.62232-2.05108,1.54221-4.65883-.49027-6.26455C69.65782,226.64,67.08518,227.17524,65.46386,229.23021Z" transform="translate(0.0381 0.0381)" fill="#fff"/><path d="M57.22544,221.62569a7.17275,7.17275,0,0,1-10.42321-.92983,6.459,6.459,0,0,1-1.23267-6.71381l2.646,1.12515a3.77388,3.77388,0,0,0,.61138,3.84422,4.62824,4.62824,0,0,0,7.01065-6.03,3.77349,3.77349,0,0,0-3.7192-1.17016l-.7374-2.76987a6.49193,6.49193,0,0,1,6.46667,2.2054A7.16137,7.16137,0,0,1,57.22544,221.62569Z" transform="translate(0.0381 0.0381)" fill="#fff"/><path d="M44.24419,205.52581a7.16286,7.16286,0,0,1-10.099-2.75427,6.45349,6.45349,0,0,1-.0322-6.83292l2.40463,1.57441a3.82051,3.82051,0,0,0-.07721,3.89893,4.38893,4.38893,0,0,0,6.23324,1.4553,4.385,4.385,0,0,0,1.73754-6.14923,3.76856,3.76856,0,0,0-3.45456-1.82055l-.23824-2.86179a6.51227,6.51227,0,0,1,5.99,3.31495A7.16747,7.16747,0,0,1,44.24419,205.52581Z" transform="translate(0.0381 0.0381)" fill="#fff"/><path d="M40.57089,184.09321,27.3494,188.94156l-1.03334-2.82268,8.54606-3.13122L24.06766,179.997l-1.05574-2.90079,13.22639-4.83065,1.02354,2.807-8.8537,3.24844,11.16651,3.061Z" transform="translate(0.0381 0.0381)" fill="#fff"/><path d="M24.62833,144.8848a7.14636,7.14636,0,0,1-7.11236-7.64163,6.47387,6.47387,0,0,1,3.566-5.82019l1.20716,2.60785a3.833,3.833,0,0,0-2.11749,3.26114,4.38212,4.38212,0,0,0,4.52011,4.51621,4.37767,4.37767,0,0,0,4.72234-4.30528,3.781,3.781,0,0,0-1.97387-3.35685l1.298-2.54624a6.47748,6.47748,0,0,1,3.32955,5.96171A7.14059,7.14059,0,0,1,24.62833,144.8848Z" transform="translate(0.0381 0.0381)" fill="#fff"/><path d="M40.44787,98.02106l-2.54624-.04591-2.17219,5.64136,1.91526,1.69063L36.415,108.50588,25.21041,98.34341l1.34788-3.51027,15.11524-.0108Zm-11.76729-.35355,4.88156,4.22517,1.58221-4.09825Z" transform="translate(0.0381 0.0381)" fill="#fff"/><path d="M44.56363,89.18787,41.64234,83.688a4.0447,4.0447,0,0,1-5.1784.45716A4.38852,4.38852,0,0,1,35.04764,77.739l3.42626-5.63066,12.03093,7.336L48.94212,82.0091l-4.275-2.60385-1.135,1.86255L46.36267,86.246ZM42.409,78.01936l-3.24554-1.974-1.63012,2.69176a1.90969,1.90969,0,1,0,3.24454,1.974Z" transform="translate(0.0381 0.0381)" fill="#fff"/><path d="M68.15862,59.41524,67.2347,58.3399c-3.46827,2.53454-6.69821,2.67716-8.83129.21883-2.12629-2.43493-1.52271-5.61506,1.4494-8.71118l-.93863-1.07825,2.26591-1.971.94063,1.07535c3.47607-2.50334,6.70011-2.66156,8.83129-.20323,2.13789,2.45833,1.53431,5.64146-1.4553,8.69948l.92393,1.07435Zm-2.68886-3.10682-3.85212-4.4245c-1.63982,1.81665-1.92406,3.45657-.88292,4.651C61.78856,57.748,63.44018,57.69041,65.46976,56.30842Zm-1.59-6.39156,3.85982,4.4362c1.65752-1.79714,1.95346-3.46047.89862-4.67053C67.59215,48.46166,65.92292,48.54267,63.87975,49.91686Z" transform="translate(0.0381 0.0381)" fill="#fff"/><path d="M82.37434,48.58468,75.3979,36.35942l8.65247-4.93137,1.30978,2.28551-6.04872,3.44867,1.471,2.59215,5.9207-3.37546,1.31458,2.28551-5.9236,3.38326,1.57632,2.765L89.725,41.3679l1.30578,2.28931Z" transform="translate(0.0381 0.0381)" fill="#fff"/><path d="M97.24166,37.94944c1.29017-.64849,1.85665-1.4514,1.05184-5.11889l-1.60072-7.07516,9.46318-3.30215,3.77681,10.81886,1.20237-.423,1.72583,4.947-2.83438.99133-.85562-2.44663L100.869,39.24061l.85272,2.45343-2.83638.99924Zm3.65089-1.52851,6.18244-2.15849-2.90079-8.31462L100.118,27.3494l1.05964,4.70474A6.23937,6.23937,0,0,1,100.89255,36.42093Z" transform="translate(0.0381 0.0381)" fill="#fff"/><path d="M119.83261,33.64026l-2.096-13.92958,9.846-1.4905.39945,2.61175-6.89443,1.04114.44436,2.9496,6.746-1.02944.39365,2.61165-6.74411,1.02164.47366,3.15283,6.89643-1.04024.38775,2.60785Z" transform="translate(0.0381 0.0381)" fill="#fff"/><path d="M138.49333,31.7699l-.084-14.09861,6.59169-.039a4.41315,4.41315,0,0,1,4.76235,4.52111,4.429,4.429,0,0,1-4.71354,4.56992l-3.59319.0195.0263,5.00458Zm8.20911-9.5941a1.90145,1.90145,0,0,0-2.08818-1.89286l-3.186.0118.0206,3.813,3.18793-.0264A1.90394,1.90394,0,0,0,146.70245,22.1758Z" transform="translate(0.0381 0.0381)" fill="#fff"/><path d="M165.41978,34.42746l-.40625-2.52274-5.9286-1.133-1.32047,2.177-3.36666-.64459,8.02939-12.81623,3.6861.7062,2.66926,14.875Zm-1.716-11.63237-3.307,5.53,4.317.84481Z" transform="translate(0.0381 0.0381)" fill="#fff"/><path d="M186.11008,41.42941l-10.13416-4.10215L181.28422,24.266l2.76507,1.13685-4.29938,10.59223,6.16383,2.50034L190.20933,27.91l2.80408,1.133-4.31118,10.60793,1.18086.461-1.97387,4.85126-2.767-1.12615Z" transform="translate(0.0381 0.0381)" fill="#fff"/><path d="M195.94351,46.41838l7.77155-11.70278,2.48854,1.64382-5.02118,7.57032L211.635,39.96631l2.56185,1.68973-7.76855,11.71739-2.49454-1.66232,5.2048-7.84286L198.352,48.0162Z" transform="translate(0.0381 0.0381)" fill="#fff"/><path d="M212.84029,58.58113l6.01842-1.632a4.06488,4.06488,0,0,1,.72169-5.1579,4.38585,4.38585,0,0,1,6.55859.081l4.71835,4.59732-9.846,10.08536-2.15258-2.097,3.50337-3.58348-1.56171-1.52461-5.49584,1.64762Zm11.36284.40335,2.65956-2.726-2.2503-2.1975a1.911,1.911,0,1,0-2.65956,2.71517Z" transform="translate(0.0381 0.0381)" fill="#fff"/><path d="M250.87273,85.24684l-2.30791,1.28337L245.037,80.17005l-2.1839,1.20616,1.77654,3.18693a4.47747,4.47747,0,1,1-7.81546,4.35609l-3.226-5.81529,12.28976-6.829Zm-10.3158-2.58825-3.20943,1.78154,1.58031,2.83528a1.84086,1.84086,0,1,0,3.20353-1.78244Z" transform="translate(0.0381 0.0381)" fill="#fff"/><path d="M245.19427,108.68651l1.96606-1.60952-1.99537-5.71077-2.55014-.04981-1.12515-3.22994,15.11334.503,1.24627,3.54838-11.526,9.77862Zm9.19654-7.34369-6.456-.06841,1.4514,4.151Z" transform="translate(0.0381 0.0381)" fill="#fff"/><path d="M254.47682,115.89558a7.15472,7.15472,0,0,1,8.40344,6.22544,6.44037,6.44037,0,0,1-2.45253,6.36406L258.7615,126.146a3.83,3.83,0,0,0,1.4895-3.60209,4.63051,4.63051,0,0,0-9.13113,1.4895,3.79687,3.79687,0,0,0,2.55795,2.9457l-.81361,2.73867a6.46645,6.46645,0,0,1-4.37069-5.24981A7.15714,7.15714,0,0,1,254.47682,115.89558Z" transform="translate(0.0381 0.0381)" fill="#fff"/><path d="M248.99848,155.87259,262.85,158.41984,261.04311,168.22l-2.603-.48637L259.706,160.889l-2.92619-.54507-1.24138,6.71381-2.58825-.48837,1.23257-6.70591-3.12932-.56848-1.26777,6.85643-2.598-.49227Z" transform="translate(0.0381 0.0381)" fill="#fff"/><path d="M244.08572,176.03742l10.76806,3.84822,1.382-3.87552,2.48083.88292-3.78081,10.56983L252.455,186.572l1.38-3.85592-10.771-3.84432Z" transform="translate(0.0381 0.0381)" fill="#fff"/><path d="M246.08309,204.99064l-2.304-1.27757,3.53757-6.37976-2.18-1.215L243.362,199.318a4.48212,4.48212,0,1,1-7.83317-4.34239l3.23194-5.83089,12.32487,6.84863Zm-3.24954-10.14987-3.222-1.78344-1.57842,2.83828a1.84723,1.84723,0,1,0,3.21143,1.799Z" transform="translate(0.0381 0.0381)" fill="#fff"/><path d="M235.17631,208.93257a7.369,7.369,0,1,1-10.30319,1.04694A7.08451,7.08451,0,0,1,235.17631,208.93257Zm-7.40139,8.98952c2.03737,1.67793,4.651,1.63692,6.29674-.36535,1.66333-2.02367,1.18866-4.56892-.85262-6.23914-2.02567-1.672-4.63543-1.66423-6.29485.34385C225.27658,213.67541,225.75124,216.25576,227.77492,217.92208Z" transform="translate(0.0381 0.0381)" fill="#fff"/><path d="M217.799,221.81711c-1.08315.89852-1.22867,2.012.80872,5.1472l3.99173,6.06722-7.68464,6.42077-9.03342-10.82176,2.31771-1.92806,7.34759,8.77469,3.27974-2.74057-2.635-4.01424c-3.228-4.92847-2.29822-7.10836-.10162-8.94851Z" transform="translate(0.0381 0.0381)" fill="#fff"/><path d="M190.60578,237.91689l1.91246,1.66633,5.27311-2.934-.38-2.50824,2.9916-1.66623,2.06968,14.93952-3.27974,1.82055-11.57387-9.65161Zm8.77569,7.79605-1.02364-6.36416-3.83932,2.13309Z" transform="translate(0.0381 0.0381)" fill="#fff"/><path d="M146.551,262.90667l1.11445-2.40853a3.74815,3.74815,0,0,0,2.893.838c2.31671-.20323,3.33635-2.266,3.15762-4.27018-.0098-.11522-.0215-.21683-.04011-.32424a4.65439,4.65439,0,0,1-3.44187,2.14479,4.4892,4.4892,0,0,1-5.2077-4.12166c-.25393-2.73857,1.74244-5.01238,4.93917-5.30732,4.24177-.39265,6.328,2.71517,6.69811,6.69431.382,4.231-1.72093,7.45021-5.86109,7.82716A6.17486,6.17486,0,0,1,146.551,262.90667Zm6.92284-8.21791a2.83767,2.83767,0,0,0-3.11663-2.59805,2.27491,2.27491,0,0,0-2.29521,2.28551c.13082,1.4592,1.4748,1.98267,2.77578,1.86355A3.66885,3.66885,0,0,0,153.47387,254.68876Z" transform="translate(0.0381 0.0381)" fill="#fff"/><path d="M127.76728,262.34209l1.4836-2.2229a3.70254,3.70254,0,0,0,2.73667,1.28527c2.32351.16212,3.6509-1.70143,3.78861-3.7212.0117-.10741.0156-.21873.0215-.33014a4.62365,4.62365,0,0,1-3.74861,1.57451c-2.53454-.168-4.71254-1.89286-4.50161-4.90106.18272-2.74067,2.51214-4.68033,5.71757-4.4655,4.26628.28714,5.84069,3.7017,5.57205,7.68854-.28223,4.25058-2.86849,7.09666-7.02825,6.81732A6.1514,6.1514,0,0,1,127.76728,262.34209Zm8.1515-7.06736a2.8419,2.8419,0,0,0-2.67916-3.04141,2.26762,2.26762,0,0,0-2.63016,1.89476c-.09281,1.4709,1.14956,2.1995,2.45923,2.28741A3.62622,3.62622,0,0,0,135.91879,255.27474Z" transform="translate(0.0381 0.0381)" fill="#fff"/><path d="M34.28784,164.64918l-13.96479,2.29331-.48937-2.9652,9.02952-1.467-10.08436-5.00858-.503-3.04921,13.96089-2.29331.49127,2.9731-9.36357,1.53541,10.44671,5.13539Z" transform="translate(0.0381 0.0381)" fill="#fff"/><path d="M16.06958,157.54472a3.59817,3.59817,0,0,1,1.216.7169,3.97046,3.97046,0,0,1,.835,1.17206,4.66074,4.66074,0,0,1,.45326,2.83438,3.64194,3.64194,0,0,1-1.32538,2.45343L15.84485,162.983a1.85317,1.85317,0,0,0,.7257-1.84785,1.81359,1.81359,0,0,0-1.25017-1.4944Z" transform="translate(0.0381 0.0381)" fill="#fff"/><polygon points="249.908 145.319 249.839 148.968 257.165 143.825 263.961 148.806 264.038 145.284 258.385 141.571 258.411 140.252 264.111 140.371 264.172 137.365 250.09 137.08 250.029 140.084 255.752 140.204 255.725 141.536 249.908 145.319" fill="#fff"/><polygon points="34.469 116.955 35.182 113.368 27.063 117.155 21.243 111.072 20.555 114.528 25.467 119.171 25.217 120.469 19.626 119.352 19.036 122.31 32.851 125.029 33.441 122.083 27.827 120.972 28.087 119.67 34.469 116.955" fill="#fff"/><polygon points="117.107 259.157 119.536 247.974 116.981 247.417 111.704 250.828 112.988 252.951 115.78 251.111 114.179 258.524 111.052 257.837 110.488 260.417 113.614 261.105 116.542 261.732 119.482 262.372 120.043 259.792 117.107 259.157" fill="#fff"/><polygon points="170.92 257.698 168.284 246.558 165.743 247.156 162.457 252.51 164.529 253.873 166.257 251 168.011 258.386 164.891 259.116 165.505 261.681 168.614 260.952 171.533 260.253 174.453 259.565 173.841 257.003 170.92 257.698" fill="#fff"/><path d="M145.23155,179.89934v49.618a2.28439,2.28439,0,0,0,2.70247,2.51984A92.16334,92.16334,0,0,0,223.287,180.415c.84481-1.87135,0-3.03751-1.843-3.03751H147.76119A2.23321,2.23321,0,0,0,145.23155,179.89934Z" transform="translate(0.0381 0.0381)" fill="#ef4e37"/><path d="M133.47216,177.71155a73.02532,73.02532,0,0,0-51.82151,29.93375,2.29693,2.29693,0,0,0,.503,3.37546,89.89459,89.89459,0,0,0,51.47766,21.01644,2.16761,2.16761,0,0,0,2.515-2.34992V180.23139A2.268,2.268,0,0,0,133.47216,177.71155Z" transform="translate(0.0381 0.0381)" fill="#c3996b"/><path d="M145.23155,115.80377v49.96276a2.23936,2.23936,0,0,0,2.52964,2.52384h78.04566a2.7188,2.7188,0,0,0,2.86269-2.1859,97.45818,97.45818,0,0,0,3.53368-25.40964,96.24924,96.24924,0,0,0-3.53368-25.229,2.70513,2.70513,0,0,0-2.86269-2.182H147.76119A2.23777,2.23777,0,0,0,145.23155,115.80377Z" transform="translate(0.0381 0.0381)" fill="#007dc4"/><path d="M136.14632,165.93255V147.76609a2.2181,2.2181,0,0,0-2.515-2.51994H51.882a2.182,2.182,0,0,0-2.35872,2.51994,90.33394,90.33394,0,0,0,22.37213,53.31971c1.177,1.34778,2.52284,1.18176,3.53178-.33795a81.86677,81.86677,0,0,1,58.20407-32.11574A2.43465,2.43465,0,0,0,136.14632,165.93255Z" transform="translate(0.0381 0.0381)" fill="#c3996b"/><path d="M136.14632,101.34281V52.04515a2.275,2.275,0,0,0-2.67416-2.51994A89.8388,89.8388,0,0,0,82.15361,70.56035a2.44938,2.44938,0,0,0-.503,3.52578,73.7156,73.7156,0,0,0,51.82151,29.77263A2.26608,2.26608,0,0,0,136.14632,101.34281Z" transform="translate(0.0381 0.0381)" fill="#c3996b"/><path d="M147.76119,104.2006H221.444c1.843,0,2.68786-1.175,1.843-3.02971A91.58981,91.58981,0,0,0,147.934,49.5252a2.24964,2.24964,0,0,0-2.70247,2.36172v49.79084A2.23861,2.23861,0,0,0,147.76119,104.2006Z" transform="translate(0.0381 0.0381)" fill="#fff"/><path d="M136.14632,133.63918V115.46582a2.331,2.331,0,0,0-2.34992-2.51994A81.91918,81.91918,0,0,1,75.42721,80.81854c-1.00894-1.52071-2.35482-1.68193-3.53178-.33795A90.35824,90.35824,0,0,0,49.5233,133.63918a2.185,2.185,0,0,0,2.35872,2.52764h81.74926A2.22665,2.22665,0,0,0,136.14632,133.63918Z" transform="translate(0.0381 0.0381)" fill="#c3996b"/></svg>