<?xml version="1.0" encoding="UTF-8"?>
<svg width="202.5" height="209" fill="none" version="1.1" viewBox="0 0 405 418" xmlns="http://www.w3.org/2000/svg">
 <path d="m294.19 375.85c2.004 1.162 3.422 3.364 3.449 5.779 4e-3 0.037 5e-3 31.591 5e-3 35.826h27.602v-10.868l-0.276-0.085c-1.163 2.002-3.368 3.419-5.785 3.445-0.023 3e-3 -6.516 4e-3 -12.271 5e-3v-9.896h14.711v-7.246h-14.711v-9.749h18.619v-7.487h-31.258l-0.085 0.276zm-179.41 0c2.005 1.162 3.422 3.364 3.45 5.779 3e-3 0.037 5e-3 31.591 5e-3 35.826h27.602v-10.868l-0.276-0.085c-1.163 2.002-3.369 3.419-5.786 3.445-0.023 3e-3 -6.516 4e-3 -12.27 5e-3v-9.896h14.711v-7.246h-14.711v-9.749h18.618v-7.487h-31.257l-0.086 0.276zm-11.101 34.097c-0.024 3e-3 -6.3227 5e-3 -11.488 6e-3v-34.379h-12.639l-0.0849 0.276c2.0045 1.162 3.4222 3.364 3.4489 5.779 0.0037 0.037 0.0056 30.826 0.0056 35.826h26.821v-10.868l-0.276-0.085c-1.163 2.002-3.369 3.419-5.787 3.445zm124.37-13.482c2.005 1.162 3.422 3.364 3.449 5.779 3e-3 0.024 4e-3 4.011 5e-3 7.575-1.751 0.602-3.65 0.935-5.637 0.935-10.661 0-15.985-7.616-15.985-14.285 0-2.371 0.64-4.755 1.822-6.711 2.656-4.616 7.996-7.774 14.163-7.774 6.213 0 11.574 3.214 14.209 7.888l0.227-0.069-6e-3 -9.532c-7.336-5.752-18.651-6.817-27.758-2.477-7.752 3.695-11.917 10.67-11.917 18.592 0 8.138 4.203 15.252 12.043 18.977 3.727 1.771 7.795 2.638 11.81 2.638 5.675-1e-3 11.51-1.737 15.828-5.105v-16.707h-12.167l-0.086 0.276zm45.968-20.615c2.006 1.162 3.423 3.364 3.449 5.779 0 0.89 7e-3 15.155 7e-3 18.68 0 13.053-17.443 12.999-17.443 0.231l8e-3 -24.938h-12.64l-0.084 0.276c2.004 1.162 3.422 3.365 3.449 5.78 4e-3 0.037 0.023 18.671 0.023 18.671s-0.121 3.417 1.286 7.178c0.801 2.14 2.034 3.993 3.584 5.542s3.458 2.772 5.666 3.634c2.202 0.859 4.708 1.296 7.449 1.296 2.74 0 5.247-0.437 7.449-1.296 2.209-0.862 4.12-2.085 5.68-3.633 1.558-1.548 2.77-3.413 3.599-5.543 0.824-2.119 1.243-4.454 1.243-6.939v-24.994h-12.639l-0.086 0.276zm-104.04 24.892s5.743-14.893 5.786-15.027c5e-3 0.015 0.01 0.028 0.015 0.044 5e-3 -0.016 0.01-0.029 0.015-0.044 0.043 0.134 5.786 15.027 5.786 15.027h-11.602zm27.498 14.401c-1.02-1.267-1.336-2.163-2.058-3.616-0.128-0.258-0.257-0.53-0.368-0.797l-14.674-35.168h-9.194l-14.841 35.567c-0.873 1.696-1.149 2.635-2.259 4.014-1.134 1.406-2.579 2.078-2.629 2.078l0.068 0.219c0.612 0 1.349-1e-3 1.349-1e-3h8.138c1.456 0 2.859-0.916 3.335-2.167l3.031-7.793h16.811l3.03 7.793c0.477 1.252 1.85 2.167 3.334 2.167 0 0 8.877 1e-3 9.488 1e-3l0.069-0.219c-0.051 0-1.497-0.672-2.63-2.078zm141.26-28.685c-2.821 0-5.028-2.187-5.028-5.161 0-2.913 2.207-5.115 5.028-5.115 2.791 0 5.003 2.202 5.003 5.115 0 2.974-2.212 5.161-5.003 5.161zm0-11.306c-3.39 0-6.269 2.612-6.269 6.145 0 3.577 2.879 6.186 6.269 6.186 3.362 0 6.245-2.609 6.245-6.186 0-3.533-2.883-6.145-6.245-6.145zm-1.309 5.72v-2.192h1.472c0.758 0 1.558 0.159 1.558 1.044 0 1.098-0.819 1.148-1.729 1.148h-1.301zm4.151-1.087c0-1.401-0.829-2.021-2.512-2.021h-2.71v7.11h1.071v-3.084h1.25l1.873 3.084h1.198l-2.01-3.132c1.039-0.136 1.84-0.686 1.84-1.957zm56.702-45.878c-1.742-0.723-3.646-1.192-5.524-1.654-2.626-0.648-5.127-1.262-7.13-2.506-2.808-1.664-1.634-5.3 1.085-6.415 1.919-0.812 4.307-1.025 6.791-0.577 3.699 0.667 6.888 2.653 8.749 5.451l1.04 1.522 0.316-0.092-0.021-10.128s-0.682-0.593-0.809-0.665c-6.241-4.864-16.534-5.096-22.981-0.505-4.862 3.461-6.226 8.792-3.726 14.661 2.068 4.202 6.531 5.649 10.862 6.655 0.872 0.203 1.75 0.372 2.63 0.542 1.796 0.347 6.142 1.501 6.471 4.569 0.341 3.23-2.073 4.805-3.829 5.421-4.522 1.582-11.013-0.673-14.706-4.453-1.421-1.453-2.188-3.182-2.55-4.207l-0.272 0.079v11.561c2.244 1.864 7.078 4.835 14.016 4.835 5.097 0 10.213-1.731 13.213-5.354 2.518-3.04 3.222-5.554 3.078-8.974-0.178-4.262-2.758-8.133-6.703-9.766zm-46.42-18.137c2.01 1.165 3.429 3.301 3.458 5.723 0 0.243-7e-3 20.779-7e-3 20.779l-21.103-25.306c-0.86-1.066-1.75-1.473-3.12-1.473h-8.441l-0.085 0.277c2.011 1.165 3.429 3.301 3.456 5.723 0 0.243-0.016 36.004-0.016 36.004h11.88l0.066-0.212c-1.354-0.851-3.395-2.69-3.395-6.418 0 0-0.01-19.766-0.027-20.191l21.067 25.259c0.966 1.165 1.874 1.548 3.383 1.562h4.882v-42.004h-11.913l-0.085 0.277zm-150.93 35.097v-35.374h-6.79c-1.434 0-2.678 0.234-3.337 1.59l-12.755 23.51c-0.347 0.614-0.677 1.264-0.982 1.935-0.064 0.141-0.129 0.284-0.191 0.426-0.057-0.127-0.113-0.254-0.17-0.38-0.297-0.665-0.622-1.313-0.964-1.916l-12.884-23.588c-0.673-1.338-1.918-1.577-3.361-1.577h-10.155l-0.086 0.277c2.011 1.165 3.371 3.263 3.399 5.685 3e-3 0.292 0.051 36.042 0.051 36.042h11.879l0.067-0.212c-1.354-0.851-3.396-2.69-3.396-6.418l-6e-3 -20.294c0-0.037 0-0.073-1e-3 -0.111l11.81 22.208h7.67l11.66-22.147v26.974h11.88l0.065-0.212c-1.353-0.851-3.403-2.69-3.403-6.418zm106.71-8.535c-0.589 1.666-1.444 3.091-2.541 4.237-1.094 1.143-2.444 2.033-4.013 2.644-1.582 0.617-3.401 0.93-5.404 0.93s-3.826-0.313-5.419-0.931c-1.581-0.612-2.94-1.502-4.042-2.645-1.108-1.146-1.971-2.571-2.572-4.238-0.605-1.682-0.912-3.619-0.912-5.758 0-2.138 0.307-4.075 0.913-5.757 0.6-1.666 1.464-3.097 2.573-4.254 1.101-1.15 2.46-2.045 4.04-2.657 1.594-0.618 3.417-0.931 5.419-0.931s3.82 0.313 5.404 0.93c1.568 0.611 2.918 1.505 4.01 2.655 1.099 1.157 1.955 2.589 2.544 4.253 0.597 1.686 0.9 3.625 0.9 5.761 0 2.137-0.303 4.076-0.9 5.761zm10.605-5.761c0-3.052-0.55-5.922-1.633-8.53-1.086-2.613-2.636-4.902-4.605-6.804-1.969-1.903-4.37-3.414-7.133-4.493-2.76-1.078-5.852-1.623-9.192-1.623-3.337 0-6.434 0.541-9.202 1.608-2.775 1.069-5.186 2.581-7.165 4.493-1.98 1.911-3.534 4.205-4.622 6.819-1.083 2.608-1.632 5.478-1.632 8.53 0 3.054 0.549 5.923 1.632 8.53 1.087 2.613 2.642 4.908 4.622 6.819 1.98 1.913 4.39 3.425 7.165 4.494 2.768 1.067 5.864 1.608 9.202 1.608 3.34 0 6.432-0.541 9.19-1.609 2.765-1.07 5.166-2.582 7.137-4.494 1.969-1.911 3.517-4.205 4.603-6.818 1.083-2.607 1.633-5.476 1.633-8.53zm-318.24 3e-3c0 8.163 4.2182 15.045 12.082 18.782 3.7386 1.777 7.8184 2.646 11.845 2.646 5.6931 0 11.545-1.848 15.877-5.227v-9.674l-0.3321-0.096c-2.6787 4.588-7.9973 7.728-14.148 7.728-10.693 0-16.033-7.638-16.033-14.328 0-2.378 0.64292-4.768 1.8282-6.731 2.6649-4.63 8.0195-7.798 14.205-7.798 6.2328 0 11.61 3.223 14.252 7.911l0.2278-0.067-0.0065-9.562c-7.3581-5.77-18.706-6.837-27.841-2.484-7.7751 3.706-11.956 10.955-11.956 18.9zm88.155 14.293v-35.346h-12.908l-0.0857 0.276c2.0108 1.166 3.424 3.261 3.4507 5.683 0.0046 0.238 0 11.503 0 11.503h-18.732v-17.494h-12.974l-0.1042 0.308c2.0099 1.166 3.4157 3.349 3.4434 5.771 0.0101 0.247 0.0064 35.929 0.0064 35.929h12.957l0.0664-0.212c-1.3541-0.851-3.3954-2.69-3.3954-6.418v-11.115h18.732v17.742l12.873 3e-3 0.0645-0.212c-1.3522-0.851-3.3945-2.69-3.3945-6.418zm175.83 0.238v-35.612h-12.94l-0.085 0.277c2.01 1.165 3.431 3.375 3.459 5.797 0.018 0.192-9e-3 35.93-9e-3 35.93l12.889 5e-3 0.065-0.213c-1.323-0.831-3.291-2.62-3.379-6.184zm-28.078-19.111c-1.168 3.023-4.303 3.908-7.477 3.901h-5.284v-13.14h5.284c5.371 0 9.581 4.09 7.477 9.239zm5.706-12.708c-3.579-2.879-8.128-3.773-13.183-3.793h-18.257l-0.086 0.277c2.011 1.165 3.371 3.263 3.399 5.685 0.018 0.193 0.04 0.38 0.052 0.585v35.457h12.959l0.066-0.212c-1.353-0.851-3.395-2.69-3.395-6.418v-7.654h5.262c6.797 0.033 13.626-2.097 16.365-8.398 2.109-5.069 1.295-11.936-3.182-15.529zm-126.66 21.459s5.759-14.938 5.802-15.072c5e-3 0.015 0.011 0.029 0.015 0.044l0.015-0.044c0.043 0.134 5.803 15.072 5.803 15.072h-11.635zm27.58 14.444c-1.024-1.27-1.341-2.169-2.065-3.626-0.129-0.26-0.257-0.532-0.369-0.8l-14.719-35.274h-9.22l-14.886 35.676c-0.875 1.7-1.153 2.642-2.2664 4.024-1.1373 1.411-2.5864 2.086-2.6371 2.086l0.0682 0.219c0.6134 0 1.3541-1e-3 1.3541-1e-3h8.1622c1.46 0 2.867-0.919 3.345-2.174l3.039-7.816h16.862l3.039 7.816c0.479 1.255 1.856 2.174 3.345 2.174 0 0 8.903 1e-3 9.517 1e-3l0.068-0.219c-0.051 0-1.501-0.675-2.637-2.086zm-55.426-274.48c2.2009-1.9892 4.0458-2.94 4.0458-2.94l7.0684 23.405s0.9354-15.867 1.5349-23.576c0.0277-0.3492 0.3424-0.5943 0.6884-0.5418 4.029 0.6118 12.107 3.2 12.107 3.2s-9.019-16.968-9.738-18.601c-0.043-0.0949-0.054-0.2009-0.036-0.3032 1.074-6.2496 3.258-12.193 4.67-18.376 3.543 1.3323 6.895 2.8958 10.332 4.4106 1.009 0.4431 1.988 0.8835 2.991 1.3037 0.197 0.082 0.325 0.2709 0.32 0.4846-0.174 7.3231-0.261 17.183-0.301 24.254 3.222-6.749 6.516-13.463 9.809-20.178 0.119-0.2442 0.404-0.3548 0.657-0.2571 5.222 2.0169 10.468 3.9508 15.753 5.7954-2.681-5.249-5.775-13.013-8.704-18.455-0.086-0.1668-0.075-0.3676 0.028-0.5243 0.936-1.4299 1.84-2.7337 2.741-3.983 3.117-4.3084 6.202-8.0325 9.567-12.341 4.196 1.5498 8.705 3.7482 12.649 5.7236 1.008 0.504 1.91 0.9591 2.665 1.3286 0.217 0.106 0.329 0.3381 0.275 0.574-1.484 6.4579-3.184 16.037-4.733 22.251 5.565-5.3523 10.839-10.958 16.257-16.452 0.163-0.1649 0.414-0.2045 0.618-0.0967 6.399 3.3464 12.637 6.9517 18.949 10.457-3.153-6.504-6.277-12.978-9.687-19.352-0.125-0.2341-0.055-0.5252 0.165-0.6763 4.829-3.3142 9.702-6.5611 14.593-9.784 4.892 3.2229 9.764 6.4698 14.595 9.784 0.219 0.1511 0.289 0.4422 0.164 0.6763-3.41 6.374-6.534 12.848-9.687 19.352 6.313-3.5049 12.55-7.1102 18.948-10.457 0.205-0.1078 0.457-0.0682 0.618 0.0967 5.419 5.4941 10.693 11.1 16.258 16.452-1.548-6.211-3.248-15.787-4.732-22.244-0.053-0.2368 0.061-0.4773 0.279-0.5842 0.754-0.3685 11.113-5.4996 15.309-7.0494 6.109 7.1959 11.372 14.894 12.309 16.324 0.102 0.1567 0.111 0.3557 0.028 0.5243-2.869 5.8341-6.023 13.206-8.706 18.455 5.286-1.8446 10.532-3.7785 15.754-5.7954 0.253-0.0977 0.538 0.0129 0.657 0.2571 3.293 6.7149 6.587 13.429 9.809 20.178-0.04-7.0696-0.126-16.926-0.3-24.248-6e-3 -0.2138 0.121-0.4073 0.32-0.4902 1.002-0.4202 9.779-4.382 13.322-5.7143 1.412 6.1823 3.597 12.126 4.671 18.376 0.018 0.1023 5e-3 0.2083-0.036 0.3032-0.72 1.6326-9.739 18.601-9.739 18.601s8.078-2.5882 12.107-3.2c0.347-0.0525 0.661 0.1926 0.688 0.5418 0.6 7.7082 1.535 23.576 1.535 23.576l7.069-23.405s1.845 0.9508 4.046 2.94c1.44 1.301 2.252 2.32 2.702 2.9788-3.121 6.9379-7.271 15.158-11.694 21.108-2.267 3.049-4.532 5.589-7.209 7.952-2.079 1.835-4.359 3.427-6.781 4.781-4.773 2.67-10.411 5.224-12.936 6.332-0.62 0.273-1.331-0.109-1.448-0.777l-3.381-19.415-10.822 26.081c-0.122 0.292-0.368 0.513-0.672 0.601-2.839 0.826-17.584 5.074-25.075 6.476-0.965 0.18-19.903 2.507-26.6 3.003-0.453 0.033-0.866-0.228-1.035-0.648-3.451-8.587-10.241-25.189-10.241-25.189s-6.773 16.602-10.223 25.189c-0.17 0.42-0.583 0.681-1.036 0.648-6.698-0.496-25.635-2.823-26.6-3.003-7.491-1.402-22.236-5.65-25.075-6.476-0.304-0.088-0.55-0.309-0.671-0.601l-10.823-26.081-3.381 19.415c-0.117 0.668-0.829 1.05-1.449 0.777-3.124-1.372-11.967-5.389-16.138-8.232-3.943-2.688-7.5658-6.517-10.773-10.833-4.4635-6.0051-8.6513-14.322-11.781-21.3 0.4741-0.6588 1.271-1.6124 2.5716-2.7872zm18.608 66.907-6.7793-27.552c-0.1227-0.499 0.1356-1.012 0.6097-1.211l6.4426-2.711c4.355 7.481 11.805 15.036 16.824 21.623 0.154 0.201 0.227 0.45 0.21 0.704-0.529 7.403-1.053 14.886-1.189 22.463 4.313-2.802 8.277-5.081 12.828-7.586 0.428-0.236 0.963-0.141 1.287 0.225 6.976 7.876 14.226 14.933 21.746 22.377-3.586-9.564-6.812-17.929-10.55-27.4-0.197-0.501 0.017-1.071 0.497-1.316 5.639-2.884 10.954-5.544 16.676-8.408 6.763 5.207 18.521 13.693 21.318 15.706 0.364 0.263 0.52 0.728 0.386 1.156l-7.945 25.588 23.86-15.393c0.345-0.223 0.789-0.223 1.134 0l23.843 15.393-7.945-25.588c-0.133-0.428 0.022-0.893 0.386-1.156 2.797-2.013 14.555-10.499 21.318-15.706 5.722 2.864 11.037 5.524 16.677 8.408 0.478 0.245 0.693 0.815 0.497 1.316-3.738 9.471-6.964 17.836-10.551 27.4 7.52-7.444 14.77-14.501 21.746-22.377 0.325-0.366 0.859-0.461 1.288-0.225 4.55 2.505 8.514 4.784 12.827 7.586-0.136-7.577-0.66-15.06-1.188-22.463-0.018-0.254 0.055-0.503 0.209-0.704 5.021-6.589 12.471-14.145 16.826-21.627l6.454 2.715c0.474 0.199 0.732 0.712 0.609 1.211l-6.78 27.552s11.892-22.736 17.856-40.032c10.195-29.57 8.772-36.851 8.783-37.349 1e-3 -0.011-0.014-0.0147-0.019-0.0037-0.213 0.5842-2.093 5.6987-4.963 12.194-0.024-3.3898-0.671-10.774-4.944-20.94-0.037-0.0894-0.038-0.1889-0.018-0.2829 1.689-7.6593 3.884-22.767 3.884-22.767s-6.423 8.6093-10.364 13.087c-0.202 0.2295-0.557 0.2359-0.768 0.0148-2.917-3.0507-7.477-6.5979-10.947-9.4007-3.796-3.0479-9.487-6.2828-13.664-8.495-0.163-0.0857-0.268-0.2516-0.277-0.4349-0.337-6.9518-0.682-13.903-1.014-20.854-3.185 5.3126-6.453 10.57-9.736 15.821-0.133 0.211-0.393 0.2995-0.626 0.2129-5.289-1.9782-12.072-4.2254-17.834-5.6784-5.812-1.4696-12.72-2.9254-18.281-3.9499-0.195-0.036-0.35-0.176-0.405-0.3649-1.552-5.3918-3.649-12.825-5.196-18.394-2.61 5.7328-5.258 11.102-8.046 16.674-0.097 0.1917-0.298 0.305-0.511 0.2875-6.452-0.5298-13.337-0.5943-19.804-0.5519-6.466-0.0424-13.351 0.0221-19.803 0.5519-0.213 0.0175-0.415-0.0958-0.51-0.2875-2.789-5.5724-5.438-10.941-8.047-16.674-1.547 5.5697-3.643 13.002-5.196 18.394-0.055 0.1889-0.21 0.3289-0.404 0.3649-5.562 1.0245-12.47 2.4803-18.282 3.9499-5.762 1.453-12.544 3.7002-17.834 5.6784-0.232 0.0866-0.493-0.0019-0.625-0.2129-3.284-5.2508-6.552-10.508-9.736-15.821-0.333 6.9517-0.677 13.902-1.015 20.854-9e-3 0.1833-0.114 0.3492-0.277 0.4349-4.176 2.2122-9.868 5.4471-13.664 8.495-3.47 2.8028-8.0301 6.35-10.946 9.4007-0.2121 0.2211-0.5663 0.2147-0.7693-0.0148-3.9405-4.4778-10.363-13.087-10.363-13.087s2.1944 15.108 3.8834 22.767c0.0203 0.094 0.0203 0.1935-0.0166 0.2829-4.0771 9.6956-4.8547 16.876-4.9387 20.46-2.7524-6.2662-4.5447-11.145-4.7532-11.714-0.0037-0.011-0.0193-0.0073-0.0184 0.0037 0.012 0.4985-1.4113 7.7791 8.7832 37.349 5.9634 17.296 17.855 40.032 17.855 40.032zm97.66 150.76c-2e-3 0-4e-3 -1e-3 -6e-3 -1e-3s-4e-3 1e-3 -7e-3 1e-3h0.013zm71.145-15.3v8.321c0 1.332 1.127 2.458 2.46 2.458 1.332 0 2.459-1.126 2.459-2.458v-8.321c0-8.444-6.046-14.34-14.701-14.34-8.117 0-14.238 6.189-14.238 14.396v14.797h4.917v-14.797c0-5.775 3.884-9.656 9.666-9.656 5.293 0 9.437 4.216 9.437 9.6zm26.466-9.772c3.268 0 5.174 1.029 6.016 1.64 0.386 0.285 0.877 0.449 1.347 0.449 1.26 0 2.286-0.998 2.286-2.227 0-0.771-0.337-1.453-0.924-1.871-1.882-1.348-3.966-2.559-8.725-2.559-6.485 0-11.193 3.617-11.193 8.599 0 5.188 3.763 8.54 9.585 8.54h3.305c2.037 0 4.466 0.659 4.466 3.801 0 2.509-2.487 4.261-6.047 4.261-3.314 0-6.06-0.924-8.395-2.828l-0.323-0.262-3.258 3.465 0.374 0.302c3.091 2.509 7.21 3.89 11.602 3.89 6.626 0 11.079-3.548 11.079-8.828 0-5.005-3.818-8.368-9.498-8.368h-3.305c-2.852 0-4.553-1.486-4.553-3.973 0-2.411 2.476-4.031 6.161-4.031zm-176.76 17.131-6.529-14.39c-0.407-0.813-1.241-1.339-2.124-1.339-0.915 0-1.707 0.448-2.076 1.186l-6.47 14.542-8.6823-21.124h-5.5197l12.106 27.943c0.289 0.714 1.182 1.251 2.079 1.251 0.782 0 1.769-0.398 2.077-1.246l6.431-14.847 6.542 14.851c0.294 0.662 1.237 1.242 2.017 1.242 0.946 0 1.722-0.463 2.079-1.246l12.107-27.948h-5.522l-8.515 21.125zm164.45-31.973c-0.925 0-1.724 0.573-2.139 1.541l-4.847 11.923h5.045l4.137-10.155c0.124-0.308 0.204-0.711 0.204-1.026 0-1.279-1.054-2.283-2.4-2.283zm-56.973 10.274c-8.39 0-15.216 6.665-15.216 14.856 0 8.222 6.826 14.912 15.216 14.912 4.947 0 9.556-2.61 12.331-6.982l0.24-0.378-4.235-2.678-0.226 0.427c-1.565 2.96-4.75 4.871-8.11 4.871-5.584 0-10.127-4.564-10.127-10.172 0-5.579 4.543-10.116 10.127-10.116 4.442 0 8.188 3.146 9.276 7.717h-9.564c-1.303 0-2.285 1.006-2.285 2.341 0 1.279 1.004 2.284 2.285 2.284h14.93v-2.226c0-8.191-6.568-14.856-14.642-14.856zm-21.834 29.481c1.379 0 2.459-1.054 2.459-2.4v-15.899c0-6.166-5.022-11.182-11.194-11.182-3.359 0-6.631 1.629-8.682 4.285-2.121-2.692-5.34-4.285-8.73-4.285-6.172 0-11.194 5.016-11.194 11.182v18.011h4.918v-18.011c0-3.553 2.815-6.442 6.276-6.442 3.402 0 6.276 2.95 6.276 6.439l-0.057 11.713c0 1.344 1.08 2.397 2.458 2.397 1.379 0 2.459-1.053 2.459-2.397v-11.71c0-3.553 2.815-6.442 6.276-6.442 3.403 0 6.276 2.95 6.276 6.442v15.899c0 1.346 1.08 2.4 2.459 2.4zm-56.659-24.799c2.881 0 5.004 1.167 6.276 2.144 0.564 0.438 1.175 0.67 1.768 0.67 1.403 0 2.345-1.24 2.345-2.399 0-0.687-0.336-1.392-0.907-1.893-1.807-1.504-5.375-3.26-9.482-3.26-8.39 0-15.217 6.689-15.217 14.912 0 8.222 6.827 14.912 15.217 14.912 8.358 0 15.158-6.69 15.158-14.912 0-2.281-0.538-4.51-1.598-6.629l-0.198-0.394-4.484 2.169 0.203 0.404c0.647 1.289 0.988 2.828 0.988 4.45 0 5.704-4.423 10.172-10.069 10.172-5.679 0-10.127-4.468-10.127-10.172 0-5.705 4.448-10.174 10.127-10.174zm15.237-39.168c0.318-2.761-0.528-5.332-2.581-7.862l-9.692-11.91-4.8 3.896 8.897 10.937c1.552 1.9 1.981 2.953 1.837 4.51-0.108 1.226-0.857 2.488-2.057 3.461-1.194 0.969-2.582 1.443-3.808 1.297-1.552-0.178-2.495-0.812-4.04-2.718l-8.901-10.932-4.8 3.898 9.694 11.912c2.06 2.524 4.408 3.873 7.177 4.128 0.328 0.03 0.65 0.047 0.972 0.05 2.683 0.023 5.175-0.921 7.59-2.874 2.691-2.195 4.167-4.744 4.512-7.793zm34.058 0.484c-18.15 0-34.616 8.112-44.661 20.107l3.186 3.931c9.122-11.339 24.639-19.135 41.475-19.135s32.353 7.796 41.475 19.135l3.186-3.931c-10.045-11.995-26.512-20.107-44.661-20.107zm48.901 14.97 7.345-25.249c0.292-0.889 0.504-2.202-0.988-3.35l-0.945-0.727c-1.476-1.136-2.644-0.648-3.497-0.096l-22.127 14.304 5.783 3.268 14.107-9.112-2.432 8.189-2.14-1.607-3.697 2.645 4.59 3.425-1.066 3.678 5.067 4.632zm-28.302-38.537 9.317 2.411 1.472-5.675-9.579-2.48c-5.251-1.358-8.847 0.605-10.123 5.528l-3.913 15.08c-0.182 0.699-0.107 1.358 0.214 1.904 0.32 0.546 0.861 0.929 1.56 1.11l3.558 0.921 2.52-9.753 10.783 2.79 1.455-5.611-10.785-2.791 0.419-1.611c0.555-2.139 1.194-2.317 3.102-1.823zm43.13 8.901c1.814 1.564 3.55 3.192 5.21 4.871l3.29-4.057c-1.633-1.632-3.334-3.216-5.105-4.743-18.404-15.869-42.243-24.608-67.124-24.608s-48.72 8.739-67.124 24.608c-1.771 1.527-3.472 3.111-5.105 4.743l3.289 4.056c1.661-1.679 3.396-3.306 5.21-4.87 17.461-15.056 40.095-23.348 63.73-23.348s46.268 8.292 63.729 23.348zm-73.359-17.222-15.547 3.152c-0.71 0.144-1.271 0.5-1.622 1.028-0.351 0.529-0.46 1.183-0.316 1.892l3.099 15.249c0.504 2.479 1.617 4.266 3.309 5.309 1.118 0.689 2.46 1.034 4.007 1.033 0.786-1e-3 1.628-0.092 2.519-0.273l9.716-1.97-1.169-5.756-9.453 1.917c-1.934 0.392-2.563 0.179-3.004-1.991l-0.333-1.637 10.934-2.216-1.156-5.691-10.934 2.216-0.83-4.084 11.949-2.423-1.169-5.755z" fill="#0050a0"/>
</svg>