<svg height="318.08249" viewBox="0 0 84.728 85.791" width="314.383857" xmlns="http://www.w3.org/2000/svg" xmlns:xlink="http://www.w3.org/1999/xlink"><symbol id="a" overflow="visible"/><symbol id="b" overflow="visible"/><clipPath id="c"><path d="m802.04 357.16h27.387v27.391h-27.387z"/></clipPath><g transform="translate(-98.879 -29.696)"><text x="270.53787" y="-207.91901"><tspan x="270.53787" y="-207.91901"/></text><text x="275.40149" y="-219.47005"><tspan x="275.40149" y="-219.47005"/></text><g stroke-width=".72164"><g fill="#fff" transform="matrix(1.8476 0 0 1.8476 -1366.898804 -628.965656)"><use height="100%" width="100%" x="132.05811" xlink:href="#a" y="772.19922"/><use height="100%" width="100%" x="413.59711" xlink:href="#a" y="606.51923"/><use height="100%" width="100%" x="487.62909" xlink:href="#a" y="619.51923"/><use height="100%" width="100%" x="524.40411" xlink:href="#a" y="661.34918"/><use height="100%" width="100%" x="419.8461" xlink:href="#a" y="690.1792"/><use height="100%" width="100%" x="383.82211" xlink:href="#a" y="724.6792"/><use height="100%" width="100%" x="444.6091" xlink:href="#a" y="759.1792"/><use height="100%" width="100%" x="511.4061" xlink:href="#a" y="772.1792"/></g><g transform="matrix(1.8476 0 0 1.8476 115.763465712 32.007387108)"><g clip-path="url(#c)" transform="translate(-802.04 -357.16)"><path d="m829.43 370.86c0 7.5625-6.1289 13.695-13.691 13.695s-13.695-6.1328-13.695-13.695 6.1328-13.695 13.695-13.695 13.691 6.1328 13.691 13.695" fill="#fff" stroke-width=".72164"/></g><path d="m22.145 21.496.86328.80078c-1.3438 1.457-3.0234 2.5976-4.918 3.2969l-.41015-1.1094c1.7188-.63282 3.2422-1.668 4.4648-2.9883" fill="#fac705"/><path d="m16.82 24.766.32031 1.1328c-1.0938.3125-2.25.47656-3.4453.47656-1.1914 0-2.3477-.16406-3.4414-.47265l.32032-1.1367c.99218.28125 2.0391.42968 3.1211.42968s2.1328-.14843 3.125-.42968" fill="#d7171e"/><path d="m9.7148 24.488-.40625 1.1094c-1.8945-.69922-3.5781-1.8398-4.9219-3.293l.86328-.80078c1.2226 1.3203 2.7461 2.3516 4.4648 2.9844" fill="#0c1421"/><path d="m22.73 20.812c1.543-1.9609 2.4648-4.4297 2.4648-7.1172 0-6.3516-5.1484-11.5-11.5-11.5s-11.5 5.1484-11.5 11.5c0 2.6875.92188 5.1641 2.4688 7.1211l-.92578.73047c-1.707-2.1602-2.7227-4.8867-2.7227-7.8516 0-7.0039 5.6758-12.68 12.68-12.68s12.68 5.6758 12.68 12.68c0 2.9609-1.0195 5.6875-2.7188 7.8477z" fill="#7a7878"/><path d="m24.004 13.695c0 5.6914-4.6172 10.309-10.309 10.309-5.6953 0-10.309-4.6172-10.309-10.309 0-5.6914 4.6133-10.309 10.309-10.309 5.6914 0 10.309 4.6172 10.309 10.309" fill="#00a668"/><path d="m22.906 11.59-5.8945-3.418v1.7226l2.9766 1.6953-7.3203 4.1641v-4.0977l3.0938 1.7969v-1.6484l-3.0938-1.7852v-2.6328l3.0938 1.7852v-1.7266l-4.582-2.6406v4.3555l-3.7734-2.1758-.008 13.531 3.7812-2.1758v4.3672l1.4883-.86328v-4.3672l5.0391-2.9062 2.2812 1.3633-6.0508 3.457v1.7226l8.9688-5.1797-3.7461-2.1914zm-11.727 5.0234-2.2812 1.3242-.004-8.4492 2.2852 1.3203z" fill="#fff"/></g><use fill="#a6a3a6" height="100%" transform="matrix(1.8476 0 0 1.8476 -1366.898804 -628.965656)" width="100%" x="976.68848" xlink:href="#b" y="822.65808"/></g><g transform="translate(1.7403 .87016)"><g><path d="m110.05 88.969v5.7187q0 1.7365-.83562 2.5982-.82256.86173-2.3893.86173-1.2012 0-1.8932-.6006l.67894-1.5929q.52226.41781 1.0706.41781 1.4232 0 1.4232-1.7626v-5.6404z"/><path d="m119.55 88.969v5.2748q0 1.9062-.97924 2.9247-.97924 1.0054-2.8072 1.0054-1.8018 0-2.781-1.0054-.96618-1.0184-.96618-2.9247v-5.2748h1.9454v5.2879q0 1.0445.48309 1.606t1.3579.56143q.87479 0 1.3448-.56143.48309-.56143.48309-1.606v-5.2879z"/><path d="m121.67 97.978v-8.095l-.62672-.91396h2.3241l3.8256 5.5098h.013v-5.5098h1.9193v9.009h-1.7496l-3.7603-5.4837h-.0261v5.4837z"/><path d="m133.25 88.969v9.009h-1.9454v-9.009z"/><path d="m139.5 88.774q2.0629 0 3.3555 1.3056 1.2926 1.2926 1.2926 3.3816t-1.2926 3.4077q-1.2926 1.3056-3.3555 1.3056-2.089 0-3.3816-1.2926-1.2795-1.3056-1.2795-3.4208 0-2.0629 1.3056-3.3686 1.3056-1.3187 3.3555-1.3187zm1.9324 2.546q-.73116-.8095-1.9324-.8095t-1.9454.8095q-.73116.79645-.73116 2.1282 0 1.3448.73116 2.1543.74422.79645 1.9454.79645t1.9324-.79645q.74422-.8095.74422-2.1543 0-1.3318-.74422-2.1282z"/><path d="m147.69 94.936v3.0422h-1.9454v-9.009h2.8333q1.7757 0 2.7419.77033.96618.75728.96618 2.2065 0 .97924-.49615 1.6712-.48309.69199-1.397 1.0315l2.3502 3.3294h-2.3632l-2.0238-3.0422zm2.6374-2.9377q0-.62671-.44392-.97924-.44393-.35252-1.2665-.35252h-.92702v2.7419h.92702q.83561 0 1.2665-.36558.44392-.36558.44392-1.0445z"/><path d="m159.89 88.969v1.6843h-3.8386v1.9585h3.3425v1.619h-3.3425v2.0238h3.9692v1.7235h-5.9146v-9.009z"/><path d="m161.78 97.978v-8.095l-.62671-.91396h2.3241l3.8256 5.5098h.0131v-5.5098h1.9193v9.009h-1.7496l-3.7603-5.4837h-.0261v5.4837z"/><path d="m174.9 92.979v1.6472h-3.6294v-1.6472z"/></g><g><path d="m106.44 108.27q0 1.1452-.84587 1.8088-.83285.66367-2.4335.66367h-3.1232v-8.9792h2.928q1.5486 0 2.3554.62463.80683.61163.80683 1.7048 0 .83285-.40341 1.3534-.3904.52053-1.0411.71573v.026q.74176.13013 1.2493.6897.50752.54656.50752 1.3924zm-2.1992-3.865q0-1.015-1.3274-1.015h-.93696v2.0821h.93696q.63765 0 .976-.27328.35136-.28629.35136-.79381zm.27328 3.6177q0-1.0671-1.4835-1.0671h-1.0541v2.1472h1.0671q1.4705 0 1.4705-1.0801z"/><path d="m115.44 101.76v5.2574q0 1.8999-.976 2.915-.976 1.002-2.7979 1.002-1.7958 0-2.7718-1.002-.96299-1.015-.96299-2.915v-5.2574h1.939v5.2704q0 1.0411.4815 1.6006.48149.55957 1.3534.55957t1.3404-.55957q.48149-.55957.48149-1.6006v-5.2704z"/><path d="m117.55 110.74v-8.0682l-.62464-.91093h2.3164l3.8129 5.4916h.013v-5.4916h1.913v8.9792h-1.7438l-3.7478-5.4656h-.026v5.4656z"/><path d="m134.93 106.17q0 2.1602-1.2883 3.3704-1.2753 1.1972-3.5917 1.1972h-2.889v-8.9792h2.889q2.3164 0 3.5917 1.1582 1.2883 1.1582 1.2883 3.2533zm-1.978 0q0-1.2883-.72875-1.991-.72874-.71573-2.0691-.71573h-1.0541v5.5306h1.0541q1.3534 0 2.0691-.74176.72875-.74175.72875-2.0821z"/><path d="m142.3 101.76v1.6787h-3.8259v1.952h3.3314v1.6136h-3.3314v2.0171h3.956v1.7178h-5.895v-8.9792z"/><path d="m149.52 102.92-1.1582 1.1972q-.65066-.87189-1.5876-.87189-.48149 0-.76779.22123-.27328.20821-.27328.57258-.013.45547.31232.71574.32534.26026 1.2883.66367 1.1972.50752 1.7178 1.0931.53354.5856.53354 1.6787 0 1.1842-.87189 1.965-.85888.7808-2.3424.7808-1.965 0-3.0061-1.5226l1.1712-1.2753q.72875 1.0801 1.7958 1.0801.59861 0 .91093-.23424.32533-.23424.32533-.65067 0-.46848-.32533-.76778-.31232-.31232-1.0801-.59861-1.1712-.46848-1.7828-1.0931-.61162-.62464-.61162-1.7438 0-1.1192.80682-1.8349.81984-.72874 2.1212-.72874 1.8219 0 2.8239 1.3534z"/><path d="m153.17 101.76v7.2354h3.2794v1.7438h-5.2183v-8.9792z"/><path d="m159.73 101.76v8.9792h-1.939v-8.9792z"/><path d="m169.23 110.74-.81984-.53354q-1.028.72874-2.5896.72874-2.0301 0-3.2663-1.2753-1.2363-1.2753-1.2363-3.3835 0-2.1212 1.2883-3.4095 1.3013-1.3013 3.3574-1.3013 1.1842 0 1.965.3904.7808.37738 1.3664 1.1322l-1.2883 1.2102q-.76778-1.002-2.004-1.002-1.2102 0-1.965.79381-.74175.7808-.74175 2.1602 0 1.3143.72874 2.1212.72875.80683 1.926.80683 1.0671 0 1.6917-.44245v-1.2883h-1.8869v-1.5486h3.6047v4.8409z"/><path d="m170.15 110.74 3.2924-8.1854-.33835-.79381h2.0561l3.6047 8.9792h-2.1082l-.65066-1.7568h-3.1752l-.65066 1.7568zm4.2554-6.0382-1.002 2.7328h2.0301l-1.002-2.7328z"/></g></g></g></svg>