
<svg version="1.1" id="svg1233" width="507.09573" height="597.60114" viewBox="0 0 507.09573 597.60114" xmlns="http://www.w3.org/2000/svg">
  
  <defs id="defs1237"></defs>
  <g id="g1745" transform="matrix(1.8547136,0,0,1.8547136,2.1814492e-7,-6.971598e-6)">
    <path id="path22" style="fill:#182241;fill-opacity:1;fill-rule:nonzero;stroke:none;stroke-width:0.0968363" d="M 40.121985,285.51749 H 26.99464 c 0,0 -10.499378,11.60402 -12.450399,13.77385 0,-2.7296 0,-13.77385 0,-13.77385 H 2.90637 0.290899 c -0.445204,0 -0.325972,0.36961 0,0.66315 1.036569,0.89428 2.615471,2.58429 2.615471,4.53376 v 26.97429 c 0,1.73098 1.200038,3.05142 3.013553,3.05142 h 8.624318 c 0,0 0,-11.02864 0,-13.76507 1.951021,2.1708 12.450399,13.76507 12.450399,13.76507 h 13.127345 c 0,0 -14.727399,-16.74629 -15.495691,-17.61228 0.768292,-0.86988 15.495691,-17.61034 15.495691,-17.61034"></path>
    <path id="path24" style="fill:#182241;fill-opacity:1;fill-rule:nonzero;stroke:none;stroke-width:0.0947858" d="m 142.9948,302.05688 c 0,12.10184 8.27771,18.43138 16.46503,18.43138 4.94072,0 10.22342,-1.5937 13.80082,-4.1612 l 0.27863,-0.19379 v -15.72893 h -10.83099 v 6.41826 c 0,0 3.1124,0 4.08061,0 0,0.93714 0,3.69458 0,4.3444 -1.84228,1.24375 -4.06849,1.93116 -6.47082,1.93116 -4.95005,0 -9.94109,-3.76495 -9.94109,-10.94873 0,-6.71811 3.7144,-11.24763 9.25988,-11.24763 4.90624,0 8.93839,2.53955 10.45266,3.63289 l 0.53584,0.39722 2.9782,-7.07773 -0.50879,-0.31237 c -0.26465,-0.1533 -6.68143,-3.83244 -13.03484,-3.83244 -8.47711,0 -17.06514,6.29965 -17.06514,18.34751"></path>
    <path id="path26" style="fill:#182241;fill-opacity:1;fill-rule:nonzero;stroke:none;stroke-width:0.096835" d="m 60.690696,313.6439 c 0,-1.3087 0,-28.1711 0,-28.1711 H 52.8491 50.236514 c -0.444245,0 -0.333659,0.36961 -0.005,0.66314 1.025991,0.89425 2.61739,2.58422 2.61739,4.53363 v 27.64352 c 0,1.48227 0.782715,2.38139 2.351996,2.38139 h 21.823774 v -7.05058 c 0,0 -15.226447,0 -16.334174,0"></path>
    <path id="path28" style="fill:#182241;fill-opacity:1;fill-rule:nonzero;stroke:none;stroke-width:0.0968294" d="m 88.327672,313.37941 c 0,-0.97993 0,-5.9294 0,-6.91519 1.10964,0 13.210988,0 13.210988,0 v -7.68842 c 0,0 -12.101348,0 -13.210988,0 0,-0.93899 0,-5.55693 0,-6.51348 1.10964,0 14.853358,0 14.853358,0 v -7.05074 h -22.696878 -2.61259 c -0.434632,0 -0.316359,0.36956 -0.0022,0.66306 1.02984,0.89415 2.61451,2.58392 2.61451,4.53311 v 27.64031 c 0,1.68393 0.66252,2.38112 2.3645,2.38112 h 21.311258 v -7.04977 c 0,0 -14.712968,0 -15.832238,0"></path>
    <path id="path30" style="fill:#182241;fill-opacity:1;fill-rule:nonzero;stroke:none;stroke-width:0.0988847" d="m 200.01068,284.30164 v 20.68584 c 0,5.6794 -0.98176,9.2406 -6.74444,9.2406 -5.65403,0 -7.46947,-2.9653 -7.46947,-9.04739 v -20.87905 h -7.77236 -2.6049 c -0.45098,0 -0.33752,0.38541 0,0.6915 1.02696,0.9325 2.6049,2.69478 2.6049,4.72759 v 16.68329 c 0,10.50258 4.41744,15.80267 15.19182,15.80267 10.74554,0 14.55817,-4.90554 14.55817,-15.80267 v -22.10238 h -7.76372"></path>
    <path id="path32" style="fill:#182241;fill-opacity:1;fill-rule:nonzero;stroke:none;stroke-width:0.0976233" d="m 121.5869,305.30704 c 0.47791,-1.56698 3.79339,-12.26218 4.04052,-13.0521 0.37213,0 0.75964,0 1.12696,0 0.25578,0.78992 3.57607,11.48512 4.07032,13.0521 -1.33274,0 -7.93006,0 -9.2378,0 z m 10.03398,-20.95434 h -13.48313 c -0.4327,0 -0.31251,0.37564 0,0.67396 1.02311,0.90291 1.38274,2.9248 0.73464,4.89318 l -10.2311,30.23026 h 8.31854 c 0,0 2.04238,-6.5533 2.29335,-7.35613 0.77406,0 13.09657,0 13.86006,0 0.25866,0.80283 2.29814,7.35613 2.29814,7.35613 h 8.33585 l -12.12635,-35.7974"></path>
    <path id="path34" style="fill:#182241;fill-opacity:1;fill-rule:nonzero;stroke:none;stroke-width:0.100463" d="m 221.63868,313.30051 c 0,-0.99891 0,-6.04421 0,-7.04909 1.16978,0 13.94993,0 13.94993,0 v -7.83728 c 0,0 -12.78015,0 -13.94993,0 0,-0.95718 0,-5.66451 0,-6.63959 1.16978,0 15.67817,0 15.67817,0 v -7.18725 h -23.96099 -2.75892 c -0.46609,0 -0.34728,0.37671 0,0.67589 1.08752,0.91146 2.75892,2.63396 2.75892,4.62088 v 28.17548 c 0,1.71654 0.70063,2.42722 2.49184,2.42722 h 22.50794 v -7.18626 c 0,0 -15.53907,0 -16.71696,0"></path>
    <g id="g279" transform="matrix(0.72117697,0,0,0.70226168,-192.66133,-198.92816)">
      <path id="path36" style="fill:#182241;fill-opacity:1;fill-rule:nonzero;stroke:none;stroke-width:0.133333" d="m 622.78353,337.19235 c 2.416,-1.44 3.232,-1.68 3.232,-2.46266 0,-0.904 -1.38533,-0.852 -2.87333,-0.87067 -38.62667,-0.51067 -85.61067,5.36933 -134.23466,28.36 -24.64667,11.652 -49.71467,27.69866 -74.32934,49.536 -29.76266,26.40533 -66.47199,70.65733 -84.81999,128.92399 -3.93334,12.49334 -10.63467,37.23067 -10.63467,72.004 0,11.58667 0.0173,18.22533 0.644,20.84267 0.436,1.82 1.67733,1.368 3.36267,-1.552 1.53333,-2.65867 8.25066,-14.09334 18.03866,-27.808 12.19334,-17.08533 29,-37.92267 43.66667,-50.15333 1.70933,-1.42534 2.948,-3.19334 5.74266,-0.308 3.19067,3.292 17.744,16.308 59.488,42.35866 41.74267,26.052 92.512,46.256 131.28267,56.51333 10.48666,2.77467 7.436,-1.672 4.512,-4.41066 -26.616,-24.92267 -63.16667,-74.74667 -79.84533,-102 -27.02667,-44.15333 -35.33334,-69.79467 -36.46267,-72.46133 -1.128,-2.66667 -0.55333,-4.28134 1.15467,-6.53867 1.86133,-2.46133 15.92266,-21.15333 38.768,-43.61466 22.84666,-22.46267 60.59066,-52.308 87.35999,-69.23067 16.856,-10.656 21.04534,-14.20533 25.948,-17.128"></path>
      <path id="path38" style="fill:#ed202a;fill-opacity:1;fill-rule:nonzero;stroke:none;stroke-width:0.133333" d="m 271.70754,472.98701 c 1.31733,0.90934 50.66667,35.384 51.84533,36.20534 1.18,0.82 2.568,1.71466 3.58934,-0.616 12.87333,-29.33334 28.10266,-54.64133 42.71866,-76.10267 14.61467,-21.46133 42.05067,-53.64133 73,-76.61466 2.144,-1.592 2.128,-1.07734 2.128,-4.20534 0,-3.128 0.97467,-63.53733 0.97467,-65.99999 0,-1.872 -1.11067,-3.36667 -2.76934,-1.59067 -22.79466,24.41067 -32.924,38.66667 -48.20533,63.28266 -15.28133,24.61467 -32.51333,57.84667 -33.23066,59.18 -0.71734,1.33334 -1.436,1.948 -4.308,3.48667 -2.872,1.53867 -19.02534,9.948 -39.33334,23.692 -20.308,13.744 -43.28133,33.18 -45.18,34.66667 -1.896,1.48799 -4.05066,2.66666 -1.22933,4.61599"></path>
    </g>
    <path d="m 271.58787,321.5418 1.82132,-6.6276 H 261.9956 l 6.67816,-11.54959 c 1.82132,-3.16761 3.15695,-5.45803 3.15695,-8.96676 0,-6.28649 -4.49258,-10.08762 -11.41358,-10.08762 -6.43533,0 -11.47431,4.28846 -11.47431,11.45212 l 9.10659,1.02338 c 0,-3.99606 1.03207,-5.84789 2.61055,-5.84789 1.57847,0 2.48914,1.65691 2.00345,4.33719 -0.30355,1.75436 -0.91065,3.11887 -2.12487,5.1169 l -12.50638,20.95495 0.12141,0.19492 z" style="font-size:40px;font-family:'K League Basic';fill:#182241;fill-opacity:1;stroke-width:1.35982" id="path37659"></path>
  </g>
</svg>
