<?xml version="1.0" encoding="UTF-8" standalone="no"?>
<!-- Created with Inkscape (http://www.inkscape.org/) -->
<svg version="1.1" id="svg408" width="176" height="266.6972" viewBox="0 0 176 266.6972" xmlns="http://www.w3.org/2000/svg" xmlns:svg="http://www.w3.org/2000/svg">
  <defs id="defs412">
    <clipPath clipPathUnits="userSpaceOnUse" id="clipPath424">
      <path d="m 44,144.076 c 0,-36.389 29.609,-65.998 65.998,-65.998 v 0 c 36.389,0 66.002,29.609 66.002,65.998 v 0 c 0,36.393 -29.613,66.002 -66.002,66.002 v 0 C 73.609,210.078 44,180.469 44,144.076 m 7.313,0 c 0,32.286 26.397,58.69 58.685,58.69 v 0 c 32.287,0 58.684,-26.398 58.684,-58.685 v 0 c 0,-32.287 -26.397,-58.685 -58.684,-58.685 v 0 c -0.002,0 -0.008,0 -0.01,0 v 0 c -32.285,-0.003 -58.675,26.395 -58.675,58.68 m 55.566,49.095 c -2.93,0.403 -5.633,1.391 -8.019,2.834 v 0 c -3.202,-0.683 -6.297,-1.652 -9.255,-2.887 v 0 c 4.28,-4.121 9.855,-6.983 16.179,-7.854 v 0 c 9.226,-1.274 18.049,1.956 24.268,7.986 v 0 c -2.969,1.21 -6.063,2.169 -9.27,2.832 v 0 c -4.02,-2.46 -8.881,-3.603 -13.903,-2.911 m -2.059,-14.935 c -8.116,1.12 -15.235,4.857 -20.625,10.248 v 0 c -0.421,0.422 -0.823,0.857 -1.225,1.298 v 0 c -2.31,-1.371 -4.513,-2.906 -6.582,-4.601 v 0 c 0.698,-0.803 1.424,-1.588 2.175,-2.343 v 0 c 6.577,-6.578 15.269,-11.14 25.168,-12.51 v 0 c 15.443,-2.126 30.136,4.044 39.604,15.076 v 0 c -2.077,1.675 -4.285,3.196 -6.601,4.552 v 0 c -7.772,-8.644 -19.559,-13.419 -31.914,-11.72 m -40.601,-7.25 c 8.514,-7.772 13.201,-19.457 11.511,-31.715 v 0 c -1.211,-8.785 -5.497,-16.397 -11.618,-21.918 v 0 c 1.356,-2.319 2.877,-4.533 4.557,-6.611 v 0 c 7.89,6.785 13.439,16.35 14.964,27.44 v 0 c 2.112,15.327 -3.951,29.928 -14.838,39.396 v 0 c -1.68,-2.073 -3.21,-4.276 -4.576,-6.592 m 71.925,-21.002 c -1.961,-14.238 3.124,-27.856 12.582,-37.309 v 0 c 0.764,-0.764 1.563,-1.502 2.387,-2.208 v 0 c 1.69,2.068 3.23,4.271 4.596,6.581 v 0 c -0.461,0.416 -0.916,0.838 -1.352,1.274 v 0 c -7.748,7.748 -11.918,18.906 -10.31,30.572 v 0 c 1.22,8.853 5.564,16.514 11.758,22.04 v 0 c -1.361,2.314 -2.886,4.523 -4.571,6.595 v 0 c -7.957,-6.789 -13.556,-16.397 -15.09,-27.545 m -78.119,5.012 c 2.368,-3.976 3.458,-8.741 2.78,-13.672 v 0 c -0.402,-2.919 -1.385,-5.617 -2.819,-7.994 v 0 c 0.663,-3.222 1.627,-6.33 2.838,-9.308 v 0 c 4.141,4.286 7.013,9.874 7.884,16.213 v 0 c 1.259,9.133 -1.894,17.875 -7.811,24.079 v 0 c -1.231,-2.978 -2.199,-6.093 -2.872,-9.318 m 93.049,-7.066 c -1.268,-9.215 1.947,-18.024 7.967,-24.242 v 0 c 1.225,2.944 2.193,6.024 2.876,9.21 v 0 c -2.479,4.03 -3.627,8.906 -2.935,13.942 v 0 c 0.416,3.023 1.464,5.807 2.974,8.243 v 0 c -0.674,3.187 -1.632,6.272 -2.848,9.216 v 0 c -4.223,-4.305 -7.148,-9.952 -8.034,-16.369 M 76.533,102.854 c 2.073,-1.685 4.277,-3.211 6.592,-4.572 v 0 c 7.768,8.596 19.516,13.342 31.836,11.642 v 0 c 8.79,-1.21 16.413,-5.501 21.934,-11.632 v 0 c 2.314,1.36 4.518,2.89 6.59,4.576 v 0 c -6.78,7.884 -16.345,13.435 -27.434,14.96 v 0 c -2.034,0.281 -4.058,0.416 -6.053,0.416 v 0 c -0.006,0 -0.012,0 -0.018,0 v 0 c -13.118,0 -25.236,-5.873 -33.447,-15.39 m 13.251,-7.89 c 2.964,-1.22 6.058,-2.183 9.265,-2.856 v 0 c 4.008,2.44 8.852,3.574 13.854,2.886 v 0 c 2.959,-0.407 5.691,-1.414 8.088,-2.872 v 0 c 3.2,0.673 6.291,1.636 9.254,2.862 v 0 c -4.291,4.155 -9.893,7.042 -16.252,7.918 v 0 c -1.342,0.184 -2.668,0.277 -3.986,0.277 v 0 c -7.719,-0.005 -14.916,-3.09 -20.223,-8.215" id="path422"/>
    </clipPath>
    <linearGradient x1="0" y1="0" x2="1" y2="0" gradientUnits="userSpaceOnUse" gradientTransform="matrix(0,108.03291,108.03291,0,110,94.155464)" spreadMethod="pad" id="linearGradient436">
      <stop style="stop-opacity:1;stop-color:#6bbdfa" offset="0" id="stop430"/>
      <stop style="stop-opacity:1;stop-color:#6bbdfa" offset="0.55760042" id="stop432"/>
      <stop style="stop-opacity:1;stop-color:#90f9fd" offset="1" id="stop434"/>
    </linearGradient>
    <clipPath clipPathUnits="userSpaceOnUse" id="clipPath446">
      <path d="M 0,220 H 220 V 0 H 0 Z" id="path444"/>
    </clipPath>
  </defs>
  <g id="g416" transform="matrix(1.3333333,0,0,-1.3333333,-58.666665,280.10399)">
    <g id="g418">
      <g id="g420" clip-path="url(#clipPath424)">
        <g id="g426">
          <g id="g428">
            <path d="m 44,144.076 c 0,-36.389 29.609,-65.998 65.998,-65.998 v 0 c 36.389,0 66.002,29.609 66.002,65.998 v 0 c 0,36.393 -29.613,66.002 -66.002,66.002 v 0 C 73.609,210.078 44,180.469 44,144.076 m 7.313,0 c 0,32.286 26.397,58.69 58.685,58.69 v 0 c 32.287,0 58.684,-26.398 58.684,-58.685 v 0 c 0,-32.287 -26.397,-58.685 -58.684,-58.685 v 0 c -0.002,0 -0.008,0 -0.01,0 v 0 c -32.285,-0.003 -58.675,26.395 -58.675,58.68 m 55.566,49.095 c -2.93,0.403 -5.633,1.391 -8.019,2.834 v 0 c -3.202,-0.683 -6.297,-1.652 -9.255,-2.887 v 0 c 4.28,-4.121 9.855,-6.983 16.179,-7.854 v 0 c 9.226,-1.274 18.049,1.956 24.268,7.986 v 0 c -2.969,1.21 -6.063,2.169 -9.27,2.832 v 0 c -4.02,-2.46 -8.881,-3.603 -13.903,-2.911 m -2.059,-14.935 c -8.116,1.12 -15.235,4.857 -20.625,10.248 v 0 c -0.421,0.422 -0.823,0.857 -1.225,1.298 v 0 c -2.31,-1.371 -4.513,-2.906 -6.582,-4.601 v 0 c 0.698,-0.803 1.424,-1.588 2.175,-2.343 v 0 c 6.577,-6.578 15.269,-11.14 25.168,-12.51 v 0 c 15.443,-2.126 30.136,4.044 39.604,15.076 v 0 c -2.077,1.675 -4.285,3.196 -6.601,4.552 v 0 c -7.772,-8.644 -19.559,-13.419 -31.914,-11.72 m -40.601,-7.25 c 8.514,-7.772 13.201,-19.457 11.511,-31.715 v 0 c -1.211,-8.785 -5.497,-16.397 -11.618,-21.918 v 0 c 1.356,-2.319 2.877,-4.533 4.557,-6.611 v 0 c 7.89,6.785 13.439,16.35 14.964,27.44 v 0 c 2.112,15.327 -3.951,29.928 -14.838,39.396 v 0 c -1.68,-2.073 -3.21,-4.276 -4.576,-6.592 m 71.925,-21.002 c -1.961,-14.238 3.124,-27.856 12.582,-37.309 v 0 c 0.764,-0.764 1.563,-1.502 2.387,-2.208 v 0 c 1.69,2.068 3.23,4.271 4.596,6.581 v 0 c -0.461,0.416 -0.916,0.838 -1.352,1.274 v 0 c -7.748,7.748 -11.918,18.906 -10.31,30.572 v 0 c 1.22,8.853 5.564,16.514 11.758,22.04 v 0 c -1.361,2.314 -2.886,4.523 -4.571,6.595 v 0 c -7.957,-6.789 -13.556,-16.397 -15.09,-27.545 m -78.119,5.012 c 2.368,-3.976 3.458,-8.741 2.78,-13.672 v 0 c -0.402,-2.919 -1.385,-5.617 -2.819,-7.994 v 0 c 0.663,-3.222 1.627,-6.33 2.838,-9.308 v 0 c 4.141,4.286 7.013,9.874 7.884,16.213 v 0 c 1.259,9.133 -1.894,17.875 -7.811,24.079 v 0 c -1.231,-2.978 -2.199,-6.093 -2.872,-9.318 m 93.049,-7.066 c -1.268,-9.215 1.947,-18.024 7.967,-24.242 v 0 c 1.225,2.944 2.193,6.024 2.876,9.21 v 0 c -2.479,4.03 -3.627,8.906 -2.935,13.942 v 0 c 0.416,3.023 1.464,5.807 2.974,8.243 v 0 c -0.674,3.187 -1.632,6.272 -2.848,9.216 v 0 c -4.223,-4.305 -7.148,-9.952 -8.034,-16.369 M 76.533,102.854 c 2.073,-1.685 4.277,-3.211 6.592,-4.572 v 0 c 7.768,8.596 19.516,13.342 31.836,11.642 v 0 c 8.79,-1.21 16.413,-5.501 21.934,-11.632 v 0 c 2.314,1.36 4.518,2.89 6.59,4.576 v 0 c -6.78,7.884 -16.345,13.435 -27.434,14.96 v 0 c -2.034,0.281 -4.058,0.416 -6.053,0.416 v 0 c -0.006,0 -0.012,0 -0.018,0 v 0 c -13.118,0 -25.236,-5.873 -33.447,-15.39 m 13.251,-7.89 c 2.964,-1.22 6.058,-2.183 9.265,-2.856 v 0 c 4.008,2.44 8.852,3.574 13.854,2.886 v 0 c 2.959,-0.407 5.691,-1.414 8.088,-2.872 v 0 c 3.2,0.673 6.291,1.636 9.254,2.862 v 0 c -4.291,4.155 -9.893,7.042 -16.252,7.918 v 0 c -1.342,0.184 -2.668,0.277 -3.986,0.277 v 0 c -7.719,-0.005 -14.916,-3.09 -20.223,-8.215" style="fill:url(#linearGradient436);stroke:none" id="path438"/>
          </g>
        </g>
      </g>
    </g>
    <g id="g440">
      <g id="g442" clip-path="url(#clipPath446)">
        <g id="g448" transform="translate(118.6826,153.5298)">
          <path d="M 0,0 H 10.045 V 2.961 H 0 V 5.68 H 11.132 V 8.761 H -3.817 V -5.641 H 0 Z" style="fill:#000000;fill-opacity:1;fill-rule:nonzero;stroke:none" id="path450"/>
        </g>
        <g id="g452" transform="translate(118.6826,131.5063)">
          <path d="M 0,0 H 10.045 V 2.96 H 0 V 5.68 H 11.132 V 8.761 H -3.817 V -5.642 H 0 Z" style="fill:#000000;fill-opacity:1;fill-rule:nonzero;stroke:none" id="path454"/>
        </g>
        <g id="g456" transform="translate(106.6343,128.9414)">
          <path d="m 0,0 h -11.854 v 2.801 h 10.249 v 2.961 h -10.249 v 2.483 h 11.737 v 3.081 H -15.671 V -3.077 H 0 Z" style="fill:#000000;fill-opacity:1;fill-rule:nonzero;stroke:none" id="path458"/>
        </g>
        <g id="g460" transform="translate(102.7783,157.3311)">
          <path d="m 0,0 c 0,-0.613 -0.233,-1.062 -0.703,-1.343 -0.471,-0.28 -1.208,-0.42 -2.212,-0.42 h -5.282 v 3.642 h 5.486 c 0.965,0 1.658,-0.135 2.081,-0.411 C -0.208,1.193 0,0.744 0,0.116 Z m 0.956,-4.328 c 0.853,0.372 1.479,0.865 1.886,1.478 0.514,0.783 0.776,1.72 0.776,2.811 v 0.121 c 0,1.545 -0.528,2.748 -1.586,3.603 -1.057,0.855 -2.604,1.28 -4.641,1.28 h -9.206 V -9.442 h 3.618 v 4.603 h 5.423 l 2.691,-4.603 h 4.361 z" style="fill:#000000;fill-opacity:1;fill-rule:nonzero;stroke:none" id="path462"/>
        </g>
        <g id="g464" transform="translate(45.4272,19.7705)">
          <path d="M 0,0 H 9.784 V -2.029 H 2.364 V -3.818 H 9.071 V -5.767 H 2.364 V -9.48 H -0.004 V 0 Z" style="fill:#000000;fill-opacity:1;fill-rule:nonzero;stroke:none" id="path466"/>
        </g>
        <g id="g468" transform="translate(58.3203,19.7705)">
          <path d="M 0,0 H 10.183 V -2.029 H 2.369 V -3.663 H 9.207 V -5.611 H 2.369 v -1.846 h 7.893 V -9.485 H 0.005 V 0 Z" style="fill:#000000;fill-opacity:1;fill-rule:nonzero;stroke:none" id="path470"/>
        </g>
        <g id="g472" transform="translate(77.3066,12.3184)">
          <path d="m 0,0 c 2.171,0 3.354,0.92 3.354,2.62 v 0.183 c 0,1.7 -1.183,2.62 -3.354,2.62 H -3.011 V 0 Z m -5.356,7.452 h 5.614 c 3.527,0 5.459,-1.648 5.459,-4.649 V 2.62 c 0,-3.001 -1.932,-4.648 -5.459,-4.648 h -5.614 z" style="fill:#000000;fill-opacity:1;fill-rule:nonzero;stroke:none" id="path474"/>
        </g>
        <g id="g476" transform="translate(86.3599,19.7705)">
          <path d="M 0,0 H 10.182 V -2.029 H 2.369 V -3.663 H 9.207 V -5.611 H 2.369 v -1.846 h 7.894 V -9.485 H 0 Z" style="fill:#000000;fill-opacity:1;fill-rule:nonzero;stroke:none" id="path478"/>
        </g>
        <g id="g480" transform="translate(102.3579,17.7412)">
          <path d="m 0,0 v -2.395 h 3.461 c 1.312,0 1.909,0.358 1.909,1.161 v 0.08 c 0,0.831 -0.512,1.159 -1.778,1.159 L 0,0.005 Z m 0,-7.451 h -2.369 v 9.48 h 6.021 c 2.668,0 4.076,-1.174 4.076,-3.212 v -0.08 c 0,-1.291 -0.501,-2.277 -1.734,-2.817 l 2.17,-3.371 H 5.313 L 3.551,-4.423 H 0 Z" style="fill:#000000;fill-opacity:1;fill-rule:nonzero;stroke:none" id="path482"/>
        </g>
        <g id="g484" transform="translate(116.3955,13.7783)">
          <path d="M 0,0 H 4.431 L 2.565,4.255 2.317,4.978 H 2.132 L 1.885,4.255 Z m 0.392,5.992 h 3.791 l 4.33,-9.48 H 5.961 L 5.209,-1.789 H -0.79 l -0.749,-1.699 h -2.394 z" style="fill:#000000;fill-opacity:1;fill-rule:nonzero;stroke:none" id="path486"/>
        </g>
        <g id="g488" transform="translate(137.3418,13.6611)">
          <path d="m 0,0 1.459,-1.54 c -1.421,-1.395 -3.272,-2.066 -5.68,-2.066 h -0.103 c -3.826,0 -6.444,2.001 -6.444,4.925 v 0.104 c 0,2.925 2.618,4.926 6.444,4.926 h 0.103 c 2.342,0 4.117,-0.634 5.59,-1.977 L -0.074,2.846 C -1.323,3.911 -2.468,4.32 -4.216,4.32 h -0.103 c -2.462,0 -4.077,-1.146 -4.077,-2.912 V 1.329 c 0,-1.766 1.618,-2.911 4.077,-2.911 h 0.103 c 1.637,0 3.072,0.54 4.216,1.582" style="fill:#000000;fill-opacity:1;fill-rule:nonzero;stroke:none" id="path490"/>
        </g>
        <path d="m 141.78,19.771 h 2.366 v -9.48 h -2.366 z" style="fill:#000000;fill-opacity:1;fill-rule:nonzero;stroke:none" id="path492"/>
        <g id="g494" transform="translate(156.9482,23.4189)">
          <path d="M 0,0 -2.13,-2.174 H -4.237 L -2.803,0 Z m -7.159,-8.363 v -0.079 c 0,-1.752 1.516,-2.898 3.814,-2.898 h 0.107 c 2.303,0 3.815,1.146 3.815,2.898 v 0.079 c 0,1.765 -1.516,2.926 -3.815,2.926 h -0.107 c -2.298,0 -3.814,-1.161 -3.814,-2.926 m -2.364,-0.089 v 0.107 c 0,2.936 2.513,4.941 6.181,4.941 h 0.11 c 3.668,0 6.18,-1.992 6.18,-4.898 v -0.183 c 0,-2.897 -2.512,-4.874 -6.18,-4.874 h -0.11 c -3.671,-0.009 -6.181,1.981 -6.181,4.907" style="fill:#000000;fill-opacity:1;fill-rule:nonzero;stroke:none" id="path496"/>
        </g>
        <g id="g498" transform="translate(174.5771,10.29)">
          <path d="M 0,0 H -4.46 L -8.313,7.165 -8.935,8.479 H -9.038 V 0 h -2.366 v 9.48 h 4.46 L -3.091,2.319 -2.47,1.005 h 0.104 V 9.484 H 0 Z" style="fill:#000000;fill-opacity:1;fill-rule:nonzero;stroke:none" id="path500"/>
        </g>
        <g id="g502" transform="translate(50.1743,39.4492)">
          <path d="m 0,0 v -6.133 c 0,-1.234 0.426,-1.854 1.332,-1.854 h 0.567 c 0.901,0 1.332,0.62 1.332,1.854 v 5.232 c 0,1.615 -0.379,2.615 -1.28,3.282 L -1.375,4.949 C -3.799,6.851 -4.7,8.847 -4.7,12.415 v 3.991 c 0,4.612 1.759,6.565 5.891,6.565 h 0.807 c 4.179,0 5.938,-1.95 5.938,-6.565 V 11.034 H 3.185 v 5.658 c 0,1.236 -0.428,1.856 -1.332,1.856 H 1.379 c -0.854,0 -1.333,-0.62 -1.333,-1.856 v -4.329 c 0,-1.615 0.38,-2.568 1.281,-3.282 L 4.652,6.56 C 7.072,4.705 7.978,2.709 7.978,-0.906 v -4.945 c 0,-4.611 -1.759,-6.564 -5.938,-6.564 H 1.041 c -4.038,0 -5.792,1.949 -5.792,6.564 V 0 Z" style="fill:#000000;fill-opacity:1;fill-rule:nonzero;stroke:none" id="path504"/>
        </g>
        <g id="g506" transform="translate(64.189,61.8467)">
          <path d="M 0,0 H 9.976 V -4.611 H 4.892 v -8.659 h 3.991 v -4.329 H 4.892 v -12.03 h 5.365 v -4.61 H -0.005 V 0 Z" style="fill:#000000;fill-opacity:1;fill-rule:nonzero;stroke:none" id="path508"/>
        </g>
        <g id="g510" transform="translate(92.9712,55.6162)">
          <path d="m 0,0 v -5.137 h -4.844 v 5.616 c 0,1.282 -0.474,1.902 -1.472,1.902 H -6.79 c -0.952,0 -1.473,-0.667 -1.473,-1.902 v -22.585 c 0,-1.236 0.521,-1.903 1.473,-1.903 h 0.474 c 0.952,0 1.472,0.667 1.472,1.903 v 7.273 h -1.712 v 4.47 H 0 v -17.641 h -3.039 l -0.713,4.517 h -0.286 c -0.572,-3.569 -1.899,-5.085 -4.417,-5.085 -3.278,0 -4.752,2.042 -4.752,6.512 V 0 c 0,4.851 1.759,6.799 6.225,6.799 h 0.853 C -1.71,6.799 0,4.897 0,0" style="fill:#000000;fill-opacity:1;fill-rule:nonzero;stroke:none" id="path512"/>
        </g>
        <g id="g514" transform="translate(104.041,61.8467)">
          <path d="m 0,0 v -28.389 c 0,-1.334 0.474,-1.996 1.519,-1.996 h 0.474 c 0.953,0 1.427,0.714 1.427,1.996 V 0 h 4.749 v -27.816 c 0,-4.992 -1.759,-6.992 -6.032,-6.992 H 1.239 c -4.374,0 -6.127,1.995 -6.127,6.992 V 0 Z" style="fill:#000000;fill-opacity:1;fill-rule:nonzero;stroke:none" id="path516"/>
        </g>
        <g id="g518" transform="translate(135.2969,27.6074)">
          <path d="m 0,0 h -8.406 l -2.99,25.867 -0.24,3.804 h -0.382 V 0 h -4.651 v 34.239 h 8.502 l 2.9,-25.915 0.24,-3.803 h 0.379 V 34.244 H 0.005 V 0 Z" style="fill:#000000;fill-opacity:1;fill-rule:nonzero;stroke:none" id="path520"/>
        </g>
        <g id="g522" transform="translate(148.501,31.7949)">
          <path d="m 0,0 c 1.233,0 1.565,0.475 1.565,1.949 v 21.97 c 0,1.475 -0.332,1.949 -1.565,1.949 H -1.854 V 0 Z m -6.745,30.052 h 7.123 c 4.559,0 6.177,-1.522 6.177,-6.231 V 2.043 c 0,-4.705 -1.613,-6.23 -6.177,-6.23 h -7.123 z" style="fill:#000000;fill-opacity:1;fill-rule:nonzero;stroke:none" id="path524"/>
        </g>
        <g id="g526" transform="translate(165.7871,38.2607)">
          <path d="M 0,0 H 2.9 L 1.759,16.646 1.666,20.449 H 1.285 L 1.192,16.646 Z M -2.846,23.586 H 6.083 L 8.79,-10.653 H 3.613 L 3.186,-4.188 H -0.28 l -0.475,-6.465 h -4.803 z" style="fill:#000000;fill-opacity:1;fill-rule:nonzero;stroke:none" id="path528"/>
        </g>
      </g>
    </g>
  </g>
</svg>