<?xml version="1.0" encoding="UTF-8"?>
<svg width="270.91" height="369.12" version="1.1" viewBox="0 0 80 108.95" xmlns="http://www.w3.org/2000/svg">
 <path d="m6.1448 101.92v1.359c-.94535-.295-1.6544-.354-2.127-.354-1.1226 0-1.7725.65-1.7725 2.304 0 1.595.53176 2.186 1.7725 2.186.53176 0 1.1226-.059 2.3043-.413v1.359c-.82718.354-1.7725.472-2.3634.472-2.2452 0-3.4269-.768-3.4269-3.486 0-2.777 1.3589-3.781 3.5451-3.781.59084 0 1.2408.059 2.068.354z"/>
 <path d="m11.935 108.77v-3.013h-3.0133v3.013h-1.7134v-7.149h1.7134v2.777h3.0133v-2.777h1.7135v7.149z"/>
 <path d="m19.202 107.42h-2.5997c-.2954.768-.4136 1.064-.5317 1.359h-1.8316l2.7769-7.149h1.8316l2.7179 7.149h-1.8316zm-1.2998-3.604-.7681 2.245h1.5953l-.7681-2.245z"/>
 <path d="m28.715 108.77-.1182-4.845-1.6543 3.073h-1.2999l-1.6543-3.014-.1182 4.727h-1.7135l.4727-7.149h1.7725l1.8907 3.604 1.7726-3.604h1.8316l.4727 7.149h-1.6544z"/>
 <path d="m31.433 108.77v-7.149h3.1315c1.6543 0 2.7769 1.004 2.7769 2.482 0 1.004-.5908 2.54-2.7769 2.54h-1.4181v2.127zm3.1315-5.731h-1.4181v2.186h1.4772c.8271 0 1.0044-.591 1.0044-1.122 0-.591-.4136-1.064-1.0635-1.064z"/>
 <path d="m38.228 108.77v-7.149h1.7135v7.149z"/>
 <path d="m48.035 105.29c0 1.832-.6499 3.545-3.4859 3.545-2.6588 0-3.486-1.24-3.486-3.545 0-2.659 1.2998-3.722 3.486-3.722 2.3633 0 3.4859 1.241 3.4859 3.722zm-5.2585 0c0 1.359.3545 2.186 1.7135 2.186 1.3589 0 1.7725-.768 1.7725-2.186 0-1.359-.3545-2.304-1.7725-2.304-1.4181 0-1.7135 1.004-1.7135 2.304z"/>
 <path d="m55.539 101.62v7.149h-1.4771l-3.3678-4.372v4.372h-1.6544v-7.149h1.4181l3.3678 4.431v-4.431z"/>
 <path d="m56.484 107.06c1.0635.295 2.0088.413 2.7179.413.9453 0 1.1816-.295 1.1816-.709 0-1.24-3.8995-.709-3.8995-3.072 0-1.595 1.3589-2.068 2.836-2.068.65 0 1.5953.059 2.4225.414v1.359c-1.1226-.355-2.1271-.355-2.4225-.355-.7681 0-1.1226.177-1.1226.532 0 .413.4136.532 1.4771.886 1.1817.414 2.4225.768 2.4225 2.363 0 1.537-1.2408 2.127-3.0133 2.127-.709 0-1.6544-.059-2.6588-.472v-1.418z"/>
 <path d="m67.77 108.77v-3.013h-3.0133v3.013h-1.7134v-7.149h1.7134v2.777h3.0133v-2.777h1.7135v7.149z"/>
 <path d="m70.665 108.77v-7.149h1.7135v7.149z"/>
 <path d="m73.56 108.77v-7.149h3.1314c1.6544 0 2.777 1.004 2.777 2.482 0 1.004-.5909 2.54-2.777 2.54h-1.418v2.127zm3.1314-5.731h-1.418v2.186h1.4771c.8272 0 1.0044-.591 1.0044-1.122-.059-.591-.4135-1.064-1.0635-1.064z"/>
 <path d="m67.297 89.985-2.6588.2364c-.2363 0-.4727-.1773-.4727-.4136v-1.1817c0-.1773.1182-.3545.3545-.4136l3.486-.709h1.5953c.2363 0 .4136.1772.4136.4136v11.285c0 .2363-.1773.4136-.4136.4136h-1.8907c-.2364 0-.4136-.1773-.4136-.4136z"/>
 <path d="m71.374 89.276v-1.418c0-.2364.1773-.4136.4136-.4136h7.7991c.2364 0 .4136.1772.4136.4136v1.2407l-5.1403 10.162c-.0591.1182-.2363.2364-.3545.2364h-1.8907c-.2954 0-.5318-.3546-.3545-.5909l4.6677-9.2171h-5.1404c-.2363.0591-.4136-.1773-.4136-.4136z"/>
 <path d="m59.616 93.117h4.0768c.2364 0 .4136.1773.4136.4136v1.418c0 .2364-.1772.4136-.4136.4136h-4.0768c-.2363 0-.4136-.1772-.4136-.4136v-1.418c0-.2363.2364-.4136.4136-.4136z"/>
 <path d="m10.222 87.445c.2363 0 .4136.1772.4136.4136v6.9719c0 3.4269-2.3043 4.8449-5.3176 4.8449-3.6632 0-5.3176-1.8316-5.3176-4.8449v-6.9719c0-.2364.17725-.4136.41359-.4136h2.068c.23634 0 .41359.1772.41359.4136v7.031c0 1.4771.82718 2.4224 2.4225 2.4224 1.5362 0 2.4224-.8862 2.4224-2.4224v-7.031c0-.2364.17725-.4136.41359-.4136z"/>
 <path d="m23.161 87.858v11.226c0 .2363-.1773.4136-.4136.4136h-1.8316c-.1182 0-.2364-.0591-.3545-.1773l-5.554-7.2674v7.0311c0 .2363-.1772.4136-.4136.4136h-2.0088c-.2364 0-.4136-.1773-.4136-.4136v-11.285c0-.2364.1772-.4136.4136-.4136h1.8316c.1182 0 .2363.0591.3545.1772l5.613 7.2674v-7.031c0-.2364.1773-.4136.4136-.4136h2.0089c.1772.0591.3545.2954.3545.4727z"/>
 <path d="m29.66 87.445c4.7268 0 6.1448 2.7769 6.1448 6.0856 0 2.777-1.1817 6.0266-5.9675 6.0266h-4.6086c-.2363 0-.4136-.1772-.4136-.4135v-11.226c0-.2363.1773-.4135.4136-.4135h4.4313zm-1.9497 2.3633v7.3265h2.127c1.7134 0 3.0133-.8863 3.0133-3.6042 0-3.0133-1.418-3.7223-3.1315-3.7223z"/>
 <path d="m46.086 99.557h-8.6854c-.2363 0-.4136-.1773-.4136-.4136v-11.226c0-.2364.1773-.4136.4136-.4136h8.5081c.2364 0 .4136.1772.4136.4136v1.5362c0 .2363-.1772.4136-.4136.4136h-6.0266v2.1861h5.4949c.2363 0 .4136.1772.4136.4136v1.5362c0 .2363-.1773.4135-.4136.4135h-5.4949v2.777h6.2039c.2363 0 .4136.1773.4136.4136v1.5362c0 .2363-.1773.4136-.4136.4136z"/>
 <path d="m58.257 98.907-2.3043-3.9586c1.6544-.7681 2.1271-2.3043 2.1271-3.5451 0-2.4815-1.5953-3.9586-4.6677-3.9586h-5.0812c-.2364 0-.4136.1772-.4136.4136v11.285c0 .2363.1772.4135.4136.4135h2.0679c.2364 0 .4136-.1772.4136-.4135v-9.3354h2.4815c1.2999 0 1.8907.5318 1.8907 1.5362 0 .8272-.2954 1.6544-1.7725 1.6544h-1.6543v2.3634h1.418l2.0679 3.8995c.0591.1182.2364.2364.3545.2364h2.3043c.2954.059.5318-.2955.3545-.5909z"/>
 <path d="m43.072 77.282 2.2452.5909.2364-.8863-2.2452-.5908.1181-.4727c.1182-.5318.3546-.5908.8272-.4727l1.7726.4727.2363-.8863-1.8316-.4726c-.8272-.2364-1.6544 0-1.9498 1.0635l-.8272 3.1315c-.0591.2363.0591.4135.2954.4726l.5909.1773zm-4.7858-2.4224-.1772-.9454-3.0724.65c-.2364.059-.3545.2363-.2954.4136l.6499 3.1314c.2363 1.0635 1.0044 1.2999 1.8907 1.1226l1.8907-.3545-.1773-.9453-1.8316.3545c-.4727.1181-.6499 0-.7681-.5318l-.1182-.4727 2.2452-.4726-.1772-.8863-2.2452.4727-.2363-1.1226zm-7.5037 6.322c-.3545-.0591-.5908-.1772-.9453-.5908l-1.7135-2.1271-.7681.65 1.8907 2.3633c.4136.4727.8272.7681 1.359.8272.5908.0591 1.1226-.1182 1.6543-.5318.5318-.4135.8272-.8862.8863-1.5361.0591-.5318-.1182-1.0045-.4727-1.5362l-1.8907-2.3634-.7681.6499 1.7135 2.1271c.3545.4135.4135.6499.4135 1.0044 0 .2954-.1772.5908-.4726.8272-.2364.1772-.5909.2954-.8863.2363zm20.207-3.5451c.2364.1773.2364.3546.1773.5318l-1.418 5.0222-.8272-.7681.2954-.9454-.9453-.7681.8271-.5317.4136.2954.4727-1.7134-3.1315 2.0679-.9453-.5318 4.3722-2.836c.1773-.1182.3545-.1773.5318 0zm-19.32 7.0311-.5909-.5318c2.1861-2.4815 5.3176-4.0177 8.8627-4.0177 3.545 0 6.7356 1.5362 8.8626 4.0177l-.5908.5318c-2.0089-2.3043-4.9631-3.7814-8.2718-3.7814-3.2497.0591-6.2039 1.4771-8.2718 3.7814zm-5.4358-6.1448-.5317-.5317c3.6632-3.7224 8.6853-6.0266 14.298-6.0266 5.613 0 10.694 2.3042 14.298 6.0266l-.5318.5317c-3.486-3.6041-8.39-5.7902-13.767-5.7902-5.4358 0-10.281 2.1861-13.767 5.7902z"/>
 <path d="m59.793 65.288v-2.127h-.8272v-.2364h1.9498v.2364h-.8272v2.127z"/>
 <path d="m63.457 65.288-.0591-2.068-.7681 1.359h-.2363l-.8272-1.359-.0591 2.0089h-.2954l.1182-2.3634h.3545l.8272 1.418.8272-1.418h.3545l.1181 2.3634h-.3545z"/>
 <path d="m6.5586 32.792c0 18.139 14.712 32.792 32.792 32.792s32.792-14.712 32.792-32.792-14.653-32.792-32.792-32.792c-18.08 0-32.792 14.712-32.792 32.792zm8.5081-.2364c0-15.303 12.703-27.651 28.42-27.651s28.42 12.408 28.42 27.651c0 15.244-12.703 27.652-28.42 27.652s-28.42-12.349-28.42-27.652z" fill="#ec6408"/>
 <g fill="#f39118">
  <path d="m41.359 37.4c-.0591 0-.1182 0-.1773-.0591-.4136-.1182-.7681-.1773-1.1817-.2955-10.694-2.2452-20.089-.1772-23.397 4.5495 1.0045 2.7179 2.3634 5.1995 4.0769 7.4447-1.0045-1.9498-1.5362-3.8996-1.1226-5.554 1.4771-6.0266 10.044-8.5672 20.089-6.0856.5909.1181 1.1226.2954 1.6544.4726 0 0 .0591-.1181.0591-.2363-.0591-.0591 0-.1773 0-.2363z"/>
  <path d="m42.009 37.578c0 .0591-.059.1772-.059.1772.4136.2955.8271.4727 1.2407.7681.5318.2364 1.1226.4136 1.5953.65 5.1994 2.3042 9.0399 5.7311 10.34 9.3353.059.2363.1772.4726.2363.709.0591.1772.0591.2954.1182.4727 0 .059 0 .1181.0591.2363 0 .1182.059.2954.059.4136v.2363.0591.2363.2364.0591.2363.1773.1772.0591.1772c0 .0591 0 .1182-.059.1773v.0591c0 .0591 0 .1181-.0591.1772v.0591c0 .0591-.0591.1182-.0591.1773s0 .1181-.0591.1772v.0591c0 .0591 0 .0591-.0591.1182v.0591c-.0591.1181-.0591.2363-.1182.3545 0 .059-.059.1181-.059.1772-.65 1.5362-1.9498 3.0133-3.7223 4.3132-1.1227.7681-2.5407 1.4771-4.2541 2.127-12.23 4.6677-26.233 3.4269-34.682 0-8.5081-3.4269-10.458-5.2585-10.458-5.2585 12.23 13.589 37.991 15.657 50.163 8.2127 3.7224-2.2452 5.554-4.6676 6.3221-6.9719 0-.0591.059-.1182.059-.1182 2.4225-7.3264-5.4948-15.303-16.544-18.316z"/>
  <path d="m43.486 4.904c-7.3265 0-14.062 2.7179-19.084 7.1492 4.963-3.486 12.703-5.5539 19.38-4.9631 14.771 1.418 29.365 14.003 28.006 28.36.1182-.9454.1773-1.9498.1773-2.8952-.0591-15.303-12.762-27.651-28.479-27.651z"/>
  <path d="m56.248 46.558c1.7621 0 3.1905-1.4284 3.1905-3.1905s-1.4284-3.1906-3.1905-3.1906-3.1906 1.4285-3.1906 3.1906 1.4285 3.1905 3.1906 3.1905z"/>
 </g>
 <path d="m56.248 46.499c1.4032 0 2.5407-1.1374 2.5407-2.5406 0-1.4031-1.1375-2.5406-2.5407-2.5406-1.4031 0-2.5406 1.1375-2.5406 2.5406 0 1.4032 1.1375 2.5406 2.5406 2.5406z" fill="#eb640a"/>
 <path d="m33.973 32.91c-.059.1182-.1181.2364-.2363.2954-.5908-.4726-1.2408-.8271-2.0679-1.0635-.0591 0-.1182-.0591-.1182-.0591-.2363-.059-.8272-.1772-2.2452-.2954-2.4816-.1772-2.8951-.1181-3.4269-.5317-.5908-.4727-.4727-1.0045-1.0635-1.2999-.6499-.3545-1.418-.1772-1.8907 0-.2364-.1182-1.1226-.5908-2.127-.2954-.65.2363-1.5362.8863-1.4181 1.4771.0591.2954.4136.5908.709.6499.3545.1182.65 0 .8272-.0591.4727-.1181 1.1817-.059 2.4225.9454.1181.0591.2954.0591.5317.1182.4136.059.709 0 .9454-.0591 1.1817.2954 2.127.709 2.7179 1.0044 3.7223 1.7134 5.8493 3.1906 5.8493 3.1906.2363.1772.709.5317 1.418.4726.1182 0 .1773 0 .2364-.0591.6499-.1772.2954-.1772 1.1226-.8271.2954-.2364.2363-.1773.9453-.709.3545-.2364 1.2408-.8863 1.4771-1.0636.4727.4136 1.0045.9454 1.5362 1.5953.5318.6499.8863 1.2408 1.1817 1.7725.0591-.4135.3545-1.6543 1.4771-2.5997.709-.5908 1.4771-.8271 1.8907-.9453-.3545.1182-1.0635.4727-1.6544 1.2408-.6499.8271-.8271 1.6543-.9453 2.0088.8272.5909 1.4771.709 2.1861 1.6544.0591.1182.1182.2363.2364.3545.4135.8272.5908 2.4224.5908 2.6588.0591.709.5908 1.4771 1.5953 2.9542 1.5362 2.2452 2.3633 2.4224 2.3633 3.486v.1772c-.059.3545-.059.6499 0 .8272 0 .2954 0 .4727.1182.5908.0591.1182.1773.1773.2954.2364.3545.1772.7681.3545 1.4181.4136h.4726c.1773 0 .2954.0591.3545.1181.1773.0591.8863.2364 1.7135.1182.5908-.0591 1.0044-.1182 1.1226-.4136.1182-.1772 0-.4136 0-.4136-.1182-.2363-.3545-.3545-.709-.5317 0 0-.5909-.2955-1.2408-.709-.3545-.2364-.6499-.5318-.8272-.65-.1772-.1181-.2363-.2363-.3545-.2954l-.4136-.4136c-.1181-.0591-.1181-.0591-.2363-.1772-.1182-.0591-.1773-.1773-.2954-.2364-.1773-.2363-.3545-.4726-.4136-.5317-.3545-.65-1.359-3.5451-1.6544-4.3132-.709-2.0088-.8272-2.9542-.8863-3.3678v-.4136c0-.1772 0-.5908-.1181-1.1817-.1773-.7681-.5909-1.2998-.8863-1.6543-.3545-.4136-.5317-.709-.6499-.8863 0 0-.1773-.2954-.3545-.5908-.4727-.7681-.709-1.359-1.359-2.5407-.1181-.2363-.2954-.5908-.5317-1.0044-.1182-.3545-.2363-.8863-.2363-1.5953 0-1.0635.2954-2.0088.4135-2.5406.1182-.4727.3545-.9453.4727-1.7134 0-.1182.0591-.2955.1182-.5909.0591-.3545.1182-.7681.1182-1.2998 0 .709.059.7681.4726 1.0635.1182.0591.2364.1182.4727.1772.4727.5909 1.0044 1.1226 1.5953 1.7726 1.1817 1.2407 1.8316 1.7725 1.8316 1.7725.4136.4136.6499.5318.8272.8863.4136.6499.2363.8862.6499 1.5362.4136.768 1.2998 1.418 1.7725 1.2407.1773-.0591.2364-.1772.2954-.2954.2364-.4136.1182-1.0044-.1181-1.3589-.2364-.2955-.4136-.3545-.8272-.5909-.4136-.2954-.6499-.6499-1.1226-1.418-.5908-.9454-1.0044-1.6544-1.0635-1.8907-.5909-1.1226-.5318-1.418-1.0045-2.127-.3545-.5318-.709-.8863-.9453-1.1226-.2363.059-.5908.1181-1.0044.3545-.4136.2363-.709.5317-.8272.709 0-.0591 0-.7681.6499-1.2408.4136-.2954 1.0044-.3545 1.4771-.0591-.2363-.2363-.5317-.5908-.8862-1.1226-.8863-1.418-.8272-2.3043-1.7135-3.3087-.2363-.2363-.5908-.5908-1.1817-.9453.0591 0 .2364-.1182.3545-.4136.1182-.2364.1773-.4136.1773-.5318.0591 0 .2363-.0591.2954-.1772 0-.0591.0591-.0591 0-.2955 0-.3545-.1182-.4136-.0591-.5908 0-.0591.0591-.1182.1182-.1773.1772-.2363.4136-.4136.4136-.4136.1772-.1181.2954-.4726.1181-1.5361.0591-.0591.1182-.0591.1182-.1182.2364-.4136-.5317-1.3589-1.2408-1.8907-.8862-.6499-2.0679-.8863-3.0133-.5909-.4726.1182-.8862.4136-.8862.4727s.2363-.0591.4727.0591c.1181.0591.1772.1773.2363.2363-.1773 0-.4136.0591-.709.1773-.3545.1773-.5318.4727-.6499.5908.059-.059.2363-.1772.5317-.1772.1182 0 .1773.0591.2364.1182-.2364.2954-.2955.5908-.3546.7681-.1181.4726-.1181 1.0635.0591 1.3589 0 0 .0591.1182.0591.2363 0 .1773-.0591.2954-.0591.3545-.1772.4136-.2363.5909-.3545.709.0591.2364.3545 1.0045 1.1226 1.5362.8863.5909 1.8907.4727 1.8907.5318s-1.2998.3545-2.5406-.2954c-.8272-.4136-1.2408-1.1226-1.418-1.4771-.3545.2363-.709.4136-1.0635.6499-2.1271 1.0635-4.195 1.2998-5.7312 1.2998.0591.2364.1182.4136.2363.65.2954.6499.709 1.1226 1.0045 1.418-.2364-.1182-.5909-.2954-.9454-.6499s-.5908-.7681-.709-1.0045c-.2954.0591-.7681.1773-1.2999.1773-.4726 0-.8271 0-1.1816-.0591-.8272-.0591-.8863-.1772-1.4181-.2363-.4726 0-.5317.0591-1.5362.1772-.5908.0591-1.0044.1182-1.8907.1773-1.3589.1181-1.5361.0591-1.8316 0-.1181-.0591-.5317-.1773-1.0044-.3545-.5318-.2364-.5318-.2364-.6499-.2364-.7681 0-1.1817 1.2408-1.2999 1.4181-.1182.2954-.1182.4135-.0591.4726.1182.1773.65.1182.9454-.1181.1181-.1182.1181-.1773.2363-.1773.1773 0 .2954.2363.5318.4136.4726.3545 1.1226.2363 1.1817.2363.1181 0 .3545-.1181.5908-.2954 1.418.2954 2.4815.5318 3.2496.7681.65.1773 1.1817.2954 1.8907.2954.8272 0 1.2999-.2363 1.9498-.4136.709-.1772 1.8316-.3545 3.2497-.059.1772.1181.3545.2363.5317.3545.1182-.1182.3545-.2955.7681-.4136.4727-.1182.8272.0591.9454.1181.4135.5909 1.2407 1.8907 1.4771 3.7224.2954 2.0679-.2955 3.6632-.5909 4.3131.4727-.2363 1.359-.5908 2.5997-.4727 2.3043.2364 3.5451 2.1861 3.6633 2.4816-.2955-.3545-1.4181-1.5953-3.1906-1.8316-.2954-.0591-1.9498-.2364-2.8951.6499-.4136.3545-.65.8272-.65.8272-.2363.4136-.2363.6499-.2954.9453-.1181.4136-.5317.8863-1.5953 1.359.2955.3545.5909.768 1.0045 1.1226.709.709 1.4771 1.2407 2.0679 1.6543-.4726-.1182-1.418-.3545-2.2452-1.1226-.3545-.5317-.6499-.8863-.8272-1.1817z" fill="#f39118"/>
 <g fill="#eb640a">
  <path d="m41.536 11.403c-.5909 0-1.0635.1773-1.2999.2954.2954-.1181.4727-.0591.5909 0 .059 0 .2363.0591.2363.1773 0 .0591-.1182.0591-.2363.1772-.2364.1182-.3545.2955-.4136.4136-.3545.5318-.1182 1.2999-.0591 1.4181 0 0 .0591.1181.0591.1772.0591.1182.0591.2363.0591.3545 0 0 0 .1773.059.4136.1182.4727.4727.5908.4136.8272 0 .2363-.3545.2363-.4136.4727-.059.1772.0591.4726.65 1.0044.1772.0591.4136.1772.7681.2363.4136.0591.8271.0591.8271.0591s0 .0591-.1772.0591c.0591 0 .1772 0 .2954-.0591.1773-.0591.5318-.1772.5318-.2954s-.5318-.1773-.5318-.2364c0-.059.2954-.1181.4727-.1181.1772 0 .2363 0 .4136-.0591.1181 0 .2363-.0591.2363-.1182s-.2954 0-.4727-.1181c0 0-.2363-.1773-.1772-.3545 0-.2364.2954-.4136.4727-.3546.059 0 .1772.0591.1772.1182 0 .1182-.1182.2364-.1182.2954 0 .0591.1182 0 .2364 0s.1772-.059.1772-.059c.1182-.1182-.2363-.4727-.1181-.7681 0-.0591.0591-.1182.1181-.1773 0-.0591.0591-.1182.1773-.1772l.1182-.1182c.059-.0591.1181-.1182.1181-.1182 0-.0591-.5317.0591-.709-.1772-.0591-.1182 0-.2955 0-.3545.0591-.1182.1182-.1182.1182-.2364.0591-.2363-.2954-.4136-.2954-.709 0 0 0-.2363.1181-.3545.2955-.2954.9454.0591 1.0635-.0591.1773-.2363-.709-1.5953-2.1861-2.0679-.8271-.2364-1.5952-.1182-1.9498-.0591.1773 0 .8272-.0591 1.4181.3545.2363.1772.3545.3545.4136.4727-.1773-.0591-.5909-.2364-1.1817-.1773z"/>
  <path d="m19.97 19.734c.1773 0 .3545-.1182.5318-.2363.1181-.1182.1181-.1773.2363-.1773.1773 0 .2954.2364.5318.4136.4726.3545 1.1226.2364 1.1817.2364.1181 0 .3545-.1182.5908-.2955 1.418.2955 2.4815.5318 3.2496.7681.65.1773 1.1817.2954 1.8907.2954.8272 0 1.2999-.2363 1.9498-.4135.709-.1773 1.8316-.3545 3.2496-.0591.1773.1181.3546.2363.5318.3545.1182-.1182.3545-.2954.7681-.4136.4727-.1182.8272.0591.9454.1182.1772.2363.4135.5908.6499 1.0635.2363.0591 1.1226.2363 1.7725 1.0635.5318.709.6499 1.418.6499 1.7134-.1181-.1181-.3545-.2954-.5908-.4726-.2363-.1773-.4727-.2364-.6499-.2955.5317.65.5908 1.0636.5317 1.359s-.3545.5317-.2363.709c.1182.1182.3545 0 .6499.1182.2954.1181.4136.4136.4727.6499-.2363.0591-.5318.1182-.8863.2954-.5908.3545-.8272.8863-.9453 1.1226.2954-.1182.6499-.2363 1.1817-.2363 1.0635-.0591 1.8316.3545 2.3042.5908 1.6544.8863 2.4816 2.4225 2.777 3.0133-.0591-.709-.2363-1.7134-.5317-2.8951-.4136-1.5362-1.0045-2.7179-.8272-2.8361.1772-.1181 1.1817 1.4771 1.418 1.2999.0591-.0591.0591-.2954 0-.4136 0-1.0635-.6499-1.418-.9454-2.5406-.1181-.4727-.2363-1.2408-.059-2.2452.059.709.2363 1.1817.4136 1.4771.2363.4136.4726.6499.709 1.1817.1181.3545.1772.709.1772.9453.1773-.2954.3545-.709.4727-1.2408.3545-1.2407.2363-2.2452.1772-2.7769-.1181-.9454-.2363-.8272-.2954-1.6544-.0591-.4726-.0591-.8272-.2954-1.1226-.1773-.2363-.3545-.2954-.5318-.4136-.1772-.059-.3545-.1181-.5908-.1772-.4727.0591-1.3589.0591-2.1861-.3545-.0591 0-.1182-.0591-.1182-.0591-.5318-.1182-1.0635-.2363-1.5953-.2954-.8862.3545-1.6543.6499-2.2452.8862-2.127.709-2.8951.8272-3.6632.5909-.1772-.0591-.3545-.1182-.4727-.2364.0591.1182.0591.2364.1182.2955.2954.6499.709 1.1226 1.0044 1.418-.2363-.1182-.5908-.2954-.9453-.5909-.1182 0-.2364-.059-.2954-.059 0 0-1.8316-.3545-3.6042-.1773-.5317.0591-.4136.0591-1.2407.1773-2.7179.3545-4.0769.5317-5.1995-.1182-.2954-.1773-.7681-.5909-1.2407-.4136-.2955.1182-.4727.3545-.5909.5318-.1772-.0591-.3545.1772-.3545.5317z"/>
  <path d="m44.432 19.38c.4136.8271.4727 1.4771.4727 1.9497 0 .7681-.2363 2.5407-.1182 2.6588.0591 0 .0591.0591.0591.0591.2955.0591 1.2999.4136 1.8907 1.418.2364.4136.2954.7681.3545 1.0636 1.0045 1.0044 1.5362 1.4771 1.5362 1.4771.4136.4136.65.5317.8272.8862.4136.65.2363.8863.6499 1.5362.2955.5318.8863 1.0635 1.359 1.2408.1772-.1773.2954-.3545.2954-.5909 0-.1772-.2363-.4726-.2363-.4726-.2955-.2955-.3545-.2955-.3545-.2955-.2364-.059-.4136.1773-.5909.1182-.1772-.0591-.2363-.2954-.2954-.4727-.1182-.4726-.4136-.9453-.5909-1.418-.2363-.8272-.709-.7681-1.2407-2.0088-.5909-1.359-.5318-2.1271-1.359-2.7179-.3545-.2954-.709-.4136-.8862-.5909 0 0-.0591 0-.0591.0591-.4136.2364-.709.5318-.8272.709 0-.1181.0591-.7681.6499-1.2407.1773-.1182.2955-.1773.4727-.2364-.2363-.2363-.5908-.6499-.8863-1.1226-.6499-1.1817-.8271-2.3043-1.0044-2.2452 0-.0591-.0591 0-.1182.2364z"/>
  <path d="m54.358 50.34c.0591.2364 0 .3545-.0591.4136-.2954.3545-1.2407.1182-1.7134-.4136-.1773-.1772-.1182-.1772-.2363-.4136-.4727-.709-1.4181-1.1816-2.1271-1.2998-.1181 0-.2363-.0591-.4136-.1773-.1772-.2363-.1772-.5908-.1181-.8272-.1182-.059-.2364-.1772-.3545-.2363-.4136-1.4771-.9454-2.5997-1.359-3.3678-.1772-.3545-1.2998-2.5997-1.3589-3.7814 0-.0591.0591-.8862-.0591-1.8907-.1182-.5908-.1773-.8272-.3545-1.0044-.0591-.0591-.2954-.3545-1.1226-.6499-1.0044-.3546-1.3589-.2955-1.4771-.5318s.1181-.709 1.3589-1.7134c-.3545-.5909-.7681-1.1817-1.1226-1.7726-.2363-.4136-.5317-.8272-.7681-1.2407 0-.0591 0-.1773-.0591-.2955 0-.0591-.059-.2363-.1181-.3545 0 0-.1182-.2954-.2955-.5317-.3545-.4136-1.418-1.5362-3.1314-1.7726-.1182 0-.4136-.059-.7681-.059-.1773 0-1.2999.1181-1.9498 1.0044-.5908.8272-.4727 1.8907-.1182 2.5997.5909 1.1817 1.4771 1.2999 2.8952 2.7179.709.7681 1.1817 1.4771 1.4771 2.0088.1181-.2954.5317-1.3589 1.7134-1.9497.709-.3545 1.418-.3545 1.7725-.3545h.0591c-.0591 0-.1181.059-.1772.059-.3545.1773-1.0045.5318-1.5953 1.1817-.6499.8272-.8272 1.6544-.9453 2.0089.8271.5908 1.4771.709 2.1861 1.6543.0591.1182.1181.2364.2363.3546.4136.8271.5909 2.4224.5909 2.6587.059.7091.5908 1.4772 1.5952 2.9543 1.5362 2.2452 2.3634 2.4224 2.3634 3.4859v.1773c-.0591.3545-.0591.6499 0 .8272 0 .2954 0 .4726.1182.5908.0591.1182.1772.1773.2954.2363.3545.1773.7681.3546 1.418.4136h.4727c.1772 0 .2954.0591.3545.1182.1772.0591.8863.2363 1.7134.1182.709-.0591 1.0045-.1182 1.1226-.4136.2364-.1182.1182-.3545.0591-.5318z"/>
  <path d="m38.464 34.742c-.3546-.1182-1.0636-.2954-1.7135-.8863-.2363-.1772-.6499-.5908-.9453-1.2998-.1182-.2955-.1773-.5318-.1773-.709-.1772.1181-.4136.2954-.7681.4726-.2954.1182-.5317.1773-.709.1773.2363.2954.5318.6499.8863 1.0044.709.709 1.4771 1.2408 2.0679 1.6544-.4727-.1182-1.418-.3545-2.2452-1.1226-.1182-.1182-.2363-.2364-.3545-.3545-.3545.3545-.2954.4726-.7681.8862-1.7725-1.7725-3.1905-2.127-4.195-2.127-.5908 0-2.6588.1182-3.545-.4136-.2364-.1182-.4136-.2363-.5909-.5318-.1772-.2954-.1181-.5317-.2954-.8862-.1182-.1773-.2363-.2954-.3545-.3545 0 0 .2954.4136.1182.709-.1773.2363-.5318.2363-.709.2363-.7091 0-.8272-.4136-1.4772-.4136-.059 0-.2954.0591-.768.2364-.8863.2363-1.0045.2954-1.2408.3545-.1773 0-.7681 0-.8863-.2364-.1182-.2363.2954-.6499.5318-.8862.2954-.2954.5317-.4136.5317-.4136-.6499.2363-1.4771.8862-1.3589 1.4771.0591.2954.4136.5908.709.6499.3545.1182.6499 0 .8272-.0591.4727-.1181 1.1817-.059 2.4224.9454.1182.0591.2955.0591.5318.1182.4136.059.709 0 .9454-.0591 1.1816.2954 2.127.709 2.7178 1.0044 3.7223 1.7134 5.8494 3.1906 5.8494 3.1906.2363.1772.709.5317 1.418.4726.1182 0 .1772 0 .2363-.0591.65-.1772.2955-.1772 1.1226-.8271.2955-.2364.2364-.1773.9454-.709.1182-.4727 1.0044-1.0636 1.2408-1.2408z"/>
 </g>
</svg>
