<?xml version="1.0" encoding="UTF-8" standalone="no"?>
<svg
   width="2036.324"
   height="2800"
   shape-rendering="geometricPrecision"
   image-rendering="optimizeQuality"
   fill-rule="evenodd"
   version="1.1"
   id="svg14"
   xmlns="http://www.w3.org/2000/svg"
   xmlns:svg="http://www.w3.org/2000/svg">
  <defs
     id="defs18" />
  <g
     id="g841"
     transform="translate(-2.2040149)">
    <g
       fill="#00529c"
       id="g10"
       transform="translate(-479.86866,-99.971584)">
      <path
         d="m 2507,1561 c -80,-72 -170,-135 -269,-189 56,136 79,283 62,435 -36,336 -258,623 -577,798 24,2 48,3 72,3 114,0 223,-19 322,-52 219,-196 364,-450 395,-734 10,-89 8,-176 -5,-261 z M 841,899 c 107,-65 213,-110 320,-202 -23,48 -41,82 -60,107 255,-76 589,-124 965,-54 -47,-75 -114,-141 -221,-189 -79,2 -213,10 -337,40 87,-85 475,-10 267,-501 42,337 -1097,493 -1057,858 34,-18 76,-38 123,-59 z m 350,124 c 283,51 555,219 647,504 140,434 -225,799 -636,882 61,50 131,91 209,124 427,-148 762,-548 643,-1007 -53,-207 -194,-379 -369,-498 254,33 502,116 721,246 -46,-98 -107,-189 -180,-273 C 1703,796 753,712 483,1246 c 38,-21 76,-40 115,-59 187,-86 388,-141 593,-164 z M 963,2424 c 0,-129 74,-248 198,-326 17,-10 34,-19 52,-28 H 897 c -94,101 -146,225 -146,354 0,39 5,78 14,116 183,170 420,295 685,360 134,-33 260,-81 376,-142 -341,-11 -646,-133 -863,-324 z"
         fill-rule="nonzero"
         id="path2" />
      <path
         d="m 548.107,1712.828 c -8.323,-0.969 -14.791,-2.935 -22.512,-6.844 -20.075,-10.162 -35.131,-27.689 -40.81,-47.508 -2.773,-9.673 -2.62,-0.364 -2.514,-153.005 l 0.544,-144.942 c 0.693,-9.605 2.154,-15.864 6.023,-25.787 6.971,-17.87 18.378,-30.408 35.212,-38.706 9.468,-4.667 18.516,-7.015 29.577,-7.677 3.824,-0.227 66.215,-0.264 147.664,-0.084 155.888,0.346 143.008,0.084 152.759,3.111 4.486,1.392 12.78,5.316 17.85,8.444 17.799,10.983 30.689,28.853 34.533,47.876 0.755,3.737 0.793,11.14 0.793,150.428 l -0.788,151.506 c -2.52,16.009 -9.98,29.954 -23.012,43.019 -10.205,10.231 -19.626,15.866 -32.132,19.22 l -4.546,1.219 -147.664,0.06 c -81.215,0.034 -149.154,-0.115 -150.975,-0.327 z m 61.622,-43.634 c 6.367,-2.164 14.239,-7.478 20.67,-13.955 5.052,-5.087 9.015,-10.605 11.772,-16.387 3.209,-6.73 3.994,-9.976 4.26,-17.617 0.386,-11.129 -1.227,-20.405 -4.878,-28.078 -4.389,-9.221 -10.153,-16.012 -36.496,-43.004 -28.401,-29.1 -36.575,-37.798 -42.721,-45.459 -1.845,-2.298 -2.344,-3.234 -2.145,-4.001 0.947,-3.627 10.654,-13.589 35.406,-36.344 26.053,-23.95 34.256,-32.516 43.224,-45.136 5.59,-7.865 9.592,-17.051 11.018,-25.288 0.877,-5.058 0.88,-14.562 0.01,-19.667 -1.872,-10.958 -7.675,-21.897 -15.323,-28.872 -10.866,-9.908 -21.528,-14.477 -36.767,-15.754 -6.535,-0.547 -33.315,-0.213 -39.94,0.499 -14.809,1.592 -28.571,11.98 -32.068,24.207 -0.697,2.436 -0.764,9.928 -0.908,101.112 l 0.24,144.72 c 0.429,51.518 0.216,48.219 3.559,53.438 2.286,3.558 7.104,8.658 10.471,11.078 3.367,2.42 6.592,3.926 10.822,5.057 3.09,0.826 4.657,0.866 29.748,0.768 l 26.487,-0.103 z m 226.259,0.67 c -1.673,-3.125 -13.835,-15.846 -43.257,-45.242 -33.55,-33.521 -120.78,-123.27 -120.929,-124.423 -0.395,-3.031 15.089,-19.367 34.786,-36.706 11.222,-9.878 27.407,-25.529 37.256,-36.026 19.58,-20.869 24.56,-28.191 26.327,-38.706 0.863,-5.121 0.776,-16.895 -0.144,-20.609 -1.023,-4.117 -2.734,-8.323 -4.905,-12.07 -2.38,-4.102 -11.172,-13.034 -15.93,-16.179 -6.706,-4.433 -14.902,-7.942 -22.514,-9.641 -3.698,-0.825 -29.882,-1.351 -38.436,-0.772 l -5.327,0.361 0.371,1.431 c 0.216,0.787 2.432,4.516 4.952,8.288 2.52,3.772 5.372,8.531 6.337,10.576 5.113,10.839 7.493,24.347 7.027,39.876 -0.379,12.599 -2.193,20.007 -7.596,31.019 -7.513,15.312 -17.616,27.167 -39.945,46.879 -13.025,11.497 -23.489,21.962 -28.355,28.356 l -3.413,4.484 25.706,27.208 37.82,40.601 c 10.586,12.75 15.864,24.131 17.909,38.618 0.968,6.847 0.865,19.913 -0.216,26.175 -1.639,9.61 -5.19,18.004 -11.781,27.849 -2.083,3.108 -4.278,6.502 -4.883,7.541 l -1.1,1.89 h 75.324 l 74.908,-0.778 z m 29.797,-154.39 -1.797,-148.721 c -3.648,-24.125 -13.445,-34.244 -35.467,-36.632 -5.192,-0.563 -32.319,-0.676 -32.319,-0.136 0,0.813 3.021,5.053 7.055,9.902 4.953,5.952 7.243,9.235 9.281,13.304 4.54,9.062 5.896,18.959 4.907,35.791 -0.903,15.36 -2.705,22.073 -8.409,31.336 -8.08,13.121 -18.688,24.405 -47.279,50.293 -16.879,15.283 -28.119,27.13 -27.708,29.204 0.048,0.359 29.728,30.727 65.905,67.482 l 65.776,66.828 0.144,-2.083 c 0.096,-1.146 0.024,-53.602 -0.096,-116.569 z"
         id="path4" />
      <path
         d="m 1168.896,1480.7 c 2.376,-2.373 5.182,-5.429 8.42,-9.169 3.23,-3.74 6.29,-8.156 9.181,-13.256 2.891,-5.1 5.36,-10.782 7.397,-17.072 2.046,-6.282 3.069,-12.994 3.069,-20.128 0,-13.923 -2.384,-26.917 -7.144,-38.982 -4.768,-12.057 -12.081,-22.594 -21.947,-31.603 -9.866,-8.992 -22.192,-16.05 -36.996,-21.15 -14.795,-5.091 -32.067,-7.641 -51.791,-7.641 h -0.541 -56.711 -14.761 -58.114 v 64.961 224.891 66.878 h 142.885 c 20.747,0 38.856,-2.803 54.344,-8.409 15.471,-5.606 28.322,-13.332 38.526,-23.185 10.204,-9.853 17.771,-21.319 22.708,-34.397 4.929,-13.078 7.397,-27.094 7.397,-42.047 0,-20.044 -4.591,-37.876 -13.772,-53.513 -9.19,-15.62 -19.91,-27.685 -32.151,-36.179 m -63.178,-93.634 c 4.81,1.832 8.826,4.213 11.963,7.21 8.125,7.785 12.191,17.089 12.191,27.913 0,9.819 -1.699,17.933 -5.081,24.358 -3.39,6.434 -6.78,11.339 -10.162,14.716 H 1015.3 v -78.411 h 61.741 c 11.574,0 21.102,1.427 28.677,4.213 M 1095.412,1523 c 17.982,0 31.306,4.652 39.98,13.94 8.158,9.144 12.267,19.934 12.267,32.422 0,12.867 -4.658,23.852 -13.975,32.987 -9.325,9.135 -24.644,13.712 -45.991,13.712 h -7.972 -64.421 V 1523 Z m 361.655,1.782 c 10.712,-7.303 19.648,-15.797 26.791,-25.481 7.143,-9.684 12.411,-20.382 15.818,-32.101 3.399,-11.728 5.106,-23.7 5.106,-35.934 0,-15.966 -2.646,-30.657 -7.913,-44.082 -5.284,-13.416 -13.189,-24.966 -23.731,-34.651 -10.551,-9.684 -23.731,-17.241 -39.549,-22.678 -15.818,-5.429 -34.104,-8.156 -54.851,-8.156 h -1.868 -137.44 -1.285 v 356.731 h 67.625 v -132.498 h 37.706 l 93.259,132.498 h 79.267 l -96.437,-137.083 c 14.279,-3.732 26.783,-9.254 37.503,-16.565 m -77.821,-141.929 a 96.44,96.44 0 0 1 12.09,0.76 c 12.056,1.815 21.905,6.113 29.497,12.943 10.331,9.313 15.497,20.728 15.497,34.254 a 60.74,60.74 0 0 1 -3.306,19.799 45.22,45.22 0 0 1 -10.416,16.996 c -4.751,4.914 -10.847,8.882 -18.295,11.93 -7.457,3.048 -16.435,4.568 -26.935,4.568 h -71.607 v -101.25 z m 160.637,-61.154 v 0.101 l -2.037,-0.101 h -0.575 v 0.025 130.759 93.693 132.253 h 68.953 v -356.731 z"
         fill-rule="nonzero"
         id="path6" />
      <path
         d="m 1556,2041 v -216 h -60 l 33,-64 h 98 v 280 z m -323,-106 h 76 l -38,-131 z m -108,106 97,-283 h 97 l 97,283 h -76 l -15,-51 h -109 l -15,51 z M 966,1935 v -57 h 151 v 7 9 c 0,47 -12,83 -38,108 -26,26 -62,39 -108,39 -23,0 -44,-3 -61,-10 -18,-7 -34,-17 -48,-30 -14,-13 -24,-28 -31,-46 -8,-18 -11,-36 -11,-55 0,-21 3,-39 10,-56 8,-17 18,-32 33,-46 14,-13 30,-23 48,-29 19,-7 38,-11 60,-11 27,0 52,6 73,16 21,11 39,26 54,47 l -67,30 c -44,-57 -137,-29 -135,52 3,99 135,93 146,32 z M 702,1758 h 78 v 283 h -78 z m -220,283 v -283 h 77 v 217 h 95 v 66 z"
         id="path8" />
    </g>
    <path
       d="m 1205.1313,928.02841 v 0 c 254,34 502,115.99999 721,245.99999 -46,-98 -107,-188.99999 -180,-272.99999 -187,-37 -368,-32 -541,27 z m -493.99996,-5 v 0 c -269,-31 -501,38 -708.0000053,222.99999 38.0000003,-21 76.0000003,-40 115.0000053,-59 187,-86 388,-140.99999 593,-163.99999 z m 874.99996,-273 c -47,-75 -114,-141 -221,-189 -276,135 -558.99996,128 -743.99996,243 255,-76 588.99996,-124 964.99996,-54 z m -291,-649.9999937 c 91,348.9999937 -178,333.9999937 -267,500.9999937 87,-85 475,-10 267,-500.9999937 z m 525,1706.9999837 c -36,336 -258,623 -577,798 24,2 48,3 72,3 114,0 223,-19 322,-52 236,-422 335,-799 121,-1184 56,136 79,283 62,435 z m -1097.99996,602 c 61,50 131,91 209,124 197.99996,-153 426.99996,-474 444.99996,-698 -62,290 -345,511 -653.99996,574 z m 248,491 c 133.99996,-33 259.99996,-81 375.99996,-142 -341,-11 -645.99996,-133 -862.99996,-324 6,54 138,376 487,466 z m -429,-667 c 34,-52 81,-98 140,-135 17,-10 34,-19 52,-28 h -70 c -48,45 -90,99 -122,163 z"
       fill-rule="nonzero"
       fill="#0b518b"
       id="path12" />
  </g>
</svg>
