<?xml version="1.0" encoding="utf-8"?>
<!-- Generator: Adobe Illustrator 27.6.1, SVG Export Plug-In . SVG Version: 6.00 Build 0)  -->
<svg version="1.1" id="Шар_1" xmlns="http://www.w3.org/2000/svg" xmlns:xlink="http://www.w3.org/1999/xlink" x="0px" y="0px"
	 viewBox="0 0 900 600" style="enable-background:new 0 0 900 600;" xml:space="preserve">
<style type="text/css">
	.st0{fill:#C1C1C1;}
	.st1{fill:#346733;}
	.st2{fill-rule:evenodd;clip-rule:evenodd;fill:#396733;}
</style>
<rect class="st0" width="900" height="600"/>
<g id="g5411" transform="translate(0,3.1976562e-4)">
	<path id="path7634" class="st1" d="M460,42.1l-5.2,0.9l2.1,0.9l-3.7-0.3l0.3,0.6h2.7l1.2,0.6l-3.9-0.3l3.3,0.6h-1.5l-0.6-0.3H453
		l2.9,0.6l1,0.6l-5.5-0.6l3,1.2l-2.7-0.3v0.6l-1.8-1.2l-2.1,0.9l3,0.9l-2.7-0.6h-1.2l1.2,1.5l-1.5-0.3l0.9,0.9l-1.2-0.6l-1.5,1.5
		l0.6,0.3l2.4-0.3l-0.3,2.1l-2.8,0.3l-3,1.8l4.3,1.2l3-0.3l0.3,0.6h-3l3,0.3l-5.2,0.3l4,0.6l-1.5,0.6l1.5,0.6l2.4,0.3l-0.9-0.6
		l2.1,0.3l1.5-0.9l3,0.3l1.5,0.6l6.7,2.4l-0.6,1.2l1.2-0.6L468,64l3,0.9l-1.8,0.3h1.5v1.2l0.6-0.9l-0.9,1.5l3,0.3l-1.2-2.1l1.5,1.5
		l2.1-0.3l-1.2,0.9l2.1-0.3l-0.9,0.9l1.2-0.6l-0.6,0.6h0.6l3.3,1.5l-4.3-0.6l-2.1,0.6l4.6,1.2l3-0.6v0.3l0.6,2.1l1.8-0.3v0.9
		l-1.8-0.6l2.1,1.5h-0.3v1.2l2.1,0.3h-2.1l-0.6,0.6l3-0.3l-4.9,1.8l4-0.3l-3.4,0.9l3.4,0.6l-1.8,0.6l2.1,0.3l1.5-1.5l1.2,0.3
		l-3.7,2.8l3-0.6l-1.8,1.2l1.8,0.9l1.2-1.5l1.8,0.3l-3,1.5l1.2-0.3l0.6,1.5l1.2-0.6l-0.9,0.9l1.2,1.5l1.2-1.8l-1.5-1.2l4.3,2.2
		l-1.3-0.3l-2.1,1.2l3-0.3l-2.4,0.6l1.2,0.3l-0.6,0.9l2.1-0.3l-0.9,0.9l2.1-0.3l-1.8,0.3l2.4,0.3l0.3,1.2l0.6-0.9v1.8l2.4,0.3v1.2
		l1.2-0.6l-0.6,0.9l0.9-0.6V93h1.2l-1.2,0.6l2.1-0.3l-1.2,0.6l2.4-0.3l1.5,1.5l3.9-1.8l-0.9,1.8l0.9-1.2v1.5l0.9-0.9l0.9,1.2
		l0.3-1.2l0.3,2.1l0.3-1.5l0.9,1.8l0.3-1.5l2.7,0.6l-3.3-0.9l2.4-0.6l-1.8-0.6l0.9-0.9l-1.8-0.6l1.2-0.9h-1.5l1.2-0.6h-1.2l0.6-0.9
		l-2.7-1.2l1.8,0.3l-2.7-0.9l2.1-0.6l-1.5-1.2l1.8,0.3l-2.1-0.9l1.8,0.3l-1.5-0.3l1.2-0.6l-1.8-0.6l1.8,0.3l-1.2-1.2h-1.8l1.5-0.9
		l-3.3-1.8l1.8,0.3l-0.9-1.5l-0.3-0.3l2.4-0.6l-1.8-2.1h1.2l0.6,1.5h1.2l-1.2-0.9l0.9,0.6l1.2-1.2l-1.2-0.6h1.8l-2.4-4l0.6-0.9
		l-3-1.5l3,0.9l1.5-0.6l-0.9-0.6l1.5,0.3l1.5-2.1l-1.2-4.3H510l-0.3,1.5v0.3h-1.2h-0.6l0.6-1.5l-2.4,0.9l-1.2-1.8h1.8v-0.9l-3.7,0.3
		l0.3-0.9l-1.8-0.3L507,61l4.6,1.5l-0.9-0.9l1.5,0.6l0.6-0.3L510,61l-1.2-0.9l-0.6,0.3l-0.3-0.9l-0.6,0.6l-0.6-0.6l-3.7-0.6l0.3,0.9
		l-0.6-0.6l-0.9,0.3l0.9-0.6l-1.5-0.6l-0.3,0.9l-1.8-0.3l1.2-0.9l-2.4,0.3l0.6-0.3l-1.5-0.3h1.8v-0.9l-2.4-0.3l2.7,0.3l-0.9-0.6h2.1
		l-1.5,0.3l2.8,0.3l0.6-0.9l-1.5-0.6h-1.8l1.8,0.6l-2.1-0.6l-0.6-0.3l1.5-0.6h0.3l-0.6-0.6h-1.2l-0.9,0.3l-1.2-0.9l-1.8,0.3l1.2-0.6
		h0.3h0.6l-2.4-1.2H493l-1.8,0.3l0.6-0.9h-0.3l-1.2,0.3l-2.4-0.6L489,50l0.9-0.3l-2.4-0.9l-1.2,0.3h-0.9l0.3-0.3v-0.3H485h-0.3
		l-1.2-0.3l0.9,0.9l-1.8-0.9l-2.4-1.5l-3.4-1.8v0.9l-1.5-0.3v-0.3v-1.2l-1.5,0.6l-0.6,0.3v-0.3l0.9-1.2l-3-1.2l-2.1,0.3l1.5,0.9
		h-0.9l-0.6,0.3l2.7,1.8l-5.2-2.4l0.6,1.5l-1.5-0.9l-2.7,1.2l-0.6-0.6l2.8-0.9l-0.3-0.9l-2.4,0.3l-1.2-0.6l-2.4,1.8l-0.6-0.9
		L460,42.1z M494.1,85.1L494.1,85.1l-1.5-0.3L494.1,85.1z M485.9,79.9l-2.1,0.3l1.2,0.3l-0.3,0.6L485.9,79.9z M484.1,75.6h-3
		l2.4,0.3h-2.1l0.6,1.5L484.1,75.6z M484.1,74.1h-2.4l-1.2,1.2L484.1,74.1z M436.3,45.4l-1.5,0.3l-1.5,0.3l1.2,1.2l-3-0.9l-1.2,0.3
		l1.5,0.6l-2.1-0.3l-3,0.6l1.8,0.3l-0.9,0.3l2.1-0.3l-1.8,0.9l3.7-0.3l-3.7,0.6l1.2,0.3l4.3-0.9l-2.7,0.9l-0.3,0.3l2.2-0.6l1.2,0.3
		l-1.2,0.3h1.8l0.6-0.6l2.4-0.9l-1.5,0.9h1.8l-2.8,0.6l-2.4,0.3l2.1,1.5l-2.8-1.2h-2.1l2.4,2.1l-1.5,0.3l3-0.3L432,53l0.6,0.6
		l-2.4-0.9l-1.5,0.3l-0.9,1.2l1.5-0.3l0.3,0.3l0.9-0.9l-0.3,2.1l2.4-0.9l-2.4,1.5l-3.3-1.2l1.2,1.5l-3.7,0.9l0.9,0.6l0.6-0.9
		l0.6,0.9l0.3-0.6l0.6,0.6l0.3-0.6l1.2,0.9l1.2-0.9l1.2,0.6v-0.6l1.2,0.6L432,57l1.8,1.5l1.2-0.3l1.8-0.3l0.3-1.2l-2.1-0.3h-1.8
		l-0.3-1.2l2.1,0.6l1.2,0.3l0.6-1.5h2.1l-0.9-0.3l1.5-0.3l-1.5-0.3l1.8-0.3l-4-0.9h4l-3.4-0.3l4.3-0.6l-1.2-0.6l2.4,0.3l0.6-0.9h0.3
		l-0.9-0.6l1.2,0.3l2.4-2.1l-3.7,0.6l2.1-0.6l-2.1-0.3h2.4l1.8-0.9l0.3-0.6l-2.1-0.6l-2.8,0.6l0.9-0.6H436.3z M425.3,48.2l-2.1,0.9
		l0.9,0.3l-2.4,0.3l1.2,0.9l-1.5-0.6l-0.3,0.6l1.8,0.3l-1.2,0.9l3.9,0.3l-3.7,0.3l2.1,0.9h-1.5l0.6,0.6l2.4,0.3v-0.9l0.6,0.9
		l1.2-1.8l0.3,0.9l2.7-1.2l-0.6-0.6h-1.5l0.3-1.5l-0.6,0.6L425.3,48.2z M413.1,50.9l-0.6,1.2h1.2l-1.8,0.9h1.5l2.2,0.9l0.6,0.3
		l0.3-1.5v-0.3L413.1,50.9z M407.6,51.5l-3,0.6h3.7L407.6,51.5z M495.7,51.8l1.2,0.9l0.6-0.6L495.7,51.8z M418.3,52.4l-0.6,1.5
		l1.2,0.6h0.3l1.5-1.2L418.3,52.4z M403.4,52.7l-0.9,0.9l1.8,0.3l1.8-0.9L403.4,52.7z M396.7,53l-1.5,0.6l-5.5,1.5l2.4-0.3v0.6v0.3
		l4.6-1.5l-0.9,0.9l4.3-1.5l-0.9-0.6H396.7z M496.6,54.2h1.2v0.6L496.6,54.2z M345.8,54.6l-2.1,0.9l0.6-0.3l0.6-0.3H343l-1.5,0.3
		l-4.9,1.2l-0.6-0.9l-2.7,0.9l-2.4,2.4l-2.4,0.9l0.3,1.2l-2,0.8l1.3-1.1l-3.3,2.4l-0.9-1.2l2.1-1.2h-4.3l-1.8,1.8l-0.3-0.3l-2.4,1.5
		l-0.3,1.8l1.2-0.3l-1.2,0.6l2.4-0.6l-0.3,0.9l-1.5,0.3l-2.1,1.5l-1.5,0.6l-0.3-0.6l-2.4,0.6l0.6-0.9l-7.6,3l-1.8,1.2l0.6,0.3
		l-1.2,0.3l-0.1,0.3l-1.5,0.3l-0.6,0.6l1.5-0.3l0.5-0.5l-0.2,0.8h-0.9l-2.8,1.8l1.8,0.3l-4,3l-2.1,0.9l2.4-0.3l-0.6,0.6l-1.5,2.2
		l3-1.8l-1.8,1.5l2.4-0.3l-3,1.2l-3.4,2.4l-5.5,1.5h-0.9l-1.8,1.5l-0.3-1.2l-4.9,2.1l1.2-0.3l-0.3,0.3l1.5-0.9l-0.6,0.9l2.2-1.2
		l-0.9,0.9l2.3-0.3l-0.8,0.6l11-3.7l2.4-0.3l3.4-1.2v-0.9l1.5-1.2l10.3-3.4l1.8,0.3l-2.1,0.6l-0.3,1.5l2.7-0.6l-1.8,0.9l1.5-0.6
		l-0.9,0.9l2.1-0.3l-1.2,0.3l0.3,0.6h-0.3l-1.2,1.2l1.2,0.3l-0.9,1.5l3.4,0.9l-0.3,1.8l0.9-0.3l1.2-0.6l-1.2,0.6l1.5-0.3v0.9
		l-1.5,0.6l1.2-1.2l-2.1,0.9l-0.3,5.5l1.5-0.3l0.9-2.4v1.2l1.2-0.9l-1.8,2.2l0.6,0.9l3.7-3.7l-2.7,3.4l0.3,0.9l1.8-0.9l-2.1,1.2
		l0.9,1.2h-1.2l0.3,1.2l-0.6-1.2v1.5l-1.5,0.3l0.3,4l-3,1.5l3.7-0.9l-0.6,1.2l-3.3,3l3-1.5l2.1-1.8l-3,2.7l0.6,0.6l-2.1,0.6
		l-0.3,1.4l0.6,0.4l-1.8,0.6l-0.3,2.4l3-1.8l-1.4,1.4l-0.4-0.2l-0.3,3.4l-2.1,1.2l1.2-0.6l-0.6,1.2l3-1.2l-4,2.4l-0.6,1.5l1.5-0.6
		l-2.1,0.9l1.5,0.3l-2.1,0.3l2.4,0.3l-2.2,0.3l2.4,0.9l-0.9,0.3l0.3,0.6l2.1-0.6l-2.4,0.9l0.6,0.9l1.2-0.9l-0.9,0.9l0.9,0.3l2.1-1.8
		l-2.1,2.1l2.1-0.3l-2.4,1.5l0.6,1.2l1.2-0.6l0.6-0.6v0.6l-0.3,1.2l-1.5,0.3h2.4l-1.8,2.4l0.9,1.2l-3.4,5.5l1.2-2.7l-2.7,2.1
		l2.7-2.7l-3.9-1.8l-2.2,5.5h0.9l-2.4,2.7l-9.1,12.8l-1.8,5.8l-3,4l-1.2,6.7v4.3h2.2l-0.3,2.8l-0.6-1.8l-1.2,2.8l1.5,9.7l-1.2,2.4
		l1.8,0.9l3.9,2.4l2.2,4l0.6,15.6v0.9l4,6.7l-1.5,2.4l0.9,1.5l-3.7-1.2l3.7,5.5l1.8-0.9l2.4,4.6l-1.2,5.8l5.8,6.7l0.6,3.3l2.4-1.2
		l-0.6-4l-3-1.8l-0.6-10.3l-3-6.4l0.3-3l-4-7.9l1.2-8.5l5.2,3.7l0.3,5.8l0.3,4.9l2.4,5.2l2.1,0.6l-0.6,2.7l4.3,5.2l-1.8,2.8l4.6,3.3
		v1.8l6.4,9.1l1.8,7l-1.8,3l0.9,1.2l-1.8,0.6l0.6,1.8l7,8.8l6.4,2.4l3.3,3.7l4.6,2.1v-2.1l0.3-0.6l-0.3,0.6v2.1l14.3,7l10.3-1.8
		l12.8,11.3l13.1,4.3l-1.2-0.6l6.1-0.6l0.3,2.4h-1.8l9.4,9.1l-1.5,0.6l1.5,0.6l-0.3,3.7v0.6l2.7,1.5l1.2-1.2l-0.9-0.9l-1.2-1.2
		l2.4,1.2l0.3,0.3l5.2,4.6l0.3,2.7l1.2,0.3l-0.3-1.8l2.2,3.7l0.9-1.5l4.6,0.6l0.9,2.4l2.4-0.9l0.6,3.3l2.1-0.3l2.2-1.2l-2.2-3.3
		l2.2-1.5l4.3-2.4l3.4,3.3l1.5-0.3l-1.5,2.1l5.2,6.7l-0.9,11l2.4,1.5l-0.6,1.2l-3,4.6l-3.7,1.2v3l-2.4,0.6l0.6,2.7l-5.2,1.2h-0.3
		l0.3,1.8l0.3,1.2l-0.3,0.3l-2.4,2.1l1.2,1.5l-3,1.5v6.1l3,1.8l1.2-1.5l0.6-0.9l0.9,1.8l-1.5,3.3v0.3l-6.1,4l2.1,6.4l-1.5,1.5
		l5.5,3.4l4.9,6.4l3.7,7.9l2.4,5.8l6.7,8.8l-0.9,2.4l2.1,3l3.3,3l16.5,7.3l4.9,4.6l0.6,6.4l-0.3,5.8l-3,8.2v7l-5.8,13.1l0.6,3.4
		l-0.3,0.3l-1.8,2.4l-0.6,10.1l-7.3,11.3l-2.1,0.9l1.2,6.1l-3.3,4.6l1.2,1.5l-0.9,0.6l3-0.9l1.2,0.3l1.2-0.6l-2.4,1.5l1.8,0.6
		l-0.6,0.9l-1.2-0.3l0.9,0.6l-0.9-0.3l-1.5,2.7l1.2,0.9l-2.2,0.9l2.4,0.9l-1.8,0.9l-1.8,0.9l2.4,0.3l-2.4,0.3l-0.3,0.9l1.5-0.6
		l-2.1,2.4l-0.6-0.9h-0.3h-1.2l0.9-0.9l-1.2,0.6l-0.9-0.6l-1.2,0.3l1.8,0.3l-1.2,0.9v0.9h2.2l0.6,0.9l-1.8,0.6h1.8l-2.8,0.6l3.4-0.3
		l1.2,0.9h-1.2l0.6,0.6l-4-0.6l2.4,0.9l-1.8,0.6l1.2,0.3l-1.5,1.5l1.2-0.6l1.2,1.2h-2.1l0.6,0.6l0.6,0.6h-2.7l2.1,0.3l-0.3,0.9
		l1.5-0.9l0.6,0.6l-2.7,0.6l1.5,0.3l-0.9,0.9l1.5,0.9v-0.9l0.6,0.9l-0.3-0.9l2.1,0.3l-2.4-0.6l1.5-0.6l-0.6,0.6l1.8,0.6l-1.8,1.5
		h0.3h3.7l0.3,0.9l-2.1,0.9l0.6-0.6l-1.8,0.3l3,0.9l1.8-2.1l5.2-1.2h2.4l-1.2-1.2h-1.8l1.8-0.3l-0.9-0.9l3.7-2.1l-0.3-0.3l-0.3-0.6
		l0.6,0.6l0.3,0.3l1.2-0.3l1.8-2.1l6.7-3l0.6-1.8l-3-0.3l-2.1-2.2l3-2.1l4.9-0.9l1.8-3.3l4-2.1l-2.1-0.6l2.1-0.6l0.6,0.9l2.1-0.9
		v-1.5l-2.7,1.2l-1.8-0.9l1.2-3.7l4,0.9l5.2-0.9l1.8-4.9l0.9,0.3l-0.6-1.8l4,0.3l4.3-0.9l5.5-1.2l3.7-1.5l4.6-4.3l0.3-1.5l-1.8-0.9
		l1.5-2.4l-4.3-2.1l1.8-4.6l-0.6,2.8l1.5,1.5l5.5,0.9l7.6-1.5l7.3-6.1l2.7-4.6l5.8-5.5l-0.3-0.9l2.1,1.2l-7.3,6.7l5.8-4.3l3.7-4.3
		l2.4-2.8l4.3-3.3l2.8-5.2l-0.3-3l2.4-3l-1.2-0.6l1.8,0.3l3.4-3.7l5.2-3.7l3.3-0.6l4.6-4.3l3,0.3l2.2-2.2l-0.3,1.2l3.7-0.6l0.6-1.8
		l4-2.7l0.3-1.8l5.5-7.3v0l0.9-1.2l1.5-5.2l2.7-3.4l4.9-21l0.9-1.2l0.3,1.8l1.8-1.8l8.2-13.1l4.9-8.3l0.9-5.8l-0.9-7l-0.9-1.5
		l-5.2,0.6l-4.6-4.9l-5.2-3l-8.2,1.5l-4.6-1.5l-5.5,5.5l0.3-3.4l1.8-1.5l-2.7,0.9l2.1-2.1l-1.2-2.8l-1.8,2.1l-0.3-2.1l-0.6,0.9
		l0.3-1.2l-0.9,0.9l-1.2-1.5l-0.6,1.2l-0.3-1.8l-0.6,0.9l-3.7-1.8l-0.3,1.2l-2.7-0.3l-1.8,4h1.8l-1.5,1.2l-0.9-1.5l-3.4,5.2l0.6-3.4
		l-4.6,1.8l6.4-3l2.1-5.8h-8.2l-1.8,4.6v-2.1l-1.8,2.4l-0.3-2.4l-1.5,2.4l1.5-4.3l5.8-6.7h-0.9l0.9-2.4l-3.7-1.5l-2.4-9.7l-0.9-0.6
		l-0.6,1.8l-2.8-4l-8.2-3.4l-12.8,1.5l-5.5-4.6l-1.2,2.4l0.6-4.6l-2.8-2.7l-4.3-2.1v0l-0.9-0.6l-3,0.3v-4l-3.7-1.8l-3,0.6l-0.9-0.9
		l-1.8-1.5l4.6-2.1L510,312l2.7,0.6l-6.4,2.4l-5.5-2.4l-8.5,1.2l-1.5-3.4l-5.5-1.2l-2.1-3.4l-0.9,2.7l2.1-0.3v1.2l-1.5-0.6l-6.7,4
		l2.1,3.7l0.6,1.5v1.8l-3,1.5l-2.1-3.7l0.6-0.9l1.8-3.4l-1.8-4.3l4-2.4l-2.7-1.8l-7.3,5.8h-3.9l-0.6,1.5L461,312l-1.8,1.5l-2.1,3
		l0.3,0.6l0.3,2.8l-6.1,4.3l0.6,3l-5.2-5.5l-5.2-2.1l-3-0.3l-1.8,0.9l-5.2,3l-3.7-1.8l0.3,1.2l-2.1-0.3l-3.4-4.9l-4.3-6.4l3.3-14.3
		l-0.6-4.6l-7.6-3.7l-14.3,1.2l-3.7-1.2l3.7-4.9l0.6-6.7h-1.2l1.5-2.4l0.9,3.4l2.2-6.7l-1.5-0.3l4.6-7.9l-5.8-1.5l-9.7,2.4l-2.1,7.9
		l-4.3,4.3l-3.3-1.2l-9.5,2.4l-3-3.4l-3-0.3l-6.4-16.2l-0.3-2.8l1.2-8.8l0.6-3.4l1.8-0.9l-0.9,2.1l2.2-4.6l-0.3-6.1h-1.2l1.5-0.3
		l1.2-3.7l3.4-1.2l-0.9-1.2l2.7,0.6l-0.9,0.6l4.9-2.4l0.9-3l1.8,0.9l-1.2,0.9l4-1.2l6.1,0.9l2.1-1.2l3.7,3.7l1.8-1.2l1.2,0.9
		l-0.3-1.8l1.8,0.3l1.2,2.7l1.8-1.2l-2.7-1.8l2.1-1.5l-1.8-0.3l-0.3-0.3h-0.5l-2.3-0.9h9.5l0.6-2.1l0.9,1.8l-1.2,0.6l4.3-1.5
		l-0.6,0.9l4-0.3l-1.2,0.3l3.7,0.3l0.6,1.5l0.3,1.5l3.4-1.5l1.5-0.6l1.3,0.6l0.9,0.6l4.3,4.9l-0.9,4.6l1.8-0.3l-1.2,2.2l1.2,2.4
		l1.5-0.3l1.2,5.2l3,1.5l-0.3,2.1l2.1-0.3v0.9l2.4-8.5l-4.9-14.6l-1.8-5.5l4-4.6l-0.6-1.2l0.9,0.9l2.4-2.1l4.9-4.6l9.4-5.2l-2.7-0.6
		l2.1-0.9l-2.1-1.2l3.3,0.9l1.5-1.5l-0.6-1.5l-0.6,1.5v-1.5l-2.7,0.3l1.8-1.8l1.8,1.2l-0.9-3l1.8,4.3l-1.8-5.2l-4-1.2l2.1,0.6
		l-1.5-1.8l1.2,1.2l0.6-1.5l0.3-1.2l-4.3-2.1l0.3-1.2l3.7,2.7l-1.5-5.5l2.7-1.2l-1.5,3l2.8,3.7l-0.9,4l3-5.8l-2.1-5.5l2.7,3l2.4-3.4
		l-0.9-3.4l2.4-2.1l7.3-1.5v-2.1l0.9,1.5l4.3-0.9l-0.6-1.5l-0.6,1.2l-3-2.8l2.1-5.5l1.5-0.3l-0.3-1.2l2.1,0.3l0.9-3v1.5l1.8-1.2
		l0.9,1.2l3.4-2.4l-1.2-1.5l2.4,0.6l6.4-3.7l-1.5,2.2l4.9-0.3l-1.8,1.5l-1.5-1.2l-4.6,3.7l0.3,3l2.8,1.2l2.7-4.9l2.1,0.3l-0.3-1.2
		l7.3-2.1l0.9-0.6l-3.7-2.1l-4.3,0.9l-5.2-2.1l-0.9-2.8h-1.8l1.2-3l-2.7,0.9l-0.6-1.2h-3l4.9-0.3l2.4-1.8l-1.5-2.8h-4.9l-5.8,2.4
		l-8.2,7.6l3.3-4l-0.6-1.8l7.3-4.6l1.5-2.4l0.6-1.2l18.9-1.2h0.3l1.8-4l4.6-1.2l2.4-2.8l-2.1-1.2h1.8l-2.7-0.3l2.1-0.3l-1.5-0.6
		l0.3-2.1l-2.4-1.2l-1.8,1.5l-0.3-2.1l-3-0.6l-4,2.8l3.4-2.8l-2.8,0.9l4.9-2.4l-2.4-0.3l0.3-0.6l-2.4,0.6l-0.6-1.2l-0.6,0.6l0.3-0.9
		l-1.2,1.8l0.6-1.5l-1.2,0.3v-0.9l-0.3,0.3l-1.5,1.2v-2.7l-0.6,0.9l-0.3-1.2h-3l0.6-1.2l-1.5,0.3l0.9-0.3l-1.8-0.6l1.2-0.3l-2.4-0.6
		l2.4,0.3v-1.5l-3.4-1.2l1.5-0.6l-2.4-0.9l0.3-0.9l-1.8,0.9l1.2-1.8l-2.1,0.9l1.2-1.5l-1.2-1.2l-2.2,0.3l1.5-0.6l-3.9-2.4l0.3-0.9
		l-1.2-0.3l-0.9,2.1l1.5,1.2l-1.5,0.3l1.2,0.6l-1.5,0.9l0.9,1.8l-1.5-1.8l-2.4,3l-1.2-1.8l-1.2,1.8v-2.4h-2.8h-1.8l0.9-0.9l0.9,0.9
		l0.3-1.8h-1.2l-0.6-2.1h-2.7l3-0.3l-0.6-3l-0.6,0.9l-4.3-1.2v-1.5l-1.8,0.3l-3.7-2.7l-1.5,1.2l-6.7-1.2l-1.5,0.9l1.8,2.1L440,100
		h1.5l0.9,2.4l-3,4.6l4,2.2l1.8,5.8l-2.8,3.7l-5.8,2.4l2.1,1.5l1.8,7.3l-1.8,1.5l0.6,2.4l-1.2-1.8l-1.5,1.8H436l-1.8-0.6v-1.5
		l-4.9-4.6l0.3-7.9l-7.9-0.3l-13.7-7.9l-5.5,1.2l1.5-1.5l-0.6-4.6l-2.4-0.3l-0.6,1.2l-1.2-2.1l2.1-4.9l4.6-3.7l-0.6-0.6l4.6-1.8
		l-1.2-0.9l2.1,0.3l2.1-1.2l-2.1-1.5l-1.5,0.3l0.6-0.6l-3.3-0.6l0.6-0.9l5.8,2.8l1.8-2.1h4l3-2.8l-7.3-2.4l2.1-0.3l4.3,2.1l3.3-2.4
		l-1.5-0.9l5.5,1.2l-2.4-2.4h2.4l0.9,1.8l4.3-3l-2.4-2.8l2.4-0.6l-1.5-0.6l1.2-0.9l-3-0.9l1.2-0.3l-4.9-0.6l0.9,3h-1.5l-2.1,3.7
		l-2.1,0.6v-4.9l-1.8-0.9l-2.4,2.8l-0.9-3.4h1.8l-3.9-0.9l0.9-0.6l-0.9-0.3h-4.9l-0.3,0.3l4.3,1.5h-1.8l-0.9,1.5l1.5-0.6v1.2
		l-3.9,1.2l-0.6,2.4l-1.8-0.9l2.1-2.4l-1.8,0.9l0.9-0.9l-1.2-0.6h-2.4l0.3,1.5h1.5l-0.6,1.2l-1.5-1.8l-1.2,1.2l-1.8-0.3l-3.9-0.3
		l-0.9-1.5h-2.8l-0.3-2.4l-5.5,1.2l1.8,0.6l3.7-0.9l-5.2,1.8l0.3,1.8l-0.6,0.9l-0.9-0.6l-0.3,1.8l-0.9-2.1l1.5-0.6l-1.8-2.1
		l-3.7,0.3l-4.6-0.9l0.6-0.9l2.8-0.3l-0.6-1.5l-2.7-0.3l-2.4-2.1l-1.2-1.5l-4.6,0.6l1.8-1.5l0.6-0.6l-0.9,0.6l-3,1.2l0.6-1.8
		l0.6-1.8l-0.6,1.2l-1.2,0.3h0.9v0h-0.9l-5.5,0.6l3.3-1.2l1.2-0.6l-1.8,0.3l-4.9,0.9l-1.5-0.3l1.5-0.9l-3.3,0.6l-1.5,1.5l-0.9-3.7
		l-0.3-1.8v-0.3l-4.3-3l0.3-0.9l1.2-0.6l-0.9-0.3l0.9-0.9l-1.8,0.3l1.8-0.6l0.6-0.6l-2.7,0.3L345.8,54.6z M414.9,72.8l0.6-0.6h1.2
		l-2.7-4.6l-4.6,2.7l1.2,0.3l-1.5,1.8h4.9L414.9,72.8z M456.7,552.5l-0.3,0.1v0.1L456.7,552.5z M456.4,552.6l-1.5,0.7l1.2,0.3
		L456.4,552.6z M456.1,553.7l1.2,0.6l-0.3-0.6l3.4-0.9H457L456.1,553.7z M456.4,552.5L456.4,552.5l1-1.3l-0.9,0.9v-0.6h-0.3h-0.6
		h-1.2v1.5L456.4,552.5z M453.7,544.2L453,543l-1.2,1.2h0.9H453.7z M452.7,544.2l-0.6,1.8l-1.8-0.3l0.9,1.5l1.8-1.5l-1.2,1.5
		l1.5-0.3L452.7,544.2z M453,539.1l-2.4,0.9l0.9,0.3l-0.6-0.3L453,539.1z M459.8,535.1l0.3-1.2l-1.5,0.6L459.8,535.1z M458.5,526.9
		h-1.2l-0.6,1.5l-1.2,2.7h1.5l1.8-0.6l0.3-3.7H458.5z M312.9,109.6L312.9,109.6L312.9,109.6L312.9,109.6z M312.9,109.6v-1.4
		l-0.9,0.9L312.9,109.6z M310.1,81.1l-0.3-1.5l-2.1,0.3l-4,2.4l0.6,0.3l-3,1.2h3.7l0.7-0.5l1.5-0.7v0.9l2.4-0.9L310.1,81.1z
		 M277.5,89.3l0.9-0.9L276,89l0.6,0.3l0.6,0.3L277.5,89.3z M418.3,54.9l2.7,0.6l-0.3-0.6H418.3z M398.5,55.2l-1.8,0.3l0.9,0.6h-2.7
		l2.1,0.3l-3.4,0.3h2.4l-3.7,0.6l1.2,0.9l2.8-0.9l-0.9,0.9h3.7l-5.2,0.6l1.5,0.9l5.5-0.6l3,0.3l2.1-1.8l-0.6-0.3l-1.2,0.6l-0.9-0.3
		l1.2-2.1l-2.4,0.6l-0.3,2.1l-2.4-0.6L398.5,55.2z M423.5,55.2l0.6,0.9l0.6-0.6L423.5,55.2z M394.8,55.5l-3,0.9h1.5L394.8,55.5z
		 M417.1,56.1l0.6,1.8l2.7-0.3l-0.3,3l2.4,1.2l1.8-0.9l0.9,1.2h5.2l0.3-0.9l2.1,0.9l2.1-0.6l0.9-0.3h-0.9l-0.3-0.3l0.3-0.3l0.6-0.6
		l-0.6-0.3l-1.8-0.6l-6.1,0.9l-2.4-0.6l-0.3,0.6l-0.9-1.5l-1.5-0.6l2.8,0.3l-2.4-0.6l0.6-0.3l-3,0.3l0.6-1.2L417.1,56.1z
		 M414.9,56.7l-0.9,0.6l-0.9-0.3h-0.9v1.2L411,57v1.2l-2.4,0.3h3.3l0.3,0.3h-0.6l-1.2,0.6l0.3,0.6l2.4,0.3l1.5-0.9L414.9,56.7z
		 M499.4,57v0.6l2.4-0.3L499.4,57z M502.4,57.3l-0.5,0.5l-0.4,0.1l1.8,0.6l2.8,0.3l-3-1.1l0.9-0.1L502.4,57.3z M382.9,57.9l-0.9,1.2
		l-8.3,3.4l1.2,0.3l-0.6,2.4l3.9-0.3l1.8-1.2l0.7-0.3l9.1-2.1l-0.3-1.8l-2.4,0.3l-0.3-0.6l-0.3-1.2H382.9z M418,59.1l-3.3,1.2
		l3.7,0.9L418,59.1z M390.6,61.9l-7,1.2l-2.8,1.5l1.5,0.3l-1.5,0.6l4.3,0.3l-5.2,0.6l-0.3,0.9l5.2,0.6l2.1,1.5l-8.5-0.6l-0.6,1.8
		l3,1.5l-0.6,1.5h6.7l5.2-1.5l1.2,1.8l5.5,0.3v-1.5l-2.2,0.9l0.6-1.5l1.2,0.6l2.4-0.9l0.3,0.9l0.3-0.9l0.3-0.6l-3.7-2.4l2.4-4.6
		l-0.9-1.2h-2.1l-2.7,4l0.3-3.7h-1.2v1.2l-0.6-0.3l-1.2,0.6l-1.2-0.3l2.1-0.9l-1.5-0.9l-3,0.9L390.6,61.9z M507,61.9l0.3,1.8
		l1.8-0.9L507,61.9z M326.6,61.9v0.6l-0.3-0.3L326.6,61.9z M400.6,62.2l-0.9,0.6l1.5,1.2l1.8-1.2L400.6,62.2z M408,62.8l-0.3,0.9
		l-1.2-0.3L408,64l0.3,0.3l-0.6,0.3l-0.6,0.6l-2.1-0.9l-1.2,0.9l2.1,2.7l0.6,0.6h1.5l0.3-0.6h1.8l1.8-2.4l-2.1-0.6l3-1.8l-4-0.3H408
		z M415.3,62.8l-2.1,4.9l2.7-1.2l-0.6-0.6h2.7l3.7-2.4L415.3,62.8z M426.5,63.7l-4,1.2l-2.4,4.3l4.3,0.9l3-0.3l-1.2-1.8v-1.5
		l2.4-2.4L426.5,63.7z M426.2,68l2.1,0.9l-0.6,1.8l-0.3-0.6h-3h-4l0.9,1.5l1.2,0.9l2.4-0.9l0.9,1.5h0.3l6.1,0.3l-0.6-0.3l-1.2-0.9
		l1.5,0.9l1.8,0.9l-0.9-0.9l-0.3-0.3l2.4,0.3h0.3l1.8,0.3l-0.3-0.3l-0.9-0.9l0.9-0.9l1.8,1.8l0.6,0.6l0.9-0.6l-0.3,0.9h1.8l0.9,0.9
		l-1.5,1.5l1.8-0.9l2.4,1.5l0.9-0.6l3.7,4l-1.5,1.2l1.8,0.3h-1.8l-2.4,1.5l2.4,2.1l-4.6,0.6l-3.3-0.6l-0.9,3h7.3l-0.6-1.5l2.4,1.8
		l0.3-1.2l1.8,2.4l3.4,0.6l-1.8,0.6l1.2,0.9l13.1,3l-7.9-5.2l3,1.2l-0.9-1.2l7.3,3l-2.1-3.7l2.4,1.8l-1.2-2.4l-2.4-0.6l1.2-0.6
		l-1.8-1.2l-0.9,0.9l-1.2-1.2l0.3,0.9l-2.1-2.7l-1.5,0.9l-0.9-1.8h2.4l-2.1-1.8h2.1l1.8,1.5l0.9-0.9l-0.3,1.2l2.1-1.2l-1.2,1.8
		l4.9,2.1l-1.5-3l2.1,0.9l-1.2-1.5l2.1,0.3l-2.4-0.9h2.8l-1.8-0.9l1.5-0.3l-1.8-0.9l-0.6,1.2l-0.6-0.9l-1.5,0.6l0.6-1.5l-0.9,1.2
		l0.3-0.9l-1.8,0.9l0.9-0.9h-1.5l1.5-0.3l-1.5-1.2l-1,0.5l-0.2,0.4l-1.2-1.2v1.2l-0.3-1.2l-0.6,0.6l-0.3-0.9l-0.6,0.6l-0.6-0.9h-1.5
		l1.8-0.3l-4.9-0.9h2.7l-1.2-0.9l-1.2,0.6l1.5-0.9l-1.8-0.3l3.9,0.3l-0.9-0.6h-4.9l4.6-0.6l-0.3-0.6l-0.3-0.3l-1.5-0.6l-1.2,0.9
		l0.6-0.6l-2.4,0.6l2.7-1.5l-2.1-0.6l-1.5,0.9l0.6-0.9l-1.8,2.1l0.3-1.2l-1.2,0.3l1.5-1.8l-2.8,1.2l1.8-1.5l-2.4-0.9l-1.5,1.5v-1.8
		l-1.8,1.5l0.3-1.2h-1.2l1.5-0.9l-3,0.3l1.5-1.5l-3.4-0.6l-1.5,0.9l2.4,0.6h-2.6l-1.7-0.9l-0.3,0.3l-1.2,1.2l0.9-1.8l-1.8-2.4
		l-4.6,0.9l1.5,0.6h-2.4l2.1,0.6l-2.4-0.3L429,68l-1.5-0.6L426.2,68z M462.1,78.5l0.4-0.8l-0.6,0.9L462.1,78.5z M433.9,74.1l1.5,0.3
		l0.9-0.6h-0.9L433.9,74.1z M434.1,64l0.9,1.8l0.9,0.6l4.9-0.6l-2.1-1.5l-3.7-0.3H434.1z M346.4,67.1l-1.8,0.9v0L346.4,67.1z
		 M354,67.7l-3.7,2.7l3.3,1.5l-1.2,3l-0.3,0.2l0,0.1l-1.8,1.3l2.4,3.3l-0.9,1.5l0.6-1.5l-2.4-3l0.3-0.3l0-0.1l1.8-1.3l0.9-3.2
		l-2.7-0.3v-1.2v-0.6L354,67.7z M344.3,68.3l-2.4,1.2v0L344.3,68.3z M309.5,68.6l-2.4,1.8v1.2h0l-1.5,0.9l3.3-0.6l0,0l-1.1,0.6h-2.1
		h0h-0.3l1.5-1.2l0.3-0.9v0.1l0-0.1v-0.3L309.5,68.6z M476.8,70.4l-2.1,0.3L475,71l0.9,1.2l2.2-0.3v0.9l2.1-1.2l-2.1-0.9L476.8,70.4
		z M311.6,70.4l-0.9,0.6l-1.7,0.9l1.7-1.1L311.6,70.4z M340.3,70.7l-0.6,0.3v0L340.3,70.7z M372.3,70.7L372,71l-0.9,0.6l0.3-0.3
		L372.3,70.7z M337.2,72.5L337.2,72.5l-0.6,0.3L337.2,72.5z M406.1,72.5l-3,2.4l3.7,1.5l2.8-0.9L406.1,72.5z M298.5,72.8l-1.8,1.8
		l1.2-0.3l1.5-1.2L298.5,72.8z M368.3,73.8L368.3,73.8l-0.3,0.6L368.3,73.8z M335.1,74.1L335.1,74.1l-1.8,0.9L335.1,74.1z
		 M366.5,75.9h0.3l0.6,0.6l-2.4,0.6l-0.3,0.3l1.8,0.6l2.4-0.6l-2.7,2.4l-2.7-0.9l-0.9,1.5h0l-1.2,0.3l-3,0.6l3.3-1.8l-4.2,1.2
		l-1.5-1.2l3.9-1.2l-0.6-0.6l2.7,0.3l-2.1-1.2l-3.3,0.6h0l0.9-1.2h0L366.5,75.9z M330.9,76.8l-0.6,0.3v0L330.9,76.8z M441.2,77.7
		l-0.3,2.7l3-0.3l0.3-1.5v-0.3L441.2,77.7z M444.8,78.3l2.4,0.6l-0.9-0.6H444.8z M375,78.9h0.9l-1.2,1.2L375,78.9z M371.4,80.8
		l2.8,1.8l-0.9,0.6L371.4,80.8z M377.2,80.8l1.5,2.7l-1.2,0.9L377.2,80.8z M324.4,81.4l-0.6,0.3v0L324.4,81.4z M403.1,81.4l0.3,0.9
		l-1.5,0.3L403.1,81.4z M359.2,82.6L359.2,82.6l-0.3,0.6L359.2,82.6z M394,82.6h3.3l2.7,0.3l-3,0.6L394,82.6z M322,83.2L322,83.2
		l-1.2,0.6L322,83.2z M323.9,83.5l-2.2,1.8l0.9-1.2L323.9,83.5z M358,83.8l-0.3,0.6h0L358,83.8z M426.8,83.8l0.6,0.9h0.3l1.5,0.3
		L426.8,83.8z M424.4,84.4l-1.8,5.2l-2.1,1.5l3-0.3l0.9,1.8l4.9-3l0.9,1.5l3.4,0.6l1.8-0.9l-1.8-1.2l-2.1,0.6l0.3-1.8l-5.2-2.8
		l-0.9,0.6L424.4,84.4z M319.9,84.7L319.9,84.7l-0.6,0.3L319.9,84.7z M374.4,84.7h2.8l-2.4,0.6L374.4,84.7z M373.2,85l0.9,0.9
		l-2.4-0.3L373.2,85z M297.6,85.4l-1.4,1.1l1.7-0.5L297.6,85.4z M296.3,86.4l-0.4,0.1h0.3L296.3,86.4z M360.1,85.6l0.3,1.5h-0.3
		l-1.2-1.2L360.1,85.6z M379,85.6l1.5,1.8l-4.6-0.9L379,85.6z M451.9,85.6l3.3,2.4l-3-0.3L451.9,85.6z M318.4,86l-0.6,0.3v0
		L318.4,86z M294.6,86.2l-2.1,1.8l0.6-1.2l-1.2,0.6l-0.6,1.2l0.6-0.3l-1.5,0.9l3-0.6l0.6-0.9l0.3,0.6l1.5-1.2l-0.3-0.9l-1.5,0.9
		L294.6,86.2z M393.6,86.6h1.5h0l5.8,0.3l-3,0.9l-2.7-0.9h0L393.6,86.6z M325.7,88.4l-2.4,2.7l-1.5,0.6l2.8-2.1L325.7,88.4z
		 M361.6,88.7l3,3l7-2.1l3,0.6h-3l1.5,0.3h-2.4l1.8,0.3l-2.8,0.3l-8.2,3.4h-2.7l-4-2.2l-4-0.9h3.7l0.3,0.9l2.7,0.9l2.1-1.5h2.2
		L361.6,88.7z M371.7,90.2h-1.8l-1.2,0.6L371.7,90.2z M398.2,88.7l1.8,0.3l-0.9,0.6L398.2,88.7z M273.6,89.3l-1.3,1l1.3-0.7V89.3z
		 M272.3,90.3l-0.3,0.2h0.1L272.3,90.3z M271.9,90.5h-1.1l0.6,0.3L271.9,90.5z M392.4,89.6l-2.2,2.7l-1.5-1.2L392.4,89.6z
		 M351.6,90.5L351.6,90.5l-0.3,0.6L351.6,90.5z M407.7,91.7l1.8,0.6l-1.5,0.3L407.7,91.7z M438.7,91.7l1.2,0.9l0.6-0.9H438.7z
		 M374.2,92l-3.4,2.4v-0.9L374.2,92z M397.9,92v1.5l-1.8-0.6L397.9,92z M392.1,92.3v1.2v0.6h0h-0.3l-0.9-0.3l0,0L392.1,92.3
		L392.1,92.3z M388.2,92.7l1.2,0.3l-2.2,0.9L388.2,92.7z M431.4,93.3l-2.4,0.3l-2.1,1.2l0.3,0.9L431.4,93.3z M348.8,93.6l-0.3,0.6h0
		L348.8,93.6z M380.9,93.9l0.3,0.9l-2.7,0.9L380.9,93.9z M315,94.2l-2.2,2.7l1.2-0.9l0.6,0.9v-1.8l0.6,1.2l0.9-0.9L315,94.2z
		 M317.4,94.5l-3.9,4.3l2.1-0.9l2.1-2.4L317.4,94.5z M436.6,94.8l-0.9,2.1v0.3l1.5-1.2L436.6,94.8z M347,95.7L347,95.7l-0.3,0.6
		L347,95.7z M468.3,96.3l1.2,0.6l0.3-0.6H468.3z M380.9,96.6l-0.3,1.2l1.5-0.3l-2.1,1.5L380.9,96.6z M345.5,97.5L345.5,97.5
		l-0.3,0.6L345.5,97.5z M384.5,98.4l-0.6,2.2l-0.9-0.9L384.5,98.4z M392.7,98.4l-2.4,1.5l0.6,0.6l-1.2-0.3l-0.3,1.8h0l-0.9-0.6h0
		l-0.3-0.3l0.6-0.6l1.2-1.5h0L392.7,98.4z M313.8,99.1l-2.7,3l2.1-1.8L313.8,99.1z M314.4,99.1l-1.2,1.8l0.9,0.3l1.5-1.5L314.4,99.1
		z M379.3,99.1v1.2h-1.5L379.3,99.1z M367.1,100l7,1.8l-7.3-0.3l-4.9,1.8l-0.3-0.9L367.1,100z M450.6,100l0.6,1.2l-3.9-0.6
		L450.6,100z M312.9,101.2l-1.8,2.4l0.6,0.3l-1.5,0.9l0.6,1.2l-0.3,1.2l1.8-1.8l-0.9-0.6h1.2L312.9,101.2z M449.4,103.6v0.3l2.4,0.9
		l-3.4-0.6L449.4,103.6z M314.7,103.9l-1.5,0.9l0.3,0.6l-0.3,0.3l1.2-0.3L314.7,103.9z M329.3,104.2l-0.3,2.4l0.3,0v0l3.4,0.6
		l-3.4-0.6l-0.9,3L329.3,104.2z M379.9,105.2l-1.8,2.4l-1.5-0.3l1.5-1.8L379.9,105.2z M382.1,106.7l-2.1,3.7l-4.3,2.1l1.2-1.8
		l-0.6,1.2l1.8-0.9v-2.4L382.1,106.7z M370.8,107v1.2l-2.7,0.3L370.8,107z M307.1,108.5l-2.4,4v3.7l0.3-2.7l1.2-0.6l-0.6-0.9l4-2.8
		l-3.4,1.8l1.8-1.5L307.1,108.5z M390,108.8l-0.9,1.8l-4,0.9l2.4-0.6L390,108.8z M363.5,109.4l0.9,1.5l-3,2.7l-0.3-2.1l0.9,1.2
		l1.5-1.2V109.4z M450.6,110.6l-1.5,0.9l1.2,0.6h-3L450.6,110.6z M311.7,113.4l-1.5,2.1l0.6-0.6l-0.6,1.8L311.7,113.4z M437.8,114
		l-1.8,2.4l1.8-0.6v0.9l0.3-0.6v0L437.8,114z M471.9,118.6l3.9,3.1l0.8,0.4l1.3-0.5l-0.3-0.3h1.8l-1.2-2.1l2.4,2.4h2.1l-2.8,0.9
		l-1.8-0.9l-1.4,1.1v0.2l1.4,1.1h-1.2l-0.2-1.1l-0.1-0.1l0.1-0.1l-0.1-0.5l-0.1-0.1l-0.2,0.1l-0.6-0.5l-3-1.6l0.6,1.2L471.9,118.6z
		 M396.4,119.2l2.2,0.3l-3.4,1.2L396.4,119.2z M386.6,120.1l0.3,1.2l0.9,10.7l-2.2,3l1.2-4.6l-1.8,0.6l0.3-2.4l-1.8,0.3l-1.2-3.3
		l1.2-0.6h0.3l-1.8-1.2l1.5-1.8l2.4,0.9L386.6,120.1z M463.7,120.1l0.6,0.9l-1.8,0.3h-0.3L463.7,120.1z M380.8,120.4L380.8,120.4
		L380.8,120.4l-0.6,1.5h0.3l-0.9,0.6l0.3,0.6l1.2,1.5l-1.5-0.6l-2.1-0.9l1.8-0.6L380.8,120.4z M305.9,122.2l-0.3,1.5l1.8-0.3
		L305,125l1.8,0.3v0.6v4.3l2.8-0.6l-2.1,1.8l3.7,1.8l-0.3-6.4v-1.5L305.9,122.2z M395.2,122.2l1.5,0.9h-2.4L395.2,122.2z
		 M469.2,123.4l-0.3,1.8h-1.5L469.2,123.4z M376.9,124L376.9,124h1.5h0l0.9,0.6h0l0.9,0.6h0l-1.8,4.8l-0.1,0.1l0.6-4v-0.3v-0.3
		l-2.4-0.6L376.9,124z M479.6,125.9l1.8,1.5l-1.2-0.3L479.6,125.9z M432.6,126.2l-2.4,0.6l3.7,1.2L432.6,126.2z M505.5,128.6
		l-2.8,3.7l0.3,2.7l0.6,2.2l-1.5,0.3l1.5,1.5l-1.5-0.3l-1.8,2.7l3-0.6l-2.7,2.7l1.2,1.2l2.2-1.2l4.9,0.6l2.4-1.8l-0.3,1.8l4-1.2
		l-2.7,3.4l2.1-0.6l2.1-3.7l1.5,1.5l-0.3,2.8l1.2-1.8l0.6,2.1h1.5v-3.7l-0.9-0.9l-0.9,0.9v-2.4l-0.6,2.8l-1.8-1.2l0.6-0.9l-1.2-0.3
		l2.1-1.5l-3,0.9l0.6-3.7l-2.7,0.3l-0.6-1.2l-1.8,2.4v-2.1l-2.4,0.9l0.9-2.4L507,135v-0.3v-0.6l-0.3,0.6l-0.9,1.8l0.3-1.8l0.6-4.3
		l-1.5-0.9l1.8-0.3L505.5,128.6z M358.6,129.5l0.3,0.9l-1.5,0.3L358.6,129.5z M380.2,129.5l0.3,1.8h0l0.6,4.3l-0.6-4.3l-1.8-0.9
		L380.2,129.5z M328.7,130.1l0.6,0.3h1.2l0.9,0.3l-0.9-0.3h-1.2L328.7,130.1z M464,130.4h1.2v0.3v0.9L464,130.4z M470.7,130.4
		l-0.9,4.3l-2.4-4L470.7,130.4z M338.8,131.7l0.6,0.3h1.5l0.6,0.3l-0.6-0.3h-1.5L338.8,131.7z M457.6,132.6l-4,5.2l0.6-3.7
		L457.6,132.6z M350.1,133.2l0.6,0.3h1.5l0.9,0.3l-0.9-0.3h-1.5L350.1,133.2z M444.2,134.1l2.1,0.3l-1.8,0.9L444.2,134.1z
		 M363.5,134.7l0.6,0.3h2.4l0.9,0.3l-0.9-0.3h-2.4L363.5,134.7z M401.3,134.7l-0.9,1.8h-2.1l-1.8-1.5l2.4,1.2L401.3,134.7z
		 M468.6,134.7L468.6,134.7l1.2,2.7l0.3,0.9v0l-1.2-0.9l-0.9-0.9L468.6,134.7z M450.3,135.9h0.3l1.2,0.3l-0.9,1.2L450.3,135.9z
		 M382.3,136.2l0.6,0.3h3.4l0.9,0.3l-0.9-0.3h-3.4L382.3,136.2z M410.4,136.5l0.9,1.2l0.3,0.3v0l-0.8,1l-1,1.1h0l-1.8-1.5l1.2-0.9
		L410.4,136.5L410.4,136.5z M443.9,136.8L443.9,136.8l0.6,1.2v0.3l-1.8,0.9v0l0.6-1.2L443.9,136.8z M391.8,137.2l0.9,2.7l-2.4-0.3
		l2.4,0.6l-4.3,0.9l2.7-2.7h-1.8L391.8,137.2z M483.2,137.2l8.2,2.4l0.3-0.9l-3-1.2L483.2,137.2z M414.7,137.8l0.9,0.3H436v0h-20.4
		L414.7,137.8z M465.9,138l2.1,1.8l-1.8-0.9l-2.1,1.2L465.9,138z M394.6,141.1l2.1,2.8l-2.4-1.2L394.6,141.1z M410.1,141.7l5.8,0.9
		l1.5,3l3,0.3h0l0.9,5.8l12.2,2.2h0l2.7,3.3l0.9,1.2l-0.9,1.2h0L436,160l-3-0.6l-2.3-2.6l1.5,2.6l-1.8,5.2h0l-2.4,1.5l-1.2-4.3
		l-3.9,1.2h0l2.2-2.4v-4l-5.2-2.1l-2.1,4v-0.1l0,0.1V157l-2.4,1.8l-0.6,7l-1.5,4.6h0l-3,1.2h0l-0.9-6.7l2.4-6.4l-2.1,0.3h0l4-4.9
		l0.9,1.2l3.7-1.8l5.5,0.6l-1.2-1.8l-2.4-0.3l0.3-1.2l-7.9,0.9h0l-1.2-1.5l-0.3,0l-1.9,0.3v0l-0.3-1.8l-6.4,2.4h-1.5l0.6-1.5
		l-4.3,0.6l10.6-6.4h0l0.9,0.6l1.2-2.1l-0.6,1.8l1.2-0.6V141.7z M364.7,142l0.6,1.5l1.2-0.6l-0.3,1.5l3,0.6l-4-0.3l-0.6-2.2
		l-2.7-0.3L364.7,142z M354.6,142.3l-0.9,1.5v-1.2l-4.9,1.2l-0.3-1.2h0.3L354.6,142.3z M453.1,142.6l1.8,1.8l-2.8-0.9l-1.2,0.6
		L453.1,142.6z M373.2,143.8l-0.3,0.6v0.3l-0.3,0.6l0.3-0.6v-0.3L373.2,143.8z M447.3,146.9l0.6,2.7l-1.5-1.2L447.3,146.9z
		 M498.7,147.2l-2.4,4.3l1.5,1.8l3.3-1.8l0.6-0.3l-0.6-0.6l-1.2-0.6l-0.9,2.4l-1.2,0.3l1.8-2.7L498.7,147.2z M487.5,147.8l-0.6,1.8
		l5.2,2.1l2.4-1.8l-6.1,0.3L487.5,147.8z M369.6,148.4l-1.8,9.1l-2.1-1.2l2.1-1.2L369.6,148.4z M371.7,149l-0.3,0.6v0.3l-0.3,0.6
		l0.3-0.6v-0.3L371.7,149z M464.6,150.2l-14,9.5l-1.8,1.5l0.6,2.4l-2.4,1.2h-9.7l2.1-2.1l6.7-0.3l0.9-0.9h-2.4l6.1-1.8l5.5-4
		l-7.6,0.3l-4.6-3l4.6,2.7h7.6L464.6,150.2z M436.3,152.4h0.9h0l1.2,0.6l-2.1-0.3h-1.8L436.3,152.4z M369.9,154.8v0.6l-0.3,0.6
		l0.3-0.6L369.9,154.8L369.9,154.8z M368.5,159.6l-0.2,0.4v0.6l-0.3,0.6l0.3-0.6V160L368.5,159.6z M370.8,159.7l1.5,4l-2.1-1.8
		L370.8,159.7z M325.1,164.6l1.2,3.3l-0.6-0.6l-0.9,1.5L325.1,164.6z M367,165.7l-0.2,0.4v0.6l-0.3,0.6l0.3-0.6v-0.6L367,165.7z
		 M440.2,165.8L440.2,165.8l-0.9,2.1h0l-3,1.5l-6.1,2.8l-6.4-0.9l3-4l0.9,1.2l-2.1,0.6l0.3,1.2l4.5-2.1l5.5-0.3l-1.2-0.3l1.5-0.6
		L440.2,165.8z M365.5,171.8l-0.2,0.4v0.6l-0.3,0.6l0.3-0.6v-0.6L365.5,171.8z M464.3,173.4l-6.4,2.1l4.9-0.6L464.3,173.4z
		 M364.1,178l-0.3,0.6v0.6l0,0v-0.6L364.1,178z M326.6,181.3l-1.8,2.7l-3,0.9L326.6,181.3z M362.5,184.1l-0.3,0.6v0.6l-0.3,0.6
		l0.3-0.6v-0.6L362.5,184.1z M312,185.3l-0.3,1.5l0.9-0.3l0.3,2.1l-0.6-1.8l-2.8,0.3L312,185.3z M361,191.1l-0.3,0.6v0.6l-0.3,0.6
		l0.3-0.6v-0.6L361,191.1z M359.5,198.1l-0.3,0.9v0.6l-0.3,0.6l0.3-0.6V199L359.5,198.1z M371.7,202.7v0.9l-1.8-0.3L371.7,202.7z
		 M427.2,205.1l0.6,1.2l-1.5,0.3L427.2,205.1z M358,205.4l-0.3,0.6v1.2l-0.3,0.9l0.3-0.9V206L358,205.4z M356.4,213.9l-0.3,0.6v0.6
		l-0.3,0.9l0.3-0.9v-0.6L356.4,213.9z M308.3,218.5l-0.9,0.9l0.6,1.2L308.3,218.5z M317.8,219.1l1.2,0.9l-1.2,1.2V219.1z M358,220
		l0.6,0.3h3.7l0.6,0.3l-0.6-0.3h-3.7L358,220z M381.7,221.6l0.6,0.3h6.1l0.6,0.3l-0.6-0.3h-6.1L381.7,221.6z M354.9,221.9l-0.3,0.6
		v1.5l-0.3,0.6l0.3-0.6v-1.5L354.9,221.9z M353.4,231.3l-0.3,0.6v1.5l-0.3,0.6l0.3-0.6v-1.5L353.4,231.3z M433.6,235.9v2.4l-1.5-1.2
		L433.6,235.9z M446.9,237.1l2.2,1.8l-1.2,2.4l0.9,0.6l0.6-3L446.9,237.1z M351.9,241.4l-0.3,0.6v1.5l-0.3,0.6l0.3-0.6V242
		L351.9,241.4z M450.6,243.5l2.7,2.4v1.8l0.3-2.4L450.6,243.5z M444.5,245l-1.2,3l2.1,1.2l0.9-1.8L444.5,245z M446.9,249.3l-1.2,0.9
		l1.2,1.5l0.6-0.9h-1.2L446.9,249.3z M350.3,252.3l-0.3,0.6v1.5l-0.3,0.6l0.3-0.6v-1.5L350.3,252.3z M431.7,254.5l-12.8,2.4
		l-1.2,3.4l-3,0.6l4.3-0.3l5.5-3.7l4,0.3l1.2,0.6l-2.4,0.6l1.5,0.9l7.9,1.5l5.8,1.2l2.8,3.9l4,0.6l0.6,1.2l-2.8,2.4l12.2-0.3l4-1.8
		l-7.3-1.8v-2.1l-5.2-0.6l-13.1-7.6l-0.9-0.3L431.7,254.5z M423.5,260.6v2.1l2.1-0.3l-0.9-1.5L423.5,260.6z M467.7,263l-2.7,1.5h2.4
		L467.7,263z M334.2,263.9h2.4l0.6,0.9L334.2,263.9z M348.8,264.5l-0.3,0.9v2.1l-0.3,0.6l0.3-0.6v-2.1L348.8,264.5z M468.9,269.4
		l-2.8,1.5l3.4,0.9l-0.3,2.1l2.1,2.1l-8.2-0.3l-1.2,1.2l2.7,1.8l8.2-1.2l3,2.8l0.9-1.8l2.1-2.1l9.1,0.6l1.2-1.8l-5.8-2.1l1.8-1.2
		l-2.4,0.3l-1.2-1.8L468.9,269.4z M338.8,271.2l3,1.7l0.4,0.1h-0.3l-0.1-0.1l-1.7-0.2l-0.3,1.5L338.8,271.2z M501.5,275.5l-7.3,0.6
		l0.3,1.8l5.5-0.3L501.5,275.5z M450.9,277.3l-6.7,0.3l2.7,2.4h3.7l3.7-0.6L450.9,277.3z M520.4,283.1l-1.5,1.2l0.9,1.2l1.8-1.2
		L520.4,283.1z M378.7,285.5l3,2.7l-3.4-0.9L378.7,285.5z M407.7,305.3l0.6,1.5l-2.1-0.9L407.7,305.3z M409.8,307.2l4.6,5.2
		l-4.3-1.5L409.8,307.2z M524.6,309.9l-3,0.9l0.9,1.8l-2.1,1.5l4.3-0.9V309.9z M518.6,315.7l1.5,4.9l2.1,0.3l-11,4.3l-3.4,1.5
		l-3.4-1.2l-3.3,1.5l-5.2,7l1.5-4.6l3.3-2.7l3.7-1.2l3.4,0.9l11.6-5.2v-1.5L518.6,315.7z M517.4,325.4l-0.3,4.6l-0.9-3.9
		L517.4,325.4z M552.4,335.5l0.3,1.8l-2.1,0.6L552.4,335.5z M575.2,354.4l-3,1.2l1.5,0.9L575.2,354.4z M382.9,362.9l-1.2,0.9
		l2.4,2.7l-2.1,1.2l2.1,0.6l1.5-0.9L382.9,362.9z M513.7,363.5l9.7,4.6h0l7,7.6l7-0.6l-0.9,0.9l-4.9-0.3l-1.2,0.6l-8.2,3.7l-2.1-0.9
		l-0.7-0.3l2.1,0.9h0l4.5-1.8l0.6-1.8l3.7-0.3l-2.7-0.6h0l-4.6-6.7l-9.1-4.3l-12.5,0.6l2.4-0.9L513.7,363.5z M562.4,365.1l-4.6,3.4
		l-1.5,1.2l-3.7,0.6l-2.1,5.3l-0.1,0.1l0.9-5.8h0h2.1l-3.9-0.3l2.4-0.3l-2.1-0.9l-4.9,3.4l-3.3-0.6l3.3,0.3l3-3l4.9-0.3l1.5,0.3h0
		l-0.3,1.5l1.5-0.3L562.4,365.1z M571,365.1l-1.5,2.2l0.6,1.2l-1.7-3l-0.1,0l-0.3,2.3l-0.9-2.1l1.2-0.2v-0.1l0.1,0.1L571,365.1z
		 M545.1,365.7l3,0.3l0.6,1.5L545.1,365.7z M612.3,366.8l-0.2,0.4v5.2l-0.3,0.9l0.3-0.9v-5.2L612.3,366.8z M541.1,371.1l0.3,0
		l-3.5,3.6l-0.3,0.3L541.1,371.1z M541.4,371.1l0.2,0L541.4,371.1L541.4,371.1z M506.1,373.9l4.6,4.9l5.8,2.2l2.6-1.9l-4.8,3.7h0
		l-0.3-1.5h0l1.2-0.6l-4.6-1.8l-1.5-0.6l-0.6,0.9l-2.2-3.7l-3.3-0.9l-6.1,0.6l-3.9,4.6h0h-5.2l-1.5,2.1l1.2,0.6l-0.9,0.5l-1.2,1
		l-0.2-0.2h0l-0.4,0.2h0l-1.8-2.2l-5.5-0.3h0l-1.5-2.4l-5.7,1.2l1.8-0.9l-1.2-0.3l2.1,0.3l3-0.6h0l1.5,2.4l5.8,0.3h0l1.9,2.2
		l1.4-0.8l0.2-0.1l-0.1,0.1l0.6-0.5l-1.2-0.3h0l1.8-2.7l5.5-0.3l3.7-4.3L506.1,373.9z M436,377.6l0.3,1.2l0.6-0.6l0.6-0.6h-0.6H436z
		 M604.2,396.8l-0.6,0.3h-0.9l-0.6,0.3l0.6-0.3h0.9L604.2,396.8z M593.5,398.6h1.2v0L593.5,398.6l-0.6,0.3L593.5,398.6z
		 M585.9,399.8l-0.6,0.3h-1.8v0h1.8L585.9,399.8z M572.8,401.6h1.8v0L572.8,401.6l-0.6,0.3L572.8,401.6z M609.1,401.6v1.2l-0.3,0.6
		l0.3-0.6L609.1,401.6L609.1,401.6z M563.1,403l-0.4,0.2h-1.8l-0.4,0.2l0.4-0.2h1.8L563.1,403z M550.3,404.4l-0.6,0.3h-2.4l-0.6,0.3
		l0.6-0.3h2.4L550.3,404.4z M534.7,405.9l-0.6,0.3h-3l-0.6,0.3l0.6-0.3h3L534.7,405.9z M510.6,407.7h4l0,0L510.6,407.7l-0.4,0.2
		L510.6,407.7z M607.8,411.1l-0.3,0.6v0.6l0,0v-0.6L607.8,411.1z M528.6,414.7l-0.3,0.9v3l-0.3,0.6l0.3-0.6v-3L528.6,414.7z
		 M606,419.9v1.2l-0.3,0.6l0.3-0.6L606,419.9L606,419.9z M604.8,426.6l-0.3,0.6v0.6l-0.3,0.6l0.3-0.6v-0.6L604.8,426.6z
		 M527.1,431.2l-0.3,0.6v1.8l-0.3,0.6l0.3-0.6v-1.8L527.1,431.2z M483.2,432.1l1.5,0.3h0.3l4,3.4l-1.5,1.5l-0.6-1.8l-1.2,0.6l-3-1.5
		L483.2,432.1z M603.3,433.3l-0.3,0.6v0.6l-0.2,0.4l0.2-0.4v-0.6L603.3,433.3z M584.7,434.5l0.9,2.4l-0.9,0.9h-1.2l1.2-2.1l-1.2,0.6
		L584.7,434.5z M494.8,443.1l0.6,4.3l-1.5-1.8L494.8,443.1z M525.6,444l-0.3,0.6v1.2l-0.3,0.6l0.3-0.6v-1.2L525.6,444z M581.6,444.3
		l-0.3,0.9l0.9,1.2l-1.8-1.5l-1.2,0.9l1.5,2.4l-1.2-0.9l-1.2,0.9l1.2-1.2l-0.9-1.8L581.6,444.3z M524,454.7l-0.3,0.6v1.2l-0.3,0.6
		l0.3-0.6v-1.2L524,454.7z M567.6,456.8l-0.3,1.2l-2.1-0.9L567.6,456.8z M522.2,464.4L522.2,464.4l0,1.2l-0.3,0.6l0.3-0.6V464.4z
		 M521,471.7l-0.3,0.6v1.2l-0.3,0.6l0.3-0.6v-1.2L521,471.7z M519.5,479.3l-0.3,0.6v0.6l-0.3,0.6l0.3-0.6V480L519.5,479.3z
		 M517.9,486.3l-0.3,0.6v0.6l-0.3,0.7l0.2-0.7V487h-2.7l-0.6,0.3l0.6-0.3h2.7L517.9,486.3z M497.5,488.2l-0.6,0.3h-4.6v0h4.6
		L497.5,488.2z M508.5,489.7l-2.1,1.2l-0.9-0.6L508.5,489.7z M514.6,498.5L514.6,498.5l0,0.6l0,0V498.5z M513.1,503.7v0.9l-0.2,0.4
		l0.2-0.4L513.1,503.7L513.1,503.7z M511.5,508.6L511.5,508.6l0,0.6h0V508.6z M510.3,513.2l-0.3,0.9l-0.3,0.6l0.3-0.6L510.3,513.2z
		 M466.2,523.8l1.8,0.9l-1.8,0.3V523.8z M462.2,524.4l0.9,0.9l-1.5,0.3L462.2,524.4z M454.3,538.7h1.2l-1.2,0.9V538.7z M460.1,539.1
		h1.5l-2.4,1.2L460.1,539.1z M458.2,543.6l0.9,0.9l0.3-0.9l0.9,1.5l-2.4-0.3L458.2,543.6z M546,545.8l-2.7,0.3l2.1,0.9L546,545.8z
		 M456.7,547.3l3.7,0.3l-3,0.3v0.6L456.7,547.3z M450.3,547.6v0.6l0.9-0.6H450.3z M497.5,547.6l-0.9,1.2l-2.4,0.6l0.6,0.6l1.5-0.9
		h1.2l-0.6-0.6l3.3-0.3v-0.6l-1.5,0.6L497.5,547.6z M494.5,547.9l-1.8,0.3l1.2,0.6h-0.3l-3,0.9l3-0.3l3-1.5H494.5z M468.3,552.2
		l-4.9,0.6l-0.3,1.2h3l-2.4,1.2l1.5,0.3l-1.1,0.6l-2.7-0.9l1.8,0.9l-1.8,0.3h3.9v-0.9l1.2,0.3l-1.2,0.6h2.2h4.6l4.6-0.9l-6.4-1.2
		L468.3,552.2z M467.4,556.4l-4.3,0.6l1.2,0.6v-0.3l1.4-0.3l-0.2-0.1L467.4,556.4z M465.7,557.1l0.3,0.1l0.1-0.2L465.7,557.1z
		 M466,557.2l-0.2,0.4l2.1,0.3L466,557.2z M461.3,556.4v-0.6l-3,0.6H461.3z M451.2,553.1l1.8,0.6l2.4,0.6L451.2,553.1z M455.8,554.3
		l-1.8,0.6l1.2,0.6l1.2-0.6l-0.9,0.6l2.4-0.6L455.8,554.3z M462.8,554.3l-1.2,0.9l1.5,0.3L462.8,554.3z M459.4,555.2l-0.3,0.3
		l1.8,0.3L459.4,555.2z"/>
	<path id="path3206" class="st2" d="M311.7,63.7l-1.8,1.8l1.5-0.3l2.2-2.4L311.7,63.7z"/>
</g>
</svg>
