<?xml version="1.0" encoding="utf-8"?>
<!-- Generator: Adobe Illustrator 22.0.1, SVG Export Plug-In . SVG Version: 6.00 Build 0)  -->
<svg version="1.1" id="Шар_1" xmlns="http://www.w3.org/2000/svg" xmlns:xlink="http://www.w3.org/1999/xlink" x="0px" y="0px"
	 viewBox="0 0 640 480" style="enable-background:new 0 0 640 480;" xml:space="preserve">
<style type="text/css">
	.st0{fill:#00247C;}
	.st1{fill:#DD290F;}
	.st2{fill:#FEC600;}
</style>
<rect class="st0" width="640" height="480"/>
<g>
	<g>
		<path class="st1" d="M364.3,254.5l30.8,11.4L495,240l-99.9-25.9l-30.8,11.4c1.5,4.6,2.3,9.4,2.3,14.5S365.8,249.9,364.3,254.5z"/>
		<path class="st1" d="M275.7,225.5l-30.8-11.4L145,240l99.9,25.9l30.8-11.4c-1.5-4.6-2.3-9.4-2.3-14.5S274.2,230.1,275.7,225.5z"/>
		<path class="st1" d="M334.5,195.7l11.4-30.8L320,65l-25.9,99.9l11.4,30.8c4.6-1.5,9.4-2.3,14.5-2.3S329.9,194.2,334.5,195.7z"/>
		<path class="st1" d="M305.5,284.3l-11.4,30.8L320,415l25.9-99.9l-11.4-30.8c-4.6,1.5-9.4,2.3-14.5,2.3S310.1,285.8,305.5,284.3z"
			/>
		<path class="st1" d="M298.3,198.8l-14.6-31.7l-89-52.4l52.4,89l31.7,14.6C283.2,210,290,203.2,298.3,198.8z"/>
		<path class="st1" d="M361.2,261.7c-4.4,8.3-11.2,15.1-19.5,19.5l14.6,31.7l89,52.4l-52.4-89L361.2,261.7z"/>
		<path class="st1" d="M278.8,261.7l-31.7,14.6l-52.4,89l89-52.4l14.6-31.7C290,276.8,283.2,270,278.8,261.7z"/>
		<path class="st1" d="M361.2,218.3l31.7-14.6l52.4-89l-89,52.4l-14.6,31.7C350,203.2,356.8,210,361.2,218.3z"/>
	</g>
</g>
<circle class="st2" cx="320" cy="240" r="38.8"/>
</svg>
