<svg xmlns="http://www.w3.org/2000/svg" version="1.0" width="1500" height="1000"><defs><linearGradient gradientTransform="matrix(1.68 0 0 -1.68 899.213 789.76)" gradientUnits="userSpaceOnUse" id="e" y2="361.422" x2="-52.251" y1="457.03" x1="-52.251"><stop offset="0" style="stop-color:#fff;stop-opacity:1"/><stop offset="1" style="stop-color:#94caff;stop-opacity:1"/><midPointStop offset=".5" style="stop-color:#fff"/></linearGradient><linearGradient id="a"><stop offset="0" style="stop-color:#000;stop-opacity:0"/><stop offset=".493" style="stop-color:#000;stop-opacity:.02352941"/><stop offset=".571" style="stop-color:#000;stop-opacity:.03529412"/><stop offset=".636" style="stop-color:#000;stop-opacity:.06666667"/><stop offset=".696" style="stop-color:#000;stop-opacity:.14893617"/><stop offset=".73" style="stop-color:#000;stop-opacity:.21276596"/><stop offset="1" style="stop-color:#000;stop-opacity:.54609931"/></linearGradient><linearGradient id="l"><stop offset="0" style="stop-color:#000;stop-opacity:0"/><stop offset=".567" style="stop-color:#000;stop-opacity:.17647059"/><stop offset="1" style="stop-color:#000;stop-opacity:.31914893"/></linearGradient><linearGradient gradientTransform="matrix(1.68 0 0 1.68 599.333 -89.72)" gradientUnits="userSpaceOnUse" id="k" y2="183.368" x2="127.662" y1="63.215" x1="127.662"><stop offset="0" style="stop-color:#6a0000;stop-opacity:1"/><stop offset=".573" style="stop-color:#569b0f;stop-opacity:1"/><stop offset="1" style="stop-color:#4ce72c;stop-opacity:1"/><midPointStop style="stop-color:#006a00" offset=".5"/><midPointStop style="stop-color:#033" offset=".5"/></linearGradient><linearGradient id="i"><stop offset="0" style="stop-color:#676767;stop-opacity:1"/><stop offset="1" style="stop-color:#656565;stop-opacity:0"/></linearGradient><linearGradient id="b"><stop offset="0" style="stop-color:#b5b5b5;stop-opacity:1"/><stop offset="1" style="stop-color:#b5b5b5;stop-opacity:0"/></linearGradient><linearGradient gradientTransform="matrix(1.68 0 0 1.68 -86.7 -86.7)" gradientUnits="userSpaceOnUse" id="d" y2="158.071" x2="141.272" y1="70.428" x1="141.272"><stop offset="0" style="stop-color:#fff;stop-opacity:1"/><stop offset=".497" style="stop-color:#00a100;stop-opacity:1"/><stop offset=".994" style="stop-color:#000;stop-opacity:1"/><midPointStop style="stop-color:#fff" offset=".5"/></linearGradient><linearGradient id="m"><stop offset="0" style="stop-color:#000;stop-opacity:0"/><stop offset=".415" style="stop-color:#000;stop-opacity:.00392157"/><stop offset=".568" style="stop-color:#000;stop-opacity:.02745098"/><stop offset=".772" style="stop-color:#000;stop-opacity:.07843137"/><stop offset=".889" style="stop-color:#000;stop-opacity:.17647059"/><stop offset="1" style="stop-color:#000;stop-opacity:.31914893"/></linearGradient><linearGradient gradientTransform="matrix(1.68 0 0 -1.68 899.213 789.76)" gradientUnits="userSpaceOnUse" id="j" y2="361.422" x2="-52.251" y1="457.03" x1="-52.251"><stop offset="0" style="stop-color:#fff;stop-opacity:1"/><stop offset="1" style="stop-color:#94caff;stop-opacity:1"/><midPointStop offset=".5" style="stop-color:#fff"/></linearGradient><linearGradient gradientTransform="matrix(1.68 0 0 -1.68 899.21 789.763)" gradientUnits="userSpaceOnUse" id="h" y2="397.34" x2="12.991" y1="397.34" x1="-117.002"><stop offset="0" style="stop-color:#0053bd;stop-opacity:1"/><stop offset=".994" style="stop-color:#0032a4;stop-opacity:1"/><midPointStop offset=".5" style="stop-color:#0053bd"/></linearGradient><linearGradient gradientTransform="matrix(1.68 0 0 1.68 599.333 -89.72)" gradientUnits="userSpaceOnUse" id="f" y2="183.368" x2="127.662" y1="63.215" x1="127.662"><stop offset="0" style="stop-color:#006a00;stop-opacity:1"/><stop offset=".2" style="stop-color:#009800;stop-opacity:1"/><stop offset="1" style="stop-color:#00d000;stop-opacity:1"/><midPointStop offset=".5" style="stop-color:#006a00"/><midPointStop offset=".5" style="stop-color:#033"/></linearGradient><linearGradient gradientTransform="matrix(1.68 0 0 1.68 -86.7 -86.7)" gradientUnits="userSpaceOnUse" id="c" y2="158.071" x2="141.272" y1="70.428" x1="141.272"><stop offset="0" style="stop-color:#fff;stop-opacity:1"/><stop offset="1" style="stop-color:#00a200;stop-opacity:1"/><midPointStop offset=".5" style="stop-color:#fff"/></linearGradient><linearGradient gradientUnits="userSpaceOnUse" id="n" y2="51.987" x2="22.014" y1="-13.239" x1="52.778"><stop offset="0" style="stop-color:#ffe1b8;stop-opacity:1"/><stop offset="1" style="stop-color:#ff8b00;stop-opacity:1"/></linearGradient><radialGradient gradientTransform="matrix(1.68 0 0 -1.68 899.213 789.76)" gradientUnits="userSpaceOnUse" id="g" fy="439.632" fx="-57.022" r="97.988" cy="439.632" cx="-57.022"><stop offset="0" style="stop-color:#fff;stop-opacity:1"/><stop offset=".595" style="stop-color:#57adff;stop-opacity:1"/><stop offset=".994" style="stop-color:#c9e6ff;stop-opacity:1"/><midPointStop offset=".5" style="stop-color:#fff"/><midPointStop offset=".5" style="stop-color:#57adff"/></radialGradient></defs><path style="fill:#da121a;fill-opacity:1" d="M0 0h1500v1000H0z"/><path d="M750 250c-138 0-250 112-250 250s112 250 250 250 250-112 250-250-112-250-250-250zm-3.003 16.68c1.003-.012 1.997 0 3.003 0 128.8 0 233.343 104.52 233.343 233.32S878.8 733.343 750 733.343C621.2 733.343 516.68 628.8 516.68 500c0-127.794 102.904-231.704 230.317-233.32z" style="fill:#fcdd09;fill-opacity:1"/><path style="fill:#fcdd09;fill-opacity:1;fill-rule:nonzero;stroke:#fcdd09;stroke-width:1;stroke-linejoin:round;stroke-miterlimit:4;stroke-dasharray:none;stroke-opacity:1;stroke-linecap:round" d="m697.813 300-9.96 6.78-5.19.376-.794 2.01-3.181-.42-2.804 1.59-2.762 3.977v.837l.376 2.762-7.95 5.566.794 3.599-2.93-2.762.838 2.762-2.846 2.678-.795-1.046-.879 2.93 3.013 3.39-1.59 13.559 2.804 1.213-.795 1.59-3.6 5.985-4.77 1.967v3.976l-3.18.795.794 3.222-6.36 2.386-.42.376.42 2.01.376 1.17-.377.42-2.804 3.599 1.172 1.171-3.557 2.804v7.575l3.976 1.967 1.213-2.385.795-.796 1.172 2.01-1.967 4.77-7.198 6.361 2.804 7.994-1.59 2.385 6.78 3.557 6.36 8.37 5.19 10.379 3.557 7.575 9.165 12.345-.795 3.181 3.18 4.394 4.813 4.353 22.306 9.96 7.157 6.78 1.59 9.96.795 8.788-2.385 13.141 1.59 11.55-3.976 22.306 2.009 5.985-.419.795-1.59 3.557 2.386 18.33-5.19 21.511-2.385 1.59 3.975 12.388-1.966 9.542 2.385 2.804-.795 1.172 3.18-1.967 2.01.795 1.171-1.214-2.385 3.18 2.803 1.214-.418 1.967-1.967-1.171 1.967 1.966-1.59-.795-.377 5.608 1.967 1.967-1.967 2.009 3.557 2.009-3.557 3.975 3.18 1.172-3.18.419v1.967l1.967-1.172-1.172 5.19-1.59-2.01-2.427.377 2.008-.377h-1.59l.795-2.008-1.213 1.59-1.59-1.172-1.591.377 2.804.795-1.214 2.009-2.092 1.8 2.092-1.382.795 1.967 2.386-.376 1.632 2.385-2.009 1.59h2.386l-3.18 1.172 3.975-.795 2.804 2.009-2.009-.419 1.59 2.009-5.566-1.214 3.6 2.01-2.01 1.213 1.59.795-.794 3.557 1.213-1.172 2.386 2.762-2.804-.376 1.213 2.009 1.172 1.59-3.18-.419 2.804.796.376 2.803 1.214-2.803 1.172 1.59-2.386 1.213-.795.377 2.386.795-.377 2.804 2.385 2.009-.418-2.009 1.214 2.009-1.214-2.804 3.222 1.172-3.599-1.59 1.59-1.59-.418 2.008 2.804 1.172-.795 3.599v-2.386l-.377 2.01-.418-1.591H714.135l.795 3.976 2.804-1.59h5.19l1.17 2.761-1.966 2.386.377-1.59-2.386.795 4.771 2.385.419-6.361 5.984-2.762 3.557.377-2.762-3.6h-2.385l2.385-.376-2.385-2.386 3.557-5.189-.795-.795-.795-1.59 1.213 1.59.377.377 1.59-.377v-.419l.796-5.147 7.198-6.403-.419-3.976-4.352-.795-4.018-5.19 2.386-4.77 6.403-1.967.376-7.198 4.394-3.976-3.18-2.009 2.762-.795 1.214 2.009 2.385-1.59-.795-2.804-3.18 2.008-2.805-2.008-.376-7.952 5.984 2.386 6.738-1.59v-9.584l1.632.795-1.632-3.557 5.985 1.171 5.189-1.171 7.575-1.59 4.77-2.386 4.395-7.198v-3.18l-3.18-2.386 1.171-3.976-7.156-5.608 1.172-7.951-.377 5.189 3.18 3.18 8.37 3.181 10.337-1.172 8.789-9.583 2.385-7.575 7.157-8.37-1.172-2.385 3.557 3.18-8.747 9.96 7.157-5.942 4.394-6.78 2.804-3.976 5.566-4.394 2.385-8.788-1.59-5.148 3.18-4.394-1.966-1.214 2.762.795 3.976-4.77 7.198-4.395h5.189l6.361-4.77 4.394 1.213 2.763-2.009v2.01l5.984.376.419-2.762 5.942-2.386-.376-3.222 7.156-9.165 1.213-1.967 1.59-7.575 3.558-3.6 4.813-29.88.795-1.59 1.172 2.804 2.385-1.59 12.388-14.732 7.156-9.165 1.172-7.198-1.967-10.337-2.009-2.804-8.37-1.967-7.575-8.788-8.746-6.361-13.141-1.59-6.78-3.976-8.746 5.147.795-3.975 2.385-1.59-3.976.418 3.181-2.428-2.009-3.975-2.762 2.385-.418-3.18-1.214 1.213.795-1.213-1.967.418-1.59-2.385-.795 1.59-.419-2.385-.795 1.171-5.984-3.599-.377 1.214-3.976-1.214-2.804 4.394 2.386.796-1.967.795-1.632-1.967-5.148 5.566 1.59-3.976-7.198.795 9.584-2.009 3.18-6.78-12.345-1.966-2.804 5.147v-2.762l-2.762 2.386v-2.804l-2.804 2.804 2.385-5.19 8.789-7.156h-1.214l1.214-2.804-5.19-2.762-3.599-12.388-1.59-1.171-.377 2.008-.083-.125-3.934-5.064-10.17-5.106-1.757-.878-18.33-.419-7.576-5.943-2.008 2.763 1.213-5.148-3.599-3.6-5.566-3.18-1.59-.418h-3.976v-4.394l-4.77-2.762-4.395.795-.795-1.214-2.385-1.967 6.36-2.009-14.73.419 3.557 1.172-8.747 2.385-7.156-3.18-11.55 1.59-1.59-3.976-7.199-.795-2.385-3.976-1.214 3.18 2.427-.418v1.214l-2.009-.419-8.746 4.395 1.967 4.394 1.213 1.172-.418 2.427-3.976 1.59-2.385-4.017.795-.796 2.804-3.975-2.428-4.771 5.608-2.804-3.599-1.967zm19.92 384.85-1.171 2.386 1.59.418-.418-2.804zm-16.446-30.885-.293.21.042.041.25-.25zm-.251.251-.419.335 1.59.837-1.171-1.172zM833.28 368.131l-4.394.377 2.385 2.009 2.009-2.386zm-251.81 15.527-1.172 1.213 2.762 3.18-2.385 2.01h2.385l1.632-1.632-3.222-4.771zm65.37 6.78-.796.418h-1.213l.795 1.59.418-1.214.795-.795zm60.137 230.257 1.59 1.213-1.59.795v-2.008zm-4.77 5.19v8.788l1.966.376 2.01-1.59-1.591-7.575h-2.385zm7.156 14.354-1.59 1.59 2.008 1.172-.418-2.762zm-4.771 11.132 1.59.418-.795 1.59-.795-2.008zm1.59 10.378-.795 2.762h2.386l-1.59-2.762zm.419 3.18.376 3.6h-2.804l2.428 3.18 1.172-3.599-.377 3.976 1.967-1.172-2.762-5.984zm-1.214 7.576.795 1.967.795-1.967h-1.59zm27.872 11.55-5.943 1.59.377 3.181h3.976l-1.967 3.18 4.352 2.01-1.172 1.171-.795-1.59-.795 1.214-4.77-2.01 3.18 2.01-2.01.376-.376-1.59-4.017 2.009 19.125.795 5.608-2.009-10.379-3.976-4.394-6.36zm-14.313 1.59-.795 2.804 1.967 1.172-.795-1.172 3.6-2.803h-3.977zm-7.574.796 2.762 2.008 4.017.796-6.78-2.804zm6.78 2.804-2.01 1.967 2.386 1.59 1.59-1.172-1.172 1.172 2.763-1.59-3.558-1.967zm9.54.376-1.17 2.386 2.761 1.213-1.59-3.599zm-3.975 2.386.377 1.213 2.427.377-2.804-1.59zm12.346 4.394-5.566 1.214 2.762 1.967-.795-1.59h2.385v1.213l3.223.795-4.018-2.804 2.009-.795z"/></svg>