<?xml version="1.0" encoding="UTF-8" standalone="no"?>
<svg
   xmlns:dc="http://purl.org/dc/elements/1.1/"
   xmlns:cc="http://creativecommons.org/ns#"
   xmlns:rdf="http://www.w3.org/1999/02/22-rdf-syntax-ns#"
   xmlns:svg="http://www.w3.org/2000/svg"
   xmlns="http://www.w3.org/2000/svg"
   xmlns:sodipodi="http://sodipodi.sourceforge.net/DTD/sodipodi-0.dtd"
   xmlns:inkscape="http://www.inkscape.org/namespaces/inkscape"
   version="1.1"
   width="180"
   height="260"
   id="svg3757"
   viewBox="0 0 180 260"
   sodipodi:docname="fc_aek_larnaca.svg"
   inkscape:version="0.92.4 (5da689c313, 2019-01-14)">
  <metadata
     id="metadata3763">
    <rdf:RDF>
      <cc:Work
         rdf:about="">
        <dc:format>image/svg+xml</dc:format>
        <dc:type
           rdf:resource="http://purl.org/dc/dcmitype/StillImage" />
        <dc:title></dc:title>
      </cc:Work>
    </rdf:RDF>
  </metadata>
  <defs
     id="defs3761" />
  <sodipodi:namedview
     pagecolor="#ffffff"
     bordercolor="#666666"
     borderopacity="1"
     objecttolerance="10"
     gridtolerance="10"
     guidetolerance="10"
     inkscape:pageopacity="0"
     inkscape:pageshadow="2"
     inkscape:window-width="1366"
     inkscape:window-height="706"
     id="namedview3759"
     showgrid="false"
     inkscape:zoom="0.63785072"
     inkscape:cx="297.63779"
     inkscape:cy="420.94489"
     inkscape:window-x="-8"
     inkscape:window-y="-8"
     inkscape:window-maximized="1"
     inkscape:current-layer="svg3757" />
  <path
     d="m 2.0618,14.168129 c 0,0 39.0087,-9.9893 85.9921,-10.4638 52.0169,-0.5256 92.0599,10.4638 92.0599,10.4638 l 0.1511,160.037001 -89.0595,77.762 -89.1436,-78.41 z"
     style="fill:#08762a;fill-rule:evenodd"
     id="path3713"
     inkscape:connector-curvature="0" />
  <path
     d="m 64.6732,9.221629 c 0,0 67.5167,-3.1532 110.3397,8.6689 V 171.57993 l -84.0682,74.0872 -26.7971,-23.12 z"
     style="fill:#ffec00;fill-rule:evenodd"
     id="path3715"
     inkscape:connector-curvature="0" />
  <path
     d="M 27.6311,48.10933 33.9357,37.863229 39.7152,48.10933 Z M 33.9357,16.321329 3.724,69.388729 h 12.085 l 6.3045,-10.7714 h 23.6446 l 6.3057,10.2458 h 12.3466 z"
     style="fill:#ffec00;fill-rule:evenodd"
     id="path3717"
     inkscape:connector-curvature="0" />
  <path
     d="m 49.6986,86.990129 c 0,0 -19.7031,-12.8729 -32.3136,9.983701 l 28.3731,-3e-4 v 10.5074 H 16.8606 c 0,0 6.3046,15.5013 19.1778,14.7121 12.8722,-0.7869 17.3379,-7.882 17.3379,-7.882 l 6.5684,6.569 c 0,0 -6.0432,10.77 -24.1699,11.033 -18.127,0.2639 -29.3077,-17.2618 -29.1603,-28.3719 0.1641,-12.374101 6.0412,-28.634801 29.1603,-30.211101 0,0 9.7206,-1.8397 19.9658,7.3556 z"
     style="fill:#ffec00;fill-rule:evenodd"
     id="path3719"
     inkscape:connector-curvature="0" />
  <path
     d="m 13.4446,137.16903 h 9.7206 v 23.3822 l 26.7959,-22.3302 7.882,7.092 -23.6446,20.23 28.3731,23.3821 -7.0929,8.6689 -32.3135,-26.0101 v 12.3491 l -9.9834,-7.8808 z"
     style="fill:#ffec00;fill-rule:evenodd"
     id="path3721"
     inkscape:connector-curvature="0" />
  <path
     d="m 75.4445,35.499929 c 0,0 47.0254,-36.7812 86.6954,11.8225 0,0 24.9568,31.5252 -9.7211,85.905601 0,0 -4.9921,1.838 -2.1019,-6.3039 0,0 13.9238,-22.0689 14.7109,-34.678 0,0 8.409,-27.323101 -17.863,-53.593801 0,0 -26.271,-19.1786 -58.3217,-3.9412 0,-3e-4 12.0835,8.4081 16.2867,21.0186 0,0 1.5761,4.9912 -0.7869,6.0417 -3.7973,1.6875 -5.2543,-6.5681 -5.2543,-6.5681 3e-4,0 -7.6195,-14.9757 -20.4917,-18.9162 z"
     style="fill:#08762a;fill-rule:evenodd"
     id="path3723"
     inkscape:connector-curvature="0" />
  <path
     d="m 109.8577,63.347529 c 0,0 -1.3119,-4.464599 6.0452,-5.515399 7.3539,-1.051901 22.0668,-2.365201 33.0998,8.668099 11.035,11.0338 10.5191,22.5683 10.2481,26.535101 -0.5269,7.6181 -8.145,23.6438 -11.8241,29.9478 -3.678,6.3051 -7.617,16.8139 -7.094,24.6951 0.5253,7.8829 7.094,12.6108 7.094,12.6108 3e-4,0 -1.5509,-12.1978 -1.313,-15.7641 0.2642,-3.9398 5.2231,-5.3047 4.9921,0.2642 -0.2628,6.3048 1.5769,19.1781 8.668,29.687 0,0 -16.812,-9.4581 -21.8041,-17.8659 -4.2947,-7.2312 0,-23.906 0,-23.906 0,0 6.8321,-14.7132 12.6091,-25.7463 2.785,-5.3163 4.7679,-12.8758 3.6799,-23.117901 -1.315,-12.3477 -20.2308,-21.8049 -24.434,-22.0686 -4.203,-0.2625 -10.5058,-1.576 -15.236,0 -4.731,1.5761 -4.731,1.5764 -4.731,1.5761 z"
     style="fill:#08762a;fill-rule:evenodd"
     id="path3725"
     inkscape:connector-curvature="0" />
  <path
     d="m 137.3489,109.10213 c -8.145,5.5151 -9.8892,1.271 -9.8892,1.271 0,0 0.2642,-3.6791 4.9921,-3.1521 4.7291,0.525 7.9569,-5.9417 7.9569,-5.9417 l 2.817,-7.4571 c 0,0 2.2672,9.7617 -5.8768,15.2799 z m -23.286,-24.736801 c 0,0 -4.7282,0.788 -3.941,-3.4161 0.7889,-4.2032 -0.523,-3.6776 -0.523,-3.6776 0,0 -11.2992,5.7792 -14.1885,8.9316 -2.8897,3.153 -4.4657,2.3653 -4.4657,2.3653 0,-3e-4 7.8216,-9.8955 15.2382,-13.1358 5.832,-2.548 8.9308,-2.8908 12.609,1.5761 0,0 2.6269,5.2548 -4.729,7.3565 z m 34.5078,-0.7697 c -1.4329,-5.3846 -11.1268,-13.4169 -11.1268,-13.4169 0,0 -6.0072,-4.7616 -13.6602,-5.5176 -11.4298,-1.1279 -21.2808,5.5176 -21.2808,5.5176 l -11.2966,10.5078 C 82.2746,93.29693 72.5549,96.18773 72.5549,96.18773 c 0,-3e-4 -3.6785,1.3125 -2.1025,2.6257 1.5761,1.3136 7.8818,-0.2627 7.8818,-0.2627 4.2043,4.9921 -3.1533,25.2204 -3.1533,25.2204 12.3477,-10.5069 8.6701,-24.6949 8.6701,-24.6949 l 8.9314,-0.2628 c -1.0506,3.4149 2.3652,5.5177 2.3652,5.5177 3e-4,0 2.8902,-3.1524 3.1521,-1.5764 0.2636,1.5764 3.6777,2.8894 3.6777,2.8894 2.3655,-3.153 8.4084,-2.8894 8.4084,-2.8894 0,0 3.414,0 -1.0511,5.2543 -4.4668,5.2552 1.0511,7.3559 1.0511,7.3559 l 20.4899,19.7031 -0.2619,-16.0248 c 4.7311,0.2608 4.356,1.1097 7.5841,-1.1021 3.496,-2.3899 6.8029,-4.589 10.5429,-14.7915 3.8132,-10.3958 1.717,-12.469901 -0.1701,-19.554001 z"
     style="fill:#08762a;fill-rule:evenodd"
     id="path3727"
     inkscape:connector-curvature="0" />
  <path
     d="m 82.0121,140.05903 c 1.8389,-11.297 -3.6779,-11.295 -3.6779,-11.295 3e-4,0 -6.5682,0.7881 1.0508,10.245 z"
     style="fill:#08762a;fill-rule:evenodd"
     id="path3729"
     inkscape:connector-curvature="0" />
  <path
     d="m 116.0378,157.70923 -2.2518,-16.0101 -6.0452,-5.5199 -1.3589,-9.8062 -2.918,-4.86 c -0.639,-1.0638 -0.2931,-2.4488 0.769,-3.0849 v 0 c 1.067,-0.6421 2.45,-0.2951 3.0878,0.7698 v 0 l 3.3911,5.6441 1.2659,9.11 6.0412,5.5171 2.4778,17.6159 c 0.1701,1.2299 -0.6888,2.3672 -1.9159,2.5432 v -3e-4 c -0.1049,0.0151 -0.209,0.0221 -0.3121,0.0221 h 2e-4 c -1.106,-0.002 -2.0732,-0.8129 -2.2311,-1.9408 z"
     style="fill:#08762a;fill-rule:evenodd"
     id="path3731"
     inkscape:connector-curvature="0" />
  <path
     d="m 74.3577,159.72203 c -1.2265,-0.968 -2.0097,-2.355 -2.0557,-4.149 v 0 c -0.0272,-1.2249 0.5508,-2.6538 1.7011,-3.5799 v 0 c 0.1573,-0.053 0.9649,-1.362 1.3947,-2.5109 v 0 c 0.4785,-1.1622 0.7784,-2.1751 0.7784,-2.177 v 0 c 0.3515,-1.1943 1.6004,-1.874 2.7938,-1.5231 v 0 c 1.1914,0.3521 1.8731,1.5999 1.5225,2.7918 v 0 c -0.0156,0.0471 -0.3575,1.2192 -0.9298,2.6161 v 0 c -0.623,1.4171 -1.2586,2.9971 -2.6787,4.2591 h 3e-4 c -0.0967,0.11 -0.057,0.042 -0.0851,0.1239 v 0 c -0.0451,0.1091 0.2313,0.551 0.2577,0.551 v 0 c 0.9932,0.7441 1.1954,2.1552 0.4501,3.149 v 0 c -0.4413,0.5891 -1.118,0.9 -1.8008,0.9 v 0 c -0.4706,0 -0.9442,-0.1468 -1.3485,-0.451 z"
     style="fill:#08762a;fill-rule:evenodd"
     id="path3733"
     inkscape:connector-curvature="0" />
  <path
     d="m 82.6488,170.13403 c -1.7569,-2.107 -2.3017,-4.6639 -2.2961,-6.99 v 0 c 0.002,-2.349 0.5236,-4.572 1.084,-6.408 v 0 c 0.4416,-1.421 0.7053,-3.416 0.8271,-4.998 v 0 c 0.1242,-1.5908 0.1242,-2.7448 0.1242,-2.7479 v 0 c 0,-1.2422 1.0077,-2.247 2.2499,-2.247 h 2e-4 c 1.2422,0 2.2508,1.0048 2.2508,2.247 v 0 c -0.0185,0.1088 0.0371,5.123 -1.1503,9.0708 v 0 c -0.4913,1.5781 -0.8907,3.4212 -0.8876,5.0831 v 0 c 0.0029,1.6781 0.3759,3.0612 1.2538,4.11 v 0 c 0.794,0.955 0.6661,2.3731 -0.288,3.168 v 0 c -0.4201,0.3501 -0.9318,0.5201 -1.4397,0.5201 v 0 c -0.6455,0 -1.285,-0.2741 -1.7283,-0.8081 z"
     style="fill:#08762a;fill-rule:evenodd"
     id="path3735"
     inkscape:connector-curvature="0" />
  <path
     d="m 90.5393,168.83403 c -0.0459,-0.057 -0.6239,-0.7359 -1.2362,-1.7348 v -3e-4 c -0.593,-1.0207 -1.3232,-2.2807 -1.3663,-4.0317 v -3e-4 c -0.002,-0.6378 0.1366,-1.3759 0.5273,-2.0559 v 0 c 0.252,-0.381 0.7032,-1.9718 0.9238,-3.2698 l 3e-4,-3e-4 c 0.246,-1.3249 0.3699,-2.4287 0.3699,-2.4307 v -3e-4 c 0.1358,-1.2367 1.2509,-2.1268 2.4834,-1.9868 v 0 c 1.2362,0.1361 2.1268,1.2481 1.9902,2.4849 v 0 c -0.0068,0.0351 -0.1397,1.256 -0.4209,2.7541 v 0 c -0.296,1.491 -0.6239,3.1371 -1.3819,4.5729 h 3e-4 c 0.0184,0.3951 0.818,1.9391 1.3056,2.482 v 0 c 0.161,0.2191 0.239,0.3101 0.2421,0.3132 v -3e-4 c 0.7996,0.9471 0.6817,2.3652 -0.2668,3.1672 v 0 c -0.4237,0.358 -0.9394,0.5329 -1.4541,0.5329 h 3e-4 c -0.6378,0 -1.2725,-0.2699 -1.717,-0.796 z"
     style="fill:#08762a;fill-rule:evenodd"
     id="path3737"
     inkscape:connector-curvature="0" />
  <path
     d="m 99.7488,169.70003 c -1.8201,-0.8581 -2.6405,-2.431 -3.1674,-3.8738 v 0 c -0.5145,-1.4811 -0.7149,-3.0161 -0.7178,-4.3813 v 0 c 0.0029,-0.824 0.0664,-1.5618 0.2696,-2.2918 v 0 c 0.04,-0.003 0.1687,-1.5729 0.1482,-3.1391 v 0 c 0,-3.253 -0.2273,-7.4179 -0.2273,-7.4239 v 0 c -0.0694,-1.2421 0.8822,-2.3012 2.1206,-2.3709 v -3e-4 c 1.2422,-0.0708 2.3006,0.8822 2.3709,2.1243 v -3e-4 c 0,0.0202 0.2364,4.2302 0.2364,7.6711 v 0 c -0.0195,1.785 -0.008,3.1332 -0.3203,4.3651 v 0 c -0.0332,0.1069 -0.1035,0.5491 -0.0978,1.0658 v 0 c -0.006,0.8782 0.1582,2.0353 0.4629,2.8911 h 3e-4 c 0.2948,0.8929 0.7206,1.2631 0.7517,1.254 v 0 c 1.137,0.5021 1.645,1.8341 1.141,2.9682 v -3e-4 c -0.3731,0.8371 -1.1957,1.3363 -2.0588,1.3363 v 0 c -0.3067,0 -0.6154,-0.0621 -0.9122,-0.1942 z"
     style="fill:#08762a;fill-rule:evenodd"
     id="path3739"
     inkscape:connector-curvature="0" />
  <path
     d="m 110.1259,164.74623 c -0.061,-0.0502 -0.9961,-0.7121 -2.0081,-1.734 v -3e-4 c -0.9609,-1.0638 -2.2501,-2.3238 -2.361,-4.6088 v 0 c 0,-0.1641 0.01,-0.3339 0.0269,-0.4791 v 0 c 0.002,-0.007 0.008,-0.0759 0.008,-0.182 h 3e-4 c 0.0158,-0.9561 -0.4303,-3.8009 -0.8912,-6.1619 v 0 c -0.459,-2.399 -0.9159,-4.462 -0.9159,-4.4651 v 0 c -0.269,-1.2158 0.498,-2.414 1.707,-2.683 v 0 c 1.2149,-0.2699 2.418,0.494 2.6878,1.7081 v 0 c 0.002,0.114 1.8732,8.2321 1.912,11.6019 h 3e-4 c 0,0.2101 -0.008,0.415 -0.0312,0.6512 v 0 c 0.008,0.034 0.0329,0.1029 0.076,0.1919 v 0 c 0.0921,0.1839 0.267,0.451 0.4921,0.7239 v 0 c 0.447,0.5471 1.08,1.1132 1.4918,1.4471 v 0 c 0.2761,0.222 0.4201,0.328 0.4241,0.328 v 0 c 1.01,0.7208 1.2421,2.1271 0.5221,3.1411 v 0 c -0.4402,0.612 -1.131,0.9399 -1.834,0.9399 v 0 c -0.4541,0 -0.911,-0.138 -1.307,-0.4189 z"
     style="fill:#08762a;fill-rule:evenodd"
     id="path3741"
     inkscape:connector-curvature="0" />
  <path
     d="m 123.9779,143.14823 c -0.104,-0.1171 -2.6121,-1.9432 -4.047,-4.7092 v 0 c -1.0451,-2.0929 -2.088,-4.428 -2.5841,-5.4329 v 0 c -0.002,-0.003 -0.004,-0.004 -0.006,-0.008 v 0 c -0.053,-0.0569 -0.1582,-0.1621 -0.2931,-0.2761 v 0 c -0.2721,-0.2409 -0.6619,-0.5309 -1.0491,-0.7971 h 3e-4 c -0.7713,-0.5329 -1.4902,-0.955 -1.4942,-0.9578 v 0 0.003 c -1.072,-0.627 -1.436,-2.0038 -0.811,-3.0758 v 0 c 0.6271,-1.0761 2.0041,-1.4389 3.0779,-0.8141 h 3e-4 c 0.0297,0.0201 0.8538,0.5 1.7898,1.1471 v 0 c 0.9569,0.7359 1.9309,1.243 2.7669,2.6811 h 2e-4 c 0.5718,1.152 1.6019,3.469 2.6269,5.5179 v 0 c 0.502,1.0519 1.8709,2.4159 2.488,2.9231 v 0 c 0.201,0.1749 0.2951,0.2488 0.2951,0.2488 v 0 c 0.983,0.764 1.1579,2.1751 0.3968,3.1581 v 0 c -0.4439,0.5681 -1.1078,0.8649 -1.7799,0.8649 v 0 c -0.4818,0 -0.968,-0.1528 -1.3779,-0.4728 z"
     style="fill:#08762a;fill-rule:evenodd"
     id="path3743"
     inkscape:connector-curvature="0" />
  <path
     d="m 80.6614,201.71703 c 0,-0.104 0,-0.282 0,-0.5349 0,-0.2539 -0.004,-0.5391 -0.0099,-0.858 -0.0068,-0.3189 -0.0096,-0.6579 -0.0096,-1.0151 0,-0.358 -0.0029,-0.699 -0.0097,-1.0239 -0.0068,-0.3251 -0.0156,-0.6131 -0.0295,-0.8671 -0.0136,-0.2548 -0.0263,-0.432 -0.0388,-0.536 -0.1945,0.0261 -0.4221,0.0612 -0.6829,0.106 -0.2596,0.0462 -0.5292,0.0921 -0.8095,0.1372 -0.2792,0.0468 -0.5556,0.091 -0.828,0.1378 -0.2736,0.0442 -0.5137,0.087 -0.7217,0.1261 l -0.0975,-0.3129 c 0.1825,-0.0392 0.4782,-0.1242 0.8875,-0.2532 0.4093,-0.1298 0.8603,-0.2749 1.3555,-0.4391 0.4932,-0.161 0.9842,-0.3308 1.4715,-0.5068 0.4875,-0.176 0.9005,-0.3339 1.2384,-0.4779 -0.0263,0.195 -0.0516,0.5128 -0.0782,0.955 -0.0252,0.4427 -0.0516,0.9598 -0.0771,1.55 -0.0272,0.5918 -0.0468,1.2268 -0.0584,1.902 -0.0139,0.6758 -0.0207,1.3459 -0.0207,2.0089 l 3e-4,0.8379 c 0,0.6381 0.0037,1.3102 0.0105,2.0192 0.0059,0.7089 0.0116,1.368 0.0187,1.978 0.0068,0.612 0.0164,1.1358 0.0292,1.5698 0.0136,0.436 0.0263,0.7061 0.0391,0.809 0.1043,0.0142 0.286,0.0371 0.5457,0.07 0.261,0.0321 0.5371,0.061 0.8291,0.087 0.2931,0.027 0.5695,0.0522 0.8291,0.078 0.26,0.0249 0.4414,0.0462 0.5449,0.0581 l 0.0989,0.313 c -0.1298,-0.0139 -0.3702,-0.0241 -0.7217,-0.0301 -0.3515,-0.007 -0.7217,-0.013 -1.1115,-0.0198 -0.3906,-0.006 -0.7577,-0.0122 -1.1015,-0.019 -0.3456,-0.007 -0.5763,-0.0102 -0.6925,-0.0102 -0.1687,0 -0.449,0.003 -0.8388,0.0102 -0.3906,0.007 -0.7999,0.013 -1.2285,0.019 -0.4286,0.007 -0.828,0.013 -1.1991,0.0198 -0.371,0.006 -0.6211,0.0162 -0.7512,0.0301 l 0.0783,-0.313 c 0.0782,0 0.2596,-0.015 0.5459,-0.0479 0.286,-0.032 0.5947,-0.0652 0.9267,-0.0981 0.331,-0.032 0.6494,-0.0609 0.9552,-0.0881 0.3056,-0.025 0.5106,-0.0448 0.6143,-0.059 0.0252,-0.2069 0.0417,-0.5488 0.0488,-1.023 0.0056,-0.4748 0.0156,-0.9978 0.0292,-1.5698 0.0127,-0.5721 0.0195,-1.1642 0.0195,-1.7743 0,-0.6108 0,-1.1559 0,-1.6389 z"
     style="fill:#08762a;fill-rule:evenodd"
     id="path3745"
     inkscape:connector-curvature="0" />
  <path
     d="m 80.6614,201.71703 c 0,-0.104 0,-0.282 0,-0.5349 0,-0.2539 -0.0099,-0.5391 -0.0099,-0.858 0,-0.3189 -0.0096,-0.6579 -0.0096,-1.0151 0,-0.358 -0.0097,-0.699 -0.0097,-1.0239 0,-0.3251 -0.0295,-0.6131 -0.0295,-0.8671 0,-0.2548 -0.0388,-0.432 -0.0388,-0.536 -0.1945,0.0261 -0.4221,0.0612 -0.6829,0.106 -0.2596,0.0462 -0.5292,0.0921 -0.8095,0.1372 -0.2792,0.0468 -0.5556,0.091 -0.828,0.1378 -0.2736,0.0442 -0.5137,0.087 -0.7217,0.1261 l -0.0975,-0.3129 c 0.1825,-0.0392 0.4782,-0.1242 0.8875,-0.2532 0.4093,-0.1298 0.8603,-0.2749 1.3555,-0.4391 0.4932,-0.161 0.9842,-0.3308 1.4715,-0.5068 0.4875,-0.176 0.9005,-0.3339 1.2384,-0.4779 -0.0263,0.195 -0.0516,0.5128 -0.0782,0.955 -0.0252,0.4427 -0.0516,0.9598 -0.0771,1.55 -0.0272,0.5918 -0.0584,1.2268 -0.0584,1.902 0,0.6758 -0.0207,1.3459 -0.0207,2.0089 l 3e-4,0.8379 c 0,0.6381 0.0105,1.3102 0.0105,2.0192 0,0.7089 0.0187,1.368 0.0187,1.978 0,0.612 0.0292,1.1358 0.0292,1.5698 0,0.436 0.0391,0.7061 0.0391,0.809 0.1043,0.0142 0.286,0.0371 0.5457,0.07 0.261,0.0321 0.5371,0.061 0.8291,0.087 0.2931,0.027 0.5695,0.0522 0.8291,0.078 0.26,0.0249 0.4414,0.0462 0.5449,0.0581 l 0.0989,0.313 c -0.1298,-0.0139 -0.3702,-0.0241 -0.7217,-0.0301 -0.3515,-0.007 -0.7217,-0.013 -1.1115,-0.0198 -0.3906,-0.006 -0.7577,-0.0122 -1.1015,-0.019 -0.3456,-0.007 -0.5763,-0.0102 -0.6925,-0.0102 -0.1687,0 -0.449,0.003 -0.8388,0.0102 -0.3906,0.007 -0.7999,0.013 -1.2285,0.019 -0.4286,0.007 -0.828,0.013 -1.1991,0.0198 -0.371,0.006 -0.6211,0.0162 -0.7512,0.0301 l 0.0783,-0.313 c 0.0782,0 0.2596,-0.015 0.5459,-0.0479 0.286,-0.032 0.5947,-0.0652 0.9267,-0.0981 0.331,-0.032 0.6494,-0.0609 0.9552,-0.0881 0.3056,-0.025 0.5106,-0.0448 0.6143,-0.059 0.0252,-0.2069 0.0488,-0.5488 0.0488,-1.023 0,-0.4748 0.0292,-0.9978 0.0292,-1.5698 0,-0.5721 0.0195,-1.1642 0.0195,-1.7743 0,-0.6108 0,-1.1559 0,-1.6389 z"
     style="fill:none;stroke:#08762a;stroke-width:0.74980003;stroke-linecap:butt;stroke-linejoin:miter;stroke-dasharray:none"
     id="path3747"
     inkscape:connector-curvature="0" />
  <path
     d="m 89.4369,210.37603 c 0.5068,-0.4819 1.0457,-1.0579 1.618,-1.726 0.5715,-0.6709 1.1016,-1.415 1.5888,-2.232 0.4885,-0.8201 0.8907,-1.703 1.209,-2.6518 0.3186,-0.9502 0.4777,-1.9392 0.4777,-2.9642 0,-0.7679 -0.0851,-1.4349 -0.254,-1.999 -0.1698,-0.5669 -0.3946,-1.036 -0.6747,-1.4139 -0.2803,-0.3781 -0.6094,-0.6571 -0.9884,-0.8379 -0.3787,-0.1843 -0.7832,-0.2741 -1.2127,-0.2741 -0.3654,0 -0.7052,0.066 -1.0176,0.195 -0.3135,0.1301 -0.5879,0.328 -0.8223,0.5938 -0.2345,0.2671 -0.417,0.5953 -0.5468,0.9851 -0.131,0.3892 -0.1965,0.8402 -0.1965,1.345 0,0.6251 0.0947,1.177 0.2843,1.658 0.1894,0.4811 0.451,0.8822 0.7841,1.2002 0.3331,0.3169 0.7345,0.5547 1.205,0.7109 0.4708,0.1571 0.9873,0.2208 1.5489,0.1951 l -0.2733,0.39 c -0.5068,0.1298 -1.0559,0.1698 -1.6475,0.1168 -0.5919,-0.0519 -1.1378,-0.214 -1.6387,-0.4859 -0.5,-0.2749 -0.9162,-0.667 -1.2481,-1.1812 -0.3311,-0.5128 -0.4972,-1.1599 -0.4972,-1.9389 0,-0.5218 0.1046,-1.0459 0.3127,-1.58 0.208,-0.5329 0.5108,-1.0139 0.9062,-1.444 0.3966,-0.428 0.8779,-0.7758 1.4434,-1.0428 0.5655,-0.2662 1.205,-0.4 1.921,-0.4 0.5848,0 1.1336,0.095 1.6484,0.2829 0.5128,0.1891 0.9609,0.4751 1.3445,0.858 0.3838,0.3839 0.6857,0.8621 0.9073,1.433 0.2208,0.572 0.3311,1.2421 0.3311,2.01 0,0.896 -0.1437,1.806 -0.4286,2.7281 -0.2863,0.9249 -0.6797,1.8238 -1.1798,2.7008 -0.5008,0.8782 -1.0958,1.7161 -1.7841,2.5161 -0.6894,0.7999 -1.4445,1.538 -2.2629,2.213 z"
     style="fill:#08762a;fill-rule:evenodd;stroke:#08762a;stroke-width:0.74980003;stroke-linecap:butt;stroke-linejoin:miter;stroke-dasharray:none"
     id="path3749"
     inkscape:connector-curvature="0" />
  <path
     d="m 100.8036,210.37603 c 0.5076,-0.4819 1.0468,-1.0579 1.6191,-1.726 0.572,-0.6709 1.101,-1.415 1.588,-2.232 0.4901,-0.8201 0.8901,-1.703 1.2112,-2.6518 0.3181,-0.9502 0.476,-1.9392 0.476,-2.9642 0,-0.7679 -0.0842,-1.4349 -0.254,-1.999 -0.1701,-0.5669 -0.394,-1.036 -0.6741,-1.4139 -0.2809,-0.3781 -0.6089,-0.6571 -0.9899,-0.8379 -0.379,-0.1843 -0.7832,-0.2741 -1.2132,-0.2741 -0.3628,0 -0.7027,0.066 -1.0171,0.195 -0.3123,0.1301 -0.5859,0.328 -0.8203,0.5938 -0.2361,0.2671 -0.4181,0.5953 -0.5468,0.9851 -0.133,0.3892 -0.1973,0.8402 -0.1973,1.345 0,0.6251 0.0938,1.177 0.2852,1.658 0.1873,0.4811 0.4512,0.8822 0.7832,1.2002 0.3319,0.3169 0.7344,0.5547 1.2053,0.7109 0.47,0.1571 0.9878,0.2208 1.5488,0.1951 l -0.2738,0.39 c -0.508,0.1298 -1.0551,0.1698 -1.6464,0.1168 -0.5918,-0.0519 -1.1386,-0.214 -1.6387,-0.4859 -0.5,-0.2749 -0.9161,-0.667 -1.2481,-1.1812 -0.3319,-0.5128 -0.498,-1.1599 -0.498,-1.9389 0,-0.5218 0.1034,-1.0459 0.3124,-1.58 0.2072,-0.5329 0.5099,-1.0139 0.9065,-1.444 0.3965,-0.428 0.8767,-0.7758 1.4431,-1.0428 0.5647,-0.2662 1.205,-0.4 1.9202,-0.4 0.5859,0 1.135,0.095 1.65,0.2829 0.512,0.1891 0.961,0.4751 1.3439,0.858 0.385,0.3839 0.686,0.8621 0.906,1.433 0.2231,0.572 0.3319,1.2421 0.3319,2.01 0,0.896 -0.142,1.806 -0.4289,2.7281 -0.2848,0.9249 -0.68,1.8238 -1.18,2.7008 -0.5001,0.8782 -1.0959,1.7161 -1.783,2.5161 -0.69,0.7999 -1.444,1.538 -2.264,2.213 z"
     style="fill:#08762a;fill-rule:evenodd;stroke:#08762a;stroke-width:0.74980003;stroke-linecap:butt;stroke-linejoin:miter;stroke-dasharray:none"
     id="path3751"
     inkscape:connector-curvature="0" />
  <path
     d="m 115.6449,197.68223 c -0.2749,0.2319 -0.642,0.6029 -1.101,1.1098 -0.4631,0.5071 -0.9612,1.0692 -1.4941,1.6871 -0.5329,0.6188 -1.067,1.2541 -1.5979,1.9109 -0.5332,0.6562 -1.008,1.2512 -1.4241,1.7841 h 5.6171 z m 1.4029,6.4919 c 0.1562,0 0.3319,-0.009 0.5269,-0.03 0.1942,-0.019 0.383,-0.0411 0.567,-0.0669 0.1811,-0.0261 0.3492,-0.0581 0.5051,-0.097 0.157,-0.0411 0.2741,-0.085 0.3501,-0.1372 0.053,-0.144 0.102,-0.316 0.1468,-0.5159 0.0462,-0.2021 0.091,-0.407 0.1361,-0.6151 0.0451,-0.2081 0.0879,-0.4028 0.127,-0.5859 0.0411,-0.182 0.072,-0.3229 0.0981,-0.4281 l 0.3509,-0.0581 c -0.0499,0.3512 -0.1321,0.9281 -0.2441,1.7343 -0.1108,0.8078 -0.1519,1.8277 -0.127,3.062 l -0.3707,-0.0973 c -0.0253,-0.2219 -0.0471,-0.4617 -0.0681,-0.7208 -0.0201,-0.2611 -0.0411,-0.4419 -0.0672,-0.548 -0.1167,-0.0249 -0.267,-0.0439 -0.449,-0.0561 -0.1828,-0.0139 -0.3668,-0.0229 -0.5558,-0.03 -0.188,-0.007 -0.366,-0.01 -0.5361,-0.01 -0.1689,0 -0.2979,0 -0.39,0 v 0.6441 c 0,0.8059 0.01,1.5239 0.0289,2.1529 0.0201,0.631 0.0411,1.0582 0.068,1.2781 0.0791,0.0139 0.2152,0.0321 0.411,0.0579 0.1931,0.0272 0.402,0.0561 0.6231,0.0881 0.22,0.0329 0.4309,0.059 0.633,0.0791 0.2029,0.019 0.3549,0.036 0.46,0.0479 l 0.0959,0.313 c -0.1168,-0.0139 -0.3178,-0.0241 -0.603,-0.0301 -0.2868,-0.007 -0.5938,-0.013 -0.928,-0.0198 -0.332,-0.006 -0.6429,-0.0122 -0.936,-0.019 -0.2929,-0.007 -0.4978,-0.0102 -0.6149,-0.0102 -0.1661,0 -0.4371,0.003 -0.8081,0.0102 -0.37,0.007 -0.76,0.013 -1.1679,0.019 -0.411,0.007 -0.7951,0.013 -1.1531,0.0198 -0.3569,0.006 -0.599,0.0162 -0.73,0.0301 l 0.078,-0.313 c 0.0782,0 0.2602,-0.0119 0.5451,-0.0391 0.2871,-0.0258 0.595,-0.055 0.9281,-0.0879 0.3319,-0.032 0.648,-0.0609 0.955,-0.0881 0.3038,-0.0258 0.5088,-0.044 0.6128,-0.0579 0.0142,-0.1431 0.0252,-0.3339 0.0411,-0.574 0.0119,-0.2409 0.021,-0.5099 0.0289,-0.811 0.006,-0.299 0.0122,-0.6159 0.0182,-0.955 0.006,-0.3381 0.011,-0.682 0.011,-1.0321 v -0.703 h -7.158 c 0.2848,-0.3259 0.6548,-0.7449 1.1018,-1.2568 0.449,-0.5142 0.9431,-1.084 1.4822,-1.7071 0.5389,-0.623 1.0999,-1.2741 1.6759,-1.9491 0.5799,-0.6769 1.1469,-1.3328 1.6971,-1.9709 0.553,-0.6369 1.0689,-1.2319 1.5508,-1.783 0.483,-0.553 0.8912,-1.019 1.2291,-1.3949 -0.0261,0.1828 -0.049,0.5938 -0.0689,1.2367 -0.0192,0.6452 -0.0391,1.3862 -0.0581,2.2241 -0.0201,0.8379 -0.034,1.7031 -0.0391,2.5931 -0.006,0.8898 -0.01,1.681 -0.01,2.3701 z"
     style="fill:#08762a;fill-rule:evenodd"
     id="path3753"
     inkscape:connector-curvature="0" />
  <path
     d="m 115.6449,197.68223 c -0.2749,0.2319 -0.642,0.6029 -1.101,1.1098 -0.4631,0.5071 -0.9612,1.0692 -1.4941,1.6871 -0.5329,0.6188 -1.067,1.2541 -1.5979,1.9109 -0.5332,0.6562 -1.008,1.2512 -1.4241,1.7841 h 5.6171 z m 1.4029,6.4919 c 0.1562,0 0.3319,-0.009 0.5269,-0.03 0.1942,-0.019 0.383,-0.0411 0.567,-0.0669 0.1811,-0.0261 0.3492,-0.0581 0.5051,-0.097 0.157,-0.0411 0.2741,-0.085 0.3501,-0.1372 0.053,-0.144 0.102,-0.316 0.1468,-0.5159 0.0462,-0.2021 0.091,-0.407 0.1361,-0.6151 0.0451,-0.2081 0.0879,-0.4028 0.127,-0.5859 0.0411,-0.182 0.072,-0.3229 0.0981,-0.4281 l 0.3509,-0.0581 c -0.0499,0.3512 -0.1321,0.9281 -0.2441,1.7343 -0.1108,0.8078 -0.1519,1.8277 -0.127,3.062 l -0.3707,-0.0973 c -0.0253,-0.2219 -0.0471,-0.4617 -0.0681,-0.7208 -0.0201,-0.2611 -0.0411,-0.4419 -0.0672,-0.548 -0.1167,-0.0249 -0.267,-0.0439 -0.449,-0.0561 -0.1828,-0.0139 -0.3668,-0.0229 -0.5558,-0.03 -0.188,-0.007 -0.366,-0.01 -0.5361,-0.01 -0.1689,0 -0.2979,0 -0.39,0 v 0.6441 c 0,0.8059 0.01,1.5239 0.0289,2.1529 0.0201,0.631 0.0411,1.0582 0.068,1.2781 0.0791,0.0139 0.2152,0.0321 0.411,0.0579 0.1931,0.0272 0.402,0.0561 0.6231,0.0881 0.22,0.0329 0.4309,0.059 0.633,0.0791 0.2029,0.019 0.3549,0.036 0.46,0.0479 l 0.0959,0.313 c -0.1168,-0.0139 -0.3178,-0.0241 -0.603,-0.0301 -0.2868,-0.007 -0.5938,-0.013 -0.928,-0.0198 -0.332,-0.006 -0.6429,-0.0122 -0.936,-0.019 -0.2929,-0.007 -0.4978,-0.0102 -0.6149,-0.0102 -0.1661,0 -0.4371,0.003 -0.8081,0.0102 -0.37,0.007 -0.76,0.013 -1.1679,0.019 -0.411,0.007 -0.7951,0.013 -1.1531,0.0198 -0.3569,0.006 -0.599,0.0162 -0.73,0.0301 l 0.078,-0.313 c 0.0782,0 0.2602,-0.0119 0.5451,-0.0391 0.2871,-0.0258 0.595,-0.055 0.9281,-0.0879 0.3319,-0.032 0.648,-0.0609 0.955,-0.0881 0.3038,-0.0258 0.5088,-0.044 0.6128,-0.0579 0,-0.1431 0.0411,-0.3339 0.0411,-0.574 0,-0.2409 0.0289,-0.5099 0.0289,-0.811 0,-0.299 0.0182,-0.6159 0.0182,-0.955 0,-0.3381 0.011,-0.682 0.011,-1.0321 v -0.703 h -7.158 c 0.2848,-0.3259 0.6548,-0.7449 1.1018,-1.2568 0.449,-0.5142 0.9431,-1.084 1.4822,-1.7071 0.5389,-0.623 1.0999,-1.2741 1.6759,-1.9491 0.5799,-0.6769 1.1469,-1.3328 1.6971,-1.9709 0.553,-0.6369 1.0689,-1.2319 1.5508,-1.783 0.483,-0.553 0.8912,-1.019 1.2291,-1.3949 -0.0261,0.1828 -0.049,0.5938 -0.0689,1.2367 -0.0192,0.6452 -0.0391,1.3862 -0.0581,2.2241 -0.0201,0.8379 -0.0391,1.7031 -0.0391,2.5931 0,0.8898 -0.01,1.681 -0.01,2.3701 z"
     style="fill:none;stroke:#08762a;stroke-width:0.74980003;stroke-linecap:butt;stroke-linejoin:miter;stroke-dasharray:none"
     id="path3755"
     inkscape:connector-curvature="0" />
</svg>
