<?xml version="1.0" encoding="utf-8"?>
<!-- Generator: Adobe Illustrator 16.0.0, SVG Export Plug-In . SVG Version: 6.00 Build 0)  -->
<!DOCTYPE svg PUBLIC "-//W3C//DTD SVG 1.1//EN" "http://www.w3.org/Graphics/SVG/1.1/DTD/svg11.dtd">
<svg version="1.1" id="Capa_1" xmlns="http://www.w3.org/2000/svg" xmlns:xlink="http://www.w3.org/1999/xlink" x="0px" y="0px"
	 width="585px" height="589px" viewBox="0 0 585 589" enable-background="new 0 0 585 589" xml:space="preserve">
<g>
	<g id="XMLID_2_">
		<g>
			<path fill="#000000" d="M579.67,118.55v1c-13.05,8.74-34.56,36.4-43.01,50.99c-10.59,18.27-18.96,46.27-21.92,72.08
				c-5.79,50.59,3.029,137.05-10.92,176.07c-18.87,52.76-51.99,64.819-94.931,92.079c-19.04,12.08-38.96,24.15-58.54,35.45
				c-10.109,5.84-19.199,11.61-29.27,17.74c-7.311,4.45-23.05,12.94-28.41,17.59h-1c-12.11-10.53-42.66-25.62-58.18-35.81
				c-18.32-12.03-39.33-24.45-58.49-35.521c-39.87-23.01-79.5-44.66-94.47-92.529c-14.8-47.32-2.97-121.24-11.08-175.92
				c-4.34-29.27-9.21-50.61-21.79-72.2c-5.36-9.2-12.63-19.41-19.72-27.28c-2.78-3.09-22.27-22.03-22.27-23.74
				c0-0.71,75.53-102.84,83-114h2c9.99,8.68,60.46,20.69,78.79,25.22c23.84,5.89,65.45,9.78,95.21,9.78h55
				c33.3,0,67.26-4.33,95.08-9.92c19.55-3.94,67.6-16.52,79.92-25.08h1L579.67,118.55z"/>
		</g>
	</g>
	<path fill-rule="evenodd" clip-rule="evenodd" fill="#FEFEFE" d="M149.462,470.303l142.211,86.249
		c32.649-17.275,64.835-39.821,97.327-58.673c30.199-17.52,71.587-39.034,87.018-69.983c19.257-38.624,14.767-85.104,14.655-141.344
		c-0.042-21.199,2.892-53.284,7.21-70.79c2.588-10.489,5.092-20.764,8.662-30.338c3.005-8.059,10.769-22.036,11.999-28.024
		L149.462,470.303z"/>
	<path fill-rule="evenodd" clip-rule="evenodd" fill="#FEFEFE" d="M33.443,116.384c3.307,4.763,9.838,10.212,13.831,15.567
		c4.423,5.933,8.344,10.49,12.4,16.601c7.86,11.842,14.355,24.493,19.376,39.624c10.108,30.468,14.624,63.275,14.624,103.376
		l0.427,54.504L450.673,43.552c-9.529,0.793-24.18,6.277-35.891,8.109c-11.688,1.828-25.886,4.911-38.109,5.891
		c-27.473,2.204-54.576,4-85,4h-11c-35.226,0-69.764-3.145-100.109-7.892c-13.947-2.181-31.919-5.501-44.318-9.682
		c-7.574-2.554-13.791-3.688-20.701-6.3c-4.842-1.83-15.969-6.218-19.567-6.903L33.443,116.384z"/>
	<path fill="#FFFFFF" d="M161.728,387.444l9.33-2.014c4.316,7.082,6.546,13.035,6.682,17.889c0.125,4.841-1.504,8.717-4.889,11.607
		c-4.256,3.636-9.663,4.29-16.208,1.979c-7.562-2.676-15.174-8.51-22.835-17.479c-8.104-9.489-12.909-18.213-14.416-26.193
		c-1.308-6.92,0.272-12.299,4.77-16.141c3.653-3.12,8.206-3.986,13.646-2.61c3.875,0.988,8.304,3.563,13.288,7.746l-4.253,8.222
		c-2.993-2.659-5.786-4.259-8.399-4.803c-2.614-0.544-4.764-0.095-6.442,1.339c-2.411,2.059-3.127,5.201-2.139,9.438
		c0.978,4.225,4.353,9.716,10.124,16.473c5.981,7.002,10.979,11.353,14.983,13.037c4.015,1.696,7.205,1.525,9.579-0.503
		c1.743-1.488,2.438-3.717,2.097-6.671C166.301,395.784,164.666,392.01,161.728,387.444L161.728,387.444z M191.175,397.644
		l-9.099-10.654l6.269-5.354l9.099,10.653L191.175,397.644L191.175,397.644z M244.355,352.223l-60.549-44.438l-6.982,5.964
		l34.771,66.454l7.01-5.987l-8.101-14.931l13.038-11.135l13.646,10.194L244.355,352.223L244.355,352.223z M213.434,340.597
		l-8.912,7.611l-13.199-24.411L213.434,340.597L213.434,340.597z M247.814,349.269l-9.099-10.653l6.269-5.354l9.099,10.652
		L247.814,349.269L247.814,349.269z M300.995,303.848l-7.168,6.122l-13.646-10.194l-13.038,11.136l8.101,14.931l-7.01,5.987
		l-34.771-66.455l6.982-5.964L300.995,303.848L300.995,303.848z M270.073,292.222l-22.111-16.8l13.199,24.411L270.073,292.222
		L270.073,292.222z M304.667,300.711l22.979-19.625l-8.004-9.372l-16.404,14.01l-39.092-45.771l-6.575,5.615L304.667,300.711
		L304.667,300.711z M332.542,276.904l22.979-19.625l-8.004-9.372l-16.404,14.01l-39.092-45.771l-6.575,5.615L332.542,276.904
		L332.542,276.904z M324.636,187.506l13.075-11.167c3.561-3.042,6.46-4.734,8.691-5.051c2.221-0.33,4.815,0.23,7.785,1.679
		c2.949,1.444,5.684,3.631,8.159,6.531c2.289,2.679,3.93,5.464,4.923,8.354s1.261,5.438,0.791,7.629
		c2.757-0.697,5.672-0.344,8.756,1.052c3.083,1.375,6.051,3.742,8.903,7.082c3.449,4.039,5.674,8.071,6.66,12.042
		c0.997,3.984,0.817,7.115-0.521,9.399c-0.938,1.585-3.81,4.44-8.622,8.55l-11.118,9.496L324.636,187.506L324.636,187.506z
		 M339.115,191.146L350.093,204l4.35-3.714c2.605-2.226,4.164-3.668,4.675-4.329c0.911-1.204,1.219-2.608,0.941-4.229
		c-0.287-1.613-1.221-3.345-2.802-5.196c-1.404-1.644-2.793-2.764-4.186-3.342c-1.393-0.58-2.556-0.683-3.51-0.316
		c-0.942,0.379-3.158,2.048-6.636,5.018L339.115,191.146L339.115,191.146z M357.998,213.255l12.691,14.86l6.12-5.227
		c2.68-2.289,4.229-3.948,4.658-4.986s0.405-2.361-0.06-3.957c-0.474-1.587-1.452-3.259-2.967-5.033
		c-1.559-1.825-3.108-3.076-4.662-3.787c-1.562-0.703-2.991-0.893-4.275-0.557c-1.294,0.344-3.355,1.724-6.174,4.131
		L357.998,213.255L357.998,213.255z M380.301,188.632c7.794,9.125,15.487,14.979,23.069,17.548
		c6.639,2.233,12.323,1.34,17.053-2.699c4.692-4.008,6.433-9.479,5.211-16.45c-1.351-7.891-6.006-16.496-13.944-25.79
		c-7.86-9.203-15.393-15.038-22.589-17.511c-7.205-2.465-13.13-1.703-17.804,2.288c-3.227,2.757-5.076,6.149-5.548,10.179
		c-0.472,4.03,0.424,8.795,2.683,14.275C370.682,175.961,374.641,182.005,380.301,188.632L380.301,188.632z M449.141,177.319
		l6.575-5.615l-19.923-23.326l-15.553-42.527l-7.575,6.471l11.226,28.447l-26.471-15.427l-7.716,6.589l39.448,21.984
		L449.141,177.319L449.141,177.319z M453.884,141.994l5.518-6.571c6.793,6.489,12.207,8.021,16.231,4.584
		c1.984-1.695,2.933-3.758,2.824-6.195c-0.089-2.432-1.06-4.714-2.895-6.863c-1.084-1.269-2.196-2.177-3.347-2.717
		c-1.161-0.552-2.393-0.754-3.695-0.627s-4.075,0.861-8.359,2.192c-3.827,1.208-6.98,1.685-9.472,1.396
		c-2.491-0.269-5.088-1.207-7.793-2.814c-2.704-1.608-5.163-3.717-7.385-6.319c-2.587-3.029-4.429-6.18-5.523-9.453
		c-1.075-3.268-1.282-6.27-0.609-8.994c0.693-2.718,2.304-5.169,4.863-7.355c3.84-3.279,8.073-4.387,12.712-3.313
		c4.637,1.054,9.337,4.249,14.079,9.556l-6.173,6.124c-2.851-2.737-5.252-4.29-7.233-4.658c-1.962-0.362-3.843,0.214-5.613,1.728
		c-1.771,1.513-2.702,3.202-2.772,5.054c-0.08,1.859,0.532,3.553,1.859,5.106c1.293,1.514,2.813,2.411,4.568,2.702
		c1.768,0.304,4.732-0.28,8.919-1.707c4.47-1.489,8.066-2.121,10.802-1.905c2.734,0.217,5.502,1.166,8.271,2.831
		c2.779,1.677,5.59,4.18,8.442,7.519c4.124,4.828,6.518,9.791,7.202,14.892c0.676,5.109-1.249,9.597-5.774,13.462
		C475.528,156.484,465.64,153.938,453.884,141.994z"/>
	<g id="XMLID_1_">
		<g>
			<path d="M415.25,184.3c1,4.63,0.22,8.05-2.37,10.26c-2.57,2.21-6.1,2.44-10.57,0.73c-4.47-1.72-9.43-5.76-14.89-12.16
				c-5.57-6.52-8.84-12.06-9.82-16.62c-0.97-4.54-0.109-7.96,2.57-10.25c2.68-2.29,6.17-2.6,10.45-0.93
				c4.3,1.68,9.189,5.74,14.7,12.18C410.94,174.09,414.25,179.68,415.25,184.3z"/>
		</g>
	</g>
</g>
</svg>
