<?xml version="1.0" encoding="utf-8"?>
<!-- Generator: Adobe Illustrator 16.0.0, SVG Export Plug-In . SVG Version: 6.00 Build 0)  -->
<!DOCTYPE svg PUBLIC "-//W3C//DTD SVG 1.1//EN" "http://www.w3.org/Graphics/SVG/1.1/DTD/svg11.dtd">
<svg version="1.1" id="Capa_1" xmlns="http://www.w3.org/2000/svg" xmlns:xlink="http://www.w3.org/1999/xlink" x="0px" y="0px"
	 width="612px" height="700.5px" viewBox="0 0 612 700.5" enable-background="new 0 0 612 700.5" xml:space="preserve">
<g>
	<path fill-rule="evenodd" clip-rule="evenodd" fill="#EDEDED" d="M5.921,220.037v19.219c0.576,1.564,0.79,18.848,0.973,22.274
		c0.387,7.211,0.94,14.58,1.728,21.574c1.601,14.204,3.452,27.496,5.81,41.355c8.016,47.113,26.08,98.393,47.41,141.07
		c9.009,18.024,28.25,49.724,40.391,65.352l25.719,32.929c2.353,3.02,9.728,10.572,11.201,12.509l11.145,12.256
		c3.997,3.893,7.858,7.823,11.853,11.861l15.089,14.076c7.101,5.554,14.726,12.696,22.583,18.753
		c28.771,22.179,63.335,42.591,97.274,55.896c1.877,0.736,7.238,2.5,8.503,3.459h1.274c1.394-1.119,29.883-13.391,32.438-14.556
		c11.159-5.089,21.06-10.392,30.85-16.258c10.152-6.083,19.298-12.127,28.477-18.635l42.021-34.57
		c1.344-1.35,1.766-1.778,3.169-2.908c0.986-0.795,1.957-1.901,2.907-2.867c1.118-1.136,2.05-1.713,3.221-2.869l21.632-22.271
		l33.578-40.45c11.085-15.667,18.175-25.908,28.221-42.598c38.876-64.591,62.061-137.812,69.542-213.533
		c0.725-7.335,1.221-14.447,1.719-21.999c0.092-1.41,0.46-21.477,1.054-22.753v-20.557c-0.763-1.56-0.679-17.916-0.887-21.252
		c-1.356-21.708-3.335-40.002-5.748-61.568c-1.116-9.978-7.148-56.722-12.757-65.497c-1.068-1.671-3.358-5.292-4.639-6.568
		l-17.486,6.511c-17.911,6.637-35.627,13.935-54.474,17.925c-27.873,5.901-59.925,6.167-88.496,1.42
		c-20.12-3.342-44.896-10.786-61.328-22.931l-15.847-14.263c-0.981-0.977-1.766-2.065-2.918-3.169
		c-9.662-9.26-21.367-21.279-28.924-31.641c-1.689-2.315-3.598-4.706-5.13-7.076h-0.268l-5.398,6.805
		c-1.843,2.16-4.73,6.18-6.754,8.312l-37.174,36.522c-0.715,0.621-1.029,0.765-1.758,1.449c-1.089,1.024-2.179,1.827-3.367,2.715
		c-16.3,12.169-42.739,19.961-62.626,23.549c-30.174,5.442-59.97,3.949-88.854-2.562c-12.89-2.905-25.422-7.396-37.546-11.462
		c-5.945-1.993-12.015-4.318-18.269-6.401c-3.062-1.02-16.695-5.639-18.901-5.696c-0.998,6.271-2.566,12.551-3.726,18.751
		c-3.635,19.425-6.909,37.946-9.632,57.691c-3.02,21.898-4.604,39.379-6.007,61.239C6.583,201.768,6.473,218.767,5.921,220.037z"/>
	<path fill-rule="evenodd" clip-rule="evenodd" fill="#DF1216" d="M153.302,99.949c-41.793,0.035-69.008-9.021-106.014-22.414
		c-3.125-1.131-10.723-4.075-13.78-4.48c-0.585,5.281-2.339,12.067-3.337,17.506c-1.104,6.024-2.177,11.919-3.202,17.967
		c-6.096,35.939-11.382,78.347-11.382,114.543c0,37.754,1.706,59.858,7.94,97.468c5.624,33.927,18.393,75.294,31.475,106.962
		c4.577,11.083,9.318,21.298,14.459,31.687c5.101,10.304,10.776,20.327,16.437,29.714c8.286,13.739,18.102,29.143,27.953,41.264
		c9.006,11.082,17.23,23.16,26.966,33.593c0.55,0.589,0.775,0.996,1.289,1.607l5.504,6.028c0.906,1.15,1.831,1.831,2.756,3.011
		c5.785,7.379,32.092,32.692,41.169,39.584l12.629,10.438c28.285,21.881,61.708,41.91,94.833,55.122
		c1.48,0.591,2.689,1.04,4.137,1.632c1.992,0.814,2.344,1.365,4.25,0.528c5.33-2.343,10.513-4.818,15.907-7.189
		c17.843-7.841,28.934-12.71,45.839-23.363c4.736-2.985,9.6-5.872,14.056-9.018c10.351-7.308,16.535-11.643,26.548-19.599
		c6.612-5.255,9.73-8.196,15.556-13.277l6.264-5.281c1.131-1.257,1.785-1.799,2.972-2.793l36.977-38.007l18.394-21.983
		c6.793-8.104,13.205-17.52,19.592-26.876c23.645-34.641,45.756-77.283,60.857-123.723c15.683-48.224,25.693-104.701,25.693-159.195
		c0-33.906-1.813-54.434-5.479-88.106c-1.343-12.334-2.897-24.703-4.79-36.845c-1.26-8.084-4.589-27.898-7.599-33.945
		c-3.68,1.021-21.066,7.824-25.856,9.671c-31.48,12.142-55.949,17.431-91.113,17.477c-33.056,0.042-69.254-6.607-94.801-20.52
		c-7.774-4.234-15.522-9.277-20.875-15.023c-1.323-1.421-2.282-1.913-3.844-3.523c-2.379-2.456-3.787-3.394-7.265-7.163
		c-2.371-2.57-4.671-4.802-7.119-7.302l-7.247-7.169c-3.128-3.311-11.066-12.068-13.338-15.442l-27.917,29.264
		c-1.255,1.248-2.275,2.271-3.562,3.487c-8.219,7.764-18.744,17.172-28.509,22.127C220.417,91.739,187.158,99.92,153.302,99.949z"/>
	<path fill-rule="evenodd" clip-rule="evenodd" fill="#E00914" d="M274.896,85.108l-0.075,559.811
		c4.155,2.761,9.839,5.37,14.778,7.478c2.087,0.892,14.895,6.416,15.979,6.501c1.211,0.094,28.532-12.29,31.343-13.746
		l-0.137-560.03c-0.921-0.96-1.099-1.116-2.03-1.877c-2.83-2.313-11.997-11.364-13.696-13.221l-11.123-11.777
		c-1.234-1.206-2.065-3.046-3.811-3.888L294.97,66.377c-6.378,6.638-11.383,10.852-17.914,16.747
		C276.16,83.932,275.696,84.002,274.896,85.108z"/>
	<path fill-rule="evenodd" clip-rule="evenodd" fill="#FFFFFF" d="M336.921,645.151l16.355-9.155
		c12.189-6.922,34.604-22.512,45.708-32.021l-0.051-490.381c-5.086-1.65-10.98-2.903-17.375-5.035
		c-13.604-4.536-30.4-11.992-41.528-20.992c-0.871-0.706-2.433-2.03-3.246-2.445L336.921,645.151z"/>
	<path fill-rule="evenodd" clip-rule="evenodd" fill="#FFFFFF" d="M212.756,113.575l0.024,490.396
		c3.092,3.493,26.299,19.656,29.552,21.739l24.058,14.623c1.935,1.145,6.444,3.905,8.43,4.585l0.075-559.811l-6.37,4.652
		c-2.125,1.528-4.58,3.078-6.952,4.5c-9.558,5.732-20.564,10.487-31.344,14.15C224.488,110.361,218.471,111.688,212.756,113.575z"/>
	<path fill-rule="evenodd" clip-rule="evenodd" fill="#E00914" d="M398.984,603.975c0.574-0.633,1.176-0.953,2.001-1.658
		l10.489-8.998c5.598-4.599,15.39-13.89,20.332-18.67c1.254-1.212,2.56-2.931,3.724-4.013c0.724-0.674,1.313-1.004,2.002-1.708
		c0.738-0.753,1.212-1.325,1.936-2.089c1.342-1.418,2.414-2.561,3.713-4.029c1.831-2.07,5.071-5.03,7.475-8.003
		c1.987-2.458,4.12-4.455,7.11-8.357c0.407-0.532,3.127-4.009,3.637-4.142c-0.557-0.96-0.402-2.188-0.39-3.303
		c0.013-1.134,0.004-2.271,0.004-3.405v-388.43c0-8.271-0.49-18.149,0.052-26.221c-11.229-0.59-21.325-0.758-32.53-2.127
		c-5.092-0.622-10.133-1.346-15.071-2.227c-4.896-0.873-9.76-2.175-14.533-3L398.984,603.975z"/>
	<path fill-rule="evenodd" clip-rule="evenodd" fill="#E00914" d="M150.706,121.156l0.031,421.738
		c0.759,1.379,2.368,2.877,3.449,4.159c1.156,1.371,2.267,2.812,3.61,4.135l7.307,8.158c3.724,4.382,23.016,23.595,26.769,26.779
		l20.909,17.847l-0.024-490.396c-4.741,0.851-9.541,2.256-14.408,3.168c-5.013,0.939-9.858,1.727-14.979,2.372
		C172.167,120.529,161.993,120.667,150.706,121.156z"/>
	<path fill-rule="evenodd" clip-rule="evenodd" fill="#FFFFFF" d="M88.622,449.755c0.922,2.911,12.066,22.508,13.631,25.137
		c9.748,16.388,19.695,31.555,31.146,46.539c2.905,3.803,5.634,7.262,8.56,10.932c1.929,2.421,6.885,8.737,8.779,10.531
		l-0.031-421.738c-11.429-0.469-21.411-0.614-32.726-2.143c-9.717-1.314-20.237-3.294-29.294-5.851L88.622,449.755z"/>
	<path fill-rule="evenodd" clip-rule="evenodd" fill="#FFFFFF" d="M461.068,120.948c-0.542,8.072-0.052,17.951-0.052,26.221V535.6
		c0,1.134,0.009,2.271-0.004,3.405c-0.013,1.115-0.167,2.343,0.39,3.303c4.024-5.14,8.778-10.196,13.113-15.93
		c1.456-1.924,2.727-3.482,4.185-5.406c10.091-13.319,22.479-31.802,30.832-46.546c2.291-4.044,4.655-7.969,6.931-12.244
		c1.344-2.524,6.025-10.555,6.625-12.861l-0.023-335.358c-4.583,0.751-9.443,2.066-14.193,2.963
		c-4.848,0.916-10.015,1.659-15.058,2.237C482.643,120.442,472.36,120.745,461.068,120.948z"/>
	<path fill-rule="evenodd" clip-rule="evenodd" fill="#E00914" d="M523.064,113.962l0.023,335.358
		c1.673-2.423,6.881-13.847,8.445-17.257c2.729-5.955,5.218-11.703,7.785-17.901c15.337-37.034,26.398-82.243,31.493-122.656
		c4.083-32.396,4.884-65,3.063-97.947c-1.196-21.625-6.381-72.065-10.516-92.621l-29.747,10.097
		C530.42,112.033,526.006,112.851,523.064,113.962z"/>
	<path fill-rule="evenodd" clip-rule="evenodd" fill="#E00914" d="M88.622,449.755l0.065-336.593
		c-13.352-3.208-25.722-8.032-38.355-11.934c-1.029,2.186-3.266,18.069-3.869,21.729c-9.499,57.606-13.205,108.946-6.006,168.008
		c3.527,28.939,9.989,58.646,18.442,84.929c6.708,20.855,12.488,36.87,21.128,56.55C81.369,435.503,87.142,448.031,88.622,449.755z"
		/>
	<g>
		<path fill-rule="evenodd" clip-rule="evenodd" fill="#E00914" d="M243.073,384.723l33.759,0.038
			c0.606-0.17,2.334-5.671,2.673-6.59c0.864-2.341,1.66-4.502,2.47-6.758c0.817-2.274,1.601-4.456,2.462-6.774
			c0.829-2.231,1.813-4.655,2.506-6.871h41.775c1.049,2.154,6.429,17.039,7.729,20.313c0.285,0.721,2.227,6.515,2.791,6.68
			l34.297-0.001c-0.426-1.375-1.006-2.501-1.513-3.842l-9.495-23.749c-0.559-1.33-1.044-2.533-1.595-3.933l-4.757-11.868
			c-2.427-6.407-5.463-13.501-7.901-19.779c-0.476-1.224-1.079-2.756-1.584-3.942c-1.882-4.425-4.519-11.907-6.345-15.816
			c-0.553-1.185-1.131-2.722-1.594-3.96l-15.861-39.511c-2.593-0.292-23.522-0.021-28.705-0.046
			c-3.024-0.016-1.708-0.486-4.207,5.514l-3.635,9.291c-2.375,6.261-4.858,12.437-7.219,18.633
			c-2.395,6.283-4.901,12.346-7.231,18.617l-21.625,55.709c-1.246,3.212-2.458,6.163-3.612,9.312
			c-0.633,1.724-1.165,3.016-1.838,4.648L243.073,384.723L243.073,384.723z M297.262,329.766c-0.022-0.786,4.322-12.072,4.987-13.99
			c1.53-4.422,3.698-9.742,5.131-14.052l10.517,28.085L297.262,329.766z"/>
		<path fill-rule="evenodd" clip-rule="evenodd" fill="#E00914" d="M423.963,531.289h9.052l2.885-0.25
			c0.956-0.119,1.919-0.155,2.854-0.253c1.884-0.196,3.786-0.491,5.488-0.837c30.252-8.372,34.213-25.268,34.213-49.673v-77.522
			H446.48c0.045,19.829,0.001,39.663,0.001,59.493c0,7.757,0.006,22.071-0.955,28.781c-0.611,4.272-2.898,7.296-5.778,9.132
			c-5.792,3.696-20.272,3.828-26.23-2.153c-0.778-0.781-0.987-1.071-1.671-2.021c-1.031-1.435-1.917-3.032-2.401-5.007
			c-0.923-3.76-1.042-9.468-1.044-13.963l0.001-74.258l-32.133-0.003l0.223,77.521c-0.223,9.078,0.228,19.035,4.788,27.803
			c3.747,7.201,7.131,10.721,12.757,14.75c3.02,2.163,4.033,2.539,7.068,4.018c5.055,2.462,14.649,4.175,20.472,4.287
			c0.433,0.009,0.888-0.021,1.317-0.018C423.546,531.122,423.548,531.043,423.963,531.289z"/>
		<path fill-rule="evenodd" clip-rule="evenodd" fill="#E00914" d="M126.91,206.88v5.66c0.134,0.215,0.388,5.503,0.462,6.245
			c0.604,6.081,1.539,11.414,3.481,17.058c0.941,2.735,2.747,7.068,4.16,9.5c4.862,8.368,11.551,16.173,20.108,20.891
			c0.746,0.412,1.293,0.841,2.108,1.214c2.717,1.246,3.717,2.028,7.177,3.183c3.53,1.179,7.123,2.198,11.121,2.722
			c18.912,2.478,35.513-2.002,47.194-12.892c2.332-2.174,2.992-3.255,4.71-5.445c0.539-0.688,1.007-1.329,1.502-2.005
			c1.537-2.094,3.906-6.525,4.921-8.763l1.988-4.816c0.728-2.134,2.817-8.535,3.188-10.767c-1.155-0.227-2.658-0.749-3.843-1.126
			l-11.598-3.551c-2.619-0.741-5.059-1.666-7.755-2.403c-1.372-0.375-6.967-2.314-7.841-2.242
			c-1.708,6.723-2.839,13.539-7.749,19.194c-4.18,4.815-10.666,7.883-19.601,6.603c-4.823-0.691-7.242-2.232-10.516-4.614
			c-8.03-5.845-10.232-18.601-10.449-28.418c-0.341-15.407,0.967-31.711,15.723-38.272c7.985-3.55,19.479-2.058,25.57,4.463
			l1.425,1.894c4.495,6.602,3.431,9.654,4.826,12.379c0.96-0.001,2.942-0.615,3.985-0.847c6.505-1.439,13.191-3.28,19.704-4.686
			l7.821-1.911c-0.023-1.164-2-7.058-2.523-8.667c-1.728-5.322-3.103-7.318-5.492-11.474c-0.687-1.197-1.564-2.28-2.4-3.32
			l-1.873-2.371c-0.22-0.28-0.469-0.503-0.726-0.757c-2.732-2.7-6.33-5.418-9.513-7.469l-3.694-2.045
			c-1.09-0.573-2.732-1.262-3.977-1.739c-4.238-1.625-9.026-2.859-13.683-3.344c-0.579-0.061-4.99-0.434-5.106-0.506h-6.783
			c-0.064,0.041-5.91,0.604-6.577,0.685c-5.847,0.706-12.358,2.744-17.371,5.212c-3.949,1.945-8.1,4.552-11.208,7.434
			c-0.445,0.413-0.411,0.412-1.018,0.817l-3.756,3.638c-5.436,6.631-8.833,11.575-11.767,20.155
			c-1.355,3.962-2.267,7.626-3.036,11.939c-0.347,1.944-0.707,4.508-0.842,6.603C127.35,200.58,126.964,206.792,126.91,206.88z"/>
		<path fill-rule="evenodd" clip-rule="evenodd" fill="#FFFFFF" d="M248.912,380.711l25.417,0.033l9.773-26.945l47.424,0.001
			l10.229,26.901l25.776,0.042L320.195,262.38l-25.269-0.003L248.912,380.711L248.912,380.711z M291.399,333.739l15.889-43.532
			c0.604,0.735,3.605,9.288,4.217,10.912c1.005,2.672,11.964,31.391,12.2,32.652L291.399,333.739z"/>
		<path fill-rule="evenodd" clip-rule="evenodd" fill="#FFFFFF" d="M404.364,479.15v-72.322h-23.921v73.449
			c0,7.688-0.028,2.707,0.788,10.504c1.133,10.823,2.76,16.104,9.398,23.83c2.316,2.698,5.727,5.158,9.536,7.275
			c7.822,4.349,17.647,5.313,27.883,5.374c10.209,0.062,20.121-1.342,27.786-5.659c16.91-9.526,18.42-17.273,18.658-41.324v-73.449
			h-24.155l0.037,73.448c-0.001,6.351,0.118,6.615-1.093,12.633c-1.167,5.808-5.241,9.905-9.838,11.936
			c-5.009,2.213-13.459,2.392-19.103,1.102c-9.046-2.068-14.476-8.806-15.419-17.266
			C404.645,486.177,404.066,481.511,404.364,479.15z"/>
		<path fill-rule="evenodd" clip-rule="evenodd" fill="#FFFFFF" d="M234.04,231.491l-23.087-6.811
			c-0.348,0.798-0.169,0.653-0.684,2.472c-1.823,6.444-4.502,12.137-9.398,16.446c-5.434,4.783-13.638,7.281-23.052,5.098
			c-7.942-1.841-13.65-7.088-16.822-12.704c-6.813-12.062-6.896-37.388-1.988-50.314c2.664-7.015,7.736-12.421,14.221-15.305
			c10.534-4.684,25.22-2.665,32.327,7.22c1.031,1.434,1.879,2.821,2.735,4.646c0.392,0.836,0.743,1.742,1.045,2.665
			c0.25,0.761,0.509,2.01,0.842,2.805c2.607-0.023,19.058-4.793,23.55-5.45c-0.452-4.45-5.162-13.435-7.875-17.205
			c-7.286-10.126-19.952-16.002-32.951-17.277c-21.506-2.107-40.73,5.634-51.881,22.695c-13.577,20.772-13.831,58.88,1.324,78.813
			c6.467,8.508,15.815,16.536,30.697,19.558c14.864,3.018,30.742,0.189,41.247-6.841c7.564-5.062,13.042-12.551,16.596-21.068
			C231.708,238.966,233.849,233.612,234.04,231.491z"/>
	</g>
</g>
</svg>
