<svg xmlns="http://www.w3.org/2000/svg" viewBox="0 0 1273.2 1417.32"><title>Asset 1@set4</title><g id="Layer_2" data-name="Layer 2"><g id="Layer_1-2" data-name="Layer 1"><path d="M106.26,803c0-62.71,24.63-97.49,50.7-134.3,24.43-34.49,49.68-70.15,49.68-123.08C206.64,397.71,130,288.37,87.37,239L261.44,50.8c94.31,55.79,237.35,107,371.63,107h7c134.31,0,277.36-51.22,371.66-107L1185.83,239c-42.61,49.33-119.27,158.67-119.27,306.61,0,52.93,25.26,88.59,49.68,123.08,26.06,36.81,50.7,71.59,50.7,134.3,0,25.53-10.55,54.35-30.94,85.73h0a.67.67,0,0,1-.09.14,379.42,379.42,0,0,1-25.31,34.22l52.74-4.45c26.82-38.91,43-78,43-115.64,0-136.41-100.38-167.29-100.38-257.38,0-185.31,133.83-306.28,133.83-306.28L1018.44,0C930.93,59.2,777.79,118.41,640.09,118.4h-7c-137.7,0-290.84-59.2-378.36-118.4L33.4,239.37s133.85,121,133.85,306.28c0,90.09-100.38,121-100.38,257.38,0,37.68,16.17,76.73,43,115.64l52.75,4.45C125.62,878.26,106.26,837.62,106.26,803Z" style="fill:#24346c"/><path d="M641.46,918.57q2.37-1.44,2.39-9.42v-6.64c0-3.84-.73-6.35-2.25-7.55a10.12,10.12,0,0,0-5-1.62v26.5A11.78,11.78,0,0,0,641.46,918.57Z" style="fill:#24346c"/><path d="M1134.83,803c0-52.49-19.76-80.42-44.78-115.75-26.06-36.79-55.59-78.49-55.59-141.63,0-138.21,61.71-244.38,108.85-305.3L1005.43,91.24c-92.09,49.81-233.31,98.65-368.83,98.65v32.44c16.06,12.93,56.68,39.34,120.83,39.34,84.94,0,136.42-37.74,136.42-37.74l94.38,74.64c-54.9,1.72-114.11-32.6-114.11-32.6C845,286.56,805.48,304.58,778,304.58s-42-5.16-81.5-16.31c-27.06-7.65-48.87,3.27-59.92,10.88V452c-3.09-.16-6.21-.26-9.35-.26a170.16,170.16,0,0,0-51.69,8L588,482.58h84l27.5,38.3-27.72,42.93H587.19l-.16.5-27.19,81.9,69.5,50.48,69.5-50.48.18.09,39.87,22.58v51.8l.48-51.8-40-22.67-7.6-22.9-19.59-59-.16-.5,27.72-42.93-27.14-38.3,11.51-21.14a171,171,0,0,1,87,69.24L751.28,546l23.48,81.08,22.86,1.2a169.74,169.74,0,0,1-40.43,104.32l-18.3-11.89-63.06,44.39-2,21.18a169.93,169.93,0,0,1-37.23,6.22v80.18c9.23.27,15.93.81,20,1.61a23.24,23.24,0,0,1,14.24,8.81q5.5,7.06,5.46,22.5c0,9.41-1.35,15.72-3.95,18.95s-7.72,5.15-15.36,5.77q10.37,2.34,13.91,6.23a18.14,18.14,0,0,1,4.42,7.13q.87,3.27.82,17.88l-.08,31.86-32.43-.1.11-40.12q0-9.7-1.67-12c-.82-1.13-2.66-1.84-5.46-2.15v224.84a406.43,406.43,0,0,0,55.63-4.18c75.57-23.28,120.5-55.81,141.34-74l-24.68-50.23,268.88-237.48,36.23,65.7C1127.65,841,1134.83,820.57,1134.83,803Zm-215-358.47h40.31v36.75H919.83ZM764.25,461.33q-5.06-11-5-33.16v-44q0-16.28,1.55-24.42T770,344.08q7.68-7.54,21.32-11.86t31.35-4.33q24,0,39.67,6.7t20.55,16.67q4.92,10,4.92,31.07v14.31H833.39V370.46q0-11.41-1.74-14.25c-1.16-1.88-3.73-2.83-7.69-2.83q-6.72,0-8.53,3.45t-1.82,14.88v70q0,11,1.82,14.32c1.21,2.24,3.93,3.35,8.15,3.35,4,0,6.69-1.11,7.94-3.35s1.87-7.49,1.87-15.76V421.29h54.42v5.86q0,23.39-4.59,33.17t-20.3,17.14q-15.69,7.37-38.71,7.36-23.9,0-39.41-6.23T764.25,461.33Zm83.74,465A30.43,30.43,0,0,1,840.25,940a53.39,53.39,0,0,1-15.68,10.93,58,58,0,0,1-20.67,6q-9.85.79-16.45-2.4a24.43,24.43,0,0,1-10.14-8.56q-3.51-5.38-12.41-23.79l-31.13-64.34,31.44-15.21,39.44,81.54c2.29,4.75,4.05,7.64,5.25,8.69s2.69,1.15,4.44.3c2-1,2.92-2.31,2.78-4s-1.51-5.31-4.12-10.73l-38.76-80.12L805.68,823l35.15,72.67q6,12.36,7.5,17.8C849.34,917.12,849.23,921.41,848,926.34Zm95.79-60.16-88.23-82.49,23.85-25.51,70.57,66,14.51-15.52,17.65,16.52Z" style="fill:#24346c"/><path d="M479.08,913.52q6.46-19.66,17.11-48-19.8,29-27.95,42.86Z" style="fill:#fff"/><path d="M633.2,920a31.55,31.55,0,0,0,3.4-.16v-26.5a32.21,32.21,0,0,0-3.32-.2Z" style="fill:#fff"/><path d="M1136,888.76h0c20.39-31.38,30.94-60.2,30.94-85.73,0-62.71-24.64-97.49-50.7-134.3-24.42-34.49-49.68-70.15-49.68-123.08,0-147.94,76.66-257.28,119.27-306.61L1011.75,50.8c-94.3,55.78-237.35,107-371.66,107h-7c-134.28,0-277.32-51.21-371.63-107L87.37,239C130,288.37,206.64,397.71,206.64,545.65c0,52.93-25.25,88.59-49.68,123.08-26.07,36.81-50.7,71.59-50.7,134.3,0,34.59,19.36,75.23,56.34,120.09l.42,0,6.25-11.34,34.92-63.31,220.49,194.75-24,48.9s50.18,62.66,177.43,100.18a434.68,434.68,0,0,0,121.21-1.28c124.14-37.64,173.24-98.9,173.24-98.9l-24-48.9L1069,848.51l41.18,74.65.37,0h0a379.42,379.42,0,0,0,25.31-34.22A.67.67,0,0,0,1136,888.76ZM478.61,304.58c-27.45,0-66.92-18-96.09-38.61,0,0-59.2,34.32-114.1,32.6l94.37-74.64s51.47,37.74,136.41,37.74,128.69-46.32,128.69-46.32v90.09s-28.31-28.32-67.77-17.17S506.07,304.58,478.61,304.58Zm26.82,140.84v36.74H465.12V445.42ZM454.72,387v29.36H399v59.4H354.4V330.38H464.24v31.24H399V387ZM394,823.49l-16.49,16-15-15.48-36.4,35.34L301.81,834.3l86.67-84.13,41.19,42.43-17.35,16.84-16.86-17.37L379,808ZM495.16,969,463,953.62l7.69-20.4-11.27-5.39-11.27,18.68-32.56-15.59,68.22-101.25,45.53,21.79Zm582.61-171.1L808.89,1035.41l24.68,50.23c-20.84,18.2-65.77,50.73-141.34,74a406.43,406.43,0,0,1-55.63,4.18V939a32,32,0,0,0-3.45-.18L633,993.27l-34.92-.1.34-120.79,24.71.08c5,0,9.45.08,13.47.19V792.47c-3.09.17-6.21.27-9.35.27A170.53,170.53,0,0,1,456.89,628.56c-.07-2.11-.15-4.2-.15-6.33A170.42,170.42,0,0,1,627.25,451.71c3.14,0,6.26.1,9.35.26V299.15c11-7.61,32.86-18.53,59.92-10.88,39.47,11.15,54.06,16.31,81.5,16.31s66.93-18,96.1-38.61c0,0,59.21,34.32,114.11,32.6l-94.38-74.64s-51.48,37.74-136.42,37.74c-64.15,0-104.77-26.41-120.83-39.34V189.89c135.52,0,276.74-48.84,368.83-98.65l137.88,149.11c-47.14,60.92-108.85,167.09-108.85,305.3,0,63.14,29.53,104.84,55.59,141.63,25,35.33,44.78,63.26,44.78,115.75,0,17.54-7.18,38-20.83,60.6Z" style="fill:#fff"/><path d="M306.29,1056.56l78.5-9.65L228,898.44l-29.2,66.1L122.9,968.4,244.52,1110Zm-109.82-46.95,46.65-39.37a55.91,55.91,0,0,1-22.87-8.07l11.23-9.49a46.81,46.81,0,0,0,14.9,5.47,29.88,29.88,0,0,0,16.91-.93l8.47,10L206.91,1022Zm36.72,45.84q-6.39-7.58-6.3-15.65t7-16.15l11.43,10.86q-3.28,3.52-3.48,6.87a8.83,8.83,0,0,0,2.36,6.37q3.24,3.82,9,3.55t17.53-8.91a19.32,19.32,0,0,1-15.27-7.1,22.78,22.78,0,0,1-5.21-18.11q1.22-10.48,10.64-18.45,9.83-8.28,20.77-7.52t18.55,9.79a26.19,26.19,0,0,1,6,22.54q-2.28,12.7-19.69,27.39-17.7,14.94-31.09,15T233.19,1055.45Z" style="fill:#fff"/><path d="M284.57,1028.83q6-5,7-10.59t-2.06-9.16a9.37,9.37,0,0,0-7.53-3.41q-4.62,0-10.79,5.21t-7.1,10.23a10.34,10.34,0,0,0,10.17,12.28C277.48,1033.44,280.93,1031.91,284.57,1028.83Z" style="fill:#fff"/><path d="M1273.2,909.42l-109.86,9.25-52.74,4.45h0l-.37,0L1069,848.51,848.52,1043.26l24,48.9s-49.1,61.26-173.24,98.9a434.68,434.68,0,0,1-121.21,1.28c-127.25-37.52-177.43-100.18-177.43-100.18l24-48.9L204.19,848.51l-34.92,63.31L163,923.16l-.42,0-52.75-4.45L0,909.42c78.3,101.78,148.08,180.77,210,241.84l-54.4,41.41c101.71,135.21,278.16,224.65,478.85,224.65,203.56,0,382.19-92,483.16-230.5l-51-38.87C1127.63,1087.34,1196.3,1009.38,1273.2,909.42Zm-228-11,29.2,66.1,75.93,3.86L1028.68,1110l-61.76-53.41-78.51-9.65Zm-922.27,70,75.93-3.86,29.2-66.1,156.76,148.47-78.5,9.65L244.52,1110ZM914.74,1305c.11-.22.3-.46.4-.68a12.37,12.37,0,0,0,1.13-7.1,26.11,26.11,0,0,0-3.54-8.44l-2.31-4-14.59,8.51,4.69,8.06,6.47-3.77q2.58,4.41-3.09,9.89l2.21,2c-80.51,41.34-173.8,64-271.67,64-164.21,0-316.47-64.21-416.07-173.64l106-80.72q8.43,8.49,17.46,16.39c75.58,66.2,182.22,104.18,292.57,104.18s217-38,292.57-104.19q11.81-10.35,22.57-21.63l105.81,80.54C1016.18,1239,968.43,1276.2,914.74,1305Z" style="fill:#24346c"/><path d="M1028.68,1110,1150.3,968.4l-75.93-3.86-29.2-66.1L888.41,1046.91l78.51,9.65Zm-14.24-141.48q8.13-9.19,19.28-8.57,13.23.72,31.22,16.65t20.3,29.08q1.92,10.88-6.22,20.06a24.2,24.2,0,0,1-20.28,8.6q-12.1-.66-30.32-16.77-17.87-15.82-20.2-29Q1006.28,977.67,1014.44,968.49Zm-47.54,62.43q.69-9.56,8.25-18.1,8.31-9.36,18.09-10.24a22.12,22.12,0,0,1,17.29,5.77,29.47,29.47,0,0,1,6.78,8.74,44.18,44.18,0,0,1,3.79,12,105.5,105.5,0,0,1,1,15.09q.18,10.41.54,13.46a27.48,27.48,0,0,0,1.18,5.46l21.32-24.08,11.26,10-37.65,42.5a39.08,39.08,0,0,1-8.43-14.86q-2.65-8.52-3.08-27.07c-.26-10-.73-16.39-1.45-19.23a17.88,17.88,0,0,0-5.21-9.08q-4.05-3.6-8.16-3.34t-7.52,4.09a10.77,10.77,0,0,0-3.06,8.06q.3,4.28,5.3,9.32l-11.91,11Q966.22,1040.47,966.9,1030.92Z" style="fill:#fff"/><path d="M1039.79,1005q11.13,9.87,16.29,12.44c3.44,1.71,6.12,2.4,8,2.09a8.17,8.17,0,0,0,4.85-2.69,8.07,8.07,0,0,0,2.07-5.17c.09-2-.79-4.35-2.65-7.12q-3.56-5.38-14.68-15.25t-16.3-12.43c-3.43-1.71-6.13-2.41-8.06-2.1a8,8,0,0,0-4.86,2.65,8.1,8.1,0,0,0-2.08,5.18c-.09,2,.8,4.35,2.65,7.13Q1028.66,995.09,1039.79,1005Z" style="fill:#fff"/><path d="M415,1237.12q-9.18-4.86-17.79-2.16t-14.64,14.1q-5.93,11.22-3.23,20.07t11.57,13.53q8.88,4.69,17.61,1.95t14.81-14.23q6-11.39,3.42-19.89T415,1237.12Z" style="fill:#fff"/><polygon points="711.14 1316.52 733.54 1312.95 717.87 1287.35 711.14 1316.52" style="fill:#fff"/><polygon points="958.53 1201.2 930.84 1189.61 942.46 1217.19 958.53 1201.2" style="fill:#fff"/><path d="M927,1135.56c-75.6,66.21-182.24,104.19-292.57,104.19s-217-38-292.57-104.18q-9-7.9-17.46-16.39l-106,80.72c99.6,109.43,251.86,173.64,416.07,173.64,97.87,0,191.16-22.66,271.67-64l-2.21-2q5.67-5.48,3.09-9.89l-6.47,3.77-4.69-8.06,14.59-8.51,2.31,4a26.11,26.11,0,0,1,3.54,8.44,12.37,12.37,0,0,1-1.13,7.1c-.1.22-.29.46-.4.68,53.69-28.8,101.44-66,140.65-110.53l-105.81-80.54Q938.84,1125.21,927,1135.56Zm-573.14,64.92a19,19,0,0,0-5.94-10.26q-6.72-6.36-15-6t-17.47,10.07q-9.75,10.31-9.78,18.56t6.57,14.52a18,18,0,0,0,11,5.14q6.12.54,13.3-4l8.62,14.56q-11.13,6.32-21.54,4.64t-20.12-10.88q-12-11.38-12.77-26.1t11.4-27.54q12.84-13.56,27.73-13.68t27.56,11.89q11.07,10.49,12.41,22.93.82,7.38-3.29,15.85L352,1211.38A15.7,15.7,0,0,0,353.87,1200.48Zm84.63,78.32q-8.46,16-22.92,19.93t-30.65-4.63q-16.4-8.65-21.31-22.78t3.42-29.9q5.34-10.1,12.33-15.17A35.13,35.13,0,0,1,391,1220.8a32.56,32.56,0,0,1,12.65-.93,50.25,50.25,0,0,1,17.22,5.76q16.26,8.58,21.21,22.81T438.5,1278.8Zm69.66,59.59L492,1333.74l-18.73-56.13-13.48,46.86-15-4.31,20.67-71.86,15.69,4.51,18.9,57.4,13.8-48,15,4.31Zm94.44-40.77-16.75-1.27q-.4-5.85-3.63-8.77T572,1283.84q-7.28-.84-11.69,1.36a5.32,5.32,0,0,0-3.19,4.3,5.57,5.57,0,0,0,2,4.8q2.87,2.75,14.74,6.75t17.38,7.44a22.59,22.59,0,0,1,8.24,8.61,21.5,21.5,0,0,1-3.42,23.71,23.41,23.41,0,0,1-12.11,7q-7.53,1.86-18.29.62-15.66-1.83-23.29-9.31T534.46,1319l16.39.47c.4,5,2,8.84,4.68,11.48s6.62,4.26,11.69,4.85c5.37.62,9.53.08,12.49-1.65s4.6-4,4.92-6.69a6.43,6.43,0,0,0-1.19-4.69,14.36,14.36,0,0,0-5.63-3.92q-2.82-1.24-13-4.79-13.07-4.54-18-9.54-6.9-7-5.87-15.83a17.9,17.9,0,0,1,4.82-10.2,22.13,22.13,0,0,1,11.18-6.32,45.91,45.91,0,0,1,16.55-.7q15.56,1.82,22.69,8.86A20.92,20.92,0,0,1,602.6,1297.62Zm55.59,53.09-16.77.41L639.9,1289l-24.66.6-.31-12.65,66.05-1.62.31,12.65-24.61.61Zm92.5-10.53-9.84-15.63L708,1329.77l-4.11,17.86-17.58,2.8,20.21-78.94,17.53-2.79,44.64,68.61Zm83.58-24.35-47.66-35.07,16,46.06-14.73,5.11-24.53-70.64,15.43-5.35,48.52,36-16.37-47.18,14.73-5.11,24.52,70.64Zm58.55-27.42-31.32-53.65-21.31,12.43-6.37-10.92,57-33.31,6.38,10.93L876,1226.3,907.31,1280Zm95.55-75.18-17.13-6.91-23.55,23.45,7.12,16.88-12.61,12.56-29.82-75.84L925,1170.84l76.35,29.51Z" style="fill:#fff"/><path d="M263.29,957.22a29.88,29.88,0,0,1-16.91.93,46.81,46.81,0,0,1-14.9-5.47l-11.23,9.49a55.91,55.91,0,0,0,22.87,8.07l-46.65,39.37L206.91,1022l64.85-54.72Z" style="fill:#24346c"/><path d="M286.54,1050.93q17.4-14.68,19.69-27.39a26.19,26.19,0,0,0-6-22.54q-7.62-9-18.55-9.79t-20.77,7.52q-9.42,8-10.64,18.45a22.78,22.78,0,0,0,5.21,18.11,19.32,19.32,0,0,0,15.27,7.1Q259,1051,253.21,1051.3t-9-3.55a8.83,8.83,0,0,1-2.36-6.37q.19-3.35,3.48-6.87l-11.43-10.86q-6.9,8.07-7,16.15t6.3,15.65q8.88,10.53,22.26,10.47T286.54,1050.93Zm-20.21-21.19a10.09,10.09,0,0,1-2.27-8.63q.84-4.93,7.1-10.23t10.79-5.21a9.37,9.37,0,0,1,7.53,3.41q3,3.63,2.06,9.16t-7,10.59c-3.64,3.08-7.09,4.61-10.34,4.56A10.06,10.06,0,0,1,266.33,1029.74Z" style="fill:#24346c"/><path d="M987.17,1039.41q-5-5-5.3-9.32a10.77,10.77,0,0,1,3.06-8.06q3.41-3.85,7.52-4.09t8.16,3.34a17.88,17.88,0,0,1,5.21,9.08c.72,2.84,1.19,9.25,1.45,19.23q.43,18.56,3.08,27.07a39.08,39.08,0,0,0,8.43,14.86l37.65-42.5-11.26-10-21.32,24.08a27.48,27.48,0,0,1-1.18-5.46q-.36-3.06-.54-13.46a105.5,105.5,0,0,0-1-15.09,44.18,44.18,0,0,0-3.79-12,29.47,29.47,0,0,0-6.78-8.74,22.12,22.12,0,0,0-17.29-5.77q-9.79.87-18.09,10.24-7.56,8.55-8.25,18.1t8.36,19.5Z" style="fill:#24346c"/><path d="M1028.42,1017.54q18.21,16.14,30.32,16.77a24.2,24.2,0,0,0,20.28-8.6q8.14-9.19,6.22-20.06-2.35-13.17-20.3-29.08t-31.22-16.65q-11.15-.63-19.28,8.57t-6.22,20Q1010.58,1001.71,1028.42,1017.54Zm-3.93-40.16a8,8,0,0,1,4.86-2.65c1.93-.31,4.63.39,8.06,2.1s8.88,5.86,16.3,12.43,12.31,11.66,14.68,15.25c1.86,2.77,2.74,5.15,2.65,7.12a8.07,8.07,0,0,1-2.07,5.17,8.17,8.17,0,0,1-4.85,2.69c-1.92.31-4.6-.38-8-2.09s-8.87-5.86-16.29-12.44-12.33-11.67-14.73-15.27c-1.85-2.78-2.74-5.16-2.65-7.13A8.1,8.1,0,0,1,1024.49,977.38Z" style="fill:#24346c"/><path d="M366.54,1220.22q4.11-8.46,3.29-15.85-1.33-12.43-12.41-22.93-12.68-12-27.56-11.89t-27.73,13.68Q290,1196,290.73,1210.77t12.77,26.1q9.71,9.21,20.12,10.88t21.54-4.64l-8.62-14.56q-7.17,4.52-13.3,4a18,18,0,0,1-11-5.14q-6.58-6.24-6.57-14.52t9.78-18.56q9.19-9.69,17.47-10.07t15,6a19,19,0,0,1,5.94,10.26,15.7,15.7,0,0,1-1.85,10.9Z" style="fill:#24346c"/><path d="M420.87,1225.63a50.25,50.25,0,0,0-17.22-5.76,32.56,32.56,0,0,0-12.65.93,35.13,35.13,0,0,0-11.63,5.45q-7,5.07-12.33,15.17-8.34,15.8-3.42,29.9t21.31,22.78q16.2,8.57,30.65,4.63t22.92-19.93q8.53-16.15,3.58-30.36T420.87,1225.63Zm2.46,44.75q-6.07,11.49-14.81,14.23t-17.61-1.95q-8.87-4.68-11.57-13.53t3.23-20.07q6-11.4,14.64-14.1t17.79,2.16q9.17,4.86,11.75,13.37T423.33,1270.38Z" style="fill:#24346c"/><polygon points="500.04 1310.21 481.14 1252.81 465.45 1248.3 444.78 1320.16 459.76 1324.47 473.24 1277.61 491.97 1333.74 508.16 1338.39 528.83 1266.53 513.85 1262.22 500.04 1310.21" style="fill:#24346c"/><path d="M573.56,1271.44a45.91,45.91,0,0,0-16.55.7,22.13,22.13,0,0,0-11.18,6.32,17.9,17.9,0,0,0-4.82,10.2q-1,8.82,5.87,15.83,4.89,5,18,9.54,10.14,3.56,13,4.79a14.36,14.36,0,0,1,5.63,3.92,6.43,6.43,0,0,1,1.19,4.69c-.32,2.73-2,5-4.92,6.69s-7.12,2.27-12.49,1.65q-7.61-.88-11.69-4.85c-2.71-2.64-4.28-6.47-4.68-11.48l-16.39-.47q.18,12.65,7.82,20.14t23.29,9.31q10.77,1.24,18.29-.62a23.41,23.41,0,0,0,12.11-7,21.5,21.5,0,0,0,3.42-23.71,22.59,22.59,0,0,0-8.24-8.61q-5.52-3.43-17.38-7.44T559,1294.3a5.57,5.57,0,0,1-2-4.8,5.32,5.32,0,0,1,3.19-4.3q4.43-2.21,11.69-1.36,7,.83,10.27,3.74t3.63,8.77l16.75,1.27a20.92,20.92,0,0,0-6.35-17.32Q589.11,1273.25,573.56,1271.44Z" style="fill:#24346c"/><polygon points="680.98 1275.35 614.93 1276.96 615.24 1289.61 639.9 1289.01 641.42 1351.12 658.19 1350.7 656.68 1288.6 681.29 1287.99 680.98 1275.35" style="fill:#24346c"/><path d="M706.55,1271.49l-20.21,78.94,17.58-2.8,4.11-17.86,32.82-5.22,9.84,15.63,18-2.87-44.64-68.61Zm4.59,45,6.73-29.17,15.67,25.6Z" style="fill:#24346c"/><polygon points="810.93 1244.78 827.3 1291.96 778.78 1255.94 763.35 1261.29 787.88 1331.93 802.61 1326.82 786.61 1280.76 834.27 1315.83 850.18 1310.31 825.66 1239.67 810.93 1244.78" style="fill:#24346c"/><polygon points="897.25 1213.89 890.87 1202.96 833.82 1236.27 840.19 1247.19 861.5 1234.76 892.82 1288.41 907.31 1279.95 876 1226.3 897.25 1213.89" style="fill:#24346c"/><path d="M912.38,1183.37l29.82,75.84,12.61-12.56-7.12-16.88,23.55-23.45,17.13,6.91,12.94-12.88L925,1170.84Zm46.15,17.83-16.07,16-11.62-27.58Z" style="fill:#24346c"/><polygon points="412.32 809.44 429.67 792.6 388.48 750.17 301.81 834.3 326.13 859.36 362.53 824.02 377.55 839.5 394.04 823.49 379.02 808.01 395.46 792.07 412.32 809.44" style="fill:#24346c"/><path d="M415.56,930.92l32.56,15.59,11.27-18.68,11.27,5.39L463,953.62,495.16,969l34.15-117.57-45.53-21.79Zm63.52-17.4-10.84-5.19q8.14-13.87,27.95-42.86Q485.54,893.87,479.08,913.52Z" style="fill:#24346c"/><path d="M633.2,920l.08-26.86a32.21,32.21,0,0,1,3.32.2V872.65c-4-.11-8.47-.18-13.47-.19l-24.71-.08-.34,120.79,34.92.1.15-54.46a32,32,0,0,1,3.45.18V919.84A31.55,31.55,0,0,1,633.2,920Z" style="fill:#24346c"/><polygon points="464.24 361.63 464.24 330.38 354.4 330.38 354.4 475.77 399.02 475.77 399.02 416.37 454.72 416.37 454.72 387.01 399.02 387.01 399.02 361.63 464.24 361.63" style="fill:#24346c"/><rect x="465.12" y="445.42" width="40.3" height="36.74" style="fill:#24346c"/><path d="M824.21,484.82q23,0,38.71-7.36t20.3-17.14q4.57-9.78,4.59-33.17v-5.86H833.39v18.93q0,12.4-1.87,15.76c-1.25,2.24-3.9,3.35-7.94,3.35-4.22,0-6.94-1.11-8.15-3.35s-1.82-7-1.82-14.32v-70q0-11.44,1.82-14.88t8.53-3.45c4,0,6.53.95,7.69,2.83s1.74,6.64,1.74,14.25v26.18h54.42V382.33q0-21.09-4.92-31.07t-20.55-16.67q-15.65-6.7-39.67-6.7-17.71,0-31.35,4.33T770,344.08q-7.69,7.53-9.25,15.67t-1.55,24.42v44q0,22.14,5,33.16t20.55,17.26Q800.31,484.82,824.21,484.82Z" style="fill:#fff"/><rect x="919.83" y="444.56" width="40.3" height="36.75" style="fill:#fff"/><path d="M627.89,305.44V215.35s-43.75,46.32-128.69,46.32-136.41-37.74-136.41-37.74l-94.37,74.64c54.9,1.72,114.1-32.6,114.1-32.6,29.17,20.59,68.64,38.61,96.09,38.61s42-5.16,81.51-16.31S627.89,305.44,627.89,305.44Z" style="fill:#24346c"/><polygon points="582.85 765.07 629.5 736.7 675.83 765.07 629.34 736.21 582.85 765.07" style="fill:#24346c"/><path d="M484.4,627.05,507.89,546l.85-.41-23.32-18a169.73,169.73,0,0,0-28.68,94.67c0,2.13.08,4.22.15,6.33l27.57-1.44Z" style="fill:#24346c"/><path d="M520.69,721.3l-21.2,13.8A170.46,170.46,0,0,0,585,787.45l-2.12-22.38Z" style="fill:#24346c"/><polygon points="588.68 561.08 670.32 561.08 696.23 520.96 670.63 485.31 589.41 485.31 563.43 521.98 588.68 561.08" style="fill:#fff"/><polygon points="521.36 664.86 557.58 644.35 584.19 564.19 558.83 524.91 510.48 548.43 509.94 548.68 487.78 625.19 487.88 625.29 521.36 664.86" style="fill:#fff"/><polygon points="748.99 547.89 700.67 524.39 674.97 564.19 694.31 622.45 701.58 644.35 738.75 665.39 771.73 626.41 748.99 547.89" style="fill:#fff"/><polygon points="523.92 669.67 524.39 720.57 582.95 761.81 626.45 734.79 626.45 697.96 559.66 649.44 523.92 669.67" style="fill:#fff"/><path d="M582.85,765.07l46.49-28.86,46.49,28.86,63.06-44.39v-51.8L699,646.3l-.18-.09-69.5,50.48-69.5-50.48L587,564.31l.16-.5h84.62l27.72-42.93L672,482.58H588l-12.44-22.87a170.91,170.91,0,0,0-90.14,67.85l23.32,18-.85.41L484.4,627.05l.06.07-27.57,1.44a169.85,169.85,0,0,0,42.6,106.54l21.2-13.8Zm49.06-66.88L699,649.44l37.13,21v48.79l-60.43,42.55L631.91,734.6Zm-5.46-.23v36.83l-43.5,27-58.56-41.24-.47-50.9,35.74-20.23Zm-37-212.65h81.22L696.23,521l-25.91,40.12H588.68L563.43,522ZM489.12,527a168.59,168.59,0,0,1,85.12-64l10.55,19.38-25.74,36.34-.44.21-49,23.84Zm20.82,21.71.53-.25,48.36-23.52,25.36,39.28-26.61,80.16-36.22,20.51-33.48-39.57-.1-.1ZM500,731.52a167,167,0,0,1-40.25-100.37l24.84-1.3,33.89,40,.45,49.31Z" style="fill:#24346c"/><polygon points="736.16 719.26 736.16 670.47 699.03 649.44 631.91 698.19 631.91 734.6 675.73 761.81 736.16 719.26" style="fill:#fff"/><path d="M585.73,766.52l1.77,18.75A168.53,168.53,0,0,0,627.25,790c2.94,0,6-.1,9.2-.27a167.54,167.54,0,0,0,34.84-5.63L673,766.51l-43.46-26.62Z" style="fill:#fff"/><path d="M675.83,765.07,629.5,736.7l-46.65,28.37L585,787.45a170.83,170.83,0,0,0,42.28,5.29c3.14,0,6.26-.1,9.35-.27a169.93,169.93,0,0,0,37.23-6.22Zm-4.54,19a167.54,167.54,0,0,1-34.84,5.63c-3.16.17-6.26.27-9.2.27a168.53,168.53,0,0,1-39.75-4.75l-1.77-18.75,43.76-26.63L673,766.51Z" style="fill:#24346c"/><path d="M794.78,630.83l-18.81-1-33.88,40-.46,49.32,15,9.76a167,167,0,0,0,38.13-98.14Z" style="fill:#fff"/><path d="M797.62,628.25l-22.86-1.2L751.28,546l19.8-15.29a171,171,0,0,0-87-69.24l-11.51,21.14,27.14,38.3L672,563.81l.16.5,19.59,59,7.6,22.9,40,22.67-.48,51.8,18.3,11.89A169.74,169.74,0,0,0,797.62,628.25ZM675.76,482.39l9.57-17.59a168.87,168.87,0,0,1,82.09,65.26L751,542.78l-49.44-24Zm63,183-37.17-21-7.27-21.9L675,564.19l25.7-39.8L749,547.9l22.74,78.51Zm2.88,53.82.46-49.32,33.88-40,18.81,1A167,167,0,0,1,756.65,729Z" style="fill:#24346c"/><path d="M751,542.78l16.47-12.72a168.87,168.87,0,0,0-82.09-65.26l-9.57,17.59,25.75,36.34Z" style="fill:#fff"/><path d="M484.58,629.85l-24.84,1.3A167,167,0,0,0,500,731.52l18.93-12.32-.45-49.31Z" style="fill:#fff"/><path d="M558.61,518.94l.44-.21,25.74-36.34L574.24,463a168.59,168.59,0,0,0-85.12,64l20.49,15.81Z" style="fill:#fff"/><path d="M642.06,941.14q1.7,2.33,1.67,12l-.11,40.12,32.43.1.08-31.86q.06-14.62-.82-17.88a18.14,18.14,0,0,0-4.42-7.13q-3.54-3.88-13.91-6.23,11.46-.93,15.36-5.77c2.6-3.23,3.93-9.54,3.95-18.95q0-15.44-5.46-22.5a23.24,23.24,0,0,0-14.24-8.81c-4.06-.8-10.76-1.34-20-1.61v20.69a10.12,10.12,0,0,1,5,1.62c1.52,1.2,2.27,3.71,2.25,7.55v6.64q0,8-2.39,9.42a11.78,11.78,0,0,1-4.86,1.27V939C639.4,939.3,641.24,940,642.06,941.14Z" style="fill:#fff"/><path d="M840.83,895.7,805.68,823l-31.44,15.21L813,918.36q3.91,8.13,4.12,10.73c.14,1.73-.8,3.08-2.78,4q-2.62,1.27-4.44-.3c-1.2-1.05-3-3.94-5.25-8.69L765.21,842.6l-31.44,15.21,31.13,64.34q8.88,18.4,12.41,23.79a24.43,24.43,0,0,0,10.14,8.56q6.6,3.19,16.45,2.4a58,58,0,0,0,20.67-6A53.39,53.39,0,0,0,840.25,940,30.43,30.43,0,0,0,848,926.34c1.24-4.93,1.35-9.22.34-12.84S844.81,903.94,840.83,895.7Z" style="fill:#fff"/><polygon points="949.97 824.17 879.4 758.18 855.55 783.69 943.78 866.18 982.13 825.17 964.48 808.65 949.97 824.17" style="fill:#fff"/></g></g></svg>