<?xml version="1.0" encoding="UTF-8" standalone="no"?>
<svg
   xmlns:dc="http://purl.org/dc/elements/1.1/"
   xmlns:cc="http://creativecommons.org/ns#"
   xmlns:rdf="http://www.w3.org/1999/02/22-rdf-syntax-ns#"
   xmlns:svg="http://www.w3.org/2000/svg"
   xmlns="http://www.w3.org/2000/svg"
   xmlns:sodipodi="http://sodipodi.sourceforge.net/DTD/sodipodi-0.dtd"
   xmlns:inkscape="http://www.inkscape.org/namespaces/inkscape"
   inkscape:version="1.0 (4035a4f, 2020-05-01)"
   sodipodi:docname="logo (13).svg"
   id="svg2622"
   version="1.1"
   viewBox="0 0 69 69"
   height="69"
   width="69">
  <metadata
     id="metadata2628">
    <rdf:RDF>
      <cc:Work
         rdf:about="">
        <dc:format>image/svg+xml</dc:format>
        <dc:type
           rdf:resource="http://purl.org/dc/dcmitype/StillImage" />
        <dc:title></dc:title>
      </cc:Work>
    </rdf:RDF>
  </metadata>
  <defs
     id="defs2626" />
  <sodipodi:namedview
     inkscape:current-layer="svg2622"
     inkscape:window-maximized="1"
     inkscape:window-y="25"
     inkscape:window-x="0"
     inkscape:cy="34.5"
     inkscape:cx="34.5"
     inkscape:zoom="8.4910823"
     inkscape:pagecheckerboard="true"
     showgrid="false"
     id="namedview2624"
     inkscape:window-height="793"
     inkscape:window-width="1440"
     inkscape:pageshadow="2"
     inkscape:pageopacity="0"
     guidetolerance="10"
     gridtolerance="10"
     objecttolerance="10"
     borderopacity="1"
     bordercolor="#666666"
     pagecolor="#ffffff" />
  <g
     id="g2620"
     fill="none"
     fill-rule="nonzero">
    <path
       id="path2610"
       d="M.23 34.5 34.496.235 68.76 34.5 34.495 68.765z"
       fill="#FFF" />
    <path
       style="fill:#502d7f;fill-opacity:1"
       id="path2612"
       d="M1.79 34.5 34.495 1.795 67.201 34.5 34.495 67.205z"
       fill="#5A348B" />
    <path
       id="path2614"
       d="M6.467 34.5 34.501 6.467 62.534 34.5 34.5 62.533z"
       fill="#FFF" />
    <path
       style="fill:#dc291e;fill-opacity:1"
       id="path2616"
       fill="#E2241C"
       d="m48.978 24.996-3.617-3.619a2.526 2.526 0 0 0-3.543-.037c-2 1.925-4.126 4.293-5.534 7.08.637-4.195 2.075-8.691 3.977-12.145L34.989 11l-5.272 5.275c1.902 3.461 3.34 7.957 3.976 12.145-1.415-2.794-3.534-5.155-5.534-7.08a2.526 2.526 0 0 0-3.542.037L21 24.997l5.864 5.866v-5.425c1.76.525 5.369 2.623 6.65 5.425h-2.3v1.191h2.554L31.634 33.8a1.173 1.173 0 0 0-.09 1.73l3.46 3.47 3.452-3.47a1.168 1.168 0 0 0-.09-1.73l-2.134-1.746h2.554v-1.191h-2.3c1.274-2.802 4.89-4.9 6.65-5.425v5.425L49 24.996h-.022z" />
    <path
       style="fill:#502d7f;fill-opacity:1"
       id="path2618"
       d="M11 35h14.1l9.4 9.2 9.4-9.2H58L34.5 58z"
       fill="#5A348B" />
  </g>
</svg>
