<?xml version="1.0" encoding="UTF-8" standalone="no"?>
<!-- Created with Inkscape (http://www.inkscape.org/) -->

<svg
   width="87.676552mm"
   height="87.676552mm"
   viewBox="0 0 87.676552 87.676552"
   version="1.1"
   id="svg5"
   xml:space="preserve"
   xmlns="http://www.w3.org/2000/svg"
   xmlns:svg="http://www.w3.org/2000/svg"><defs
     id="defs2" /><g
     id="layer1"
     transform="translate(-63.761301,-93.020835)"><g
       id="g236"
       transform="matrix(0.12525222,0,0,0.12525222,57.49869,86.758224)"><g
         id="g190">
	<circle
   fill="#85462c"
   cx="400"
   cy="400"
   r="350"
   id="circle182" />
	<path
   fill="#fff114"
   d="M 113.4,381.5 H 70 C 77.4,244 168.9,128.9 293.9,86.5 v 38.3 15.1 2.2 H 400 506.1 V 139.9 123.7 86.3 C 631.1,128.8 722.6,244 730,381.5 h -43.4 -6.8 -125.5 v -48 H 672.6 C 655.7,263.7 612.7,204 554.4,165.5 v 24.7 H 400 245.6 v -24.7 c -58.3,38.5 -101.2,98.1 -118.2,168 h 118.3 v 48 H 120.1 Z M 432.1,678.1 V 476.6 h 103.8 c 8.4,-14.7 14.4,-30.9 17.7,-48 H 432.1 V 286.3 H 594.9 C 584.6,268.6 572,252.4 557.5,238.3 H 400 242.6 c -14.5,14.1 -27.2,30.4 -37.4,48 H 368 V 428.5 H 246.4 c 3.2,17.2 9.3,33.3 17.7,48 H 367.9 V 678 C 237.3,663.1 134,558.6 120.9,427.5 H 70.7 C 84.9,596.9 226.9,730 400,730 573.1,730 715.1,596.9 729.3,427.5 H 679.1 C 666,558.6 562.7,663.2 432.1,678.1 Z M 480.8,75.4 c -8.8,3.5 -22.2,9.8 -45.5,12.8 0,0 -9.4,-26.8 -35.3,-26.8 -25.9,0 -35.3,26.8 -35.3,26.8 -23.3,-3 -36.7,-9.4 -45.5,-12.8 -8.8,-3.5 -12.3,5.6 10.1,30.9 22.4,25.3 51.7,27 70.6,27 18.9,0 48.1,-1.7 70.6,-27 22.6,-25.2 19.1,-34.4 10.3,-30.9 z"
   id="path184" />
	<path
   fill="#ffffff"
   d="m 624.4,548.3 c -2.5,-6.4 -7.1,-10.3 -10.5,-12.3 4.1,-10.3 2.1,-17.4 1,-20.1 -3,-7 -10.3,-12.3 -20.1,-14.7 -9.1,-2.2 -19.6,-1.7 -30,1.4 -2.9,-10.3 -10.9,-18.5 -21.4,-21.3 -11.2,-3 -23.1,0.8 -30.8,9.5 -9.3,-6.2 -20.4,-7.6 -29.9,-3.7 -2.6,-3.2 -9.2,-9.6 -19.5,-10.1 -3.4,-0.2 -15.3,0.1 -21.3,9.8 -5.3,8.7 -3.8,20.2 3.4,26.8 2,1.8 4.4,3.2 6.9,4.2 -1.3,2.7 -1.9,5.4 -1.9,8.1 0.1,6.3 3.8,12.6 10.6,17.8 5.7,4.4 13.2,7.5 20.2,8.5 3.5,0.6 7.2,0.6 10.8,0.1 -0.2,3.5 0.2,7.7 2.3,11.8 2.9,5.5 8.4,9.9 15.2,12 3,0.9 5.9,1.3 8.9,1.3 4.3,0 8.5,-1 12.1,-2.8 0,0 0,0 0,0.1 4.5,4.6 5.8,11.5 3.4,17.1 -3.2,7.5 -13.6,8.8 -18.1,9.1 -11.4,0.6 -22.2,-6.9 -22.2,-6.9 -5.3,-3.6 -9.1,-6.6 -12.9,-10 -4.8,-4.2 -8.7,-9.9 -10,-11.9 -4.5,-6.8 -17.2,-21.5 -36.3,-22.4 h -0.2 c -8.5,-0.5 -20.4,1 -28.8,10.1 -14.6,15.9 -4.7,40.1 -4.3,41.1 0.6,1.4 1.6,2.8 3,4.7 1.4,1.9 3.1,4.2 5.1,7.5 v 0.1 c 0.4,0.7 0.8,1.3 1.1,2 0,0.2 0.1,0.4 0.1,0.6 1.5,7.5 -1.7,18.8 -9.6,24.3 -5.5,3.8 -11.9,3.5 -18.1,3.3 -6.6,-0.3 -12.2,-2 -16.3,-3.3 -2.1,-0.7 -3.8,-1.2 -5.5,-1.9 -2.5,-1 -5.1,-1.9 -9.2,-3.1 -3.2,-1 -7.2,-2 -9.9,-2.4 -2.1,-0.3 -8.7,-0.9 -12,-0.8 -3.9,0.1 7.2,5.2 9.1,6.1 0,0 5.1,2.3 7.5,3.6 2.5,1.3 4,2.6 6,4.1 1.5,1.1 3.2,2.5 5.5,4.1 0.1,0.1 3.5,2.4 8.4,5.2 5.8,3.2 16,8.8 27.5,8.8 2.3,0 4.6,-0.2 7,-0.7 12.6,-2.6 18.3,-8.7 20.9,-13.5 6.2,-11.5 0.6,-24.7 -1.6,-29.7 -1.1,-2.4 -2.3,-4.8 -3.6,-7.1 -0.1,-0.4 -0.2,-0.9 -0.3,-1.4 -1.1,-7.6 0.6,-14.5 1.7,-17.4 2.5,-5.8 12.5,-14.6 30.2,-14.8 0.1,0 0.3,0 0.4,0 8.2,0 16.5,2.7 24.7,7.9 5.4,3.8 7.5,6.8 18.7,15.1 l 0.4,0.3 c 4.1,3.2 6,4.5 6.6,5 11.5,8.3 18.3,13.3 25.4,16.1 11.5,4.6 32.9,6.8 44.7,-6 l 0.1,-0.1 h 0.1 v 0 c 15,-0.1 27.7,-9.6 29.7,-22.1 1.1,-7.3 -1.6,-13.5 -4.2,-17.3 8.2,3.3 17.5,2.1 24,-3.7 8.3,-7.2 8.7,-18.2 5.8,-26.1 z"
   id="path186" />
	<path
   fill="#0284c6"
   d="m 624.4,548.3 c -2.5,-6.4 -7.1,-10.3 -10.5,-12.3 4.1,-10.3 2.1,-17.4 1,-20.1 -3,-7 -10.3,-12.3 -20.1,-14.7 -9.1,-2.2 -19.6,-1.7 -30,1.4 -2.9,-10.3 -10.9,-18.5 -21.4,-21.3 -11.2,-3 -23.1,0.8 -30.8,9.5 -9.3,-6.2 -20.4,-7.6 -29.9,-3.7 -2.6,-3.2 -9.2,-9.6 -19.5,-10.1 -3.4,-0.2 -15.3,0.1 -21.3,9.8 -5.3,8.7 -3.8,20.2 3.4,26.8 2,1.8 4.4,3.2 6.9,4.2 -1.3,2.7 -1.9,5.4 -1.9,8.1 0.1,6.3 3.8,12.6 10.6,17.8 5.7,4.4 13.2,7.5 20.2,8.5 3.5,0.6 7.2,0.6 10.8,0.1 -0.2,3.5 0.2,7.7 2.3,11.8 2.9,5.5 8.4,9.9 15.2,12 3,0.9 5.9,1.3 8.9,1.3 4.3,0 8.5,-1 12.1,-2.8 0,0 0,0 0,0.1 4.5,4.6 5.8,11.5 3.4,17.1 -3.2,7.5 -13.6,8.8 -18.1,9.1 -11.4,0.6 -22.2,-6.9 -22.2,-6.9 -5.3,-3.6 -9.1,-6.6 -12.9,-10 -4.8,-4.2 -8.7,-9.9 -10,-11.9 -4.5,-6.8 -17.2,-21.5 -36.3,-22.4 h -0.2 c -8.5,-0.5 -20.4,1 -28.8,10.1 -14.6,15.9 -4.7,40.1 -4.3,41.1 0.6,1.4 1.6,2.8 3,4.7 1.4,1.9 3.1,4.2 5.1,7.5 v 0.1 c 0.4,0.7 0.8,1.3 1.1,2 0,0.2 0.1,0.4 0.1,0.6 1.5,7.5 -1.7,18.8 -9.6,24.3 -5.5,3.8 -11.9,3.5 -18.1,3.3 -6.6,-0.3 -12.2,-2 -16.3,-3.3 -2.1,-0.7 -3.8,-1.2 -5.5,-1.9 -2.5,-1 -5.1,-1.9 -9.2,-3.1 -3.2,-1 -7.2,-2 -9.9,-2.4 -2.1,-0.3 -8.7,-0.9 -12,-0.8 -3.9,0.1 7.2,5.2 9.1,6.1 0,0 5.1,2.3 7.5,3.6 2.5,1.3 4,2.6 6,4.1 1.5,1.1 3.2,2.5 5.5,4.1 0.1,0.1 3.5,2.4 8.4,5.2 5.8,3.2 16,8.8 27.5,8.8 2.3,0 4.6,-0.2 7,-0.7 12.6,-2.6 18.3,-8.7 20.9,-13.5 6.2,-11.5 0.6,-24.7 -1.6,-29.7 -1.1,-2.4 -2.3,-4.8 -3.6,-7.1 -0.1,-0.4 -0.2,-0.9 -0.3,-1.4 -1.1,-7.6 0.6,-14.5 1.7,-17.4 2.5,-5.8 12.5,-14.6 30.2,-14.8 0.1,0 0.3,0 0.4,0 8.2,0 16.5,2.7 24.7,7.9 5.4,3.8 7.5,6.8 18.7,15.1 l 0.4,0.3 c 4.1,3.2 6,4.5 6.6,5 11.5,8.3 18.3,13.3 25.4,16.1 11.5,4.6 32.9,6.8 44.7,-6 l 0.1,-0.1 h 0.1 v 0 c 15,-0.1 27.7,-9.6 29.7,-22.1 1.1,-7.3 -1.6,-13.5 -4.2,-17.3 8.2,3.3 17.5,2.1 24,-3.7 8.3,-7.2 8.7,-18.2 5.8,-26.1 z m -207.7,79.6 c 1.7,5.3 3.1,12.5 -0.3,18.5 -1.9,3.5 -6.3,8.1 -16.5,10.2 -12.1,2.5 -23.8,-3.9 -30.1,-7.5 -2.4,-1.3 -4.3,-2.5 -5.7,-3.3 0.3,0.1 0.6,0.2 0.9,0.3 4.2,1.3 10.6,3.3 18.1,3.6 1.5,0.1 3.2,0.1 4.8,0.1 5.5,0 11.5,-0.7 17.2,-4.6 6.1,-4.1 9.9,-10.6 11.6,-17.3 z M 449,572.7 c -0.2,0 -0.3,0 -0.5,0 -6.7,0.1 -14.1,1.6 -20.2,4.3 -7.8,3.4 -13.4,8.4 -15.9,14.5 -1.1,2.5 -2,6.2 -2.4,10.5 -0.1,-0.1 -0.1,-0.2 -0.2,-0.3 -1.1,-1.4 -1.9,-2.6 -2.2,-3.3 -0.1,-0.2 -8.8,-21.4 3.1,-34.2 5.4,-5.8 13.4,-8.6 23.8,-8 h 0.2 c 16.2,0.9 27.3,14 31.3,19.8 v 0 c -5.7,-2.3 -11.4,-3.3 -17,-3.3 z m 1,-63.8 c -5.7,-5.3 -5.4,-13.6 -2.3,-18.7 4.1,-6.8 12.9,-6.9 15.5,-6.8 6.8,0.3 11.6,4.2 13.8,6.8 -7.7,5.2 -11.3,12.5 -11.3,18.4 0,1 0.1,1.8 0.3,2.8 -5.5,2.4 -11.8,1.4 -16,-2.5 z m 78.3,59.8 c -4.7,2.6 -10.9,3.1 -16.6,1.2 -5.2,-1.6 -9.3,-4.8 -11.4,-8.8 -2.2,-4.3 -1.7,-9 -1.1,-12.1 0.3,-1.1 -0.1,-2.3 -0.9,-3.1 -0.8,-0.8 -1.9,-1.1 -3.1,-0.9 -4.4,1.1 -8.7,1.3 -13,0.7 -14.8,-2.2 -25.3,-12.3 -25.4,-20 0,-2.2 0.7,-4.5 2.1,-6.8 0.2,0 0.4,0 0.6,0 2.9,0 5.7,-0.6 8.5,-1.7 1.5,2.8 3.8,5.3 6.8,7.5 4.9,3.7 11.4,6.4 17.3,7.1 3.4,0.4 6.9,0.2 10.2,-0.6 -0.7,5.3 -0.5,13.1 4.2,19.9 4.9,7 13.5,11.5 22.9,12 1.5,0.1 3.1,0.1 4.5,0 -1.1,2.2 -3,4.1 -5.6,5.6 z m 36.5,44.4 c -8.5,9.2 -25.7,9.1 -37.5,4.4 -4.9,-1.9 -9.8,-5.2 -16.7,-10 2.1,0.2 4.2,0.2 6.5,-0.1 5.1,-0.6 18.5,-1.9 23.2,-12.9 3.3,-7.8 1.7,-17 -4.1,-23.5 3.2,-3.1 5.3,-6.5 6.4,-9.3 0.1,-0.2 0.1,-0.3 0.1,-0.5 1,-0.4 1.8,-0.9 2.6,-1.4 -0.1,8.6 5.8,17.7 13.3,22.2 3,1.8 6.2,2.9 9.6,3.3 l -0.2,0.1 c 1.6,2.6 3.4,6.8 3.4,12 0,0.1 -0.2,8.8 -6.6,15.7 z M 593,594.3 c -1.3,8.1 -9,14.6 -18.7,16.2 3.4,-6.7 3.5,-12.7 3.5,-13.1 0.1,-4.9 -1.1,-9.1 -2.6,-12.2 4.7,-0.6 9.4,-2.2 13.8,-5 1.8,2.7 5,8.1 4,14.1 z m 21.8,-24.9 c -5.3,4.9 -13.7,5.3 -20.2,1 -1.2,-0.9 -3,-0.7 -4,0.4 -8.5,8.2 -20.5,10.5 -28.7,5.5 -7,-4.2 -12.5,-14.3 -9.1,-20.9 1.8,-3.6 6.2,-6.7 10.7,-6.7 0.9,0 1.8,0.1 2.7,0.4 4.2,1.2 7.5,5.2 8.1,10 0.3,1.8 1.9,3 3.7,2.8 1.8,-0.3 3,-1.9 2.8,-3.7 -1.1,-7.4 -6.1,-13.4 -12.7,-15.3 -5.1,-1.4 -10.1,-0.3 -14.1,2.2 0.5,-4.6 -0.6,-8.9 -3.2,-12.2 -5.8,-7.8 -16.8,-9.6 -25,-4.2 -1.5,1 -1.9,3 -1,4.5 1,1.5 3,1.9 4.5,1 5.3,-3.5 12.6,-2.3 16.2,2.7 2.4,3.2 3.2,10.5 -1.5,15.7 -2.9,3.2 -8,4.8 -13.9,4.4 -7.5,-0.5 -14.4,-4 -18.1,-9.3 -5.3,-7.6 -3,-17.3 -2.1,-20 0.4,-1.2 0,-2.5 -1,-3.3 -1,-0.9 -2.3,-1.1 -3.4,-0.6 -4.2,1.7 -8.4,2.4 -12.6,1.9 -8.5,-1 -20.7,-7.6 -20.8,-17 0,-7.9 8.5,-13.7 13.1,-15.5 8.2,-3.4 18.1,-1.6 26,4.7 0.7,0.6 1.6,0.8 2.5,0.7 0.9,-0.1 1.7,-0.6 2.2,-1.3 5.8,-8.2 16.1,-12 25.8,-9.5 9.2,2.5 16,10.2 17.5,19.8 0.1,1 0.7,1.8 1.5,2.3 0.9,0.5 1.8,0.6 2.8,0.3 17.5,-6.3 39.8,-4.4 45.5,8.6 1,2.1 2.6,8 -2.1,17.6 -0.4,0.8 -0.5,1.7 -0.1,2.5 0.3,0.9 1,1.5 1.7,1.8 2.2,1 7.5,3.9 9.9,10.2 2.1,5.6 1.9,13.6 -3.6,18.5 z"
   id="path188" />
</g><g
         id="g192">
</g><g
         id="g194">
</g><g
         id="g196">
</g><g
         id="g198">
</g><g
         id="g200">
</g><g
         id="g202">
</g><g
         id="g204">
</g><g
         id="g206">
</g><g
         id="g208">
</g><g
         id="g210">
</g><g
         id="g212">
</g></g></g></svg>
