<?xml version="1.0" encoding="UTF-8"?>
<svg xmlns="http://www.w3.org/2000/svg" xmlns:xlink="http://www.w3.org/1999/xlink" width="448.6pt" height="567pt" viewBox="0 0 448.6 567" version="1.1">
<g id="surface1">
<path style=" stroke:none;fill-rule:evenodd;fill:rgb(0%,41.967773%,68.554688%);fill-opacity:1;" d="M 1.832031 134.144531 C 39.746094 111.5625 94.917969 86.847656 163.53125 69.398438 C 183.925781 64.210938 203.832031 64.59375 223.488281 64.570313 C 244.300781 64.542969 265.253906 64.515625 285.671875 69.621094 C 335.183594 82 391.371094 102.386719 446.324219 134.144531 C 448.644531 194.453125 440.632813 249.1875 428.140625 296.085938 C 407.09375 375.105469 371.410156 434.320313 333.0625 478.179688 C 295.609375 521.019531 255.605469 549.210938 224.207031 566.910156 C 205.539063 556.574219 181.578125 541.015625 156.292969 519.175781 C 104.519531 474.457031 47.195313 402.539063 18.398438 289.121094 C 6.847656 243.628906 0.0546875 190.367188 1.832031 134.144531 Z M 1.832031 134.144531 "/>
<path style=" stroke:none;fill-rule:evenodd;fill:rgb(100%,85.9375%,3.921509%);fill-opacity:1;" d="M 13.167969 140.625 C 11.773438 189.871094 17.1875 238.464844 29.328125 286.273438 C 57.898438 398.792969 123.152344 495.796875 224.160156 553.882813 C 322.300781 496.488281 387.753906 402.792969 416.96875 293.109375 C 430.175781 243.523438 436.328125 191.992188 434.980469 140.703125 C 388.554688 114.222656 335.726563 94.054688 282.867188 80.835938 C 263.566406 76.007813 243.273438 76.101563 223.503906 76.128906 C 204.273438 76.152344 185.179688 75.820313 166.378906 80.601563 C 114.335938 93.839844 60.042969 113.621094 13.167969 140.625 Z M 13.167969 140.625 "/>
<path style=" stroke:none;fill-rule:evenodd;fill:rgb(0%,41.967773%,68.554688%);fill-opacity:1;" d="M 20.359375 144.921875 C 19.390625 192.046875 24.789063 238.761719 36.398438 284.480469 C 50.847656 341.394531 74.867188 394.410156 108.425781 440.265625 L 108.425781 105.621094 C 77.910156 116.3125 48.027344 129.316406 20.359375 144.921875 Z M 339.261719 440.515625 C 371.707031 396.464844 395.386719 345.808594 409.921875 291.230469 C 422.597656 243.648438 428.683594 194.257813 427.78125 145.015625 C 399.765625 129.339844 369.882813 116.140625 339.261719 105.355469 Z M 339.261719 440.515625 "/>
<path style=" stroke:none;fill-rule:evenodd;fill:rgb(100%,85.9375%,3.921509%);fill-opacity:1;" d="M 383.976563 189.253906 L 392.476563 206.179688 L 411.203125 209.035156 L 397.734375 222.351563 L 400.804688 241.042969 L 383.976563 232.34375 L 367.148438 241.042969 L 370.222656 222.351563 L 356.75 209.035156 L 375.476563 206.179688 Z M 383.976563 189.253906 "/>
<path style=" stroke:none;fill-rule:evenodd;fill:rgb(100%,100%,100%);fill-opacity:1;" d="M 50.515625 219.277344 L 50.515625 237.75 C 50.515625 238.707031 51.109375 239.359375 52.28125 239.703125 C 52.875 239.871094 53.238281 240.058594 53.394531 240.265625 C 53.550781 240.484375 53.625 240.949219 53.625 241.675781 C 53.625 242.820313 53.539063 243.484375 53.363281 243.691406 C 53.195313 243.890625 52.769531 243.996094 52.105469 243.996094 L 38.195313 243.996094 C 37.425781 243.996094 36.917969 243.839844 36.6875 243.527344 C 36.449219 243.203125 36.335938 242.5625 36.335938 241.59375 C 36.335938 240.941406 36.386719 240.523438 36.5 240.359375 C 36.617188 240.179688 36.949219 239.972656 37.488281 239.734375 C 38.246094 239.414063 38.714844 239.132813 38.890625 238.894531 C 39.078125 238.664063 39.160156 238.3125 39.160156 237.84375 L 39.160156 201.074219 C 39.160156 200.546875 39.058594 200.140625 38.847656 199.859375 C 38.632813 199.578125 38.175781 199.277344 37.457031 198.976563 C 36.957031 198.757813 36.699219 198.257813 36.699219 197.480469 C 36.699219 197.40625 36.710938 196.960938 36.730469 196.152344 C 36.855469 195.289063 37.34375 194.863281 38.195313 194.863281 L 57.1875 194.863281 C 57.757813 194.863281 58.152344 194.957031 58.371094 195.144531 C 58.601563 195.320313 58.765625 195.765625 58.890625 196.484375 C 58.910156 196.597656 58.941406 196.773438 58.984375 197.003906 L 60.355469 203.753906 C 60.429688 204.183594 60.46875 204.546875 60.46875 204.847656 C 60.46875 205.5 59.980469 205.824219 59.015625 205.824219 C 57.714844 205.824219 56.90625 205.585938 56.574219 205.097656 C 56.25 204.609375 55.742188 203.402344 55.058594 201.46875 C 54.632813 200.296875 54.207031 199.507813 53.789063 199.101563 C 53.375 198.695313 52.730469 198.488281 51.855469 198.488281 C 51.617188 198.488281 51.171875 198.519531 50.515625 198.582031 L 50.515625 215.964844 L 52.074219 215.964844 C 52.886719 215.964844 53.445313 215.777344 53.757813 215.402344 C 54.082031 215.019531 54.308594 214.375 54.445313 213.46875 C 54.632813 212.429688 54.796875 211.765625 54.964844 211.476563 C 55.128906 211.175781 55.792969 211.027344 56.96875 211.027344 C 57.777344 211.027344 58.277344 211.113281 58.445313 211.277344 C 58.621094 211.433594 58.703125 211.746094 58.703125 212.210938 L 58.703125 223.234375 C 58.703125 223.703125 58.632813 224.003906 58.464844 224.152344 C 58.296875 224.296875 57.777344 224.359375 56.90625 224.359375 C 55.855469 224.359375 55.191406 224.191406 54.921875 223.847656 C 54.640625 223.496094 54.433594 222.652344 54.296875 221.3125 C 54.132813 219.964844 53.394531 219.277344 52.074219 219.277344 Z M 50.515625 219.277344 "/>
<path style=" stroke:none;fill-rule:evenodd;fill:rgb(100%,100%,100%);fill-opacity:1;" d="M 83.964844 208.691406 L 91.847656 237.75 C 92.109375 238.746094 92.617188 239.433594 93.367188 239.796875 C 93.855469 240.035156 94.09375 240.585938 94.09375 241.4375 C 94.09375 241.542969 94.0625 242.144531 94.011719 243.265625 C 93.949219 243.753906 93.523438 243.996094 92.730469 243.996094 L 80.617188 243.996094 C 80.171875 243.996094 79.871094 243.910156 79.734375 243.753906 C 79.589844 243.589844 79.515625 243.140625 79.515625 242.414063 C 79.515625 242.289063 79.539063 241.761719 79.578125 240.824219 C 79.640625 240.460938 79.878906 240.203125 80.304688 240.035156 C 80.960938 239.816406 81.28125 239.445313 81.28125 238.914063 C 81.28125 238.769531 81.261719 238.589844 81.21875 238.394531 L 76.960938 223.050781 L 75.921875 225.335938 L 75.921875 237.75 C 75.921875 238.789063 76.378906 239.578125 77.292969 240.128906 C 77.675781 240.347656 77.875 240.855469 77.875 241.644531 C 77.875 242.582031 77.792969 243.203125 77.625 243.527344 C 77.46875 243.839844 77.074219 243.996094 76.441406 243.996094 L 63.695313 243.996094 C 63.226563 243.996094 62.894531 243.902344 62.714844 243.703125 C 62.53125 243.515625 62.445313 242.964844 62.445313 242.074219 C 62.445313 241.179688 62.507813 240.617188 62.65625 240.390625 C 62.800781 240.148438 63.070313 239.941406 63.476563 239.765625 C 64.222656 239.453125 64.609375 238.914063 64.609375 238.125 L 64.609375 201.5625 C 64.609375 200.648438 64.234375 199.972656 63.507813 199.527344 C 63.019531 199.214844 62.726563 198.976563 62.625 198.777344 C 62.519531 198.582031 62.46875 198.1875 62.46875 197.574219 C 62.46875 196.191406 62.519531 195.402344 62.625 195.183594 C 62.726563 194.976563 63.019531 194.863281 63.507813 194.863281 L 77.386719 194.863281 C 78.042969 194.863281 78.363281 195.132813 78.363281 195.664063 C 78.363281 197.304688 78.332031 198.25 78.269531 198.507813 C 78.207031 198.757813 77.917969 199.039063 77.386719 199.339844 C 76.410156 199.847656 75.921875 200.492188 75.921875 201.292969 L 75.921875 216.910156 L 82.558594 201.832031 C 82.925781 201.003906 83.109375 200.378906 83.109375 199.953125 C 83.109375 199.683594 82.863281 199.371094 82.375 199.007813 C 81.855469 198.644531 81.53125 198.320313 81.417969 198.0625 C 81.304688 197.800781 81.25 197.128906 81.25 196.058594 C 81.25 195.269531 81.542969 194.863281 82.132813 194.863281 L 90.195313 194.863281 C 90.664063 194.863281 90.957031 194.957031 91.050781 195.144531 C 91.152344 195.320313 91.203125 195.847656 91.203125 196.722656 C 91.203125 197.65625 91.140625 198.230469 91.007813 198.425781 C 90.871094 198.632813 90.46875 198.871094 89.769531 199.164063 C 89.25 199.359375 88.910156 199.527344 88.773438 199.640625 C 88.628906 199.765625 88.453125 200.035156 88.253906 200.441406 Z M 83.964844 208.691406 "/>
<path style=" stroke:none;fill-rule:evenodd;fill:rgb(3.921509%,7.446289%,4.704285%);fill-opacity:1;" d="M 133.097656 215.933594 L 137.96875 215.933594 L 137.96875 200.617188 C 137.96875 200.128906 137.917969 199.808594 137.824219 199.640625 C 137.742188 199.484375 137.492188 199.277344 137.085938 199.039063 C 136.640625 198.789063 136.410156 198.230469 136.410156 197.335938 C 136.410156 196.191406 136.464844 195.507813 136.566406 195.246094 C 136.671875 194.996094 136.953125 194.863281 137.417969 194.863281 L 150.625 194.863281 C 151.21875 194.863281 151.570313 194.976563 151.695313 195.183594 C 151.820313 195.402344 151.871094 196.097656 151.871094 197.273438 C 151.871094 197.980469 151.808594 198.40625 151.675781 198.539063 C 151.550781 198.664063 151.132813 198.902344 150.449219 199.246094 C 149.691406 199.652344 149.316406 200.285156 149.316406 201.136719 L 149.316406 237.574219 C 149.316406 238.53125 149.753906 239.289063 150.625 239.859375 C 151.339844 240.304688 151.695313 240.710938 151.695313 241.074219 L 151.695313 242.988281 C 151.695313 243.390625 151.632813 243.660156 151.507813 243.796875 C 151.394531 243.933594 151.03125 243.996094 150.449219 243.996094 L 137.171875 243.996094 C 136.722656 243.996094 136.453125 243.910156 136.351563 243.753906 C 136.257813 243.589844 136.203125 242.839844 136.203125 241.5 C 136.203125 240.824219 136.472656 240.304688 137.023438 239.910156 C 137.648438 239.464844 137.96875 238.957031 137.96875 238.363281 L 137.96875 219.371094 L 133.097656 219.371094 L 133.097656 238.550781 C 133.097656 239.195313 133.359375 239.714844 133.886719 240.097656 C 134.417969 240.523438 134.675781 241.125 134.675781 241.894531 C 134.675781 242.964844 134.613281 243.589844 134.5 243.753906 C 134.375 243.910156 134.125 243.996094 133.761719 243.996094 L 120.402344 243.996094 C 119.976563 243.996094 119.714844 243.902344 119.613281 243.722656 C 119.507813 243.535156 119.457031 242.820313 119.457031 241.5625 C 119.457031 240.972656 119.507813 240.585938 119.613281 240.398438 C 119.714844 240.222656 119.996094 239.996094 120.464844 239.734375 C 121.316406 239.289063 121.742188 238.683594 121.742188 237.9375 L 121.742188 201.136719 C 121.742188 200.546875 121.367188 199.996094 120.621094 199.464844 C 119.863281 198.914063 119.488281 198.136719 119.488281 197.117188 C 119.488281 196.046875 119.582031 195.402344 119.746094 195.183594 C 119.925781 194.976563 120.296875 194.863281 120.890625 194.863281 L 133.367188 194.863281 C 133.917969 194.863281 134.292969 194.964844 134.5 195.152344 C 134.699219 195.351563 134.800781 195.796875 134.800781 196.515625 L 134.800781 197.9375 C 134.761719 198.3125 134.511719 198.632813 134.042969 198.914063 C 133.410156 199.257813 133.097656 199.828125 133.097656 200.617188 Z M 133.097656 215.933594 "/>
<path style=" stroke:none;fill-rule:evenodd;fill:rgb(3.921509%,7.446289%,4.704285%);fill-opacity:1;" d="M 155.574219 194.863281 L 168.757813 194.863281 C 169.203125 194.863281 169.484375 194.964844 169.609375 195.152344 C 169.722656 195.351563 169.785156 195.941406 169.785156 196.941406 C 169.785156 197.925781 169.496094 198.59375 168.902344 198.914063 C 168.457031 199.164063 168.152344 199.414063 168.007813 199.671875 C 167.851563 199.941406 167.78125 200.453125 167.78125 201.199219 L 167.78125 235.289063 C 167.78125 236.222656 168.039063 236.980469 168.570313 237.554688 C 169.097656 238.132813 169.765625 238.425781 170.574219 238.425781 C 171.332031 238.425781 171.96875 238.101563 172.496094 237.449219 C 173.027344 236.804688 173.285156 236.078125 173.285156 235.289063 L 173.285156 201.199219 C 173.285156 200.609375 173.234375 200.203125 173.121094 199.964844 C 173.007813 199.734375 172.726563 199.445313 172.277344 199.101563 C 171.59375 198.570313 171.25 197.761719 171.25 196.660156 C 171.25 195.808594 171.34375 195.296875 171.542969 195.121094 C 171.726563 194.957031 172.007813 194.863281 172.371094 194.863281 L 178.949219 194.863281 C 179.675781 194.863281 180.039063 195.238281 180.039063 195.964844 L 180.039063 197.429688 C 180.039063 198.074219 180.007813 198.488281 179.925781 198.65625 C 179.84375 198.832031 179.601563 198.988281 179.21875 199.132813 C 178.273438 199.453125 177.796875 200.109375 177.796875 201.105469 L 177.796875 234.3125 C 177.796875 237.460938 176.890625 239.953125 175.085938 241.792969 C 173.277344 243.621094 170.761719 244.546875 167.53125 244.546875 C 163.925781 244.546875 161.171875 243.566406 159.269531 241.613281 C 157.371094 239.671875 156.425781 236.855469 156.425781 233.1875 L 156.425781 201.105469 C 156.425781 200.253906 155.976563 199.621094 155.085938 199.214844 C 154.636719 199.019531 154.367188 198.832031 154.285156 198.65625 C 154.191406 198.488281 154.140625 198.113281 154.140625 197.542969 C 154.140625 196.367188 154.210938 195.632813 154.355469 195.320313 C 154.492188 195.019531 154.90625 194.863281 155.574219 194.863281 Z M 155.574219 194.863281 "/>
<path style=" stroke:none;fill-rule:evenodd;fill:rgb(3.921509%,7.446289%,4.704285%);fill-opacity:1;" d="M 204.824219 194.863281 L 215.597656 194.863281 C 216.335938 194.863281 216.800781 194.976563 217.03125 195.183594 C 217.25 195.402344 217.363281 195.941406 217.363281 196.816406 C 217.363281 197.605469 217.289063 198.15625 217.136719 198.476563 C 216.988281 198.789063 216.617188 199.089844 216.023438 199.371094 C 215.492188 199.621094 215.160156 199.878906 215.027344 200.160156 C 214.878906 200.453125 214.808594 200.917969 214.808594 201.5625 L 214.808594 237.699219 C 214.808594 238.21875 214.871094 238.601563 214.996094 238.851563 C 215.109375 239.089844 215.453125 239.351563 215.992188 239.609375 C 216.75 239.972656 217.125 240.472656 217.125 241.105469 C 217.125 242.683594 217.074219 243.558594 216.96875 243.734375 C 216.863281 243.910156 216.511719 243.996094 215.910156 243.996094 L 202.328125 243.996094 C 201.738281 243.996094 201.445313 243.496094 201.445313 242.5 C 201.445313 241.644531 201.476563 241.011719 201.539063 240.597656 C 201.601563 240.179688 201.976563 239.847656 202.664063 239.578125 C 203.429688 239.277344 203.816406 238.738281 203.816406 237.96875 L 203.816406 212.335938 L 198.339844 233.035156 L 194.996094 233.035156 L 189.601563 212.980469 L 189.601563 237.875 C 189.601563 238.683594 189.964844 239.289063 190.703125 239.671875 C 191.597656 240.117188 192.042969 240.910156 192.042969 242.042969 C 192.042969 243.339844 191.597656 243.996094 190.703125 243.996094 L 184.097656 243.996094 C 183.347656 243.996094 182.972656 243.371094 182.972656 242.132813 C 182.972656 241.261719 183.285156 240.597656 183.910156 240.128906 C 184.378906 239.746094 184.679688 239.433594 184.792969 239.203125 C 184.917969 238.964844 184.980469 238.558594 184.980469 237.96875 L 184.980469 202.808594 C 184.980469 201.832031 184.898438 201.097656 184.71875 200.578125 C 184.542969 200.058594 184.179688 199.632813 183.609375 199.308594 C 183.003906 198.988281 182.695313 198.65625 182.695313 198.3125 L 182.726563 197.003906 C 182.746094 196.046875 182.808594 195.453125 182.921875 195.214844 C 183.035156 194.988281 183.308594 194.863281 183.734375 194.863281 L 194.996094 194.863281 L 199.867188 213.679688 Z M 204.824219 194.863281 "/>
<path style=" stroke:none;fill-rule:evenodd;fill:rgb(3.921509%,7.446289%,4.704285%);fill-opacity:1;" d="M 233.429688 198.613281 L 233.429688 215.996094 L 235.496094 215.996094 C 236.066406 215.996094 236.484375 215.871094 236.742188 215.632813 C 237.003906 215.382813 237.210938 214.851563 237.355469 214.042969 C 237.59375 212.609375 237.792969 211.734375 237.949219 211.453125 C 238.09375 211.175781 238.332031 211.027344 238.664063 211.027344 C 240.265625 211.027344 241.167969 211.089844 241.386719 211.226563 C 241.59375 211.359375 241.707031 211.871094 241.707031 212.761719 L 241.707031 222.902344 C 241.707031 223.527344 241.605469 223.941406 241.398438 224.128906 C 241.199219 224.328125 240.566406 224.421875 239.515625 224.421875 C 238.820313 224.421875 238.363281 224.296875 238.125 224.046875 C 237.894531 223.785156 237.667969 223.070313 237.4375 221.894531 C 237.21875 220.824219 237.003906 220.160156 236.785156 219.921875 C 236.578125 219.671875 236.242188 219.546875 235.796875 219.546875 L 233.429688 219.546875 L 233.429688 240.523438 L 235.039063 240.523438 C 236.035156 240.523438 236.722656 240.242188 237.097656 239.683594 C 237.46875 239.132813 238.074219 237.523438 238.902344 234.863281 C 239.246094 233.75 239.597656 233.011719 239.972656 232.667969 C 240.335938 232.328125 240.972656 232.148438 241.886719 232.148438 C 243.140625 232.148438 243.777344 232.554688 243.777344 233.375 C 243.777344 233.617188 243.734375 233.96875 243.652344 234.4375 L 242.53125 241.34375 C 242.320313 242.601563 242.15625 243.359375 242.019531 243.609375 C 241.894531 243.871094 241.480469 243.996094 240.792969 243.996094 L 220.492188 243.996094 C 219.984375 243.996094 219.652344 243.878906 219.515625 243.640625 C 219.371094 243.414063 219.296875 242.738281 219.296875 241.613281 C 219.296875 240.910156 219.660156 240.390625 220.398438 240.066406 C 221.511719 239.597656 222.074219 238.964844 222.074219 238.144531 L 222.074219 200.191406 C 222.050781 199.808594 221.59375 199.421875 220.703125 199.039063 C 220.089844 198.769531 219.734375 198.519531 219.621094 198.28125 C 219.507813 198.03125 219.453125 197.449219 219.453125 196.515625 C 219.453125 195.726563 219.515625 195.246094 219.640625 195.089844 C 219.753906 194.945313 220.109375 194.863281 220.703125 194.863281 L 240.121094 194.863281 C 240.609375 194.863281 240.960938 194.945313 241.1875 195.113281 C 241.40625 195.277344 241.585938 195.664063 241.707031 196.265625 L 243.257813 204.121094 C 243.339844 204.523438 243.382813 204.804688 243.382813 204.941406 C 243.382813 205.492188 242.894531 205.761719 241.917969 205.761719 C 240.824219 205.761719 240.089844 205.636719 239.722656 205.386719 C 239.359375 205.128906 239.007813 204.492188 238.664063 203.484375 C 238.03125 201.65625 237.492188 200.390625 237.035156 199.671875 C 236.578125 198.964844 236.066406 198.613281 235.496094 198.613281 Z M 233.429688 198.613281 "/>
<path style=" stroke:none;fill-rule:evenodd;fill:rgb(3.921509%,7.446289%,4.704285%);fill-opacity:1;" d="M 253.953125 216.140625 L 253.953125 237.636719 C 253.953125 238.53125 254.464844 239.195313 255.480469 239.640625 C 256.335938 240.027344 256.761719 240.574219 256.761719 241.28125 C 256.761719 242.769531 256.730469 243.589844 256.65625 243.753906 C 256.582031 243.910156 256.28125 243.996094 255.753906 243.996094 L 247.660156 243.996094 C 247.253906 243.996094 247.003906 243.839844 246.902344 243.527344 C 246.796875 243.203125 246.746094 242.4375 246.746094 241.1875 C 246.746094 240.628906 247.015625 240.234375 247.566406 240.003906 C 248.625 239.535156 249.15625 239.019531 249.15625 238.425781 L 249.15625 202.445313 C 249.15625 201.574219 249.070313 200.917969 248.90625 200.484375 C 248.75 200.046875 248.375 199.683594 247.816406 199.402344 C 247.304688 199.164063 246.960938 198.894531 246.796875 198.613281 C 246.621094 198.320313 246.535156 197.792969 246.535156 197.003906 C 246.535156 195.578125 246.910156 194.863281 247.660156 194.863281 L 256.117188 194.863281 L 266.351563 218.582031 L 266.351563 201.105469 C 266.351563 200.128906 265.851563 199.445313 264.855469 199.039063 C 264.273438 198.769531 263.886719 198.476563 263.710938 198.136719 C 263.542969 197.800781 263.460938 197.148438 263.460938 196.171875 C 263.460938 195.570313 263.511719 195.195313 263.636719 195.070313 C 263.761719 194.933594 263.992188 194.863281 264.335938 194.863281 L 272.738281 194.863281 C 273.207031 194.925781 273.433594 195.601563 273.433594 196.878906 C 273.433594 197.625 273.394531 198.105469 273.300781 198.3125 C 273.207031 198.507813 273 198.6875 272.675781 198.820313 C 271.96875 199.113281 271.523438 199.382813 271.335938 199.640625 C 271.160156 199.910156 271.066406 200.273438 271.066406 200.742188 L 271.066406 243.996094 L 265.894531 243.996094 Z M 253.953125 216.140625 "/>
<path style=" stroke:none;fill-rule:evenodd;fill:rgb(3.921509%,7.446289%,4.704285%);fill-opacity:1;" d="M 283.363281 216.140625 L 283.363281 237.636719 C 283.363281 238.53125 283.871094 239.195313 284.890625 239.640625 C 285.742188 240.027344 286.167969 240.574219 286.167969 241.28125 C 286.167969 242.769531 286.136719 243.589844 286.0625 243.753906 C 285.992188 243.910156 285.691406 243.996094 285.160156 243.996094 L 277.066406 243.996094 C 276.660156 243.996094 276.410156 243.839844 276.308594 243.527344 C 276.203125 243.203125 276.152344 242.4375 276.152344 241.1875 C 276.152344 240.628906 276.421875 240.234375 276.972656 240.003906 C 278.03125 239.535156 278.5625 239.019531 278.5625 238.425781 L 278.5625 202.445313 C 278.5625 201.574219 278.480469 200.917969 278.3125 200.484375 C 278.15625 200.046875 277.78125 199.683594 277.222656 199.402344 C 276.714844 199.164063 276.371094 198.894531 276.203125 198.613281 C 276.027344 198.320313 275.945313 197.792969 275.945313 197.003906 C 275.945313 195.578125 276.316406 194.863281 277.066406 194.863281 L 285.523438 194.863281 L 295.757813 218.582031 L 295.757813 201.105469 C 295.757813 200.128906 295.257813 199.445313 294.261719 199.039063 C 293.679688 198.769531 293.292969 198.476563 293.117188 198.136719 C 292.953125 197.800781 292.867188 197.148438 292.867188 196.171875 C 292.867188 195.570313 292.921875 195.195313 293.046875 195.070313 C 293.171875 194.933594 293.398438 194.863281 293.742188 194.863281 L 302.144531 194.863281 C 302.613281 194.925781 302.84375 195.601563 302.84375 196.878906 C 302.84375 197.625 302.800781 198.105469 302.707031 198.3125 C 302.613281 198.507813 302.40625 198.6875 302.085938 198.820313 C 301.378906 199.113281 300.929688 199.382813 300.742188 199.640625 C 300.566406 199.910156 300.472656 200.273438 300.472656 200.742188 L 300.472656 243.996094 L 295.300781 243.996094 Z M 283.363281 216.140625 "/>
<path style=" stroke:none;fill-rule:evenodd;fill:rgb(3.921509%,7.446289%,4.704285%);fill-opacity:1;" d="M 318.894531 198.613281 L 318.894531 215.996094 L 320.960938 215.996094 C 321.53125 215.996094 321.949219 215.871094 322.207031 215.632813 C 322.46875 215.382813 322.675781 214.851563 322.820313 214.042969 C 323.058594 212.609375 323.257813 211.734375 323.414063 211.453125 C 323.558594 211.175781 323.796875 211.027344 324.128906 211.027344 C 325.730469 211.027344 326.632813 211.089844 326.851563 211.226563 C 327.058594 211.359375 327.175781 211.871094 327.175781 212.761719 L 327.175781 222.902344 C 327.175781 223.527344 327.070313 223.941406 326.863281 224.128906 C 326.664063 224.328125 326.03125 224.421875 324.980469 224.421875 C 324.285156 224.421875 323.828125 224.296875 323.589844 224.046875 C 323.363281 223.785156 323.132813 223.070313 322.90625 221.894531 C 322.6875 220.824219 322.46875 220.160156 322.25 219.921875 C 322.042969 219.671875 321.710938 219.546875 321.261719 219.546875 L 318.894531 219.546875 L 318.894531 240.523438 L 320.503906 240.523438 C 321.5 240.523438 322.1875 240.242188 322.5625 239.683594 C 322.933594 239.132813 323.539063 237.523438 324.371094 234.863281 C 324.710938 233.75 325.066406 233.011719 325.4375 232.667969 C 325.804688 232.328125 326.4375 232.148438 327.351563 232.148438 C 328.609375 232.148438 329.242188 232.554688 329.242188 233.375 C 329.242188 233.617188 329.199219 233.96875 329.117188 234.4375 L 327.996094 241.34375 C 327.789063 242.601563 327.621094 243.359375 327.484375 243.609375 C 327.359375 243.871094 326.945313 243.996094 326.261719 243.996094 L 305.960938 243.996094 C 305.449219 243.996094 305.117188 243.878906 304.980469 243.640625 C 304.835938 243.414063 304.765625 242.738281 304.765625 241.613281 C 304.765625 240.910156 305.128906 240.390625 305.867188 240.066406 C 306.976563 239.597656 307.539063 238.964844 307.539063 238.144531 L 307.539063 200.191406 C 307.515625 199.808594 307.058594 199.421875 306.167969 199.039063 C 305.554688 198.769531 305.199219 198.519531 305.085938 198.28125 C 304.972656 198.03125 304.921875 197.449219 304.921875 196.515625 C 304.921875 195.726563 304.980469 195.246094 305.105469 195.089844 C 305.222656 194.945313 305.574219 194.863281 306.167969 194.863281 L 325.585938 194.863281 C 326.074219 194.863281 326.425781 194.945313 326.65625 195.113281 C 326.871094 195.277344 327.050781 195.664063 327.175781 196.265625 L 328.722656 204.121094 C 328.804688 204.523438 328.847656 204.804688 328.847656 204.941406 C 328.847656 205.492188 328.359375 205.761719 327.382813 205.761719 C 326.292969 205.761719 325.554688 205.636719 325.191406 205.386719 C 324.828125 205.128906 324.472656 204.492188 324.128906 203.484375 C 323.496094 201.65625 322.957031 200.390625 322.5 199.671875 C 322.042969 198.964844 321.53125 198.613281 320.960938 198.613281 Z M 312.710938 191.765625 L 316.246094 186.3125 C 316.859375 185.386719 317.386719 184.835938 317.84375 184.671875 C 318.300781 184.515625 319.632813 184.429688 321.84375 184.429688 C 323.652344 184.429688 324.742188 184.484375 325.105469 184.578125 C 325.46875 184.679688 325.65625 184.898438 325.65625 185.222656 C 325.65625 185.667969 325.378906 186.042969 324.828125 186.34375 L 315.089844 191.765625 Z M 312.710938 191.765625 "/>
<path style=" stroke:none;fill-rule:evenodd;fill:rgb(3.921509%,7.446289%,4.704285%);fill-opacity:1;" d="M 163.328125 353.449219 C 164.160156 346.863281 164.445313 339.636719 161.808594 330.773438 L 168.769531 328.148438 C 168.566406 324.703125 168.089844 322.222656 167.886719 318.78125 C 171.6875 314.929688 175.109375 312.796875 179.515625 310.464844 C 179.335938 305.121094 184.320313 302.121094 188.855469 300.417969 C 194 298.492188 199.527344 298.382813 202.03125 302.617188 L 207.195313 291.902344 C 255.222656 291.613281 283.601563 312.628906 299.128906 335.519531 C 307.738281 348.207031 313.398438 365.851563 313.804688 384.171875 C 314.171875 400.84375 310.253906 417.816406 301.363281 433.75 C 299.433594 431.621094 298.1875 429.21875 296.667969 426.679688 C 288.164063 439.148438 278.980469 450.488281 267.222656 457.261719 C 265.90625 455.539063 264.175781 453.40625 262.859375 452.644531 C 252.261719 459.363281 241.660156 468.519531 231.0625 487.921875 C 227.214844 487.441406 224.789063 486.855469 219.515625 483.449219 L 219.058594 489.375 C 197.273438 483.996094 181.601563 475.066406 171.898438 465.3125 C 163.339844 456.707031 159.453125 447.824219 159.664063 442.417969 C 159.878906 436.933594 164.324219 431.34375 169.511719 425.6875 C 162.21875 423.972656 155.949219 424.949219 149.265625 428.34375 C 142.234375 420.722656 142.972656 415.019531 144.441406 411.519531 C 145.261719 409.554688 146.742188 408.933594 146.859375 405.992188 C 146.96875 403.332031 143.429688 400.359375 143.128906 398.328125 C 142.632813 394.984375 142.585938 391.402344 142.175781 388.179688 C 141.90625 386.035156 139.375 384.683594 137.960938 382.945313 C 136.996094 381.753906 136.847656 380.371094 137.140625 378.863281 C 139.511719 366.703125 154.871094 360.082031 163.328125 353.449219 Z M 163.328125 353.449219 "/>
<path style=" stroke:none;fill-rule:evenodd;fill:rgb(100%,100%,100%);fill-opacity:1;" d="M 175.457031 349.195313 C 180.683594 343.796875 185.90625 340.714844 191.039063 339.578125 C 194.4375 338.824219 197.753906 338.777344 200.921875 339.558594 C 202.390625 342.207031 203.734375 344.335938 205.484375 345.210938 C 206.609375 345.773438 207.707031 345.796875 209.121094 345.511719 C 209.230469 346.429688 208.890625 346.898438 208.289063 347.621094 C 207.609375 348.4375 206.773438 349.464844 206.449219 349.695313 C 206.3125 351.128906 208.710938 351.925781 210.132813 351.953125 C 211.320313 351.976563 212.625 351.71875 214.003906 351.152344 C 215.378906 350.589844 216.828125 349.714844 218.300781 349.0625 C 217.296875 352.417969 216.980469 355.769531 217.21875 359.082031 C 217.492188 362.878906 218.515625 366.703125 220.257813 370.453125 C 222.71875 375.761719 226.347656 380.925781 228.9375 385.660156 C 231.085938 378.96875 230.636719 370.476563 224.015625 354.996094 C 226.035156 348.050781 232.183594 344.320313 239.652344 342.480469 C 237.046875 335.808594 232.304688 332.640625 226.835938 332.011719 C 224.683594 331.765625 222.460938 332.445313 220.207031 333.726563 C 218.085938 334.933594 215.945313 336.742188 213.316406 336.871094 C 212.066406 336.929688 210.867188 336.734375 209.429688 336.15625 C 213.089844 328.707031 220.179688 325.890625 225.535156 325.792969 C 229.425781 325.71875 233.144531 326.597656 236.59375 328.339844 C 244.183594 332.175781 249.957031 339.15625 249.667969 341.976563 C 249.492188 343.664063 248.96875 346.910156 244.160156 349.707031 C 240.761719 351.683594 234.832031 353.21875 227.796875 355.480469 C 228.324219 356.984375 229.550781 357.640625 231.097656 357.6875 C 234.042969 357.78125 237.742188 356.308594 240.402344 356.574219 C 244.453125 359.355469 245.804688 361.46875 247.644531 364.636719 C 249.726563 368.226563 250.796875 373.054688 252.414063 377.730469 C 246.601563 374.132813 243.554688 371.800781 239.621094 371.433594 C 243.605469 378.875 244.027344 384.53125 243.691406 388.757813 C 243.363281 392.949219 242.242188 396.410156 239.902344 399.199219 C 237.574219 395.347656 236.386719 393.019531 233.601563 390.386719 C 233.914063 396.164063 232.664063 401.21875 230.65625 405.363281 C 226.234375 414.503906 218.179688 419.855469 211.421875 426.632813 C 207.714844 430.347656 204.476563 434.261719 202.421875 438.894531 C 200.828125 442.5 200 446.652344 199.875 450.789063 C 199.671875 457.660156 201.234375 466.027344 203.960938 474.4375 C 188.875 464.375 181.039063 454.292969 181.445313 446.199219 C 181.597656 443.109375 182.539063 439.953125 184.921875 437.476563 C 187.609375 434.683594 191.457031 432.246094 195.660156 429.703125 C 199.144531 427.597656 202.875 425.371094 206.390625 423.203125 C 211.042969 420.328125 215.378906 417.472656 218.390625 413.726563 C 220.964844 410.519531 222.789063 407.121094 223.144531 402.945313 C 224.160156 391.070313 220.578125 379 214.988281 368.921875 C 214.328125 374.449219 216.964844 381.78125 217.632813 388.058594 C 218.128906 392.730469 217.109375 399.074219 215.175781 403.359375 C 213.160156 407.816406 209.84375 411.503906 205.929688 414.890625 C 201.75 418.507813 196.675781 421.652344 192.226563 425.652344 C 191.875 421.636719 193.613281 417.214844 196.703125 413.484375 C 199.027344 410.679688 202 408.339844 204.785156 405.585938 C 207.242188 403.15625 209.691406 400.34375 211.132813 397.472656 C 213.308594 393.136719 213.664063 386.679688 212.195313 382.234375 C 209.4375 384.660156 207.148438 390.585938 204.617188 393.007813 C 202.644531 394.894531 200.589844 395.9375 198.382813 395.6875 C 198.890625 391.230469 199.730469 386.207031 200.917969 381.75 C 199.601563 380.660156 197.648438 379.992188 195.953125 379.722656 C 193.851563 383.125 190.050781 384.777344 186.121094 385.804688 C 182.425781 386.773438 177.421875 387.464844 175.152344 388.3125 C 175.417969 390.394531 177.828125 391.886719 178.789063 394.523438 C 179.132813 395.476563 179.210938 396.683594 179.183594 397.921875 C 182.019531 399.910156 184.453125 400.691406 186.453125 402.101563 C 185.144531 402.5 183.832031 402.316406 182.738281 401.9375 C 181.328125 401.453125 180.023438 400.476563 178.328125 399.722656 C 177.40625 400.242188 177.242188 401.03125 177.390625 401.8125 C 177.71875 403.53125 179.554688 405.363281 178.144531 405.585938 C 175.992188 404.09375 174.570313 403.070313 172.722656 404.472656 L 174.632813 407.042969 C 175.394531 408.066406 174.589844 409.222656 173.253906 407.804688 L 171.386719 405.820313 C 170.488281 405.753906 169.695313 405.621094 169.34375 405.933594 C 168.996094 406.242188 169.085938 406.863281 169.402344 407.484375 C 161.699219 405.8125 155.277344 402.964844 152.042969 400.472656 C 148.808594 397.976563 147.925781 395.410156 147.871094 393.066406 C 147.808594 390.3125 149.1875 388.023438 151.761719 386.042969 C 153.308594 384.855469 155.394531 383.667969 158.164063 384.085938 C 159.480469 382.929688 160.53125 381.875 160.480469 378.785156 C 158.644531 379.789063 155.910156 380.347656 152.984375 380.484375 C 148.703125 380.679688 143.570313 380.234375 139.601563 380.355469 C 143.855469 369.515625 156.089844 363.613281 168.546875 356.683594 C 168.707031 354.664063 167.449219 349.96875 171.804688 345.019531 C 173.859375 342.683594 177.160156 340.613281 182.445313 338.148438 C 181.609375 337.347656 180.976563 337.203125 180.03125 337.246094 C 177.199219 337.375 175.261719 340.289063 170.835938 341.03125 C 170.53125 338.90625 169.40625 335.441406 169.40625 332.707031 C 170.441406 332.570313 175.722656 332.457031 179.683594 333.367188 C 183.40625 334.222656 186.269531 336.351563 186.269531 337.523438 C 186.269531 338.140625 185.148438 339.328125 183.550781 340.28125 C 181.621094 341.429688 179.113281 342.421875 177.359375 344.117188 C 175.902344 345.527344 175.203125 348.015625 175.457031 349.195313 Z M 188.394531 360.277344 C 188.15625 359.929688 188.554688 359.375 189.285156 358.871094 C 190.015625 358.367188 190.941406 358.105469 191.179688 358.453125 C 191.417969 358.800781 191.160156 359.351563 190.429688 359.855469 C 189.699219 360.359375 188.636719 360.625 188.394531 360.277344 Z M 189.628906 364.75 C 190.03125 364.546875 191.113281 364.269531 192.402344 363.714844 C 193.691406 363.164063 195.195313 362.464844 196.441406 362.242188 C 197.65625 362.023438 198.785156 362.238281 199.613281 362.910156 C 200.683594 363.785156 198.289063 366.628906 195.585938 368.605469 C 195.113281 368.949219 194.800781 368.417969 195.007813 368.242188 C 195.800781 367.578125 196.066406 366.972656 196.140625 366.660156 C 196.390625 365.613281 195.335938 365.144531 194.527344 365.03125 C 193.097656 364.828125 191.035156 365.207031 189.988281 365.058594 C 189.722656 365.023438 189.460938 364.832031 189.628906 364.75 Z M 192.167969 346.367188 C 188.554688 348.550781 186.699219 350.558594 186.425781 352.128906 C 186.21875 353.304688 186.945313 353.6875 188.476563 354.585938 C 189.597656 355.238281 191.148438 356.496094 193.074219 356.945313 C 194.023438 357.164063 195.066406 357.097656 196.195313 357.152344 C 195.394531 358.238281 193.957031 359.339844 192.363281 360.007813 C 188.328125 361.699219 181.257813 361.59375 178.039063 363.4375 C 177.660156 363.652344 177.878906 364.113281 179.253906 364.230469 C 177.539063 364.964844 176.375 365.453125 175.179688 366.554688 C 172.894531 368.65625 170.878906 371.472656 168.132813 372.488281 C 166.636719 373.039063 164.6875 373.179688 162.722656 372.636719 C 165.550781 370.007813 169.03125 367.585938 172.566406 365.339844 C 176.101563 363.09375 180.378906 361.027344 184.527344 359.113281 C 182.453125 358.28125 181.078125 356.378906 180.621094 355.011719 C 183.304688 352.074219 183.855469 348.03125 191.226563 345.742188 C 191.683594 345.601563 192.578125 346.117188 192.167969 346.367188 Z M 261.671875 334.941406 C 269.625 337.804688 279.542969 343.484375 286.820313 352.1875 C 294.203125 361.015625 301.042969 374.0625 306.558594 390.320313 C 307.230469 381.421875 306.769531 372.429688 304.890625 364.007813 C 301.507813 348.828125 293.570313 336.601563 284.28125 326.472656 C 279.371094 321.117188 273.75 315.476563 267.242188 311.832031 C 265.457031 310.832031 263.738281 309.898438 261.835938 309.289063 C 257.324219 307.84375 252.386719 307.582031 247.582031 308.011719 C 239.957031 308.695313 231.390625 311.328125 227.359375 317.09375 C 235.898438 319.53125 245.488281 315.328125 255.226563 316.480469 C 260.507813 317.105469 266.355469 318.796875 272.996094 323.78125 C 268.554688 321.902344 261.871094 320.785156 255.09375 321.6875 C 250.304688 322.324219 244.898438 324.179688 242.699219 328.605469 C 251.273438 326.996094 262.050781 328.355469 269.023438 330.214844 C 276.21875 332.136719 281.839844 335.800781 284.46875 338.835938 C 277.09375 335.570313 268.007813 331.921875 261.671875 334.941406 Z M 216.671875 469.554688 C 216.398438 460.394531 217.96875 454.113281 220.554688 448.914063 C 227.703125 434.535156 240.175781 430.792969 251.394531 419.277344 C 249.199219 423.328125 246.5625 426.683594 243.988281 429.703125 C 239.832031 434.570313 235.609375 438.566406 231.964844 443.21875 C 230.3125 445.328125 228.679688 447.574219 227.4375 450.09375 C 225.699219 453.621094 224.792969 457.679688 224.898438 461.839844 C 224.96875 464.648438 226.574219 469.167969 229.042969 471.8125 C 228.957031 466.835938 231.769531 460.179688 235.96875 455.925781 C 241.636719 450.183594 249.703125 446.691406 255.394531 437.558594 C 257.800781 433.699219 257.070313 429.140625 261.058594 424.140625 C 262.527344 428.519531 262.714844 432.722656 262.359375 435.960938 C 269.78125 432 274.796875 426.511719 278.109375 420.933594 C 283.816406 411.324219 284.464844 400.222656 283.492188 388.507813 C 289.832031 391.671875 294.484375 399.957031 297.34375 407.925781 C 297.476563 408.304688 297.980469 408.121094 297.996094 407.726563 C 298.65625 391.117188 295.636719 377.648438 289.273438 368.390625 C 283.523438 360.027344 277.917969 354.976563 265.566406 350.9375 C 271.660156 370.074219 272.078125 388.097656 267.761719 399.988281 C 265.730469 405.589844 262.140625 409.882813 256.375 412.410156 C 260.738281 405.085938 263.234375 397.964844 264.183594 391.105469 C 265.363281 382.566406 265.222656 372.140625 261.007813 365.109375 C 260.566406 373.613281 258.96875 380.390625 256.390625 386.363281 C 248.800781 403.9375 233.574219 413.269531 222.476563 423.511719 C 214.960938 430.449219 209.480469 437.410156 208.976563 447.0625 C 208.570313 454.816406 210.816406 461.859375 216.671875 469.554688 Z M 182.914063 312.316406 L 192.777344 332.980469 C 194.105469 333.613281 195.660156 333.828125 197.160156 333.699219 C 200.941406 333.375 203.441406 329.816406 207.269531 325.339844 C 211.765625 320.894531 216.359375 316.886719 221.152344 313.597656 C 229.695313 307.734375 239.171875 304.148438 252.03125 304.402344 C 242.605469 301.117188 229.855469 297.652344 214.183594 298.824219 C 211.554688 301.667969 208.789063 305.609375 205.898438 310.703125 C 202.914063 315.960938 200.332031 322.308594 196.574219 330.09375 L 196.574219 307 C 190.613281 306.714844 185.429688 307.722656 182.914063 312.316406 Z M 179.890625 315.371094 C 182.527344 317.746094 183.878906 320.386719 184.882813 323.085938 C 186.019531 326.140625 186.4375 329.273438 188.328125 332.164063 C 182.3125 330.628906 177.613281 329.15625 174.925781 326.796875 C 173.3125 325.382813 172.410156 323.695313 171.917969 321.738281 C 173.5625 318.746094 175.40625 316.074219 179.890625 315.371094 Z M 171.960938 432.289063 C 172.699219 436.933594 173.832031 440.777344 175.203125 444.351563 C 177.574219 450.523438 180.667969 456.320313 183.695313 461.425781 C 185.714844 464.828125 188.117188 467.742188 189.847656 471.667969 C 187.929688 470.652344 185.230469 468.882813 182.789063 466.433594 C 177.550781 461.175781 168.3125 451.074219 167.207031 442.84375 C 166.660156 438.757813 168.734375 434.511719 171.960938 432.289063 Z M 144.445313 388.695313 C 145.359375 388.773438 145.675781 388.9375 146.589844 389.472656 C 146.675781 393.53125 147.148438 395.476563 148.371094 398.304688 C 148.871094 399.460938 149.644531 400.9375 150.5625 402.484375 C 147.65625 401.113281 143.753906 397.003906 144.445313 388.695313 Z M 153.289063 403.90625 C 152.148438 407.769531 148.894531 410.523438 148.371094 414.261719 C 148.136719 415.960938 148.550781 417.804688 150.191406 419.945313 C 154.445313 418.800781 162.753906 419.15625 169.058594 418.394531 C 168.65625 415.550781 167.523438 413.785156 166.1875 412.214844 C 162.777344 408.199219 158.066406 406.671875 153.289063 403.90625 Z M 153.289063 403.90625 "/>
<path style=" stroke:none;fill-rule:evenodd;fill:rgb(3.921509%,7.446289%,4.704285%);fill-opacity:1;" d="M 224.167969 -0.0195313 C 261.671875 -0.0195313 292.082031 30.390625 292.082031 67.894531 C 292.082031 105.394531 261.671875 135.808594 224.167969 135.808594 C 186.667969 135.808594 156.253906 105.394531 156.253906 67.894531 C 156.253906 30.390625 186.667969 -0.0195313 224.167969 -0.0195313 Z M 224.167969 -0.0195313 "/>
<path style=" stroke:none;fill-rule:evenodd;fill:rgb(100%,100%,100%);fill-opacity:1;" d="M 236.84375 74.066406 C 233.554688 74.726563 229.257813 76.929688 224.964844 79.367188 C 221.421875 81.378906 216.449219 84.640625 215.046875 86.421875 L 193.375 71.847656 C 194.5 68.019531 195.421875 54.625 194.582031 48.964844 L 217.929688 36.484375 C 219.847656 38.5 223.933594 41.695313 227.011719 43.726563 C 231.214844 46.496094 235.089844 48.171875 238.292969 49.144531 Z M 224.167969 4.933594 C 235.039063 4.933594 245.269531 7.691406 254.191406 12.542969 L 250.308594 18.058594 C 245.421875 15.9375 228.769531 13.769531 223.339844 14.789063 L 205.511719 8.34375 C 205.734375 8.097656 205.984375 7.824219 206.257813 7.523438 C 211.933594 5.84375 217.945313 4.933594 224.167969 4.933594 Z M 255.640625 13.359375 C 269.242188 21.226563 279.628906 34.035156 284.34375 49.332031 C 281.519531 51.121094 278.800781 53.5 277.589844 54.914063 L 258.257813 38.730469 C 257.644531 34.246094 254.238281 24.679688 251.554688 19.152344 Z M 282.957031 90.460938 C 276.945313 106.105469 264.871094 118.738281 249.613281 125.492188 L 244.457031 114.167969 C 247.226563 111.796875 254.746094 97.949219 255.765625 91.382813 L 275.429688 83.746094 C 276.546875 85.285156 279.339844 87.941406 282.957031 90.460938 Z M 248.09375 126.140625 C 240.71875 129.175781 232.640625 130.851563 224.167969 130.851563 C 215.59375 130.851563 207.417969 129.136719 199.96875 126.027344 C 199.929688 125.449219 199.886719 124.894531 199.839844 124.371094 L 220.230469 111.378906 C 221.824219 112.261719 225.402344 112.9375 230.316406 113.570313 C 234.730469 114.136719 239.539063 114.585938 242.8125 114.546875 Z M 174.773438 106.925781 C 166.28125 96.195313 161.210938 82.636719 161.210938 67.894531 C 161.210938 66.613281 161.253906 65.34375 161.328125 64.082031 L 164.175781 63.859375 C 164.8125 66.910156 166.550781 69.703125 168.5625 73.210938 C 170.042969 75.789063 172.621094 79.402344 174.25 81.179688 L 179.648438 106.058594 C 177.917969 106.226563 176.289063 106.535156 174.773438 106.925781 Z M 161.449219 62.414063 C 162.796875 46.804688 169.839844 32.824219 180.488281 22.558594 C 180.917969 22.582031 181.355469 22.601563 181.808594 22.609375 L 175.929688 42.101563 C 174.09375 44.035156 171.253906 48.0625 169.175781 51.71875 C 167.40625 54.832031 164.882813 59.789063 164.222656 62.199219 Z M 276.71875 56.339844 L 257.25 40.039063 C 252.101563 44.589844 244.707031 47.996094 239.941406 49.246094 L 238.46875 74.546875 C 240.332031 75.882813 243.554688 78.308594 246.75 81.203125 C 249.917969 84.070313 253.351563 87 255.242188 89.8125 L 274.785156 82.226563 C 274.230469 79.367188 274.550781 74.144531 274.738281 70.484375 C 274.953125 66.277344 275.730469 58.914063 276.71875 56.339844 Z M 193.703125 47.5625 C 191.554688 46.066406 188.207031 44.601563 185.394531 43.386719 C 182.222656 42.015625 180.277344 41.464844 177.882813 41.339844 L 183.828125 21.628906 C 190.0625 18.484375 200.222656 12.421875 204.09375 9.589844 L 221.890625 16.019531 C 220.726563 17.902344 219.578125 20.871094 218.851563 23.328125 C 217.558594 27.722656 215.929688 32.984375 216.851563 34.972656 C 216.863281 35.027344 216.882813 35.089844 216.910156 35.15625 Z M 199.613281 122.558594 L 219.109375 110.136719 C 217.867188 107.765625 216.785156 103.296875 215.980469 100.082031 C 214.796875 95.339844 214.109375 91.261719 214.515625 88.054688 L 192.476563 73.234375 C 190.207031 75.269531 186.546875 77.644531 183.148438 79.050781 C 180.023438 80.34375 177.574219 81.472656 176.070313 81.769531 L 181.425781 106.472656 L 199.613281 122.554688 Z M 199.613281 122.558594 "/>
</g>
</svg>
