<?xml version="1.0" encoding="UTF-8" standalone="no"?>
<!-- Generator: Adobe Illustrator 15.0.0, SVG Export Plug-In . SVG Version: 6.00 Build 0)  -->

<svg
   xmlns:dc="http://purl.org/dc/elements/1.1/"
   xmlns:cc="http://creativecommons.org/ns#"
   xmlns:rdf="http://www.w3.org/1999/02/22-rdf-syntax-ns#"
   xmlns:svg="http://www.w3.org/2000/svg"
   xmlns="http://www.w3.org/2000/svg"
   xmlns:sodipodi="http://sodipodi.sourceforge.net/DTD/sodipodi-0.dtd"
   xmlns:inkscape="http://www.inkscape.org/namespaces/inkscape"
   version="1.1"
   id="Layer_1"
   x="0px"
   y="0px"
   width="1006px"
   height="1200px"
   viewBox="0 0 1006 1200"
   style="enable-background:new 0 0 1006 1200;"
   xml:space="preserve"
   inkscape:version="0.48.4 r9939"
   sodipodi:docname="MC Oran (logo 1).svg"><metadata
   id="metadata127"><rdf:RDF><cc:Work
       rdf:about=""><dc:format>image/svg+xml</dc:format><dc:type
         rdf:resource="http://purl.org/dc/dcmitype/StillImage" /><dc:title></dc:title></cc:Work></rdf:RDF></metadata><defs
   id="defs125" /><sodipodi:namedview
   pagecolor="#ffffff"
   bordercolor="#666666"
   borderopacity="1"
   objecttolerance="10"
   gridtolerance="10"
   guidetolerance="10"
   inkscape:pageopacity="0"
   inkscape:pageshadow="2"
   inkscape:window-width="1280"
   inkscape:window-height="962"
   id="namedview123"
   showgrid="false"
   inkscape:zoom="0.55625733"
   inkscape:cx="483.1413"
   inkscape:cy="632.85462"
   inkscape:window-x="-8"
   inkscape:window-y="-8"
   inkscape:window-maximized="1"
   inkscape:current-layer="Layer_1" />
<g
   id="g3">
	<path
   style="fill-rule:evenodd;clip-rule:evenodd;fill:#ED1B24;"
   d="M192.479,0.432c206.583-0.289,414.44-0.289,621.043,0   c3.832,5.633,8.45,13.099,12.276,19.191c58.204,92.699,115.401,187.194,174.798,278.363c-30.776,0.115-62.012-0.231-92.499,0.173   c-96.604,160.452-193.314,320.747-289.948,481.17c-0.033,0.14-0.172,0.173-0.172,0.346c3.897,2.385,7.86,4.704,11.757,7.09   c0.115,0,0.23,0,0.346,0c95.232-158.35,190.808-316.357,285.97-474.773c28.816,0.114,58.093-0.23,86.621,0.172   c-167.901,294.195-329.805,594.208-498.287,887.823c-0.383,0.095-0.246-0.331-0.518-0.347c-0.068-1.062-0.715-1.657-1.211-1.037   c-0.737,0.924,0.064,1.758-1.21,0.692c-1.153-0.966-2.734-4.688-3.977-6.916c-19.316-34.651-39.269-69.235-58.958-103.392   c-32.055-55.607-62.425-110.427-93.364-166.327c-30.696-55.463-61.971-111.304-93.018-166.672   C168.901,607.565,87.505,458.263,3.503,311.991c29.046,0,58.094,0,87.14,0c95.016,158.109,190.392,315.83,285.451,473.907   c3.982-2.415,8.09-4.705,11.931-7.261C291.547,618.315,195.081,457.935,98.25,297.986c-30.891,0-61.78,0-92.672,0   C68.971,199.882,130.35,99.805,192.479,0.432z M676.242,23.427c-35.492,1.22-55.642,17.781-73.653,36.481   c-0.707,0.562-1.341,1.196-1.902,1.902c-8.503,8.902-16.191,18.618-24.724,27.49c-11.172-4.735-24.687-7.127-40.112-7.607   c-0.523-0.399-1.783-0.061-2.594-0.172c-3.688,0-7.377,0-11.065,0c-0.867,0.112-2.186-0.227-2.766,0.172   c-18.586,0.606-35.157,3.227-49.968,7.607c-6.589-18.653-11.247-39.238-23.341-52.387c-0.504-0.648-1.08-1.225-1.729-1.729   c-5.67-5.281-12.791-9.109-23.514-9.336c-0.869-0.288-2.937-0.288-3.804,0c-22.752,1.786-33.798,16.867-43.052,32.159   c-9.519,15.729-16.491,34.062-26.799,48.583c-6.85-15.312-13.045-32.13-21.785-45.99c-8.572-13.595-19.165-26.693-39.42-28.528   c-0.868-0.288-2.937-0.288-3.804,0c-10.738-0.144-18.393,5.008-24.379,11.239c-5.88,6.121-10.592,14.275-14.177,21.958   c-7.596,16.274-13.088,35.444-17.809,54.462c-9.605,38.691-14.116,82.625-17.981,126.387c0.746,0.229,2.106-0.275,3.285-0.173   c0.922,0,1.845,0,2.767,0c7.78,0.346,13.633,3.54,22.304,2.42c4.765-34.446,7.551-70.696,14.005-103.565   c6.445-32.832,15.745-62.664,34.232-83.509c1.321,1.272,2.747,2.44,4.149,3.631c0.62,0.764,1.312,1.455,2.075,2.075   c0.477,0.331,0.88,0.734,1.21,1.21c0.563,0.706,1.195,1.34,1.902,1.902c28.332,30.74,39.19,78.955,53.425,123.794   c24.739-45.685,29.068-111.786,72.098-139.182c15.778,10.157,18.808,33.061,25.935,51.869c-0.526,1.161-2.345,2.486-3.458,3.631   c-0.879,0.735-1.686,1.542-2.421,2.42c-26.828,27.984-44.201,67.251-46.336,118.78c-0.396,0.296-0.063,1.32-0.173,1.902   c0,1.786,0,3.573,0,5.359c-0.287,0.412-0.287,2.009,0,2.421c0,1.787,0,3.573,0,5.359c0.109,0.582-0.223,1.606,0.173,1.902   c2.566,55.526,20.846,96.84,48.757,127.598c0.562,0.706,1.195,1.34,1.902,1.902c0.849,0.995,1.771,1.917,2.766,2.767   c0.562,0.706,1.195,1.34,1.902,1.901c20.187,18.495,45.506,32.744,82.298,34.061c2.826,0.289,6.858,0.289,9.683,0   c39.043-1.771,67.663-15.433,89.042-35.443c0.764-0.62,1.455-1.311,2.075-2.075c10.87-11.375,19.594-24.897,23.167-43.57   c-7.379-4.262-19.529-3.753-28.354-6.57c-4.731,19.282-16.302,32.874-30.948,42.36c-14.723,9.534-33.686,15.839-56.71,16.771   c-2.363,0-4.727,0-7.088,0c-40.226-1.446-64.37-20.628-81.263-45.472c-16.996-24.996-28.173-57.512-29.22-97.34   c0-2.132,0-4.265,0-6.397c0.888-38.291,12.021-68.472,29.393-90.598c1.135-1.446,2.295-2.951,3.804-3.976   c6.499,40.356,11.708,82.173,15.733,125.003c0.573,6.092,0.865,12.251,1.902,18.327c0.77,0.21,1.771,0.188,2.767,0.173   c0.239,0.394,1.203,0.064,1.729,0.172c0.691,0,1.384,0,2.075,0c0.525-0.108,1.488,0.222,1.729-0.172   c7.146-0.232,12.83-1.924,19.71-2.421c-3.607-58.805-10.949-113.883-21.784-165.462c10.475-6.008,23.695-9.269,39.42-10.027   c0.753-0.112,1.954,0.225,2.421-0.173c2.536,0,5.071,0,7.607,0c0.466,0.398,1.667,0.062,2.42,0.173   c15.095,0.753,28.33,3.367,39.593,7.953c-1.837,9.516-3.347,19.36-3.63,30.43c-0.398,0.466-0.062,1.667-0.173,2.421   c0,3.804,0,7.607,0,11.411c0.111,0.753-0.226,1.955,0.173,2.42c2.104,42.329,16.085,72.784,37.519,95.784   c1.08,1.225,2.232,2.378,3.458,3.458c14.943,13.844,33.692,25.04,58.957,28.183c27.998,3.482,53.767-2.935,72.098-13.486   c35.909-20.668,57.56-60.714,60.168-114.285c0.289-3.286,0.289-7.78,0-11.065c0-0.807,0-1.614,0-2.42   c-0.108-0.526,0.222-1.489-0.172-1.729c-2.503-40.548-15.978-70.125-36.482-92.672c-1.541-1.686-3.155-3.299-4.841-4.841   c-17.161-15.746-38.701-27.115-70.715-28.009c-0.924-0.401-2.591-0.059-3.803-0.172c-0.691,0-1.383,0-2.074,0   C678.835,23.368,677.166,23.025,676.242,23.427z M503,734.203c-4.349,14.037-8.457,28.312-13.14,42.014   c-13.832,0-27.664,0-41.495,0c10.519,8.73,22.703,17.293,33.714,26.107c-4.447,13.764-8.629,27.794-12.967,41.668   c11.229-8.019,22.719-17.278,34.062-25.762c10.279,8.189,21.594,16.438,31.985,24.379c0.585,0.447,1.008,1.44,1.901,1.21   c-4.267-13.886-8.69-27.617-12.794-41.668c10.41-7.952,21.48-16.473,31.813-24.378c0.687-0.526,1.918-0.962,1.556-1.557   c-13.832,0-27.664,0-41.496,0C511.721,762.253,507.603,747.987,503,734.203z M499.888,920.586   c-36.968-1.515-61.305-16.961-79.359-37.519c-18.207-20.732-30.903-47.431-41.495-75.556c-0.779,5.675-1.514,11.396-1.556,17.808   c-0.396,0.297-0.063,1.32-0.173,1.902c0,3.169,0,6.339,0,9.51c0.109,0.581-0.223,1.605,0.173,1.902   c2.254,45.408,18.975,76.346,41.841,101.143c1.311,1.455,2.694,2.839,4.149,4.149c19.467,17.764,42.076,32.386,77.284,34.407   c0.297,0.396,1.321,0.063,1.902,0.173c1.672,0,3.343,0,5.014,0c0.582-0.109,1.605,0.223,1.902-0.173   c19.581-0.755,35.946-6.479,49.795-14.177c40.89-22.733,66.004-63.109,69.331-122.931c0.398-0.466,0.062-1.667,0.173-2.42   c0-4.034,0-8.068,0-12.104c-0.112-0.81,0.226-2.069-0.173-2.594c-0.157-5.521-0.406-11.441-1.383-16.597   c-8.385,31.209-21.804,57.383-40.804,77.976c-1.744,1.6-3.416,3.271-5.014,5.014c-17.812,16.251-39.504,28.619-72.098,30.085   C506.228,920.586,503.058,920.586,499.888,920.586z"
   id="path5" />
	<path
   style="fill-rule:evenodd;clip-rule:evenodd;fill:#C49CFC;"
   d="M676.242,23.427c0.924-0.401,2.593-0.059,3.805-0.172   C679.122,23.656,677.454,23.313,676.242,23.427z"
   id="path7" />
	<path
   style="fill-rule:evenodd;clip-rule:evenodd;fill:#C49CFC;"
   d="M682.121,23.254c1.212,0.113,2.879-0.229,3.803,0.172   C684.713,23.313,683.045,23.656,682.121,23.254z"
   id="path9" />
	<path
   style="fill-rule:evenodd;clip-rule:evenodd;fill:#C49CFC;"
   d="M417.071,25.848c0.867-0.288,2.935-0.288,3.804,0   C419.606,25.848,418.339,25.848,417.071,25.848z"
   id="path11" />
	<path
   style="fill-rule:evenodd;clip-rule:evenodd;fill:#C49CFC;"
   d="M282.212,32.072c0.867-0.288,2.936-0.288,3.804,0   C284.748,32.072,283.479,32.072,282.212,32.072z"
   id="path13" />
	<path
   style="fill-rule:evenodd;clip-rule:evenodd;fill:#ED1B24;"
   d="M629.041,73.048c12.253-11.953,29.836-21.093,54.289-21.093   c23.705,0,41.039,9.541,53.771,21.267c1.022,1.167,2.119,2.262,3.285,3.285c16.699,18.4,27.483,42.713,29.564,75.729   c0.11,0.582-0.222,1.606,0.174,1.901c0,1.038,0,2.075,0,3.112c0,1.672,0,3.343,0,5.014c0,1.095,0,2.19,0,3.285   c-0.396,0.296-0.063,1.32-0.174,1.902c-1.92,31.045-11.964,53.966-27.662,71.233c-1.226,1.081-2.377,2.233-3.459,3.458   c-13.181,12.36-31.151,20.818-55.153,21.785c-2.133,0-4.264,0-6.396,0c-22.053-0.899-37.815-9.549-50.141-20.748   c-1.254-1.397-2.579-2.723-3.976-3.977c-17.36-19.133-28.293-45.579-29.22-80.57c0-2.017,0-4.034,0-6.051   c0.012-7.709,0.935-14.51,1.729-21.439c3.057,0.635,5.496,3.375,7.952,5.187c1.024,1.167,2.119,2.262,3.286,3.285   c3.05,3.291,5.716,6.859,9.337,10.201c0.979,0.904,2.678,2.583,3.63,2.766c1.935,0.373,4.821-0.82,6.743-1.383   c6.385-1.871,11.38-5.005,17.116-7.261c-4.896-17.867-19.424-26.106-31.121-37.173c-0.792-0.937-1.656-1.802-2.593-2.594   c-1.048-1.315-2.219-2.508-3.285-3.804c6.1-9.172,12.764-17.781,20.401-25.416C627.847,74.389,628.479,73.754,629.041,73.048z"
   id="path15" />
	<path
   style="fill-rule:evenodd;clip-rule:evenodd;fill:#C49CFC;"
   d="M519.426,81.693c0.58-0.399,1.898-0.06,2.766-0.172   C521.611,81.92,520.293,81.581,519.426,81.693z"
   id="path17" />
	<path
   style="fill-rule:evenodd;clip-rule:evenodd;fill:#C49CFC;"
   d="M533.257,81.521c0.811,0.111,2.07-0.227,2.594,0.172   C535.04,81.581,533.779,81.919,533.257,81.521z"
   id="path19" />
	<path
   style="fill-rule:evenodd;clip-rule:evenodd;fill:#C49CFC;"
   d="M517.523,109.875c0.467-0.399,1.668-0.062,2.421-0.173   C519.478,110.101,518.276,109.764,517.523,109.875z"
   id="path21" />
	<path
   style="fill-rule:evenodd;clip-rule:evenodd;fill:#C49CFC;"
   d="M527.552,109.702c0.753,0.112,1.954-0.226,2.42,0.173   C529.219,109.764,528.018,110.101,527.552,109.702z"
   id="path23" />
	<path
   style="fill-rule:evenodd;clip-rule:evenodd;fill:#C49CFC;"
   d="M565.935,148.258c-0.111,0.753,0.226,1.955-0.173,2.421   C565.873,149.925,565.536,148.724,565.935,148.258z"
   id="path25" />
	<path
   style="fill-rule:evenodd;clip-rule:evenodd;fill:#C49CFC;"
   d="M797.962,148.95c0.394,0.24,0.063,1.203,0.172,1.729   C797.739,150.439,798.07,149.475,797.962,148.95z"
   id="path27" />
	<path
   style="fill-rule:evenodd;clip-rule:evenodd;fill:#C49CFC;"
   d="M769.951,152.235c0.396,0.295,0.064,1.319,0.174,1.901   C769.729,153.841,770.062,152.816,769.951,152.235z"
   id="path29" />
	<path
   style="fill-rule:evenodd;clip-rule:evenodd;fill:#C49CFC;"
   d="M593.944,152.581c0,2.017,0,4.034,0,6.051   C593.656,157.017,593.656,154.195,593.944,152.581z"
   id="path31" />
	<path
   style="fill-rule:evenodd;clip-rule:evenodd;fill:#C49CFC;"
   d="M798.134,153.099c0.289,3.285,0.289,7.78,0,11.065   C798.134,160.476,798.134,156.788,798.134,153.099z"
   id="path33" />
	<path
   style="fill-rule:evenodd;clip-rule:evenodd;fill:#C49CFC;"
   d="M770.125,157.249c0.288,1.271,0.288,3.744,0,5.014   C770.125,160.591,770.125,158.92,770.125,157.249z"
   id="path35" />
	<path
   style="fill-rule:evenodd;clip-rule:evenodd;fill:#C49CFC;"
   d="M565.762,162.09c0.398,0.466,0.062,1.667,0.173,2.42   C565.536,164.044,565.873,162.843,565.762,162.09z"
   id="path37" />
	<path
   style="fill-rule:evenodd;clip-rule:evenodd;fill:#C49CFC;"
   d="M770.125,165.548c-0.109,0.582,0.223,1.606-0.174,1.902   C770.062,166.868,769.729,165.844,770.125,165.548z"
   id="path39" />
	<path
   style="fill-rule:evenodd;clip-rule:evenodd;fill:#C49CFC;"
   d="M393.038,231.421c-0.109,0.583,0.223,1.606-0.173,1.902   C392.975,232.741,392.643,231.717,393.038,231.421z"
   id="path41" />
	<path
   style="fill-rule:evenodd;clip-rule:evenodd;fill:#C49CFC;"
   d="M392.865,238.683c0,0.807,0,1.614,0,2.421   C392.578,240.692,392.578,239.094,392.865,238.683z"
   id="path43" />
	<path
   style="fill-rule:evenodd;clip-rule:evenodd;fill:#C49CFC;"
   d="M421.047,238.856c0,2.132,0,4.265,0,6.397   C420.76,243.522,420.76,240.586,421.047,238.856z"
   id="path45" />
	<path
   style="fill-rule:evenodd;clip-rule:evenodd;fill:#C49CFC;"
   d="M211.151,245.944c0.525-0.287,2.241-0.287,2.767,0   C212.996,245.944,212.073,245.944,211.151,245.944z"
   id="path47" />
	<path
   style="fill-rule:evenodd;clip-rule:evenodd;fill:#C49CFC;"
   d="M392.865,246.463c0.396,0.296,0.063,1.32,0.173,1.902   C392.643,248.069,392.975,247.045,392.865,246.463z"
   id="path49" />
	<path
   style="fill-rule:evenodd;clip-rule:evenodd;fill:#C49CFC;"
   d="M677.28,263.926c2.133,0,4.264,0,6.396,0   C681.946,264.213,679.01,264.213,677.28,263.926z"
   id="path51" />
	<path
   style="fill-rule:evenodd;clip-rule:evenodd;fill:#C49CFC;"
   d="M474.646,287.786c0.525,0.108,1.488-0.222,1.729,0.172   C475.849,287.85,474.885,288.18,474.646,287.786z"
   id="path53" />
	<path
   style="fill-rule:evenodd;clip-rule:evenodd;fill:#C49CFC;"
   d="M478.449,287.958c0.239-0.394,1.203-0.064,1.729-0.172   C479.938,288.18,478.975,287.85,478.449,287.958z"
   id="path55" />
	<path
   style="fill-rule:evenodd;clip-rule:evenodd;fill:#FFFFFF;"
   d="M5.578,297.986c30.892,0,61.781,0,92.672,0   c96.831,159.948,193.297,320.329,289.774,480.651c-3.841,2.556-7.948,4.846-11.931,7.261   c-95.06-158.077-190.436-315.798-285.451-473.907c-29.046,0-58.094,0-87.14,0c-1.254-1.802-2.061-4.049-3.458-5.706   C1.98,303.61,3.624,300.643,5.578,297.986z"
   id="path57" />
	<path
   style="fill-rule:evenodd;clip-rule:evenodd;fill:#FFFFFF;"
   d="M1000.596,297.986c1.835,2.776,3.738,5.483,5.359,8.472   c-0.994,2.003-2.154,3.838-3.285,5.705c-28.528-0.403-57.805-0.058-86.621-0.172c-95.162,158.417-190.737,316.424-285.97,474.773   c-0.115,0-0.23,0-0.346,0c-3.896-2.386-7.859-4.705-11.757-7.09c0-0.173,0.139-0.206,0.172-0.346   c96.634-160.423,193.344-320.718,289.948-481.17C938.584,297.755,969.819,298.102,1000.596,297.986z"
   id="path59" />
	<path
   style="fill-rule:evenodd;clip-rule:evenodd;fill:#C49CFC;"
   d="M531.529,388.065c2.361,0,4.725,0,7.088,0   C536.656,388.353,533.489,388.353,531.529,388.065z"
   id="path61" />
	<path
   style="fill-rule:evenodd;clip-rule:evenodd;fill:#C49CFC;"
   d="M530.663,416.593c3.228,0,6.455,0,9.683,0   C537.521,416.881,533.489,416.881,530.663,416.593z"
   id="path63" />
	<path
   style="fill-rule:evenodd;clip-rule:evenodd;fill:#C49CFC;"
   d="M628.696,824.108c0.398,0.524,0.061,1.784,0.173,2.594   C628.47,826.18,628.808,824.92,628.696,824.108z"
   id="path65" />
	<path
   style="fill-rule:evenodd;clip-rule:evenodd;fill:#C49CFC;"
   d="M377.478,825.319c-0.109,0.583,0.223,1.606-0.173,1.902   C377.414,826.64,377.082,825.616,377.478,825.319z"
   id="path67" />
	<path
   style="fill-rule:evenodd;clip-rule:evenodd;fill:#C49CFC;"
   d="M377.305,836.731c0.396,0.295,0.063,1.319,0.173,1.902   C377.082,838.337,377.414,837.313,377.305,836.731z"
   id="path69" />
	<path
   style="fill-rule:evenodd;clip-rule:evenodd;fill:#C49CFC;"
   d="M628.869,838.806c-0.111,0.753,0.226,1.954-0.173,2.42   C628.808,840.473,628.471,839.271,628.869,838.806z"
   id="path71" />
	<path
   style="fill-rule:evenodd;clip-rule:evenodd;fill:#C49CFC;"
   d="M499.888,920.586c3.17,0,6.34,0,9.511,0   C506.631,920.873,502.654,920.873,499.888,920.586z"
   id="path73" />
	<path
   style="fill-rule:evenodd;clip-rule:evenodd;fill:#C49CFC;"
   d="M500.752,978.333c0.583,0.109,1.606-0.224,1.902,0.173   C502.073,978.396,501.049,978.729,500.752,978.333z"
   id="path75" />
	<path
   style="fill-rule:evenodd;clip-rule:evenodd;fill:#C49CFC;"
   d="M507.668,978.506c0.296-0.396,1.321-0.063,1.902-0.173   C509.273,978.729,508.25,978.396,507.668,978.506z"
   id="path77" />
	<path
   style="fill-rule:evenodd;clip-rule:evenodd;fill:#C49CFC;"
   d="M192.479,0.432c206.153-0.577,414.706-0.577,621.043,0   C606.919,0.144,399.062,0.144,192.479,0.432z"
   id="path79" />
	<path
   style="fill-rule:evenodd;clip-rule:evenodd;fill:#C49CFC;"
   d="M600.687,61.81c0.562-0.707,1.195-1.341,1.902-1.902   C602.027,60.614,601.394,61.249,600.687,61.81z"
   id="path81" />
	<path
   style="fill-rule:evenodd;clip-rule:evenodd;fill:#C49CFC;"
   d="M444.389,35.184c0.648,0.504,1.225,1.081,1.729,1.729   C445.469,36.409,444.893,35.833,444.389,35.184z"
   id="path83" />
	<path
   style="fill-rule:evenodd;clip-rule:evenodd;fill:#C49CFC;"
   d="M288.608,64.922c0.764,0.619,1.456,1.311,2.075,2.075   C289.92,66.377,289.229,65.686,288.608,64.922z"
   id="path85" />
	<path
   style="fill-rule:evenodd;clip-rule:evenodd;fill:#C49CFC;"
   d="M291.894,68.207c0.706,0.562,1.341,1.196,1.902,1.902   C293.089,69.547,292.456,68.913,291.894,68.207z"
   id="path87" />
	<path
   style="fill-rule:evenodd;clip-rule:evenodd;fill:#C49CFC;"
   d="M439.374,112.641c0.735-0.879,1.542-1.686,2.421-2.42   C441.06,111.1,440.253,111.907,439.374,112.641z"
   id="path89" />
	<path
   style="fill-rule:evenodd;clip-rule:evenodd;fill:#C49CFC;"
   d="M441.795,375.962c0.706,0.562,1.341,1.196,1.902,1.902   C442.99,377.303,442.356,376.668,441.795,375.962z"
   id="path91" />
	<path
   style="fill-rule:evenodd;clip-rule:evenodd;fill:#C49CFC;"
   d="M446.463,380.631c0.706,0.562,1.341,1.195,1.902,1.901   C447.658,381.971,447.024,381.336,446.463,380.631z"
   id="path93" />
	<path
   style="fill-rule:evenodd;clip-rule:evenodd;fill:#C49CFC;"
   d="M629.388,381.149c0.62-0.764,1.312-1.456,2.075-2.075   C630.843,379.839,630.151,380.53,629.388,381.149z"
   id="path95" />
	<path
   style="fill-rule:evenodd;clip-rule:evenodd;fill:#C49CFC;"
   d="M603.453,260.294c1.225,1.081,2.377,2.233,3.458,3.458   C605.686,262.672,604.533,261.52,603.453,260.294z"
   id="path97" />
	<path
   style="fill-rule:evenodd;clip-rule:evenodd;fill:#FFFFFF;"
   d="M798.134,164.165c-2.608,53.57-24.259,93.616-60.168,114.285   c-18.331,10.551-44.1,16.968-72.098,13.486c-25.265-3.143-44.014-14.339-58.957-28.183c-1.081-1.225-2.233-2.377-3.458-3.458   c-21.434-23-35.414-53.456-37.519-95.784c-0.111-0.753,0.226-1.954-0.173-2.42c0-3.804,0-7.607,0-11.411   c0.398-0.466,0.062-1.667,0.173-2.421c0.283-11.07,1.793-20.914,3.63-30.43c-11.263-4.585-24.498-7.199-39.593-7.953   c-0.466-0.399-1.667-0.062-2.42-0.173c-2.536,0-5.071,0-7.607,0c-0.753,0.112-1.954-0.226-2.421,0.173   c-15.725,0.758-28.945,4.02-39.42,10.027c10.835,51.579,18.177,106.657,21.784,165.462c-6.88,0.497-12.564,2.189-19.71,2.421   c-0.525,0.108-1.489-0.222-1.729,0.172c-0.691,0-1.384,0-2.075,0c-0.24-0.394-1.203-0.064-1.729-0.172   c-0.995,0.015-1.997,0.037-2.767-0.173c-1.037-6.076-1.329-12.235-1.902-18.327c-4.025-42.831-9.234-84.647-15.733-125.003   c-1.509,1.025-2.669,2.53-3.804,3.976c-17.372,22.126-28.505,52.308-29.393,90.598c-0.287,1.73-0.287,4.667,0,6.397   c1.047,39.829,12.224,72.345,29.22,97.34c16.893,24.843,41.037,44.026,81.263,45.472c1.96,0.288,5.127,0.288,7.088,0   c23.024-0.932,41.987-7.236,56.71-16.771c14.646-9.486,26.217-23.078,30.948-42.36c8.825,2.817,20.976,2.308,28.354,6.57   c-3.573,18.672-12.297,32.194-23.167,43.57c-0.764,0.62-1.455,1.312-2.075,2.075c-21.379,20.01-49.999,33.672-89.042,35.443   c-3.228,0-6.455,0-9.683,0c-36.792-1.316-62.111-15.566-82.298-34.061c-0.562-0.706-1.196-1.34-1.902-1.901   c-0.994-0.85-1.917-1.772-2.766-2.767c-0.562-0.706-1.196-1.34-1.902-1.902c-27.911-30.758-46.19-72.072-48.757-127.598   c-0.109-0.582,0.223-1.606-0.173-1.902c0-1.787,0-3.573,0-5.359c0-0.807,0-1.614,0-2.421c0-1.786,0-3.573,0-5.359   c0.396-0.296,0.063-1.32,0.173-1.902c2.135-51.529,19.508-90.795,46.336-118.78c0.879-0.734,1.686-1.541,2.421-2.42   c1.113-1.145,2.932-2.47,3.458-3.631c-7.127-18.808-10.156-41.712-25.935-51.869c-43.029,27.396-47.358,93.497-72.098,139.182   c-14.234-44.839-25.093-93.054-53.425-123.794c-0.562-0.706-1.196-1.34-1.902-1.902c-0.33-0.476-0.733-0.879-1.21-1.21   c-0.619-0.764-1.312-1.456-2.075-2.075c-1.402-1.191-2.828-2.359-4.149-3.631c-18.487,20.845-27.787,50.677-34.232,83.509   c-6.454,32.869-9.24,69.119-14.005,103.565c-8.671,1.12-14.523-2.075-22.304-2.42c-0.525-0.287-2.241-0.287-2.767,0   c-1.179-0.102-2.539,0.403-3.285,0.173c3.865-43.762,8.376-87.696,17.981-126.387c4.721-19.018,10.213-38.188,17.809-54.462   c3.585-7.683,8.297-15.837,14.177-21.958c5.986-6.231,13.641-11.382,24.379-11.239c1.268,0,2.536,0,3.804,0   c20.255,1.835,30.848,14.933,39.42,28.528c8.74,13.86,14.936,30.678,21.785,45.99c10.308-14.522,17.28-32.855,26.799-48.583   c9.254-15.292,20.3-30.373,43.052-32.159c1.268,0,2.535,0,3.804,0c10.723,0.227,17.844,4.055,23.514,9.336   c0.504,0.648,1.08,1.225,1.729,1.729c12.094,13.149,16.752,33.734,23.341,52.387c14.811-4.38,31.382-7.001,49.968-7.607   c0.867-0.112,2.186,0.227,2.766-0.172c3.688,0,7.377,0,11.065,0c0.522,0.399,1.783,0.061,2.594,0.172   c15.426,0.48,28.94,2.872,40.112,7.607c8.532-8.873,16.221-18.588,24.724-27.49c0.707-0.562,1.341-1.196,1.902-1.902   c18.012-18.7,38.161-35.261,73.653-36.481c1.212-0.113,2.88,0.229,3.805-0.172c0.691,0,1.383,0,2.074,0   c0.924,0.401,2.592,0.059,3.803,0.172c32.014,0.895,53.554,12.263,70.715,28.009c1.542,1.686,3.155,3.3,4.841,4.841   c20.505,22.547,33.979,52.125,36.482,92.672c0.108,0.525-0.223,1.489,0.172,1.729c0,0.807,0,1.613,0,2.42   C798.134,156.788,798.134,160.476,798.134,164.165z M737.102,73.221c-12.732-11.726-30.066-21.267-53.771-21.267   c-24.453,0-42.036,9.141-54.289,21.093c-0.705,0.562-1.34,1.196-1.901,1.902c-7.638,7.635-14.302,16.244-20.401,25.416   c1.066,1.296,2.237,2.489,3.285,3.804c0.792,0.937,1.656,1.801,2.593,2.594c11.697,11.067,26.225,19.306,31.121,37.173   c-5.736,2.256-10.731,5.391-17.116,7.261c-1.922,0.563-4.809,1.756-6.743,1.383c-0.952-0.184-2.65-1.862-3.63-2.766   c-3.621-3.342-6.287-6.91-9.337-10.201c-1.023-1.167-2.118-2.262-3.286-3.285c-2.456-1.811-4.896-4.551-7.952-5.187   c-0.794,6.929-1.717,13.729-1.729,21.439c-0.288,1.615-0.288,4.437,0,6.051c0.927,34.991,11.859,61.437,29.22,80.57   c1.253,1.397,2.578,2.723,3.976,3.977c12.325,11.198,28.088,19.848,50.141,20.748c1.729,0.288,4.666,0.288,6.396,0   c24.002-0.967,41.973-9.425,55.153-21.785c1.225-1.081,2.379-2.233,3.459-3.458c15.698-17.267,25.742-40.188,27.662-71.233   c0.396-0.296,0.064-1.32,0.174-1.902c0-1.095,0-2.19,0-3.285c0.288-1.27,0.288-3.744,0-5.014c0-1.037,0-2.075,0-3.112   c-0.109-0.582,0.223-1.606-0.174-1.901c-2.081-33.016-12.865-57.329-29.564-75.729C739.364,75.339,738.269,74.244,737.102,73.221z"
   id="path99" />
	<path
   style="fill-rule:evenodd;clip-rule:evenodd;fill:#C49CFC;"
   d="M756.639,51.436c1.686,1.542,3.3,3.155,4.841,4.841   C759.794,54.736,758.181,53.122,756.639,51.436z"
   id="path101" />
	<path
   style="fill-rule:evenodd;clip-rule:evenodd;fill:#C49CFC;"
   d="M627.14,74.95c0.562-0.707,1.196-1.341,1.901-1.902   C628.479,73.754,627.847,74.389,627.14,74.95z"
   id="path103" />
	<path
   style="fill-rule:evenodd;clip-rule:evenodd;fill:#C49CFC;"
   d="M610.023,104.169c0.937,0.792,1.801,1.657,2.593,2.594   C611.68,105.971,610.815,105.106,610.023,104.169z"
   id="path105" />
	<path
   style="fill-rule:evenodd;clip-rule:evenodd;fill:#C49CFC;"
   d="M603.625,136.328c1.168,1.023,2.263,2.118,3.286,3.285   C605.744,138.59,604.649,137.495,603.625,136.328z"
   id="path107" />
	<path
   style="fill-rule:evenodd;clip-rule:evenodd;fill:#C49CFC;"
   d="M623.164,239.202c1.396,1.253,2.722,2.579,3.976,3.977   C625.742,241.925,624.417,240.599,623.164,239.202z"
   id="path109" />
	<path
   style="fill-rule:evenodd;clip-rule:evenodd;fill:#C49CFC;"
   d="M738.83,242.141c1.082-1.225,2.233-2.377,3.459-3.458   C741.209,239.908,740.055,241.06,738.83,242.141z"
   id="path111" />
	<path
   style="fill-rule:evenodd;clip-rule:evenodd;fill:#C49CFC;"
   d="M737.102,73.221c1.167,1.022,2.263,2.118,3.285,3.285   C739.221,75.483,738.124,74.388,737.102,73.221z"
   id="path113" />
	<path
   style="fill-rule:evenodd;clip-rule:evenodd;fill:#C49CFC;"
   d="M419.318,939.776c1.455,1.312,2.838,2.694,4.149,4.149   C422.013,942.615,420.629,941.231,419.318,939.776z"
   id="path115" />
	<path
   style="fill-rule:evenodd;clip-rule:evenodd;fill:#FFFFFF;"
   d="M628.696,841.226c-3.327,59.821-28.441,100.197-69.331,122.931   c-13.849,7.697-30.214,13.422-49.795,14.177c-0.581,0.109-1.606-0.224-1.902,0.173c-1.671,0-3.342,0-5.014,0   c-0.296-0.396-1.319-0.063-1.902-0.173c-35.208-2.021-57.817-16.644-77.284-34.407c-1.312-1.455-2.694-2.838-4.149-4.149   c-22.866-24.797-39.587-55.734-41.841-101.143c-0.109-0.583,0.223-1.607-0.173-1.902c0-3.171,0-6.341,0-9.51   c0.396-0.296,0.063-1.319,0.173-1.902c0.042-6.412,0.776-12.133,1.556-17.808c10.592,28.125,23.288,54.823,41.495,75.556   c18.055,20.558,42.392,36.004,79.359,37.519c2.767,0.287,6.743,0.287,9.511,0c32.594-1.466,54.286-13.834,72.098-30.085   c1.742-1.598,3.414-3.27,5.014-5.014c19-20.593,32.419-46.767,40.804-77.976c0.977,5.155,1.226,11.075,1.383,16.597   c0.111,0.812-0.227,2.071,0.173,2.594c0,4.035,0,8.069,0,12.104C628.471,839.271,628.808,840.473,628.696,841.226z"
   id="path117" />
	<path
   style="fill-rule:evenodd;clip-rule:evenodd;fill:#C49CFC;"
   d="M581.496,890.501c1.598-1.742,3.27-3.414,5.014-5.014   C584.91,887.231,583.238,888.903,581.496,890.501z"
   id="path119" />
	<path
   style="fill-rule:evenodd;clip-rule:evenodd;fill:#FFFFFF;"
   d="M516.14,776.217c13.832,0,27.664,0,41.496,0   c0.362,0.595-0.869,1.03-1.556,1.557c-10.333,7.905-21.403,16.426-31.813,24.378c4.104,14.051,8.527,27.782,12.794,41.668   c-0.894,0.23-1.316-0.763-1.901-1.21c-10.392-7.94-21.706-16.189-31.985-24.379c-11.343,8.483-22.832,17.743-34.062,25.762   c4.338-13.874,8.52-27.904,12.967-41.668c-11.011-8.814-23.195-17.377-33.714-26.107c13.831,0,27.663,0,41.495,0   c4.683-13.702,8.791-27.977,13.14-42.014C507.603,747.987,511.721,762.253,516.14,776.217z"
   id="path121" />
</g>
<flowRoot
   xml:space="preserve"
   id="flowRoot3104"
   style="font-size:120px;font-style:normal;font-variant:normal;font-weight:bold;font-stretch:normal;text-align:start;line-height:125%;letter-spacing:0px;word-spacing:0px;writing-mode:lr-tb;text-anchor:start;fill:#ffffff;fill-opacity:1;stroke:none;font-family:Times New Roman;-inkscape-font-specification:'Times New Roman, Bold'"><flowRegion
     id="flowRegion3106"><rect
       id="rect3108"
       width="257.07526"
       height="127.63879"
       x="382.91632"
       y="585.17664"
       style="font-size:120px;font-weight:bold;fill:#ffffff;-inkscape-font-specification:'Times New Roman, Bold'"
       ry="12.584104" /></flowRegion><flowPara
     id="flowPara3110">1946</flowPara></flowRoot><path
   style="fill:#ed1b24;fill-opacity:1"
   d="M 476.00471,1152.7556 C 409.82682,1036.3052 376.81796,977.58099 294.87206,830.51269 98.626866,478.31151 66.172182,420.223 37.085175,369.11696 20.397029,339.7958 6.7430909,315.32421 6.7430909,314.73565 c 0,-0.58854 18.8136161,-1.07008 41.8080381,-1.07008 l 41.808037,0 141.960564,235.64378 c 78.07832,129.60408 142.6042,236.04156 143.39085,236.52774 0.78665,0.48618 4.20535,-0.83114 7.59713,-2.92737 l 6.16684,-3.81133 -74.96277,-124.4205 C 273.28226,586.24661 207.99886,477.88768 169.43757,413.88027 l -70.11143,-116.37713 -45.39266,-0.009 c -24.965963,-0.004 -45.39266,-0.52458 -45.39266,-1.15576 0,-0.6312 22.585935,-36.83297 50.190964,-80.44838 C 86.336815,172.2746 127.81268,106.25258 150.90038,69.174416 L 192.878,1.7595741 502.95129,1.365991 813.02459,0.97240785 833.93515,34.623979 C 890.18843,125.153 964.50069,243.79345 980.56622,268.72235 l 17.95761,27.8648 -45.91875,0.89886 -45.91874,0.89887 -144.25948,239.09797 C 683.08414,668.98673 618.32545,777.6301 618.51861,778.91256 c 0.19319,1.28247 2.87788,3.92615 5.96598,5.87487 l 5.61472,3.54313 2.63693,-4.07714 c 1.45032,-2.24243 65.17951,-108.03083 141.62042,-235.08533 76.44092,-127.05451 139.91704,-232.03471 141.05806,-233.28935 1.58657,-1.74457 11.79712,-2.16745 43.40749,-1.79773 l 41.33289,0.48343 -49.22813,87.18986 c -51.02647,90.37492 -97.1281,172.81895 -236.74028,423.3652 -102.79825,184.4805 -209.5254,373.0288 -211.1517,373.0288 -0.67869,0 -12.84231,-20.4267 -27.03028,-45.3927 z m 52.44077,-175.93068 c 19.43777,-4.08162 43.96327,-17.59739 58.82204,-32.41627 24.76706,-24.70057 37.10669,-53.14118 41.41493,-95.45392 1.80602,-17.73756 0.22509,-46.84184 -2.22241,-40.91365 -0.61232,1.48312 -3.83319,10.07154 -7.15749,19.08537 -9.00165,24.40792 -20.08369,42.59612 -35.48842,58.24475 -24.52397,24.91227 -51.5084,35.52 -85.37119,33.55989 -30.89713,-1.78846 -48.86145,-9.68561 -70.27037,-30.89107 -16.88055,-16.7201 -28.48568,-34.62318 -40.52453,-62.5166 -7.53858,-17.46654 -8.71041,-19.26456 -9.77943,-15.00525 -2.34805,9.3554 0.38534,49.9259 4.36035,64.71871 13.01768,48.44456 50.83701,88.62314 94.08405,99.95317 14.92,3.9088 37.87518,4.62866 52.13247,1.63487 l 0,0 z m -42.13949,-144.5145 c 8.39504,-6.42688 15.95828,-11.68524 16.80722,-11.68524 0.84894,0 8.47532,5.35062 16.94748,11.89027 8.47216,6.53966 15.88675,11.40746 16.47685,10.81735 0.59011,-0.5901 -1.62996,-9.99235 -4.93347,-20.89389 -3.67612,-12.13109 -5.34963,-20.40555 -4.31354,-21.32775 0.93108,-0.82874 8.56918,-6.68711 16.97356,-13.01856 l 15.2807,-11.51178 -21.48065,-0.89887 -21.48067,-0.89886 -6.22768,-20.22445 c -3.42523,-11.12345 -6.76063,-20.22446 -7.41201,-20.22446 -0.65138,0 -3.97633,9.10101 -7.38878,20.22446 l -6.20448,20.22445 -21.34592,0.89886 -21.34591,0.89887 17.13655,13.0413 17.13655,13.04132 -6.07586,19.3178 c -6.40984,20.37976 -6.77776,22.01442 -4.95504,22.01442 0.62778,0 8.01008,-5.25836 16.4051,-11.68524 z M 469.55342,680.89279 c 29.90544,-9.44594 42.41125,-53.54101 20.73799,-73.1215 -6.10609,-5.5165 -8.41709,-6.46807 -15.6945,-6.46234 -16.13433,0.0126 -26.04505,10.53098 -26.20501,27.81143 -0.15712,16.96986 10.79118,27.97315 25.15251,25.27895 7.03423,-1.31962 7.08669,-1.14927 2.44668,7.94591 -3.94343,7.72975 -11.58264,13.90899 -21.34392,17.26476 -3.53965,1.21686 -6.75124,3.15902 -7.13686,4.31588 -0.83824,2.51473 8.58308,1.21839 22.04311,-3.03309 l 0,0 z m 139.86072,0.15478 c 10.39339,-5.31078 15.61604,-26.48486 9.46598,-38.37778 -3.96207,-7.66176 -9.57408,-10.80616 -19.28644,-10.80616 -10.26798,0 -10.77735,-1.8323 -3.35699,-12.0758 4.72564,-6.52356 17.76184,-14.89014 23.20074,-14.89014 1.17097,0 2.12902,-0.80898 2.12902,-1.79773 0,-2.68487 -10.85068,-2.17013 -20.0049,0.94902 -22.60786,7.70329 -36.96471,33.24823 -31.91629,56.78823 4.4044,20.53697 21.81442,29.38469 39.76888,20.21041 l 0,-5e-5 z m -173.01379,1.32834 c 0,-0.89203 -2.42694,-2.4679 -5.39319,-3.50196 l -5.39319,-1.88006 0,-37.84583 c 0,-32.86635 -0.36397,-37.84583 -2.76634,-37.84583 -4.78604,0 -31.36638,12.96648 -30.25769,14.76038 0.58144,0.94079 2.89878,1.24829 5.14965,0.68335 7.34338,-1.84306 8.2284,1.8738 7.69664,32.3242 l -0.49614,28.41082 -5.84262,1.51206 c -11.82408,3.06007 -5.71193,5.00473 15.73013,5.00473 11.86501,0 21.57275,-0.72984 21.57275,-1.62186 z m 116.85239,-7.36679 c 0,-7.79015 0.4794,-8.98864 3.59546,-8.98864 2.99622,0 3.59546,-1.19849 3.59546,-7.19092 0,-5.99242 -0.59924,-7.19091 -3.59546,-7.19091 -3.42505,0 -3.59546,-1.1985 -3.59546,-25.28762 l 0,-25.28761 -4.78261,0.56884 c -3.81444,0.45367 -8.54155,5.6638 -23.35106,25.73704 -15.74543,21.3418 -18.57142,26.19315 -18.58787,31.90969 l -0.0194,6.74149 14.38184,0 14.38183,0 0,8.98864 0,8.98865 8.98864,0 8.98865,0 0,-8.98865 z m 1.21821,-258.95011 c 47.74805,-6.3659 86.09057,-33.62269 97.97556,-69.64848 2.00578,-6.07989 2.66655,-10.70381 1.67178,-11.69858 -1.48894,-1.48893 -21.44837,-6.44793 -26.56981,-6.60139 -1.15925,-0.0347 -3.09641,2.97051 -4.30477,6.67833 -13.54425,41.56001 -76.38832,64.03215 -126.56612,45.25821 -30.09661,-11.26058 -56.95734,-46.76316 -68.65646,-90.74516 -4.1891,-15.74859 -4.7611,-21.31605 -4.79258,-46.64667 -0.0298,-23.95991 0.61504,-31.16554 3.86093,-43.14549 4.19052,-15.46639 15.51098,-39.88661 22.42386,-48.37222 l 4.258,-5.22671 4.76313,34.88924 c 4.55779,33.38512 12.02273,98.67054 12.02273,105.14598 0,2.75381 1.56886,2.96323 14.64552,1.95483 8.05503,-0.62117 14.91742,-1.40128 15.24973,-1.73361 1.05605,-1.05604 -4.73199,-62.27637 -8.44793,-89.35411 -1.96747,-14.33689 -5.64303,-37.30331 -8.16793,-51.03649 -5.18538,-28.20403 -5.83587,-26.19197 10.09109,-31.21336 12.88977,-4.06383 46.74302,-4.04196 61.74676,0.0399 5.78132,1.57284 10.86406,3.21229 11.29499,3.64322 0.43093,0.43093 -0.018,9.24173 -0.99743,19.57956 -8.72735,92.10861 46.22655,161.02683 123.73332,155.17517 45.5407,-3.43828 80.16247,-28.95331 97.27412,-71.68761 8.47183,-21.1574 11.21853,-36.84775 11.21242,-64.05042 -0.005,-20.27149 -0.76323,-27.14894 -4.60555,-41.75016 -12.84871,-48.826432 -44.30624,-81.356951 -87.58984,-90.577473 -17.32531,-3.690735 -43.33054,-2.453584 -58.2193,2.769675 -18.19249,6.38227 -26.36871,12.351589 -49.74627,36.318917 l -22.63666,23.20776 -12.41906,-2.981481 C 548.15093,80.691475 511.36831,80.254929 493.92768,83.430909 467.60272,88.224744 469.7338,88.52135 467.13743,79.702226 455.59319,40.489758 442.59971,25.687176 419.53337,25.470172 397.37181,25.261682 384.89109,35.880433 366.09185,70.938863 359.9848,82.327804 353.35713,94.376819 351.3637,97.714451 l -3.62442,6.068419 -11.08196,-23.146846 c -17.36195,-36.263872 -31.66471,-49.21392 -54.35468,-49.21392 -22.14065,0 -37.8461,20.560867 -51.49494,67.414842 -9.60701,32.979124 -15.30004,64.683264 -20.01446,111.459204 -1.4948,14.83127 -3.08289,29.10966 -3.52909,31.72974 -0.80765,4.74257 -0.74703,4.7695 13.59301,6.03888 7.92234,0.70129 14.82519,0.85415 15.33964,0.33968 0.51448,-0.51448 3.27489,-19.44573 6.13425,-42.06945 8.26849,-65.42174 15.16733,-95.77832 27.28991,-120.082158 6.0251,-12.079375 13.32273,-22.471614 15.78001,-22.471614 3.57781,0 20.45251,23.501564 28.84011,40.165882 5.05156,10.03635 14.07595,33.7091 20.85161,54.69794 l 11.9456,37.00367 4.92626,-9.75471 c 2.70945,-5.36509 10.37612,-25.1253 17.03706,-43.91157 15.59681,-43.988669 23.15055,-58.927389 37.40366,-73.971752 9.92388,-10.474807 11.74748,-11.69154 14.95226,-9.976397 4.56587,2.443581 13.35097,18.998687 18.58407,35.020779 l 3.98323,12.19541 -6.90828,8.19147 c -31.13781,36.92165 -44.33482,74.58145 -44.33482,126.51673 0,58.20011 18.52366,106.9438 53.62934,141.12174 30.02475,29.23127 65.41736,40.67714 108.15988,34.97859 z"
   id="path3114"
   inkscape:connector-curvature="0" /><path
   style="fill:#ed1b24;fill-opacity:1"
   d="M 453.9905,1114.1045 C 394.67622,1009.8343 389.56032,1000.7085 255.70378,760.40126 106.89663,493.25375 91.161304,465.09655 46.040291,385.22393 24.426831,346.96407 6.7430909,315.21167 6.7430909,314.66306 c 0,-0.54861 18.8087411,-0.98927 41.7972021,-0.97922 l 41.797201,0.0182 18.195646,30.09371 c 10.0076,16.55162 73.77064,122.31729 141.69564,235.03491 67.92502,112.71761 124.18003,205.63669 125.01113,206.48682 2.44653,2.50255 12.93439,-4.65035 12.00871,-8.19015 C 386.80825,775.44331 321.84554,666.84413 242.88703,535.7958 L 99.32614,297.5261 l -45.584997,-0.02 C 18.012683,297.49034 8.3448125,297.00012 9.0286992,295.23885 9.5086034,294.00291 32.904934,256.58767 61.020543,212.09388 89.136153,167.60008 130.29018,101.91172 152.47394,66.119743 L 192.80805,1.0434151 502.91632,0.98287297 813.02459,0.92233103 884.45849,115.49675 c 39.28864,63.01593 81.05136,129.54052 92.80604,147.83241 l 21.37214,33.25799 -45.95019,0.89886 -45.95019,0.89887 -69.89187,115.95352 c -171.15649,283.95568 -217.46903,361.38607 -217.7133,363.99706 -0.14364,1.5358 2.29489,4.43167 5.41907,6.43527 l 5.68034,3.64292 13.85026,-22.99484 c 7.61764,-12.64717 71.31568,-118.45426 141.55118,-235.12688 70.23549,-116.67262 128.63611,-213.15855 129.7791,-214.41319 1.58943,-1.74464 11.81385,-2.16745 43.47165,-1.79773 l 41.39338,0.48343 -42.11143,74.60576 C 900.31621,491.65602 856.1236,570.6212 739.33936,780.17628 618.52773,996.95801 504.79653,1198.1483 503.06325,1198.1483 c -0.69536,0 -22.77811,-37.8197 -49.07275,-84.0438 z m 78.48736,-138.84878 c 18.70999,-4.78521 36.55926,-14.67107 51.686,-28.62641 26.5281,-24.4738 39.53645,-52.71724 44.53283,-96.68863 1.73815,-15.29681 0.67621,-41.8996 -1.67254,-41.8996 -0.66311,0 -2.61959,4.65162 -4.34775,10.33694 -8.47944,27.89569 -29.2739,60.89074 -47.9881,76.14377 -26.38611,21.50605 -61.19822,29.63269 -95.65815,22.33071 -37.32868,-7.90985 -68.54488,-38.66249 -90.46989,-89.12638 -4.66669,-10.74111 -9.26756,-19.04555 -10.22417,-18.45433 -1.06352,0.65728 -1.3604,10.92963 -0.76407,26.43862 1.17875,30.65698 5.06675,46.93439 16.48151,69.00114 29.32991,56.69989 83.87269,84.49613 138.42433,70.54417 l 0,0 z m -46.30278,-142.9453 c 8.5205,-6.42688 16.11445,-11.68524 16.87543,-11.68524 0.76099,0 8.41382,5.3023 17.00626,11.78288 8.59245,6.48059 16.01944,11.38607 16.50443,10.90108 0.48499,-0.48499 -1.62833,-9.32546 -4.6963,-19.64551 -3.06795,-10.32004 -5.57768,-19.47266 -5.57716,-20.33916 5.2e-4,-0.86649 7.4609,-7.23829 16.57864,-14.15955 l 16.5777,-12.5841 -21.43029,-0.89887 -21.43032,-0.89886 -6.22768,-20.22445 c -3.42523,-11.12345 -6.73436,-20.22446 -7.35364,-20.22446 -0.61927,0 -3.93502,9.10101 -7.36834,20.22446 l -6.24238,20.22445 -21.16934,0.89886 -21.16932,0.89887 16.95902,13.10886 16.95903,13.10886 -6.07595,19.25026 c -6.31589,20.01042 -6.77237,21.94686 -5.17351,21.94686 0.52906,0 7.93322,-5.25836 16.45372,-11.68524 l 0,0 z m -9.61505,-155.12238 c 20.29317,-11.32571 30.27371,-39.06235 21.16079,-58.80738 -5.19861,-11.26384 -11.23249,-15.769 -22.20604,-16.58003 -11.20539,-0.82814 -19.29165,3.30225 -23.89586,12.20585 -3.88103,7.50508 -3.90714,22.76556 -0.0518,30.22117 3.75377,7.25898 13.48798,11.76427 21.97718,10.17168 7.04861,-1.32232 7.09471,-1.16497 2.37047,8.0953 -3.77028,7.39037 -12.81917,14.51675 -22.8834,18.02168 -3.21227,1.11869 -5.4615,2.64721 -4.99826,3.39671 1.60557,2.59787 19.29378,-1.572 28.52681,-6.72498 l 9e-5,0 z m 133.01301,3.77739 c 9.95437,-5.08833 14.86542,-24.36631 9.48671,-37.23936 -3.4844,-8.33934 -9.26575,-11.86244 -19.46607,-11.86244 -10.26798,0 -10.77735,-1.8323 -3.35699,-12.0758 4.72564,-6.52356 17.76184,-14.89014 23.20074,-14.89014 1.17097,0 2.12902,-0.80898 2.12902,-1.79773 0,-2.81706 -10.8187,-2.12612 -20.3819,1.30172 -24.33532,8.72276 -38.27161,37.31665 -30.16277,61.88668 5.43437,16.46628 22.40864,22.92867 38.55126,14.67707 l 0,0 z m -173.17269,1.41048 c 0,-0.89203 -2.42694,-2.4679 -5.39319,-3.50196 l -5.39319,-1.88006 0,-37.0034 c 0,-29.30372 -0.50218,-37.19607 -2.41339,-37.92947 -3.19538,-1.2262 -29.94573,11.02594 -29.94573,13.71566 0,1.31006 1.60667,1.69165 4.28863,1.01851 7.56716,-1.89923 8.42805,1.62115 7.89275,32.27497 l -0.49614,28.41082 -5.84262,1.51206 c -11.82408,3.06007 -5.71193,5.00473 15.73013,5.00473 11.86501,0 21.57275,-0.72984 21.57275,-1.62186 z m 116.85239,-7.36679 c 0,-7.79015 0.4794,-8.98864 3.59546,-8.98864 2.99622,0 3.59546,-1.19849 3.59546,-7.19092 0,-5.99242 -0.59924,-7.19091 -3.59546,-7.19091 -3.42425,0 -3.59546,-1.1985 -3.59546,-25.16821 l 0,-25.16821 -4.33974,0 c -3.47436,0 -7.7207,4.57058 -21.29494,22.92105 -19.84242,26.82415 -21.10628,28.99697 -21.10628,36.28583 l 0,5.51137 14.38184,0 14.38183,0 0,8.98864 0,8.98865 8.98864,0 8.98865,0 0,-8.98865 z m 19.12467,-262.46587 c 28.81593,-7.23504 57.52712,-26.1191 70.53781,-46.39448 5.92443,-9.23246 13.35579,-28.56984 11.8905,-30.94074 -0.79548,-1.28708 -9.02766,-3.4754 -23.62725,-6.28067 -5.30663,-1.01965 -5.81222,-0.65197 -7.91633,5.7569 -13.72364,41.80049 -76.23357,64.20157 -126.58455,45.36284 -30.09661,-11.26058 -56.95734,-46.76316 -68.65646,-90.74516 -4.1891,-15.74859 -4.7611,-21.31605 -4.79258,-46.64667 -0.0298,-23.95991 0.61504,-31.16554 3.86093,-43.14549 4.19052,-15.46639 15.51098,-39.88661 22.42386,-48.37222 l 4.258,-5.22671 4.76669,34.88924 c 2.62169,19.18909 6.55438,51.37894 8.73932,71.53301 l 3.97262,36.64376 14.29912,-1.10268 c 7.86453,-0.60646 14.52454,-1.32807 14.80004,-1.60355 0.68947,-0.68949 -3.9127,-54.35217 -6.3615,-74.17675 -2.81209,-22.76583 -6.86522,-48.85341 -11.13865,-71.69292 -4.15941,-22.23006 -4.74872,-20.85645 11.0787,-25.82293 16.57204,-5.20014 61.5578,-3.35521 71.61791,2.93716 1.95787,1.2246 2.05445,4.99097 0.51917,20.24547 -5.9427,59.04695 16.17823,113.39399 56.71006,139.32607 5.11399,3.2719 15.6307,8.1197 23.37048,10.77286 12.18053,4.17544 16.9724,4.82699 35.64507,4.84664 19.35516,0.0203 23.15171,-0.52925 36.93285,-5.34683 28.2207,-9.8653 48.80524,-27.82304 62.86028,-54.83861 11.47956,-22.06515 16.45567,-44.08614 16.59987,-73.45992 0.14795,-30.12868 -4.00611,-49.10409 -16.13559,-73.706892 C 758.71626,38.029535 709.98638,14.296363 658.41989,25.14282 635.63486,29.935404 625.12904,36.678857 598.60527,63.536444 l -23.86001,24.160339 -6.70138,-2.004678 C 548.53429,79.855916 503.89715,79.70438 483.1413,85.403875 470.65041,88.833838 469.84241,88.32297 465.29163,74.118171 453.91877,38.618862 441.53231,25.579485 419.18337,25.579485 c -22.03308,0 -34.92734,11.423741 -54.73201,48.490143 -5.16512,9.667021 -11.02554,20.28648 -13.02316,23.598798 l -3.63204,6.022394 -11.54103,-23.807591 C 318.96715,44.22042 304.62939,31.422104 281.96488,31.422104 c -17.70587,0 -31.95897,14.682162 -44.03201,45.357527 -5.94189,15.097241 -15.93714,54.031199 -19.9697,77.786919 -4.09024,24.09559 -11.2796,90.81574 -9.879,91.68134 1.6431,1.0155 28.76825,3.32451 28.76825,2.44889 0,-0.41057 2.39534,-19.33089 5.323,-42.04518 8.52665,-66.15417 15.37607,-96.20137 27.44554,-120.398758 6.0251,-12.079375 13.32273,-22.471614 15.78001,-22.471614 3.57486,0 20.44931,23.495178 28.82314,40.131982 4.96865,9.8715 14.17748,33.96574 20.87999,54.63092 l 11.99094,36.97055 4.42799,-8.71284 c 2.4354,-4.79204 10.26656,-24.92658 17.40258,-44.7434 16.38595,-45.503994 23.2108,-58.986784 37.48509,-74.053485 9.91895,-10.469597 11.7421,-11.685778 14.94683,-9.970664 4.55787,2.439299 13.34878,18.991496 18.55797,34.942376 l 3.95714,12.117013 -11.7606,14.69894 c -27.53209,34.41086 -39.54504,71.36394 -39.3566,121.06493 0.15353,40.47038 9.56137,77.17543 27.37985,106.82264 34.44707,57.31457 89.27287,80.67322 152.24212,64.86306 l 0,0 z"
   id="path3116"
   inkscape:connector-curvature="0" /><path
   style="fill:#ed1b24;fill-opacity:1"
   d="m 593.11704,676.28665 c -2.7358,-3.29644 -5.61192,-16.89318 -5.6635,-26.77402 -0.0362,-6.92638 0.60846,-8.62514 3.63778,-9.5866 4.88501,-1.55045 8.44045,1.67168 10.65931,9.66004 4.95525,17.83997 -0.91648,35.99913 -8.63359,26.70058 z"
   id="path3118"
   inkscape:connector-curvature="0" /><path
   style="fill:#ed1b24;fill-opacity:1"
   d="m 523.77603,640.40284 c 4.66716,-6.17969 9.16382,-12.00434 9.99258,-12.94365 0.82924,-0.93986 1.50684,4.11266 1.50684,11.23581 l 0,12.94365 -9.99258,0 -9.99259,0 8.48575,-11.23581 z"
   id="path3120"
   inkscape:connector-curvature="0" /><path
   style="fill:#ed1b24;fill-opacity:1"
   d="m 470.40072,643.36031 c -3.40419,-4.10178 -4.64908,-30.34408 -1.61302,-34.00231 3.75248,-4.52146 6.74203,-2.98539 9.80646,5.0387 1.92701,5.04579 2.75312,11.70948 2.39585,19.32559 -0.47883,10.20739 -1.00273,11.68966 -4.29807,12.16049 -2.06402,0.2949 -4.89507,-0.84021 -6.29122,-2.52247 z"
   id="path3122"
   inkscape:connector-curvature="0" /><path
   style="fill:#ffffff;fill-opacity:1"
   d="m 399.86578,680.94843 c 7.31294,-1.42355 7.88521,-4.13786 7.36701,-34.94205 -0.47131,-28.01674 -0.67721,-29.50349 -4.30678,-31.09768 -3.40923,-1.49741 -2.6802,-2.2094 6.9029,-6.74149 5.89309,-2.78699 11.43496,-5.06725 12.31527,-5.06725 0.88031,0 1.81889,17.15483 2.08574,38.12184 l 0.48519,38.12185 4.49432,1.249 c 2.47188,0.68695 -3.99995,1.21947 -14.38183,1.18337 -10.38189,-0.0361 -17.11471,-0.4085 -14.96182,-0.82759 l 0,0 z"
   id="path3126"
   inkscape:connector-curvature="0" /><path
   style="fill:#ffffff;fill-opacity:1"
   d="m 460.66969,679.38306 c 8.63396,-4.47424 17.00923,-13.61335 19.21139,-20.96349 2.44262,-8.15276 1.60973,-9.38775 -4.46468,-6.62007 -9.5182,4.33678 -21.94622,-3.45146 -24.64071,-15.44155 -3.75784,-16.7218 5.67878,-31.39075 21.04576,-32.71502 17.49131,-1.50734 28.79111,12.86813 27.06064,34.42618 -1.48433,18.49166 -11.74095,32.8452 -29.10623,40.73248 -9.3102,4.22868 -17.10463,4.72639 -9.10617,0.58147 z m 21.55812,-48.51969 c -0.0112,-12.51234 -0.74906,-17.40183 -3.18747,-21.12332 -3.71306,-5.66684 -9.3692,-6.30945 -12.01535,-1.36509 -2.75514,5.14803 -2.25643,26.25316 0.79281,33.55101 2.36674,5.66442 3.29037,6.29013 8.53921,5.78488 l 5.88543,-0.56653 -0.0146,-16.28095 -7e-5,0 z"
   id="path3128"
   inkscape:connector-curvature="0" /><path
   style="fill:#ffffff;fill-opacity:1"
   d="m 537.07318,673.2114 0,-8.98865 -14.38184,0 -14.38183,0 0,-5.19786 c 0,-3.72113 4.64217,-11.50997 16.33964,-27.41537 27.49174,-37.38136 26.80586,-37.29586 26.80586,-3.34135 0,23.96972 0.17122,25.16821 3.59546,25.16821 2.79647,0 3.59546,1.19848 3.59546,5.39318 0,4.1947 -0.79899,5.39319 -3.59546,5.39319 -3.11606,0 -3.59546,1.19849 -3.59546,8.98865 l 0,8.98864 -7.19092,0 -7.19091,0 0,-8.98864 z m 0,-35.95459 c 0,-8.89876 -0.3073,-16.17956 -0.68288,-16.17956 -0.37558,0 -4.1621,4.65163 -8.41449,10.33694 -4.25239,5.68532 -9.70395,12.96612 -12.1146,16.17957 l -4.38298,5.84262 12.79747,0 12.79748,0 0,-16.17957 z"
   id="path3130"
   inkscape:connector-curvature="0" /><path
   style="fill:#ffffff;fill-opacity:1"
   d="m 590.18112,682.70337 c -16.43097,-4.25278 -24.86107,-29.74172 -16.38184,-49.53149 4.30448,-10.04627 15.11658,-21.09199 25.29555,-25.84213 13.05409,-6.09186 18.26742,-5.39421 7.19092,0.96228 -8.57803,4.9227 -14.81213,12.95408 -17.85362,23.0008 -1.14214,3.77272 -0.81525,3.88508 8.50458,2.92319 8.889,-0.91743 10.18534,-0.55988 15.63981,4.31369 5.06733,4.52765 6.05427,6.75538 6.66937,15.0541 0.82066,11.07196 -2.8192,20.01039 -10.26355,25.20426 -5.04944,3.52296 -13.50992,5.28483 -18.80122,3.9153 z m 13.63034,-7.24481 c 2.23857,-5.73108 0.94806,-27.26263 -1.95965,-32.69573 -2.89183,-5.40343 -10.76651,-6.8812 -13.98841,-2.62508 -3.21136,4.2422 -2.02193,24.0429 2.02626,33.73157 3.5264,8.43988 10.91641,9.28348 13.9218,1.58924 z"
   id="path3132"
   inkscape:connector-curvature="0" /></svg>