<?xml version="1.0" encoding="utf-8"?>
<!-- Generator: Adobe Illustrator 25.0.1, SVG Export Plug-In . SVG Version: 6.00 Build 0)  -->
<svg version="1.0" id="katman_1" xmlns="http://www.w3.org/2000/svg" xmlns:xlink="http://www.w3.org/1999/xlink" x="0px" y="0px"
	 viewBox="0 0 473 356" style="enable-background:new 0 0 473 356;" xml:space="preserve">
<style type="text/css">
	.st0{fill:#00273E;}
	.st1{fill:#029CDC;}
	.st2{fill:#FFFFFF;}
</style>
<g>
	<path class="st0" d="M360,28v239.2c0,33.6-59.6,34-60.2,34c-23,0-43.6,7.5-57.4,21l-5.9,5.8l-5.9-5.8c-13.8-13.6-34.4-21-57.4-21
		c-0.6,0-60.2-0.4-60.2-34V28L360,28"/>
	<path class="st1" d="M351.6,36.4v230.8c0,5.2-2,9.3-6.3,13c-4,3.4-9.8,6.3-17.2,8.4c-13.9,4-28.1,4.1-28.3,4.1
		c-25.4,0-47.9,8.3-63.3,23.5l0,0l0,0c-15.4-15.1-37.9-23.5-63.3-23.5c-0.1,0-14.4-0.1-28.3-4.1c-7.4-2.2-13.2-5-17.2-8.4
		c-4.3-3.7-6.3-7.8-6.3-13V36.4L351.6,36.4"/>
	<path class="st2" d="M154,102.5v180.2c10,2,18.8,2.2,19.2,2.2c4.7,0,9.3,0.3,13.8,0.8V102.5L154,102.5L154,102.5z"/>
	<path class="st2" d="M220,102.5v192.6c6,2.9,11.5,6.4,16.5,10.5c5-4.1,10.5-7.6,16.5-10.5V102.5L220,102.5L220,102.5z"/>
	<path class="st2" d="M286,102.5v183.2c4.5-0.5,9.1-0.8,13.8-0.8c0.4,0,9.2-0.1,19.2-2.2V102.5L286,102.5L286,102.5z"/>
	<path class="st2" d="M154,102.5l0,180.3c10.1,2,18.6,2,19.1,2h0.6c4.5,0,9,0.2,13.3,0.7v-183C175.1,102.5,163.9,102.5,154,102.5
		L154,102.5z"/>
	<path class="st2" d="M220,102.5V295v0c6,3.1,11.6,6.8,16.6,11.1c4.9-4.2,10.4-7.8,16.4-10.8V102.5L220,102.5L220,102.5z"/>
	<path class="st2" d="M286,102.5v183.2c4.4-0.5,9-0.8,13.6-0.8h0.3c5.1,0,12.1-0.7,19-2V102.5L286,102.5L286,102.5z"/>
	<path class="st2" d="M153.7,59.7h-8.4v9.1h8.2c4.8,0,6.8-1.5,6.8-4.7C160.2,61.1,158.4,59.7,153.7,59.7z M160.1,72.2L160.1,72.2
		l10.7,12.4h-8.9l-8.2-10.9h-8.5v10.9h-7.4V54.2h16c9.3,0,14,3.5,14,9.5C167.9,67.8,165.1,71.4,160.1,72.2z"/>
	<path class="st2" d="M191,62l-5.4,11h13.5l-5.3-11l-1.3-3h-0.1L191,62z M201.7,78.5h-18.8l-3,6.2H172l16.3-30.5h8.2l16.4,30.5h-8.3
		L201.7,78.5z"/>
	<path class="st2" d="M241.6,61.1c-2.5-0.8-5.7-1.4-9.4-1.4c-8.8,0-11.9,3-11.9,9.7c0,7.1,3.2,9.9,12.1,9.9c3.5,0,6.6-0.7,9.2-1.7
		l0.9,5.4c-3,1.3-7.1,2.3-11,2.3c-12.7,0-18.9-5.9-18.9-15.9c0-9.3,5.9-15.8,19.5-15.8c3.7,0,7.7,0.7,10.3,1.6L241.6,61.1
		L241.6,61.1z"/>
	<rect x="248.2" y="54.2" class="st2" width="7.4" height="30.5"/>
	<polygon class="st2" points="292.2,84.6 272.4,65.8 270.1,63.5 270,63.5 270.1,66.8 270.1,84.6 263.4,84.6 263.4,54.2 269.5,54.2 
		288.1,72.3 290.4,74.7 290.5,74.6 290.4,71.3 290.4,54.2 297,54.2 297,84.6 	"/>
	<path class="st2" d="M335.1,83.3c-3.2,1.2-8,1.9-12.5,1.9c-14,0-20-6-20-15.8c0-9.7,6-15.9,20-15.9c4.1,0,8.6,0.6,11.8,1.7
		l-0.7,5.9c-3.1-1-6.9-1.6-10.7-1.6c-9.2,0-12.6,2.8-12.6,9.8c0,6.8,3.1,9.9,12,9.9c2.4,0,4.5-0.3,6.4-0.8v-9.7h6.4V83.3L335.1,83.3
		z"/>
</g>
</svg>
