<?xml version="1.0" encoding="UTF-8" standalone="no"?>
<svg id="svg227" height="247.67667pt" viewBox="0 0 221.49999 247.67666" width="221.5pt" xmlns="http://www.w3.org/2000/svg" xmlns:xlink="http://www.w3.org/1999/xlink">
   <clipPath id="clip3">
      <rect id="rect8" height="412" width="367"/>
   </clipPath>
   <clipPath id="clip6">
      <path id="path24" d="m .980469.480469h332.828121v372.882811h-332.828121zm0 0"/>
   </clipPath>
   <clipPath id="clip5">
      <rect id="rect27" height="374" width="334"/>
   </clipPath>
   <clipPath id="clip8">
      <path id="path39" d="m165 51h13.13672v54h-13.13672zm0 0"/>
   </clipPath>
   <clipPath id="clip9">
      <path id="path42" d="m73 147h71v31.12109h-71zm0 0"/>
   </clipPath>
   <clipPath id="clip10">
      <path id="path45" d="m57 .0507813h69v15.9492187h-69zm0 0"/>
   </clipPath>
   <clipPath id="clip12">
      <path id="path51" d="m .0664063 32h25.9335937v66h-25.9335937zm0 0"/>
   </clipPath>
   <clipPath id="clip7">
      <rect id="rect54" height="179" width="179"/>
   </clipPath>
   <clipPath id="clip14">
      <path id="path100" d="m24 .277344h20.117188v30.566406h-20.117188zm0 0"/>
   </clipPath>
   <clipPath id="clip15">
      <path id="path103" d="m .425781.277344h20.574219v30.566406h-20.574219zm0 0"/>
   </clipPath>
   <clipPath id="clip13">
      <rect id="rect106" height="31" width="45"/>
   </clipPath>
   <clipPath id="clip1">
      <rect id="rect120" height="412" width="367"/>
   </clipPath>
   <g id="use224" clip-path="url(#clip1)" transform="translate(-72.64586 -82.08292)">
      <g id="use548" clip-path="url(#clip3)" transform="matrix(.59402563 0 0 .59402563 74.454016 83.598748)">
         <path id="path715" d="m353.14844 238.58984c4.67187-17.64843 4.67187-39.30078 4.67187-61.92187 0-43.32031-.67969-88.121095-.35156-132.839845-81.30859-44.609375-243.66016-45.71875-332.648437-7.917969-5.78125 2.449219-11.648438 4.707032-16.550782 8.277344.230469 44.171875.71875 88.90234.71875 132.12109 0 22.48828.371094 43.91016 5.042969 61.5586 4.539063 17.22265 11.457031 32.72265 20.160156 46.4414 34.457032 54.35157 89.027344 88.92969 149.039064 117.35938 30.83984-13.32813 59.27734-29.66016 84.23828-48.96094 36.5-28.23828 72.26172-63.50781 85.67969-114.11719m12.96093-199.441402c.23829 45.789062.35157 92.878902.35938 138.601562 0 24.09766-.0781 46.41797-5.03906 64.44141-4.78125 17.33593-12.57032 33.59765-21.60938 47.51562-30.8125 47.45313-78.71094 84.11328-132.12109 110.52344-3.26953 1.61719-7.19141 3.80859-11.50781 5.75781-3.47266 1.55859-9.8711 5.01172-12.24219 5.03906-2.30078.0195-9.16797-3.46875-12.60938-5.03906-27.1914-12.46094-53.33984-28.91797-75.601559-45.71875-26.777343-20.22266-50.597656-43.07031-68.027343-70.92187-8.890625-14.19922-16.8125-30.48829-21.601563-47.87891-4.960937-18.01172-5.039062-40.69922-5.039062-64.44141 0-45.32031-.878907-92.300777-.730469-138.238277 43.558594-23.351563 100.769536-34.429688 165.609376-37.441407 78.04297-3.628906 149.72265 11.539063 200.16015 37.800782" fill="#211e1e"/>
         <path id="path719" d="m73.070313 313.10937c1.289062 1.62891 4.640625 4.89063 5.039062 5.03907-1.300781-1.62891-4.648437-4.89844-5.039062-5.03907m120.960937 71.27735c1.39844-1.16797 5.91016-2.88672 5.74609-3.23828-1.76562.78906-6.35937 2.4414-5.74609 3.23828m91.4375-62.27735c4.23047-3.92968 10.21094-9.92968 12.96094-12.96093-4.23828 3.92968-10.21875 9.92968-12.96094 12.96093m72.35156-145.4414c0 22.62109 0 44.26953-4.67187 61.92187-13.41797 50.60938-49.17969 85.87891-85.67969 114.1211-24.95703 19.29687-53.39844 35.6289-84.23828 48.95703-60.01172-28.42969-114.582032-63.00781-149.039064-117.35938-8.703125-13.71875-15.621093-29.21875-20.160156-46.4414-4.671875-17.64844-5.042969-39.07032-5.042969-61.5586 0-43.21875-.488281-87.949215-.71875-132.12109 4.898438-3.570312 10.769532-5.828125 16.550782-8.277344 88.988277-37.800781 251.339847-36.691406 332.648437 7.917969-.32813 44.722656.35156 89.519535.35156 132.839845" fill="#fff"/>
         <path id="path721" d="m298.42969 309.14844c-2.75 3.03125-8.73047 9.03125-12.96094 12.96093 2.74219-3.03125 8.72266-9.03125 12.96094-12.96093" fill="#fff"/>
         <path id="path723" d="m199.78125 381.14844c.15625.35156-4.35156 2.07031-5.75 3.23828-.60938-.79688 3.97656-2.44922 5.75-3.23828" fill="#fff"/>
         <path id="path725" d="m78.109375 318.14844c-.398437-.14844-3.75-3.41016-5.039062-5.03907.390625.14063 3.738281 3.41016 5.039062 5.03907" fill="#fff"/>
      </g>
      <g id="use552" clip-path="url(#clip5)" transform="matrix(.59402563 0 0 .59402563 83.3644 91.915107)">
         <g id="g650" clip-path="url(#clip6)" fill="#211e1e">
            <path id="path648" d="m321.70312 216.61719c4.24219-16.04688 4.24219-35.72657 4.24219-56.28516 0-39.3789-.61719-80.101561-.3164-120.753905-73.91016-40.550781-221.48828-41.558594-302.37891-7.199219-5.253906 2.226563-10.589844 4.28125-15.042969 7.527344.207032 40.148438.652344 80.80859.652344 120.09766 0 20.4414.335938 39.91406 4.582031 55.95703 4.128907 15.65234 10.417969 29.74218 18.324219 42.21484 31.324219 49.40234 80.929685 80.83594 135.476565 106.67969 28.03515-12.11719 53.88672-26.96094 76.57422-44.50391 33.17968-25.67187 65.6875-57.73047 77.88671-103.73437m11.77735-181.292971c.21875 41.625.32031 84.429691.32812 125.988281 0 21.90625-.0703 42.19531-4.58203 58.57422-4.34375 15.76172-11.42187 30.54297-19.64062 43.19531-28.00782 43.13281-71.55078 76.45703-120.09766 100.46484-2.97266 1.47266-6.53516 3.46485-10.46484 5.23438-3.15235 1.41797-8.96875 4.55469-11.125 4.58203-2.08985.0195-8.33594-3.15234-11.46094-4.58203-24.71484-11.32422-48.48828-26.28906-68.722656-41.55859-24.339844-18.37891-45.992188-39.15235-61.835938-64.46485-8.082031-12.91015-15.28125-27.71875-19.636718-43.52344-4.507813-16.37109-4.582032-36.99609-4.582032-58.57812 0-41.19531-.800781-83.898437-.664062-125.660156 39.597656-21.222656 91.601562-31.296875 150.539066-34.03125 70.9414-3.300782 136.09765 10.488281 181.94531 34.359375"/>
         </g>
         <path id="path652" d="m177.0625 349.14844c1.27344-1.0625 5.37109-2.62891 5.22656-2.94532-1.60937.71875-5.78125 2.21875-5.22656 2.94532m148.88281-188.81641c0 20.55859 0 40.23828-4.24219 56.28516-12.19921 46.0039-44.70703 78.0625-77.88671 103.73437-22.6875 17.54297-48.53907 32.38672-76.57032 44.50391-54.55078-25.84375-104.156246-57.27735-135.480465-106.67969-7.90625-12.47266-14.195312-26.5625-18.324219-42.21484-4.246093-16.04297-4.582031-35.51563-4.582031-55.95703 0-39.28907-.445312-79.949222-.652344-120.09766 4.453125-3.246094 9.789063-5.300781 15.042969-7.527344 80.89063-34.359375 228.46875-33.351562 302.37891 7.199219-.30079 40.652344.3164 81.375005.3164 120.753905" fill="#bdb03a"/>
         <path id="path654" d="m182.28906 346.20312c.14453.31641-3.95312 1.88282-5.22656 2.94532-.55469-.72657 3.61719-2.22657 5.22656-2.94532" fill="#fff"/>
      </g>
      <g id="use554" clip-path="url(#clip7)" transform="matrix(.59402563 0 0 .59402563 128.51035 198.24569)">
         <g id="g732" clip-path="url(#clip8)" fill="#211e1e">
            <path id="path730" d="m178.13672 89.082031c0 5.195313-.44531 10.28125-1.30078 15.230469l-.20703-.0312-6.48047-8.863281-4.44141-36.507813 4.09375-6.824218.24609-.117188c5.19532 11.300781 8.08985 23.863281 8.08985 37.113281"/>
         </g>
         <path id="path734" d="m176.62891 104.28125l.20703.0312c-3.8711 22.47656-16.16797 42.05859-33.51953 55.39453l-.125-.16016-7.15625-12.28125 13.30468-33.42578 20.8086-18.421871zm0 0" fill="#fff"/>
         <path id="path736" d="m165.70703 58.910156l4.44141 36.507813-20.8086 18.421871-24.90625-18.085934-.0234.01563-.008-.01563-4.71875-38.890625-.0156-.01563 21.47656-16.695312zm0 0" fill="#fff"/>
         <path id="path738" d="m170.04687 51.96875l-.24609.117188-4.09375 6.824218-24.5625-18.757812-20.12109-26.273438 4.09375-6.136718.0391-.078125c19.82812 8.785156 35.85156 24.605468 44.89062 44.304687" fill="#fff"/>
         <path id="path740" d="m149.33984 113.83984l-13.30468 33.42578-35.14063 2.72266-8.187499-33.42578 31.703129-20.789062.0234-.01953zm0 0" fill="#211e1e"/>
         <g id="g744" clip-path="url(#clip9)" fill="#fff">
            <path id="path742" d="m143.19141 159.54687l.125.16016c-15.01563 11.55078-33.8125 18.41406-54.218754 18.41406-2.742187 0-5.457031-.12109-8.132812-.375l-7.367188-11.375 27.296874-16.38281 35.14063-2.72266zm0 0"/>
         </g>
         <path id="path746" d="m121.02344 13.878906l20.12109 26.273438-21.47656 16.695312-.0156.01563-35.132809-14.328125 1.023438-27.292968zm0 0" fill="#211e1e"/>
         <g id="g750" clip-path="url(#clip10)" fill="#fff">
            <path id="path748" d="m125.15625 7.664063l-.0391.074218-4.09375 6.140625-35.480471 1.363282-28.242188-5.039063.148438-.839844 2.253906-3.507812-.261719-.738281c9.277344-3.28125 19.261719-5.0664067 29.65625-5.0664067 12.835934 0 25.039064 2.7187497 36.058594 7.6132817"/>
         </g>
         <path id="path752" d="m124.40234 95.753906l.008.01953-31.703309 20.789064-35.136718-14.32812-4.441407-37.183599 31.390625-22.515625 35.132809 14.328125.0156-.01563.0156.01563zm0 0" fill="#fff"/>
         <path id="path754" d="m92.707031 116.5625l8.187499 33.42578-27.296874 16.38672-34.449218-16.38672-8.1875-31.03125 26.609375-16.72265zm0 0" fill="#fff"/>
         <path id="path756" d="m85.542969 15.242188l-1.023438 27.292968-31.390625 22.519532-28.992187-5.121094 1.359375-26.945313 31.390625-22.863281.414062.07813zm0 0" fill="#fff"/>
         <path id="path758" d="m73.597656 166.37109l7.367188 11.375c-19.800781-1.78515-37.730469-10.05859-51.644531-22.67968l.269531-.29688 9.558594-4.78125zm0 0" fill="#211e1e"/>
         <path id="path760" d="m59.441406 5.117188l.261719.738281-2.253906 3.507812-.148438.839844-.414062-.078125-31.390625 22.863281-6.808594 1.613282c10.363281-13.394532 24.46875-23.746094 40.753906-29.484375" fill="#211e1e"/>
         <path id="path762" d="m53.128906 65.050781l4.441407 37.183599-26.609375 16.72265-18.765625-26.609374v-.0078l11.941406-32.40625zm0 0" fill="#211e1e"/>
         <path id="path764" d="m30.960938 118.95703l8.1875 31.03125-9.558594 4.78125-.265625.29688c-16.054688-14.54688-26.773438-34.8711-28.867188-57.695316l11.738282-5.03125v.0078zm0 0" fill="#fff"/>
         <g id="g770" clip-path="url(#clip12)" fill="#fff">
            <path id="path768" d="m25.496094 32.988281l-1.359375 26.945313-11.941406 32.40625-11.738282 5.03125c-.261718-2.722656-.3906247-5.496094-.3906247-8.289063 0-20.519531 6.9492187-39.417968 18.6210937-54.480468zm0 0"/>
         </g>
      </g>
      <path id="path556" d="m229.52255 229.11646c3.08615 6.71064 4.80557 14.1754 4.80557 22.04624 0 3.08615-.26452 6.10733-.77269 9.04729-2.29953 13.35166-9.60419 24.98389-19.91146 32.90577-8.91735 6.86146-20.0855 10.93843-32.20733 10.93843-1.62661 0-3.24162-.0719-4.8311-.22276-11.76217-1.06043-22.41287-5.97506-30.67818-13.47231-9.53457-8.64354-15.90178-20.71433-17.14552-34.2725-.15547-1.61733-.23204-3.26482-.23204-4.92392 0-12.18912 4.12801-23.41528 11.0614-32.36279 6.15838-7.9567 14.53507-14.10579 24.20887-17.51448 5.5133-1.94914 11.43963-3.00957 17.61657-3.00957 7.62488 0 14.87384 1.61501 21.41973 4.52248 11.77841 5.21861 21.29675 14.61628 26.66618 26.31812zm0 0" fill="none" stroke="#211e1e" stroke-linecap="round" stroke-linejoin="round" stroke-width="1.78207684"/>
      <path id="path558" d="m163.97553 201.72399l-1.34119 2.08373" fill="none" stroke="#211e1e" stroke-linecap="round" stroke-linejoin="round" stroke-width="1.78207684"/>
      <path id="path560" d="m128.65885 256.13767l.12299-.0511 6.97284-2.98869" fill="none" stroke="#211e1e" stroke-linecap="round" stroke-linejoin="round" stroke-width="1.78207684"/>
      <path id="path562" d="m202.83316 202.84243l-2.43179 3.64769" fill="none" stroke="#211e1e" stroke-linecap="round" stroke-linejoin="round" stroke-width="1.78207684"/>
      <path id="path564" d="m229.37636 229.18608l-2.43179 4.05376" fill="none" stroke="#211e1e" stroke-linecap="round" stroke-linejoin="round" stroke-width="1.78207684"/>
      <path id="path566" d="m209.31872 285.72525l4.25099 7.29538" fill="none" stroke="#211e1e" stroke-linecap="round" stroke-linejoin="round" stroke-width="1.78207684"/>
      <path id="path568" d="m172.22924 297.07439l16.21505-9.73181" fill="none" stroke="#211e1e" stroke-linecap="round" stroke-linejoin="round" stroke-width="1.78207684"/>
      <path id="path570" d="m188.44429 287.34258l-4.86359-19.85577" fill="none" stroke="#211e1e" stroke-linecap="round" stroke-linejoin="round" stroke-width="1.78207684"/>
      <path id="path572" d="m135.75468 253.10257v-.005l7.0935-19.25014" fill="none" stroke="#211e1e" stroke-linecap="round" stroke-linejoin="round" stroke-width="1.78207684"/>
      <path id="path574" d="m142.84818 233.84779l17.2221 3.03974" fill="none" stroke="#211e1e" stroke-linecap="round" stroke-linejoin="round" stroke-width="1.78207684"/>
      <path id="path576" d="m160.07028 236.88753l18.64684-13.37486" fill="none" stroke="#211e1e" stroke-linecap="round" stroke-linejoin="round" stroke-width="1.78207684"/>
      <path id="path578" d="m178.71712 223.51267l.60794-16.21273" fill="none" stroke="#211e1e" stroke-linecap="round" stroke-linejoin="round" stroke-width="1.78207684"/>
      <path id="path580" d="m179.32506 207.29994l-16.77658-2.99333-.24596-.0464" fill="none" stroke="#211e1e" stroke-linecap="round" stroke-linejoin="round" stroke-width="1.78207684"/>
      <path id="path582" d="m162.30252 204.2602l-18.64684 13.58138" fill="none" stroke="#211e1e" stroke-linecap="round" stroke-linejoin="round" stroke-width="1.78207684"/>
      <path id="path584" d="m143.65568 217.84158l-.8075 16.00621" fill="none" stroke="#211e1e" stroke-linecap="round" stroke-linejoin="round" stroke-width="1.78207684"/>
      <path id="path586" d="m160.07028 236.88753l2.63831 22.088" fill="none" stroke="#211e1e" stroke-linecap="round" stroke-linejoin="round" stroke-width="1.78207684"/>
      <path id="path588" d="m162.70859 258.97553l20.87211 8.51128" fill="none" stroke="#211e1e" stroke-linecap="round" stroke-linejoin="round" stroke-width="1.78207684"/>
      <path id="path590" d="m183.5807 267.48681l18.83247-12.35156.0139-.009" fill="none" stroke="#211e1e" stroke-linecap="round" stroke-linejoin="round" stroke-width="1.78207684"/>
      <path id="path592" d="m202.40853 255.12597l-2.80306-23.10203" fill="none" stroke="#211e1e" stroke-linecap="round" stroke-linejoin="round" stroke-width="1.78207684"/>
      <path id="path594" d="m199.58691 232.02394l-20.86979-8.51127" fill="none" stroke="#211e1e" stroke-linecap="round" stroke-linejoin="round" stroke-width="1.78207684"/>
      <path id="path596" d="m199.58691 232.02394l.009-.009 12.75763-9.91744" fill="none" stroke="#211e1e" stroke-linecap="round" stroke-linejoin="round" stroke-width="1.78207684"/>
      <path id="path598" d="m202.42709 255.12597l14.79495 10.74351" fill="none" stroke="#211e1e" stroke-linecap="round" stroke-linejoin="round" stroke-width="1.78207684"/>
      <path id="path600" d="m217.22204 265.86948l12.36084-10.94307" fill="none" stroke="#211e1e" stroke-linecap="round" stroke-linejoin="round" stroke-width="1.78207684"/>
      <path id="path602" d="m229.58288 254.92641l-2.63831-21.68657" fill="none" stroke="#211e1e" stroke-linecap="round" stroke-linejoin="round" stroke-width="1.78207684"/>
      <path id="path604" d="m212.35382 222.09722l14.59075 11.14262" fill="none" stroke="#211e1e" stroke-linecap="round" stroke-linejoin="round" stroke-width="1.78207684"/>
      <path id="path606" d="m212.35382 222.09722l-11.95245-15.6071" fill="none" stroke="#211e1e" stroke-linecap="round" stroke-linejoin="round" stroke-width="1.78207684"/>
      <path id="path608" d="m200.40137 206.49012l-21.07631.80982" fill="none" stroke="#211e1e" stroke-linecap="round" stroke-linejoin="round" stroke-width="1.78207684"/>
      <path id="path610" d="m188.44429 287.34258l20.87443-1.61733" fill="none" stroke="#211e1e" stroke-linecap="round" stroke-linejoin="round" stroke-width="1.78207684"/>
      <path id="path612" d="m209.31872 285.72525l7.90332-19.85577" fill="none" stroke="#211e1e" stroke-linecap="round" stroke-linejoin="round" stroke-width="1.78207684"/>
      <path id="path614" d="m229.58288 254.92641l3.84957 5.26502" fill="none" stroke="#211e1e" stroke-linecap="round" stroke-linejoin="round" stroke-width="1.78207684"/>
      <path id="path616" d="m135.75468 253.10257l11.14726 15.80665" fill="none" stroke="#211e1e" stroke-linecap="round" stroke-linejoin="round" stroke-width="1.78207684"/>
      <path id="path618" d="m146.90194 268.90922l4.86358 18.43336" fill="none" stroke="#211e1e" stroke-linecap="round" stroke-linejoin="round" stroke-width="1.78207684"/>
      <path id="path620" d="m151.76552 287.34258l-5.67805 2.84018" fill="none" stroke="#211e1e" stroke-linecap="round" stroke-linejoin="round" stroke-width="1.78207684"/>
      <path id="path622" d="m151.76552 287.34258l20.46372 9.73181" fill="none" stroke="#211e1e" stroke-linecap="round" stroke-linejoin="round" stroke-width="1.78207684"/>
      <path id="path624" d="m172.22924 297.07439l4.3763 6.75704.0859.13226" fill="none" stroke="#211e1e" stroke-linecap="round" stroke-linejoin="round" stroke-width="1.78207684"/>
      <path id="path626" d="m146.90194 268.90922l15.80665-9.93369" fill="none" stroke="#211e1e" stroke-linecap="round" stroke-linejoin="round" stroke-width="1.78207684"/>
      <path id="path628" d="m143.65568 217.84158l-4.04448.95833-.21116.051" fill="none" stroke="#211e1e" stroke-linecap="round" stroke-linejoin="round" stroke-width="1.78207684"/>
      <path id="path630" d="m121.42149 163.75972l.38287 5.42745h-13.8343v-17.63514h14.69749c2.46428 2.80538 4.76845 4.79397 6.92411 5.95882 2.14174 1.17877 4.50392 1.77048 7.08654 1.77048 2.1255 0 3.82868-.42232 5.11883-1.25302 1.29015-.83071 1.93755-1.93755 1.93755-3.29732 0-1.29943-.63115-2.35985-1.90738-3.17896-1.27623-.81678-3.18361-1.39456-5.70822-1.73335l-6.74544-.91424c-7.33714-.98618-12.80868-2.82858-16.41692-5.5365-3.60824-2.69632-5.41352-6.29528-5.41352-10.78528 0-4.70812 2.05589-8.62033 6.14677-11.75985 4.09321-3.14184 9.21436-4.70812 15.34489-4.70812 3.24162 0 6.10269.47104 8.58089 1.40849 2.48052.93977 4.60834 2.37146 6.38113 4.30901l-.17403-4.65939h13.78789v16.39603h-13.78789c-1.80528-2.54085-3.66857-4.41806-5.55971-5.62236-1.90738-1.21357-3.97718-1.81688-6.17694-1.81688-1.95146 0-3.56415.43392-4.84038 1.28783-1.27622.85623-1.90738 1.92594-1.90738 3.19057 0 1.28783.67524 2.33433 2.02572 3.11631 1.34816.7959 3.592 1.44562 6.74544 1.96307l5.83816.84231c7.30698 1.15557 12.7205 3.06991 16.25449 5.75462 3.52239 2.67312 5.28126 6.22335 5.28126 10.64141 0 5.22325-1.98163 9.41392-5.92633 12.55344-3.96095 3.15576-9.25613 4.73132-15.91571 4.73132-3.75443 0-7.13063-.52906-10.13789-1.60109-3.02117-1.06971-5.70589-2.68472-8.08199-4.84966" fill="#211e1e"/>
      <path id="path632" d="m121.42149 163.75972l.38287 5.42745h-13.8343v-17.63514h14.69749c2.46428 2.80538 4.76845 4.79397 6.92411 5.95882 2.14174 1.17877 4.50392 1.77048 7.08654 1.77048 2.1255 0 3.82868-.42232 5.11883-1.25303 1.29015-.83071 1.93755-1.93754 1.93755-3.2973 0-1.29943-.63116-2.35986-1.90738-3.17897-1.27623-.81678-3.18361-1.39457-5.70822-1.73335l-6.74544-.91424c-7.33714-.98617-12.80868-2.82858-16.41692-5.5365-3.60824-2.69632-5.41352-6.29528-5.41352-10.78528 0-4.70812 2.05589-8.62033 6.14677-11.75985 4.09321-3.14184 9.21436-4.70812 15.34489-4.70812 3.24162 0 6.10269.47104 8.58089 1.40849 2.48052.93977 4.60834 2.37146 6.38113 4.30901l-.17403-4.65939h13.78789v16.39603h-13.78789c-1.80528-2.54085-3.66857-4.41806-5.55971-5.62236-1.90738-1.21357-3.97718-1.81688-6.17694-1.81688-1.95146 0-3.56415.43392-4.84038 1.28783-1.27622.85623-1.90738 1.92594-1.90738 3.19057 0 1.28783.67524 2.33433 2.02572 3.11631 1.34816.7959 3.592 1.44562 6.74544 1.96307l5.83816.84231c7.30698 1.15557 12.7205 3.06991 16.25449 5.75462 3.52239 2.67312 5.28126 6.22335 5.28126 10.64142 0 5.22324-1.98163 9.41391-5.92633 12.55343-3.96095 3.15576-9.25613 4.73132-15.91571 4.73132-3.75443 0-7.13063-.52906-10.13789-1.60109-3.02117-1.06971-5.70589-2.68471-8.08199-4.84966zm0 0" fill="none" stroke="#fff" stroke-width="2.97012806"/>
      <path id="path634" d="m198.00439 169.18717v-10.40009h6.37417v-31.21187h-6.37417v-10.40241h28.57124v10.40241h-5.91009v14.10579l14.80887-14.10579h-3.90758v-10.40241h26.53856v10.40241h-4.42734l-16.62344 14.81583 17.81381 16.39604h6.04003v10.40009h-29.34162v-10.40009h4.25332l-15.15461-14.28678v14.28678h5.91009v10.40009zm0 0" fill="#211e1e" stroke="#fff" stroke-width="2.97012806"/>
      <path id="path636" d="m170.31954 169.78583v-42.20134h-5.85904v-10.40937h26.66618v10.40937h-5.83351v42.84178c0 5.36247-.23901 9.09602-.71933 11.17975-.48265 2.09765-1.28783 3.88901-2.40395 5.37407-1.55236 2.06981-3.61752 3.60128-6.24423 4.5921-2.61975.98617-5.90081 1.48042-9.86407 1.48042-.73557 0-1.30872-.0116-1.72175-.0232-.41535-.0116-.80054-.0255-1.13468-.0487v-12.28891h1.33424c1.25534 0 2.20207-.0719 2.85642-.22972.64044-.15546 1.15789-.42463 1.56164-.7959.48961-.44784.84695-1.11844 1.05347-2.0118.20651-.89103.30861-2.38538.30861-4.48071zm0 0" fill="#211e1e" stroke="#fff" stroke-width="2.97012806"/>
      <g id="use638" clip-path="url(#clip13)" fill="#211e1e" transform="matrix(.59402563 0 0 .59402563 187.31889 264.77656)">
         <g id="g704" clip-path="url(#clip14)">
            <path id="path702" d="m44.070313.488281l.046875 4.730469-8.742188 24.726563-7.632812.082031 8.800781-24.046875-11.910156.140625-.0625-5.410156zm0 0"/>
         </g>
         <g id="g708" clip-path="url(#clip15)">
            <path id="path706" d="m12.667969 8.03125c-.007813-.96875-.183594-1.648437-.519531-2.003906-.347657-.375-.945313-.554688-1.792969-.542969-.84375.003906-1.425781.210938-1.792969.601563-.355469.390625-.53125 1.054687-.515625 2l .167969 14.980468c.00781.96875.183594 1.640625.523437 2.023438.34375.375.925782.5625 1.742188.550781.890625-.01172 1.511719-.207031 1.859375-.59375.347656-.390625.511719-1.0625.503906-2.035156zm5.414062-6.183594c1.441407 1.089844 2.195313 3.082032 2.222657 5.972657l.175781 15.1875c.03516 2.886718-.675781 4.902343-2.125 6.058593-1.4375 1.136719-4.015625 1.730469-7.71875 1.777344-3.6875.03516-6.28125-.503906-7.765625-1.621094-1.480469-1.117187-2.230469-3.105468-2.269531-5.988281l-.171875-15.1875c-.03125-2.878906.667968-4.875 2.105468-6.015625 1.445313-1.121094 4.023438-1.710937 7.753907-1.75 3.738281-.039062 6.339843.480469 7.792968 1.566406"/>
         </g>
         <path id="path710" d="m12.148438 6.027344c.335937.355469.515625 1.035156.519531 2.003906l.175781 14.980469c.0078.972656-.160156 1.644531-.507812 2.035156-.34375.386719-.964844.582031-1.855469.59375-.816406.011719-1.394531-.175781-1.742188-.550781-.339843-.382813-.519531-1.054688-.523437-2.023438l-.167969-14.980468c-.015625-.945313.160156-1.609375.515625-2 .363281-.390625.949219-.597657 1.789063-.601563.851562-.011719 1.449218.167969 1.796875.542969"/>
      </g>
      <path id="path640" d="m192.19871 278.4786c.002.57546.10906.97457.31094 1.20198.20652.22275.54994.33413 1.0349.32717.52906-.007.898-.12298 1.10452-.3527.2042-.23204.30397-.63115.29933-1.20893l-.10442-8.89879c-.002-.57546-.10906-.97921-.30861-1.19037-.20652-.22276-.56154-.3295-1.06739-.32254-.49889.002-.84695.12531-1.06275.35735-.21116.23204-.31558.62651-.30629 1.18805zm0 0" fill="none" stroke="#fff" stroke-width="1.18805122"/>
      <path id="path642" d="m199.48481 278.4438c.0209 1.71478-.40375 2.91211-1.25999 3.59895-.85623.67525-2.3877 1.02795-4.58745 1.05579-2.19047.0209-3.7289-.29933-4.61298-.96297-.87944-.66364-1.32728-1.84473-1.34816-3.55719l-.10442-9.02177c-.0162-1.71014.39911-2.89587 1.25302-3.57343.85856-.66596 2.39003-1.01634 4.60602-1.03955 2.22296-.0232 3.76603.28542 4.62923.93049.85623.6474 1.30407 1.83081 1.32031 3.54791zm0 0" fill="none" stroke="#fff" stroke-width="1.18805122"/>
      <path id="path644" d="m213.49778 265.06662l.0279 2.81002-5.19309 14.68821-4.53408.0487 5.22789-14.28446-7.07494.0835-.0371-3.21377zm0 0" fill="none" stroke="#fff" stroke-width="1.18805122"/>
   </g>
</svg>
