<?xml version="1.0" encoding="UTF-8" standalone="no"?>
<svg id="svg9472" height="313.99796" viewBox="0 0 235.50001 235.49847" width="314" xmlns="http://www.w3.org/2000/svg">
   <g id="surface130621" fill-rule="evenodd" transform="translate(-292.11914 -439.81717)">
      <path id="path9461" d="m409.86838 444.48416c62.4435 0 113.08225 50.63874 113.08225 113.08225 0 62.44197-50.63875 113.08224-113.08225 113.08224-62.44198 0-113.08072-50.64027-113.08072-113.08224 0-62.44351 50.63874-113.08225 113.08072-113.08225" fill="#fff"/>
      <path id="path9463" d="m410.21526 441.3177c64.19173.19032 116.09522 52.40386 115.90336 116.59559-.19186 64.19173-52.40386 116.09368-116.59559 115.90182-64.19174-.19032-116.09522-52.40386-115.90336-116.59559.19186-64.19173 52.40386-116.09368 116.59559-115.90182zm45.94662 44.137c17.03562.0506 30.81117 13.90754 30.76052 30.9447-.0506 17.03716-13.90754 30.81117-30.94471 30.76052-17.03716-.0507-30.81271-13.90754-30.76052-30.94471.0506-17.03716 13.90755-30.81117 30.94471-30.76051zm-40.62366 29.74596c-.44358-16.83456 13.53764-31.34684 21.11227-34.64684-7.84477-17.92892-16.30656-27.24871-20.10846-30.7421-53.09916-5.11575-111.26648 40.1064-114.47899 101.982 12.23299-15.62507 77.21058-42.42253 113.47518-36.59306zm66.50019-30.02992l2.25321-4.80263c.006-2.25475-2.71981-3.21251-3.78195-4.75813-14.91903-12.50774-34.64223-21.23967-53.12832-23.9825 7.3137 8.39886 9.91993 15.85378 15.84456 26.21114 16.68875-4.73817 27.6969-1.44125 38.8125 7.33212zm9.74802 2.08437c-.50191-.002-2.95924 4.27771-2.95157 5.16794 11.20615 15.64042 10.3896 35.63069-1.99074 50.27958 12.09485 28.86188 11.4195 51.91116 7.06044 82.63331 47.6396-58.64621 12.07951-125.64063-2.11813-138.08083zm-7.68821 148.69299c6.18249-26.42909 10.92988-61.71597-3.8065-87.43595-8.62603 7.05431-22.45375 10.07495-33.83489 7.19398-18.1085 43.49542-46.75396 66.39121-93.29304 91.96998 27.31932 22.39236 84.25414 28.23258 130.93443-11.72801zm-138.5152 7.6176c2.13808-.70451 3.80189-2.00608 5.58389-2.71213 38.83705-22.32943 72.3358-46.67415 87.42213-87.9532-17.27353-10.13327-21.12608-19.50525-22.40617-30.73596-1.18339-.71525-2.49111-.008-3.67757-.0107-33.41126-.0998-63.51178 11.4855-92.50566 27.13207-5.46877 3.7804-13.75405 6.95761-18.03943 11.57299 1.4305 33.67372 14.06256 58.1443 41.1363 80.92038 1.06521.71526 1.65614 1.42898 2.48651 1.7866" fill="#211e1e"/>
      <path id="path9465" d="m471.98188 621.49874c-3.78501-11.46708-12.49085-18.77004-22.09612-25.36081-4.68599-3.23553-3.69293-11.82471 3.64073-8.97444 5.71436 1.25092 3.94464 11.26908 11.09564 13.21684.68302.0998.97619.10131 1.36605.10284 1.8572-.67841 2.45273-3.50873 2.06748-5.36594-1.17725-12.50619-9.81402-21.10919-24.36468-17.84911-14.39717 4.16566-17.23516 15.48386-13.2675 27.69844 4.06436 12.51387 18.41549 14.60898 24.2465 24.49053 3.05441 6.59231-2.11967 13.46243-10.09337 11.39648-5.53171-2.19794-6.44189-6.78109-9.34282-11.16164-3.14343-6.41119-8.8716-2.47883-9.08802 1.63311-.70297 6.05357 2.99302 11.63132 7.5731 15.16154 17.46232 11.71727 42.07565-2.89632 38.26301-24.98784" fill="#211e1e"/>
      <path id="path9467" d="m357.80987 614.78211l17.28581-10.37578-3.84487-23.50208c0-.11972 0-.23791.2379-.47428 33.38056 3.00222 36.64832-41.21765 8.08728-46.24745-7.23388-.97158-12.22992 3.28464-17.45925 6.11803l-22.58268 13.576 1.16957 5.69901c2.40823-.13507 6.42655-.84264 7.70357 2.87023.81809 4.23319 8.89923 52.66939 9.40267 52.33632zm7.00979-66.75038l4.3299 21.23813c16.28507 10.05807 11.67429-33.47879-4.3299-21.23813" fill="#211e1e"/>
      <path id="path9469" d="m373.10341 512.07565c17.20907-1.28316 44.41173-36.52093 23.3931-49.93731-4.22246-3.05441-22.11148-5.5885-26.85426-1.34916l.76898 3.90934c.29316.29316.58479.68456 1.26781.97925 26.29709-2.52334 30.0775 13.63894 13.96894 31.88252-.3914-.002-.4881-.002-.97619-.003l-24.90956-31.71982-13.4087 9.33667zm0 0" fill="#211e1e"/>
   </g>
</svg>
