<?xml version="1.0" encoding="utf-8"?>
<!-- Generator: Adobe Illustrator 28.3.0, SVG Export Plug-In . SVG Version: 6.00 Build 0)  -->
<svg version="1.1" id="Шар_1" xmlns="http://www.w3.org/2000/svg" xmlns:xlink="http://www.w3.org/1999/xlink" x="0px" y="0px"
	 viewBox="0 0 200 200" style="enable-background:new 0 0 200 200;" xml:space="preserve">
<style type="text/css">
	.st0{fill:#F0FFFF;}
</style>
<path class="st0" d="M100,25c-41.3,0-75,33.7-75,75s33.7,75,75,75s75-33.7,75-75S141.3,25,100,25z M156.7,63.2
	c4.6,6.8,7.7,14.5,9.4,22.8c-7.4-0.3-14.8,1.1-21.4,4.3c-2.3-4.6-4.8-8.8-7.4-13.1L156.7,63.2z M152.5,57.2l-19.4,14.3
	c-3.1-4-6.3-7.7-9.7-11.1c4.8-5.4,8.6-11.7,10.6-18.8C141.1,45.5,147.3,51,152.5,57.2z M100,32.4c9.7,0,18.8,2,27.4,5.7
	c-1.7,6.3-4.8,12.3-9.1,17.1c-9.7-8.8-21.1-16-33.7-21.1C89.4,33,94.6,32.4,100,32.4L100,32.4z M73.5,37.8
	c14.8,4.8,27.9,12.5,39.1,22.2c-6.8,5.1-15.1,7.7-23.4,7.7c-19.1,0-37.4,2.6-52.2,7.1C43.8,58.4,56.9,44.7,73.5,37.8z M43.3,136.8
	c-6.8-10.6-10.8-23.1-10.8-36.8c0-5.7,0.6-11.1,2-16.3c14.8-5.4,34.2-8.6,55-8.6c10.6,0,20.5-3.7,28.8-10c3.4,3.4,6.3,6.8,9.1,10.6
	L43.3,136.8z M95.2,167.6c-19.1-1.4-36.2-10.8-47.6-24.8l83.8-61.3c2.6,4,4.8,8,6.8,12c-8.6,5.7-15.1,14.3-18.5,24.2
	C113.7,137.6,104.8,155,95.2,167.6z M149.9,145.9c-11.4,12.5-27.7,20.8-45.6,21.7c8.8-12.5,16.8-29.1,22.8-47.3
	c2.6-8,7.7-15.1,14.5-20c5.4,13.1,8.6,27.7,8.6,42.5C149.9,143.6,149.9,144.8,149.9,145.9L149.9,145.9z M147.6,96.6
	c6-2.9,12.8-4,19.7-3.4c0.3,2.3,0.3,4.6,0.3,6.8c0,13.4-4,26-10.8,36.5C156.2,122.5,153,109.1,147.6,96.6L147.6,96.6z"/>
</svg>
