<svg id="Layer_1" height="512" viewBox="0 0 512 512" width="512" xmlns="http://www.w3.org/2000/svg"><style type="text/css">
	.st0{fill:#F1F9FB;}
</style>
	<path class="st0" d="m179.68 237.19c0-3.49-2.83-6.32-6.31-6.32h-10.02v12.63h10.02c3.48 0 6.31-2.83 6.31-6.31z"/>
	<path class="st0" d="m189.68 274.81c0-3.48-2.83-6.31-6.31-6.31h-20.02v12.63h20.02c3.48 0 6.31-2.83 6.31-6.32z"/>
	<path class="st0" d="m410.25 159.94h-25.33v-79.79c0-23.44-19.07-42.5-42.5-42.5h-48.39s-.03 0-.04 0h-75.97s-.03 0-.04 0h-48.39c-23.43 0-42.5 19.06-42.5 42.5v79.79h-25.33c-23.43 0-42.5 19.07-42.5 42.5v107.12c0 23.43 19.07 42.5 42.5 42.5h25.33v79.79c0 23.44 19.07 42.5 42.5 42.5h172.84c23.43 0 42.5-19.06 42.5-42.5v-79.79h25.33c23.43 0 42.5-19.07 42.5-42.5v-107.12c0-23.43-19.07-42.5-42.5-42.5zm-143.33 83.56c6.9 0 12.5 5.6 12.5 12.5s-5.6 12.5-12.5 12.5h-17.95v12.63h24.52c6.91 0 12.5 5.6 12.5 12.5s-5.59 12.5-12.5 12.5h-37.02c-6.91 0-12.5-5.6-12.5-12.5v-75.26c0-6.9 5.59-12.5 12.5-12.5h37.02c6.91 0 12.5 5.6 12.5 12.5s-5.59 12.5-12.5 12.5h-24.52v12.63zm-62.24-6.31c0 4.45-.94 8.68-2.62 12.52 7.66 5.71 12.62 14.84 12.62 25.1 0 17.27-14.05 31.32-31.31 31.32h-32.52c-6.9 0-12.5-5.6-12.5-12.5v-75.26c0-6.9 5.6-12.5 12.5-12.5h22.52c17.26 0 31.31 14.05 31.31 31.32zm140.96 56.44c0 6.9-5.6 12.5-12.5 12.5s-12.5-5.6-12.5-12.5v-62.76h-15.52c-6.9 0-12.5-5.6-12.5-12.5s5.6-12.5 12.5-12.5h56.03c6.9 0 12.5 5.6 12.5 12.5s-5.6 12.5-12.5 12.5h-15.51zm-193.56-213.48c0-9.65 7.85-17.5 17.5-17.5h35.93v3.89c0 12.41 10.09 22.5 22.5 22.5h55.97c12.41 0 22.5-10.09 22.5-22.5v-3.89h35.93c9.65 0 17.5 7.85 17.5 17.5v79.79h-207.83zm207.84 351.7c0 9.65-7.85 17.5-17.5 17.5h-172.84c-9.65 0-17.5-7.85-17.5-17.5v-79.79h207.84z"/></svg>