<?xml version="1.0" encoding="utf-8"?>
<svg version="1.1" xmlns="http://www.w3.org/2000/svg" xmlns:xlink="http://www.w3.org/1999/xlink" x="0px" y="0px"
	 viewBox="0 0 200 200" style="enable-background:new 0 0 200 200;" xml:space="preserve">
<g>

	<circle cx="138.1" cy="86.5" r="5.9"/>
	<path d="M151.6,36.7h-7.6v-5.9c0-3.2-2.6-5.9-5.9-5.9s-5.9,2.6-5.9,5.9v5.9h-26.7v-5.9c0-3.2-2.6-5.9-5.9-5.9
		c-3.2,0-5.9,2.6-5.9,5.9v5.9H67.5v-5.9c0-3.2-2.6-5.9-5.9-5.9c-3.2,0-5.9,2.6-5.9,5.9v5.9h-7.3C35.5,36.7,25,47.2,25,60.2v91.4
		c0,12.9,10.5,23.4,23.4,23.4h44.8c3.2,0,5.9-2.6,5.9-5.9s-2.6-5.9-5.9-5.9H48.4c-6.5,0-11.7-5.3-11.7-11.7V60.2
		c0-6.5,5.3-11.7,11.7-11.7h7.3v5.9c0,3.2,2.6,5.9,5.9,5.9c3.2,0,5.9-2.6,5.9-5.9v-5.9h26.4v5.9c0,3.2,2.6,5.9,5.9,5.9
		s5.9-2.6,5.9-5.9v-5.9h26.7v5.9c0,3.2,2.6,5.9,5.9,5.9s5.9-2.6,5.9-5.9v-5.9h7.6c6.5,0,11.7,5.3,11.7,11.7v33.4
		c0,3.2,2.6,5.9,5.9,5.9s5.9-2.6,5.9-5.9V60.2C175,47.2,164.5,36.7,151.6,36.7z"/>
	<path d="M139.6,104.1c-19.5,0-35.4,15.9-35.4,35.4S120,175,139.6,175s35.4-15.9,35.4-35.4S159.1,104.1,139.6,104.1z
		M139.6,163.3c-13.1,0-23.7-10.6-23.7-23.7s10.6-23.7,23.7-23.7s23.7,10.6,23.7,23.7S152.6,163.3,139.6,163.3z"/>
	<path d="M148,133.7h-2.6v-6.2c0-3.2-2.6-5.9-5.9-5.9s-5.9,2.6-5.9,5.9v12c0,3.2,2.6,5.9,5.9,5.9h8.5
		c3.2,0,5.9-2.6,5.9-5.9S151.3,133.7,148,133.7z"/>
	<circle cx="112.6" cy="86.5" r="5.9"/>
	<circle cx="87.1" cy="112" r="5.9"/>
	<circle cx="61.6" cy="86.5" r="5.9"/>
	<circle cx="61.6" cy="112" r="5.9"/>
	<circle cx="61.6" cy="137.5" r="5.9"/>
	<circle cx="87.1" cy="137.5" r="5.9"/>
	<circle cx="87.1" cy="86.5" r="5.9"/>
</g>
</svg>
