<?xml version="1.0" encoding="utf-8"?>
<!-- Generator: Adobe Illustrator 26.0.1, SVG Export Plug-In . SVG Version: 6.00 Build 0)  -->
<svg version="1.1" id="Шар_1" xmlns="http://www.w3.org/2000/svg" xmlns:xlink="http://www.w3.org/1999/xlink" x="0px" y="0px"
	 viewBox="0 0 50 50" style="enable-background:new 0 0 50 50;" xml:space="preserve">
<style type="text/css">
	.st0{fill:#2D4A60;}
	.st1{fill:none;}
	.st2{fill:#009AE0;}
	.st3{fill:#EAEFF0;}
</style>
<path class="st0" d="M114.69,3.16L114.69,3.16c-0.52,0-0.95,0.43-0.95,0.95v20.58h1.9V4.11C115.64,3.58,115.21,3.16,114.69,3.16z"/>
<path class="st0" d="M125.41,7.92L125.41,7.92c-0.05-0.52-0.51-0.91-1.03-0.86l-19.55,1.71c-0.52,0.05-0.91,0.51-0.86,1.03v0
	c0.05,0.52,0.51,0.91,1.03,0.86l19.55-1.71C125.07,8.9,125.46,8.44,125.41,7.92z"/>
<g>
	<polygon class="st1" points="121.55,16.08 127.56,16.08 124.56,10.19 	"/>
	<path class="st0" d="M125.5,7.86c-0.04-0.15-0.12-0.3-0.23-0.41c0.04,0.05,0.07,0.09,0.09,0.15L125.5,7.86z"/>
	<path class="st0" d="M124.56,10.19l-0.88-1.73c-0.09-0.18-0.12-0.38-0.08-0.57l-4.18,8.19h2.13L124.56,10.19z"/>
	<path class="st0" d="M124.17,7.22c0.05-0.02,0.09-0.04,0.14-0.06c-0.11,0.03-0.22,0.08-0.32,0.15c0.02-0.01,0.04-0.03,0.07-0.04
		L124.17,7.22z"/>
	<path class="st0" d="M124,7.31c-0.22,0.13-0.36,0.35-0.4,0.59l0.14-0.28C123.8,7.49,123.89,7.39,124,7.31z"/>
	<path class="st0" d="M124.93,7.23l0.11,0.06c0.09,0.04,0.16,0.1,0.23,0.17c-0.23-0.29-0.61-0.4-0.96-0.3
		C124.52,7.11,124.73,7.13,124.93,7.23z"/>
	<path class="st0" d="M125.43,8.48l-0.87,1.71l3.01,5.89h2.13l-4.2-8.22C125.55,8.06,125.53,8.28,125.43,8.48z"/>
	<path class="st0" d="M123.68,8.47l0.88,1.73l0.87-1.71c0.1-0.2,0.12-0.41,0.07-0.61l-0.13-0.26c-0.03-0.05-0.06-0.1-0.09-0.15
		c-0.07-0.07-0.14-0.12-0.23-0.17l-0.11-0.06c-0.2-0.1-0.42-0.12-0.62-0.07c-0.05,0.01-0.09,0.03-0.14,0.06l-0.11,0.06
		c-0.02,0.01-0.04,0.02-0.07,0.04c-0.1,0.08-0.19,0.18-0.26,0.31l-0.14,0.28C123.56,8.08,123.58,8.28,123.68,8.47z"/>
</g>
<path class="st2" d="M126.48,19.3h-3.85c-1.77,0-3.21-1.44-3.21-3.21v0h10.28v0C129.7,17.86,128.26,19.3,126.48,19.3z"/>
<g>
	<polygon class="st1" points="101.83,17.82 107.84,17.82 104.84,11.93 	"/>
	<path class="st0" d="M105.78,9.6c-0.04-0.15-0.12-0.3-0.23-0.41c0.04,0.05,0.07,0.09,0.09,0.15L105.78,9.6z"/>
	<path class="st0" d="M104.84,11.93l-0.88-1.73c-0.09-0.18-0.12-0.38-0.08-0.57l-4.18,8.19h2.13L104.84,11.93z"/>
	<path class="st0" d="M104.45,8.95c0.05-0.02,0.09-0.04,0.14-0.06c-0.11,0.03-0.22,0.08-0.32,0.15c0.02-0.01,0.04-0.03,0.07-0.04
		L104.45,8.95z"/>
	<path class="st0" d="M104.28,9.05c-0.22,0.13-0.36,0.35-0.4,0.59l0.14-0.28C104.08,9.23,104.17,9.12,104.28,9.05z"/>
	<path class="st0" d="M105.21,8.96l0.11,0.06c0.09,0.04,0.16,0.1,0.23,0.17c-0.23-0.29-0.61-0.4-0.96-0.3
		C104.8,8.85,105.01,8.86,105.21,8.96z"/>
	<path class="st0" d="M105.71,10.21l-0.87,1.71l3.01,5.89h2.13l-4.2-8.22C105.83,9.8,105.81,10.02,105.71,10.21z"/>
	<path class="st0" d="M103.96,10.2l0.88,1.73l0.87-1.71c0.1-0.2,0.12-0.41,0.07-0.61l-0.13-0.26c-0.03-0.05-0.06-0.1-0.09-0.15
		c-0.07-0.07-0.14-0.12-0.23-0.17l-0.11-0.06c-0.2-0.1-0.42-0.12-0.62-0.07c-0.05,0.01-0.09,0.03-0.14,0.06l-0.11,0.06
		c-0.02,0.01-0.04,0.02-0.07,0.04c-0.1,0.08-0.19,0.18-0.26,0.31l-0.14,0.28C103.84,9.82,103.86,10.02,103.96,10.2z"/>
</g>
<path class="st2" d="M106.76,21.03h-3.85c-1.77,0-3.21-1.44-3.21-3.21v0h10.28v0C109.98,19.59,108.54,21.03,106.76,21.03z"/>
<path class="st2" d="M122.54,24.68h-15.7c-1.26,0-2.28,1.02-2.28,2.28v0c0,0.49,0.4,0.89,0.89,0.89h18.49c0.49,0,0.89-0.4,0.89-0.89
	v0C124.82,25.7,123.8,24.68,122.54,24.68z"/>
<path class="st3" d="M114.7,6.01c-1.57,0-2.85,1.28-2.85,2.85c0,1.57,1.28,2.85,2.85,2.85c1.57,0,2.85-1.28,2.85-2.85
	C117.55,7.28,116.27,6.01,114.7,6.01z M114.7,10.12c-0.7,0-1.27-0.57-1.27-1.27c0-0.7,0.57-1.27,1.27-1.27
	c0.7,0,1.27,0.57,1.27,1.27C115.96,9.55,115.4,10.12,114.7,10.12z"/>
<g>
	<path d="M20.39,29.06c0,0.2,0,0.33,0,0.46c0,3.72,0,7.44,0,11.16c0,1.1-0.89,1.83-1.91,1.59c-0.7-0.16-1.17-0.78-1.18-1.58
		c-0.01-0.88,0-1.76,0-2.64c0-2.84,0-5.68,0-8.51c0-0.13,0-0.25,0-0.46c-0.16,0.15-0.25,0.23-0.34,0.32
		c-1.07,1.07-2.12,2.14-3.2,3.2c-0.88,0.86-2.28,0.48-2.58-0.68c-0.16-0.61,0.03-1.13,0.48-1.58c1.87-1.87,3.73-3.74,5.6-5.61
		c0.17-0.17,0.34-0.35,0.51-0.51c0.63-0.59,1.53-0.62,2.15-0.01c2.08,2.07,4.15,4.14,6.21,6.22c0.62,0.63,0.6,1.58,0,2.18
		c-0.61,0.61-1.54,0.61-2.17-0.01c-1.08-1.07-2.15-2.15-3.22-3.22C20.63,29.29,20.54,29.2,20.39,29.06z"/>
	<path d="M29.65,21.56c0-0.22,0-0.35,0-0.49c0-3.72,0-7.44,0-11.16c0-1.07,0.89-1.8,1.9-1.57c0.7,0.16,1.18,0.77,1.19,1.57
		c0.01,0.8,0,1.59,0,2.39c0,2.92,0,5.84,0,8.77c0,0.13,0,0.26,0,0.47c0.15-0.14,0.25-0.22,0.34-0.31c1.06-1.06,2.11-2.12,3.17-3.17
		c0.45-0.45,1-0.57,1.6-0.37c0.61,0.2,0.94,0.65,1.03,1.28c0.07,0.48-0.09,0.91-0.43,1.26c-2.05,2.06-4.1,4.12-6.16,6.17
		c-0.63,0.63-1.55,0.63-2.17,0c-2.06-2.05-4.11-4.11-6.16-6.17c-0.62-0.63-0.6-1.58,0.01-2.18c0.6-0.6,1.55-0.6,2.18,0.01
		c1.07,1.05,2.12,2.11,3.17,3.17C29.39,21.32,29.49,21.41,29.65,21.56z"/>
</g>
</svg>
