<?xml version="1.0" encoding="utf-8"?>
<!-- Generator: Adobe Illustrator 26.3.1, SVG Export Plug-In . SVG Version: 6.00 Build 0)  -->
<svg version="1.1" id="Шар_1" xmlns="http://www.w3.org/2000/svg" xmlns:xlink="http://www.w3.org/1999/xlink" x="0px" y="0px"
	 viewBox="0 0 200 200" style="enable-background:new 0 0 200 200;" xml:space="preserve">
<style type="text/css">
	.st0{fill:#F0FFFF;}
</style>
<g>
	<path class="st0" d="M100,54.9l-3.5,5.3h7L100,54.9z"/>
	<path class="st0" d="M100,145.1l3.5-5.3h-7L100,145.1z"/>
	<path class="st0" d="M60.2,103.5v-7l-5.3,3.5L60.2,103.5z"/>
	<path class="st0" d="M100,86.8c-7.3,0-13.2,5.9-13.2,13.2s5.9,13.2,13.2,13.2s13.2-5.9,13.2-13.2S107.3,86.8,100,86.8z M100,104.4
		c-2.4,0-4.4-2-4.4-4.4s2-4.4,4.4-4.4s4.4,2,4.4,4.4S102.4,104.4,100,104.4z"/>
	<path class="st0" d="M139.8,103.5l5.3-3.5l-5.3-3.5V103.5z"/>
	<path class="st0" d="M161.8,70.7h-32.5V38.2c0-7.3-5.9-13.2-13.2-13.2H83.9c-7.3,0-13.2,5.9-13.2,13.2v32.5H38.2
		c-7.3,0-13.2,5.9-13.2,13.2v32.2c0,7.3,5.9,13.2,13.2,13.2h32.5v32.5c0,7.3,5.9,13.2,13.2,13.2h32.2c7.3,0,13.2-5.9,13.2-13.2
		v-32.5h32.5c7.3,0,13.2-5.9,13.2-13.2V83.9C175,76.6,169.1,70.7,161.8,70.7z M68.9,111.7c0,3.5-3.9,5.6-6.8,3.7l-17.6-11.7
		c-2.6-1.7-2.6-5.6,0-7.3l17.6-11.7c2.9-1.9,6.8,0.1,6.8,3.7V111.7z M84.6,62.1l11.7-17.6c1.7-2.6,5.6-2.6,7.3,0l11.7,17.6
		c1.9,2.9-0.1,6.8-3.7,6.8H88.3C84.8,68.9,82.7,65,84.6,62.1L84.6,62.1z M115.4,137.9l-11.7,17.6c-1.7,2.6-5.6,2.6-7.3,0l-11.7-17.6
		c-1.9-2.9,0.1-6.8,3.7-6.8h23.4C115.2,131.1,117.3,135,115.4,137.9z M100,122c-12.1,0-22-9.9-22-22s9.9-22,22-22s22,9.9,22,22
		S112.1,122,100,122z M155.5,103.7l-17.6,11.7c-2.9,1.9-6.8-0.1-6.8-3.7V88.3c0-3.5,3.9-5.6,6.8-3.7l17.6,11.7
		C158.1,98.1,158.1,101.9,155.5,103.7z"/>
</g>
</svg>
