<?xml version="1.0" encoding="utf-8"?>
<!-- Generator: Adobe Illustrator 22.0.1, SVG Export Plug-In . SVG Version: 6.00 Build 0)  -->
<svg version="1.1" id="Шар_1" xmlns="http://www.w3.org/2000/svg" xmlns:xlink="http://www.w3.org/1999/xlink" x="0px" y="0px"
	 viewBox="0 0 200 200" style="enable-background:new 0 0 200 200;" xml:space="preserve">
<style type="text/css">
	.st0{fill:#212121;}
</style>
<polygon class="st0" points="55.7,107.4 87.1,110.1 87.1,110.1 "/>
<polygon class="st0" points="129.1,80.8 129.1,80.8 131.9,49.7 "/>
<path class="st0" d="M127.7,49.4l-66.4-5.8l-5.6,63.8l31.3,2.7l35,3.1c2.3,0.2,4.4-1.5,4.6-3.8l2.5-28.5l2.4-26.9
	C131.7,51.6,130,49.6,127.7,49.4z"/>
<polygon class="st0" points="126.3,113.5 87.1,110.1 87.1,110.1 126.3,113.5 129.1,80.8 129.1,80.8 "/>
<g>
	<path class="st0" d="M35.5,39.5L22.3,189.9l14.9,1.3L50.3,41.5c-1.6,0.5-3.4,0.7-5.1,0.7C41.6,42.2,38.3,41.2,35.5,39.5z"/>
	<circle class="st0" cx="46.2" cy="20.2" r="14.7"/>
</g>
<g>
	<path class="st0" d="M179.9,97.4c1.1-2.6-0.6-5.6-3.5-5.9l-38.1-3.3l-2.9,32.7l-0.4,4.1l-32.7,23.9l68.2,6.4
		c2.9,0.3,5.2-2.5,4.4-5.3l-6.2-22.2c-0.5-1.9-0.4-3.9,0.4-5.6L179.9,97.4z"/>
	<path class="st0" d="M92,144.1l31-22l-31.6-2.8l-2,23.3C89.2,144,90.8,144.9,92,144.1z"/>
</g>
</svg>
