<?xml version="1.0" encoding="UTF-8" standalone="no"?>
<svg
   width="220"
   height="75"
   viewBox="0 0 220 75"
   fill="none"
   version="1.1"
   id="svg3"
   xmlns="http://www.w3.org/2000/svg"
   xmlns:svg="http://www.w3.org/2000/svg">
  <g
     id="g4"
     transform="matrix(0.54124147,0,0,0.54124147,-28.165346,-32.148721)">
    <g
       clip-path="url(#clip0_71_40)"
       id="g3"
       transform="translate(-9.726692,-24.316733)">
      <path
         fill-rule="evenodd"
         clip-rule="evenodd"
         d="m 184.46,152.159 h 12.018 l -4.052,20.358 c -2.47,1.886 -5.348,3.326 -8.621,4.312 -3.273,0.987 -6.719,1.483 -10.338,1.483 -4.854,0 -9.103,-0.887 -12.74,-2.655 -3.638,-1.769 -6.454,-4.269 -8.449,-7.489 -1.995,-3.221 -2.989,-6.925 -2.989,-11.113 0,-5.566 1.285,-10.548 3.848,-14.941 2.563,-4.393 6.157,-7.831 10.782,-10.319 4.626,-2.482 9.937,-3.729 15.934,-3.729 9.523,0 16.507,2.966 20.948,8.904 l -9.752,7.731 c -1.556,-1.93 -3.273,-3.301 -5.15,-4.107 -1.878,-0.807 -4.101,-1.21 -6.664,-1.21 -3.248,0 -6.101,0.726 -8.553,2.171 -2.452,1.446 -4.342,3.438 -5.67,5.969 -1.327,2.532 -1.994,5.405 -1.994,8.625 0,3.22 1.074,5.944 3.23,7.899 2.149,1.954 5.175,2.934 9.066,2.934 2.334,0 4.465,-0.39 6.385,-1.172 l 2.748,-13.663 z m 36.541,-12.558 -1.581,8.14 h 21.362 l -1.995,10.213 h -21.429 l -1.717,8.836 h 25.209 l -2.199,10.561 h -38.536 l 9.622,-48.311 h 37.641 l -2.131,10.561 z m 90.666,-10.561 -9.48,48.311 h -12.568 l 4.947,-25.465 -16.001,20.705 h -5.978 l -8.726,-20.705 -5.083,25.465 h -12.5 l 9.616,-48.311 h 11.061 l 11.264,27.947 21.837,-27.947 z"
         fill="#e5eafa"
         id="path1" />
      <path
         fill-rule="evenodd"
         clip-rule="evenodd"
         d="m 353.908,152.438 c 2.063,0.919 3.65,2.197 4.774,3.829 1.124,1.632 1.68,3.555 1.68,5.764 0,5.013 -2.038,8.823 -6.114,11.423 -4.076,2.6 -9.387,3.897 -15.933,3.897 H 311.87 l 9.616,-48.311 H 345.8 c 5.403,0 9.535,0.981 12.4,2.935 2.86,1.955 4.292,4.753 4.292,8.383 0,2.804 -0.753,5.23 -2.266,7.278 -1.513,2.048 -3.619,3.648 -6.318,4.796 z m -20.948,-13.526 -1.852,9.313 h 9.751 c 2.427,0 4.267,-0.471 5.527,-1.414 1.26,-0.943 1.89,-2.315 1.89,-4.108 0,-2.531 -1.902,-3.797 -5.7,-3.797 h -9.616 z m 6.114,28.573 c 2.427,0 4.329,-0.484 5.7,-1.452 1.371,-0.968 2.063,-2.395 2.063,-4.281 0,-1.378 -0.506,-2.401 -1.513,-3.072 -1.007,-0.67 -2.384,-0.999 -4.119,-0.999 h -12.018 l -1.921,9.798 h 11.814 z m 46.503,-27.878 -1.581,8.141 h 21.362 l -1.995,10.213 h -21.429 l -1.717,8.835 h 25.209 l -2.199,10.561 h -38.536 l 9.616,-48.311 h 37.64 l -2.13,10.561 h -24.246 z m 42.927,0.273 h -14.766 l 2.199,-10.834 h 43.069 l -2.198,10.834 h -14.699 l -7.484,37.471 h -13.599 l 7.485,-37.471 z"
         fill="#e5eafa"
         id="path2" />
      <path
         fill-rule="evenodd"
         clip-rule="evenodd"
         d="m 83.2156,142.021 -6.2004,7.123 -5.8731,-6.751 c -0.1853,-0.211 -0.1853,-0.534 0,-0.745 L 84.5989,126.192 C 84.7039,126.068 84.8583,126 85.025,126 h 25.654 l 6.237,8.898 c 0.068,0.093 0.105,0.211 0.105,0.328 0,0.311 -0.253,0.565 -0.562,0.565 H 88.7922 c -0.1667,0 -0.3211,0.075 -0.4261,0.199 l -5.1444,6.031 z m 20.8184,24.031 6.423,7.123 h -0.223 l -5.774,6.633 c 0,0 -0.037,0.037 -0.056,0.055 -0.234,0.205 -0.593,0.18 -0.796,-0.055 l -26.3705,-30.441 7.1144,-5.255 c 0.2347,-0.174 0.5682,-0.137 0.7596,0.087 l 18.0395,20.748 0.883,1.111 z m 20.287,-23.417 c 0.309,-0.354 0.309,-0.881 0,-1.235 l -4.786,-5.609 -8.411,-9.791 h 11.925 c 0.16,0 0.315,0.068 0.426,0.192 l 13.247,15.208 c 0.309,0.354 0.309,0.887 0,1.241 l -26.037,30.087 -4.879,-8.103 c -0.129,-0.211 -0.105,-0.478 0.056,-0.664 l 18.465,-21.326 z m -29.2358,0.72 h 17.9038 c 0.308,0 0.562,0.254 0.562,0.564 0,0.137 -0.05,0.267 -0.136,0.373 l -8.949,10.362 c -0.204,0.235 -0.562,0.26 -0.797,0.055 -0.018,-0.018 -0.037,-0.037 -0.055,-0.055 l -8.9487,-10.362 c -0.2038,-0.236 -0.1791,-0.596 0.0556,-0.801 0.105,-0.087 0.2346,-0.136 0.3705,-0.136 z"
         fill="#e5eafa"
         id="path3" />
    </g>
  </g>
  <defs
     id="defs3">
    <clipPath
       id="clip0_71_40">
      <rect
         width="388"
         height="54"
         fill="#ffffff"
         transform="translate(71,126)"
         id="rect3"
         x="0"
         y="0" />
    </clipPath>
  </defs>
</svg>
