<?xml version="1.0" encoding="utf-8"?>
<!-- Generator: Adobe Illustrator 22.0.1, SVG Export Plug-In . SVG Version: 6.00 Build 0)  -->
<svg version="1.1" id="Layer_1" xmlns="http://www.w3.org/2000/svg" xmlns:xlink="http://www.w3.org/1999/xlink" x="0px" y="0px"
	 viewBox="0 0 200 200" style="enable-background:new 0 0 200 200;" xml:space="preserve">
<style type="text/css">
	.st0{fill:#212121;}
</style>
<path class="st0" d="M153,47c-29.3-29.3-76.7-29.3-106,0c-29.3,29.3-29.3,76.7,0,106c29.3,29.3,76.7,29.3,106,0
	C182.3,123.7,182.3,76.3,153,47z M149.9,142.3c-3.5-3.1-7.3-5.9-11.2-8.3c2.6-9,4.2-18.9,4.5-29.3h22
	C164.3,118.7,158.9,131.7,149.9,142.3L149.9,142.3z M34.7,104.8h22c0.4,10.3,1.9,20.2,4.5,29.3c-4,2.4-7.7,5.2-11.2,8.3
	C41.1,131.7,35.7,118.7,34.7,104.8z M50.1,57.7c3.5,3.1,7.3,5.9,11.2,8.3c-2.6,9-4.2,18.9-4.5,29.3h-22
	C35.7,81.3,41.1,68.3,50.1,57.7z M95.2,66.9c-7.8-0.6-15.3-2.5-22.3-5.6c4.1-10.4,11.5-22.9,22.3-26V66.9z M95.2,76.5v18.7H66.4
	c0.3-8.7,1.6-17.1,3.6-24.8C77.9,73.9,86.4,76,95.2,76.5z M95.2,104.8v18.7c-8.8,0.5-17.3,2.6-25.2,6.1c-2.1-7.7-3.3-16-3.6-24.8
	H95.2z M95.2,133v31.7c-10.8-3.1-18.2-15.6-22.3-26C79.9,135.5,87.4,133.6,95.2,133z M104.8,133c7.8,0.6,15.3,2.5,22.3,5.6
	c-4.1,10.4-11.5,22.9-22.3,26V133z M104.8,123.5v-18.7h28.9c-0.3,8.7-1.6,17.1-3.6,24.8C122.1,126.1,113.6,124,104.8,123.5
	L104.8,123.5z M104.8,95.2V76.5c8.8-0.5,17.3-2.6,25.2-6.1c2.1,7.7,3.3,16,3.6,24.8H104.8z M104.8,66.9V35.3
	c10.8,3.1,18.2,15.6,22.3,26C120.1,64.5,112.6,66.4,104.8,66.9z M126.2,40c6.1,2.7,11.8,6.3,16.9,10.8c-2.4,2.1-5,4.1-7.7,5.8
	C133.1,50.8,130.1,45,126.2,40z M64.5,56.7c-2.7-1.7-5.3-3.7-7.7-5.8c5.1-4.5,10.8-8.1,16.9-10.8C69.9,45.1,66.9,50.8,64.5,56.7
	L64.5,56.7z M64.5,143.3c2.4,5.9,5.4,11.6,9.3,16.7c-6.1-2.7-11.8-6.3-16.9-10.8C59.3,147,61.8,145.1,64.5,143.3z M135.5,143.3
	c2.7,1.7,5.3,3.7,7.7,5.8c-5.1,4.5-10.8,8.1-16.9,10.8C130.1,154.9,133.1,149.2,135.5,143.3L135.5,143.3z M143.2,95.2
	c-0.4-10.3-1.9-20.2-4.5-29.3c4-2.4,7.7-5.2,11.2-8.3c9,10.6,14.4,23.6,15.4,37.6H143.2z"/>
</svg>
