<?xml version="1.0" encoding="utf-8"?>
<!-- Generator: Adobe Illustrator 26.0.3, SVG Export Plug-In . SVG Version: 6.00 Build 0)  -->
<svg version="1.1" id="Шар_1" xmlns="http://www.w3.org/2000/svg" xmlns:xlink="http://www.w3.org/1999/xlink" x="0px" y="0px"
	 viewBox="0 0 200 200" style="enable-background:new 0 0 200 200;" xml:space="preserve">
<style type="text/css">
	.st0{fill:#0C9D58;}
	.st1{opacity:0.2;fill:#004D40;enable-background:new    ;}
	.st2{opacity:0.2;fill:#FFFFFF;enable-background:new    ;}
	.st3{fill:#EA4335;}
	.st4{opacity:0.2;fill:#3E2723;enable-background:new    ;}
	.st5{fill:#FFC107;}
	.st6{fill:#4285F4;}
	.st7{fill:#FFFFFF;}
	.st8{opacity:0.2;fill:#1A237E;enable-background:new    ;}
	.st9{opacity:0.2;}
	.st10{fill:#1A237E;}
	.st11{fill:url(#SVGID_1_);}
</style>
<path class="st0" d="M154.2,126.8c0,2.6-2.1,4.6-4.7,4.6h-99c-2.6,0-4.7-2.1-4.7-4.6V29.6c0-2.6,2.1-4.6,4.7-4.6h99
	c2.6,0,4.7,2.1,4.7,4.6L154.2,126.8L154.2,126.8z"/>
<polygon class="st1" points="154.2,50 117.1,45.2 154.2,55.1 "/>
<path class="st1" d="M101.8,30.1L45.6,55.1l62.1-22.6v-0.1C106.6,30.1,104,29.1,101.8,30.1L101.8,30.1z"/>
<path class="st2" d="M149.5,25h-99c-2.6,0-4.7,2.1-4.7,4.6v1c0-2.6,2.1-4.6,4.7-4.6h99c2.6,0,4.7,2.1,4.7,4.6v-1
	C154.2,27.1,152.1,25,149.5,25z"/>
<path class="st3" d="M69.9,123.8c-0.7,2.5,0.7,5,3,5.7l91.7,24.7c2.3,0.6,4.7-0.9,5.4-3.4l21.6-80.6c0.7-2.5-0.7-5-3-5.7L96.9,39.8
	c-2.3-0.6-4.7,0.9-5.4,3.4L69.9,123.8z"/>
<polygon class="st4" points="170.9,98.8 175.7,128.1 170.9,146.1 "/>
<polygon class="st4" points="117.5,46.4 121.8,47.5 124.5,65.6 "/>
<path class="st2" d="M188.5,64.4L96.9,39.8c-2.3-0.6-4.7,0.9-5.4,3.4l-21.6,80.6c0,0.1,0,0.3-0.1,0.4l21.4-80c0.7-2.5,3.1-4,5.4-3.4
	l91.7,24.7c2.2,0.6,3.5,2.9,3,5.3l0.2-0.6C192.2,67.6,190.8,65,188.5,64.4L188.5,64.4z"/>
<path class="st5" d="M142.1,113.8c0.9,2.4-0.2,5.1-2.5,5.9l-96.7,35.2c-2.2,0.8-4.8-0.5-5.7-2.9L8.7,73.6c-0.9-2.4,0.2-5.1,2.5-5.9
	l96.7-35.2c2.2-0.8,4.8,0.5,5.7,2.9L142.1,113.8z"/>
<path class="st2" d="M9,74.6c-0.9-2.4,0.2-5.1,2.5-5.9l96.7-35.2c2.2-0.8,4.7,0.5,5.6,2.9l-0.3-0.9c-0.9-2.4-3.4-3.7-5.7-2.9
	L11.1,67.7c-2.2,0.8-3.3,3.5-2.5,5.9L37.2,152c0,0,0,0,0,0.1L9,74.6z"/>
<path class="st6" d="M170.9,170.3c0,2.6-2.1,4.7-4.7,4.7H33.9c-2.6,0-4.7-2.1-4.7-4.7v-100c0-2.6,2.1-4.7,4.7-4.7h132.3
	c2.6,0,4.7,2.1,4.7,4.7V170.3z"/>
<path class="st7" d="M145.6,105.2H106V94.8h39.6c1.2,0,2.1,0.9,2.1,2.1v6.2C147.7,104.3,146.7,105.2,145.6,105.2z M145.6,144.8H106
	v-10.4h39.6c1.2,0,2.1,0.9,2.1,2.1v6.2C147.7,143.9,146.7,144.8,145.6,144.8z M151.8,125H106v-10.4h45.8c1.2,0,2.1,0.9,2.1,2.1v6.2
	C153.9,124.1,153,125,151.8,125L151.8,125z"/>
<path class="st8" d="M166.2,174H33.9c-2.6,0-4.7-2.1-4.7-4.7v1c0,2.6,2.1,4.7,4.7,4.7h132.3c2.6,0,4.7-2.1,4.7-4.7v-1
	C170.9,171.8,168.7,174,166.2,174z"/>
<path class="st2" d="M33.9,66.7h132.3c2.6,0,4.7,2.1,4.7,4.7v-1c0-2.6-2.1-4.7-4.7-4.7H33.9c-2.6,0-4.7,2.1-4.7,4.7v1
	C29.2,68.8,31.3,66.7,33.9,66.7L33.9,66.7z"/>
<path class="st7" d="M70.6,115.6v9.4h13.5c-1.1,5.7-6.1,9.9-13.5,9.9c-8.2,0-14.8-6.9-14.8-15.1s6.6-15.1,14.8-15.1
	c3.7,0,7,1.3,9.6,3.8v0l7.1-7.1c-4.3-4-10-6.5-16.7-6.5c-13.8,0-25,11.2-25,25s11.2,25,25,25c14.4,0,23.9-10.2,23.9-24.4
	c0-1.6-0.2-3.2-0.4-4.7H70.6z"/>
<g class="st9">
	<path class="st10" d="M70.9,125v1h13.2c0.1-0.3,0.2-0.7,0.3-1H70.9z"/>
	<path class="st10" d="M70.9,144.8c-13.6,0-24.7-10.9-25-24.5c0,0.2,0,0.3,0,0.5c0,13.8,11.2,25,25,25c14.4,0,23.9-10.2,23.9-24.4
		c0-0.1,0-0.2,0-0.3C94.5,135,85.1,144.8,70.9,144.8z M80.4,108.4c-2.6-2.5-5.9-3.8-9.6-3.8c-8.2,0-14.8,6.9-14.8,15.1
		c0,0.2,0,0.3,0,0.5c0.3-8,6.8-14.6,14.8-14.6c3.7,0,7,1.3,9.6,3.8v0l7.7-7.7c-0.2-0.2-0.4-0.3-0.6-0.5L80.4,108.4L80.4,108.4z"/>
</g>
<path class="st8" d="M147.7,104.2v-1c0,1.2-0.9,2.1-2.1,2.1H106v1h39.6C146.7,106.3,147.7,105.3,147.7,104.2L147.7,104.2z
	 M145.6,144.8H106v1h39.6c1.2,0,2.1-0.9,2.1-2.1v-1C147.7,143.9,146.7,144.8,145.6,144.8z M151.8,125H106v1h45.8
	c1.2,0,2.1-0.9,2.1-2.1v-1C153.9,124.1,153,125,151.8,125L151.8,125z"/>
<radialGradient id="SVGID_1_" cx="49.6729" cy="163.147" r="178.2906" gradientTransform="matrix(1 0 0 -1 0 200.2998)" gradientUnits="userSpaceOnUse">
	<stop  offset="0" style="stop-color:#FFFFFF;stop-opacity:0.1"/>
	<stop  offset="1" style="stop-color:#FFFFFF;stop-opacity:0"/>
</radialGradient>
<path class="st11" d="M188.5,64.4l-34.4-9.2V29.6c0-2.6-2.1-4.6-4.7-4.6h-99c-2.6,0-4.7,2.1-4.7,4.6v25.4L11.1,67.7
	c-2.2,0.8-3.3,3.5-2.5,5.9L29.2,130v40.3c0,2.6,2.1,4.7,4.7,4.7h132.3c2.6,0,4.7-2.1,4.7-4.7v-23.1l20.7-77.1
	C192.2,67.6,190.8,65,188.5,64.4L188.5,64.4z"/>
</svg>
