<?xml version="1.0" encoding="utf-8"?>
<!-- Generator: Adobe Illustrator 22.0.1, SVG Export Plug-In . SVG Version: 6.00 Build 0)  -->
<svg version="1.1" id="Шар_1" xmlns="http://www.w3.org/2000/svg" xmlns:xlink="http://www.w3.org/1999/xlink" x="0px" y="0px"
	 viewBox="0 0 200 200" style="enable-background:new 0 0 200 200;" xml:space="preserve">
<style type="text/css">
	.st0{fill:#212121;}
</style>
<g>
	<path class="st0" d="M153,47c-29.3-29.3-76.7-29.3-106,0s-29.3,76.7,0,106s76.7,29.3,106,0S182.3,76.3,153,47z M100,166
		c-36.5,0-66-29.5-66-66s29.5-66,66-66s66,29.5,66,66S136.5,166,100,166z"/>
</g>
<g>
	<path class="st0" d="M91.1,70.8c0-4.7,3.7-8.3,9.2-8.3c5.5,0,9.2,3.4,9.2,8c0,5-3.7,8.6-9.2,8.6C94.8,79.1,91.1,75.5,91.1,70.8z
		 M92.9,86.2h14.9v51.3H92.9V86.2z"/>
</g>
</svg>
