<?xml version="1.0" encoding="utf-8"?>
<!-- Generator: Adobe Illustrator 26.0.3, SVG Export Plug-In . SVG Version: 6.00 Build 0)  -->
<svg version="1.1" id="Шар_1" xmlns="http://www.w3.org/2000/svg" xmlns:xlink="http://www.w3.org/1999/xlink" x="0px" y="0px"
	 viewBox="0 0 150 50" style="enable-background:new 0 0 150 50;" xml:space="preserve">
<style type="text/css">
	.st0{fill:#E95228;}
	.st1{fill:#7EBA28;}
	.st2{fill:#339FDA;}
	.st3{fill:#FBB811;}
	.st4{fill:#FFFFFF;}
</style>
<g id="Layer_1">
	<rect x="16" y="11.5" class="st0" width="12.4" height="12.4"/>
	<rect x="29.7" y="11.5" class="st1" width="12.4" height="12.4"/>
	<rect x="16" y="25.2" class="st2" width="12.4" height="12.4"/>
	<rect x="29.7" y="25.2" class="st3" width="12.4" height="12.4"/>
	<path class="st4" d="M66.1,25.5c0-0.4,0.1-0.7,0.4-0.9s0.6-0.4,0.9-0.4c0.4,0,0.7,0.1,1,0.4s0.4,0.6,0.4,0.9c0,0.4-0.1,0.7-0.4,0.9
		c-0.3,0.3-0.6,0.4-1,0.4s-0.7-0.1-1-0.4C66.2,26.1,66.1,25.8,66.1,25.5 M68.5,37.6h-2.2v-9.4h2.2V37.6z"/>
	<path class="st4" d="M75.2,36c0.3,0,0.7-0.1,1.1-0.2c0.4-0.1,0.8-0.4,1.1-0.6v2.1c-0.4,0.2-0.8,0.4-1.2,0.5S75.3,38,74.7,38
		c-1.4,0-2.5-0.4-3.4-1.3c-0.9-0.9-1.3-2-1.3-3.3c0-1.5,0.4-2.8,1.3-3.7c0.9-1,2.1-1.5,3.8-1.5c0.4,0,0.8,0.1,1.3,0.2
		c0.4,0.1,0.8,0.2,1,0.4v2.1c-0.3-0.3-0.7-0.4-1.1-0.6s-0.7-0.2-1.1-0.2c-0.9,0-1.6,0.3-2.1,0.8c-0.5,0.6-0.8,1.3-0.8,2.3
		c0,0.9,0.3,1.7,0.8,2.2C73.6,35.7,74.3,36,75.2,36"/>
	<path class="st4" d="M83.7,28.1c0.2,0,0.3,0,0.5,0c0.1,0,0.3,0.1,0.4,0.1v2.2c-0.1-0.1-0.3-0.2-0.5-0.2c-0.2-0.1-0.5-0.1-0.8-0.1
		c-0.5,0-1,0.2-1.4,0.7s-0.6,1.2-0.6,2.1v4.8h-2.2v-9.4h2.2v1.5l0,0c0.2-0.5,0.5-0.9,0.9-1.2C82.6,28.2,83.1,28.1,83.7,28.1"/>
	<path class="st4" d="M84.7,33c0-1.6,0.4-2.8,1.3-3.7c0.9-0.9,2.1-1.4,3.7-1.4c1.5,0,2.6,0.4,3.5,1.3s1.2,2.1,1.2,3.5
		c0,1.5-0.4,2.7-1.3,3.6s-2.1,1.3-3.6,1.3s-2.6-0.4-3.5-1.3C85.1,35.7,84.7,34.5,84.7,33 M87,33c0,1,0.2,1.7,0.7,2.3
		c0.4,0.5,1.1,0.8,1.9,0.8s1.4-0.3,1.8-0.8S92,34,92,33s-0.2-1.8-0.7-2.3c-0.4-0.5-1.1-0.8-1.8-0.8c-0.8,0-1.4,0.3-1.9,0.8
		C87.2,31.2,87,32,87,33"/>
	<path class="st4" d="M97.6,30.7c0,0.3,0.1,0.6,0.3,0.7c0.2,0.2,0.7,0.4,1.3,0.7c0.9,0.4,1.5,0.8,1.9,1.2s0.5,1,0.5,1.6
		c0,0.9-0.3,1.6-1,2.1s-1.6,0.8-2.8,0.8c-0.4,0-0.8,0-1.3-0.1s-0.9-0.2-1.2-0.4v-2.2c0.4,0.3,0.8,0.5,1.3,0.7s0.9,0.3,1.3,0.3
		c0.5,0,0.9-0.1,1.1-0.2s0.4-0.4,0.4-0.7s-0.1-0.6-0.4-0.8s-0.7-0.5-1.4-0.7c-0.8-0.3-1.4-0.7-1.7-1.2c-0.3-0.4-0.5-1-0.5-1.6
		c0-0.8,0.3-1.5,1-2.1c0.7-0.5,1.5-0.8,2.6-0.8c0.3,0,0.7,0,1.1,0.1s0.8,0.2,1,0.3v2.1c-0.3-0.2-0.6-0.4-1-0.5s-0.8-0.2-1.2-0.2
		c-0.4,0-0.8,0.1-1,0.3C97.7,30.2,97.6,30.4,97.6,30.7"/>
	<path class="st4" d="M102.6,33c0-1.6,0.4-2.8,1.3-3.7c0.9-0.9,2.1-1.4,3.7-1.4c1.5,0,2.6,0.4,3.5,1.3s1.2,2.1,1.2,3.5
		c0,1.5-0.4,2.7-1.3,3.6s-2.1,1.3-3.6,1.3s-2.6-0.4-3.5-1.3C103.1,35.7,102.6,34.5,102.6,33 M104.9,33c0,1,0.2,1.7,0.7,2.3
		c0.4,0.5,1.1,0.8,1.9,0.8s1.4-0.3,1.8-0.8s0.6-1.3,0.6-2.3s-0.2-1.8-0.7-2.3c-0.4-0.5-1.1-0.8-1.8-0.8c-0.8,0-1.4,0.3-1.9,0.8
		C105.1,31.2,104.9,32,104.9,33"/>
	<path class="st4" d="M119.6,30v4.8c0,1,0.2,1.7,0.7,2.3c0.5,0.5,1.2,0.7,2.1,0.7c0.3,0,0.6,0,1-0.1c0.3-0.1,0.6-0.1,0.7-0.2v-1.8
		c-0.1,0.1-0.3,0.2-0.5,0.2c-0.2,0.1-0.3,0.1-0.5,0.1c-0.4,0-0.8-0.1-1-0.4c-0.2-0.2-0.3-0.7-0.3-1.2V30h2.3v-1.8h-2.2v-2.8
		l-2.2,0.7v2.1h-3.3v-1.1c0-0.6,0.1-1,0.4-1.3s0.6-0.4,1.1-0.4c0.2,0,0.4,0,0.6,0.1s0.3,0.1,0.4,0.2v-1.9c-0.2-0.1-0.3-0.1-0.5-0.1
		s-0.4,0-0.7,0c-1,0-1.8,0.3-2.5,0.9c-0.6,0.6-1,1.4-1,2.4v1.3h-1.6V30h1.6v7.6h2.2V30H119.6L119.6,30z"/>
	<polygon class="st4" points="64.2,24.5 64.2,37.6 61.9,37.6 61.9,27.3 61.9,27.3 57.8,37.6 56.3,37.6 52.1,27.3 52.1,27.3 
		52.1,37.6 50,37.6 50,24.5 53.2,24.5 57,34.2 57.1,34.2 61,24.5 	"/>
</g>
</svg>
