<?xml version="1.0" encoding="utf-8"?>
<!-- Generator: Adobe Illustrator 22.0.1, SVG Export Plug-In . SVG Version: 6.00 Build 0)  -->
<svg version="1.1" id="Шар_1" xmlns="http://www.w3.org/2000/svg" xmlns:xlink="http://www.w3.org/1999/xlink" x="0px" y="0px"
	 viewBox="0 0 200 200" style="enable-background:new 0 0 200 200;" xml:space="preserve">
<style type="text/css">
	.st0{fill:#212121;}
</style>
<g>
	<path class="st0" d="M153,47c-29.3-29.3-76.7-29.3-106,0s-29.3,76.7,0,106s76.7,29.3,106,0S182.3,76.3,153,47z M100,166
		c-36.5,0-66-29.5-66-66s29.5-66,66-66s66,29.5,66,66S136.5,166,100,166z"/>
</g>
<path class="st0" d="M90.5,77.7c0-7-5.7-12.7-12.7-12.7c-7,0-12.7,5.7-12.7,12.7c0,7,5.7,12.7,12.7,12.7
	C84.7,90.5,90.5,84.7,90.5,77.7z"/>
<path class="st0" d="M126.2,66.3c-2.8-2.2-6.8-1.7-8.9,1.1l-44.5,57.3c-2.2,2.8-1.7,6.8,1.1,8.9c2.8,2.2,6.8,1.6,8.9-1.1l44.5-57.3
	C129.5,72.5,129,68.5,126.2,66.3z"/>
<circle class="st0" cx="122.3" cy="122.3" r="12.7"/>
</svg>
