<?xml version="1.0" encoding="utf-8"?>
<!-- Generator: Adobe Illustrator 26.0.3, SVG Export Plug-In . SVG Version: 6.00 Build 0)  -->
<svg version="1.1" id="Шар_1" xmlns="http://www.w3.org/2000/svg" xmlns:xlink="http://www.w3.org/1999/xlink" x="0px" y="0px"
	 viewBox="0 0 150 50" style="enable-background:new 0 0 150 50;" xml:space="preserve">
<style type="text/css">
	.st0{fill:#FFFFFF;}
	.st1{fill:url(#SVGID_1_);}
	.st2{fill:url(#SVGID_00000103978969289443088810000007644771615920053935_);}
	.st3{fill:url(#SVGID_00000090273528990811686930000016953936692963802550_);}
	.st4{fill:url(#SVGID_00000057868981298060029470000016074086318891442362_);}
	.st5{opacity:0.2;fill:#020203;enable-background:new    ;}
	.st6{opacity:0.12;fill:#020203;enable-background:new    ;}
	.st7{opacity:0.25;fill:#FFFFFF;enable-background:new    ;}
</style>
<path class="st0" d="M77.8,27.6c-2.4,0-4.4,1.8-4.4,4.4c0,2.5,2,4.4,4.4,4.4c2.4,0,4.4-1.8,4.4-4.4C82.1,29.4,80.2,27.6,77.8,27.6z
	 M77.8,34.6c-1.3,0-2.5-1.1-2.5-2.6c0-1.6,1.1-2.6,2.5-2.6c1.3,0,2.5,1.1,2.5,2.6C80.2,33.5,79.1,34.6,77.8,34.6z M68.2,27.6
	c-2.4,0-4.4,1.8-4.4,4.4c0,2.5,2,4.4,4.4,4.4c2.4,0,4.4-1.8,4.4-4.4C72.6,29.4,70.6,27.6,68.2,27.6z M68.2,34.6
	c-1.3,0-2.5-1.1-2.5-2.6c0-1.6,1.1-2.6,2.5-2.6c1.3,0,2.5,1.1,2.5,2.6C70.7,33.5,69.5,34.6,68.2,34.6z M56.9,28.9v1.8h4.4
	c-0.1,1-0.5,1.8-1,2.3c-0.6,0.6-1.7,1.4-3.4,1.4c-2.7,0-4.9-2.2-4.9-4.9s2.1-4.9,4.9-4.9c1.5,0,2.5,0.6,3.3,1.3l1.3-1.3
	c-1.1-1.1-2.6-1.9-4.6-1.9c-3.7,0-6.9,3-6.9,6.8c0,3.7,3.1,6.8,6.9,6.8c2,0,3.5-0.7,4.7-1.9c1.2-1.2,1.6-2.9,1.6-4.3
	c0-0.4,0-0.8-0.1-1.2H56.9z M103.3,30.3c-0.4-1-1.5-2.8-3.7-2.8c-2.2,0-4.1,1.8-4.1,4.4c0,2.4,1.8,4.4,4.3,4.4c2,0,3.2-1.2,3.6-1.9
	l-1.5-1c-0.5,0.7-1.2,1.2-2.1,1.2c-1,0-1.7-0.4-2.1-1.3l5.8-2.4L103.3,30.3z M97.3,31.8c0-1.7,1.3-2.5,2.3-2.5
	c0.8,0,1.4,0.4,1.6,0.9L97.3,31.8z M92.6,36h1.9V23.2h-1.9V36z M89.5,28.5L89.5,28.5c-0.5-0.5-1.3-1-2.4-1c-2.2,0-4.2,1.9-4.2,4.4
	c0,2.4,2,4.3,4.2,4.3c1,0,1.9-0.5,2.3-1h0.1v0.6c0,1.7-0.9,2.6-2.3,2.6c-1.2,0-1.9-0.8-2.2-1.6l-1.7,0.7c0.5,1.2,1.8,2.6,3.9,2.6
	c2.2,0,4.1-1.3,4.1-4.5v-7.8h-1.8V28.5z M87.3,34.6c-1.3,0-2.4-1.1-2.4-2.6c0-1.5,1.1-2.7,2.4-2.7c1.3,0,2.3,1.1,2.3,2.7
	C89.6,33.5,88.6,34.6,87.3,34.6z M112.3,23.2h-4.6V36h1.9v-4.9h2.7c2.1,0,4.2-1.5,4.2-4S114.4,23.2,112.3,23.2z M112.3,29.4h-2.7V25
	h2.7c1.4,0,2.2,1.2,2.2,2.2C114.6,28.2,113.7,29.4,112.3,29.4z M124.1,27.5c-1.4,0-2.8,0.6-3.4,2l1.7,0.7c0.4-0.7,1-0.9,1.7-0.9
	c1,0,2,0.6,2,1.6v0.1c-0.3-0.2-1.1-0.5-2-0.5c-1.8,0-3.7,1-3.7,2.9c0,1.7,1.5,2.8,3.2,2.8c1.3,0,2-0.6,2.4-1.3h0.1v1h1.8v-4.9
	C128,28.8,126.3,27.5,124.1,27.5z M123.9,34.6c-0.6,0-1.5-0.3-1.5-1.1c0-1,1.1-1.4,2-1.4c0.8,0,1.2,0.2,1.7,0.4
	C126,33.7,125,34.6,123.9,34.6z M134.7,27.8l-2.2,5.6h-0.1l-2.3-5.6h-2.1l3.4,7.8l-1.9,4.3h2l5.3-12.1H134.7z M117.5,36h1.9V23.2
	h-1.9V36z"/>
<g>
	
		<linearGradient id="SVGID_1_" gradientUnits="userSpaceOnUse" x1="28.9533" y1="39.9563" x2="10.6043" y2="21.6074" gradientTransform="matrix(1 0 0 -1 0 52)">
		<stop  offset="0" style="stop-color:#4696D2"/>
		<stop  offset="6.574450e-03" style="stop-color:#4598D3"/>
		<stop  offset="0.2601" style="stop-color:#3FB9EB"/>
		<stop  offset="0.5122" style="stop-color:#4AC1ED"/>
		<stop  offset="0.7604" style="stop-color:#5CC4E6"/>
		<stop  offset="1" style="stop-color:#60C4E5"/>
	</linearGradient>
	<path class="st1" d="M16.5,10.8c-0.3,0.3-0.5,0.9-0.5,1.5v24.2c0,0.7,0.2,1.2,0.5,1.5l0.1,0.1l13.5-13.5v-0.2v-0.2L16.5,10.8
		L16.5,10.8z"/>
	
		<linearGradient id="SVGID_00000073697437518576490440000008342870570120093626_" gradientUnits="userSpaceOnUse" x1="42.1113" y1="27.6106" x2="15.6557" y2="27.6106" gradientTransform="matrix(1 0 0 -1 0 52)">
		<stop  offset="0" style="stop-color:#FFE00A"/>
		<stop  offset="0.4087" style="stop-color:#FBBC0F"/>
		<stop  offset="0.7754" style="stop-color:#F7A418"/>
		<stop  offset="1" style="stop-color:#F59A1B"/>
	</linearGradient>
	<path style="fill:url(#SVGID_00000073697437518576490440000008342870570120093626_);" d="M34.7,29.1l-4.5-4.5v-0.2v-0.2l4.5-4.5
		l0.1,0.1l5.3,3c1.5,0.9,1.5,2.3,0,3.2l-5.3,3L34.7,29.1z"/>
	
		<linearGradient id="SVGID_00000021801306048136674000000003815218020173422243_" gradientUnits="userSpaceOnUse" x1="32.2631" y1="25.1017" x2="7.3804" y2="0.2191" gradientTransform="matrix(1 0 0 -1 0 52)">
		<stop  offset="0" style="stop-color:#E8404A"/>
		<stop  offset="1" style="stop-color:#C31262"/>
	</linearGradient>
	<path style="fill:url(#SVGID_00000021801306048136674000000003815218020173422243_);" d="M34.8,29l-4.6-4.6L16.5,38
		c0.5,0.5,1.3,0.6,2.3,0.1L34.8,29"/>
	
		<linearGradient id="SVGID_00000003103907732346732680000009833432182167228814_" gradientUnits="userSpaceOnUse" x1="13.0972" y1="49.2864" x2="24.2083" y2="38.1753" gradientTransform="matrix(1 0 0 -1 0 52)">
		<stop  offset="0" style="stop-color:#32A071"/>
		<stop  offset="6.850000e-02" style="stop-color:#2DA771"/>
		<stop  offset="0.4762" style="stop-color:#4FB26F"/>
		<stop  offset="0.8009" style="stop-color:#61B668"/>
		<stop  offset="1" style="stop-color:#64B664"/>
	</linearGradient>
	<path style="fill:url(#SVGID_00000003103907732346732680000009833432182167228814_);" d="M34.8,19.8l-16-9.1
		c-0.9-0.5-1.8-0.5-2.3,0.1l13.6,13.6L34.8,19.8z"/>
	<g>
		<path class="st5" d="M34.7,28.9l-15.9,9c-0.9,0.5-1.7,0.5-2.2,0l0,0L16.5,38l0,0l0.1,0.1l0,0c0.5,0.5,1.3,0.5,2.2,0l16-9.1
			L34.7,28.9z"/>
		<path class="st6" d="M16.5,37.9C16.2,37.5,16,37,16,36.3v0.2c0,0.7,0.2,1.2,0.5,1.5V37.9L16.5,37.9z"/>
	</g>
	<path class="st6" d="M40.1,25.8l-5.5,3.1l0.1,0.1l5.3-3c0.8-0.4,1.1-1,1.1-1.6l0,0C41.2,24.9,40.8,25.4,40.1,25.8z"/>
	<path class="st7" d="M18.8,10.9L40.1,23c0.7,0.4,1.1,0.9,1.1,1.4l0,0c0-0.6-0.4-1.1-1.1-1.6L18.8,10.7c-1.5-0.9-2.8-0.1-2.8,1.6
		v0.2C16,10.7,17.3,10,18.8,10.9z"/>
</g>
</svg>
