<?xml version="1.0" encoding="utf-8"?>
<!-- Generator: Adobe Illustrator 26.1.0, SVG Export Plug-In . SVG Version: 6.00 Build 0)  -->
<svg version="1.1" id="Capa_1" xmlns="http://www.w3.org/2000/svg" xmlns:xlink="http://www.w3.org/1999/xlink" x="0px" y="0px"
	 viewBox="0 0 200 200" style="enable-background:new 0 0 200 200;" xml:space="preserve">
<style type="text/css">
	.st0{fill:#F0FFFF;}
</style>
<g id="_x34_4-18Plus_movie">
	<g>
		<path class="st0" d="M72.5,125.5V84.8H63V74.4h22.4v51.2H72.5L72.5,125.5z"/>
	</g>
	<g>
		<path class="st0" d="M134.3,87.6c0,4.5-2.4,8.4-6.4,10.6c5.6,2.3,9.1,7.2,9.1,12.9c0,9.2-8.2,15-20.9,15
			c-12.8,0-20.9-5.8-20.9-14.8c0-5.8,3.8-10.8,9.7-13.1c-4.3-2.4-7.1-6.5-7.1-10.9c0-8.2,7.2-13.4,18.2-13.4
			C127.2,73.9,134.3,79.2,134.3,87.6z M107.3,110c0,4.3,3.1,6.7,8.7,6.7s8.8-2.3,8.8-6.7c0-4.2-3.1-6.6-8.8-6.6
			C110.4,103.4,107.3,105.8,107.3,110z M108.6,88.3c0,3.6,2.6,5.7,7.4,5.7c4.7,0,7.4-2,7.4-5.7c0-3.8-2.6-5.9-7.4-5.9
			C111.3,82.4,108.6,84.5,108.6,88.3z"/>
	</g>
	<g>
		<path class="st0" d="M158.6,80.2c2.2,6.4,3.3,13,3.3,19.8c0,34.1-27.7,61.8-61.8,61.8S38.2,134.1,38.2,100
			c0-34.1,27.7-61.8,61.8-61.8c6.8,0,13.5,1.1,19.8,3.3V27.7c-6.4-1.8-13.1-2.7-19.8-2.7c-41.4,0-75,33.6-75,75s33.6,75,75,75
			s75-33.6,75-75c0-6.8-0.9-13.4-2.7-19.8C172.3,80.2,158.6,80.2,158.6,80.2z"/>
	</g>
	<g>
		<polygon class="st0" points="154.8,45.1 154.8,30.7 144.5,30.7 144.5,45.1 130.2,45.1 130.2,55.5 144.5,55.5 144.5,69.8 
			154.8,69.8 154.8,55.5 169.2,55.5 169.2,45.1 		"/>
	</g>
</g>
</svg>
