<?xml version="1.0" encoding="utf-8"?>
<!-- Generator: Adobe Illustrator 27.2.0, SVG Export Plug-In . SVG Version: 6.00 Build 0)  -->
<svg version="1.1" id="Шар_1" xmlns="http://www.w3.org/2000/svg" xmlns:xlink="http://www.w3.org/1999/xlink" x="0px" y="0px"
	 viewBox="0 0 150 50" style="enable-background:new 0 0 150 50;" xml:space="preserve">
<style type="text/css">
	.st0{fill:#4D3D91;}
	.st1{fill:#FFFFFF;}
</style>
<rect x="16" y="11.5" class="st0" width="26.1" height="26.1"/>
<g>
	<path class="st1" d="M33.8,27l0.6-1.5H36l-0.8-2.2l1-2.5l2.8,7.5H37L36.5,27H33.8z"/>
	<path class="st1" d="M32,28.3l3-7.5l-2,0l-2.1,4.9l-1.5-4.9h-1.5l-1.6,4.9l-1.1-2.2l-1,3.1l1,1.8h2l1.4-4.4l1.4,4.4H32z"/>
	<path class="st1" d="M21,25.7h1.2c0.4,0,0.7,0,1-0.1l0.3-1l0.9-2.8c-0.1-0.1-0.1-0.2-0.2-0.3c-0.5-0.5-1.1-0.8-2-0.8H19v7.5H21
		V25.7z M22.6,22.5c0.2,0.2,0.3,0.4,0.3,0.7c0,0.3-0.1,0.5-0.2,0.7c-0.2,0.2-0.5,0.3-1,0.3H21v-2h0.7C22.1,22.2,22.4,22.3,22.6,22.5
		z"/>
</g>
<g>
	<path class="st1" d="M66.4,25.4c0.2,0.2,0.3,0.4,0.3,0.6c0,0.1,0,0.2-0.1,0.3l-3.5,10.2c0,0.2-0.1,0.3-0.3,0.4
		c-0.1,0.1-0.3,0.1-0.4,0.1c-0.2,0-0.3,0-0.5-0.1c-0.1-0.1-0.3-0.2-0.3-0.4L59,30.3l-2.6,6.1c-0.1,0.2-0.2,0.3-0.3,0.4
		c-0.1,0.1-0.3,0.1-0.5,0.1c-0.2,0-0.3-0.1-0.4-0.2c-0.1-0.1-0.2-0.2-0.3-0.4l-3.5-10.2c0-0.1-0.1-0.2-0.1-0.3
		c0-0.2,0.1-0.5,0.3-0.6c0.2-0.2,0.4-0.2,0.6-0.2c0.2,0,0.3,0,0.5,0.1c0.1,0.1,0.2,0.2,0.3,0.4l2.8,8.4l2.4-6
		c0.1-0.2,0.2-0.3,0.3-0.4c0.1-0.1,0.3-0.1,0.5-0.1c0.2,0,0.3,0,0.5,0.1c0.1,0.1,0.2,0.2,0.3,0.4l2.4,6l2.8-8.4
		c0-0.2,0.1-0.3,0.3-0.4c0.1-0.1,0.3-0.1,0.5-0.1C66,25.1,66.2,25.2,66.4,25.4z"/>
	<path class="st1" d="M75.5,32.7c-0.2,0.1-0.3,0.2-0.6,0.2H69c0.1,0.8,0.4,1.5,0.9,2c0.5,0.5,1.2,0.7,2,0.7c0.5,0,1-0.1,1.3-0.2
		c0.3-0.2,0.6-0.4,0.9-0.6c0.2-0.1,0.3-0.2,0.5-0.2c0.2,0,0.4,0.1,0.5,0.2c0.1,0.1,0.2,0.3,0.2,0.5c0,0.2-0.1,0.4-0.3,0.6
		c-0.3,0.3-0.8,0.6-1.3,0.8c-0.5,0.2-1.1,0.3-1.6,0.3c-0.9,0-1.7-0.2-2.4-0.6c-0.7-0.4-1.2-0.9-1.6-1.6s-0.6-1.5-0.6-2.3
		c0-0.9,0.2-1.8,0.6-2.5c0.4-0.7,0.9-1.3,1.5-1.6c0.6-0.4,1.3-0.6,2-0.6c0.7,0,1.4,0.2,2,0.6c0.6,0.4,1.1,0.9,1.5,1.5
		c0.4,0.7,0.6,1.4,0.6,2.2C75.7,32.4,75.6,32.6,75.5,32.7z M70,29.9c-0.5,0.4-0.8,0.9-0.9,1.6h5v-0.1c-0.1-0.6-0.3-1.1-0.8-1.5
		c-0.5-0.4-1-0.6-1.6-0.6C71,29.4,70.4,29.6,70,29.9z"/>
	<path class="st1" d="M84.1,28.5c0.6,0.4,1.1,0.9,1.5,1.6c0.4,0.7,0.5,1.5,0.5,2.4c0,0.9-0.2,1.7-0.5,2.4c-0.4,0.7-0.8,1.3-1.5,1.6
		s-1.3,0.6-2,0.6c-0.6,0-1.1-0.1-1.6-0.4c-0.5-0.3-0.9-0.6-1.2-1v0.5c0,0.2-0.1,0.4-0.2,0.6s-0.3,0.2-0.6,0.2
		c-0.2,0-0.4-0.1-0.6-0.2c-0.2-0.2-0.2-0.3-0.2-0.6V25.3c0-0.2,0.1-0.4,0.2-0.6c0.1-0.2,0.3-0.2,0.6-0.2s0.4,0.1,0.6,0.2
		c0.2,0.2,0.2,0.3,0.2,0.6v4.1c0.3-0.4,0.7-0.8,1.2-1s1.1-0.4,1.6-0.4C82.8,27.9,83.4,28.1,84.1,28.5z M83.2,35.2
		c0.4-0.3,0.7-0.7,1-1.1c0.2-0.5,0.3-1,0.3-1.6c0-0.6-0.1-1.1-0.3-1.6c-0.2-0.5-0.6-0.8-1-1.1c-0.4-0.3-0.9-0.4-1.4-0.4
		c-0.5,0-1,0.1-1.4,0.4c-0.4,0.3-0.7,0.6-1,1.1s-0.3,1-0.3,1.6c0,0.6,0.1,1.1,0.3,1.6c0.2,0.5,0.6,0.8,1,1.1
		c0.4,0.3,0.9,0.4,1.4,0.4C82.3,35.6,82.8,35.5,83.2,35.2z"/>
	<path class="st1" d="M101.8,36.2c0,0.2-0.1,0.4-0.2,0.6c-0.2,0.1-0.3,0.2-0.5,0.2c-0.2,0-0.3,0-0.4-0.1c-0.1-0.1-0.2-0.2-0.3-0.4
		l-1-2.5h-5.2l-1,2.5c-0.1,0.2-0.1,0.3-0.3,0.4c-0.1,0.1-0.3,0.1-0.4,0.1c-0.2,0-0.4-0.1-0.5-0.2s-0.2-0.3-0.2-0.5c0,0,0-0.1,0-0.3
		L96,25.6c0.1-0.2,0.2-0.3,0.3-0.4s0.3-0.1,0.5-0.1c0.2,0,0.3,0,0.5,0.1c0.1,0.1,0.2,0.2,0.3,0.4l4.3,10.3
		C101.8,36,101.8,36.1,101.8,36.2z M94.8,32.5h3.9l-2-4.7L94.8,32.5z"/>
	<path class="st1" d="M109.8,28.6c0.6,0.4,1.1,0.9,1.5,1.6c0.4,0.7,0.5,1.5,0.5,2.4c0,0.9-0.2,1.7-0.5,2.3c-0.4,0.7-0.8,1.2-1.5,1.6
		s-1.3,0.6-2,0.6c-0.6,0-1.1-0.1-1.6-0.4c-0.5-0.3-0.9-0.6-1.2-0.9v3.7c0,0.2-0.1,0.4-0.2,0.6s-0.3,0.2-0.6,0.2
		c-0.2,0-0.4-0.1-0.6-0.2c-0.2-0.2-0.2-0.3-0.2-0.6V28.9c0-0.2,0.1-0.4,0.2-0.6s0.3-0.2,0.6-0.2s0.4,0.1,0.6,0.2s0.2,0.4,0.2,0.6
		v0.5c0.3-0.4,0.7-0.7,1.2-1s1.1-0.4,1.6-0.4C108.5,28,109.2,28.2,109.8,28.6z M109,35.2c0.4-0.3,0.7-0.6,1-1.1
		c0.2-0.5,0.3-1,0.3-1.6c0-0.6-0.1-1.1-0.3-1.6c-0.2-0.5-0.6-0.8-1-1.1c-0.4-0.3-0.9-0.4-1.4-0.4c-0.5,0-1,0.1-1.4,0.4
		c-0.4,0.3-0.7,0.6-1,1.1c-0.2,0.5-0.3,1-0.3,1.6c0,0.6,0.1,1.1,0.3,1.6c0.2,0.5,0.6,0.8,1,1.1c0.4,0.3,0.9,0.4,1.4,0.4
		C108.1,35.6,108.6,35.5,109,35.2z"/>
	<path class="st1" d="M120.2,28.6c0.6,0.4,1.1,0.9,1.5,1.6c0.4,0.7,0.5,1.5,0.5,2.4c0,0.9-0.2,1.7-0.5,2.3c-0.4,0.7-0.8,1.2-1.5,1.6
		s-1.3,0.6-2,0.6c-0.6,0-1.1-0.1-1.6-0.4c-0.5-0.3-0.9-0.6-1.2-0.9v3.7c0,0.2-0.1,0.4-0.2,0.6s-0.3,0.2-0.6,0.2
		c-0.2,0-0.4-0.1-0.6-0.2c-0.2-0.2-0.2-0.3-0.2-0.6V28.9c0-0.2,0.1-0.4,0.2-0.6s0.3-0.2,0.6-0.2s0.4,0.1,0.6,0.2s0.2,0.4,0.2,0.6
		v0.5c0.3-0.4,0.7-0.7,1.2-1s1.1-0.4,1.6-0.4C118.9,28,119.5,28.2,120.2,28.6z M119.3,35.2c0.4-0.3,0.7-0.6,1-1.1
		c0.2-0.5,0.3-1,0.3-1.6c0-0.6-0.1-1.1-0.3-1.6c-0.2-0.5-0.6-0.8-1-1.1c-0.4-0.3-0.9-0.4-1.4-0.4c-0.5,0-1,0.1-1.4,0.4
		c-0.4,0.3-0.7,0.6-1,1.1c-0.2,0.5-0.3,1-0.3,1.6c0,0.6,0.1,1.1,0.3,1.6c0.2,0.5,0.6,0.8,1,1.1c0.4,0.3,0.9,0.4,1.4,0.4
		C118.4,35.6,118.9,35.5,119.3,35.2z"/>
</g>
</svg>
