<?xml version="1.0" encoding="utf-8"?>
<!-- Generator: Adobe Illustrator 27.0.1, SVG Export Plug-In . SVG Version: 6.00 Build 0)  -->
<svg version="1.1" id="Шар_1" xmlns="http://www.w3.org/2000/svg" xmlns:xlink="http://www.w3.org/1999/xlink" x="0px" y="0px"
	 viewBox="0 0 220 75" style="enable-background:new 0 0 220 75;" xml:space="preserve">
<style type="text/css">
	.st0{fill:#F4F5FB;}
</style>
<path class="st0" d="M53.4,23.7c0-8.7,5.5-13.5,15.7-13.5c7.4,0,8.7,4.8,8.7,6.5c0,3.3-4.7,6.9-4.7,6.9s0.3,2.1,4.3,2.1s8-2.7,8-9.4
	C85.4,8.5,77.3,5,69.3,5C62.6,5,44.9,6,45,23.6c0,15.6,29.5,17,29.6,27c0,10.9-12.2,13.8-16.3,13.8c-4.1,0-5.8-2.9-5.8-4.5
	c0-8.8,8.7-11.3,8.7-11.3c-0.1-2-1.7-3.6-3.8-3.6c0,0-0.1,0-0.1,0c-8.7,0.1-12.2,7.6-12.2,14.9c0,6.2,4.4,10.1,11.1,10.1
	c12.7,0,27.1-6.3,27-20.1C83.2,37,53.5,33.7,53.4,23.7z"/>
<path class="st0" d="M174.8,58.2c-0.1-0.2-0.4-0.2-0.8,0.1c-1.4,1.2-4.7,4.6-12.5,4.6C147.4,63,145,39.8,145,39.8s10.7-8,12.4-11.3
	c1.7-3.2-3.7-4-3.7-4s-7.5,9.1-12.8,11.8c0.5-4,4.5-13,4.7-18.2s-6.3-3.9-7.3-3.4c0,2.3-5.7,22.9-7.8,34.3c-1.2,2-3,4.2-4.6,4.2
	c-0.9,0-1.2-1.7-1.3-4.1c0-3.4,1.9-8.8,1.8-12c0-2.3-1-2.4-1.9-2.4l-1.5,0c-2.3,0-1.5-2-3.6-2c-6.3,0-14.4,6.9-14.7,17.4
	c-2.1,1.4-5.1,3.2-6.7,3.2c-1.5,0-2-1.5-2-2.7c0-2.3,3.6-15.6,3.6-15.6s4.6-1.2,6.7-1.6c1.5-0.3,2-0.4,2.6-1.1
	c0.6-0.7,1.8-2.3,2.7-3.6c0.9-1.4,0-2.4-1.7-2.4c-2.3,0-8.4,1.4-8.4,1.4s2.9-12.6,2.9-12.9c0-0.3-0.3-0.4-0.8-0.4
	c-1.1,0-3.1,0.6-4.4,1c-1.9,0.7-3.5,3.1-3.8,4.2S93,29.4,93,29.4S81.2,33.4,79.6,34c-0.1,0-0.2,0.1-0.2,0.2c0,0.1,1.3,5.2,4.1,5.2
	c2,0,7.8-2.4,7.8-2.4s-3,11.8-3,15.8c0,2.5,1.2,5.5,6.1,5.5c4.6,0,8.6-2.4,10.9-4c1,2.5,3.5,4.1,6.1,4c4.5,0,7.9-3.6,8.3-4
	c0.6,1.4,1.9,4,5,4c1.8,0,3.6-2,4.9-3.9c0,0.4,0,0.8,0,1.2c0.5,4.9,7.8,2,8.2,1.3c0.2-3.5,0.1-10.8,1.5-15.3
	c1.9,15.3,9,25.5,21.8,25.5c7.1,0,10.8-2.1,12.4-3.8C174.9,62,175.3,60,174.8,58.2z M113.3,53.2c-6.1,0,1.9-15.9,7.1-15.9
	C120.5,39.3,120.3,53.2,113.3,53.2L113.3,53.2z"/>
<path class="st0" d="M163.2,58.1c5.5,0,9.9-3.7,10.6-4.9c1-1.5-1.2-3.9-1.9-3.8c-1.7,1.7-3.6,3.7-7.7,3.7c-4.8,0-3.7-5.3-3.7-5.3
	s9.3,1.2,13.1-5.5c1.2-2.1,1.2-5.1,0.8-6.4c-0.5-1.3-3.2-3.6-7.5-3.3c-5.3,0.4-12,6-13.4,12.6C152.3,50.6,154.5,58.1,163.2,58.1z
	 M169.2,35.7c0.9,0,0.8,1.4,0.5,2.9c-0.3,2-3.1,7.2-8.5,7C161.6,42.7,165.6,35.9,169.2,35.7z"/>
</svg>
