<?xml version="1.0" encoding="utf-8"?>
<!-- Generator: Adobe Illustrator 26.0.3, SVG Export Plug-In . SVG Version: 6.00 Build 0)  -->
<svg version="1.1" id="Шар_1" xmlns="http://www.w3.org/2000/svg" xmlns:xlink="http://www.w3.org/1999/xlink" x="0px" y="0px"
	 viewBox="0 0 200 200" style="enable-background:new 0 0 200 200;" xml:space="preserve">
<style type="text/css">
	.st0{fill:url(#SVGID_1_);}
	.st1{fill:#FFFFFF;}
</style>
<linearGradient id="SVGID_1_" gradientUnits="userSpaceOnUse" x1="0.9269" y1="200.3949" x2="0.9269" y2="199.7511" gradientTransform="matrix(232.75 0 0 -233 -115.6239 46717)">
	<stop  offset="0" style="stop-color:#111D2E"/>
	<stop  offset="0.2125" style="stop-color:#051839"/>
	<stop  offset="0.4069" style="stop-color:#0A1B48"/>
	<stop  offset="0.5811" style="stop-color:#132E62"/>
	<stop  offset="0.7376" style="stop-color:#144B7E"/>
	<stop  offset="0.8728" style="stop-color:#136497"/>
	<stop  offset="1" style="stop-color:#1387B8"/>
</linearGradient>
<path class="st0" d="M28.1,121.6c9.3,30.9,38,53.4,71.9,53.4c41.4,0,75-33.6,75-75c0-41.4-33.6-75-75-75c-39.8,0-72.3,30.9-74.9,70
	C30,103.2,31.9,108.2,28.1,121.6L28.1,121.6z"/>
<path class="st1" d="M96.2,81.2c0,0.1,0,0.3,0,0.4l-18.4,26.7c-3-0.1-6,0.4-8.8,1.6c-1.2,0.5-2.4,1.1-3.5,1.9L25.2,95.1
	c0,0-0.9,15.3,3,26.8l28.5,11.8c1.4,6.4,5.8,12,12.3,14.7c10.6,4.4,22.8-0.6,27.2-11.2c1.1-2.8,1.7-5.7,1.6-8.6l26.3-18.8
	c0.2,0,0.4,0,0.6,0c15.7,0,28.5-12.8,28.5-28.5c0-15.7-12.8-28.5-28.5-28.5C108.9,52.7,96.2,65.5,96.2,81.2z M91.8,135.2
	c-3.4,8.2-12.8,12.1-21,8.7c-3.8-1.6-6.6-4.4-8.3-7.9l9.3,3.8c6,2.5,13-0.3,15.5-6.4c2.5-6-0.3-13-6.4-15.5l-9.6-4
	c3.7-1.4,7.9-1.5,11.8,0.2c4,1.6,7,4.8,8.7,8.7C93.4,126.9,93.4,131.3,91.8,135.2 M124.7,100.2c-10.5,0-19-8.5-19-19
	c0-10.5,8.5-19,19-19c10.5,0,19,8.5,19,19C143.7,91.7,135.1,100.2,124.7,100.2 M110.4,81.2c0-7.9,6.4-14.3,14.3-14.3
	c7.9,0,14.3,6.4,14.3,14.3c0,7.9-6.4,14.3-14.3,14.3C116.8,95.5,110.4,89.1,110.4,81.2z"/>
</svg>
