<?xml version="1.0" encoding="utf-8"?>
<!-- Generator: Adobe Illustrator 27.8.1, SVG Export Plug-In . SVG Version: 6.00 Build 0)  -->
<svg version="1.1" id="Шар_1" xmlns="http://www.w3.org/2000/svg" xmlns:xlink="http://www.w3.org/1999/xlink" x="0px" y="0px"
	 viewBox="0 0 200 200" style="enable-background:new 0 0 200 200;" xml:space="preserve">
<style type="text/css">
	.st0{fill-rule:evenodd;clip-rule:evenodd;fill:#00F7EF;}
	.st1{fill-rule:evenodd;clip-rule:evenodd;}
	.st2{fill-rule:evenodd;clip-rule:evenodd;fill:#FF004F;}
</style>
<g>
	<path class="st0" d="M55.53,151.73c-27.89-24.2-9.85-78.1,33.03-71.31v4.99C52.34,83.72,36.4,126.92,55.53,151.73z M133.75,58.24
		c4.41,3.52,10.48,6.12,18.86,6.61v4.89C143.34,68.03,137.47,63.43,133.75,58.24z M122.12,32.5c-0.01,1.8,0.23,3.74,0.52,5.51h-17.1
		v85.12c0,3.92-0.4,7.42-1.21,10.48c-6.96,15.35-26.67,13.34-32.12,2.81c8.11,5.08,21.44,3.73,26.92-8.32
		c0.8-3.06,1.2-6.56,1.2-10.48V32.5H122.12z"/>
	<path class="st1" d="M127.33,38.01v0.11c0.01,1.97,0.58,30.47,30.49,32.25c0,26.51,0.01,0,0.01,22.02
		c-2.25,0.13-19.68-1.13-30.54-10.81l-0.03,42.86c0.27,19.41-10.54,38.44-30.76,42.28c-5.67,1.07-10.77,1.19-19.34-0.68
		c-49.35-14.76-32.95-87.95,16.6-80.12c0,23.63,0.01-0.01,0.01,23.63c-20.47-3.01-27.32,14.02-21.88,26.21
		c4.95,11.1,25.33,13.51,32.44-2.15c0.8-3.06,1.21-6.56,1.21-10.48V38.01H127.33z"/>
	<path class="st2" d="M88.56,85.4c1.69,0.07,3.43,0.24,5.2,0.52c0,23.63,0.01-0.01,0.01,23.63c-20.47-3.01-27.32,14.02-21.88,26.21
		c0.1,0.22,0.21,0.44,0.32,0.66c-2.43-1.52-4.39-3.61-5.53-6.17c-5.43-12.19,1.41-29.22,21.88-26.21
		C88.57,82.39,88.56,100.41,88.56,85.4z M152.61,69.74c1.63,0.3,3.37,0.51,5.21,0.62c0,26.51,0.01,0,0.01,22.02
		c-2.25,0.13-19.68-1.13-30.54-10.81l-0.03,42.86c0.27,19.41-10.54,38.44-30.76,42.28c-5.67,1.07-10.77,1.19-19.34-0.68
		c-9.64-2.88-16.77-8.01-21.63-14.32c4.34,3.77,9.78,6.82,16.43,8.81c8.56,1.86,13.66,1.74,19.33,0.67
		c20.23-3.84,31.03-22.87,30.77-42.27l0.03-42.87c10.85,9.68,28.29,10.95,30.54,10.8C152.63,66.42,152.61,87.83,152.61,69.74z
		 M127.33,38.01v0.11c0,1.16,0.21,11.45,6.42,20.12c-7.48-5.99-10.15-14.64-11.11-20.23H127.33z"/>
</g>
</svg>
