<?xml version="1.0" encoding="utf-8"?>
<!-- Generator: Adobe Illustrator 26.1.0, SVG Export Plug-In . SVG Version: 6.00 Build 0)  -->
<svg version="1.1" id="Шар_1" xmlns="http://www.w3.org/2000/svg" xmlns:xlink="http://www.w3.org/1999/xlink" x="0px" y="0px"
	 viewBox="0 0 200 200" style="enable-background:new 0 0 200 200;" xml:space="preserve">
<style type="text/css">
	.st0{fill:#1D9BF0;}
</style>
<g id="Logo_1_">
	<path id="white_background" class="st0" d="M159.6,69.4c0.1,1.3,0.1,2.6,0.1,4c0,40.7-31,87.6-87.6,87.6v0
		c-16.7,0-33.1-4.8-47.2-13.8c2.4,0.3,4.9,0.4,7.3,0.4c13.9,0,27.3-4.6,38.2-13.2c-13.2-0.2-24.7-8.8-28.8-21.4
		c4.6,0.9,9.4,0.7,13.9-0.5C41.3,109.6,31,97,31,82.3c0-0.1,0-0.3,0-0.4c4.3,2.4,9.1,3.7,14,3.9c-13.5-9-17.7-27-9.5-41.1
		c15.6,19.2,38.7,30.9,63.4,32.2c-2.5-10.7,0.9-21.9,8.9-29.4c12.4-11.7,31.9-11.1,43.5,1.3c6.9-1.4,13.5-3.9,19.5-7.5
		c-2.3,7.1-7.1,13.2-13.5,17c6.1-0.7,12.1-2.4,17.7-4.8C170.9,59.7,165.7,65,159.6,69.4z"/>
</g>
</svg>
