<?xml version="1.0" encoding="utf-8"?>
<!-- Generator: Adobe Illustrator 28.0.0, SVG Export Plug-In . SVG Version: 6.00 Build 0)  -->
<svg version="1.1" id="Шар_1" xmlns="http://www.w3.org/2000/svg" xmlns:xlink="http://www.w3.org/1999/xlink" x="0px" y="0px"
	 viewBox="0 0 220 75" style="enable-background:new 0 0 220 75;" xml:space="preserve">
<style type="text/css">
	.st0{clip-path:url(#SVGID_00000087380988829117364730000006544092521154464189_);}
	.st1{opacity:0.5;}
	.st2{opacity:0.5;fill:#27863A;enable-background:new    ;}
	.st3{fill:#27863A;}
	.st4{opacity:0.5;fill:#195633;enable-background:new    ;}
	.st5{opacity:0.5;fill:#237638;enable-background:new    ;}
	.st6{fill:#D5E1EF;}
	.st7{fill:#38597F;}
	.st8{fill:#06152A;}
	.st9{opacity:0.5;fill:#2DAB3F;enable-background:new    ;}
	.st10{opacity:0.6;fill:#30AB43;enable-background:new    ;}
	.st11{opacity:0.5;fill:#004B68;enable-background:new    ;}
	.st12{fill:#FFFFFF;}
	.st13{fill:url(#SVGID_00000054252567830240505540000012079143848388937142_);}
	.st14{fill:url(#SVGID_00000070815704549272223300000004809693154747723392_);}
</style>
<g>
	<defs>
		<rect id="SVGID_1_" x="47" y="7.5" width="126" height="60"/>
	</defs>
	<clipPath id="SVGID_00000075881855153527180700000008619960108018841533_">
		<use xlink:href="#SVGID_1_"  style="overflow:visible;"/>
	</clipPath>
	<g style="clip-path:url(#SVGID_00000075881855153527180700000008619960108018841533_);">
		<g class="st1">
			<path class="st2" d="M70.3,40.1c2.5-2.3,3.9-4.4,4.2-6.5c0.2-1.7-0.2-2.6-1.2-2.7c-0.6-0.1-1,0.2-1.3,0.7
				c-0.3,0.6-0.6,1.6-0.8,3.2L62,33.6c0.5-3.1,1.4-5.6,2.8-7.4c1.3-1.9,2.9-3.1,4.8-3.8c1.9-0.7,3.9-0.9,5.9-0.6
				c3.6,0.5,6.1,1.9,7.5,4.2c1.4,2.3,1.9,4.9,1.5,7.9c-0.4,3.2-1.7,6-3.9,8.6c-2.2,2.6-4.8,4.7-7.8,6.3l9.8,1.3L81.3,59l-22.2-3
				l1.1-8.3C64.4,44.9,67.8,42.4,70.3,40.1z"/>
			<path class="st2" d="M86,41.7c0.7-5.5,2.4-9.7,4.9-12.6s6-4.1,10.4-3.6c4.4,0.6,7.4,2.6,9.1,6.2c1.7,3.5,2.2,8,1.4,13.4
				c-0.7,5.5-2.4,9.7-4.9,12.6c-2.6,3-6,4.2-10.4,3.6c-4.4-0.6-7.4-2.6-9.1-6.2C85.7,51.6,85.3,47.1,86,41.7z M102.4,43.9
				c0.3-2.4,0.3-4.2,0.1-5.6c-0.3-1.3-1.1-2.1-2.5-2.3c-1.4-0.2-2.5,0.3-3.1,1.5c-0.6,1.2-1.1,3-1.4,5.4c-0.3,2.4-0.3,4.2-0.1,5.6
				c0.3,1.4,1.1,2.1,2.6,2.3c1.4,0.2,2.4-0.3,3.1-1.6C101.6,48,102.1,46.2,102.4,43.9z"/>
		</g>
		<path class="st3" d="M71,38.3c2.6-2.5,4.1-4.7,4.3-6.6c0.2-1.6-0.2-2.4-1.3-2.4c-0.3,0-0.6,0.1-0.8,0.2c-0.2,0.1-0.5,0.4-0.6,0.6
			c-0.3,0.6-0.6,1.6-0.8,3.1h-9.8c0.5-3,1.4-5.4,2.8-7.3c1.4-1.9,3-3.3,5-4.2c1.9-0.9,4-1.4,6.2-1.3c3.8,0,6.5,1,8,3
			c1.5,2,2.1,4.4,1.7,7.3c-0.4,3-1.7,5.9-4,8.6c-2.3,2.7-5.1,5.1-8.1,7h10.4l-1.1,8.6H59.4l1-8C64.8,43.6,68.4,40.8,71,38.3z"/>
		<path class="st3" d="M87.6,37.8c0.7-5.3,2.3-9.4,5-12.5c2.6-3.1,6.3-4.7,10.9-4.7c4.6,0,7.8,1.6,9.7,4.7c1.8,3.1,2.4,7.3,1.7,12.5
			c-0.7,5.3-2.3,9.4-5,12.6c-2.6,3.1-6.3,4.7-10.9,4.7c-4.6,0-7.8-1.6-9.7-4.7C87.4,47.2,86.9,43.1,87.6,37.8z M104.9,37.8
			c0.3-2.3,0.3-4,0-5.3c-0.3-1.2-1.2-1.9-2.7-1.9c-1.5,0-2.6,0.6-3.2,1.9c-0.6,1.2-1.1,3-1.4,5.3c-0.3,2.3-0.3,4,0,5.3
			c0.3,1.2,1.2,1.9,2.8,1.9c1.5,0,2.6-0.6,3.2-1.9C104.1,41.8,104.6,40.1,104.9,37.8z"/>
		<path class="st3" d="M71,38.9c2.6-2.5,4.1-4.7,4.3-6.6c0.2-1.6-0.2-2.4-1.3-2.4c-0.3,0-0.6,0.1-0.8,0.2c-0.2,0.1-0.5,0.4-0.6,0.6
			c-0.3,0.6-0.6,1.6-0.8,3.1h-9.8c0.5-3,1.4-5.4,2.8-7.4c1.4-1.9,3.1-3.3,5-4.2c1.9-0.9,4-1.4,6.2-1.3c3.8,0,6.5,1,8,3
			c1.5,2,2.1,4.4,1.7,7.3c-0.4,3-1.7,5.9-4,8.6c-2.3,2.7-5.1,5.1-8.1,7h10.4l-1.1,8.6H59.4l1-8C64.8,44.2,68.4,41.3,71,38.9z"/>
		<path class="st3" d="M87.6,38.4c0.7-5.3,2.3-9.4,5-12.5c2.6-3.1,6.3-4.7,10.9-4.7c4.6,0,7.8,1.6,9.7,4.7c1.8,3.1,2.4,7.3,1.7,12.5
			c-0.7,5.3-2.3,9.4-5,12.6c-2.6,3.1-6.3,4.7-10.9,4.7c-4.6,0-7.8-1.6-9.7-4.7C87.4,47.8,86.9,43.7,87.6,38.4z M104.9,38.4
			c0.3-2.3,0.3-4,0-5.3c-0.3-1.2-1.2-1.8-2.7-1.8c-1.5,0-2.6,0.6-3.2,1.9c-0.6,1.2-1.1,3-1.4,5.3c-0.3,2.3-0.3,4,0,5.3
			c0.3,1.2,1.2,1.9,2.8,1.9c1.5,0,2.6-0.6,3.2-1.9C104.1,42.4,104.6,40.7,104.9,38.4z"/>
		<path class="st4" d="M86.6,67.5c13.6,0,24.7-11.1,24.7-24.9c0-13.7-11.1-24.9-24.7-24.9c-13.6,0-24.7,11.1-24.7,24.9
			C61.9,56.4,72.9,67.5,86.6,67.5z"/>
		<path class="st5" d="M85.8,64.8c12.7,0,23-10.4,23-23.1c0-12.8-10.3-23.1-23-23.1c-12.7,0-23,10.4-23,23.1
			C62.9,54.4,73.2,64.8,85.8,64.8z"/>
		<path class="st2" d="M84,63.7c12.2,0,22.1-10,22.1-22.3c0-12.3-9.9-22.3-22.1-22.3c-12.2,0-22.1,10-22.1,22.3
			C61.9,53.7,71.8,63.7,84,63.7z"/>
		<path class="st6" d="M137.3,40.4c0.5,0.9,0.7,1.9,0.6,2.9c-0.2,1.7-1,3-2.2,3.9c-1.2,0.9-2.9,1.4-5,1.4h-10.1l2.6-19.4L124,28
			c2,0,12.5,1.7,13.5,2.5c1,0.9,1.4,2.1,1.2,3.8c-0.1,1.1-0.6,2.1-1.3,2.9c-0.7,0.8-1.6,1.3-2.6,1.5C136,39,136.8,39.5,137.3,40.4z
			 M128.2,36.8h2.3c0.5,0,1-0.1,1.3-0.3c0.2-0.1,0.3-0.3,0.4-0.5c0.1-0.2,0.1-0.4,0.2-0.6c0.1-0.5,0-0.8-0.3-1
			c-0.2-0.2-0.6-0.3-1.2-0.3h-2.3L128.2,36.8z M131.3,43.5c0.3-0.2,0.5-0.6,0.5-1c0.1-0.9-0.3-1.4-1.4-1.4h-2.8l-0.4,2.7h2.8
			C130.6,43.8,131,43.7,131.3,43.5L131.3,43.5z"/>
		<path class="st6" d="M147.2,34.1l-0.3,2.4l6.2,3.3l-0.8,1.3h-6l-0.4,2.7l7,3.6l-0.8,1.3h-12.9l2.6-19.4l0.8-1.3l12.2,4.8l-0.8,1.3
			H147.2z"/>
		<path class="st6" d="M172.3,32.8l-0.8,1.3h-5.1l-1.2,13.4l-0.8,1.3h-6l2-14.6h-5.1l0.7-4.8l0.8-1.3L172.3,32.8z"/>
		<path class="st7" d="M138.2,39c0.5,0.9,0.7,1.9,0.6,3c-0.2,1.7-1,3-2.2,3.9c-1.2,0.9-2.9,1.4-5,1.4h-10.1l2.6-19.4h9.8
			c2,0,3.4,0.4,4.5,1.3c1,0.9,1.4,2.1,1.2,3.8c-0.1,1.1-0.6,2.1-1.3,2.9c-0.7,0.8-1.6,1.3-2.6,1.6C136.8,37.5,137.7,38.1,138.2,39z
			 M129.1,35.4h2.3c0.5,0,1-0.1,1.3-0.3c0.2-0.1,0.3-0.3,0.4-0.5c0.1-0.2,0.1-0.4,0.2-0.6c0.1-0.5,0-0.8-0.3-1
			c-0.2-0.2-0.6-0.3-1.2-0.3h-2.3L129.1,35.4z M132.2,42c0.3-0.2,0.5-0.6,0.5-1c0.1-0.9-0.3-1.4-1.4-1.4h-2.8l-0.4,2.7h2.8
			C131.5,42.3,131.9,42.2,132.2,42L132.2,42z"/>
		<path class="st7" d="M148.1,32.6l-0.3,2.4h6l-0.6,4.6h-6l-0.4,2.7h6.8l-0.7,4.9h-12.9l2.6-19.4h12.9l-0.7,4.8H148.1z"/>
		<path class="st7" d="M173,27.8l-0.7,4.8h-5.1l-2,14.6h-6l2-14.6h-5.1l0.7-4.8H173z"/>
		<path class="st8" d="M138.1,39.1c0.5,0.9,0.7,1.9,0.6,3c-0.2,1.7-1,3-2.2,3.9c-1.2,0.9-2.9,1.4-5,1.4h-10.1L124,28h9.8
			c2,0,3.5,0.4,4.5,1.3c1,0.9,1.4,2.1,1.2,3.8c-0.1,1.1-0.6,2.1-1.3,2.9c-0.7,0.8-1.6,1.3-2.6,1.5C136.8,37.7,137.6,38.3,138.1,39.1
			z M129,35.6h2.3c0.5,0,1-0.1,1.3-0.3c0.2-0.1,0.3-0.3,0.4-0.5c0.1-0.2,0.1-0.4,0.2-0.6c0.1-0.5,0-0.8-0.3-1.1
			c-0.2-0.2-0.6-0.3-1.2-0.3h-2.3L129,35.6z M132.1,42.2c0.3-0.2,0.5-0.6,0.5-1c0.1-0.9-0.3-1.4-1.4-1.4h-2.8l-0.4,2.7h2.8
			C131.4,42.5,131.8,42.4,132.1,42.2L132.1,42.2z"/>
		<path class="st8" d="M148,32.8l-0.3,2.4h6l-0.6,4.6h-6l-0.4,2.7h6.8l-0.7,4.9H140l2.6-19.4h12.9l-0.7,4.8H148z"/>
		<path class="st8" d="M173,28l-0.7,4.8h-5.1l-2,14.6h-6l2-14.6h-5.1l0.7-4.8H173z"/>
		<path class="st9" d="M100.2,49.1c-1-0.1-1.9-0.3-2.8-0.5c-2.2,3.6-5.3,6.7-8.9,8.8c-3.7,2.1-7.8,3.3-12.1,3.3
			c-13.7,0.2-25.1-11-25.2-24.8C51,22,62.1,10.6,75.8,10.5c3.7,0,7.4,0.8,10.8,2.4c3.4,1.6,6.4,3.9,8.7,6.9c1.1-0.2,2.2-0.4,3.3-0.5
			c-2.6-3.7-6.1-6.6-10-8.7c-4-2-8.4-3.1-12.9-3C60.4,7.7,48,20.4,48.2,35.9c0.2,15.5,12.8,27.9,28.2,27.7c4.9-0.1,9.7-1.4,14-4
			c4.2-2.5,7.7-6.2,10.1-10.5C100.4,49.1,100.3,49.1,100.2,49.1z"/>
		<path class="st10" d="M48.9,45c0.7-0.6,1.5-1.3,2.2-1.8c-1.3-4.1-1.5-8.4-0.7-12.6c0.8-4.2,2.7-8.1,5.4-11.3
			C64.8,8.8,80.5,7.5,91,16.5c10.5,9,11.7,24.9,2.8,35.4c-2.4,2.9-5.5,5.2-8.9,6.7c-3.4,1.5-7.2,2.2-10.9,2.1
			c-0.6,1-1.2,1.9-1.8,2.9c4.4,0.4,8.9-0.2,13.1-1.9c4.1-1.7,7.8-4.4,10.7-7.8c10-11.8,8.6-29.6-3.1-39.6
			c-11.7-10-29.3-8.6-39.3,3.2c-3.2,3.8-5.3,8.3-6.2,13.2c-0.9,4.9-0.4,9.9,1.2,14.6C48.7,45.1,48.8,45.1,48.9,45z"/>
		<g class="st1">
			<path class="st11" d="M71.5,38.5c2.5-2.1,3.9-4.1,4.1-6c0.2-1.6-0.2-2.4-1.1-2.5c-0.6-0.1-1,0.1-1.3,0.7c-0.3,0.5-0.6,1.5-0.8,3
				l-9-1.1c0.5-2.9,1.4-5.2,2.7-6.9c1.3-1.7,2.9-2.9,4.7-3.6c1.8-0.7,3.8-0.9,5.7-0.6c3.5,0.5,6,1.7,7.3,3.9
				c1.4,2.1,1.9,4.6,1.5,7.4c-0.4,3-1.7,5.6-3.8,8c-2.2,2.4-4.8,4.4-7.6,5.9l9.6,1.2l-1.2,8.3l-21.7-2.8l1.1-7.8
				C65.8,43,69.1,40.6,71.5,38.5z"/>
			<path class="st11" d="M86.8,40c0.7-5.1,2.3-9,4.8-11.8c2.5-2.7,5.9-3.9,10.1-3.3c4.3,0.5,7.2,2.5,8.9,5.8
				c1.6,3.3,2.1,7.5,1.4,12.5c-0.7,5.1-2.3,9-4.8,11.8c-2.5,2.8-5.9,3.9-10.1,3.3c-4.3-0.5-7.2-2.5-8.9-5.8
				C86.6,49.3,86.1,45.1,86.8,40z M102.9,42c0.3-2.2,0.3-3.9,0.1-5.2c-0.3-1.3-1.1-2-2.5-2.1c-1.4-0.2-2.4,0.3-3,1.4
				c-0.6,1.1-1.1,2.8-1.4,5c-0.3,2.2-0.3,3.9-0.1,5.2c0.3,1.3,1.1,2,2.5,2.2c1.4,0.2,2.4-0.3,3-1.5S102.6,44.2,102.9,42z"/>
		</g>
		<path class="st12" d="M72.2,36.8c2.6-2.3,4-4.4,4.2-6.2c0.2-1.5-0.2-2.2-1.3-2.2c-0.3,0-0.6,0.1-0.8,0.2c-0.2,0.1-0.4,0.3-0.6,0.6
			c-0.3,0.5-0.6,1.5-0.8,2.9h-9.6c0.5-2.8,1.4-5.1,2.7-6.9c1.3-1.7,2.9-3.1,4.9-3.9c1.9-0.8,4-1.3,6-1.3c3.7,0,6.3,0.9,7.8,2.8
			c1.5,1.9,2,4.1,1.7,6.8c-0.4,2.8-1.7,5.5-3.9,8c-2.3,2.6-5,4.8-8,6.5H85l-1.1,8h-23l1-7.5C66.2,41.8,69.6,39.1,72.2,36.8z"/>
		<path class="st12" d="M88.4,36.4c0.7-4.9,2.3-8.8,4.9-11.7s6.1-4.4,10.6-4.3c4.5,0,7.7,1.5,9.5,4.4c1.8,2.9,2.4,6.8,1.7,11.7
			c-0.7,4.9-2.3,8.8-4.9,11.7c-2.6,2.9-6.1,4.4-10.6,4.4c-4.5,0-7.7-1.5-9.5-4.4C88.3,45.2,87.7,41.3,88.4,36.4z M105.3,36.4
			c0.3-2.1,0.3-3.8,0-4.9c-0.3-1.2-1.2-1.7-2.7-1.7c-1.5,0-2.5,0.6-3.2,1.7c-0.6,1.1-1.1,2.8-1.4,4.9c-0.3,2.1-0.3,3.8,0,4.9
			c0.3,1.2,1.2,1.7,2.7,1.7c1.5,0,2.5-0.6,3.1-1.7C104.6,40.1,105,38.5,105.3,36.4L105.3,36.4z"/>
		
			<linearGradient id="SVGID_00000119101642762305167350000017948913720263738283_" gradientUnits="userSpaceOnUse" x1="68.9928" y1="19.9751" x2="81.0885" y2="53.2248" gradientTransform="matrix(1 0 0 -1 0 75)">
			<stop  offset="0" style="stop-color:#DBDBDB"/>
			<stop  offset="1" style="stop-color:#FFFFFF"/>
		</linearGradient>
		<path style="fill:url(#SVGID_00000119101642762305167350000017948913720263738283_);" d="M72.2,37.4c2.6-2.3,4-4.4,4.2-6.2
			c0.2-1.5-0.2-2.2-1.3-2.2c-0.3,0-0.6,0.1-0.8,0.2c-0.2,0.1-0.4,0.3-0.6,0.6c-0.3,0.5-0.6,1.5-0.8,2.9h-9.6
			c0.5-2.8,1.4-5.1,2.7-6.9c1.3-1.7,2.9-3.1,4.9-3.9c1.9-0.8,4-1.3,6-1.2c3.7,0,6.3,0.9,7.8,2.8c1.5,1.9,2,4.1,1.7,6.8
			c-0.4,2.8-1.7,5.5-3.9,8c-2.3,2.6-5,4.8-8,6.5h10.2l-1.1,8h-23l1-7.5C66.2,42.3,69.6,39.7,72.2,37.4z"/>
		
			<linearGradient id="SVGID_00000017510524028104887960000014906400391448440449_" gradientUnits="userSpaceOnUse" x1="96.1874" y1="20.7501" x2="109.1572" y2="61.4414" gradientTransform="matrix(1 0 0 -1 0 75)">
			<stop  offset="0" style="stop-color:#DBDBDB"/>
			<stop  offset="1" style="stop-color:#FFFFFF"/>
		</linearGradient>
		<path style="fill:url(#SVGID_00000017510524028104887960000014906400391448440449_);" d="M88.4,36.9c0.7-4.9,2.3-8.8,4.9-11.7
			c2.6-2.9,6.1-4.4,10.6-4.3c4.5,0,7.7,1.5,9.5,4.4c1.8,2.9,2.4,6.8,1.7,11.7c-0.7,4.9-2.3,8.8-4.9,11.7c-2.6,2.9-6.1,4.4-10.6,4.4
			c-4.5,0-7.7-1.5-9.5-4.4C88.3,45.7,87.7,41.8,88.4,36.9z M105.3,36.9c0.3-2.1,0.3-3.8,0-4.9c-0.3-1.2-1.2-1.7-2.7-1.7
			c-1.5,0-2.5,0.6-3.2,1.7c-0.6,1.1-1.1,2.8-1.4,4.9c-0.3,2.1-0.3,3.8,0,4.9c0.3,1.2,1.2,1.7,2.7,1.7c1.5,0,2.5-0.6,3.1-1.7
			C104.6,40.7,105,39.1,105.3,36.9L105.3,36.9z"/>
	</g>
</g>
</svg>
