<?xml version="1.0" encoding="utf-8"?>
<!-- Generator: Adobe Illustrator 26.3.1, SVG Export Plug-In . SVG Version: 6.00 Build 0)  -->
<svg version="1.1" id="Шар_1" xmlns="http://www.w3.org/2000/svg" xmlns:xlink="http://www.w3.org/1999/xlink" x="0px" y="0px"
	 viewBox="0 0 220 75" style="enable-background:new 0 0 220 75;" xml:space="preserve">
<style type="text/css">
	.st0{clip-path:url(#SVGID_00000170972867277066462760000012958134974257015437_);}
	.st1{fill:#075D63;}
	.st2{fill-rule:evenodd;clip-rule:evenodd;fill:#C72929;}
	.st3{fill:#F04C4D;}
	.st4{fill-rule:evenodd;clip-rule:evenodd;fill:#045C63;}
	.st5{fill:#0A8F9B;}
</style>
<g>
	<defs>
		<rect id="SVGID_1_" x="34.4" y="5" width="151.1" height="65"/>
	</defs>
	<clipPath id="SVGID_00000110456787307210409620000010886988089424436114_">
		<use xlink:href="#SVGID_1_"  style="overflow:visible;"/>
	</clipPath>
	<g style="clip-path:url(#SVGID_00000110456787307210409620000010886988089424436114_);">
		<path class="st1" d="M112.6,45.3v-24h15.9c0.8,0,1.5,0.1,2.2,0.4c0.7,0.3,1.3,0.6,1.9,1.1c0.5,0.5,1,1,1.3,1.7
			c0.3,0.7,0.5,1.4,0.5,2.2v4.5c0,0.8-0.2,1.6-0.6,2.2c0.4,0.7,0.6,1.5,0.6,2.2V40c0,0.8-0.2,1.5-0.5,2.2c-0.3,0.6-0.8,1.2-1.3,1.7
			c-0.6,0.5-1.2,0.8-1.9,1.1c-0.7,0.3-1.5,0.4-2.2,0.4L112.6,45.3z M127,27.6h-7.4v2.8h7.4c0,0,0.1,0,0.1,0c0,0,0.1,0,0.1-0.1
			c0,0,0-0.1,0.1-0.1c0,0,0-0.1,0-0.1v-2.2c0,0,0-0.1,0-0.1c0,0,0-0.1-0.1-0.1c0,0-0.1,0-0.1-0.1C127.1,27.6,127.1,27.6,127,27.6
			L127,27.6z M127.2,36.4h-7.5v2.8h7.5c0,0,0.1,0,0.1,0c0,0,0.1,0,0.1-0.1c0,0,0-0.1,0.1-0.1c0,0,0-0.1,0-0.1v-2.3c0,0,0-0.1,0-0.1
			c0,0,0-0.1-0.1-0.1C127.4,36.5,127.3,36.5,127.2,36.4C127.3,36.4,127.2,36.4,127.2,36.4L127.2,36.4z"/>
		<path class="st1" d="M143.4,27.7V30c0,0.2,0,0.3,0.3,0.3h9.8c-0.2,0.9-0.4,1.8-0.8,2.7c-0.3,0.8-0.7,1.5-1.3,2
			c-0.6,0.6-1.3,1-2.1,1.2c-0.9,0.3-1.9,0.4-2.8,0.4c-0.5,0-1,0-1.5,0h-1.5c-0.2,0-0.3,0.1-0.3,0.3v2.2c0,0.2,0,0.3,0.3,0.3h14.7
			c-0.1,0.8-0.4,1.6-0.6,2.3c-0.3,0.7-0.6,1.4-1.1,2c-0.5,0.6-1.1,1-1.8,1.3c-0.8,0.3-1.7,0.5-2.5,0.5h-15.8V27
			c0-0.8,0.2-1.5,0.5-2.2c0.3-0.6,0.8-1.2,1.3-1.7c0.6-0.5,1.2-0.8,1.9-1.1c0.7-0.4,1.5-0.7,2.3-0.8h16c-0.1,0.8-0.4,1.6-0.6,2.4
			c-0.3,0.7-0.6,1.4-1.1,2c-0.5,0.6-1.1,1-1.8,1.3c-0.8,0.4-1.6,0.5-2.5,0.5l-8.6-0.1C143.5,27.5,143.4,27.6,143.4,27.7z"/>
		<path class="st1" d="M168.5,27.8c0-0.2,0-0.3-0.3-0.3h-9.8c0.2-0.8,0.4-1.6,0.7-2.4c0.2-0.7,0.6-1.3,1-1.9c0.5-0.6,1.1-1,1.8-1.3
			c0.8-0.4,1.7-0.6,2.6-0.6h21c-0.1,0.8-0.3,1.6-0.6,2.4c-0.3,0.7-0.7,1.4-1.2,2c-0.5,0.6-1.1,1-1.8,1.3c-0.8,0.3-1.6,0.5-2.5,0.5
			h-3.7c0,0-0.1,0-0.1,0c0,0-0.1,0-0.1,0.1c0,0,0,0.1-0.1,0.1c0,0,0,0.1,0,0.1v12.3c0,0.9-0.2,1.7-0.6,2.4c-0.4,0.7-1,1.2-1.6,1.6
			c-0.7,0.4-1.4,0.7-2.2,0.9c-0.8,0.2-1.6,0.3-2.5,0.4L168.5,27.8z"/>
		<path class="st2" d="M64.4,40.8c3.2-1.4,6.3-3,9.3-4.8c2.4-1.5,4.5-3.4,6.2-5.7c1.7-2.2,2.7-4.9,2.9-7.7c0.3-2.9-0.4-5.9-1.9-8.5
			c-1.5-2.5-3.6-4.6-6.2-6c-2.6-1.5-5.6-2.5-8.6-2.9C64.7,5,63.3,4.9,61.8,5h-0.1l-8.9,0.8L48,12.3v1.6c-0.3,0.6-0.5,1.2-0.7,1.8
			l0.8,0.4l0.2,5.3l8.9-1.2c1.5-4.3,4.1-6.1,7.1-5.5c0.7,0.1,1.3,0.3,1.9,0.6c0.6,0.4,1.1,0.8,1.4,1.4c0.7,1.2,1,2.7,0.9,4.1
			c-0.3,2.3-1.4,4.5-3.1,6.1c-2.1,2.3-4.4,4.3-6.9,6.1c-2.6,1.9-5.3,3.7-8.1,5.3l-5.9,3.5l-0.6,8l35.5,11.4L80.1,50l-21.9-6.2v-0.1
			C58.7,43.4,60.7,42.5,64.4,40.8z"/>
		<path class="st3" d="M70.3,62.8l0.8-11.3l-22.2-6.3V45l6.2-2.9c3.2-1.4,6.4-3,9.4-4.9c2.5-1.5,4.7-3.4,6.5-5.7
			c1.7-2.3,2.8-5,2.9-7.9c0.3-3-0.4-6-1.9-8.6c-1.5-2.5-3.6-4.6-6.2-6C63,7.5,60.1,6.5,57,6c-2.8-0.5-5.8-0.3-8.5,0.4
			c-2.5,0.7-4.7,2-6.5,3.7c-1.8,1.8-3.2,4-4,6.4l10.4,4.8c1.5-4.4,3.8-6.3,6.7-5.8c0.7,0.1,1.3,0.3,1.9,0.7c0.6,0.4,1.1,0.9,1.4,1.5
			c0.7,1.2,1,2.7,0.9,4.1c-0.3,2.3-1.4,4.5-3.1,6.1c-2.1,2.3-4.4,4.3-6.9,6.1c-2.7,1.9-5.4,3.7-8.2,5.4l-5.9,3.6l-0.6,8.2L70.3,62.8
			z"/>
		<path class="st4" d="M91.3,39.9l5.6-18.1l-2.8-7.1L91.7,15c-0.1-1.3-0.4-2.6-0.9-3.8l4.3-3.4L83.9,6.3c-1.9-0.3-3.8-0.2-5.7,0.2
			c-2.8,0.5-5.5,1.6-7.9,3.2c-2.6,1.7-4.8,3.9-6.6,6.4c-1.9,2.7-3.3,5.7-4.1,8.9l0,0l9.8,2.7L81,18.8c0.1,0.5,0.1,1,0.1,1.4
			c-0.2,2.5-1,4.9-2.2,7c-1.7,3.3-3.6,6.4-5.8,9.5c-2.4,3.5-5.1,7-7.9,10.7l-6.6,8.4V65l9.8,5L103,43.5L91.3,39.9z"/>
		<path class="st5" d="M103,53.3v-9.9l-18.6,7.9v-0.2l5.7-7c3.2-3.9,5.7-7.1,7.5-9.8c1.7-2.5,3.1-5.1,4.2-7.9
			c1.1-2.5,1.6-5.1,1.6-7.8c0.1-2.4-0.5-4.8-1.7-6.8c-1.1-1.7-2.9-3-4.9-3.5c-2.5-0.6-5.1-0.7-7.6-0.1c-3,0.6-5.8,1.7-8.3,3.4
			c-2.7,1.8-5.1,4.1-7,6.8c-2.1,2.8-3.5,6-4.4,9.4l12.4-0.4c1.3-5.3,3.4-8.3,6.2-9c0.5-0.2,1.1-0.3,1.7-0.1c0.6,0.1,1.1,0.4,1.5,0.9
			c0.7,1,1.1,2.3,1,3.6c-0.2,2.6-1,5.1-2.3,7.4c-1.8,3.5-3.9,6.8-6.2,10c-2.6,3.7-5.4,7.4-8.4,11.3l-6.8,8.8v9.8L103,53.3z"/>
	</g>
</g>
</svg>
