<?xml version="1.0" encoding="UTF-8" standalone="no"?>
<svg
   id="svg"
   version="1.1"
   width="229"
   height="75"
   viewBox="0 0 229 74.999998"
   xmlns="http://www.w3.org/2000/svg"
   xmlns:svg="http://www.w3.org/2000/svg">
  <defs
     id="defs1" />
  <g
     id="g1"
     transform="matrix(0.325,0,0,0.325,49.5,-1.6083875)">
    <g
       id="svgg">
      <path
         id="path0"
         d="M 135.157,33.12 C 130.533,38.136 123.15,46.145 118.75,50.917 107.971,62.608 90.55,81.512 84.425,88.163 79.016,94.035 75.767,97.558 74.428,99 c -0.468,0.504 -2.123,2.304 -3.677,4 -1.555,1.696 -3.247,3.533 -3.76,4.083 -0.514,0.55 -1.447,1.563 -2.074,2.25 -0.627,0.688 -1.597,1.738 -2.156,2.334 -0.558,0.596 -2.289,2.471 -3.845,4.166 -1.556,1.696 -3.142,3.421 -3.524,3.834 -0.383,0.412 -2.041,2.212 -3.686,4 l -2.989,3.25 29.266,0.084 29.267,0.084 1.718,0.381 c 26.136,5.788 30.652,40.497 6.782,52.12 -6.261,3.049 -3.8,2.916 -53.833,2.913 l -40.5,-0.002 -0.043,17.085 -0.042,17.085 h 42.467 c 43.654,0 44.611,-0.013 49.149,-0.674 20.625,-3.005 38.95,-16.351 47.761,-34.785 0.449,-0.939 0.839,-1.708 0.866,-1.708 0.027,0 0.597,0.919 1.267,2.042 15.653,26.224 45.957,39.293 80.075,34.532 17.597,-2.455 33.946,-11.482 45.288,-25.004 l 1.269,-1.513 -10.349,-9.153 c -5.692,-5.035 -10.432,-9.229 -10.533,-9.321 -1.587,-1.441 -2.92,-2.583 -3.014,-2.583 -0.065,0 -0.84,0.627 -1.723,1.393 -11.079,9.614 -21.09,13.612 -34.065,13.605 -17.45,-0.009 -29.813,-8.482 -34.771,-23.831 -0.752,-2.326 -1.37,-4.883 -1.218,-5.035 0.073,-0.073 22.779,-0.114 50.458,-0.091 l 50.324,0.042 0.103,12.167 c 0.062,7.355 0.178,12.793 0.292,13.75 0.918,7.677 2.154,12.268 4.64,17.232 6.578,13.134 17.835,18.671 37.965,18.676 12.845,0.003 21.99,-2.249 32.207,-7.931 l 0.707,-0.394 0.002,-16.708 c 0,-9.19 -0.031,-16.708 -0.07,-16.708 -0.038,0 -0.623,0.298 -1.298,0.662 -7.464,4.026 -18.419,5.813 -24.45,3.988 -4.353,-1.316 -7.045,-4.578 -7.923,-9.598 -0.226,-1.29 -0.257,-5.479 -0.257,-34.427 L 336.5,102.333 h 4.912 4.911 l 5.214,-5.799 c 2.867,-3.189 8.776,-9.767 13.13,-14.617 4.354,-4.851 9.199,-10.247 10.767,-11.993 L 378.284,66.75 357.392,66.708 336.5,66.665 V 45.333 24 h -20.917 -20.916 l -0.011,48.542 -0.01,48.541 -0.893,-3.5 C 287.772,94.13 274.111,77.359 254.07,68.864 240.593,63.152 221.424,61.979 206.083,65.928 182.78,71.927 164.455,89.682 156.259,114.203 l -0.876,2.62 -1.598,-2.057 c -6.648,-8.56 -15.714,-15.478 -25.577,-19.516 -0.848,-0.347 -1.541,-0.696 -1.541,-0.775 0,-0.08 2.222,-2.675 4.938,-5.768 2.715,-3.093 6.977,-7.949 9.47,-10.79 2.493,-2.842 5.949,-6.78 7.68,-8.75 1.731,-1.971 4.724,-5.384 6.65,-7.584 1.927,-2.2 3.545,-4.037 3.595,-4.083 0.051,-0.046 0.484,-0.539 0.963,-1.096 l 0.87,-1.013 V 39.695 24 h -8.634 -8.635 l -8.407,9.12 m 94.926,64.309 c 9.784,1.389 17.012,6.907 21.926,16.738 1.91,3.822 4.158,11.405 4.158,14.029 0,0.293 -1.127,0.304 -31.519,0.304 h -31.519 l 0.113,-0.792 c 0.063,-0.435 0.18,-1.054 0.261,-1.375 0.081,-0.32 0.309,-1.258 0.505,-2.083 3.685,-15.448 13.544,-25.398 26.659,-26.906 3.233,-0.371 6.403,-0.343 9.416,0.085"
         stroke="none"
         fill="#2c3c3c"
         fill-rule="evenodd" />
      <path
         id="path1"
         d="M 0,120.333 V 240.667 H 200 400 V 120.333 0 H 200 0 V 120.333 M 125.333,23.96 c 0,0.07 -7.313,7.832 -16.253,17.25 L 92.827,58.333 H 57.08 21.333 v -17.25 -17.25 h 52 c 28.6,0 52,0.057 52,0.127 m 35.5,15.72 v 15.846 l -3.042,3.445 c -1.674,1.895 -5.405,6.14 -8.292,9.434 -2.887,3.293 -9.204,10.493 -14.039,16 -4.834,5.506 -8.79,10.05 -8.791,10.096 -10e-4,0.046 0.466,0.262 1.039,0.48 9.686,3.683 20.558,12.021 26.642,20.43 0.495,0.684 0.937,1.245 0.983,1.246 0.046,0.002 0.481,-1.214 0.966,-2.702 11.878,-36.431 46.378,-56.291 85.034,-48.951 26.316,4.997 46.156,25.202 52.775,53.746 0.304,1.311 0.31,0.544 0.392,-46.75 l 0.083,-48.083 20.959,-0.043 20.958,-0.042 v 21.417 21.416 l 20.928,0.043 20.928,0.042 -6.886,7.676 c -3.788,4.222 -11.008,12.266 -16.046,17.875 l -9.159,10.199 h -4.882 -4.883 v 32.375 c 10e-4,34.099 10e-4,34.107 0.77,36.76 1.668,5.76 5.664,8.268 13.147,8.253 7.162,-0.015 12.353,-1.395 20.125,-5.352 0.068,-0.035 0.125,7.506 0.125,16.758 v 16.823 l -2.792,1.429 c -13.662,6.994 -30.083,8.941 -45.875,5.439 -14.958,-3.318 -24.307,-14.286 -26.662,-31.281 -0.604,-4.355 -0.698,-6.468 -0.79,-17.746 l -0.092,-11.291 h -50.381 -50.38 l 0.552,2.125 c 4.729,18.181 18.654,27.759 38.623,26.566 11.616,-0.694 19.784,-4.194 30.361,-13.012 1.273,-1.061 2.35,-1.92 2.394,-1.909 0.085,0.022 1.629,1.374 6.449,5.648 1.655,1.468 6.211,5.499 10.123,8.957 3.913,3.458 7.156,6.355 7.207,6.437 0.295,0.478 -6.38,7.401 -10.238,10.618 -12.166,10.141 -26.039,15.542 -42.999,16.74 -31.439,2.22 -58.411,-10.629 -73.096,-34.82 l -1.512,-2.491 -0.72,1.528 c -8.44,17.922 -26.387,31.386 -46.339,34.763 -5.185,0.878 -3.306,0.846 -49.875,0.848 l -43.292,0.002 v -17.164 -17.164 l 42.875,-0.047 42.875,-0.046 1.667,-0.366 c 11.881,-2.608 20.067,-10.926 22.185,-22.547 2.546,-13.963 -6.91,-28.326 -20.749,-31.519 -3.181,-0.734 -1.819,-0.7 -32.498,-0.802 L 48.625,126.917 56.841,118 c 4.518,-4.904 13.436,-14.579 19.817,-21.5 6.381,-6.921 18.271,-19.821 26.422,-28.667 8.151,-8.846 16.136,-17.509 17.745,-19.252 1.609,-1.742 4.613,-5.004 6.675,-7.247 2.063,-2.243 4.313,-4.68 5.001,-5.415 2.837,-3.03 10.598,-11.494 10.8,-11.779 0.207,-0.291 0.657,-0.307 8.875,-0.307 h 8.657 V 39.68 m 60.166,57.653 c -13.978,1.611 -23.824,12.021 -27.403,28.973 -0.236,1.118 -0.429,2.069 -0.429,2.113 0,0.045 14.181,0.081 31.514,0.081 h 31.515 l -0.111,-0.708 C 252.799,106.82 239.424,95.21 220.999,97.333"
         stroke="none"
         fill="#fbfbfb"
         fill-rule="evenodd" />
      <path
         id="path2"
         d="m 21.333,41.083 v 17.25 H 57.08 92.827 L 109.08,41.21 c 8.94,-9.418 16.253,-17.18 16.253,-17.25 0,-0.07 -23.4,-0.127 -52,-0.127 h -52 v 17.25 M 143.312,24.125 c -0.202,0.258 -0.198,0.268 0.037,0.085 0.201,-0.157 2.339,-0.218 8.916,-0.252 l 8.652,-0.044 -8.688,-0.041 c -8.104,-0.037 -8.704,-0.02 -8.917,0.252 m 151.282,-0.142 c -0.116,0.187 -0.128,96.872 -0.012,96.988 0.046,0.046 0.085,-21.753 0.085,-48.443 V 24.001 l 20.958,-0.043 20.958,-0.043 -20.948,-0.041 c -12.223,-0.024 -20.987,0.022 -21.041,0.109 m -152.854,1.892 -0.49,0.542 0.542,-0.49 c 0.298,-0.269 0.541,-0.513 0.541,-0.542 0,-0.128 -0.137,-0.015 -0.593,0.49 m -3.916,4.25 -0.574,0.625 0.625,-0.574 c 0.582,-0.535 0.702,-0.676 0.574,-0.676 -0.027,0 -0.309,0.281 -0.625,0.625 m -1.918,2.083 -0.489,0.542 0.541,-0.49 c 0.298,-0.269 0.542,-0.512 0.542,-0.541 0,-0.129 -0.138,-0.016 -0.594,0.489 m -4.082,4.417 -0.574,0.625 0.625,-0.574 c 0.582,-0.535 0.702,-0.676 0.574,-0.676 -0.027,0 -0.309,0.281 -0.625,0.625 m -5.833,6.333 -0.574,0.625 0.625,-0.574 c 0.581,-0.535 0.701,-0.676 0.574,-0.676 -0.028,0 -0.309,0.282 -0.625,0.625 m -1.918,2.084 -0.49,0.541 0.542,-0.489 c 0.298,-0.269 0.542,-0.513 0.542,-0.542 0,-0.129 -0.138,-0.015 -0.594,0.49 m -4,4.333 -0.49,0.542 0.542,-0.49 c 0.298,-0.269 0.542,-0.513 0.542,-0.542 0,-0.128 -0.138,-0.015 -0.594,0.49 m -1.833,2 -0.49,0.542 0.542,-0.49 c 0.298,-0.269 0.541,-0.513 0.541,-0.542 0,-0.128 -0.137,-0.015 -0.593,0.49 m -4,4.333 -0.49,0.542 0.542,-0.49 c 0.298,-0.269 0.541,-0.512 0.541,-0.541 0,-0.129 -0.137,-0.016 -0.593,0.489 m -5.834,6.334 -0.489,0.541 0.541,-0.489 c 0.298,-0.269 0.542,-0.513 0.542,-0.542 0,-0.129 -0.138,-0.015 -0.594,0.49 m 114.886,1.582 c 1.031,0.03 2.718,0.03 3.75,0 1.031,-0.029 0.187,-0.053 -1.875,-0.053 -2.063,0 -2.907,0.024 -1.875,0.053 m -116.886,0.584 -0.489,0.542 0.541,-0.49 c 0.298,-0.269 0.542,-0.512 0.542,-0.541 0,-0.129 -0.138,-0.016 -0.594,0.489 m 124.469,-0.426 c 0.16,0.041 0.423,0.041 0.583,0 0.161,-0.042 0.029,-0.077 -0.291,-0.077 -0.321,0 -0.452,0.035 -0.292,0.077 m -130.302,6.76 -0.49,0.541 0.542,-0.489 c 0.298,-0.269 0.542,-0.513 0.542,-0.542 0,-0.129 -0.138,-0.015 -0.594,0.49 m -4,4.333 -0.49,0.542 0.542,-0.49 c 0.298,-0.269 0.542,-0.513 0.542,-0.542 0,-0.128 -0.138,-0.015 -0.594,0.49 m -2,2.167 -0.49,0.541 0.542,-0.489 c 0.298,-0.269 0.542,-0.513 0.542,-0.542 0,-0.129 -0.138,-0.015 -0.594,0.49 m 82.5,4.5 -0.49,0.541 0.542,-0.489 c 0.298,-0.269 0.542,-0.513 0.542,-0.542 0,-0.129 -0.138,-0.015 -0.594,0.49 m 187.167,0.833 -0.49,0.542 0.542,-0.49 c 0.505,-0.456 0.618,-0.594 0.489,-0.594 -0.029,0 -0.272,0.244 -0.541,0.542 m -275.5,1 -0.49,0.542 0.542,-0.49 c 0.298,-0.269 0.541,-0.513 0.541,-0.542 0,-0.128 -0.137,-0.015 -0.593,0.49 m 85.588,0.75 -0.911,0.958 0.958,-0.911 c 0.527,-0.501 0.958,-0.932 0.958,-0.958 0,-0.124 -0.159,0.021 -1.005,0.911 m 102.005,0.26 c 0,0.029 0.244,0.273 0.542,0.542 l 0.542,0.49 -0.49,-0.542 c -0.456,-0.505 -0.594,-0.618 -0.594,-0.49 m -193.427,5.323 -0.489,0.542 0.541,-0.49 c 0.505,-0.456 0.619,-0.593 0.49,-0.593 -0.029,0 -0.273,0.243 -0.542,0.541 m -4,4.334 -0.489,0.541 0.541,-0.489 c 0.505,-0.456 0.619,-0.594 0.49,-0.594 -0.029,0 -0.273,0.244 -0.542,0.542 m -1.915,2.083 -0.574,0.625 0.625,-0.574 c 0.581,-0.535 0.701,-0.676 0.574,-0.676 -0.028,0 -0.309,0.281 -0.625,0.625 m 147.472,0.997 c 0.392,0.035 0.992,0.035 1.333,-0.001 0.341,-0.036 0.021,-0.064 -0.713,-0.064 -0.733,0.001 -1.012,0.03 -0.62,0.065 m 122.206,4.792 -0.389,0.414 -4.932,0.047 -4.931,0.047 4.927,0.039 4.927,0.039 0.479,-0.5 c 0.263,-0.275 0.441,-0.5 0.394,-0.5 -0.047,0 -0.261,0.186 -0.475,0.414 m -275.596,0.628 -0.49,0.541 0.542,-0.489 c 0.505,-0.456 0.618,-0.594 0.49,-0.594 -0.029,0 -0.273,0.244 -0.542,0.542 m 173.427,1.541 c 0.311,0.321 0.603,0.584 0.649,0.584 0.046,0 -0.171,-0.263 -0.482,-0.584 -0.311,-0.32 -0.603,-0.583 -0.649,-0.583 -0.046,0 0.171,0.263 0.482,0.583 m -175.342,0.542 -0.575,0.625 0.625,-0.574 C 69.79,104.141 69.91,104 69.783,104 c -0.028,0 -0.309,0.281 -0.625,0.625 m 135,0.5 -0.575,0.625 0.625,-0.574 c 0.582,-0.535 0.702,-0.676 0.575,-0.676 -0.028,0 -0.309,0.281 -0.625,0.625 m -139,3.833 -0.575,0.625 0.625,-0.574 c 0.582,-0.535 0.702,-0.676 0.575,-0.676 -0.028,0 -0.309,0.282 -0.625,0.625 m -1.834,2 -0.574,0.625 0.625,-0.574 c 0.582,-0.535 0.702,-0.676 0.574,-0.676 -0.027,0 -0.309,0.282 -0.625,0.625 m -4,4.334 -0.574,0.625 0.625,-0.575 c 0.582,-0.534 0.702,-0.675 0.574,-0.675 -0.027,0 -0.309,0.281 -0.625,0.625 m -1.918,2.083 -0.489,0.542 0.541,-0.49 c 0.505,-0.456 0.619,-0.594 0.49,-0.594 -0.029,0 -0.273,0.244 -0.542,0.542 m -3.915,4.25 -0.574,0.625 0.625,-0.574 c 0.581,-0.535 0.701,-0.676 0.574,-0.676 -0.028,0 -0.309,0.281 -0.625,0.625 m -2,2.167 -0.574,0.625 0.625,-0.575 c 0.581,-0.534 0.701,-0.675 0.574,-0.675 -0.028,0 -0.309,0.281 -0.625,0.625 m -1.833,2 -0.575,0.625 0.625,-0.575 c 0.582,-0.534 0.702,-0.675 0.575,-0.675 -0.028,0 -0.309,0.281 -0.625,0.625 m 194.549,28.833 50.29,0.042 0.045,9.25 0.046,9.25 -0.003,-9.292 -0.002,-9.292 H 244.25 193.917 l 50.29,0.042 m -41.04,18.958 c 0.59,0.596 1.111,1.084 1.157,1.084 0.046,0 -0.4,-0.488 -0.991,-1.084 -0.59,-0.596 -1.111,-1.083 -1.157,-1.083 -0.046,0 0.4,0.487 0.991,1.083 m -80.005,0.709 -1.079,1.125 1.125,-1.079 c 1.045,-1.002 1.202,-1.171 1.079,-1.171 -0.026,0 -0.532,0.506 -1.125,1.125 m 247.297,11.083 c 0.023,5.981 0.061,13.575 0.085,16.875 0.024,3.3 0.061,-1.594 0.083,-10.875 0.022,-9.281 -0.017,-16.875 -0.085,-16.875 -0.069,0 -0.106,4.894 -0.083,10.875 m -75.745,-8.125 c 0.002,0.458 0.034,0.626 0.072,0.373 0.039,-0.254 0.038,-0.629 -0.002,-0.834 -0.04,-0.205 -0.071,0.003 -0.07,0.461 m 57.411,2.701 c 0.206,0.04 0.544,0.04 0.75,0 0.206,-0.04 0.037,-0.072 -0.375,-0.072 -0.413,0 -0.581,0.032 -0.375,0.072 m -309.987,2.507 c 11.306,0.024 29.756,0.024 41,0 11.245,-0.023 1.995,-0.043 -20.555,-0.043 -22.55,0 -31.75,0.02 -20.445,0.043 m 184.404,0.995 c 0.252,0.038 0.664,0.038 0.916,0 0.252,-0.038 0.046,-0.07 -0.458,-0.07 -0.504,0 -0.71,0.032 -0.458,0.07 m 5.666,0 c 0.252,0.038 0.665,0.038 0.917,0 0.252,-0.038 0.046,-0.07 -0.458,-0.07 -0.505,0 -0.711,0.032 -0.459,0.07 m -58.544,12.089 c 0.961,0.985 1.767,1.791 1.791,1.791 0.121,0 -0.083,-0.213 -1.747,-1.836 l -1.791,-1.747 1.747,1.792 m 110.33,0.083 -0.911,0.958 0.959,-0.911 c 0.89,-0.846 1.034,-1.005 0.911,-1.005 -0.026,0 -0.458,0.431 -0.959,0.958 m -133.254,0.25 -0.49,0.542 0.542,-0.49 c 0.298,-0.269 0.541,-0.513 0.541,-0.542 0,-0.128 -0.137,-0.015 -0.593,0.49 m 130.5,2.333 -0.49,0.542 0.542,-0.49 c 0.505,-0.456 0.618,-0.593 0.489,-0.593 -0.029,0 -0.272,0.243 -0.541,0.541 m 24.427,8.209 c 0.498,0.504 0.942,0.916 0.988,0.916 0.046,0 -0.324,-0.412 -0.822,-0.916 -0.498,-0.505 -0.942,-0.917 -0.988,-0.917 -0.046,0 0.324,0.412 0.822,0.917 m 26.541,10.031 c 0.161,0.042 0.423,0.042 0.584,0 0.16,-0.042 0.029,-0.076 -0.292,-0.076 -0.321,0 -0.452,0.034 -0.292,0.076 m 10.167,0 c 0.16,0.042 0.423,0.042 0.583,0 0.161,-0.042 0.03,-0.076 -0.291,-0.076 -0.321,0 -0.452,0.034 -0.292,0.076 m -234.917,0.17 c 0.207,0.039 0.544,0.039 0.75,0 0.207,-0.04 0.038,-0.073 -0.375,-0.073 -0.412,0 -0.581,0.033 -0.375,0.073 m 228.842,0.006 c 0.76,0.031 1.96,0.031 2.666,0 0.706,-0.031 0.084,-0.057 -1.383,-0.057 -1.466,0.001 -2.044,0.026 -1.283,0.057 m -112.173,0.327 c 0.207,0.04 0.507,0.039 0.667,-0.003 0.159,-0.042 -0.011,-0.074 -0.377,-0.073 -0.367,0.002 -0.497,0.036 -0.29,0.076 m 9.665,0 c 0.206,0.04 0.543,0.04 0.75,0 0.206,-0.04 0.037,-0.072 -0.375,-0.072 -0.413,0 -0.582,0.032 -0.375,0.072 m -4.917,0.164 c 0.16,0.042 0.423,0.042 0.583,0 0.161,-0.042 0.029,-0.076 -0.291,-0.076 -0.321,0 -0.452,0.034 -0.292,0.076"
         stroke="none"
         fill="#54a4ab"
         fill-rule="evenodd" />
    </g>
  </g>
</svg>
