<?xml version="1.0" encoding="utf-8"?>
<!-- Generator: Adobe Illustrator 27.7.0, SVG Export Plug-In . SVG Version: 6.00 Build 0)  -->
<svg version="1.1" id="Шар_1" xmlns="http://www.w3.org/2000/svg" xmlns:xlink="http://www.w3.org/1999/xlink" x="0px" y="0px"
	 viewBox="0 0 220 75" style="enable-background:new 0 0 220 75;" xml:space="preserve">
<style type="text/css">
	.st0{fill:#CC1517;}
	.st1{fill:#010202;}
</style>
<g>
	<g>
		<path class="st0" d="M43,30c0.7-0.5,1.5-0.9,2.2-1.2c0,0-0.1-0.1-0.1-0.1c-0.1,0-0.2-0.1-0.3-0.1c-1.1-0.5-2.1-1.2-2.9-2.1
			c-0.8-0.9-1.3-2.1-1.5-3.3c-0.3-1.2-0.3-2.4,0-3.6c0.3-1.2,0.8-2.3,1.5-3.2c0.1-0.2,0.2-0.3,0-0.5c-0.9-1-2.1-1.8-3.3-2.3
			c-1.5-0.7-3.2-1-4.8-1.1c-3.1-0.2-6.1,0.1-8.8,1.8c-1.7,1-3,2.5-3.7,4.4c-0.5,1.3-0.6,2.6-0.4,3.9c0.1,0.9,0.4,1.8,0.8,2.7
			c0.4,0.8,1,1.5,1.8,2.1c0.8,0.6,1.6,1.1,2.5,1.4c-0.1,0.2-0.3,0.2-0.4,0.3c-1.3,0.5-2.4,1.2-3.3,2.2c-0.9,1-1.6,2.2-2,3.4
			c0,0.5-0.1,1-0.3,1.5v0.7c0.1,0.2,0.1,0.5,0,0.7v0.7c0.1,0.1,0.1,0.2,0.1,0.3c0.1,1.3,0.5,2.5,1.1,3.6c0.6,1.1,1.4,2.1,2.4,2.8
			c1.7,1.3,3.8,2.1,5.9,2.4c2.7,0.4,5.4,0.3,8-0.5c1.6-0.5,3.1-1.3,4.4-2.4c0.2-0.2,0.2-0.3,0-0.5c-1.6-1.7-2.5-4-2.5-6.4
			c-0.1-1.4,0.1-2.9,0.8-4.2C40.8,32,41.8,30.9,43,30L43,30z M27.9,20c0.4-0.6,1-1.2,1.6-1.6c0.7-0.4,1.4-0.6,2.2-0.7
			c0.3,0,0.6,0,0.9,0c1-0.1,2,0.1,3,0.6c0.6,0.3,1.1,0.7,1.5,1.3c0.4,0.5,0.6,1.2,0.7,1.9c0.2,0.8,0.1,1.6-0.1,2.3
			c-0.2,0.8-0.6,1.4-1.2,2c-0.6,0.6-1.4,1-2.2,1.1c-1.7,0.4-3.4,0.2-4.9-0.6c-0.6-0.3-1.1-0.8-1.4-1.4c-0.4-0.6-0.5-1.3-0.6-2
			C27.2,21.9,27.4,20.9,27.9,20L27.9,20z M38.7,37.3c0,0.9-0.3,1.7-0.8,2.4c-0.5,0.7-1.1,1.3-1.9,1.7c-0.9,0.5-1.9,0.7-2.9,0.7
			c-1.5,0.1-2.9-0.2-4.2-0.9c-0.7-0.4-1.3-1-1.7-1.6c-0.4-0.7-0.7-1.5-0.7-2.3c-0.1-0.7-0.1-1.5,0.2-2.2c0.2-0.7,0.6-1.3,1.1-1.9
			c0.8-0.8,1.7-1.3,2.8-1.5c0.6-0.2,1.2-0.2,1.8-0.2c1.5-0.1,3,0.3,4.3,1c0.8,0.5,1.4,1.2,1.8,2C38.7,35.5,38.8,36.4,38.7,37.3"/>
		<path class="st0" d="M82.5,32.1c-1-1.4-2.4-2.5-4-3.1c-0.2-0.1-0.4-0.1-0.4-0.3c0,0,0-0.1,0.1-0.1l0.4-0.2
			c1.6-0.6,2.9-1.8,3.7-3.2c0.5-1,0.8-2,0.9-3.1c0.1-1.5-0.1-3-0.8-4.4c-0.8-1.5-2-2.8-3.5-3.6c-1.5-0.8-3.1-1.4-4.7-1.5
			c-2.6-0.4-5.2-0.2-7.7,0.6c-1.6,0.5-3.1,1.4-4.3,2.6c-0.2,0.2-0.2,0.3,0,0.5c0.8,1.1,1.4,2.3,1.6,3.7c0.2,1.1,0.1,2.3-0.1,3.4
			c-0.3,1.5-1.1,2.8-2.3,3.8c-0.7,0.5-1.4,1-2.2,1.3c-0.1,0-0.2,0-0.2,0.2c0,0.1,0.1,0.1,0.2,0.2c0.3,0.2,0.6,0.3,0.9,0.5
			c1,0.5,1.9,1.2,2.6,2c0.7,0.8,1.2,1.8,1.6,2.9c0.6,2.1,0.5,4.4-0.2,6.4c-0.4,1.2-1.1,2.3-1.9,3.2c-0.1,0.2-0.2,0.3,0,0.4
			c1.1,1,2.5,1.8,3.9,2.3c2,0.7,4.2,1,6.3,0.9c2.7,0,5.3-0.8,7.5-2.2c1.5-1,2.7-2.3,3.4-4c0.5-1.3,0.8-2.6,0.8-4
			C84.1,35.5,83.6,33.7,82.5,32.1L82.5,32.1z M67.6,19c0.9-0.8,2-1.2,3.2-1.3c0.9-0.1,1.9,0,2.7,0.3c0.9,0.2,1.6,0.8,2.2,1.5
			c0.5,0.7,0.9,1.6,0.9,2.4c0,0.2,0,0.4,0,0.6c0.1,0.7-0.1,1.5-0.4,2.1c-0.3,0.7-0.8,1.2-1.4,1.6c-0.5,0.4-1.2,0.6-1.8,0.8
			c-1.3,0.3-2.7,0.2-3.9-0.2c-0.8-0.2-1.5-0.7-2-1.3c-0.5-0.6-0.8-1.4-0.9-2.2c-0.2-0.8-0.1-1.6,0.1-2.3
			C66.7,20.2,67.1,19.5,67.6,19L67.6,19z M77.7,37.1c0,0.7-0.2,1.4-0.4,2c-0.3,0.6-0.7,1.2-1.2,1.6c-0.9,0.8-1.9,1.2-3.1,1.4
			c-1.6,0.3-3.2,0.1-4.6-0.5c-0.8-0.3-1.4-0.8-1.9-1.4c-0.5-0.6-0.8-1.4-0.9-2.2c-0.2-0.7-0.2-1.5,0-2.2s0.4-1.4,0.8-2
			c0.7-1,1.8-1.6,3-1.9c0.8-0.2,1.6-0.3,2.3-0.3c1.3-0.1,2.6,0.2,3.8,0.9c0.8,0.5,1.4,1.2,1.8,2C77.6,35.3,77.7,36.2,77.7,37.1"/>
		<path class="st1" d="M48,36.9l4.1-5.6l4.1,5.6l-4.1,5.6L48,36.9"/>
		<path class="st1" d="M47.5,19.6v-0.4c0-0.1,0.1-0.1,0.1-0.2c0.1-0.4,0.3-0.9,0.6-1.2c0.3-0.3,0.7-0.5,1.1-0.6
			c0.5-0.1,1.1,0,1.6,0.2c0.5,0.2,0.9,0.6,1.1,1.1c0.1,0.2,0.2,0.5,0.3,0.7c0.2-0.4,0.4-0.8,0.7-1.2c0.3-0.4,0.7-0.6,1.1-0.8
			c0.4-0.1,0.9-0.1,1.4,0c0.4,0.1,0.8,0.4,1.1,0.7c0.3,0.4,0.4,0.8,0.5,1.2c0,0.7-0.2,1.5-0.6,2.1c-0.6,0.9-1.2,1.7-1.8,2.5
			c-0.9,1.1-1.7,2.4-2.2,3.7c0,0.1-0.1,0.2-0.1,0.3c-0.3-1.1-0.8-2-1.5-2.9l-1.3-1.8C48.6,22.1,47.7,21.1,47.5,19.6"/>
		<path class="st1" d="M88.6,36.8h7c0,2.7,1.3,3.8,3.5,3.8c2.2,0,3.4-1.3,3.4-3c0-5.6-13.2-6.2-13.2-16.5c0-5.1,3.6-8.9,9.8-8.9
			s10,3.7,10,9.9h-7c0-2.2-1-3.3-3-3.3c-1.8,0-2.8,1-2.8,2.5c0,5.3,13.4,5.6,13.4,16.3c0,5.5-3.9,9.6-10.5,9.6
			C92.6,47.3,88.6,43.6,88.6,36.8z"/>
		<path class="st1" d="M131.8,19.5h-6.6v27.2h-7V19.5h-6.6V13h20.2V19.5z"/>
		<path class="st1" d="M145.6,41h-7.1l-1.1,5.6h-7l8-33.6h7.3l8.1,33.6h-7L145.6,41z M144.2,34.5l-0.8-3.8c-0.4-2.4-1-6.5-1.3-9.2
			h-0.2c-0.3,2.7-0.9,6.8-1.3,9.2l-0.8,3.8L144.2,34.5z"/>
		<path class="st1" d="M166,35.3h-2.4v11.3h-6.8V13h9.8c6.7,0,10.6,4.1,10.6,11.2c0,4.6-1.7,7.9-4.7,9.7l6.3,12.7h-7.4L166,35.3z
			 M163.5,28.8h2.8c2.4,0,3.7-1.6,3.7-4.7c0-3-1.3-4.7-3.7-4.7h-2.8V28.8z"/>
		<path class="st1" d="M200,40.1v6.5h-19.3V42l10.7-22.6h-9.9V13h18.2v4.7l-10.5,22.4H200z"/>
		<path class="st1" d="M22.3,54.3h1.4v8.3h-1.4V54.3z"/>
		<path class="st1" d="M34.1,57.4h1.4v4c-0.5,0.4-1.1,0.8-1.8,1c-0.7,0.2-1.4,0.3-2.1,0.3c-1,0-1.9-0.2-2.8-0.7
			c-0.8-0.4-1.5-1.1-1.9-1.9c-0.5-0.8-0.7-1.7-0.7-2.7c0-0.9,0.2-1.9,0.7-2.7c0.5-0.8,1.1-1.4,2-1.9c0.9-0.5,1.8-0.7,2.8-0.7
			c0.8,0,1.5,0.1,2.2,0.4c0.7,0.3,1.2,0.7,1.7,1.2l-0.9,0.9c-0.4-0.4-0.9-0.7-1.4-0.9c-0.5-0.2-1.1-0.3-1.6-0.3
			c-0.7,0-1.5,0.2-2.1,0.5c-0.6,0.3-1.1,0.8-1.5,1.4c-0.3,0.6-0.5,1.3-0.5,2c0,0.7,0.2,1.4,0.5,2c0.3,0.6,0.8,1.1,1.4,1.4
			c0.6,0.3,1.4,0.5,2.1,0.5c0.8,0,1.7-0.2,2.4-0.7L34.1,57.4z"/>
		<path class="st1" d="M43.7,60.6h-4.5l-0.9,2H37l3.8-8.3h1.4l3.8,8.3h-1.4L43.7,60.6z M43.2,59.5l-1.8-3.9l-1.8,3.9H43.2z"/>
		<path class="st1" d="M55.5,62.6v-5.8l-2.9,4.8H52l-2.9-4.6v5.6h-1.4v-8.3H49l3.4,5.6l3.3-5.6h1.2v8.3H55.5z"/>
		<path class="st1" d="M59.8,54.3h1.4v8.3h-1.4V54.3z"/>
		<path class="st1" d="M71.5,54.3v8.3h-1.2l-4.8-5.9v5.9h-1.4v-8.3h1.2l4.8,5.9v-5.9H71.5z"/>
		<path class="st1" d="M80.2,58.4h1.4v3.2c-0.4,0.4-0.9,0.6-1.4,0.8c-0.6,0.2-1.2,0.3-1.8,0.3c-0.8,0-1.6-0.2-2.3-0.6
			c-0.7-0.4-1.2-0.9-1.6-1.5c-0.4-0.7-0.6-1.4-0.6-2.2c0-0.8,0.2-1.5,0.6-2.2c0.4-0.7,1-1.2,1.6-1.5c0.7-0.4,1.5-0.6,2.3-0.6
			c0.6,0,1.2,0.1,1.8,0.3c0.6,0.2,1.1,0.6,1.5,1l-0.9,0.9c-0.3-0.3-0.7-0.6-1.1-0.8c-0.4-0.2-0.9-0.3-1.3-0.2
			c-0.6,0-1.1,0.1-1.6,0.4c-0.5,0.2-0.9,0.6-1.1,1.1c-0.3,0.5-0.4,1-0.4,1.6c0,0.5,0.1,1.1,0.4,1.6c0.3,0.5,0.7,0.8,1.1,1.1
			c0.5,0.3,1.1,0.4,1.6,0.4c0.6,0,1.3-0.1,1.8-0.5L80.2,58.4z"/>
		<path class="st1" d="M88.9,52.3h4.3c1,0,2,0.2,2.9,0.6c0.8,0.4,1.5,1,1.9,1.8c0.5,0.8,0.7,1.7,0.7,2.7s-0.2,1.9-0.7,2.7
			c-0.5,0.8-1.1,1.4-1.9,1.8c-0.9,0.4-1.9,0.7-2.9,0.6h-4.3V52.3z M93.1,61.3c0.8,0,1.5-0.1,2.2-0.5c0.6-0.3,1.1-0.8,1.5-1.4
			c0.3-0.6,0.5-1.3,0.5-2c0-0.7-0.2-1.4-0.5-2c-0.3-0.6-0.9-1.1-1.5-1.4c-0.7-0.3-1.4-0.5-2.2-0.5h-2.8v7.7H93.1z"/>
		<path class="st1" d="M107.4,61.4v1.2h-6.2v-8.3h6.1v1.2h-4.7v2.3h4.1v1.2h-4.1v2.5H107.4z"/>
		<path class="st1" d="M111.3,53.6v3.6h5.1v1.3h-5.1v4.1h-1.5V52.3h7.2v1.2H111.3z"/>
		<path class="st1" d="M118.8,54.3h1.4v8.3h-1.4V54.3z"/>
		<path class="st1" d="M134.9,53.3c0.4,0.3,0.7,0.7,0.9,1.2c0.2,0.5,0.3,0.9,0.3,1.4c0,0.5-0.1,1-0.3,1.4c-0.2,0.5-0.5,0.9-0.9,1.2
			c-0.9,0.7-2,1-3.1,0.9h-2.5v3.1h-1.5V52.3h4C132.9,52.3,134,52.6,134.9,53.3z M133.9,57.6c0.2-0.2,0.4-0.5,0.5-0.8
			c0.1-0.3,0.2-0.6,0.2-0.9c0-0.3-0.1-0.6-0.2-0.9c-0.1-0.3-0.3-0.6-0.5-0.8c-0.6-0.4-1.4-0.6-2.1-0.6h-2.5v4.6h2.5
			C132.5,58.3,133.3,58,133.9,57.6L133.9,57.6z"/>
		<path class="st1" d="M138.3,54.3h1.4v7.1h4.5v1.2h-5.9V54.3z"/>
		<path class="st1" d="M152,60.6h-4.5l-0.9,2h-1.4l3.8-8.3h1.4l3.8,8.3h-1.4L152,60.6z M151.5,59.5l-1.8-3.9l-1.8,3.9H151.5z"/>
		<path class="st1" d="M156.8,55.4h-2.8v-1.2h7.1v1.2h-2.8v7.1h-1.4V55.4z"/>
		<path class="st1" d="M164.2,55.4v2.7h4.1v1.2h-4.1v3.3h-1.4v-8.3h6.1v1.2H164.2z"/>
		<path class="st1" d="M172.4,62.1c-0.7-0.4-1.2-0.9-1.6-1.5c-0.4-0.7-0.6-1.4-0.6-2.2c0-0.8,0.2-1.5,0.6-2.2c0.4-0.7,1-1.2,1.6-1.5
			c0.7-0.4,1.5-0.6,2.3-0.6s1.6,0.2,2.3,0.6c0.7,0.4,1.2,0.9,1.6,1.5c0.4,0.7,0.6,1.4,0.6,2.2c0,0.8-0.2,1.5-0.6,2.2
			c-0.4,0.7-1,1.2-1.6,1.5c-0.7,0.4-1.5,0.6-2.3,0.6S173.1,62.5,172.4,62.1L172.4,62.1z M176.3,61.1c0.5-0.3,0.8-0.6,1.1-1.1
			c0.3-0.5,0.4-1,0.4-1.6c0-0.5-0.1-1.1-0.4-1.6c-0.3-0.5-0.6-0.8-1.1-1.1c-0.5-0.3-1-0.4-1.6-0.4s-1.1,0.1-1.6,0.4
			c-0.5,0.3-0.8,0.6-1.1,1.1c-0.3,0.5-0.4,1-0.4,1.6c0,0.5,0.1,1.1,0.4,1.6c0.3,0.5,0.6,0.8,1.1,1.1c0.5,0.3,1,0.4,1.6,0.4
			S175.8,61.3,176.3,61.1L176.3,61.1z"/>
		<path class="st1" d="M187.1,62.6l-1.8-2.5h-0.4h-2v2.5h-1.4v-8.3h3.4c0.9-0.1,1.9,0.2,2.6,0.8c0.3,0.3,0.6,0.6,0.7,1
			c0.2,0.4,0.2,0.8,0.2,1.2c0,0.6-0.1,1.1-0.5,1.6c-0.3,0.5-0.8,0.8-1.4,1l1.9,2.7H187.1z M186.5,58.5c0.2-0.2,0.3-0.4,0.4-0.6
			c0.1-0.2,0.2-0.5,0.2-0.7c0-0.2-0.1-0.5-0.2-0.7c-0.1-0.2-0.3-0.4-0.4-0.6c-0.5-0.3-1.1-0.5-1.6-0.5h-1.9v3.5h1.9
			C185.4,59,186,58.8,186.5,58.5L186.5,58.5z"/>
		<path class="st1" d="M198.6,62.6v-5.8l-2.9,4.8h-0.7l-2.9-4.6v5.6h-1.4v-8.3h1.2l3.4,5.6l3.3-5.6h1.2v8.3H198.6z"/>
	</g>
</g>
</svg>
