<?xml version="1.0" encoding="utf-8"?>
<!-- Generator: Adobe Illustrator 26.2.1, SVG Export Plug-In . SVG Version: 6.00 Build 0)  -->
<svg version="1.1" id="Шар_1" xmlns="http://www.w3.org/2000/svg" xmlns:xlink="http://www.w3.org/1999/xlink" x="0px" y="0px"
	 viewBox="0 0 220 75" style="enable-background:new 0 0 220 75;" xml:space="preserve">
<style type="text/css">
	.st0{fill:#020203;}
	.st1{fill:#83BD45;}
</style>
<path class="st0" d="M61.5,52.2c0-0.1,0-0.2,0-0.3c0-3,0-6.1,0-9.1c0-4.3,0-8.5,0-12.8c0-0.4,0-0.4,0.4-0.4c2.8,0,5.7,0,8.5,0
	c1.2,0,2.4,0.2,3.6,0.6c0.7,0.2,1.5,0.6,2.1,1c0.8,0.5,1.3,1.3,1.7,2.1c0.2,0.4,0.3,0.8,0.4,1.3c0.1,0.7,0.1,1.4,0.1,2
	c0,0.4-0.1,0.7-0.2,1.1c-0.1,0.4-0.3,0.7-0.4,1.1c-0.3,0.6-0.8,1.1-1.3,1.5c0,0-0.1,0-0.1,0.1c-0.1,0.1-0.1,0.2,0,0.2
	c1,0.4,1.7,1.1,2.2,2.1c0.3,0.6,0.5,1.4,0.6,2.1c0.1,0.8,0,1.7-0.2,2.5c-0.3,1.3-0.9,2.4-1.9,3.3c-0.6,0.5-1.3,0.9-2.1,1.1
	c-0.5,0.1-0.9,0.3-1.4,0.4c-0.6,0.1-1.2,0.2-1.9,0.2c-2.1,0-4.1,0-6.2,0c-1.2,0-2.4,0-3.6,0L61.5,52.2z M66.9,45.2v2.4
	c0,0,0,0.1,0,0.1c0,0.1,0.1,0.2,0.2,0.2c0.1,0,0.1,0,0.2,0c1,0,2.1,0,3.1,0c0.4,0,0.9,0,1.3-0.1c0.8-0.2,1.3-0.7,1.5-1.5
	c0.2-0.8,0.2-1.7-0.1-2.5c-0.2-0.6-0.7-0.9-1.3-1.1c-0.4-0.1-0.8-0.2-1.2-0.2c-1.1,0-2.3,0-3.4,0c-0.3,0-0.3,0-0.3,0.3
	C66.9,43.6,66.9,44.4,66.9,45.2L66.9,45.2z M66.9,36.4c0,0.7,0,1.5,0,2.2c0,0.3,0,0.3,0.3,0.3c0.9,0,1.8,0,2.7,0
	c0.5,0,0.9-0.1,1.4-0.3c0.4-0.2,0.7-0.4,0.9-0.8c0.2-0.3,0.3-0.7,0.3-1.1c0-0.6,0-1.1-0.3-1.6c-0.2-0.5-0.6-0.7-1.1-0.9
	c-0.3-0.1-0.7-0.2-1-0.2c-1,0-2,0-2.9,0c0,0-0.1,0-0.1,0c-0.1,0-0.1,0.1-0.2,0.2c0,0.1,0,0.1,0,0.2C66.9,35,66.9,35.7,66.9,36.4
	L66.9,36.4z"/>
<path class="st0" d="M187.8,41.2V30.6c0-0.3,0-0.3,0.3-0.3c0.1,0,0.2,0,0.3,0H205c0.1,0,0.2,0,0.3,0c0.1,0,0.2,0.1,0.2,0.2
	c-0.1,0.6-0.2,1.3-0.3,1.9c-0.1,0.4-0.1,0.8-0.2,1.2c-0.1,0.4-0.1,0.8-0.2,1.1c0,0.2-0.1,0.2-0.2,0.2c-0.1,0-0.1,0-0.2,0h-10.6
	c0,0-0.1,0-0.1,0c-0.2,0-0.3,0-0.3,0.3c0,1.1,0,2.2,0,3.3c0,0.3,0,0.3,0.3,0.3c3.3,0,6.6,0,9.8,0c0,0,0.1,0,0.1,0
	c0.1,0,0.1,0.1,0.1,0.2c0,0.1,0,0.2,0,0.3c0,0.3-0.1,0.6-0.1,0.9c-0.1,0.8-0.2,1.6-0.2,2.4c0,0.2,0,0.4,0,0.6c0,0.2,0,0.2-0.2,0.2
	c-0.1,0-0.1,0-0.2,0l-9.4,0c-0.2,0-0.3,0-0.3,0.3c0,1,0,1.9,0,2.9c0,0.2,0,0.3,0,0.5c0,0.3,0,0.3,0.3,0.3c0.1,0,0.2,0,0.4,0h10.8
	c0.1,0,0.2,0,0.4,0c0.2,0,0.3,0,0.3,0.2c0,0.2,0,0.5,0,0.7c0,0.3-0.1,0.6-0.1,0.9c-0.1,0.7-0.1,1.4-0.2,2.1c0,0.2,0,0.4-0.1,0.6
	c0,0.2,0,0.2-0.2,0.2c-0.1,0-0.1,0-0.2,0c-5.5,0-11,0-16.4,0c-0.5,0-0.4,0-0.4-0.4C187.8,48.2,187.8,44.7,187.8,41.2L187.8,41.2z"/>
<path class="st0" d="M171.9,39.7c0.1-0.2,0.3-0.5,0.4-0.8c0.3-0.5,0.6-1,0.8-1.5c0.3-0.5,0.5-1,0.8-1.5c0.5-0.8,0.9-1.7,1.4-2.5
	c0.6-1,1.2-2.1,1.7-3.1c0.1-0.1,0.2-0.3,0.2-0.4c0.1-0.2,0.2-0.2,0.4-0.2c0.1,0,0.2,0,0.3,0c1.6,0,3.2,0,4.8,0
	c0.1,0,0.2-0.1,0.3,0.1c0.1,0.1,0,0.2-0.1,0.3c-0.7,1.2-1.4,2.4-2.1,3.5c-0.8,1.2-1.5,2.5-2.3,3.7c-0.7,1.2-1.4,2.4-2.2,3.6
	c-0.6,1.1-1.3,2.1-1.9,3.2c-0.4,0.7-0.8,1.4-1.2,2c-0.4,0.7-0.9,1.5-1.3,2.2c-0.2,0.3-0.2,0.3-0.4,0c-0.8-1.4-1.6-2.7-2.4-4
	c-0.3-0.6-0.7-1.2-1.1-1.7c-0.7-1.1-1.3-2.3-2-3.4c-0.1-0.2-0.2-0.3-0.3-0.5c0,0-0.1-0.1-0.2-0.2c0,0.1,0,0.1,0,0.2
	c0,0.1,0,0.3,0,0.4c0,4.1,0,8.3,0,12.4c0,0.1,0,0.1,0,0.2c0,0.1-0.1,0.2-0.2,0.2c0,0-0.1,0-0.1,0h-4.7c-0.3,0-0.3,0-0.3-0.3
	c0-0.1,0-0.3,0-0.4c0-7.1,0-14.2,0-21.3c0,0,0-0.1,0-0.1c0-0.2,0.1-0.2,0.2-0.2c0,0,0.1,0,0.1,0c1.7,0,3.5,0,5.2,0
	c0.3,0,0.4,0.1,0.5,0.3c0.5,0.9,1,1.9,1.5,2.8c0.7,1.3,1.4,2.5,2.1,3.8c0.6,1,1.1,2,1.7,3C171.7,39.6,171.7,39.7,171.9,39.7z"/>
<path class="st0" d="M131.4,46v0.4c0,1.1,0,2.2,0,3.4c0,0.3,0,0.6,0,0.9c0,0.2-0.1,0.3-0.2,0.3c-0.6,0.2-1.3,0.5-1.9,0.7
	c-0.5,0.2-1,0.3-1.5,0.4c-0.4,0.1-0.8,0.1-1.1,0.2c-0.1,0-0.1,0-0.2,0c-0.9,0.2-1.9,0.2-2.8,0.2c-0.8,0-1.5,0-2.3-0.2
	c-0.3-0.1-0.7-0.1-1.1-0.2c-0.8-0.2-1.5-0.4-2.2-0.8c-0.8-0.4-1.6-1-2.2-1.7c-0.6-0.6-1.1-1.3-1.4-2.1c-0.4-0.9-0.7-1.9-0.8-3
	c-0.3-2.1-0.3-4.3-0.1-6.4c0.1-0.7,0.2-1.5,0.4-2.2c0.3-1.2,0.9-2.4,1.7-3.3c0.6-0.7,1.2-1.3,2-1.7c0.9-0.5,1.8-0.9,2.8-1.1
	c0.5-0.1,1.1-0.2,1.6-0.3c1.1-0.2,2.3-0.2,3.4-0.1c1.6,0.1,3.2,0.4,4.7,1c0.3,0.1,0.6,0.2,0.8,0.3c0.1,0.1,0.2,0.1,0.1,0.3
	c-0.1,0.4-0.3,0.8-0.4,1.1c-0.1,0.3-0.2,0.7-0.4,1c-0.1,0.3-0.2,0.6-0.3,0.9c-0.1,0.2-0.2,0.4-0.2,0.6c-0.1,0.3-0.2,0.3-0.4,0.2
	c-0.3-0.2-0.6-0.3-0.8-0.4c-0.7-0.3-1.5-0.4-2.2-0.5c-0.6,0-1.2-0.1-1.9-0.1c-0.4,0-0.8,0-1.3,0.1c-0.6,0.1-1.1,0.3-1.6,0.5
	c-0.7,0.3-1.2,0.9-1.6,1.5c-0.4,0.7-0.6,1.4-0.7,2.2c-0.2,1.3-0.3,2.7-0.2,4c0,0.6,0.1,1.2,0.2,1.8c0.1,0.7,0.3,1.4,0.7,2
	c0.2,0.3,0.5,0.6,0.8,0.9c0.7,0.6,1.5,0.8,2.4,1c1,0.1,1.9,0,2.9-0.1c0.1,0,0.1,0,0.2,0c0.1,0,0.2-0.1,0.2-0.2c0-0.1,0-0.1,0-0.2
	l0-5.9c0,0,0,0,0-0.1c0-0.3,0-0.3,0.3-0.3c1.5,0,2.9,0,4.4,0c0.3,0,0.3,0,0.3,0.3c0,0.4,0,0.8,0,1.3c0,1,0,2,0,3.1L131.4,46
	L131.4,46z"/>
<path class="st0" d="M145.5,37.9c0,0.1,0,0.2-0.1,0.3c-0.1,0.4-0.3,0.8-0.4,1.2c-0.2,0.7-0.5,1.4-0.7,2c-0.1,0.3-0.2,0.7-0.4,1
	c0,0.1,0,0.1-0.1,0.2c0.1,0,0.2,0,0.3,0c1.1,0,2.2,0,3.3,0c0,0,0,0,0.1,0c0.2,0,0.2-0.1,0.1-0.2c-0.1-0.2-0.2-0.4-0.2-0.7
	c-0.2-0.4-0.3-0.9-0.5-1.3c-0.3-0.7-0.5-1.4-0.8-2.1c-0.2-0.6-0.4-1.1-0.6-1.7c-0.4-1-0.7-1.9-1.1-2.9c-0.2-0.6-0.4-1.2-0.7-1.8
	c-0.2-0.5-0.4-1.1-0.6-1.6c0-0.1-0.1-0.2-0.1-0.3c0-0.1,0-0.2,0.1-0.2c0.1,0,0.1,0,0.2,0h4.7c0.3,0,0.3,0,0.4,0.3
	c0.3,0.7,0.5,1.3,0.8,2c0.2,0.5,0.4,1.1,0.6,1.6c0.3,0.7,0.6,1.4,0.8,2.1c0.2,0.6,0.4,1.1,0.7,1.7c0.3,0.6,0.5,1.3,0.8,1.9
	c0.1,0.4,0.3,0.7,0.4,1.1c0.2,0.4,0.3,0.9,0.5,1.3c0.2,0.5,0.4,1,0.6,1.6c0.2,0.6,0.5,1.2,0.7,1.8c0.2,0.6,0.4,1.1,0.7,1.7
	c0.2,0.5,0.4,1.1,0.6,1.6c0.3,0.7,0.6,1.4,0.8,2.1c0.2,0.4,0.3,0.9,0.5,1.3c0,0.1,0,0.1,0,0.2c0,0.1,0,0.2-0.1,0.2c0,0-0.1,0-0.1,0
	c-1.8,0-3.5,0-5.3,0c-0.2,0-0.3-0.1-0.4-0.2c-0.2-0.5-0.4-1-0.6-1.5c-0.3-0.7-0.5-1.3-0.8-2c-0.1-0.3-0.2-0.6-0.3-0.9
	c-0.1-0.2-0.2-0.3-0.4-0.3c-2.1,0-4.2,0-6.3,0c-0.2,0-0.3,0.1-0.3,0.2c-0.1,0.2-0.2,0.5-0.2,0.7c-0.2,0.5-0.4,1.1-0.6,1.6
	c-0.2,0.7-0.5,1.3-0.7,2c-0.1,0.3-0.1,0.3-0.5,0.3l-5.2,0c-0.4,0-0.4-0.1-0.2-0.4c0.3-0.6,0.5-1.3,0.8-1.9c0.2-0.5,0.4-1,0.6-1.5
	c0.2-0.5,0.4-1,0.6-1.5c0.1-0.4,0.3-0.8,0.5-1.1c0.2-0.4,0.3-0.8,0.5-1.2c0.3-0.8,0.7-1.7,1-2.5c0.2-0.6,0.4-1.1,0.7-1.7
	c0.2-0.4,0.3-0.8,0.5-1.2c0.1-0.3,0.2-0.5,0.3-0.8c0-0.1,0.1-0.2,0.3-0.2c0,0,0.1,0,0.1,0c1.5,0,3,0,4.6,0
	C145.3,37.9,145.4,37.9,145.5,37.9z"/>
<path class="st0" d="M98.6,46.8c0,0.1,0.1,0.2,0.1,0.3c0.1,0.3,0.2,0.7,0.4,1c0.2,0.4,0.3,0.9,0.5,1.3c0.1,0.4,0.2,0.7,0.4,1.1
	c0,0.1,0.1,0.2,0.1,0.3c0.1,0.2,0.1,0.3-0.1,0.3c-0.4,0.2-0.7,0.3-1.1,0.5c-0.4,0.1-0.8,0.3-1.2,0.4c-0.3,0.1-0.6,0.1-0.9,0.2
	c-0.4,0.1-0.8,0.1-1.1,0.2c-0.1,0-0.2,0-0.3,0.1c-0.9,0-1.8,0.2-2.8,0.1c-0.5,0-1-0.1-1.5-0.1c-0.4-0.1-0.8-0.1-1.2-0.2
	c-0.4-0.1-0.9-0.2-1.3-0.3c-0.5-0.2-1-0.4-1.4-0.6c-0.9-0.4-1.7-1-2.3-1.7c-1.1-1.2-1.8-2.5-2.1-4.1c-0.3-1.5-0.4-3-0.4-4.6
	c0-1.2,0.1-2.4,0.2-3.5c0.1-0.8,0.3-1.6,0.6-2.4c0.3-0.7,0.6-1.4,1.1-2c0.5-0.7,1.1-1.4,1.8-1.9c0.8-0.6,1.6-1,2.5-1.3
	c0.6-0.2,1.2-0.4,1.9-0.5c0.5-0.1,1-0.2,1.6-0.2c0.8,0,1.6,0,2.4,0c0.7,0,1.5,0.1,2.2,0.2c0.9,0.1,1.8,0.4,2.7,0.7
	c0.3,0.1,0.5,0.2,0.8,0.3c0.2,0.1,0.2,0.1,0.1,0.3c-0.1,0.2-0.1,0.4-0.2,0.5c-0.2,0.5-0.4,1-0.5,1.4c-0.2,0.4-0.3,0.8-0.5,1.3
	c-0.1,0.1-0.1,0.3-0.2,0.4c0,0.1-0.1,0.1-0.2,0.1c0,0-0.1,0-0.1,0c-0.4-0.2-0.9-0.3-1.3-0.4c-0.8-0.2-1.6-0.3-2.3-0.3
	c-0.8,0-1.6,0-2.5,0.1c-0.5,0.1-0.9,0.2-1.4,0.4c-0.2,0.1-0.4,0.2-0.6,0.3c-0.2,0.1-0.4,0.2-0.5,0.4c-0.6,0.6-1,1.2-1.2,2
	c-0.3,0.8-0.4,1.7-0.4,2.6c0,0.7-0.1,1.5,0,2.2c0,0.5,0,0.9,0.1,1.4c0.1,0.8,0.2,1.6,0.6,2.4c0.5,1,1.2,1.6,2.2,2
	c0.8,0.3,1.7,0.4,2.5,0.5c1,0,1.9,0,2.9-0.2c0.5-0.1,1.1-0.3,1.6-0.5c0.3-0.1,0.5-0.2,0.8-0.4C98.5,46.8,98.5,46.8,98.6,46.8
	L98.6,46.8z"/>
<path class="st0" d="M183.5,45.2v6.5c0,0,0,0.1,0,0.1c0,0.2-0.1,0.3-0.3,0.3c-0.4,0-0.8,0-1.2,0h-3.5c-0.3,0-0.3,0-0.3-0.3
	c0-4.4,0-8.7,0-13.1c0,0,0-0.1,0-0.1c0-0.1,0.1-0.2,0.2-0.2c0,0,0.1,0,0.1,0l4.7,0c0.3,0,0.3,0,0.3,0.3
	C183.5,40.8,183.5,43,183.5,45.2z"/>
<path class="st0" d="M109.9,49.8c0,0.7,0,1.4,0,2c0,0.3,0,0.3-0.3,0.3c-1.4,0-2.8,0-4.2,0c-0.3,0-0.3,0-0.3-0.3c0-1.4,0-2.7,0-4.1
	c0-0.3,0-0.3,0.3-0.3c1.4,0,2.7,0,4.1,0c0.3,0,0.3,0,0.3,0.3C109.9,48.4,109.9,49.1,109.9,49.8z"/>
<path class="st0" d="M27.3,38.2c0-1,0.8-1.8,1.8-1.8c1,0,1.8,0.8,1.8,1.8c0,1-0.8,1.8-1.8,1.8C28.1,39.9,27.3,39.2,27.3,38.2z"/>
<path class="st1" d="M32.5,59.4c-0.8,0-1.6-0.2-2.4-0.6l-12.2-7c-0.7-0.4-1.3-1-1.7-1.7c-0.4-0.7-0.6-1.5-0.6-2.3V16.5
	c0-0.1,0.1-0.2,0.2-0.3c0.1-0.1,0.2-0.2,0.3-0.2c0.6-0.1,1.2-0.1,1.8-0.1c2.2,0,3.8,0.6,5,1.7c1.2,1.2,1.7,2.8,1.7,5v3.2l5.7-3.3
	c0.7-0.4,1.5-0.6,2.4-0.6c0.8,0,1.6,0.2,2.4,0.6l12.2,7c0.7,0.4,1.3,1,1.7,1.7c0.4,0.7,0.6,1.5,0.6,2.3v14c0,0.8-0.2,1.6-0.6,2.3
	c-0.4,0.7-1,1.3-1.7,1.7l-12.2,7C34.1,59.2,33.3,59.4,32.5,59.4L32.5,59.4z M33.3,29.8c-6.1,0-11,4.9-11,10.9c0,6,4.9,10.9,11,10.9
	c2.8,0,5.5-1,7.5-2.9c0.1-0.1,0.1-0.2,0.1-0.3c0,0,0-0.1,0-0.1c0,0,0-0.1-0.1-0.1L33.6,41c0,0-0.1-0.1-0.1-0.1c0,0,0-0.1,0-0.1
	c0,0,0-0.1,0-0.1c0,0,0-0.1,0.1-0.1c0,0,0,0,0.1-0.1l0.5-0.5c1.8-1.8,6.5-6.7,6.6-6.8c0,0,0.1-0.1,0.1-0.1c0,0,0-0.1,0-0.1
	c0-0.1,0-0.2-0.1-0.2C38.6,30.8,36,29.8,33.3,29.8z"/>
</svg>
