<?xml version="1.0" encoding="UTF-8" standalone="no"?>
<svg
   width="220"
   height="75"
   viewBox="0 0 220 75"
   fill="none"
   version="1.1"
   id="svg34"
   xmlns="http://www.w3.org/2000/svg"
   xmlns:svg="http://www.w3.org/2000/svg">
  <g
     id="g34"
     transform="matrix(0.12063039,0,0,0.12063039,4.9909321,7.3810041)">
    <g
       clip-path="url(#clip0_4710_39)"
       id="g33">
      <g
         clip-path="url(#clip1_4710_39)"
         id="g32">
        <path
           d="m 47.3575,247.522 c -27.2206,55.638 -37.2139,97.273 -37.2139,97.273 0,0 122.6794,-11.843 203.5954,75.151 0,0 62.048,-26.217 151.913,1.415 0,0 50.638,-60.031 114.028,-61.372 0,0 -10.739,-47.817 -49.444,-87.59 8.352,-18.173 12.38,-41.635 12.38,-41.635 0,0 -6.339,-16.907 -47.059,-52.211 -1.267,-62.862 -40.271,-93.7718 -40.271,-93.7718 0,0 -39.153,15.0452 -61.974,47.8168 0,0 -40.719,0.745 -73.756,9.683 l -24.387,1.266 c 0,0 -15.363,-28.675 -71.967,-45.8805 0,0 -43.4781,11.3215 -47.5053,101.6665 0,0 -23.79,-5.139 -42.4343,48.04 0,0 1.939,0.596 14.1697,0 z"
           fill="#0f0f19"
           id="path1" />
        <path
           d="m 251.027,156.354 c -111.12,0 -158.2525,66.511 -158.2525,66.511 6.7865,-2.011 13.9455,-2.532 20.9565,-1.415 0,0 -41.3161,39.028 -61.8248,92.282 0,0 51.1598,-5.809 93.6688,19.589 -10.441,-83.196 70.997,-112.913 100.455,-93.25 -4.027,-10.949 -18.197,-28.601 -55.634,-21.004 33.261,-32.548 99.411,-18.546 133.194,20.78 2.387,-6.107 3.953,-12.513 4.699,-18.993 0,0 19.241,9.459 24.61,24.728 1.268,-10.055 10.068,-22.27 10.068,-22.27 0,0 7.234,8.864 12.007,24.058 3.505,-4.544 8.278,-8.044 13.722,-10.204 5.444,-2.16 11.485,-2.905 17.377,-2.16 0,0 -44.001,-78.727 -155.121,-78.727 z"
           fill="#5f5f68"
           id="path2" />
        <path
           d="m 190.471,219.069 c -47.953,12.513 -77.561,46.03 -89.418,97.571 15.735,3.053 30.875,8.639 44.522,16.609 -10.441,-83.195 70.998,-112.913 100.455,-93.25 -3.952,-10.949 -18.196,-28.601 -55.634,-21.004 z"
           fill="#ffffff"
           id="path3" />
        <path
           d="m 301.216,162.238 c 29.458,11.694 58.319,26.367 77.411,65.842 l 11.783,8.565 c 5.071,-1.639 10.441,-2.235 15.736,-1.564 0,0 -30.577,-54.595 -104.93,-72.843 z"
           fill="#636363"
           id="path4" />
        <path
           d="m 193.527,176.467 c -28.115,-38.507 -66.597,-51.69 -66.597,-51.69 0,0 -29.2341,19.589 -21.851,64.799 5.295,-25.696 20.956,-38.358 20.956,-38.358 0,0 18.719,13.034 26.475,39.401 7.756,26.44 41.017,-14.226 41.017,-14.226 z"
           fill="#5f5f68"
           id="path5" />
        <path
           d="m 381.687,261.672 c 5.966,-12.811 17.227,-13.332 17.227,-13.332 -0.895,8.044 -3.505,15.79 -7.607,22.791 -2.536,-3.724 -5.817,-6.927 -9.62,-9.534 z"
           fill="#ffffff"
           id="path6" />
        <path
           d="m 264.897,275.228 c 64.808,11.098 71.296,81.929 108.659,81.929 22.746,0 30.95,-12.512 30.95,-12.512 -14.617,1.862 -25.282,-10.204 -26.102,-18.397 -0.821,-8.193 1.118,-18.919 1.118,-18.919 0,0 19.838,0.894 28.414,7.151 7.98,-4.246 18.122,-5.214 18.122,-5.214 0,0 -10.664,-15.864 -38.556,-23.462 -3.58,7.523 -12.529,14.599 -12.529,14.599 0,0 -17.6,-26.143 -60.034,-35.602 2.983,5.213 4.847,10.874 5.444,16.758 0,0 -19.539,-14.449 -55.486,-6.331 z"
           fill="#ffffff"
           id="path7" />
        <path
           d="m 262.437,308.223 c -7.607,-8.044 -5.966,-15.79 -5.966,-15.79 0,0 3.728,-3.65 14.766,-3.65 23.492,0 44.671,39.326 63.539,55.936 -26.996,-8.864 -75.472,17.503 -84.57,-31.655 8.353,13.854 20.061,13.928 20.061,13.928 -1.64,-3.575 -2.237,-7.523 -1.715,-11.396 7.234,7.3 21.776,7.523 21.776,7.523 -14.989,-10.129 -21.403,-28.005 -21.403,-28.005 -5.519,5.214 -6.488,13.109 -6.488,13.109 z"
           fill="#ffffff"
           id="path8" />
        <path
           d="m 256.099,278.728 c -36.841,10.874 -15.363,81.556 34.231,76.194 49.668,-5.437 70.922,8.416 79.648,29.792 -13.722,-8.267 -29.682,-12.587 -46.014,-12.587 4.027,1.638 7.532,4.171 10.291,7.373 2.76,3.203 4.624,6.927 5.519,10.949 -8.949,-7.969 -20.881,-12.438 -33.187,-12.364 -26.474,0 -53.77,9.162 -76.441,0.149 -24.312,-30.984 -14.393,-61.521 -14.393,-61.521 -10.59,5.363 -12.828,16.535 -12.828,16.535 0,0 -7.234,-55.042 53.174,-54.595 z"
           fill="#ffffff"
           id="path9" />
        <path
           d="m 370.052,384.792 c -52.204,-58.691 -136.923,25.473 -154.299,-68.001 0,0 -9.919,30.537 14.393,61.521 22.746,9.013 50.041,-0.149 76.441,-0.149 12.306,-0.074 24.238,4.32 33.187,12.364 -0.895,-4.022 -2.759,-7.746 -5.519,-10.948 -2.759,-3.203 -6.264,-5.735 -10.291,-7.374 16.332,0 32.292,4.394 46.014,12.662 z"
           fill="#5f5f68"
           id="path10" />
        <path
           d="m 259.156,222.568 c 8.949,19.216 19.017,30.016 19.017,30.016 0,0 12.38,1.639 23.567,-3.277 0,0 -12.007,-19.514 -42.584,-26.739 z"
           fill="#ffffff"
           id="path11" />
        <path
           d="m 290.776,159.93 c 29.533,11.693 48.177,25.77 59.289,58.84 l 17.526,3.798 c 7.01,12.215 32.59,11.843 38.556,12.439 0,0 -33.709,-60.702 -115.371,-75.077 z"
           fill="#ed1d49"
           id="path12" />
        <path
           d="m 324.188,140.345 c 10.515,-17.801 24.461,-21.302 24.461,-21.302 0,0 18.197,20.855 19.39,55.339 -10.739,-7.597 -22.672,-13.63 -35.35,-17.801 6.936,-0.595 13.946,0.149 20.584,2.309 -0.746,-10.427 -4.624,-20.482 -11.187,-28.973 0,0 -6.861,1.49 -17.898,10.353 z"
           fill="#ed1d49"
           id="path13" />
        <path
           d="m 408.682,336.972 c 6.264,-5.437 11.485,-11.917 15.214,-19.142 -4.177,0.745 -8.279,2.011 -12.157,3.799 -2.162,4.841 -3.206,10.055 -3.132,15.343 z"
           fill="#ed1d49"
           id="path14" />
        <path
           d="m 355.358,78.002 -5.146,2.3089 c -6.264,2.7558 -12.305,5.9585 -18.122,9.4591 -5.743,3.5006 -11.336,7.3736 -16.556,11.545 -5.221,4.096 -10.292,8.49 -14.99,13.183 -2.387,2.309 -4.699,4.692 -6.936,7.15 -1.119,1.192 -2.237,2.458 -3.281,3.724 0,0 -48.848,-0.075 -70.848,17.056 35.051,-7.597 77.634,0 77.634,0 l 3.132,-4.171 c 0.299,-0.447 0.821,-1.043 1.268,-1.564 l 1.417,-1.713 c 0.97,-1.192 1.939,-2.234 2.983,-3.352 2.014,-2.234 4.102,-4.394 6.265,-6.48 4.325,-4.245 8.874,-8.267 13.647,-11.991 4.773,-3.799 9.844,-7.299 15.065,-10.502 3.58,-2.16 7.234,-4.1707 11.037,-6.0328 4.4,4.5438 8.353,9.3848 11.933,14.5238 2.311,3.352 4.4,6.778 6.339,10.353 1.939,3.575 3.654,7.225 5.145,10.949 3.058,7.522 5.37,15.194 6.936,23.089 0.746,3.947 1.343,7.895 1.715,11.917 0.224,2.011 0.299,3.947 0.448,5.958 0,0.968 0,1.937 0.074,2.905 v 2.681 l -0.149,4.395 3.804,2.458 0.671,0.446 0.82,0.522 1.641,1.192 c 1.119,0.744 2.163,1.638 3.281,2.457 2.163,1.713 4.177,3.501 6.19,5.363 4.027,3.724 7.756,7.672 11.187,11.917 3.356,4.171 6.339,8.64 8.949,13.258 2.237,4.022 4.176,8.267 5.742,12.587 -0.671,2.83 -1.342,5.661 -2.162,8.416 -0.97,3.426 -2.088,6.853 -3.207,10.279 -1.119,3.351 -2.461,6.777 -3.878,10.055 -0.671,1.638 -1.417,3.277 -2.163,4.915 l -1.119,2.309 c -0.372,0.745 -0.82,1.639 -1.118,2.235 l -3.356,6.256 6.264,3.65 c 6.712,3.947 12.977,8.565 18.719,13.704 1.417,1.266 2.76,2.607 4.176,3.948 1.343,1.34 2.685,2.756 3.878,4.171 2.536,2.83 4.773,5.809 6.862,8.937 6.339,9.311 10.664,19.738 12.827,30.612 0.298,1.788 0.596,3.575 0.82,5.363 0,0 0,0.074 0,0.149 -4.996,1.862 -9.769,4.022 -14.468,6.331 -6.563,3.277 -12.976,7.001 -19.017,11.023 -6.041,4.022 -11.858,8.342 -17.376,13.034 -5.444,4.543 -10.59,9.534 -15.289,14.822 5.594,-4.32 11.485,-8.268 17.675,-11.768 6.115,-3.501 12.454,-6.629 18.943,-9.459 6.413,-2.756 13.051,-5.14 19.763,-7.076 6.637,-1.937 13.423,-3.426 20.285,-4.469 l 6.04,-0.894 v -9.906 c -0.149,-1.191 -0.298,-2.234 -0.373,-3.351 -0.223,-2.16 -0.596,-4.32 -1.044,-6.48 -0.82,-4.246 -2.013,-8.491 -3.43,-12.587 -2.834,-8.268 -6.712,-16.088 -11.634,-23.388 -2.461,-3.649 -5.146,-7.15 -8.055,-10.501 -1.417,-1.713 -2.983,-3.278 -4.474,-4.842 -1.492,-1.638 -3.132,-3.128 -4.848,-4.617 -4.847,-4.32 -9.993,-8.342 -15.512,-11.917 0.746,-1.565 1.417,-3.054 2.014,-4.693 1.491,-3.575 2.908,-7.224 4.176,-10.874 1.268,-3.65 2.461,-7.374 3.505,-11.098 1.044,-3.724 2.014,-7.448 2.834,-11.246 l 0.448,-1.937 -0.672,-1.862 c -1.939,-5.884 -4.474,-11.544 -7.457,-16.982 -2.983,-5.362 -6.488,-10.501 -10.366,-15.417 -3.878,-4.841 -8.129,-9.385 -12.753,-13.63 -2.312,-2.086 -4.624,-4.171 -7.159,-6.108 -1.268,-0.968 -2.462,-1.936 -3.804,-2.904 l -0.447,-0.298 c 0,-0.894 0,-1.862 0,-2.756 -0.075,-2.235 -0.224,-4.469 -0.448,-6.778 -0.447,-4.469 -1.044,-8.863 -1.939,-13.258 -1.715,-8.788 -4.325,-17.428 -7.756,-25.844 -1.715,-4.171 -3.729,-8.268 -5.817,-12.29 -2.163,-4.022 -4.549,-7.895 -7.159,-11.693 -6.488,-8.9381 -13.872,-17.28 -22.15,-24.8026 z"
           fill="#ed1d49"
           id="path15" />
        <path
           d="m 405.848,234.489 c 0,0 -0.074,-0.149 -0.149,-0.223 z"
           fill="#ffffff"
           id="path16" />
        <path
           d="m 406.147,235.084 -0.298,-0.596 c 0,0 0.223,0.373 0.298,0.596 z"
           fill="#ffffff"
           id="path17" />
        <path
           d="m 367.59,230.389 c 3.132,5.437 5.593,11.172 7.458,17.131 3.505,-4.544 8.278,-8.044 13.722,-10.204 5.519,-2.16 11.485,-2.905 17.377,-2.16 -16.482,-10.427 -31.696,-7.15 -38.631,-4.692 z"
           fill="#ffffff"
           id="path18" />
        <path
           d="m 328.362,220.857 c -39.526,-45.806 -126.93,-56.904 -183.758,1.266 9.546,-5.512 26.401,-8.715 45.791,-2.979 h 0.224 c 33.335,-32.474 99.336,-18.397 133.045,20.78 2.386,-6.108 3.952,-12.513 4.698,-18.993 z"
           fill="#ffffff"
           id="path19" />
        <path
           d="m 194.05,400.879 c -7.085,-5.884 -14.543,-11.396 -22.373,-16.535 -15.661,-10.204 -32.367,-18.918 -49.892,-25.994 -17.6,-7.076 -35.9463,-12.587 -54.5905,-16.46 -15.5866,-3.278 -31.3969,-5.438 -47.2818,-6.629 1.4169,-5.586 3.0576,-11.098 4.9966,-16.61 5.6679,-16.534 13.051,-32.473 22.1494,-47.593 2.2373,-3.798 4.6238,-7.448 7.0848,-11.098 1.2678,-1.787 2.4611,-3.575 3.7289,-5.362 l 1.939,-2.607 c 0.5966,-0.819 1.3424,-1.788 1.8644,-2.458 l 11.1866,-13.556 -18.0477,1.267 -8.2035,0.595 c 0,0 0.0746,-0.148 0.1492,-0.223 3.2068,-4.022 6.6373,-7.82 10.217,-11.47 3.6543,-3.724 7.5323,-7.225 11.4849,-10.725 2.0136,-1.713 4.0272,-3.426 6.0407,-5.065 2.0136,-1.639 4.1764,-3.352 6.1899,-4.767 l 3.2068,-2.309 -0.1491,-3.873 v -3.5 c 0,-1.192 0,-2.458 0.1491,-3.65 0.0746,-2.458 0.2984,-4.916 0.4475,-7.374 0.4475,-4.915 1.0441,-9.831 1.8644,-14.672 1.5662,-9.683 4.0272,-19.216 7.3086,-28.527 3.2068,-9.161 7.6068,-17.875 13.1258,-25.994 4.549,-6.703 10.142,-12.736 16.556,-17.9494 5.444,2.0109 10.739,4.2454 15.959,6.7034 6.563,3.054 12.977,6.405 19.241,10.055 6.19,3.649 12.156,7.597 17.899,11.917 2.834,2.16 5.593,4.32 8.203,6.629 1.343,1.117 2.61,2.309 3.878,3.5 l 1.79,1.788 0.82,0.894 0.746,0.744 3.431,3.65 C 166.68,97.2192 120.517,80.4609 120.517,80.4609 l -3.58,2.5324 c -9.471,6.7778 -17.5998,15.0452 -23.9389,24.4297 -6.1899,9.161 -11.1865,19.067 -14.7662,29.346 -3.5797,10.129 -6.2645,20.556 -7.9797,31.058 -0.8204,5.288 -1.4916,10.502 -1.9391,15.79 -0.2237,2.682 -0.3728,5.288 -0.522,7.97 0,1.34 -0.0746,2.681 -0.1491,4.022 v 0.298 c -1.2679,0.968 -2.4611,1.936 -3.6543,2.904 -2.2373,1.788 -4.4001,3.575 -6.4882,5.438 -4.2509,3.724 -8.4272,7.522 -12.3798,11.544 -4.0272,4.022 -7.8306,8.342 -11.3357,12.736 -3.7288,4.618 -6.9357,9.534 -9.6204,14.748 l -5.9662,11.768 13.8713,-0.969 7.1594,-0.521 c -2.1627,3.277 -4.3254,6.629 -6.339,9.98 -9.6205,16.014 -17.451,32.921 -23.4172,50.35 -2.98308,8.788 -5.44412,17.652 -7.4577,26.738 L 0.0751953,349.71 H 9.84478 c 18.42052,-0.298 36.91562,0.745 55.18702,3.277 18.3459,2.533 36.3932,6.704 53.9192,12.364 17.6,5.735 34.604,13.109 50.638,22.046 8.054,4.469 15.81,9.46 23.268,14.748 7.532,5.288 14.542,11.246 21.03,17.652 -5.966,-6.853 -12.603,-13.258 -19.762,-19.142 z"
           fill="#0f0f19"
           id="path20" />
        <path
           d="m 352.674,200.073 c 0.597,6.331 -0.298,12.737 -2.61,18.77 -9.024,-14.003 -32.963,-29.048 -32.963,-29.048 0,0 1.566,21.45 -4.326,36.719 l 11.858,10.651 c 1.79,-5.288 3.058,-10.725 3.654,-16.237 10.74,5.661 19.316,14.3 24.611,24.728 7.98,-9.012 10.068,-22.27 10.068,-22.27 4.027,5.437 7.308,11.321 9.695,17.577 l 10.59,-5.064 c -8.353,-22.568 -30.577,-35.751 -30.577,-35.751 z"
           fill="#ffffff"
           id="path21" />
        <path
           d="m 1560.67,168.865 -1.11,6.555 9.32,15.864 c 12.08,-8.193 22.59,-15.939 31.17,-22.419 z"
           fill="#ed1d49"
           id="path22" />
        <path
           d="m 1611.83,177.808 12.61,-28.527 c -11.41,13.258 -22.08,27.037 -32,41.263 -4.25,5.809 -8.72,11.991 -13.2,18.397 l 22.75,38.581 c 13.65,-9.087 25.58,-17.652 35.27,-24.951 l -25.58,-44.838 z"
           fill="#ed1d49"
           id="path23" />
        <path
           d="m 1630.55,314.257 c -3.2,4.394 -6.56,9.012 -9.99,13.779 h 21.78 l 2.53,-15.492 17.53,-39.624 c -11.41,13.258 -22.08,27.037 -31.92,41.262 z"
           fill="#ed1d49"
           id="path24" />
        <path
           d="m 1695.14,168.869 -37.67,42.008 c -10.51,13.257 -28.78,37.017 -45.56,62.191 l -7.76,46.253 c 21.55,-14.449 38.63,-27.409 49.37,-35.974 l 2.84,-17.205 83.45,-90.793 1.12,-6.554 h -45.87 z"
           fill="#ed1d49"
           id="path25" />
        <path
           d="m 1503.77,168.865 h -103.21 l -26.48,159.241 h 43.33 l 9.32,-55.787 h 25.28 l 30.58,44.317 c 13.95,-9.31 26.18,-18.025 36.1,-25.473 l -14.47,-20.035 c 15.21,-2.235 27.44,-7.448 36.69,-15.492 9.17,-8.119 14.84,-18.621 17,-31.58 l 0.38,-2.458 c 2.68,-16.312 -0.75,-29.122 -10.52,-38.581 -9.69,-9.385 -24.39,-14.077 -43.93,-14.077 z m 10.44,52.435 -0.45,2.458 c -0.29,2.234 -1.04,4.469 -2.23,6.405 -1.2,1.937 -2.84,3.65 -4.78,4.99 -3.87,2.607 -9.09,3.873 -15.58,3.873 h -58.84 l 5.44,-32.771 h 58.84 c 13.42,0 19.24,4.99 17.6,15.045 z"
           fill="#ed1d49"
           id="path26" />
        <path
           d="m 1515.33,309.714 c -4.25,5.809 -8.72,11.917 -13.12,18.322 h 37.36 l 1.12,-6.554 -10.44,-14.45 17.15,-38.581 c -11.41,13.258 -22.15,27.037 -31.99,41.263 z"
           fill="#ed1d49"
           id="path27" />
        <path
           d="m 666.346,260.776 c 2.76,5.809 3.505,12.587 2.238,20.408 l -0.448,2.458 c -0.969,6.554 -3.431,12.81 -7.159,18.396 -3.729,5.587 -8.726,10.353 -14.617,14.003 -12.156,7.82 -27.818,11.768 -46.909,11.768 H 496.907 l 26.55,-159.241 h 97.546 c 19.465,0 33.858,3.724 43.255,11.173 9.397,7.448 12.902,18.024 10.665,31.728 l -0.373,2.458 c -0.97,6.629 -3.505,12.96 -7.309,18.621 -3.878,5.586 -8.949,10.352 -14.99,13.928 6.19,3.277 11.112,8.341 14.095,14.374 z m -105.601,-55.339 -4.176,25.249 h 54.143 c 6.04,0 10.664,-0.969 13.796,-2.831 1.567,-0.968 2.909,-2.16 3.879,-3.724 0.969,-1.489 1.64,-3.202 1.789,-4.916 l 0.373,-2.457 c 1.268,-7.597 -3.952,-11.396 -15.735,-11.396 h -54.143 z m 64.211,70.905 c 1.342,-7.895 -3.953,-11.916 -15.885,-11.916 h -58.095 l -4.4,26.44 h 58.095 c 11.932,0 18.57,-4.022 19.912,-12.14 l 0.373,-2.458 z"
           fill="#0f0f19"
           id="path28" />
        <path
           d="M 703.933,168.496 H 850.03 l -6.265,37.166 H 741.073 l -4.028,24.058 h 97.845 l -6.115,36.644 h -97.77 l -4.027,24.281 H 829.67 l -6.19,37.166 H 677.384 l 26.475,-159.24 z"
           fill="#0f0f19"
           id="path29" />
        <path
           d="m 920.43,206.926 h -59.587 l 6.413,-38.358 h 162.504 l -6.34,38.358 h -59.586 l -20.136,120.883 h -43.404 z"
           fill="#0f0f19"
           id="path30" />
        <path
           d="m 1048.03,168.496 h 146.32 l -6.41,38.358 h -102.99 l -4.33,25.994 h 98.07 l -6.41,38.358 h -98.07 l -9.4,56.531 h -43.48 l 26.55,-159.241 z"
           fill="#ed1d49"
           id="path31" />
        <path
           d="m 1228.81,321.33 c -11.19,-6.182 -19.69,-15.865 -24.17,-27.335 -4.7,-11.768 -5.81,-25.472 -3.2,-41.039 l 14.09,-84.536 h 43.41 l -14.17,85.207 c -2.02,12.14 -0.3,21.376 5.22,27.632 5.51,6.256 14.61,9.459 27.37,9.459 12.9,0 23.11,-3.128 30.72,-9.459 7.61,-6.331 12.38,-15.567 14.39,-27.707 l 14.1,-85.206 h 43.48 l -14.1,84.461 c -2.61,15.641 -8.27,29.42 -17,41.114 -8.5,11.544 -19.99,20.929 -33.41,27.185 -13.95,6.48 -29.38,9.757 -44.97,9.608 -16.48,0 -30.43,-3.202 -41.76,-9.608 z"
           fill="#ed1d49"
           id="path32" />
      </g>
    </g>
  </g>
  <defs
     id="defs34">
    <clipPath
       id="clip0_4710_39">
      <rect
         width="1741"
         height="500"
         fill="#ffffff"
         id="rect33"
         x="0"
         y="0" />
    </clipPath>
    <clipPath
       id="clip1_4710_39">
      <rect
         width="1741"
         height="343.358"
         fill="#ffffff"
         transform="translate(0,78)"
         id="rect34"
         x="0"
         y="0" />
    </clipPath>
  </defs>
</svg>
