<?xml version="1.0" encoding="utf-8"?>
<!-- Generator: Adobe Illustrator 27.4.1, SVG Export Plug-In . SVG Version: 6.00 Build 0)  -->
<svg version="1.1" id="Шар_1" xmlns="http://www.w3.org/2000/svg" xmlns:xlink="http://www.w3.org/1999/xlink" x="0px" y="0px"
	 viewBox="0 0 220 75" style="enable-background:new 0 0 220 75;" xml:space="preserve">
<style type="text/css">
	.st0{fill:#E52521;}
	.st1{fill-rule:evenodd;clip-rule:evenodd;fill:#EEF7F9;}
	.st2{fill:#EEF7F9;}
</style>
<path class="st0" d="M183.3,33.9h8.3c1.9,0,3.6,0.4,5,1.1c1.4,0.7,2.4,1.8,3,3.1c0.6,1.3,0.8,2.9,0.5,4.7c-0.3,1.8-0.9,3.4-1.9,4.7
	c-1,1.3-2.3,2.4-3.9,3.1c-1.6,0.7-3.4,1.1-5.3,1.1h-8.3L183.3,33.9z M153.5,47.1h-2.7l-0.7,4.8h-5l2.7-17.9h8c1.6,0,2.9,0.3,4,0.8
	c1.1,0.5,1.9,1.3,2.4,2.3c0.5,1,0.6,2.2,0.4,3.5c-0.2,1.3-0.7,2.4-1.4,3.4c-0.7,1-1.7,1.7-2.9,2.3l2.9,5.6H156L153.5,47.1z
	 M157.6,40.5c0.1-0.8,0-1.5-0.5-1.9c-0.5-0.5-1.2-0.7-2.2-0.7h-2.8l-0.8,5.2h2.8c1,0,1.8-0.2,2.4-0.7
	C157.2,42,157.5,41.4,157.6,40.5z M178.4,47.9l-0.6,3.9h-14.1l2.7-17.9h13.8l-0.6,3.9h-8.9l-0.5,3h7.8l-0.6,3.8h-7.8l-0.5,3.3H178.4
	z M189.3,47.8c1.5,0,2.8-0.4,3.8-1.3c1.1-0.9,1.7-2.1,1.9-3.6c0.2-1.5,0-2.7-0.8-3.6c-0.8-0.9-1.9-1.3-3.4-1.3h-3.1l-1.5,9.8H189.3z
	"/>
<path class="st1" d="M97.1,29.2c-2.4,0-4.6,2-5,4.4l-2.7,17.8c-0.4,2.4,1.3,4.4,3.7,4.4H133c2.4,0,4.6-2,5-4.4l2.7-17.8
	c0.4-2.4-1.3-4.4-3.7-4.4H97.1z M98.9,50.9c1.4,0.8,3,1.2,4.8,1.2c1.9,0,3.6-0.4,5.2-1.2c1.6-0.8,2.9-1.9,4-3.3c1.1-1.4,1.7-3,2-4.8
	c0.3-1.8,0.1-3.4-0.6-4.8c-0.6-1.4-1.6-2.5-3-3.3c-1.3-0.8-2.9-1.2-4.8-1.2c-1.9,0-3.6,0.4-5.2,1.2c-1.6,0.8-2.9,1.9-4,3.3
	c-1,1.4-1.7,3-2,4.8c-0.3,1.8-0.1,3.4,0.5,4.8C96.6,49,97.6,50.1,98.9,50.9z M106.9,47.3c-0.8,0.4-1.6,0.6-2.5,0.6
	c-0.9,0-1.7-0.2-2.3-0.6c-0.7-0.4-1.1-1-1.4-1.8c-0.3-0.8-0.4-1.7-0.2-2.7c0.2-1,0.5-1.9,1-2.7c0.5-0.8,1.2-1.4,2-1.8
	c0.8-0.4,1.6-0.6,2.5-0.6c0.9,0,1.7,0.2,2.3,0.6c0.6,0.4,1.1,1,1.4,1.8c0.3,0.8,0.4,1.7,0.2,2.7c-0.1,1-0.5,1.9-1,2.7
	C108.3,46.2,107.7,46.8,106.9,47.3z M132.9,51.7l2.7-17.9h-4.9l-1.4,9.5l-6.3-9.5h-4.1l-2.7,17.9h4.9l1.4-9.5l6.3,9.5H132.9z"/>
<path class="st1" d="M33.4,19l3.1,9.8l10.1,0L42,32.2l-0.6,0h-9l-1.2,8l-6,4.4l3.1-9.7l-8.2-6l10.1,0L33.4,19L33.4,19z"/>
<path class="st2" d="M41,48.2c1.7,0,2.7-0.6,2.9-1.8c0.2-1.2-0.6-1.8-2.3-1.8h-4.2l-0.5,3.6H41z M38.5,37.6L38,41h3.4
	c1.7,0,2.6-0.6,2.8-1.7c0.2-1.1-0.6-1.7-2.2-1.7H38.5z M46.3,42.5c1,0.4,1.7,0.9,2.1,1.7c0.5,0.7,0.6,1.7,0.4,2.7
	c-0.2,1.6-1,2.8-2.4,3.6c-1.4,0.9-3.2,1.3-5.6,1.3h-9.5l2.7-17.9h9c2.2,0,3.9,0.4,4.9,1.3c1,0.8,1.5,2,1.2,3.4
	c-0.1,0.9-0.5,1.6-1,2.3C47.8,41.6,47.1,42.1,46.3,42.5z"/>
<path class="st2" d="M65.4,47.9l-0.6,3.9H50.7l2.7-17.9h13.8l-0.6,3.9h-8.9l-0.5,3h7.8l-0.6,3.8h-7.8l-0.5,3.3H65.4z"/>
<path class="st2" d="M74.9,37.9h-5.4l0.6-4h15.8l-0.6,4h-5.4l-2.1,13.9h-5L74.9,37.9z"/>
</svg>
