<?xml version="1.0" encoding="utf-8"?>
<!-- Generator: Adobe Illustrator 27.9.0, SVG Export Plug-In . SVG Version: 6.00 Build 0)  -->
<svg version="1.1" id="Шар_1" xmlns="http://www.w3.org/2000/svg" xmlns:xlink="http://www.w3.org/1999/xlink" x="0px" y="0px"
	 viewBox="0 0 220 75" style="enable-background:new 0 0 220 75;" xml:space="preserve">
<style type="text/css">
	.st0{fill:url(#SVGID_1_);}
	.st1{fill:url(#SVGID_00000108274713833806723130000011963412567434858646_);}
	.st2{fill:url(#SVGID_00000075864898776058407060000009587178235959859841_);}
</style>
<path d="M99.76,32.57c-0.89-1.65-2.11-2.94-3.64-3.83c-1.53-0.9-3.28-1.35-5.18-1.35c-1.62,0-3.1,0.33-4.41,0.98
	c-1.31,0.65-2.36,1.5-3.11,2.51l-0.48,0.67v-9.03c0-0.23-0.19-0.42-0.43-0.42h-3.19c-0.24,0-0.43,0.19-0.43,0.42v26.13
	c0,0.23,0.19,0.42,0.43,0.42h3.19c0.24,0,0.43-0.19,0.43-0.42v-3.28L83.43,46c0.75,1,1.78,1.83,3.07,2.46
	c1.29,0.64,2.79,0.97,4.45,0.97c1.88,0,3.61-0.48,5.16-1.42c1.54-0.93,2.78-2.26,3.67-3.94c0.89-1.69,1.34-3.63,1.34-5.77
	C101.1,36.16,100.65,34.24,99.76,32.57z M95.99,42.39c-0.65,1.18-1.53,2.09-2.59,2.7c-1.07,0.61-2.24,0.93-3.46,0.93
	c-1.19,0-2.35-0.31-3.41-0.91c-1.07-0.6-1.95-1.5-2.6-2.66c-0.64-1.15-0.98-2.52-0.98-4.08c0-1.54,0.33-2.9,0.98-4.06
	c0.65-1.14,1.53-2.03,2.6-2.64c2.17-1.21,4.75-1.18,6.86-0.02c1.07,0.59,1.95,1.47,2.6,2.61c0.64,1.13,0.98,2.49,0.98,4.03
	S96.63,41.22,95.99,42.39z"/>
<path d="M125.02,37.79c0-2.09-0.44-3.94-1.32-5.53c-0.87-1.59-2.11-2.83-3.67-3.71c-1.57-0.87-3.39-1.32-5.4-1.32
	c-2.09,0-3.96,0.46-5.58,1.36c-1.6,0.9-2.86,2.2-3.75,3.87c-0.89,1.67-1.34,3.64-1.34,5.84c0,2.21,0.47,4.18,1.39,5.85
	c0.91,1.66,2.18,2.98,3.79,3.89c1.61,0.92,3.46,1.38,5.5,1.38c2.5,0,4.63-0.64,6.31-1.89c1.4-1.04,2.46-2.35,3.13-3.89
	c0.13-0.28-0.1-0.6-0.39-0.6h-3.47c-0.15,0-0.29,0.09-0.36,0.21c-1.08,1.9-2.83,2.86-5.22,2.86c-1.76,0-3.26-0.56-4.47-1.67
	c-1.22-1.11-1.9-2.59-2.03-4.41l-0.02-0.29h16.41c0.21,0,0.4-0.16,0.42-0.37C125,38.89,125.02,38.35,125.02,37.79z M120.82,36.61
	h-12.7l0.04-0.3c0.21-1.76,0.91-3.18,2.06-4.22c1.16-1.03,2.57-1.56,4.19-1.56c1.79,0,3.3,0.53,4.51,1.59
	c1.22,1.06,1.85,2.49,1.88,4.24V36.61z"/>
<path d="M133.93,30.88V43.5c0,0.92,0.22,1.59,0.66,2.01c0.44,0.41,1.14,0.61,2.15,0.61h2.1c0.23,0,0.42,0.19,0.42,0.43V49
	c0,0.24-0.19,0.43-0.42,0.43h-2.89c-1.97,0-3.48-0.46-4.52-1.39c-1.02-0.92-1.54-2.44-1.54-4.54V30.88h-2.16
	c-0.23,0-0.42-0.19-0.42-0.43v-2.36c0-0.24,0.19-0.43,0.42-0.43h2.16v-5.12c0-0.24,0.19-0.43,0.42-0.43h3.2
	c0.23,0,0.42,0.19,0.42,0.43v5.12h4.9c0.23,0,0.42,0.19,0.42,0.43v2.36c0,0.24-0.19,0.43-0.42,0.43H133.93z"/>
<path d="M159.18,43.18c0,1.18-0.35,2.27-1.03,3.2c-0.68,0.94-1.68,1.68-2.93,2.22c-1.27,0.54-2.79,0.82-4.51,0.82
	c-1.74,0-3.33-0.31-4.71-0.92c-1.37-0.61-2.47-1.44-3.27-2.48c-0.64-0.82-1.04-1.72-1.2-2.7c-0.04-0.26,0.18-0.49,0.44-0.49h3.5
	c0.21,0,0.37,0.14,0.43,0.34c0.2,0.76,0.66,1.42,1.39,1.95c0.89,0.66,2.02,0.99,3.34,0.99c1.38,0,2.47-0.27,3.24-0.79
	c0.81-0.54,1.21-1.26,1.21-2.12c0-0.93-0.46-1.63-1.37-2.08c-0.83-0.4-2.15-0.85-3.93-1.34c-1.7-0.45-3.09-0.88-4.16-1.3
	c-1.03-0.42-1.93-1.05-2.69-1.89c-0.74-0.82-1.11-1.94-1.11-3.3c0-1.11,0.35-2.14,1.04-3.06c0.68-0.93,1.68-1.67,2.97-2.2
	c1.29-0.54,2.81-0.82,4.51-0.82c2.51,0,4.57,0.62,6.1,1.83c1.32,1.06,2.12,2.48,2.37,4.22c0.03,0.26-0.18,0.48-0.44,0.48h-3.32
	c-0.21,0-0.39-0.15-0.43-0.35c-0.19-0.79-0.61-1.44-1.25-1.94c-0.79-0.63-1.88-0.95-3.2-0.95c-1.3,0-2.32,0.24-3.02,0.73
	c-0.74,0.5-1.11,1.18-1.11,2c0,0.64,0.27,1.23,0.75,1.68c0.46,0.43,1.05,0.76,1.71,1c0.64,0.22,1.6,0.52,2.85,0.86
	c1.63,0.43,2.99,0.85,4.04,1.29c1.03,0.43,1.92,1.05,2.66,1.87C158.78,40.76,159.15,41.84,159.18,43.18z"/>
<path d="M162.86,48.69c-0.55-0.5-0.83-1.1-0.83-1.82c0-0.72,0.27-1.34,0.83-1.82c0.55-0.5,1.23-0.74,2.04-0.74
	c0.78,0,1.45,0.24,2.01,0.74c0.55,0.5,0.83,1.1,0.83,1.82c0,0.72-0.27,1.34-0.83,1.82c-0.55,0.5-1.22,0.74-2.01,0.74
	C164.08,49.43,163.4,49.19,162.86,48.69z"/>
<path d="M175.7,21.81c0,0.74-0.24,1.34-0.74,1.83c-0.51,0.49-1.09,0.73-1.8,0.73c-0.75,0-1.35-0.24-1.84-0.73
	c-0.5-0.49-0.75-1.09-0.75-1.83c0-0.73,0.25-1.33,0.75-1.82c0.5-0.49,1.1-0.74,1.84-0.74c0.71,0,1.29,0.25,1.8,0.74
	C175.46,20.48,175.7,21.08,175.7,21.81z"/>
<path d="M175.13,27.66v21.33c0,0.24-0.19,0.44-0.42,0.44h-3.14c-0.23,0-0.42-0.2-0.42-0.44V27.66c0-0.24,0.19-0.44,0.42-0.44h3.14
	C174.94,27.22,175.13,27.42,175.13,27.66z"/>
<path d="M198.72,32.48c-0.96-1.68-2.31-2.99-3.98-3.89c-1.68-0.9-3.59-1.36-5.66-1.36c-2.08,0-3.99,0.46-5.66,1.36
	c-1.68,0.9-3.02,2.21-3.99,3.89c-0.97,1.68-1.47,3.64-1.47,5.82c0,2.21,0.49,4.18,1.42,5.85c0.95,1.66,2.26,2.97,3.91,3.89
	c1.65,0.92,3.52,1.38,5.57,1.38c2.08,0,4-0.47,5.72-1.39c1.71-0.92,3.08-2.23,4.08-3.92c0.99-1.68,1.5-3.64,1.5-5.82
	S199.69,34.16,198.72,32.48z M194.98,42.51c-0.67,1.16-1.55,2.03-2.63,2.62c-1.08,0.57-2.24,0.87-3.47,0.87
	c-1.93,0-3.56-0.68-4.83-2.02c-1.27-1.34-1.92-3.25-1.92-5.68c0-1.63,0.31-3.03,0.93-4.18c0.61-1.14,1.45-2.02,2.51-2.6
	c1.05-0.59,2.2-0.87,3.43-0.87c1.23,0,2.39,0.29,3.45,0.87c1.07,0.57,1.93,1.45,2.58,2.6c0.63,1.14,0.97,2.55,0.97,4.18
	C195.99,39.94,195.65,41.35,194.98,42.51z"/>
<linearGradient id="SVGID_1_" gradientUnits="userSpaceOnUse" x1="66.4265" y1="54.5938" x2="10.5028" y2="10.5545" gradientTransform="matrix(1 0 0 -1 0 75)">
	<stop  offset="0" style="stop-color:#35C31E"/>
	<stop  offset="1" style="stop-color:#008106"/>
</linearGradient>
<path class="st0" d="M60.61,39.4l-3.59-2.06l-4.98-2.85l-0.01,0.01L37.13,26v-0.02l-4.98-2.84v32.51c0,2.03,1.06,3.85,2.86,4.89
	c0.87,0.49,1.86,0.76,2.85,0.76c0.98,0,1.96-0.27,2.86-0.76l19.91-11.38c1.78-1.01,2.85-2.84,2.85-4.89
	C63.45,42.24,62.39,40.41,60.61,39.4z M58.12,44.88L38.19,56.25c-0.3,0.18-0.57,0.07-0.7,0c-0.1-0.06-0.36-0.23-0.36-0.6V31.71
	l9.89,5.64l5,2.84l6.08,3.48c0.31,0.18,0.36,0.48,0.36,0.61C58.47,44.42,58.42,44.71,58.12,44.88z"/>
<linearGradient id="SVGID_00000183234218364656079000000003070990458002038438_" gradientUnits="userSpaceOnUse" x1="36.5367" y1="54.2793" x2="35.1859" y2="20.7259" gradientTransform="matrix(1 0 0 -1 0 75)">
	<stop  offset="0" style="stop-color:#35C31E"/>
	<stop  offset="1" style="stop-color:#008106"/>
</linearGradient>
<path style="fill:url(#SVGID_00000183234218364656079000000003070990458002038438_);" d="M51.91,40.1L32.29,51.11l-1.7,0.96
	l-1.88,1.06c-0.88,0.49-1.87,0.76-2.85,0.76c-0.97,0-1.95-0.26-2.83-0.76c-1.78-1.01-2.85-2.81-2.85-4.82V25.88
	c0-2.01,1.05-3.81,2.85-4.82c1.77-1.01,3.89-1.01,5.67,0l3.59,2.03v5.63l-6.07-3.42c-0.25-0.15-0.49-0.14-0.71,0
	c-0.11,0.05-0.35,0.22-0.35,0.59v22.44c0,0.37,0.25,0.54,0.35,0.59c0.09,0.06,0.38,0.19,0.71,0l4.36-2.46l1.7-0.96l14.6-8.23
	L51.91,40.1z"/>
<linearGradient id="SVGID_00000154418898918473389260000011649688184806575504_" gradientUnits="userSpaceOnUse" x1="45.0623" y1="65.6781" x2="48.5012" y2="30.2116" gradientTransform="matrix(1 0 0 -1 0 75)">
	<stop  offset="0" style="stop-color:#35C31E"/>
	<stop  offset="1" style="stop-color:#008106"/>
</linearGradient>
<path style="fill:url(#SVGID_00000154418898918473389260000011649688184806575504_);" d="M63.46,29.92c0,2.04-1.06,3.86-2.85,4.89
	l-3.99,2.29l-5.13-2.85l6.61-3.71c0.3-0.18,0.36-0.46,0.36-0.61c0-0.12-0.04-0.42-0.36-0.61L38.19,17.96
	c-0.29-0.18-0.63-0.05-0.69-0.01c-0.11,0.06-0.37,0.23-0.37,0.61v24.18l-4.98,2.82V18.55c0-2.03,1.06-3.86,2.86-4.89
	c1.77-1.02,3.92-1.02,5.7,0l19.92,11.37C62.4,26.06,63.46,27.89,63.46,29.92z"/>
</svg>
