<?xml version="1.0" encoding="UTF-8" standalone="no"?>
<svg
   width="220"
   height="75"
   viewBox="0 0 220 75"
   fill="none"
   version="1.1"
   id="svg7"
   xmlns="http://www.w3.org/2000/svg"
   xmlns:svg="http://www.w3.org/2000/svg">
  <g
     id="g7"
     transform="matrix(1.428573,0,0,1.428573,-46.428657,-15.683282)">
    <path
       d="m 182.968,21.4598 c -0.239,0.7431 -0.449,1.3978 -0.702,2.1335 -0.184,0.5408 -0.555,0.8608 -1.143,0.8976 -0.989,0.0037 -4.701,0.0588 -5.785,0.0625 -0.985,0.0552 -1.555,0.5297 -1.735,1.4972 -0.272,1.4566 -0.515,2.917 -0.772,4.3774 -0.382,2.1887 -0.757,4.381 -1.158,6.5661 -0.239,1.2911 0.184,1.8392 1.493,1.8355 0.477,0 0.959,0.0074 1.437,-0.0184 1.069,-0.0588 1.775,-0.6216 2.006,-1.6626 0.228,-1.1551 0.35,-1.9276 0.526,-2.8877 0.037,-0.1986 -0.037,-0.2648 -0.228,-0.2611 -0.331,0.0073 -0.819,0.0147 -1.15,0 -0.772,-0.0331 -0.868,-0.298 -0.857,-1.0558 0.008,-0.6768 0.03,-1.3536 0.019,-2.0268 0,-0.2612 0.106,-0.3421 0.342,-0.3458 0.937,-0.0037 5.244,0.0074 5.744,0.0074 0.5,0 0.787,0.3458 0.721,0.8865 -0.074,0.618 -0.188,1.2286 -0.291,1.8429 -0.275,1.6296 -0.555,3.2592 -0.834,4.8924 -0.202,1.1734 -0.415,2.3432 -0.607,3.5203 -0.04,0.2428 -0.117,0.3348 -0.374,0.3274 -0.6,-0.0184 -1.195,0.0074 -1.794,0 -0.75,-0.011 -0.963,-0.2244 -1.036,-0.9601 -0.019,-0.1949 -0.041,-0.434 -0.067,-0.6768 -0.014,-0.1435 -0.224,-0.1692 -0.319,-0.0111 -0.662,1.0852 -2.007,1.8135 -2.959,1.8945 -0.948,0.0809 -1.863,0.0588 -2.79,0.0073 -1.058,-0.0625 -2.047,-0.3531 -2.76,-1.2139 -0.522,-0.6327 -0.706,-1.3831 -0.764,-2.174 -0.074,-1.0152 0.084,-2.0084 0.257,-3.0016 0.47,-2.7258 0.937,-5.4515 1.397,-8.1773 0.194,-1.1624 0.404,-2.3174 0.907,-3.4026 0.805,-1.7326 2.169,-2.7515 4.029,-3.0862 0.753,-0.1361 1.532,-0.1766 2.297,-0.2097 0.915,-0.0368 1.837,-0.0147 2.753,-0.0221 1.315,-0.0037 2.488,-0.011 3.804,-0.0147 0.378,0 0.499,0.0956 0.382,0.4561 M 51.9401,24.421 c 0.2316,1.6774 -0.1286,3.329 -0.8049,4.8813 -0.4263,0.9822 -1.2827,1.7768 -2.3265,1.9864 -0.2242,0.0442 -0.3896,0.0442 -0.3749,0.2465 0.011,0.1471 0.0882,0.1435 0.3345,0.217 0.8306,0.2502 1.4518,0.7541 1.7862,1.5744 0.25,0.6143 0.3235,1.2654 0.2536,1.9128 -0.147,1.3684 -0.3234,2.7368 -0.7865,4.0427 -0.6726,1.9054 -2.0729,2.9465 -4.0429,3.2738 -1.5327,0.2539 -3.0763,0.1325 -4.6163,0.1692 -0.2647,0.0074 -0.533,0 -0.7976,0 -1.4224,0.0074 -2.8447,0.0074 -4.2671,0.0258 -0.2683,0 -0.3308,-0.0625 -0.283,-0.3311 0.3087,-1.7436 0.5991,-3.4945 0.8968,-5.2418 0.5072,-2.9869 1.0144,-5.9739 1.5216,-8.9571 0.3491,-2.0489 0.702,-4.0942 1.0475,-6.1431 0.0367,-0.2207 0.0624,-0.3862 0.3712,-0.3862 2.8447,0.0147 5.6895,0.0478 8.5342,0.0367 2.0215,-0.0073 3.3299,1.0521 3.5541,2.6853 m -6.9648,8.9829 c -0.9299,0.0037 -1.7569,0.0074 -2.6316,0 -0.2426,0 -0.3528,0.0662 -0.3969,0.32 -0.2978,1.762 -0.6102,3.5203 -0.9226,5.2787 -0.0441,0.2501 0.0405,0.3273 0.2904,0.3237 0.8527,-0.0111 2.2824,-0.0258 3.1498,-0.0626 0.7093,-0.0294 1.2019,-0.4524 1.3562,-1.1513 0.1911,-0.8645 0.4337,-2.3469 0.5807,-3.2224 0.1875,-1.1182 -0.4888,-1.4898 -1.4187,-1.4861 m 1.3342,-8.2766 c -0.849,-0.0147 -1.7017,0.011 -2.5507,-0.0037 -0.2573,-0.0037 -0.3529,0.103 -0.3896,0.3274 -0.2536,1.4567 -0.5109,2.9171 -0.7719,4.3737 -0.0367,0.2097 0.0221,0.2833 0.239,0.2833 0.5807,0 1.8156,-0.0184 2.3926,-0.0184 0.9997,-0.0037 1.5952,-0.4893 1.8341,-1.4567 0.18,-0.7173 0.2866,-1.453 0.3859,-2.185 0.1213,-0.8865 -0.2463,-1.3059 -1.1357,-1.3206 m 58.2915,-3.7006 c -1.411,0.0295 -2.819,0.0111 -4.227,0.081 -1.1683,0.0588 -2.0283,0.6621 -2.5319,1.7252 -0.2315,0.4892 -0.452,0.9858 -0.6579,1.4898 -0.4961,1.2176 -1.132,2.6926 -1.5436,3.6674 -0.2205,0.526 -0.3749,0.9417 -0.4631,1.2286 -0.1838,0.6254 -0.3418,1.225 -0.4888,1.8099 -0.0368,0.1508 -0.272,0.1177 -0.2794,-0.0368 -0.0036,-0.1472 0.0956,-1.5597 0.1029,-1.74 0.0147,-0.423 0.0294,-0.8166 -0.011,-1.4566 -0.0955,-1.5855 -0.2426,-3.1709 -0.4116,-4.749 -0.1103,-1.0557 -0.555,-1.6994 -1.6723,-1.8613 -0.2095,-0.0294 -0.4227,-0.0699 -0.6322,-0.0699 -1.2754,-0.011 -2.5544,-0.0073 -3.8298,-0.0184 -0.2205,0 -0.2903,0.092 -0.3234,0.298 -0.1397,0.846 -2.9477,17.0755 -3.4953,20.2574 -0.0625,0.3679 0.0294,0.4893 0.408,0.4893 1.143,-0.0037 3.0469,0 3.3188,-0.0037 0.272,0 0.4485,-0.1067 0.5036,-0.423 0.4043,-2.4168 0.7939,-4.8299 1.2459,-7.2356 0.397,-2.1262 0.6543,-4.2634 0.7866,-6.419 0.0514,-0.8203 0.1249,-1.6369 0.2058,-2.4572 0.011,-0.0993 0.1176,-0.1876 0.1801,-0.2796 0.0992,0.0846 0.2095,0.1619 0.294,0.2612 0.0368,0.0405 0.0184,0.1287 0.0257,0.195 0.0442,0.4487 0.0883,0.8975 0.1324,1.3426 0.1801,1.8981 0.3601,3.7962 0.5439,5.6943 0.1029,1.0668 0.2132,2.1335 0.3271,3.2003 0.0552,0.4929 0.2463,0.6695 0.7535,0.6952 0.3602,0.0184 0.9887,0.0147 1.3599,0.0111 0.566,0 0.8269,-0.1104 1.0585,-0.6585 0.4631,-1.0999 4.5575,-10.4285 4.6126,-10.5536 0.099,-0.2317 0.566,-0.1618 0.493,0.1104 -0.269,0.9821 -0.5224,1.968 -0.7833,2.9538 -0.2684,1.0226 -0.5918,2.0379 -0.7903,3.0752 -0.4226,2.2513 -0.7828,4.5098 -1.1687,6.7684 -0.2059,1.2103 -0.4999,2.8877 -0.5513,3.2077 -0.0515,0.3237 0.0588,0.4524 0.3381,0.4524 0.2793,0 2.2751,-0.0147 3.5505,-0.0073 0.265,0 0.301,-0.1987 0.334,-0.401 0.353,-2.0746 3.194,-18.6168 3.499,-20.3641 0.037,-0.206 0.011,-0.2943 -0.216,-0.2906 m -20.0828,4.9108 c -0.283,1.8025 -1.5474,9.2109 -1.8929,11.109 -0.1506,0.835 -0.419,1.6406 -0.8122,2.3984 -0.8233,1.5854 -2.1464,2.5124 -3.8849,2.7993 -1.0695,0.1766 -5.0647,0.206 -5.9615,0.1214 -0.4704,-0.0404 -0.9446,-0.1729 -1.3819,-0.3458 -1.3195,-0.5149 -1.9333,-1.5486 -2.0619,-2.9096 -0.0993,-1.0374 0.0477,-2.0637 0.2242,-3.0789 0.3087,-1.7731 1.437,-8.3171 1.7237,-9.8106 0.2205,-1.1403 0.6212,-2.2181 1.3489,-3.1487 0.974,-1.2471 2.3118,-1.8687 3.8445,-2.0048 1.3598,-0.1214 4.4656,-0.0736 5.763,0.0625 1.4113,0.1508 2.6168,0.9969 2.9917,2.4388 0.2022,0.7799 0.2206,1.5781 0.0993,2.3653 m -4.473,-0.1949 c 0.0846,-0.8167 -0.3271,-1.2544 -1.1541,-1.2838 -0.7571,-0.0295 -1.5179,-0.0258 -2.2713,0.011 -0.7461,0.0368 -1.2754,0.423 -1.518,1.144 -0.0808,0.2354 -0.1433,0.4819 -0.1838,0.7283 -0.3859,2.2035 -0.7644,4.4069 -1.1393,6.6066 -0.2573,1.5008 -0.5146,2.998 -0.7682,4.4988 -0.158,0.9343 0.294,1.4824 1.2497,1.5119 0.3307,0.011 1.584,0 1.8744,0 1.132,-0.0184 1.7348,-0.4966 1.9406,-1.6002 0.2573,-1.3904 0.4852,-2.7883 0.7241,-4.1824 0.2756,-1.5891 0.5549,-3.1782 0.8269,-4.7673 0.1507,-0.8866 0.3271,-1.7694 0.419,-2.6633 m -11.934,-2.0967 c 0.2022,0.7798 0.2205,1.5781 0.0956,2.3653 -0.283,1.8024 -1.5474,9.2109 -1.8928,11.109 -0.1507,0.835 -0.419,1.6406 -0.8123,2.3984 -0.8233,1.5854 -2.1501,2.5124 -3.8849,2.7993 -1.0695,0.1766 -5.0647,0.206 -5.9615,0.1214 -0.4704,-0.0405 -0.9446,-0.1729 -1.3819,-0.3458 -1.3195,-0.515 -1.9333,-1.5486 -2.0619,-2.9097 -0.0993,-1.0373 0.0514,-2.0599 0.2242,-3.0789 0.3087,-1.773 1.4371,-8.317 1.7237,-9.8105 0.2206,-1.1403 0.6212,-2.2181 1.3489,-3.1488 0.974,-1.247 2.3118,-1.8687 3.8445,-2.0048 1.3599,-0.1213 4.4656,-0.0735 5.763,0.0626 1.4113,0.1508 2.6205,0.9968 2.9917,2.4388 m -4.3737,2.1703 c 0.0846,-0.8166 -0.3271,-1.2543 -1.154,-1.2838 -0.7572,-0.0294 -1.518,-0.0257 -2.2714,0.0111 -0.7425,0.0368 -1.2717,0.423 -1.518,1.144 -0.0808,0.2354 -0.1433,0.4819 -0.1837,0.7283 -0.3823,2.2034 -0.7608,4.4068 -1.1394,6.6066 -0.2573,1.5008 -0.5146,2.9979 -0.7682,4.4988 -0.158,0.9343 0.2941,1.4824 1.2497,1.5118 0.3307,0.0111 1.5841,0 1.8744,0 1.1357,-0.0184 1.7385,-0.4966 1.9406,-1.6001 0.2573,-1.3905 0.4852,-2.7883 0.7241,-4.1825 0.2756,-1.5891 0.555,-3.1782 0.8269,-4.7673 0.1507,-0.8865 0.3271,-1.7693 0.419,-2.6632 m 82.6302,-4.0574 c 0.151,1.8356 0.937,11.5542 1.61,19.7645 0.022,0.2796 -0.041,0.3642 -0.327,0.3605 -1.011,-0.011 -2.022,0.0074 -3.032,0.0037 -0.883,0 -1.213,-0.3384 -1.257,-1.2249 -0.048,-0.9527 -0.103,-1.9055 -0.155,-2.8582 -0.026,-0.423 -0.066,-0.4709 -0.507,-0.4709 -1.316,0 -2.635,0.0148 -3.951,0.0111 -0.338,0 -0.537,0.1287 -0.658,0.4488 -0.393,1.0263 -0.812,2.0415 -1.217,3.0641 -0.286,0.7321 -0.838,1.0668 -1.606,1.0705 -2.128,0.011 -4.256,0.0221 -6.384,0.0257 -0.158,0 -0.32,-0.0257 -0.478,-0.0368 -0.783,-0.0478 -1.143,-0.4929 -1.337,-1.2286 -0.203,-0.7725 -0.475,-1.6774 -0.614,-2.2806 -0.118,-0.5113 -0.103,-0.6842 0.301,-1.0374 0.404,-0.3531 2.525,-2.174 2.815,-2.4204 0.291,-0.2465 0.57,-0.1214 0.699,0.3347 0.257,0.9123 0.702,2.4609 1.025,3.5755 0.246,0.835 0.489,1.6737 0.735,2.5087 0.033,0 0.066,0 0.1,-0.0036 0.283,-0.6658 0.573,-1.3353 0.852,-2.0011 2.452,-5.79 7.333,-17.2816 7.542,-17.7708 0.206,-0.4856 0.654,-0.7504 1.22,-0.7541 1.21,0 2.422,-0.0184 3.632,-0.0147 0.661,0 0.944,0.2722 0.999,0.9307 m -3.543,6.0842 c 0.019,-0.8203 0.133,-2.277 0.14,-2.4425 0.004,-0.1656 -0.276,-0.2134 -0.309,-0.0479 -0.033,0.1692 -0.941,2.9612 -1.441,4.3701 -0.444,1.2617 -0.948,2.5013 -1.422,3.7484 -0.173,0.4487 -0.132,0.5113 0.331,0.5076 0.772,0 1.544,-0.0074 2.315,-0.011 0.548,0 0.581,-0.0405 0.555,-0.6033 -0.055,-1.2985 -0.106,-2.5934 -0.165,-4.0464 0,-0.3899 -0.015,-0.9343 -0.004,-1.475 z m 24.339,-7.0811 c -1.268,0.0073 -2.514,0.0073 -3.356,0.011 -0.434,0 -0.603,0.217 -0.676,0.6364 -0.331,1.957 -0.643,3.7116 -0.974,5.6685 -0.246,1.4494 -0.548,2.8913 -0.713,4.348 -0.21,1.854 -0.302,3.7815 -0.393,5.6465 -0.011,0.2575 -0.394,0.2869 -0.419,-0.0147 -0.574,-6.5551 -0.897,-10.5131 -1.265,-14.7802 -0.092,-1.0667 -0.577,-1.4861 -1.43,-1.4787 -1.165,0.0036 -4.009,0.0368 -4.7,0.022 -0.287,-0.0073 -0.383,0.092 -0.423,0.3716 -0.114,0.7982 -0.261,1.5928 -0.397,2.391 -0.397,2.3064 -2.771,16.1964 -3.051,17.8406 -0.077,0.4488 -0.066,0.4488 0.375,0.4488 0.996,0 1.996,-0.0073 2.992,-0.0147 0.871,-0.0037 0.86,-0.0073 1,-0.8571 0.264,-1.6038 1.411,-7.9087 1.606,-9.4684 0.198,-1.5891 0.268,-3.1929 0.39,-4.7894 0.036,-0.4635 0.055,-0.927 0.099,-1.3868 0.026,-0.2391 0.445,-0.2133 0.459,0.0184 0.074,1.1219 0.195,2.4683 0.28,3.5902 0.165,2.1666 0.709,9.4832 0.838,10.9729 0.099,1.1404 0.654,1.6848 1.797,1.8135 0.408,0.0442 0.819,0.0736 1.231,0.0773 1.011,0.0073 2.022,-0.0074 3.032,-0.0111 0.456,0 0.463,0 0.541,-0.4598 0.22,-1.2911 2.988,-17.5427 3.458,-20.228 0.055,-0.3053 -0.037,-0.3641 -0.312,-0.3605 m -50.949,8.8505 c -0.268,0 -3.855,0.0184 -5.785,0.0257 -0.386,0 -0.393,-0.0036 -0.33,-0.3752 0.246,-1.4493 0.514,-2.8913 0.746,-4.3443 0.055,-0.3457 0.202,-0.412 0.522,-0.412 1.543,0.0037 3.495,-0.011 4.634,-0.0147 1.143,-0.0037 0.092,-3.5093 -0.378,-3.5056 -0.474,0 -5.587,0.0258 -8.053,0.0368 -0.522,0 -0.518,0 -0.607,0.5371 -0.213,1.2801 -2.183,12.7717 -2.447,14.3608 -0.195,1.1624 -0.408,2.3248 -0.114,3.5056 0.22,0.8865 0.705,1.556 1.521,1.9827 0.96,0.5039 2.011,0.6106 3.058,0.6217 2.327,0.022 4.657,-0.0148 6.983,-0.0111 0.28,0 0.335,-0.1067 0.335,-0.3458 0,-0.6106 0.011,-1.2175 0.022,-1.8282 0.022,-1.1182 -0.187,-1.3389 -1.297,-1.3353 -1.504,0 -3.007,0.0148 -4.51,0.0148 -0.29,0 -0.585,-0.0184 -0.875,-0.0589 -0.548,-0.0772 -0.845,-0.4157 -0.86,-0.9711 -0.007,-0.2502 0,-0.504 0.041,-0.7504 0.183,-1.1367 0.393,-2.2697 0.562,-3.41 0.051,-0.3384 0.18,-0.4304 0.511,-0.4267 1.569,0.0074 3.139,0 4.708,-0.0184 0.695,-0.0073 1.091,-0.2906 1.312,-0.9454 0.213,-0.6327 0.559,-1.6884 0.625,-1.9459 0.066,-0.2612 -0.052,-0.3862 -0.324,-0.3862 z m 8.038,-3.9029 c -0.882,-0.2133 -2.014,-0.3752 -2.819,-0.4524 -0.441,-0.0442 -0.643,0.0735 -0.698,0.4156 -0.309,1.9165 -0.97,5.9224 -1.301,7.9382 -0.099,0.6143 0.335,0.5113 0.595,0.2501 1.654,-1.659 3.624,-3.6564 3.933,-4.0721 0.309,-0.4119 0.404,-0.6106 0.507,-1.1072 0.107,-0.4966 0.225,-1.4677 0.324,-2.071 0.099,-0.6032 -0.074,-0.7872 -0.541,-0.9012 z"
       fill="#17213b"
       id="path1" />
    <path
       d="m 118.777,21.2725 c -0.522,0.0331 -0.732,0.4157 -0.585,1.1477 0.125,0.6401 0.552,1.3316 1.364,1.4457 2.462,0.3457 6.311,0.9122 8.997,1.4235 1.107,0.2097 1.14,0.5776 0.471,1.4126 -2.077,2.5859 -5.631,6.9119 -9.494,11.2451 -1.308,1.4677 -1.158,2.7074 -0.632,3.6601 0.312,0.5702 0.941,0.6732 1.286,0.3789 5.238,-4.4841 12.401,-11.0612 15.915,-15.6189 1.863,-2.4167 1.397,-4.8004 -1.856,-5.0836 -2.441,-0.2171 -5.109,-0.2906 -7.678,-0.2796 -2.867,0.011 -5.612,0.1287 -7.785,0.2648"
       fill="url(#paint0_linear_3995_33)"
       id="path2"
       style="fill:url(#paint0_linear_3995_33)" />
    <path
       d="m 163.19,46.0954 c -0.128,-0.2906 -0.308,-0.5333 -0.551,-0.7246 -0.239,-0.1913 -0.522,-0.3348 -0.842,-0.4304 -0.319,-0.0956 -0.665,-0.1471 -1.029,-0.1508 l -2.565,-0.0074 -1.496,8.6739 h 3.018 c 0.562,0.0074 1.069,-0.0846 1.517,-0.2759 0.449,-0.1913 0.809,-0.4819 1.081,-0.8681 0.272,-0.3899 0.426,-0.8792 0.463,-1.4714 0.033,-0.3789 -0.018,-0.7063 -0.147,-0.9895 -0.129,-0.2833 -0.323,-0.5003 -0.584,-0.6548 -0.066,-0.0405 -0.136,-0.0736 -0.213,-0.103 0.11,-0.0331 0.22,-0.0736 0.323,-0.1214 0.342,-0.1582 0.617,-0.3899 0.823,-0.6952 0.206,-0.3053 0.324,-0.6842 0.353,-1.1403 0.022,-0.401 -0.029,-0.7468 -0.154,-1.0411 z m -2.488,0.3054 c 0.206,0.0036 0.357,0.0515 0.456,0.1397 0.095,0.0883 0.154,0.206 0.176,0.3532 0.019,0.1434 0.015,0.309 -0.011,0.4929 -0.036,0.217 -0.106,0.4046 -0.209,0.5554 -0.107,0.1509 -0.243,0.2649 -0.412,0.3458 -0.151,0.0699 -0.32,0.1067 -0.507,0.1177 h -0.625 l 0.349,-2.0047 0.787,0.0073 z m 0.136,4.4105 c -0.033,0.1912 -0.092,0.3641 -0.176,0.5223 -0.085,0.1582 -0.199,0.2833 -0.342,0.3752 -0.143,0.092 -0.316,0.1435 -0.526,0.1508 l -0.834,-0.0073 0.364,-2.082 h 1.103 c 0.183,0.0183 0.305,0.0846 0.371,0.1986 0.066,0.114 0.095,0.2465 0.088,0.401 -0.007,0.1544 -0.022,0.3016 -0.051,0.4414 z"
       fill="#ff0069"
       id="path3" />
    <path
       d="m 171.207,46.3971 0.28,-1.6149 h -3.011 -0.698 -1.29 l -1.496,8.6739 h 1.279 0.699 2.991 l 0.283,-1.6075 h -2.995 l 0.356,-2.0673 h 2.518 l 0.268,-1.556 h -2.514 l 0.316,-1.8282 z"
       fill="#ff0069"
       id="path4" />
    <path
       d="m 179.708,44.7822 h -2.036 -1.996 -1.981 l -0.287,1.6149 h 1.989 l -1.224,7.059 h 1.992 l 1.227,-7.059 h 2.036 z"
       fill="#ff0069"
       id="path5" />
  </g>
  <defs
     id="defs7">
    <linearGradient
       id="paint0_linear_3995_33"
       x1="118.284"
       y1="31.576"
       x2="136.488"
       y2="31.576"
       gradientUnits="userSpaceOnUse">
      <stop
         stop-color="#0098FF"
         id="stop5" />
      <stop
         offset="0.7"
         stop-color="#FF0069"
         id="stop6" />
      <stop
         offset="1"
         stop-color="#FF0069"
         id="stop7" />
    </linearGradient>
  </defs>
</svg>
