<?xml version="1.0" encoding="utf-8"?>
<!-- Generator: Adobe Illustrator 28.2.0, SVG Export Plug-In . SVG Version: 6.00 Build 0)  -->
<svg version="1.1" id="Шар_1" xmlns="http://www.w3.org/2000/svg" xmlns:xlink="http://www.w3.org/1999/xlink" x="0px" y="0px"
	 viewBox="0 0 220 75" style="enable-background:new 0 0 220 75;" xml:space="preserve">
<style type="text/css">
	.st0{fill-rule:evenodd;clip-rule:evenodd;fill:#33C16C;}
	.st1{fill:#23363C;}
</style>
<path class="st0" d="M44.3,23.7l7.4,7.5l7.1-7.1v-7.5h-7.4C51.4,16.6,44.3,23.7,44.3,23.7z M32.2,23.7l-7.1-7.1h-7.4v7.5l7.1,7.1
	L32.2,23.7z M55.4,45.6l-3-3l-8.9,8.9l3,3l2.6-2.6l5.7,5.7l3.7-3.7l-5.7-5.7L55.4,45.6L55.4,45.6z M53.2,37.3l-15,15.1l-15-15.1
	l15-15.1L53.2,37.3z M38.2,45.6c1.4,0,2.7-1,3-2.4c0.1-0.2,0.1-0.4,0.1-0.6c0-1.7-1.4-3-3-3c-0.8,0-1.6,0.3-2.1,0.9
	c-0.6,0.6-0.9,1.3-0.9,2.2C35.2,44.3,36.6,45.7,38.2,45.6L38.2,45.6z M36.1,30.4c-0.6,0.6-0.9,1.3-0.9,2.1l0,0c0,1.7,1.4,3,3,3
	c1.4,0,2.7-1,3-2.4c0.1-0.2,0.1-0.4,0.1-0.6c0-1.7-1.4-3-3-3C37.4,29.6,36.7,29.9,36.1,30.4L36.1,30.4z M29.9,54.6L27.3,52l-5.7,5.7
	L17.9,54l5.7-5.7L21,45.6l3-3l8.9,8.9L29.9,54.6L29.9,54.6z"/>
<path class="st1" d="M146.4,50.5c0.7,0.1,1.4,0.2,2.1,0.2s1.4,0.1,2.1,0.1c1.6,0,3-0.2,4.2-0.7c1.2-0.5,2.3-1.2,3.1-2.1
	c0.8-0.9,1.5-2,1.9-3.3s0.7-2.7,0.7-4.3c0-1.6-0.2-3-0.5-4.2c-0.4-1.3-0.9-2.3-1.6-3.2c-0.7-0.9-1.6-1.6-2.6-2.1s-2.2-0.7-3.6-0.7
	c-0.7,0-1.5,0.1-2.1,0.2c-0.7,0.2-1.3,0.4-1.9,0.6l-0.1,0.1v-7.7h-5.2v26.2c0.5,0.2,1,0.3,1.6,0.4C145,50.3,145.7,50.4,146.4,50.5z
	 M148.1,35.6L148.1,35.6c0.4-0.3,0.9-0.5,1.4-0.6c0.5-0.2,1.1-0.2,1.7-0.2c2.6,0,4,1.9,4,5.5c0,1.7-0.4,3.2-1.1,4.2
	c-0.8,1.1-1.9,1.6-3.4,1.6c-0.5,0-0.9,0-1.4-0.1c-0.4-0.1-0.8-0.1-1-0.1h-0.1V35.6L148.1,35.6z M133.7,23.5h5.3v26.8h-5.3V23.5z
	 M91.1,37.3c0,2.2-0.3,4.2-1,5.9c-0.7,1.7-1.6,3.1-2.9,4.2c-1.3,1.1-2.8,1.9-4.6,2.5c-1.8,0.5-3.8,0.8-6,0.8c-1,0-2.2-0.1-3.6-0.1
	c-1.3-0.1-2.7-0.3-3.9-0.5V24.7c1.3-0.2,2.6-0.4,4-0.5c1.4-0.1,2.7-0.1,3.7-0.1c2.1,0,4.1,0.3,5.9,0.8c1.7,0.5,3.3,1.3,4.5,2.3
	c1.3,1.1,2.2,2.5,2.9,4.1C90.7,32.9,91.1,35,91.1,37.3L91.1,37.3z M76.9,45.8c2.9,0,5-0.8,6.4-2.2c1.4-1.5,2.1-3.6,2.1-6.2
	c0-2.8-0.7-4.9-2-6.3c-1.3-1.4-3.5-2.1-6.3-2.1l0,0c-0.4,0-0.8,0-1.2,0c-0.4,0-0.8,0.1-1.2,0.1h-0.1v16.7h0.1
	c0.3,0.1,0.6,0.1,0.9,0.1S76.4,45.8,76.9,45.8L76.9,45.8z M98.2,50.1c-1.1-0.4-1.9-1.1-2.5-1.9c-0.6-0.8-1.1-1.8-1.3-2.9
	c-0.3-1.1-0.4-2.4-0.4-3.7v-11h5.3V41c0,1.8,0.2,3.2,0.7,4c0.5,0.8,1.4,1.3,2.7,1.3c0.4,0,0.8,0,1.3-0.1c0.4-0.1,0.8-0.1,1.2-0.1
	h0.1V30.7h5.3v19c-0.9,0.3-2.1,0.5-3.5,0.8c-1.5,0.2-3,0.4-4.6,0.4C100.7,50.8,99.3,50.6,98.2,50.1L98.2,50.1z M122,30.1
	c-1.1,0-2.3,0.2-3.4,0.7c-1.1,0.4-2.1,1.1-2.9,2c-0.8,0.9-1.5,2-2.1,3.3c-0.5,1.3-0.8,2.8-0.8,4.6c0,1.4,0.2,2.8,0.6,4
	c0.4,1.3,1,2.3,1.8,3.2c0.8,0.9,1.9,1.6,3.2,2.1c1.3,0.5,2.8,0.8,4.5,0.8c0.7,0,1.4-0.1,2-0.1c0.7-0.1,1.3-0.2,1.9-0.3
	c0.6-0.1,1.1-0.2,1.6-0.4c0.4-0.1,0.8-0.3,1.1-0.4l-0.7-4.4c-0.6,0.3-1.4,0.5-2.3,0.7c-1,0.2-2,0.3-3,0.3c-1.6,0-2.8-0.3-3.8-1
	c-0.9-0.7-1.5-1.6-1.6-2.8v-0.1h12.4c0-0.2,0-0.3,0-0.5c0-0.1,0-0.3,0-0.4c0-0.4,0-0.8,0-1.1c0-3.3-0.8-5.8-2.3-7.5
	C126.9,31,124.7,30.1,122,30.1L122,30.1z M118.3,38.6v-0.1c0.1-0.5,0.2-1,0.4-1.4c0.2-0.5,0.4-0.9,0.7-1.3c0.3-0.4,0.7-0.7,1.1-0.9
	c0.4-0.2,1-0.3,1.6-0.3c0.6,0,1.2,0.1,1.6,0.3c0.4,0.2,0.8,0.5,1.1,0.9c0.3,0.4,0.5,0.8,0.6,1.3c0.1,0.5,0.2,0.9,0.2,1.4v0.1
	C125.7,38.6,118.3,38.6,118.3,38.6z M173.4,45.8c0.2,1,0.6,1.9,1.2,2.7c0.6,0.7,1.4,1.3,2.3,1.7s2.2,0.6,3.7,0.6
	c1.2,0,2.1-0.1,2.9-0.3c0.8-0.2,1.5-0.4,2.1-0.7l-0.7-4.2c-0.5,0.2-1,0.3-1.6,0.4c-0.6,0.1-1.2,0.2-1.8,0.2c-1.3,0-2.1-0.4-2.5-1.1
	c-0.4-0.7-0.6-1.7-0.6-2.9v-6.8h6.5v-4.8h-6.5v-7.2H173v18.8C173,43.6,173.1,44.8,173.4,45.8L173.4,45.8z M200.6,49.4
	c-1.4,1-3.4,1.5-6,1.5c-1.7,0-3.1-0.2-4.2-0.4c-1.1-0.3-1.8-0.5-2.3-0.7l0.9-4.4c0.9,0.4,1.8,0.7,2.8,0.9c1,0.2,2,0.3,2.9,0.3
	c1,0,1.7-0.1,2.2-0.3c0.4-0.2,0.7-0.7,0.7-1.3c0-0.5-0.3-0.9-0.8-1.3c-0.5-0.3-1.4-0.7-2.5-1.1c-0.8-0.3-1.6-0.7-2.3-1
	c-0.7-0.3-1.3-0.8-1.8-1.3s-0.9-1.1-1.1-1.7s-0.4-1.5-0.4-2.4c0-1.8,0.7-3.3,2-4.4c1.3-1.1,3.2-1.6,5.5-1.6c1.2,0,2.3,0.1,3.4,0.3
	c1,0.2,1.8,0.4,2.5,0.7l-0.9,4.2c-0.6-0.2-1.3-0.4-2-0.6c-0.8-0.2-1.6-0.3-2.5-0.3c-1.8,0-2.6,0.5-2.6,1.6c0,0.2,0.1,0.5,0.1,0.7
	c0.1,0.2,0.2,0.4,0.5,0.5c0.2,0.2,0.5,0.3,0.9,0.5c0.4,0.2,0.9,0.4,1.5,0.6c1.2,0.4,2.2,0.9,2.9,1.4c0.8,0.4,1.4,0.9,1.8,1.4
	c0.4,0.5,0.8,1.1,0.9,1.7c0.2,0.6,0.3,1.4,0.3,2.2C202.7,46.9,202,48.4,200.6,49.4L200.6,49.4z M169.1,23.5h-5.3v4.7h5.3V23.5z
	 M169.1,30.7h-5.3v19.7h5.3V30.7z"/>
</svg>
