<?xml version="1.0" encoding="UTF-8" standalone="no"?>
<!-- Generator: Adobe Illustrator 26.1.0, SVG Export Plug-In . SVG Version: 6.00 Build 0)  -->

<svg
   version="1.1"
   id="Слой_1"
   x="0px"
   y="0px"
   viewBox="0 0 220 74.999999"
   xml:space="preserve"
   width="220"
   height="75"
   xmlns="http://www.w3.org/2000/svg"
   xmlns:svg="http://www.w3.org/2000/svg"><defs
   id="defs8" />
<style
   type="text/css"
   id="style1">
	.st0{fill:#0075FF;}
	.st1{fill:#FFFFFF;}
</style>
<g
   id="g9"
   transform="matrix(0.28347732,0,0,0.28347732,5.0000007,21.922921)"><g
     id="g8">
	<path
   class="st0"
   d="M 19.5,0 0,109.9 H 109.9 L 129.4,0 Z"
   id="path1" />
	<g
   id="g2">
		<polygon
   class="st1"
   points="104.9,19.9 100.5,44.5 34.1,44.5 38.6,19.9 "
   id="polygon1" />
		<polygon
   class="st1"
   points="94,81 53.7,81 23.1,105.4 32.1,56.5 98.4,56.5 "
   id="polygon2" />
	</g>
	<g
   id="g7">
		<path
   class="st0"
   d="m 133.1,89.1 8.4,-47.8 3.9,-21.4 h 62.4 l -3.5,19.7 H 168.5 L 165,57.8 h 17.7 L 181.1,68 h -17.7 c 0,0 -3.4,20.7 -3.5,21 h -26.8 z"
   id="path2" />
		<path
   class="st0"
   d="m 209.9,73.9 m 55.4,-54 h -34.1 l -46.9,69.2 h 31.5 l 7.8,-11.4 -13.8,-3.9 h 46.7 l 5.1,15.2 h 26.9 z m -32.8,43.8 13.9,-20.3 6.8,20.3 z"
   id="path3" />
		<path
   class="st0"
   d="M 521.6,73.9 M 577,19.9 H 542.9 L 496,89.1 h 31.5 l 7.8,-11.4 -13.8,-3.9 h 46.7 l 5.1,15.2 h 26.9 z m -32.8,43.8 13.9,-20.3 6.8,20.3 z"
   id="path4" />
		<polygon
   class="st0"
   points="294.3,89.1 306.9,19.9 333.6,19.9 320.9,89.1 "
   id="polygon4" />
		<path
   class="st0"
   d="M 388.9,89.1 378.5,68 H 363 l -3.8,21.1 h -26.6 l 12.6,-69.2 h 47.1 c 4.2,0 8,0.9 11.4,2.6 3.5,1.8 6.4,4.1 8.8,6.9 2.5,2.9 4.3,6 5.5,9.5 1.2,3.5 1.7,6.9 1.4,10.3 -0.3,3.3 -1.5,6.5 -3.6,9.4 -2,2.8 -5.1,5.1 -9.2,6.8 l -2.4,1 11.2,22.8 H 388.9 Z M 364.6,57.9 h 16.6 c 4.8,0 8.3,-1.2 10.4,-3.5 2.1,-2.3 3.1,-5 2.8,-7.9 -0.3,-2.9 -1.6,-5.6 -4,-7.9 C 388,36.2 384.8,35 381,35 h -12.2 z"
   id="path5" />
		<path
   class="st0"
   d="M 665,89.1 654.6,68 h -15.5 l -3.8,21.1 h -26.6 l 12.6,-69.2 h 47.1 c 4.2,0 8,0.9 11.4,2.6 3.5,1.8 6.4,4.1 8.8,6.9 2.5,2.9 4.3,6 5.5,9.5 1.2,3.5 1.7,6.9 1.4,10.3 -0.3,3.3 -1.5,6.5 -3.6,9.4 -2,2.8 -5.1,5.1 -9.2,6.8 l -2.4,1 11.2,22.8 H 665 Z M 640.7,57.9 h 16.6 c 4.8,0 8.3,-1.2 10.4,-3.5 2.1,-2.3 3.1,-5 2.8,-7.9 -0.3,-2.9 -1.6,-5.6 -4,-7.9 -2.4,-2.4 -5.6,-3.6 -9.4,-3.6 h -12.2 z"
   id="path6" />
		<path
   class="st0"
   d="m 424.1,89.1 12.6,-69.2 h 47.1 c 4.9,0 9.3,1.2 13,3.5 3.9,2.4 7,5.3 9.4,9 2.4,3.6 3.9,7.5 4.5,11.7 0.6,4.1 0.1,7.9 -1.5,11.5 -1.6,3.5 -4.6,6.5 -8.8,8.9 -4.3,2.4 -10.4,3.6 -18.1,3.6 h -27.7 l -3.8,21.1 h -26.7 z m 31.4,-31.2 h 16.6 c 4.8,0 8.3,-1.2 10.4,-3.5 2.1,-2.3 3.1,-5 2.8,-7.9 -0.3,-2.9 -1.6,-5.6 -4,-7.9 -2.4,-2.4 -5.6,-3.6 -9.4,-3.6 h -12.2 z"
   id="path7" />
		<polygon
   class="st0"
   points="701.5,89.1 714.1,19.9 740.8,19.9 728.1,89.1 "
   id="polygon7" />
	</g>
</g></g>
</svg>
