<?xml version="1.0" encoding="utf-8"?>
<!-- Generator: Adobe Illustrator 26.4.1, SVG Export Plug-In . SVG Version: 6.00 Build 0)  -->
<svg version="1.1" id="Шар_1" xmlns="http://www.w3.org/2000/svg" xmlns:xlink="http://www.w3.org/1999/xlink" x="0px" y="0px"
	 viewBox="0 0 220 75" style="enable-background:new 0 0 220 75;" xml:space="preserve">
<style type="text/css">
	.st0{fill:#1B9DD9;}
	.st1{fill:#E6352B;}
</style>
<g id="surface1">
	<path d="M142,26.9h-9.2V48h5.9v-6h3c5.4,0,9.3-2.6,9.3-7.6C151,29.6,147.5,26.9,142,26.9z M141.6,37.4h-2.8v-5.6h2.8
		c2.1,0,3.4,1,3.4,2.8C145,36.4,143.7,37.4,141.6,37.4z M58.3,42.7H46.8v-3.3h10.3v-4.6H46.8v-3.2h11.4v-5H40.9v21.1h17.5V42.7z
		 M24.7,35.9h-0.9l-3.2-9.2h-8.3v21.1h6.1V36.4h0.7l3.7,10.4h3l3.7-10.4h0.7v11.3h6.1V26.7H28L24.7,35.9z M159.4,26.9L150.3,48h6.3
		l1.5-3.7h8.3L168,48h6.4l-9.2-21.1H159.4z M159.8,39.8l2.1-5.2h0.6l2.1,5.2H159.8z M74.8,39.7h2.3l2.4,0.1
		c-0.2,0.5-0.5,0.9-0.9,1.3c-0.6,0.6-1.2,1.1-2,1.5c-0.9,0.4-1.9,0.6-3,0.6c-3.1,0.1-5.7-2.3-5.8-5.4c0-0.1,0-0.3,0-0.4
		c-0.1-3.1,2.3-5.7,5.4-5.8h0.1c1.9,0,3.8,0.7,5.2,2l3.5-4.1c-2.4-2.1-5.5-3.2-8.7-3.1c-6.7,0-11.6,4.8-11.6,11c0,6.4,5,11,11.7,11
		c3.4,0,6.7-1.1,9.4-3.3v-9.5h-8V39.7z M94.6,26.6l-9.2,21.1h6.3l1.5-3.7h8.3l1.6,3.7h6.4l-9.2-21.1H94.6z M95,39.5l2.1-5.2h0.6
		l2.1,5.2H95z M201.8,26.9V48h5.9V26.9H201.8z M196.5,34.1c0.1-1.8-0.6-3.6-1.9-5c-1.4-1.4-3.7-2.3-7-2.3h-10.2V48h5.9v-6.4h2.6
		l4.4,6.4h6.9l-5.1-7.4C194.8,39.6,196.6,37,196.5,34.1z M187.3,37h-4v-5h3.9c2,0,3.2,0.8,3.2,2.5S189.4,37,187.3,37L187.3,37z"/>
	<path class="st0" d="M125.5,31c-0.1,2.6-2.3,4.7-4.9,4.7c-2.6,0-4.7-2.1-4.9-4.7c0.1-2.6,2.3-4.7,4.9-4.7
		C123.3,26.3,125.4,28.4,125.5,31"/>
	<path class="st1" d="M125.5,43.9c0,2.7-2.1,4.9-4.8,4.9c-2.7,0-4.9-2.1-4.9-4.8s2.1-4.9,4.8-4.9h0.1
		C123.3,39,125.5,41.2,125.5,43.9"/>
</g>
</svg>
