<?xml version="1.0" encoding="UTF-8" standalone="no"?>
<svg
   id="_Слой_1"
   data-name="Слой 1"
   viewBox="0 0 220 75.000001"
   version="1.1"
   width="220"
   height="75"
   xmlns="http://www.w3.org/2000/svg"
   xmlns:svg="http://www.w3.org/2000/svg">
  <defs
     id="defs1">
    <style
       id="style1">
      .cls-1, .cls-2, .cls-3 {
        stroke-width: 0px;
      }

      .cls-2 {
        fill: #fff;
      }

      .cls-3 {
        fill: #ffbc00;
      }
    </style>
  </defs>
  <g
     id="g7"
     transform="matrix(0.13234766,0,0,0.13234766,4.5050185,9.6732427)">
    <polygon
       class="cls-1"
       points="703.68,4.6 119.21,4.6 3.74,415.91 703.68,415.91 890.53,415.91 1475,415.91 1590.47,4.6 890.53,4.6 "
       id="polygon1" />
    <g
       id="g6">
      <path
         class="cls-3"
         d="m 987.65,256.03 c -3.94,20.26 -14.47,37.55 -31.59,51.89 -17.12,14.34 -35.81,21.5 -56.07,21.5 H 751.5 L 797.95,90.47 h 148.49 c 20.25,0 36.16,7.17 47.71,21.5 11.55,14.34 15.36,31.64 11.42,51.89 -2.83,14.57 -12.42,29.93 -28.76,46.08 10.05,16.16 13.67,31.52 10.84,46.08 z m -54.62,0 c 1.02,-5.23 0.06,-9.67 -2.87,-13.31 -2.94,-3.64 -7.02,-5.46 -12.25,-5.46 h -63.95 l 11.41,-54.62 h 63.15 c 5.23,0 10.02,-1.82 14.37,-5.46 4.34,-3.64 7.03,-8.08 8.05,-13.31 1.02,-5.23 0.06,-9.67 -2.87,-13.31 -2.94,-3.64 -7.02,-5.46 -12.25,-5.46 h -93.87 l -25.21,129.71 h 93.87 c 5.23,0 10.02,-1.82 14.37,-5.46 4.34,-3.64 7.03,-8.08 8.05,-13.31 z"
         id="path1" />
      <path
         class="cls-3"
         d="M 1191.85,329.42 H 987.04 l 46.45,-238.95 h 204.81 l -10.62,54.62 h -150.2 l -7.3,37.55 h 116.06 l -10.62,54.62 h -116.06 l -7.3,37.55 h 150.2 l -10.62,54.62 z"
         id="path2" />
      <path
         class="cls-3"
         d="m 1463.21,145.09 h -83.63 l -35.83,184.33 h -54.62 l 35.83,-184.33 h -83.63 l 10.62,-54.62 h 221.88 z"
         id="path3" />
      <path
         class="cls-2"
         d="M 376.52,329.42 H 321.9 l 21.03,-108.21 -77.36,108.21 h -34.13 l -35.29,-108.2 -21.03,108.2 -54.74,0.66 46.57,-239.61 h 54.68 l 44.8,146.8 101.87,-146.8 h 54.68 l -46.45,238.95 z"
         id="path4" />
      <path
         class="cls-2"
         d="M 594.98,329.42 H 390.17 L 436.62,90.47 h 204.81 l -10.62,54.62 h -150.2 l -7.3,37.55 h 116.06 l -10.62,54.62 H 462.69 l -7.3,37.55 h 150.2 l -10.62,54.62 z"
         id="path5" />
      <path
         class="cls-2"
         d="M 783.1,329.42 H 608.64 c 0,0 46.45,-238.95 46.45,-238.95 h 54.62 L 673.88,274.8 h 119.84 z"
         id="path6" />
    </g>
  </g>
</svg>
