<?xml version="1.0" encoding="utf-8"?>
<!-- Generator: Adobe Illustrator 27.4.1, SVG Export Plug-In . SVG Version: 6.00 Build 0)  -->
<svg version="1.1" id="Шар_1" xmlns="http://www.w3.org/2000/svg" xmlns:xlink="http://www.w3.org/1999/xlink" x="0px" y="0px"
	 viewBox="0 0 220 75" style="enable-background:new 0 0 220 75;" xml:space="preserve">
<style type="text/css">
	.st0{fill:#E9501A;}
	.st1{fill-rule:evenodd;clip-rule:evenodd;fill:#17233C;}
	.st2{fill-rule:evenodd;clip-rule:evenodd;fill:#FFFFFF;}
</style>
<circle id="Эллипс_1" class="st0" cx="67.3" cy="37.4" r="15.3"/>
<path id="Фигура_1" class="st1" d="M97.1,27.5c3.6-0.1,5.9,0.8,8.4,1.7c-0.8,1.7-1.6,3.3-2.4,5c-1.1-0.6-8.4-2.8-8.6-0.3
	c0,1.1,1.5,1.3,2.8,1.7c3.2,0.8,6.3,1.5,6.9,5c1,6.3-7.3,8.8-13.5,7.8c-1.9-0.3-4.2-0.7-5.5-1.8c0.9-1.6,1.7-3.3,2.6-4.9
	c3,2,9.6,3.3,9.5,0.7c-0.1-0.9-1.9-1.3-3.2-1.6c-2-0.6-4.3-1.1-5.4-2.5c-3.3-4,0.9-8.6,4-9.8C94.2,27.8,95.6,27.5,97.1,27.5z
	 M24.2,28.1l6.9,0c1.1,3.5,2.2,7.1,3.4,10.6c0,0,0.1,0,0.1-0.1c2.6-3.6,5.1-7.1,7.7-10.7c2.3,0,4.6,0,7,0
	c-1.3,6.7-2.6,13.4-3.9,20.1l-6.7,0c0.6-3,1.1-6.1,1.7-9.1c0,0,0,0.1-0.1,0.1c-2.2,3-4.4,6-6.6,9c-0.7,0-1.3,0-2,0
	c-1-3-1.9-5.9-2.9-8.9h-0.1c-0.6,3-1.1,5.9-1.7,8.9c-2.2,0-4.5,0-6.7,0C21.6,41.6,22.9,34.8,24.2,28.1z M129.4,27.8
	c-0.3,1.7-0.6,3.3-0.9,5l-6.2,0c-1,5-2,10.1-2.9,15.1l-6.7,0v-0.2c1-5,1.9-10,2.9-14.9c-2,0-3.9,0-5.9,0v-0.2c0.3-1.6,0.7-3.2,1-4.8
	L129.4,27.8z M175.5,32.7c-3.3,0-6.7,0-10,0l-0.4,2.5l8.8,0c-0.3,1.7-0.6,3.3-1,5l-8.9,0c-0.2,0.8-0.3,1.7-0.5,2.5
	c3.4,0,6.7,0,10.1,0v0.1c-0.3,1.7-0.6,3.3-1,5c-5.6,0-11.2,0-16.8,0.1v-0.1c1.3-6.7,2.6-13.4,4-20.1c5.5,0,11.1,0,16.6-0.1
	C176.2,29.3,175.8,31,175.5,32.7z M181.5,27.6l18.8-0.1c-0.3,1.7-0.6,3.3-1,5c-2,0-4.1,0.1-6.2,0.1c-1,5-2,10-2.9,15.1l-6.7,0
	c1-5,2-10,3-15.1v-0.1l-6,0C180.9,31,181.2,29.3,181.5,27.6z M134.6,27.8c5.2-0.1,13.2-0.8,16.3,1.3c1.8,1.3,2.2,4.4,0.7,6.4
	c-0.7,0.9-1.7,1.3-2.6,1.9v0.1c3.5,1.1,3.3,6.3,0.7,8.2c-3.8,3-12.5,2.1-19.2,2.1C131.9,41.2,133.2,34.5,134.6,27.8z M139.7,35.3
	c2.3,0.1,5.6,0.3,5-1.8c-0.4-0.8-3.3-1-4.6-0.7C140,33.7,139.8,34.5,139.7,35.3L139.7,35.3z M138.6,40.3c-0.2,0.8-0.3,1.7-0.5,2.5
	c2.4,0.1,5.9,0.6,5.6-1.8c-0.1-0.3-0.3-0.5-0.5-0.7C142.5,40,139.7,40.3,138.6,40.3L138.6,40.3z"/>
<path id="Фигура_1_копия" class="st2" d="M67.5,26.2c1.1,2.4,2.1,4.8,3.2,7.2l8,0.6c-2,1.8-4.1,3.5-6.1,5.3
	c0.6,2.6,1.2,5.1,1.8,7.7c-2.3-1.3-4.7-2.7-7-4c-2.3,1.4-4.6,2.7-6.8,4.1c0.6-2.6,1.2-5.1,1.8-7.7l-6.1-5.2l8-0.7
	C65.4,31.1,66.5,28.7,67.5,26.2z"/>
</svg>
