<?xml version="1.0" encoding="utf-8"?>
<!-- Generator: Adobe Illustrator 28.2.0, SVG Export Plug-In . SVG Version: 6.00 Build 0)  -->
<svg version="1.1" id="Шар_1" xmlns="http://www.w3.org/2000/svg" xmlns:xlink="http://www.w3.org/1999/xlink" x="0px" y="0px"
	 viewBox="0 0 220 75" style="enable-background:new 0 0 220 75;" xml:space="preserve">
<style type="text/css">
	.st0{fill:url(#SVGID_1_);filter:url(#Adobe_OpacityMaskFilter);}
	.st1{mask:url(#mask0_13904_320883_00000157297617850972151590000011407492147039765949_);}
	.st2{fill:#036466;}
	.st3{fill:url(#SVGID_00000079453133009453601970000011371384898701185972_);}
	.st4{opacity:0.3;}
	
		.st5{fill:url(#SVGID_00000177443904542142743490000002075161424221746073_);filter:url(#Adobe_OpacityMaskFilter_00000090253396039217913370000017676958433122046641_);}
	.st6{mask:url(#mask1_13904_320883_00000124880384979626494650000007969601451609595028_);}
	.st7{fill:url(#SVGID_00000093169764827539745350000000729413404912512175_);}
	.st8{fill:url(#SVGID_00000182509723654985608920000005844435988621779605_);}
	.st9{fill:url(#SVGID_00000092458532416386189280000005028916953605735092_);}
	.st10{fill:url(#SVGID_00000143575636178088883770000006376467987303873198_);}
	.st11{fill:url(#SVGID_00000113323477104008309790000011788797413490353803_);}
	.st12{fill:url(#SVGID_00000056418784988803547600000009848691272866178483_);}
	.st13{fill:url(#SVGID_00000150811379951789488180000006311223955694274452_);}
	.st14{fill:url(#SVGID_00000159464155495368662900000016013888529930845837_);}
	
		.st15{fill:url(#SVGID_00000087413220712658640080000007922250975289570962_);filter:url(#Adobe_OpacityMaskFilter_00000072242239821215722580000014763585758350489240_);}
	.st16{mask:url(#mask2_13904_320883_00000178895256063427856320000012678882246414489517_);}
	.st17{fill:url(#SVGID_00000179637442672657172620000014020108935691939721_);}
	.st18{fill:url(#SVGID_00000008853556295704229050000004134745915846419335_);}
	.st19{fill:url(#SVGID_00000116944503336051191240000016016300883584323767_);}
	.st20{fill:url(#SVGID_00000129185201784641561970000004624688824385541300_);}
	.st21{fill:url(#SVGID_00000121992950934793629760000005536076256515866755_);}
	.st22{fill:url(#SVGID_00000181073524682541296420000007281619767825924746_);}
	.st23{fill:url(#SVGID_00000142885285531516732790000003034170113979009693_);}
	.st24{fill:url(#SVGID_00000128471138921694103390000014463662119554639781_);}
	.st25{fill:url(#SVGID_00000047047133355094488670000003262564569894370228_);}
	.st26{fill:url(#SVGID_00000046308313073192377010000005735491447113613741_);}
	.st27{fill:url(#SVGID_00000051375437098785567660000016183398684743053219_);}
	.st28{fill:url(#SVGID_00000147903961648810414520000003385659338993450911_);}
	.st29{fill:url(#SVGID_00000033363563918597964110000011996674932771100833_);}
	.st30{fill:url(#SVGID_00000182509553017204701720000009991519447300991375_);}
	.st31{fill:url(#SVGID_00000144306042034930962290000011593440319824579754_);}
	.st32{fill:url(#SVGID_00000052103554219498163470000006372558134956519310_);}
	.st33{fill:url(#SVGID_00000038384341006510236200000013956910806218412978_);}
	.st34{fill:url(#SVGID_00000116936454401854858190000011252157655386648223_);}
	.st35{fill:url(#SVGID_00000080166345347029761640000017098437381756036736_);}
	.st36{fill:url(#SVGID_00000134214830998903911850000003955752443512921758_);}
</style>
<defs>
	<filter id="Adobe_OpacityMaskFilter" filterUnits="userSpaceOnUse" x="21.9" y="12.8" width="38.7" height="48.6">
		<feColorMatrix  type="matrix" values="1 0 0 0 0  0 1 0 0 0  0 0 1 0 0  0 0 0 1 0"/>
	</filter>
</defs>
<mask maskUnits="userSpaceOnUse" x="21.9" y="12.8" width="38.7" height="48.6" id="mask0_13904_320883_00000157297617850972151590000011407492147039765949_">
	
		<linearGradient id="SVGID_1_" gradientUnits="userSpaceOnUse" x1="40.4375" y1="37.7472" x2="69.9375" y2="37.7472" gradientTransform="matrix(1 0 0 -1 0 75)">
		<stop  offset="0.1562" style="stop-color:#D9D9D9"/>
		<stop  offset="1" style="stop-color:#D9D9D9;stop-opacity:0"/>
	</linearGradient>
	<rect x="21.9" y="12.8" class="st0" width="39" height="49"/>
</mask>
<g class="st1">
	<path class="st2" d="M23.7,38.2c-0.8,0.3-1.7-0.3-1.7-1.2V25c0-0.8,0.5-1.5,1.2-1.8l16.4-6.8c0.9-0.4,1.9-0.4,2.9,0l17,6.8
		c0.8,0.3,1.3,1,1.3,1.9v12.1c0,0.9-0.9,1.5-1.7,1.2l-16.6-6.3c-0.9-0.3-1.9-0.3-2.7,0L23.7,38.2z"/>
	
		<linearGradient id="SVGID_00000114778100035218817540000005883503725899607951_" gradientUnits="userSpaceOnUse" x1="41.3117" y1="62.2472" x2="41.3111" y2="23.7472" gradientTransform="matrix(1 0 0 -1 0 75)">
		<stop  offset="0" style="stop-color:#3EEAD6"/>
		<stop  offset="0.1039" style="stop-color:#00BEA7"/>
		<stop  offset="0.9383" style="stop-color:#003C59"/>
	</linearGradient>
	<path style="fill:url(#SVGID_00000114778100035218817540000005883503725899607951_);" d="M23.7,35.2c-0.8,0.3-1.7-0.3-1.7-1.2V21.5
		c0-0.5,0.3-1,0.8-1.2l16.9-7c0.9-0.4,1.9-0.4,2.9,0l17.4,7c0.5,0.2,0.8,0.7,0.8,1.2v12.6c0,0.9-0.9,1.5-1.7,1.2l-16.6-6.3
		c-0.9-0.3-1.9-0.3-2.7,0L23.7,35.2z"/>
	<g class="st4">
		<defs>
			
				<filter id="Adobe_OpacityMaskFilter_00000074419837313818270760000009863233800673101730_" filterUnits="userSpaceOnUse" x="25.7" y="12.8" width="31.6" height="21.5">
				<feColorMatrix  type="matrix" values="1 0 0 0 0  0 1 0 0 0  0 0 1 0 0  0 0 0 1 0"/>
			</filter>
		</defs>
		
			<mask maskUnits="userSpaceOnUse" x="25.7" y="12.8" width="31.6" height="21.5" id="mask1_13904_320883_00000124880384979626494650000007969601451609595028_">
			
				<linearGradient id="SVGID_00000114777518280996016490000009519133097739756990_" gradientUnits="userSpaceOnUse" x1="41.3115" y1="62.2157" x2="41.3115" y2="46.4601" gradientTransform="matrix(1 0 0 -1 0 75)">
				<stop  offset="0" style="stop-color:#2BD0A9"/>
				<stop  offset="1" style="stop-color:#008880"/>
			</linearGradient>
			
				<path style="fill:url(#SVGID_00000114777518280996016490000009519133097739756990_);filter:url(#Adobe_OpacityMaskFilter_00000074419837313818270760000009863233800673101730_);" d="
				M23.7,35.2c-0.8,0.3-1.7-0.3-1.7-1.2V21.5c0-0.5,0.3-1,0.8-1.2l16.9-7c0.9-0.4,1.9-0.4,2.9,0l17.4,7c0.5,0.2,0.8,0.7,0.8,1.2
				v12.6c0,0.9-0.9,1.5-1.7,1.2l-16.6-6.3c-0.9-0.3-1.9-0.3-2.7,0L23.7,35.2z"/>
		</mask>
		<g class="st6">
			
				<linearGradient id="SVGID_00000151509824542513351360000000516026243292583064_" gradientUnits="userSpaceOnUse" x1="26.3668" y1="62.2467" x2="26.3668" y2="40.744" gradientTransform="matrix(1 0 0 -1 0 75)">
				<stop  offset="0" style="stop-color:#8AFAE2"/>
				<stop  offset="1" style="stop-color:#8EFBE2;stop-opacity:0"/>
			</linearGradient>
			
				<rect x="25.7" y="12.8" style="fill:url(#SVGID_00000151509824542513351360000000516026243292583064_);" width="1.3" height="21.5"/>
			
				<linearGradient id="SVGID_00000015344598107437381700000006705319288348853896_" gradientUnits="userSpaceOnUse" x1="31.4254" y1="62.2467" x2="31.4254" y2="40.744" gradientTransform="matrix(1 0 0 -1 0 75)">
				<stop  offset="0" style="stop-color:#8AFAE2"/>
				<stop  offset="1" style="stop-color:#8EFBE2;stop-opacity:0"/>
			</linearGradient>
			
				<rect x="30.8" y="12.8" style="fill:url(#SVGID_00000015344598107437381700000006705319288348853896_);" width="1.3" height="21.5"/>
			
				<linearGradient id="SVGID_00000004523520578966020410000008381371052360151483_" gradientUnits="userSpaceOnUse" x1="36.484" y1="62.2467" x2="36.484" y2="40.744" gradientTransform="matrix(1 0 0 -1 0 75)">
				<stop  offset="0" style="stop-color:#8AFAE2"/>
				<stop  offset="1" style="stop-color:#8EFBE2;stop-opacity:0"/>
			</linearGradient>
			
				<rect x="35.9" y="12.8" style="fill:url(#SVGID_00000004523520578966020410000008381371052360151483_);" width="1.3" height="21.5"/>
			
				<linearGradient id="SVGID_00000155829788348057636360000015598814340886886556_" gradientUnits="userSpaceOnUse" x1="41.5465" y1="62.2467" x2="41.5465" y2="40.744" gradientTransform="matrix(1 0 0 -1 0 75)">
				<stop  offset="0" style="stop-color:#8AFAE2"/>
				<stop  offset="1" style="stop-color:#8EFBE2;stop-opacity:0"/>
			</linearGradient>
			
				<rect x="40.9" y="12.8" style="fill:url(#SVGID_00000155829788348057636360000015598814340886886556_);" width="1.3" height="21.5"/>
			
				<linearGradient id="SVGID_00000171705333896849078710000016169544874938261431_" gradientUnits="userSpaceOnUse" x1="46.6051" y1="62.2467" x2="46.6051" y2="40.744" gradientTransform="matrix(1 0 0 -1 0 75)">
				<stop  offset="0" style="stop-color:#8AFAE2"/>
				<stop  offset="1" style="stop-color:#8EFBE2;stop-opacity:0"/>
			</linearGradient>
			
				<rect x="46" y="12.8" style="fill:url(#SVGID_00000171705333896849078710000016169544874938261431_);" width="1.3" height="21.5"/>
			
				<linearGradient id="SVGID_00000047046596401322210750000008681335264122958994_" gradientUnits="userSpaceOnUse" x1="51.6637" y1="62.2467" x2="51.6637" y2="40.744" gradientTransform="matrix(1 0 0 -1 0 75)">
				<stop  offset="0" style="stop-color:#8AFAE2"/>
				<stop  offset="1" style="stop-color:#8EFBE2;stop-opacity:0"/>
			</linearGradient>
			
				<rect x="51" y="12.8" style="fill:url(#SVGID_00000047046596401322210750000008681335264122958994_);" width="1.3" height="21.5"/>
			
				<linearGradient id="SVGID_00000079484232830661488920000008566338958903796659_" gradientUnits="userSpaceOnUse" x1="56.7222" y1="62.2467" x2="56.7222" y2="40.744" gradientTransform="matrix(1 0 0 -1 0 75)">
				<stop  offset="0" style="stop-color:#8AFAE2"/>
				<stop  offset="1" style="stop-color:#8EFBE2;stop-opacity:0"/>
			</linearGradient>
			
				<rect x="56.1" y="12.8" style="fill:url(#SVGID_00000079484232830661488920000008566338958903796659_);" width="1.3" height="21.5"/>
		</g>
	</g>
	<path class="st2" d="M23.7,61.2c-0.8,0.3-1.7-0.3-1.7-1.2V48c0-0.8,0.5-1.5,1.2-1.8l16.4-6.8c0.9-0.4,1.9-0.4,2.9,0l17,6.8
		c0.8,0.3,1.3,1,1.3,1.9v12.1c0,0.9-0.9,1.5-1.7,1.2l-16.6-6.3c-0.9-0.3-1.9-0.3-2.7,0L23.7,61.2z"/>
	
		<linearGradient id="SVGID_00000102512277585694924410000009672698127609089981_" gradientUnits="userSpaceOnUse" x1="41.3117" y1="39.2472" x2="41.3111" y2="0.7472" gradientTransform="matrix(1 0 0 -1 0 75)">
		<stop  offset="0" style="stop-color:#3EEAD6"/>
		<stop  offset="0.1039" style="stop-color:#00BEA7"/>
		<stop  offset="0.9383" style="stop-color:#003C59"/>
	</linearGradient>
	<path style="fill:url(#SVGID_00000102512277585694924410000009672698127609089981_);" d="M23.7,58.2c-0.8,0.3-1.7-0.3-1.7-1.2V44.5
		c0-0.5,0.3-1,0.8-1.2l16.9-7c0.9-0.4,1.9-0.4,2.9,0l17.4,7c0.5,0.2,0.8,0.7,0.8,1.2v12.6c0,0.9-0.9,1.5-1.7,1.2l-16.6-6.3
		c-0.9-0.3-1.9-0.3-2.7,0L23.7,58.2z"/>
	<g class="st4">
		<defs>
			
				<filter id="Adobe_OpacityMaskFilter_00000045609760055450550490000001072559815831108772_" filterUnits="userSpaceOnUse" x="25.7" y="35.8" width="31.6" height="21.5">
				<feColorMatrix  type="matrix" values="1 0 0 0 0  0 1 0 0 0  0 0 1 0 0  0 0 0 1 0"/>
			</filter>
		</defs>
		
			<mask maskUnits="userSpaceOnUse" x="25.7" y="35.8" width="31.6" height="21.5" id="mask2_13904_320883_00000178895256063427856320000012678882246414489517_">
			
				<linearGradient id="SVGID_00000112597788981028279030000001214372749875578006_" gradientUnits="userSpaceOnUse" x1="41.3115" y1="39.2157" x2="41.3115" y2="23.4601" gradientTransform="matrix(1 0 0 -1 0 75)">
				<stop  offset="0" style="stop-color:#2BD0A9"/>
				<stop  offset="1" style="stop-color:#008880"/>
			</linearGradient>
			
				<path style="fill:url(#SVGID_00000112597788981028279030000001214372749875578006_);filter:url(#Adobe_OpacityMaskFilter_00000045609760055450550490000001072559815831108772_);" d="
				M23.7,58.2c-0.8,0.3-1.7-0.3-1.7-1.2V44.5c0-0.5,0.3-1,0.8-1.2l16.9-7c0.9-0.4,1.9-0.4,2.9,0l17.4,7c0.5,0.2,0.8,0.7,0.8,1.2
				v12.6c0,0.9-0.9,1.5-1.7,1.2l-16.6-6.3c-0.9-0.3-1.9-0.3-2.7,0L23.7,58.2z"/>
		</mask>
		<g class="st16">
			
				<linearGradient id="SVGID_00000157272017270228397800000005800278247168821693_" gradientUnits="userSpaceOnUse" x1="26.3668" y1="39.2467" x2="26.3668" y2="17.744" gradientTransform="matrix(1 0 0 -1 0 75)">
				<stop  offset="0" style="stop-color:#8AFAE2"/>
				<stop  offset="1" style="stop-color:#8EFBE2;stop-opacity:0"/>
			</linearGradient>
			
				<rect x="25.7" y="35.8" style="fill:url(#SVGID_00000157272017270228397800000005800278247168821693_);" width="1.3" height="21.5"/>
			
				<linearGradient id="SVGID_00000120555287644865642920000013497897612368340133_" gradientUnits="userSpaceOnUse" x1="31.4254" y1="39.2467" x2="31.4254" y2="17.744" gradientTransform="matrix(1 0 0 -1 0 75)">
				<stop  offset="0" style="stop-color:#8AFAE2"/>
				<stop  offset="1" style="stop-color:#8EFBE2;stop-opacity:0"/>
			</linearGradient>
			
				<rect x="30.8" y="35.8" style="fill:url(#SVGID_00000120555287644865642920000013497897612368340133_);" width="1.3" height="21.5"/>
			
				<linearGradient id="SVGID_00000180355985633260788940000005790561534406495415_" gradientUnits="userSpaceOnUse" x1="36.484" y1="39.2467" x2="36.484" y2="17.744" gradientTransform="matrix(1 0 0 -1 0 75)">
				<stop  offset="0" style="stop-color:#8AFAE2"/>
				<stop  offset="1" style="stop-color:#8EFBE2;stop-opacity:0"/>
			</linearGradient>
			
				<rect x="35.9" y="35.8" style="fill:url(#SVGID_00000180355985633260788940000005790561534406495415_);" width="1.3" height="21.5"/>
			
				<linearGradient id="SVGID_00000036242585928799879910000016401112984240231056_" gradientUnits="userSpaceOnUse" x1="41.5465" y1="39.2467" x2="41.5465" y2="17.744" gradientTransform="matrix(1 0 0 -1 0 75)">
				<stop  offset="0" style="stop-color:#8AFAE2"/>
				<stop  offset="1" style="stop-color:#8EFBE2;stop-opacity:0"/>
			</linearGradient>
			
				<rect x="40.9" y="35.8" style="fill:url(#SVGID_00000036242585928799879910000016401112984240231056_);" width="1.3" height="21.5"/>
			
				<linearGradient id="SVGID_00000094590937188638945400000005929825622091458742_" gradientUnits="userSpaceOnUse" x1="46.6051" y1="39.2467" x2="46.6051" y2="17.744" gradientTransform="matrix(1 0 0 -1 0 75)">
				<stop  offset="0" style="stop-color:#8AFAE2"/>
				<stop  offset="1" style="stop-color:#8EFBE2;stop-opacity:0"/>
			</linearGradient>
			
				<rect x="46" y="35.8" style="fill:url(#SVGID_00000094590937188638945400000005929825622091458742_);" width="1.3" height="21.5"/>
			
				<linearGradient id="SVGID_00000149366959192908031370000002248424852270421947_" gradientUnits="userSpaceOnUse" x1="51.6637" y1="39.2467" x2="51.6637" y2="17.744" gradientTransform="matrix(1 0 0 -1 0 75)">
				<stop  offset="0" style="stop-color:#8AFAE2"/>
				<stop  offset="1" style="stop-color:#8EFBE2;stop-opacity:0"/>
			</linearGradient>
			
				<rect x="51" y="35.8" style="fill:url(#SVGID_00000149366959192908031370000002248424852270421947_);" width="1.3" height="21.5"/>
			
				<linearGradient id="SVGID_00000083808399425524829040000018039435569811903912_" gradientUnits="userSpaceOnUse" x1="56.7222" y1="39.2467" x2="56.7222" y2="17.744" gradientTransform="matrix(1 0 0 -1 0 75)">
				<stop  offset="0" style="stop-color:#8AFAE2"/>
				<stop  offset="1" style="stop-color:#8EFBE2;stop-opacity:0"/>
			</linearGradient>
			
				<rect x="56.1" y="35.8" style="fill:url(#SVGID_00000083808399425524829040000018039435569811903912_);" width="1.3" height="21.5"/>
		</g>
	</g>
</g>
<linearGradient id="SVGID_00000028327471931020341830000010182027472530230693_" gradientUnits="userSpaceOnUse" x1="73.3477" y1="56.2472" x2="73.3477" y2="38.6364" gradientTransform="matrix(1 0 0 -1 0 75)">
	<stop  offset="0" style="stop-color:#437D77"/>
	<stop  offset="1" style="stop-color:#082330"/>
</linearGradient>
<path style="fill:url(#SVGID_00000028327471931020341830000010182027472530230693_);" d="M74.5,19.3c3.1,0,5.2,0.6,6.4,1.7
	c1.2,1.1,1.8,2.6,1.8,4.6c0,1.4-0.2,2.5-0.7,3.5c-0.5,0.9-1.3,1.7-2.5,2.2c-1.2,0.5-2.9,0.8-5,0.8h-4.8v4.1h-5.7
	c0.1-3,0.2-5.8,0.2-8.4c0-2.6-0.1-5.4-0.2-8.4h5.7v0H74.5z M72.9,27.5c1.3,0,2.2,0,2.9-0.1c0.7-0.1,1.1-0.3,1.3-0.6
	c0.3-0.3,0.4-0.7,0.4-1.2c0-0.5-0.1-0.9-0.4-1.1c-0.2-0.3-0.7-0.4-1.3-0.5c-0.6-0.1-1.6-0.1-2.9-0.1h-3.2v3.7H72.9z"/>
<linearGradient id="SVGID_00000163047249770492478110000016612042796722619056_" gradientUnits="userSpaceOnUse" x1="94.9755" y1="56.2472" x2="94.9755" y2="38.6364" gradientTransform="matrix(1 0 0 -1 0 75)">
	<stop  offset="0" style="stop-color:#437D77"/>
	<stop  offset="1" style="stop-color:#082330"/>
</linearGradient>
<path style="fill:url(#SVGID_00000163047249770492478110000016612042796722619056_);" d="M95,36.4c-3.6,0-6.2-0.8-7.8-2.3
	c-1.7-1.6-2.5-3.7-2.5-6.5c0-2.8,0.8-4.9,2.5-6.5c1.7-1.6,4.3-2.3,7.9-2.3c3.6,0,6.2,0.8,7.9,2.3c1.7,1.6,2.5,3.7,2.5,6.5
	c0,2.8-0.8,5-2.5,6.5C101.2,35.6,98.6,36.4,95,36.4z M95,31.6c1.7,0,3-0.3,3.7-1c0.8-0.7,1.1-1.7,1.1-3.1c0-1.4-0.4-2.4-1.1-3
	c-0.8-0.7-2-1-3.7-1c-1.7,0-2.9,0.3-3.7,1c-0.8,0.7-1.1,1.7-1.1,3c0,1.4,0.4,2.4,1.1,3.1C92,31.3,93.3,31.6,95,31.6z"/>
<linearGradient id="SVGID_00000077299757646607696570000012857944596005574829_" gradientUnits="userSpaceOnUse" x1="117.8533" y1="56.2472" x2="117.8533" y2="38.6364" gradientTransform="matrix(1 0 0 -1 0 75)">
	<stop  offset="0" style="stop-color:#437D77"/>
	<stop  offset="1" style="stop-color:#082330"/>
</linearGradient>
<path style="fill:url(#SVGID_00000077299757646607696570000012857944596005574829_);" d="M122.8,29.8l1.2-10.5h5.7l-3.1,16.9h-7.1
	l-1.6-9.4l-1.8,9.4h-6.8L106,19.2h5.7l1.2,10.4l1.9-10.4h6.2L122.8,29.8z"/>
<linearGradient id="SVGID_00000121971937253582399300000002064807654750849195_" gradientUnits="userSpaceOnUse" x1="140.68" y1="56.2472" x2="140.68" y2="38.6364" gradientTransform="matrix(1 0 0 -1 0 75)">
	<stop  offset="0" style="stop-color:#437D77"/>
	<stop  offset="1" style="stop-color:#082330"/>
</linearGradient>
<path style="fill:url(#SVGID_00000121971937253582399300000002064807654750849195_);" d="M137,31.9c5.9,0,10.2-0.1,12.8-0.3
	c-0.1,0.6-0.2,1.3-0.2,2c0,0.7,0,1.5,0,2.5h-18.1c0.1-3,0.2-5.8,0.2-8.4c0-2.6-0.1-5.4-0.2-8.4h18.1v4.2H137v2.2c0.7,0,1.8,0,3.3,0
	c2.5,0,5,0,7.7-0.1v4c-2.6-0.1-5.2-0.1-7.7-0.1c-1.5,0-2.6,0-3.3,0V31.9z"/>
<linearGradient id="SVGID_00000102519945472449328250000001779537961936862342_" gradientUnits="userSpaceOnUse" x1="161.04" y1="56.2472" x2="161.04" y2="38.6364" gradientTransform="matrix(1 0 0 -1 0 75)">
	<stop  offset="0" style="stop-color:#437D77"/>
	<stop  offset="1" style="stop-color:#082330"/>
</linearGradient>
<path style="fill:url(#SVGID_00000102519945472449328250000001779537961936862342_);" d="M170.4,24.9c0,1.3-0.3,2.5-1,3.4
	c-0.7,0.9-1.8,1.6-3.4,2c0.2,0.2,0.3,0.4,0.4,0.6l3.8,5.2h-6.3c-0.7-1.3-1.8-3.1-3.2-5.4h-3.4v5.4h-5.5c0.1-3,0.2-5.8,0.2-8.4
	c0-2.6-0.1-5.4-0.2-8.4h5.5v0h4.8c3.1,0,5.3,0.5,6.6,1.5C169.8,21.8,170.4,23.1,170.4,24.9z M157.2,23.7v2.7h3.1c1.3,0,2.3,0,3-0.1
	c0.7-0.1,1.2-0.2,1.4-0.4c0.3-0.2,0.4-0.5,0.4-0.8c0-0.3-0.1-0.6-0.4-0.8s-0.7-0.3-1.4-0.4c-0.7-0.1-1.7-0.1-3-0.1H157.2z"/>
<linearGradient id="SVGID_00000137836274807726028250000007775150497368529046_" gradientUnits="userSpaceOnUse" x1="73.7088" y1="32.091" x2="73.7088" y2="14.9455" gradientTransform="matrix(1 0 0 -1 0 75)">
	<stop  offset="0" style="stop-color:#437D77"/>
	<stop  offset="1" style="stop-color:#082330"/>
</linearGradient>
<path style="fill:url(#SVGID_00000137836274807726028250000007775150497368529046_);" d="M77.7,42.9h5.8v9.3c0,2.3-0.8,4.2-2.3,5.7
	c-1.5,1.5-4.1,2.2-7.7,2.2c-3.7,0-6.2-0.7-7.5-2.1c-1.3-1.4-2-3.3-2-5.6v-9.4h5.8v9c0,0.7,0,1.2,0.1,1.7c0.1,0.4,0.4,0.8,1,1.2
	c0.6,0.4,1.5,0.6,2.7,0.6c1.3,0,2.3-0.2,2.9-0.6c0.6-0.4,1-0.8,1.1-1.3c0.1-0.5,0.2-1.1,0.2-1.8V42.9z"/>
<linearGradient id="SVGID_00000111908415080688137400000002222727690569798789_" gradientUnits="userSpaceOnUse" x1="94.7497" y1="32.091" x2="94.7497" y2="14.9455" gradientTransform="matrix(1 0 0 -1 0 75)">
	<stop  offset="0" style="stop-color:#437D77"/>
	<stop  offset="1" style="stop-color:#082330"/>
</linearGradient>
<path style="fill:url(#SVGID_00000111908415080688137400000002222727690569798789_);" d="M95.9,43c3.1,0,5.2,0.6,6.4,1.7
	c1.2,1.1,1.8,2.6,1.8,4.6c0,1.4-0.2,2.5-0.7,3.5c-0.5,0.9-1.3,1.7-2.5,2.2c-1.2,0.5-2.9,0.8-5,0.8h-4.8v4.1h-5.7
	c0.1-3,0.2-5.8,0.2-8.4c0-2.6-0.1-5.4-0.2-8.4h5.7v0H95.9z M94.3,51.2c1.3,0,2.2,0,2.9-0.1c0.7-0.1,1.1-0.3,1.3-0.6
	c0.3-0.3,0.4-0.7,0.4-1.2s-0.1-0.9-0.4-1.1c-0.2-0.3-0.7-0.4-1.3-0.5c-0.6-0.1-1.6-0.1-2.9-0.1h-3.2v3.7H94.3z"/>
<linearGradient id="SVGID_00000148630432833361852330000006154825707599551114_" gradientUnits="userSpaceOnUse" x1="115.6415" y1="32.2472" x2="115.6415" y2="-1.7528" gradientTransform="matrix(1 0 0 -1 0 75)">
	<stop  offset="0" style="stop-color:#00BEA7"/>
	<stop  offset="1" style="stop-color:#003C59"/>
</linearGradient>
<path style="fill:url(#SVGID_00000148630432833361852330000006154825707599551114_);" d="M115.8,60.1c-2.7,0-4.7-0.7-5.9-2.2
	s-1.9-3.5-1.9-6.2c0-2.7,0.6-4.8,1.9-6.4c1.3-1.6,3.3-2.3,5.9-2.3c3.8,0,6.3,1.6,7.6,4.9c-1.1,0.5-2.3,1.2-3.8,2.1
	c-0.3-0.8-0.9-1.5-1.6-1.9c-0.7-0.4-1.5-0.6-2.3-0.6c-1.1,0-2,0.4-2.6,1.2c-0.6,0.8-0.8,1.7-0.8,2.8c0,1.2,0.3,2.2,0.9,3
	c0.6,0.8,1.5,1.1,2.8,1.1c1,0,1.8-0.2,2.4-0.6c0.6-0.4,1-1.1,1.3-2c1,0.7,2.2,1.4,3.7,2.2c-0.6,1.8-1.6,3.1-3,3.8
	C119,59.7,117.4,60.1,115.8,60.1z"/>
<linearGradient id="SVGID_00000078730327182030435440000008262239585455291300_" gradientUnits="userSpaceOnUse" x1="132.3685" y1="32.2472" x2="132.3685" y2="-1.7528" gradientTransform="matrix(1 0 0 -1 0 75)">
	<stop  offset="0" style="stop-color:#00BEA7"/>
	<stop  offset="1" style="stop-color:#003C59"/>
</linearGradient>
<path style="fill:url(#SVGID_00000078730327182030435440000008262239585455291300_);" d="M136,59.9c-0.2-0.9-0.5-1.9-0.9-3.2h-5.7
	l-0.9,3.2h-4.5l5-16.4h6.6l5,16.4H136z M134.1,53.1c-0.5-1.6-0.9-3.2-1.4-4.7l-0.4-1.5c-0.4,1.4-1,3.4-1.8,6.2H134.1z"/>
<linearGradient id="SVGID_00000142856122391090048600000012028200981191949964_" gradientUnits="userSpaceOnUse" x1="148.443" y1="32.2472" x2="148.443" y2="-1.7528" gradientTransform="matrix(1 0 0 -1 0 75)">
	<stop  offset="0" style="stop-color:#00BEA7"/>
	<stop  offset="1" style="stop-color:#003C59"/>
</linearGradient>
<path style="fill:url(#SVGID_00000142856122391090048600000012028200981191949964_);" d="M140.9,57.9c0.4-0.8,0.7-1.5,1-2.1
	c0.3-0.7,0.5-1.4,0.8-2.3c0.8,0.6,1.8,1.1,2.9,1.4c1.1,0.3,2.2,0.5,3.1,0.5c1,0,1.7-0.1,2.1-0.3c0.4-0.2,0.6-0.5,0.6-0.7
	c0-0.9-1.1-1.4-3.3-1.4c-2.4,0-4.2-0.3-5.3-0.9c-1.1-0.6-1.6-1.7-1.6-3.1c0-2,0.7-3.5,2-4.5c1.3-1,3.1-1.4,5.2-1.4
	c1.2,0,2.5,0.2,3.8,0.6c1.3,0.4,2.5,0.9,3.5,1.6c-0.3,1-0.7,2.2-1.1,3.6c-0.1,0.3-0.1,0.5-0.2,0.7c-0.6-0.6-1.5-1.1-2.8-1.5
	c-1.2-0.4-2.3-0.6-3.2-0.6c-1.1,0-1.9,0.1-2.3,0.3c-0.4,0.2-0.6,0.5-0.6,0.8s0.3,0.7,0.8,0.9c0.5,0.2,1.3,0.3,2.4,0.3
	c2.5,0,4.4,0.4,5.5,1.1c1.1,0.7,1.7,1.8,1.7,3.3c0,2.1-0.6,3.6-1.8,4.6c-1.2,0.9-3.1,1.4-5.5,1.4c-1.3,0-2.7-0.2-4-0.5
	C143.2,59.2,142,58.6,140.9,57.9z"/>
<linearGradient id="SVGID_00000068654656803013316970000006879854477490927280_" gradientUnits="userSpaceOnUse" x1="160.639" y1="32.2472" x2="160.639" y2="-1.7528" gradientTransform="matrix(1 0 0 -1 0 75)">
	<stop  offset="0" style="stop-color:#00BEA7"/>
	<stop  offset="1" style="stop-color:#003C59"/>
</linearGradient>
<path style="fill:url(#SVGID_00000068654656803013316970000006879854477490927280_);" d="M163.1,59.9h-4.9c0,0,0.3-5,0.3-8.2
	c0-3.2-0.3-8.2-0.3-8.2h4.9c0,0-0.4,5-0.4,8.2C162.7,54.9,163.1,59.9,163.1,59.9z"/>
<linearGradient id="SVGID_00000135685133990179407230000013300067239508052922_" gradientUnits="userSpaceOnUse" x1="173.591" y1="32.2472" x2="173.591" y2="-1.7528" gradientTransform="matrix(1 0 0 -1 0 75)">
	<stop  offset="0" style="stop-color:#00BEA7"/>
	<stop  offset="1" style="stop-color:#003C59"/>
</linearGradient>
<path style="fill:url(#SVGID_00000135685133990179407230000013300067239508052922_);" d="M181.1,43.5c-0.1,2.5-0.1,5.3-0.1,8.2
	c0,2.9,0,5.7,0.1,8.2h-6.4l-4.3-12.3l0.3,12.3h-4.6c0.1-2.9,0.1-5.7,0.1-8.2c0-2.5,0-5.3-0.1-8.2h6.6l4.3,12.7l-0.3-12.7H181.1z"/>
<linearGradient id="SVGID_00000148628737698398161780000001339965488237132459_" gradientUnits="userSpaceOnUse" x1="190.4615" y1="32.2472" x2="190.4615" y2="-1.7528" gradientTransform="matrix(1 0 0 -1 0 75)">
	<stop  offset="0" style="stop-color:#00BEA7"/>
	<stop  offset="1" style="stop-color:#003C59"/>
</linearGradient>
<path style="fill:url(#SVGID_00000148628737698398161780000001339965488237132459_);" d="M190.5,60.1c-2.7,0-4.7-0.7-6-2.2
	c-1.3-1.5-1.9-3.6-1.9-6.3c0-2.7,0.6-4.8,1.9-6.3c1.3-1.5,3.3-2.3,6-2.3c2.7,0,4.8,0.8,6,2.3c1.3,1.5,1.9,3.6,1.9,6.3
	c0,2.7-0.6,4.8-1.9,6.3C195.2,59.3,193.2,60.1,190.5,60.1z M190.5,55.5c1.3,0,2.3-0.3,2.9-0.9c0.6-0.6,0.9-1.6,0.9-3
	c0-1.3-0.3-2.3-0.9-3c-0.6-0.6-1.5-1-2.9-1c-1.3,0-2.3,0.3-2.8,1c-0.6,0.6-0.9,1.6-0.9,3c0,1.3,0.3,2.3,0.9,3
	C188.2,55.1,189.1,55.5,190.5,55.5z"/>
</svg>
