<?xml version="1.0" encoding="utf-8"?>
<!-- Generator: Adobe Illustrator 27.4.0, SVG Export Plug-In . SVG Version: 6.00 Build 0)  -->
<svg version="1.1" id="Шар_1" xmlns="http://www.w3.org/2000/svg" xmlns:xlink="http://www.w3.org/1999/xlink" x="0px" y="0px"
	 viewBox="0 0 220 75" style="enable-background:new 0 0 220 75;" xml:space="preserve">
<style type="text/css">
	.st0{opacity:0.15;}
	.st1{fill-rule:evenodd;clip-rule:evenodd;fill:#020203;fill-opacity:0.99;}
	.st2{fill:#CC1237;}
	.st3{fill:#BD213A;filter:url(#Adobe_OpacityMaskFilter);}
	.st4{mask:url(#mask0_00000097477433767200055880000011102680234689866139_);}
	.st5{opacity:0.2;fill-rule:evenodd;clip-rule:evenodd;fill:#020203;enable-background:new    ;}
	.st6{fill-rule:evenodd;clip-rule:evenodd;fill:#CC1237;}
	.st7{fill-rule:evenodd;clip-rule:evenodd;fill:#E1DE00;}
</style>
<g class="st0">
	<path class="st1" d="M42.4,26c-2-1.9-4.9-2.8-8.5-2.8h-9.1V29h5.9h4.2c1.8,0,3,0.5,3.6,1.6c0.6,1,0.9,2.1,0.9,3.2
		c0,0.6-0.1,1.3-0.4,2c-0.3,0.7-0.8,1.3-1.5,1.9c-0.2,0.2-0.4,0.3-0.7,0.4l-5.5-8.8h-6.6l5.7,9.2h-5.7v15.7h5.9v-9.8h3.5l6.1,9.8
		h6.6l-6.8-10.9c0.3-0.1,0.6-0.3,0.8-0.5c1.6-1,2.7-2.4,3.4-4c0.7-1.6,1.1-3.4,1.1-5.2C45.4,30.4,44.4,27.8,42.4,26z M58.5,48.7h9.7
		l2.3,5.9h6.7L63.9,23.4h-0.3L50.4,54.6h5.7L58.5,48.7z M63.5,36.4l2.8,7.3h-5.8L63.5,36.4z M100.2,41.7c-0.9-1.2-2.1-2.2-3.6-2.9
		c1.1-0.7,2-1.6,2.6-2.7c0.6-1.1,0.9-2.5,0.9-4c0-2.5-0.9-4.3-2.7-5.6c-1.8-1.3-4.2-2-7.3-2h-8.6v30.1h9.8c2.9,0,5.4-0.7,7.3-2.1
		c2-1.4,3-3.7,3-6.7C101.5,44.2,101.1,42.8,100.2,41.7z M90.8,36.8h-3.5v-6.6h3.1c1.2,0,2.1,0.3,2.8,0.8c0.7,0.5,1,1.3,1,2.3
		c0,1-0.3,1.8-0.9,2.5C92.7,36.5,91.9,36.8,90.8,36.8z M94.3,48.3c-0.8,0.5-1.9,0.8-3.3,0.8h-3.7v-6.5h3.3c3.3,0,5,1.1,5,3.2
		C95.5,46.9,95.1,47.7,94.3,48.3z M162.7,24.6v31.3h-0.2l-20.6-19l0.1,17.8h-5.9V23.4h0.2l20.5,19.3l-0.1-18.1H162.7z M175,48.7h9.7
		l2.3,5.9h6.7l-13.3-31.3h-0.3l-13.3,31.3h5.7L175,48.7z M180,36.4l2.8,7.3h-5.8L180,36.4z M128.8,25.6h-20.7v6h20.7V25.6z
		 M118.5,55.1c5.7,0,10.3-4.7,10.3-10.6c0-5.8-4.6-10.6-10.3-10.6c-5.7,0-10.3,4.7-10.3,10.6C108.2,50.4,112.8,55.1,118.5,55.1z
		 M118.5,49c2.4,0,4.4-2,4.4-4.5c0-2.5-2-4.5-4.4-4.5c-2.4,0-4.4,2-4.4,4.5C114.1,47,116.1,49,118.5,49z"/>
</g>
<path class="st2" d="M20.3,25.1h7.2l16.3,25.8h-7.1L20.3,25.1z"/>
<defs>
	<filter id="Adobe_OpacityMaskFilter" filterUnits="userSpaceOnUse" x="20.3" y="25.1" width="18.8" height="19.1">
		<feColorMatrix  type="matrix" values="1 0 0 0 0  0 1 0 0 0  0 0 1 0 0  0 0 0 1 0"/>
	</filter>
</defs>
<mask maskUnits="userSpaceOnUse" x="20.3" y="25.1" width="18.8" height="19.1" id="mask0_00000097477433767200055880000011102680234689866139_">
	<path class="st3" d="M20.3,25.1h7.2l16.3,25.8h-7.1L20.3,25.1z"/>
</mask>
<g class="st4">
	<path class="st5" d="M39.2,43.1l-3.7-5.4c-0.6,0.2-1.4,0.4-2.3,0.4h-4.8h-0.2l4.2,6.1h0.9C35.6,44.2,37.5,43.8,39.2,43.1z"/>
	<path class="st5" d="M29.7,28.4h-9h0l-0.4-3.3h7.2L29.7,28.4L29.7,28.4z"/>
</g>
<path class="st6" d="M39.1,21.9C36.9,20,33.9,19,30,19h-9.7v6.1h6.3h4.5c1.9,0,3.2,0.5,3.9,1.6c0.7,1,1,2.1,1,3.2
	c0,0.7-0.2,1.4-0.5,2.1c-0.3,0.7-0.8,1.4-1.6,1.9c-0.7,0.5-1.7,0.8-2.9,0.8h-4.5h-6.3v16.2h6.3V40.8h4.5c2.6,0,4.8-0.5,6.4-1.6
	c1.7-1.1,2.9-2.4,3.6-4.1c0.8-1.7,1.1-3.5,1.1-5.4C42.3,26.5,41.2,23.8,39.1,21.9z"/>
<path class="st2" d="M66.6,45.4H56.3l-2.6,6.1h-6.1l14.1-32.2h0.3l14.1,32.2h-7.1L66.6,45.4z M64.6,40.3l-3-7.5l-3.1,7.5H64.6z"/>
<path class="st2" d="M96.9,35.1c1.6,0.8,2.9,1.8,3.8,3c0.9,1.2,1.4,2.6,1.4,4.2c0,3.1-1,5.5-3.1,6.9c-2.1,1.5-4.7,2.2-7.8,2.2H80.8
	v-31h9.2c3.3,0,5.9,0.7,7.8,2c1.9,1.3,2.8,3.2,2.8,5.8c0,1.5-0.3,2.9-1,4.1C99,33.5,98.1,34.4,96.9,35.1z M86.9,33.1h3.7
	c1.1,0,2-0.3,2.6-1c0.6-0.7,0.9-1.6,0.9-2.6c0-1-0.4-1.8-1.1-2.4c-0.7-0.6-1.7-0.8-2.9-0.8h-3.3V33.1z M90.9,45.8
	c1.4,0,2.6-0.3,3.5-0.8c0.9-0.6,1.4-1.5,1.4-2.6c0-2.2-1.8-3.3-5.3-3.3h-3.5v6.7H90.9z"/>
<path class="st2" d="M167.2,20.5v32.2H167l-21.9-19.6l0.1,18.3H139V19.3h0.3l21.9,19.9L161,20.5H167.2z"/>
<path class="st2" d="M190.8,45.4h-10.4l-2.6,6.1h-6.1l14.1-32.2h0.3l14.1,32.2h-7.1L190.8,45.4z M188.7,40.3l-3-7.5l-3.1,7.5H188.7z
	"/>
<rect x="109.2" y="21.6" class="st2" width="22" height="6.2"/>
<path class="st7" d="M120.2,51.9c6.1,0,11-4.9,11-10.9c0-6-4.9-10.9-11-10.9s-11,4.9-11,10.9C109.2,47.1,114.1,51.9,120.2,51.9z
	 M120.2,45.7c2.6,0,4.7-2.1,4.7-4.7s-2.1-4.7-4.7-4.7s-4.7,2.1-4.7,4.7S117.6,45.7,120.2,45.7z"/>
</svg>
