<?xml version="1.0" encoding="utf-8"?>
<!-- Generator: Adobe Illustrator 27.1.1, SVG Export Plug-In . SVG Version: 6.00 Build 0)  -->
<svg version="1.1" id="Шар_1" xmlns="http://www.w3.org/2000/svg" xmlns:xlink="http://www.w3.org/1999/xlink" x="0px" y="0px"
	 viewBox="0 0 220 75" style="enable-background:new 0 0 220 75;" xml:space="preserve">
<style type="text/css">
	.st0{fill:#49B697;}
	.st1{fill:#020203;}
</style>
<g>
	<path class="st0" d="M29.2,9.6H17.5l7,13.9h-6.4l3.4,8.6h7.4l3,5.8h-7.4l4,8.6h8.1l9.7,18.8l9.1-18.8l7.4-0.3l4.7-8.6h-7.4l2.7-5.6
		h7.1l4.4-8.9h-7l6.7-13.5H61.8L46,42.3L29.2,9.6z"/>
	<g>
		<path class="st1" d="M107.8,25.3h6.2l-10.3,26.4h-6.6L86.8,25.3H93l7.4,20.1L107.8,25.3z"/>
		<path class="st1" d="M137.6,25.3h5.7v26.4h-5.7V48c-2.2,3-5.2,4.5-9.3,4.5c-3.6,0-6.7-1.4-9.3-4c-2.6-2.7-3.9-6-3.9-9.9
			c0-3.9,1.3-7.2,3.9-9.9c2.6-2.7,5.7-4,9.3-4c4,0,7.1,1.5,9.3,4.4V25.3z M123.3,44.6c1.6,1.6,3.6,2.4,6,2.4c2.4,0,4.4-0.8,6-2.4
			c1.6-1.6,2.4-3.7,2.4-6.1s-0.8-4.4-2.4-6c-1.6-1.6-3.6-2.4-6-2.4c-2.4,0-4.4,0.8-6,2.4c-1.6,1.6-2.4,3.6-2.4,6
			S121.7,43,123.3,44.6z"/>
		<path class="st1" d="M167.9,25.3h6.2l-10.3,26.4h-6.6l-10.3-26.4h6.2l7.4,20.1L167.9,25.3z"/>
		<path class="st1" d="M181.2,41c0.4,2,1.4,3.6,2.9,4.7c1.5,1.1,3.4,1.6,5.6,1.6c3,0,5.3-1.1,6.8-3.3l4.7,2.8
			c-2.6,3.9-6.5,5.8-11.6,5.8c-4.3,0-7.8-1.3-10.4-3.9c-2.6-2.6-4-6-4-10c0-3.9,1.3-7.3,3.9-9.9c2.6-2.7,6-4,10-4
			c3.9,0,7,1.4,9.5,4.1c2.5,2.7,3.8,6,3.8,9.9c0,0.6-0.1,1.4-0.2,2.4L181.2,41L181.2,41z M181.2,36.3h15.6c-0.4-2.2-1.3-3.8-2.7-4.9
			c-1.4-1.1-3-1.6-4.9-1.6c-2.1,0-3.9,0.6-5.3,1.8C182.4,32.7,181.6,34.3,181.2,36.3z"/>
	</g>
</g>
</svg>
