<?xml version="1.0" encoding="UTF-8" standalone="no"?>
<!-- Generator: Adobe Illustrator 24.0.1, SVG Export Plug-In . SVG Version: 6.00 Build 0)  -->

<svg
   version="1.1"
   id="Layer_1"
   x="0px"
   y="0px"
   viewBox="0 0 220 75.000002"
   xml:space="preserve"
   width="220"
   height="75"
   xmlns="http://www.w3.org/2000/svg"
   xmlns:svg="http://www.w3.org/2000/svg"><defs
   id="defs26" />
<style
   type="text/css"
   id="style1">
	.st0{display:none;fill:url(#SVGID_1_);}
	.st1{display:none;fill:url(#SVGID_2_);}
	.st2{display:none;fill:#FFFFFF;}
	.st3{display:none;}
	.st4{display:inline;fill:url(#SVGID_3_);}
	.st5{display:inline;fill:url(#SVGID_4_);}
	.st6{display:inline;fill:url(#SVGID_5_);}
	.st7{display:inline;fill:url(#SVGID_6_);}
	.st8{display:inline;fill:#53DF35;}
	.st9{fill:url(#SVGID_7_);}
	.st10{fill:url(#SVGID_8_);}
	.st11{fill:url(#SVGID_9_);}
	.st12{fill:url(#SVGID_10_);}
	.st13{fill:#53DF35;}
	.st14{display:inline;fill:url(#SVGID_11_);}
</style>
<linearGradient
   id="SVGID_1_"
   gradientUnits="userSpaceOnUse"
   x1="-1425.4774"
   y1="-1122.5211"
   x2="-1425.4774"
   y2="-780.46808">
	<stop
   offset="5.025126e-03"
   style="stop-color:#1B75BB"
   id="stop1" />
	<stop
   offset="1"
   style="stop-color:#262261"
   id="stop2" />
</linearGradient>
<rect
   x="-1537.4"
   y="-1091.4"
   class="st0"
   width="223.8"
   height="223.8"
   id="rect2"
   style="fill:url(#SVGID_1_)" />
<linearGradient
   id="SVGID_2_"
   gradientUnits="userSpaceOnUse"
   x1="-808.18573"
   y1="-1033.6677"
   x2="-808.18573"
   y2="-904.12079">
	<stop
   offset="5.025126e-03"
   style="stop-color:#1B75BB"
   id="stop3" />
	<stop
   offset="1"
   style="stop-color:#262261"
   id="stop4" />
</linearGradient>
<rect
   x="-1020.1"
   y="-1021.9"
   class="st1"
   width="423.79999"
   height="84.800003"
   id="rect4"
   style="fill:url(#SVGID_2_)" />
<rect
   x="-100"
   y="-149.8"
   class="st2"
   width="800"
   height="600"
   id="rect5" />
<g
   class="st3"
   id="g15">
	<linearGradient
   id="SVGID_3_"
   gradientUnits="userSpaceOnUse"
   x1="-1992.5963"
   y1="-176.82471"
   x2="-2006.3364"
   y2="587.4679">
		<stop
   offset="0"
   style="stop-color:#F6DD23"
   id="stop5" />
		<stop
   offset="1"
   style="stop-color:#F6921E"
   id="stop6" />
	</linearGradient>
	<polygon
   class="st4"
   points="-1961.8,69.3 -1878.9,74.7 -1944.9,325.5 -2034.3,330.6 -2115.3,77.2 -2029.9,69.3 -1995.4,217.1 "
   id="polygon6"
   style="fill:url(#SVGID_3_)" />
	<linearGradient
   id="SVGID_4_"
   gradientUnits="userSpaceOnUse"
   x1="-1774.8206"
   y1="-172.8576"
   x2="-1788.5605"
   y2="591.43512">
		<stop
   offset="0"
   style="stop-color:#F6DD23"
   id="stop7" />
		<stop
   offset="1"
   style="stop-color:#F6921E"
   id="stop8" />
	</linearGradient>
	<path
   class="st5"
   d="m -1695.5,67.5 c -0.7,11.3 -1.4,22.5 -2,33.5 -0.6,11.1 -1.4,22.2 -2.3,33.5 l -76.4,4 -1.8,22.7 h 53.7 l -4,55.9 -54.1,1.8 -1.8,26.3 h 44.7 31.7 c -0.7,13.2 -1.5,26.3 -2.3,39.4 -0.8,13 -1.5,26.1 -2.1,39.2 l -155.3,3.6 5.8,-259.8 h 166.2 z"
   id="path8"
   style="fill:url(#SVGID_4_)" />
	<linearGradient
   id="SVGID_5_"
   gradientUnits="userSpaceOnUse"
   x1="-1590.5537"
   y1="-169.3886"
   x2="-1604.2937"
   y2="594.90411">
		<stop
   offset="0"
   style="stop-color:#F6DD23"
   id="stop9" />
		<stop
   offset="1"
   style="stop-color:#F6921E"
   id="stop10" />
	</linearGradient>
	<path
   class="st6"
   d="m -1518.9,224.6 -7.6,106.4 -151.7,-8.7 c 0.7,-41.9 1.5,-89.4 2.4,-130.8 0.9,-41.4 2,-83.1 3.3,-125.1 h 93.7 c -2.8,26.3 -5.4,52.6 -7.9,78.8 -2.5,26.2 -4.3,52.7 -5.4,79.4 5.6,0.2 11.2,0.4 16.8,0.4 5.5,0 11.1,0 16.8,0 6.7,0 13.3,-0.1 19.8,-0.2 6.5,-0.1 13.1,-0.2 19.8,-0.2 z"
   id="path10"
   style="fill:url(#SVGID_5_)" />
	<linearGradient
   id="SVGID_6_"
   gradientUnits="userSpaceOnUse"
   x1="-1371.7043"
   y1="-165.2979"
   x2="-1385.4445"
   y2="598.99481">
		<stop
   offset="0"
   style="stop-color:#F6DD23"
   id="stop11" />
		<stop
   offset="1"
   style="stop-color:#F6921E"
   id="stop12" />
	</linearGradient>
	<path
   class="st7"
   d="m -1252.1,196.9 c 0,12.3 -1.4,24.1 -4.2,35.5 -2.8,11.4 -6.8,22.1 -12,32 -5.2,10 -11.6,19.1 -19.1,27.4 -7.5,8.3 -15.9,15.4 -25.2,21.3 -9.3,5.9 -19.5,10.6 -30.5,13.9 -11,3.3 -22.6,5 -35,5 -11.9,0 -23.3,-1.5 -34.1,-4.6 -10.8,-3.1 -20.9,-7.4 -30.3,-13 -9.4,-5.6 -17.9,-12.3 -25.5,-20.2 -7.6,-7.9 -14.1,-16.6 -19.5,-26.3 -5.4,-9.6 -9.5,-20 -12.5,-31 -3,-11.1 -4.5,-22.6 -4.5,-34.6 0,-11.7 1.4,-23.2 4.2,-34.5 2.8,-11.3 6.8,-21.9 12,-31.8 5.2,-10 11.6,-19.1 19,-27.5 7.4,-8.4 15.7,-15.6 24.9,-21.6 9.2,-6.1 19.2,-10.8 29.9,-14.2 10.7,-3.4 22.1,-5.1 34,-5.1 19.2,0 36.7,3 52.5,9.1 15.8,6.1 29.3,14.7 40.5,26 11.2,11.3 19.9,24.9 26,40.8 6.3,15.9 9.4,33.7 9.4,53.4 z m -88.2,5.3 c 0,-5.8 -0.8,-11.4 -2.5,-16.9 -1.7,-5.5 -4.1,-10.3 -7.3,-14.6 -3.2,-4.2 -7.1,-7.7 -11.8,-10.3 -4.7,-2.6 -10.1,-3.9 -16.2,-3.9 -6.2,0 -11.8,1.1 -16.7,3.4 -4.9,2.3 -9.1,5.4 -12.6,9.4 -3.5,4 -6.2,8.6 -8,14 -1.9,5.3 -2.8,11 -2.8,16.9 0,5.7 0.8,11.3 2.4,17 1.6,5.7 4,10.8 7.2,15.4 3.2,4.6 7.1,8.3 11.8,11.1 4.7,2.8 10.2,4.2 16.4,4.2 6.2,0 11.8,-1.2 16.8,-3.7 5,-2.5 9.2,-5.9 12.6,-10.1 3.4,-4.2 6.1,-9.1 7.9,-14.7 1.9,-5.6 2.8,-11.3 2.8,-17.2 z"
   id="path12"
   style="fill:url(#SVGID_6_)" />
	<path
   class="st8"
   d="m -1024.6,263.2 c 0,10 -1.8,18.6 -5.5,25.8 -3.7,7.2 -8.6,13.3 -14.7,18.4 -6.1,5 -13.2,9.2 -21.2,12.3 -8,3.2 -16.3,5.7 -25,7.5 -8.6,1.8 -17.3,3 -26,3.6 -8.7,0.6 -16.8,0.9 -24.4,0.9 -7.4,0 -15.2,-0.3 -23.2,-0.8 -8,-0.5 -15.9,-1.5 -23.9,-2.8 -7.9,-1.3 -15.7,-3.1 -23.4,-5.3 -7.7,-2.2 -15,-5 -21.8,-8.4 l -0.4,-232.1 c 6.7,-2.8 13.9,-5.3 21.4,-7.5 7.6,-2.2 15.3,-4.1 23.2,-5.6 7.9,-1.5 15.7,-2.6 23.5,-3.4 7.8,-0.8 15.4,-1.2 22.7,-1.2 8.5,0 17.1,0.5 25.9,1.6 8.7,1.1 17.1,2.9 25.1,5.4 8,2.5 15.6,5.8 22.5,9.8 7,4 13.1,9 18.3,14.9 5.2,5.9 9.3,12.7 12.3,20.5 2.9,7.8 4.4,16.8 4.4,27 0,6.7 -1,13 -2.9,18.9 -1.9,5.9 -4.7,11.2 -8.3,15.9 -3.6,4.7 -8,8.7 -13.2,12 -5.2,3.3 -11,5.7 -17.5,7.3 7.8,2 14.9,5 21.4,9 6.4,4 11.9,8.8 16.4,14.4 4.5,5.6 8,12 10.4,19.1 2.7,7.2 3.9,14.7 3.9,22.8 z m -117.1,-44 c -3.5,0 -6.8,0.4 -10.1,1.1 l -0.7,41.1 c 1.8,0.4 3.6,0.7 5.3,1 1.7,0.3 3.5,0.5 5.1,0.5 2.5,0 5.3,-0.3 8.3,-0.8 3,-0.5 5.8,-1.6 8.5,-3.2 2.6,-1.6 4.8,-3.8 6.6,-6.6 1.7,-2.8 2.6,-6.4 2.6,-11 0,-4.6 -0.9,-8.3 -2.6,-11.2 -1.7,-2.9 -3.9,-5.1 -6.4,-6.8 -2.5,-1.6 -5.3,-2.7 -8.3,-3.2 -3,-0.6 -5.8,-0.9 -8.3,-0.9 z m 25.6,-58.7 c 0,-3.5 -0.7,-6.5 -2.2,-8.9 -1.4,-2.5 -3.2,-4.5 -5.3,-6 -2.1,-1.6 -4.4,-2.7 -6.8,-3.4 -2.5,-0.7 -4.7,-1.1 -6.6,-1.1 -2.4,0 -4.7,0.4 -7,1.1 -2.3,0.7 -4.5,1.6 -6.7,2.5 l -1.1,40 c 2.8,0 6.2,-0.2 10.3,-0.7 4.1,-0.5 8,-1.5 11.8,-3.2 3.8,-1.6 7,-4 9.6,-7.2 2.6,-3.2 4,-7.6 4,-13.1 z"
   id="path13" />
	<path
   class="st8"
   d="m -828.2,67.5 c -0.7,11.3 -1.4,22.5 -2,33.5 -0.6,11.1 -1.4,22.2 -2.3,33.5 l -76.4,4 -1.8,22.7 h 53.7 l -4,55.9 -54.1,1.8 -1.8,26.3 h 44.7 31.7 c -0.7,13.2 -1.5,26.3 -2.3,39.4 -0.8,13 -1.5,26.1 -2.1,39.2 l -155.3,3.6 5.8,-259.8 h 166.2 z"
   id="path14" />
	<path
   class="st8"
   d="m -615.3,69.7 -1.8,76.4 -53.7,2.2 -13.7,170.7 -76,4 0.4,-170.8 -53.7,2.9 2.2,-85 z"
   id="path15" />
</g>
<g
   id="g27"
   transform="matrix(0.4391468,0,0,0.4391468,-21.74404,-28.393977)"><g
     id="g25">
	<linearGradient
   id="SVGID_7_"
   gradientUnits="userSpaceOnUse"
   x1="100.0197"
   y1="30.585501"
   x2="95.639"
   y2="274.2587">
		<stop
   offset="0"
   style="stop-color:#F6DD23"
   id="stop15" />
		<stop
   offset="1"
   style="stop-color:#F6921E"
   id="stop16" />
	</linearGradient>
	<polygon
   class="st9"
   points="86.7,192.4 60.9,111.6 88.1,109.1 99.1,156.2 109.8,109.1 136.3,110.8 115.2,190.8 "
   id="polygon16"
   style="fill:url(#SVGID_7_)" />
	<linearGradient
   id="SVGID_8_"
   gradientUnits="userSpaceOnUse"
   x1="169.45129"
   y1="31.8503"
   x2="165.07069"
   y2="275.5235">
		<stop
   offset="0"
   style="stop-color:#F6DD23"
   id="stop17" />
		<stop
   offset="1"
   style="stop-color:#F6921E"
   id="stop18" />
	</linearGradient>
	<path
   class="st10"
   d="m 194.7,108.5 c -0.2,3.6 -0.4,7.2 -0.6,10.7 -0.2,3.5 -0.4,7.1 -0.7,10.7 l -24.4,1.3 -0.6,7.2 h 17.1 l -1.3,17.8 -17.2,0.6 -0.6,8.4 h 14.2 10.1 c -0.2,4.2 -0.5,8.4 -0.7,12.6 -0.2,4.2 -0.5,8.3 -0.7,12.5 l -49.5,1.1 1.8,-82.8 h 53.1 z"
   id="path18"
   style="fill:url(#SVGID_8_)" />
	<linearGradient
   id="SVGID_9_"
   gradientUnits="userSpaceOnUse"
   x1="228.1996"
   y1="32.956299"
   x2="223.819"
   y2="276.62949">
		<stop
   offset="0"
   style="stop-color:#F6DD23"
   id="stop19" />
		<stop
   offset="1"
   style="stop-color:#F6921E"
   id="stop20" />
	</linearGradient>
	<path
   class="st11"
   d="m 251.1,158.6 -2.4,33.9 -48.4,-2.8 c 0.2,-13.4 0.5,-28.5 0.8,-41.7 0.3,-13.2 0.6,-26.5 1.1,-39.9 H 232 c -0.9,8.4 -1.7,16.8 -2.5,25.1 -0.8,8.4 -1.4,16.8 -1.7,25.3 1.8,0.1 3.6,0.1 5.3,0.1 1.8,0 3.5,0 5.3,0 2.1,0 4.3,0 6.3,-0.1 2.1,0.1 4.2,0.1 6.4,0.1 z"
   id="path20"
   style="fill:url(#SVGID_9_)" />
	<linearGradient
   id="SVGID_10_"
   gradientUnits="userSpaceOnUse"
   x1="297.9736"
   y1="34.260502"
   x2="293.5929"
   y2="277.93369">
		<stop
   offset="0"
   style="stop-color:#F6DD23"
   id="stop21" />
		<stop
   offset="1"
   style="stop-color:#F6921E"
   id="stop22" />
	</linearGradient>
	<path
   class="st12"
   d="m 336.1,149.7 c 0,3.9 -0.4,7.7 -1.3,11.3 -0.9,3.6 -2.2,7 -3.8,10.2 -1.7,3.2 -3.7,6.1 -6.1,8.7 -2.4,2.6 -5.1,4.9 -8,6.8 -3,1.9 -6.2,3.4 -9.7,4.4 -3.5,1.1 -7.2,1.6 -11.1,1.6 -3.8,0 -7.4,-0.5 -10.9,-1.5 -3.4,-1 -6.7,-2.4 -9.7,-4.2 -3,-1.8 -5.7,-3.9 -8.1,-6.4 -2.4,-2.5 -4.5,-5.3 -6.2,-8.4 -1.7,-3.1 -3,-6.4 -4,-9.9 -1,-3.5 -1.4,-7.2 -1.4,-11 0,-3.7 0.4,-7.4 1.3,-11 0.9,-3.6 2.2,-7 3.8,-10.2 1.7,-3.2 3.7,-6.1 6,-8.8 2.4,-2.7 5,-5 7.9,-6.9 2.9,-1.9 6.1,-3.4 9.5,-4.5 3.4,-1.1 7,-1.6 10.8,-1.6 6.1,0 11.7,1 16.8,2.9 5,1.9 9.4,4.7 12.9,8.3 3.6,3.6 6.3,7.9 8.3,13 2,5.3 3,11 3,17.2 z m -28.1,1.7 c 0,-1.8 -0.3,-3.6 -0.8,-5.4 -0.5,-1.7 -1.3,-3.3 -2.3,-4.6 -1,-1.4 -2.3,-2.4 -3.8,-3.3 -1.5,-0.8 -3.2,-1.3 -5.2,-1.3 -2,0 -3.8,0.4 -5.3,1.1 -1.6,0.7 -2.9,1.7 -4,3 -1.1,1.3 -2,2.8 -2.6,4.4 -0.6,1.7 -0.9,3.5 -0.9,5.4 0,1.8 0.3,3.6 0.8,5.4 0.5,1.8 1.3,3.4 2.3,4.9 1,1.5 2.3,2.6 3.8,3.5 1.5,0.9 3.2,1.4 5.2,1.4 2,0 3.8,-0.4 5.4,-1.2 1.6,-0.8 2.9,-1.9 4,-3.2 1.1,-1.4 1.9,-2.9 2.5,-4.7 0.6,-1.7 0.9,-3.5 0.9,-5.4 z"
   id="path22"
   style="fill:url(#SVGID_10_)" />
	<path
   class="st13"
   d="m 408.6,170.9 c 0,3.2 -0.6,5.9 -1.8,8.2 -1.2,2.3 -2.7,4.3 -4.7,5.9 -2,1.6 -4.2,2.9 -6.7,3.9 -2.5,1 -5.2,1.8 -8,2.4 -2.8,0.6 -5.5,1 -8.3,1.1 -2.8,0.2 -5.4,0.3 -7.8,0.3 -2.4,0 -4.8,-0.1 -7.4,-0.3 -2.5,-0.2 -5.1,-0.5 -7.6,-0.9 -2.5,-0.4 -5,-1 -7.5,-1.7 -2.5,-0.7 -4.8,-1.6 -7,-2.7 l -0.1,-74 c 2.1,-0.9 4.4,-1.7 6.8,-2.4 2.4,-0.7 4.9,-1.3 7.4,-1.8 2.5,-0.5 5,-0.8 7.5,-1.1 2.5,-0.2 4.9,-0.4 7.2,-0.4 2.7,0 5.5,0.2 8.2,0.5 2.8,0.3 5.4,0.9 8,1.7 2.6,0.8 5,1.8 7.2,3.1 2.2,1.3 4.2,2.9 5.8,4.7 1.7,1.9 3,4.1 3.9,6.5 0.9,2.5 1.4,5.4 1.4,8.6 0,2.1 -0.3,4.2 -0.9,6 -0.6,1.9 -1.5,3.6 -2.6,5.1 -1.1,1.5 -2.5,2.8 -4.2,3.8 -1.6,1.1 -3.5,1.8 -5.6,2.3 2.5,0.7 4.8,1.6 6.8,2.9 2,1.3 3.8,2.8 5.2,4.6 1.4,1.8 2.5,3.8 3.3,6.1 1.1,2.6 1.5,5 1.5,7.6 z m -37.3,-14 c -1.1,0 -2.2,0.1 -3.2,0.3 l -0.2,13.1 c 0.6,0.1 1.1,0.2 1.7,0.3 0.6,0.1 1.1,0.1 1.6,0.1 0.8,0 1.7,-0.1 2.6,-0.3 1,-0.2 1.9,-0.5 2.7,-1 0.8,-0.5 1.5,-1.2 2.1,-2.1 0.6,-0.9 0.8,-2 0.8,-3.5 0,-1.5 -0.3,-2.6 -0.8,-3.6 -0.6,-0.9 -1.2,-1.6 -2,-2.2 -0.8,-0.5 -1.7,-0.9 -2.6,-1 -1,-0.1 -1.9,-0.1 -2.7,-0.1 z m 8.2,-18.8 c 0,-1.1 -0.2,-2.1 -0.7,-2.8 -0.5,-0.8 -1,-1.4 -1.7,-1.9 -0.7,-0.5 -1.4,-0.9 -2.2,-1.1 -0.8,-0.2 -1.5,-0.3 -2.1,-0.3 -0.8,0 -1.5,0.1 -2.2,0.3 -0.7,0.2 -1.4,0.5 -2.1,0.8 l -0.3,12.8 c 0.9,0 2,-0.1 3.3,-0.2 1.3,-0.2 2.6,-0.5 3.8,-1 1.2,-0.5 2.2,-1.3 3.1,-2.3 0.6,-1.1 1.1,-2.5 1.1,-4.3 z"
   id="path23" />
	<path
   class="st13"
   d="m 471.3,108.5 c -0.2,3.6 -0.4,7.2 -0.6,10.7 -0.2,3.5 -0.4,7.1 -0.7,10.7 l -24.4,1.3 -0.6,7.2 h 17.1 l -1.3,17.8 -17.2,0.6 -0.6,8.4 h 14.2 10.1 c -0.2,4.2 -0.5,8.4 -0.7,12.6 -0.2,4.2 -0.5,8.3 -0.7,12.5 l -49.5,1.1 1.8,-82.8 h 53.1 z"
   id="path24" />
	<path
   class="st13"
   d="m 539.1,109.2 -0.6,24.4 -17.1,0.7 -4.4,54.5 -24.2,1.3 0.1,-54.5 -17.1,0.9 0.7,-27.1 z"
   id="path25" />
</g></g>
<g
   class="st3"
   id="g26">
	<linearGradient
   id="SVGID_11_"
   gradientUnits="userSpaceOnUse"
   x1="123.7283"
   y1="-1303.969"
   x2="111.8956"
   y2="-645.7749">
		<stop
   offset="0"
   style="stop-color:#D0D2D3"
   id="stop25" />
		<stop
   offset="1"
   style="stop-color:#404041"
   id="stop26" />
	</linearGradient>
	<polygon
   class="st14"
   points="150.2,-1092 221.6,-1087.3 164.8,-871.3 87.8,-867 18,-1085.2 91.6,-1092 121.3,-964.8 "
   id="polygon26"
   style="fill:url(#SVGID_11_)" />
</g>
</svg>
