<?xml version="1.0" encoding="UTF-8" standalone="no"?>
<svg
   width="220"
   height="75"
   viewBox="0 0 220 75"
   fill="none"
   version="1.1"
   id="svg2"
   xmlns="http://www.w3.org/2000/svg"
   xmlns:svg="http://www.w3.org/2000/svg">
  <defs
     id="defs2" />
  <g
     id="g4"
     transform="matrix(0.77342511,0,0,0.77342511,-6.2964534,-77.814203)">
    <g
       id="g3">
      <g
         id="g2">
        <rect
           x="40.876499"
           y="126.861"
           width="41.258801"
           height="41.258801"
           fill="#000000"
           id="rect1" />
        <path
           d="m 83.3358,119.984 h -43.667 c -3.1302,0 -5.6688,2.539 -5.6688,5.67 v 43.673 c 0,3.13 2.5386,5.669 5.6688,5.669 h 43.667 c 3.1302,0 5.6688,-2.539 5.6688,-5.669 v -43.673 c 0,-3.131 -2.5386,-5.67 -5.6688,-5.67 z m -5.3336,19.771 c 0,1.234 -0.9985,2.233 -2.2319,2.233 h -6.5341 c -1.2335,0 -2.232,1.001 -2.232,2.232 v 6.538 c 0,1.233 -1.0014,2.232 -2.232,2.232 h -6.5369 c -1.2335,0 -2.232,0.999 -2.232,2.232 v 6.538 c 0,1.231 -0.9985,2.232 -2.232,2.232 h -6.537 c -1.2306,0 -2.2319,-1.001 -2.2319,-2.232 v -6.538 c 0,-1.233 1.0013,-2.232 2.2319,-2.232 h 6.537 c 1.2335,0 2.232,-0.999 2.232,-2.232 v -6.538 c 0,-1.231 0.9985,-2.232 2.232,-2.232 h 6.5369 c 1.2306,0 2.232,-0.999 2.232,-2.233 v -6.535 c 0,-1.233 0.9985,-2.232 2.232,-2.232 h 6.5341 c 1.2334,0 2.2319,0.999 2.2319,2.232 z"
           fill="#ef013d"
           id="path1" />
        <path
           fill-rule="evenodd"
           clip-rule="evenodd"
           d="m 142.457,119.984 h 7.059 v 17.971 h 0.771 c 1.733,-2.76 4.556,-5.584 10.461,-5.584 8.151,0 14.697,6.932 14.697,16.687 0,9.756 -6.546,16.751 -14.697,16.751 -5.905,0 -8.728,-2.824 -10.461,-5.648 h -0.899 v 4.75 h -6.931 z m 16.43,18.677 c -5.584,0 -9.371,3.915 -9.371,10.397 0,6.482 3.787,10.461 9.371,10.461 5.455,0 9.499,-3.786 9.499,-10.461 0,-6.675 -4.044,-10.397 -9.499,-10.397 z m 59.842,-5.392 h -8.407 v 6.097 h 8.407 v 19.768 c 0,3.401 2.439,5.776 5.776,5.776 h 8.472 v -6.097 h -5.455 c -1.155,0 -1.733,-0.578 -1.733,-1.861 v -17.586 h 8.985 v -6.097 h -6.498 c -2.07,0 -3.861,0.329 -4.779,0.535 l -0.207,-0.359 c 1.193,-1.396 1.811,-2.15 2.143,-3.049 0.356,-0.962 0.356,-2.01 0.356,-4.107 v -3.417 h -7.06 z m 19.763,8.661 c 0,-5.904 5.519,-9.563 12.387,-9.563 6.482,0 10.91,2.696 15.531,7.702 l -5.134,3.915 c -2.952,-3.722 -6.482,-5.84 -10.461,-5.84 -3.274,0 -5.392,1.412 -5.392,3.722 0,2.696 2.696,3.145 6.098,3.594 l 1.861,0.257 c 8.664,1.091 13.349,3.273 13.349,9.499 0,6.225 -5.84,10.589 -14.119,10.589 -8.857,0 -13.799,-4.877 -16.495,-9.434 l 5.905,-3.466 c 1.989,4.429 6.161,6.996 10.782,6.996 3.915,0 6.996,-1.733 6.996,-4.493 0,-2.732 -3.425,-3.181 -6.728,-3.615 l -0.332,-0.043 -1.861,-0.257 c -8.023,-1.027 -12.387,-3.594 -12.387,-9.563 z m -44.345,-9.625 c -9.242,0 -15.853,7.06 -15.853,16.494 0,9.691 6.803,17.008 16.43,17.008 8.023,0 11.874,-4.364 14.184,-7.958 l -5.84,-3.338 c -1.412,2.76 -3.915,5.199 -8.472,5.199 -5.135,0 -8.665,-3.402 -8.985,-8.344 h 23.939 v -3.08 c 0,-9.371 -6.161,-15.981 -15.403,-15.981 z m 8.15,13.799 h -16.686 c 0.577,-4.75 3.465,-7.702 8.471,-7.702 4.878,0 7.895,2.952 8.215,7.702 z M 138.88,133.272 h -7.638 l -8.856,29.202 h -0.771 l -8.921,-29.202 h -7.637 l 10.205,31.641 h 6.097 l -4.574,13.294 h 7.633 z"
           fill="#000000"
           id="path2" />
      </g>
    </g>
  </g>
</svg>
