<?xml version="1.0" encoding="utf-8"?>
<!-- Generator: Adobe Illustrator 27.0.1, SVG Export Plug-In . SVG Version: 6.00 Build 0)  -->
<svg version="1.1" id="Шар_1" xmlns="http://www.w3.org/2000/svg" xmlns:xlink="http://www.w3.org/1999/xlink" x="0px" y="0px"
	 viewBox="0 0 200 200" style="enable-background:new 0 0 200 200;" xml:space="preserve">
<style type="text/css">
	.st0{fill-rule:evenodd;clip-rule:evenodd;fill:#F2F9FB;}
</style>
<path class="st0" d="M103.7,134.5l7.5,16.1l11.4-24.7c4.6-9.9,13.7-25.3,24.6-25.8l0.3,0l-0.3,0c-11-0.5-20.1-15.9-24.6-25.8
	L100.1,25l-7.5,16.1l25,54.6c0,0,7.4,4.1,11.5,4.3c-4,0.2-11.5,4.3-11.5,4.3L103.7,134.5L103.7,134.5z"/>
<path class="st0" d="M96.3,65.5l-7.5-16.1L77.3,74.2C72.8,84,63.7,99.5,52.7,100l-0.3,0l0.3,0c11,0.5,20.1,15.9,24.6,25.8L99.9,175
	l7.5-16.1L82,103.5c0,0-7-3.3-11-3.5c4-0.2,10.8-3.2,10.8-3.2L96.3,65.5L96.3,65.5z"/>
<polygon class="st0" points="100,80.4 104.6,90.2 109.1,100 104.6,109.8 100,119.7 95.5,109.8 91,100 95.5,90.2 "/>
</svg>
