<?xml version="1.0" encoding="UTF-8"?>
<svg width="200px" height="200px" viewBox="0 0 200 200" version="1.1" xmlns="http://www.w3.org/2000/svg" xmlns:xlink="http://www.w3.org/1999/xlink">
    <!-- Generator: Sketch 51.3 (57544) - http://www.bohemiancoding.com/sketch -->
    <title>dota game mono icon</title>
    <desc>Created with Sketch.</desc>
    <defs></defs>
    <g id="dota-game-mono-icon" stroke="none" stroke-width="1" fill="none" fill-rule="evenodd">
        <g id="2">
            <rect id="Rectangle-6" x="0" y="0" width="200" height="200"></rect>
            <path d="M63.076313,27.7612177 L26.4496582,28.5145608 C24.4743341,35.804755 26.4376189,32.1147338 26.4425238,39.725974 L26.4356124,53.5062002 C26.1366384,57.4862775 25.0883344,59.5139945 25.0903409,64.836445 C25.0910098,66.6287283 24.6948302,70.7383387 25.5565263,72.1417997 C27.0823861,74.6267841 27.044039,76.7311954 27.6865767,80.3213357 C28.257102,83.5108375 28.8789054,83.1755229 27.4408874,85.5811377 L26.7704811,91.6749901 L29.9002327,94.7365194 L29.9236423,100.088622 C28.0602384,101.796185 30.1450302,100.580892 26.2055295,103.422372 L26.5577882,119.589262 L30.4366469,122.405771 L29.625783,136.187558 C25.5344544,139.120446 26.4142093,142.676921 26.5448572,146.329264 L27.0449308,160.073149 L26.146894,167.116317 C35.3147609,169.423165 33.3051028,168.707946 43.7839071,168.707277 C53.0447435,168.706609 51.8495164,168.802031 61.0026686,167.689963 L61.2389941,169.25038 C62.6573927,169.158525 64.1223875,169.081162 65.5202749,168.945164 C69.4163006,168.566374 67.8594509,168.116241 69.2009323,167.630213 C70.1705355,167.279069 80.6085402,169.702297 82.3042868,170.067709 C83.2397789,169.020297 82.7635608,169.443231 84.0695933,168.598924 C84.7752254,170.090227 87.7943946,173.511819 89.0239558,175 L92.8042712,171.451551 L99.4173707,174.018358 L101.354571,172.38905 C102.109697,173.281959 102.570309,174.404059 103.918033,174.580634 C105.881987,174.837916 106.202141,171.58532 110.534031,171.502829 L135.652082,170.664989 C135.974466,170.353975 136.166201,170.170043 136.511995,169.831161 L137.795732,168.786424 C139.445774,169.781221 140.1494,170.73767 142.413219,170.587625 C149.340676,170.128574 145.715087,172.26509 154.656216,171.784413 C156.197013,171.701699 155.81421,171.322464 157.17375,170.843793 L160.076095,170.395667 C159.445596,168.704379 159.041613,168.942711 157.787082,167.678816 L173.69825,170.896409 C173.484888,152.168286 173.525019,129.317176 173.762905,110.048625 L169.485192,110.368333 C169.639918,109.117815 171.504437,109.58779 171.65136,107.073377 C171.835961,103.903717 171.802519,93.053035 171.341015,90.7339243 C171.105359,89.5489528 168.087304,86.0930275 167.280677,85.0179697 C168.240024,82.4079111 168.335446,82.5813651 170.113238,80.4542131 C169.963193,79.0538733 169.635236,78.6797656 169.03439,77.0856836 L173.697358,75.5575943 C173.748637,72.8753004 174.050286,62.1137974 173.875494,58.7120486 L171.986005,40.3384136 L173.429374,35.7450048 L173.491577,31.0240695 C169.464012,28.7022834 169.990616,28.4461156 167.193504,28.4652891 C164.684664,28.4824562 161.303203,28.34891 158.897143,27.7977812 C155.808637,27.0905885 156.637559,26.5889542 153.251863,30.0649449 L151.715078,26.7189332 C146.880439,26.360432 131.377713,25.0062426 127.690144,25.0062426 C122.977012,25.0062426 123.65968,25.3598389 122.067828,30.7112727 L115.302454,31.4073181 L114.402634,28.4811185 L108.272441,28.4111126 L108.922336,27.6956708 C110.120684,26.5535054 109.700426,27.0138942 110.638371,25 L85.9842754,25.0026754 C85.1691755,26.5093616 83.6794334,27.655763 81.9232677,28.2389964 C79.4679355,29.0538733 80.6834509,27.7400375 79.1323979,29.1314594 C77.9712819,30.173075 77.7697365,30.107974 75.9386601,30.0711875 C73.5089669,30.0223617 71.0168482,29.9443297 68.5882697,29.84378 C67.4681763,29.7976296 66.2361626,29.9102186 65.1595441,29.6560573 C63.5005841,29.2643367 63.9834906,28.8338231 63.076313,27.7612177 M41.6734762,54.1186398 C44.0750779,52.77047 45.3545795,53.7942497 49.4060004,50.8602469 C50.4917598,50.0739074 52.9898981,50.1514935 54.5061712,50.3597275 C56.0779584,50.5755417 59.6975279,53.5931501 61.3576027,54.6126938 C62.3173962,55.2021697 66.6372471,58.5011393 67.3415415,59.6419669 L69.4749361,63.0862989 C72.4147355,63.2312155 71.8983867,63.0604369 75.6078045,65.7746124 L111.109238,89.2033826 C118.743219,94.5082201 127.651128,99.9276532 135.328361,105.273067 L157.210314,119.595504 C156.57937,120.953707 155.839626,125.638525 155.427172,127.511515 C153.531217,136.114208 151.147897,139.758079 147.288881,148.03103 C141.744374,148.249074 137.368117,148.207159 131.949799,148.120432 C130.196308,148.092341 130.627937,148.459983 129.668812,147.530956 C126.496923,144.456719 120.727907,137.710296 117.520123,134.599495 C116.412292,133.52466 115.415266,132.516264 114.317468,131.346676 C105.448575,121.89611 109.646696,124.743163 107.911487,122.390387 L90.0649025,105.520763 C85.9680001,101.536896 82.2766412,97.2471429 78.0408419,92.7598577 C76.953076,91.6076596 76.406852,90.5205625 75.2729358,89.4738192 L74.9590242,89.1908975 C74.6560372,88.8943759 74.7721933,89.0167746 74.4903864,88.6937222 L69.3059411,82.8011923 C68.3929668,81.9564403 68.4801397,81.9845318 67.8101793,81.2245003 L63.1476565,76.4146085 C62.1223162,75.3391047 61.3230457,74.2259227 60.3471999,73.0659214 L55.8911275,68.3394124 C55.2280785,67.6658849 54.7474015,67.4645623 54.0941623,66.7841234 C51.9754823,64.5776017 50.1936776,62.4653872 48.0520339,60.261318 C46.3384514,58.4973491 42.1670843,55.1067478 41.6734762,54.1186398 M135.652082,50.4622838 C138.005973,51.2807279 143.713232,54.5417962 145.112234,56.2961782 C146.289626,57.7727664 145.948737,57.908765 145.513096,60.0363629 L143.192425,78.1990886 C139.977507,78.3170284 140.90631,77.9337798 138.91315,76.5963115 C135.57026,74.3536722 124.102456,65.8820736 120.420238,62.9135138 L113.3385,57.2220835 C113.860869,56.7340491 113.158804,56.9897711 114.337979,56.6818792 L124.82035,54.3204083 C130.280806,52.9512813 131.127119,52.5923341 135.652082,50.4622838 M53.4271002,114.581838 C54.8874132,115.494366 55.828256,116.39374 57.2415268,117.532562 L68.6848064,128.145358 C71.0728082,130.418318 77.1842736,136.589757 79.5339282,139.32489 C81.1369282,141.190969 81.8329736,141.390954 83.0125943,143.230502 C82.5800741,143.391248 77.2335452,144.619471 74.1245278,145.688956 C67.6501023,147.916211 61.7537823,151.484726 56.1158596,149.573388 C55.2724453,149.287122 51.4341632,145.621402 49.6742075,144.381808 C48.6328148,143.648085 47.6413627,142.955829 46.4427913,142.118212 C43.0113904,139.720177 42.0279644,141.371557 46.5859243,130.750958 C47.7778072,127.973688 48.7873182,125.472428 49.9219033,122.750226 C50.9129095,120.372257 52.2780235,116.527733 53.4271002,114.581838" id="Fill-1" fill="#F0FFFF"></path>
        </g>
    </g>
</svg>