<?xml version="1.0" encoding="utf-8"?>
<!-- Generator: Adobe Illustrator 27.5.0, SVG Export Plug-In . SVG Version: 6.00 Build 0)  -->
<svg version="1.1" id="Шар_1" xmlns="http://www.w3.org/2000/svg" xmlns:xlink="http://www.w3.org/1999/xlink" x="0px" y="0px"
	 viewBox="0 0 200 200" style="enable-background:new 0 0 200 200;" xml:space="preserve">
<style type="text/css">
	.st0{fill:none;}
	.st1{fill:#136D15;}
</style>
<g id="cs-go-game-mono-icon">
	<g id="_x31_">
		<rect id="Rectangle-6" class="st0" width="200" height="200"/>
		<path class="st1" d="M71.8,30.5C62.5,34.3,54.1,39.8,47,47c-7.2,7.2-12.7,15.5-16.5,24.8c-3.6,9-5.5,18.5-5.5,28.2
			c0,9.7,1.8,19.2,5.5,28.2c3.8,9.3,9.3,17.7,16.5,24.8c7.2,7.2,15.5,12.7,24.8,16.5c9,3.6,18.5,5.5,28.2,5.5s19.2-1.8,28.2-5.5
			c9.3-3.8,17.7-9.3,24.8-16.5c7.2-7.2,12.7-15.5,16.5-24.8c3.6-9,5.5-18.5,5.5-28.2c0-9.7-1.8-19.2-5.5-28.2
			c-3.8-9.3-9.3-17.7-16.5-24.8c-7.2-7.2-15.5-12.7-24.8-16.5c-9-3.6-18.5-5.5-28.2-5.5S80.8,26.8,71.8,30.5z M43.7,131.6
			c-3.6-2.3-6.9-4.9-9.9-8c-4.5-12.7-5.3-26.4-2.3-39.4c1.4-2.8,3-5.4,4.8-8c0.6-0.8,1.1-1.6,1.7-2.4l16.9,10c0,0.1,0,0.3,0,0.4
			c0,9.1,0.9,18.1,2.7,27c0,0,0,0.1,0,0.1l-13.1,20.6C44.3,131.9,44,131.7,43.7,131.6z M94.1,166.4c2.9,1.5,5.9,2.7,9,3.8
			c-13.1,0.6-26.3-2.5-38.1-9.2l28.4,5.1C93.6,166.1,93.8,166.3,94.1,166.4z M94,161.2l-33.5-6c-3.9-4.8-7.4-9.8-10.5-15.2
			c-0.8-1.4-1.6-2.7-2.3-4.1l13.1-20.6c0.3,0.1,0.6,0.1,1,0.2c8.2,2.2,16.6,3.8,25,5c0.5,0.1,0.9,0.1,1.3,0.2l15.7,27.2
			c-2.7,3.8-5.5,7.6-8.3,11.4C95,160,94.5,160.6,94,161.2z M149.7,149.7c-2.7,2.7-5.5,5.1-8.5,7.2c-0.5-3.9-1.3-7.8-2.5-11.5
			l16.8-31.3c4.6-2.1,9.1-4.5,13.2-7.4c0.5-0.4,1-0.8,1.3-1.3C168.8,121.5,162,137.3,149.7,149.7z M148.9,109.1
			c0.6,1.2,1.2,2.4,1.9,3.6l-16.2,30.2c-0.1,0-0.2,0-0.3,0.1c-8.8,1.6-17.6,2.5-26.5,2.5l-16.2-28c2.5-4.7,5-9.4,7.5-14.1
			c1.7-3.2,3.3-6.4,5-9.6l33.5-3.4C141.7,96.5,145.6,102.6,148.9,109.1z M142.1,73.2c-1.6,4.2-3.3,8.3-5,12.5l-32.6,3.3
			c-0.4-0.5-0.8-1-1.2-1.5c-3.8-4.4-7.7-8.7-11.6-13c0,0,0.1-0.1,0.1-0.1c-1.6-1.6-3.1-3.1-4.7-4.7l9.1-27.3
			c0.6-0.2,1.3-0.3,1.9-0.4c4.9-0.5,9.9-1.1,14.8-1.4c3-0.2,6.1-0.3,9.2,0L144.6,66C143.8,68.4,143,70.9,142.1,73.2z M149.7,50.3
			c6.2,6.2,11,13.3,14.4,20.8c-4.2-2.9-8.7-5.3-13.4-7.2c-0.7-0.3-1.5-0.6-2.3-0.8l-22.1-24.9c0.2-1.1,0.2-2.2,0.3-3.2
			C135,38.4,142.9,43.5,149.7,50.3z M77.5,33.7c0.1,0.1,0.1,0.1,0.2,0.1c5.1,1.7,9.6,4.3,14,7.4l-8.5,25.5c0,0-0.1,0-0.1,0
			c-1.7,0.7-3.5,1.4-5.2,2.1c-7,3.2-13.9,6.7-20.4,11L40.8,70c0-0.5,0.1-1.1,0.3-1.5c1.1-3,2.2-6,3.5-8.9c1-2.3,2.1-4.4,3.3-6.6
			c0.8-0.9,1.6-1.7,2.5-2.6c7.9-7.9,17.3-13.6,27.3-16.9C77.6,33.5,77.6,33.6,77.5,33.7z"/>
	</g>
</g>
</svg>
