<?xml version="1.0" encoding="UTF-8"?>
<svg width="200px" height="200px" viewBox="0 0 200 200" version="1.1" xmlns="http://www.w3.org/2000/svg" xmlns:xlink="http://www.w3.org/1999/xlink">
    <!-- Generator: Sketch 51.3 (57544) - http://www.bohemiancoding.com/sketch -->
    <title>legend game mono icon</title>
    <desc>Created with Sketch.</desc>
    <defs></defs>
    <g id="legend-game-mono-icon" stroke="none" stroke-width="1" fill="none" fill-rule="evenodd">
        <g id="3">
            <rect id="Rectangle-6" x="0" y="0" width="200" height="200"></rect>
            <g id="Group" transform="translate(30.000000, 25.000000)" fill="#F0FFFF">
                <path d="M54.9866965,59.8200763 C54.9870069,78.443491 55.0074947,97.0669056 54.9497563,115.69001 C54.9447896,117.27409 55.3629271,117.658081 56.9302441,117.654045 C77.9330379,117.599101 98.9361421,117.617105 119.939246,117.617416 C120.508249,117.617416 121.077251,117.618657 121.646253,117.625176 C123.086608,117.641628 124.125277,118.29103 124.66541,119.634533 C125.212994,120.996041 124.818448,122.153602 123.809889,123.159677 C120.441508,126.52154 117.079025,129.889921 113.714058,133.255198 C112.031575,134.938303 110.299113,136.575154 108.684302,138.320342 C107.647184,139.441274 106.477517,139.837682 104.974767,139.834267 C89.3518849,139.79981 73.728692,139.813158 58.1058095,139.813158 C43.6209315,139.813158 29.1360534,139.817194 14.6511754,139.801673 C13.8887807,139.800742 13.0605767,139.793602 12.3767186,139.513291 C10.218049,138.62797 9.85951243,136.040298 11.6251887,134.285176 C15.147539,130.784245 18.7282486,127.341673 22.2077608,123.799145 C22.7426166,123.254666 23.1424393,122.307571 23.1433705,121.546107 C23.188692,87.0927593 23.1880712,52.6397216 23.1477164,18.1863735 C23.1467852,17.3907637 22.7932153,16.4753313 22.3201333,15.8209633 C19.8361421,12.38491 17.2770291,9.00287013 14.7079825,5.62952201 C13.7962752,4.43191669 13.3064304,3.19550871 14.0169847,1.75949984 C14.7312641,0.316351283 16.0092685,-0.00369306267 17.5219515,3.19927635e-05 C28.6440357,0.0267282234 39.7664304,0.0124488442 50.8888251,0.0152426358 C53.9595124,0.0158634784 54.9829714,1.02752645 54.9839027,4.10504308 C54.9891798,22.6766174 54.9866965,41.2481916 54.9866965,59.8200763" id="Fill-1"></path>
                <path d="M63,110.153569 L63,24.5145443 C67.9825721,24.3819944 72.7478492,25.1630143 77.4193792,26.5478037 C97.4899778,32.4973381 111.888248,50.226429 113.559867,71.2227039 C114.710909,85.6811962 110.245188,98.3190675 100.699734,109.18226 C100.249002,109.695076 99.4474945,110.19889 98.8070953,110.201994 C87.0647894,110.260974 75.3221729,110.24266 63.5795565,110.237382 C63.4296231,110.237382 63.2796896,110.195476 63,110.153569" id="Fill-4"></path>
                <path d="M63,16.8062084 L63,10.5 C66.397561,10.817561 69.7463858,10.9324169 73.0262971,11.4694457 C98.6503326,15.6657206 119.018625,34.6160089 124.842749,59.987051 C128.761508,77.0568071 125.87459,93.125765 116.698226,108.063548 C116.162129,108.936452 115.576984,109.233836 114.583947,109.197206 C112.542616,109.122395 110.49694,109.174856 108.341375,109.174856 C121.614678,90.0631486 124.409712,69.8724169 114.109002,49.0149002 C103.814191,28.1704213 86.1130377,18.0205765 63,16.8062084" id="Fill-6"></path>
                <path d="M19.0137605,121.734191 C-5.81404434,98.4442129 -6.85643902,56.268204 19.0137605,31.5 C19.0137605,33.8203991 18.9231175,35.9039468 19.0407672,37.9760089 C19.1453792,39.8217738 18.6170421,41.2701996 17.4914546,42.7838137 C2.3065765,63.2073614 2.58719735,91.2045676 18.0446253,111.387539 C18.6130067,112.130067 18.9200133,113.228647 18.9709224,114.18102 C19.0997472,116.599202 19.0137605,119.028869 19.0137605,121.734191" id="Fill-9"></path>
                <path d="M16.828976,52.5 L16.828976,100.19561 C12.5020137,92.8389357 10.51718,84.8611086 10.5001069,76.3968514 C10.4830337,67.8968958 12.5116368,59.8914412 16.828976,52.5" id="Fill-11"></path>
            </g>
        </g>
    </g>
</svg>