<?xml version="1.0" encoding="UTF-8"?>
<svg width="200px" height="200px" viewBox="0 0 200 200" version="1.1" xmlns="http://www.w3.org/2000/svg" xmlns:xlink="http://www.w3.org/1999/xlink">
    <!-- Generator: Sketch 51.3 (57544) - http://www.bohemiancoding.com/sketch -->
    <title>over game mono icon</title>
    <desc>Created with Sketch.</desc>
    <defs></defs>
    <g id="over-game-mono-icon" stroke="none" stroke-width="1" fill="none" fill-rule="evenodd">
        <g id="4">
            <rect id="Rectangle-6" x="0" y="0" width="200" height="200"></rect>
            <g id="Overwatch_circle_logo" transform="translate(25.000000, 25.000000)" fill="#F0FFFF" fill-rule="nonzero">
                <path d="M73.9295806,0.250226285 C57.2934693,0.356863328 40.8468937,6.28721287 27.9255075,16.7161423 L42.0438563,33.1079252 C53.9594601,23.7045177 70.0145507,19.8725534 84.905549,22.832913 C93.0891304,24.4072552 100.876184,28.0006071 107.446246,33.1079252 L121.564595,16.7161423 C108.199522,5.9313142 91.1378746,-0.00764414452 73.9295806,0.250226285 Z" id="path3961"></path>
                <path d="M23.3292189,20.7440733 C8.45283937,34.7198771 -0.269650739,55.0358746 0.00635921761,75.5288522 C0.0151798156,96.8007384 9.71865748,117.695873 25.833289,131.516282 C40.728907,144.543982 60.9875507,151.18044 80.7655216,149.501604 C102.196672,147.905629 122.538234,136.458934 135.113651,119.067341 C147.353985,102.540299 152.149572,80.7458048 148.086411,60.5352434 C145.099465,45.0639817 136.988265,30.7258331 125.452495,20.0686323 L111.334146,36.4604153 C122.710171,47.1832774 128.921791,63.0111952 127.75064,78.6260108 C127.238337,86.362363 124.991437,93.9973555 121.193928,100.791984 L92.4218173,73.0000889 L77.905206,41.7087284 L77.8833787,89.0953355 L106.960261,117.23319 C94.0029767,127.300154 76.2244759,130.639126 60.4707932,126.176885 C54.0562027,124.38754 47.9819601,121.385272 42.7028223,117.356746 L71.9773929,89.0953355 C71.9263605,73.688995 72.1561719,57.0579244 71.9772209,41.6578106 L57.4389518,73.0000889 L28.4197301,101.022623 C19.5666234,85.5679186 19.3548518,65.588113 27.8760847,49.9609834 C30.5399626,44.954696 34.0657176,40.3858978 38.155956,36.4604153 L24.0376076,20.0686323 C23.8014772,20.2937793 23.5653468,20.5189238 23.3292189,20.7440733 Z" id="path4052"></path>
            </g>
        </g>
    </g>
</svg>