<?xml version="1.0" encoding="utf-8"?>
<!-- Generator: Adobe Illustrator 27.0.1, SVG Export Plug-In . SVG Version: 6.00 Build 0)  -->
<svg version="1.1" id="Шар_1" xmlns="http://www.w3.org/2000/svg" xmlns:xlink="http://www.w3.org/1999/xlink" x="0px" y="0px"
	 viewBox="0 0 200 200" style="enable-background:new 0 0 200 200;" xml:space="preserve">
<style type="text/css">
	.st0{fill:#F1F9FB;}
</style>
<path class="st0" d="M34.8,56.9c-1.1,0.3-1.8,0.8-2.4,1.5c-0.8,1-0.9,1.2-0.8,4.2c0,1.7,0,4.8,0,6.8c0,3.7,0,3.7-0.7,3.5
	c-1.4-0.5-4.7-0.3-5.2,0.4c-0.5,0.5-0.5,0.5,0.1,0.3c0.4-0.1,0.5-0.1,0.4,0.2C26,73.9,25.8,74,25.6,74c-0.2,0-0.4,0.5-0.4,1.6
	c0,0.9-0.1,2.2-0.2,2.8c-0.1,0.9,0,1.3,0.7,1.9c0.8,0.8,1,0.9,3.3,0.9c2.1,0,2.5,0.1,2.6,0.5c0.2,0.7,0,36.4-0.2,36.9
	c-0.1,0.3-0.8,0.4-2.2,0.4s-2.3,0.2-3,0.5c-0.9,0.6-1,0.6-1,3.1c-0.1,5,0.1,5.2,4,5.2h2.6l-0.1,6c-0.1,8.5,0.1,8.8,6.2,9.2
	c9,0.5,35.4,0.7,39.7,0.3c1.5-0.1,2.9-0.2,4.3-0.1c2,0,2.5,0,2.9-0.4c0.3-0.3,0.4-0.3,0.4,0c0,0.2,0.2,0.4,0.3,0.4
	c0.2,0,0.3-0.3,0.3-0.7c0-0.4-0.1-0.5-0.3-0.4c-0.2,0.1-0.3,0-0.3-0.2c0-0.6,0.8-0.2,1.1,0.6c0.3,0.7,0.4,0.7,7.3,0.7
	c3.9,0,9.2,0.1,11.8,0.2c7.1,0.3,18.2-0.1,18.2-0.7c0-0.3,0.2-0.4,0.4-0.4c0.2,0,0.3,0.2,0.2,0.5c-0.1,0.4,0.2,0.5,2.2,0.5
	c1.3,0,8.5,0.1,16.1,0.1c7.5,0,13.6,0,13.5-0.2c-0.1-0.1,0.1-0.2,0.4-0.2c0.3,0,0.4,0.2,0.3,0.4c-0.4,0.6,7.8,0.1,9.2-0.6
	c2.3-1.1,2.4-1.6,2.4-8.4c0-3.4,0.1-6.3,0.3-6.6c0.1-0.4,0.4-0.4,0.9-0.3c0.9,0.3,4.3,0.2,4.9-0.2c0.4-0.3,0.4-0.3-0.1-0.3
	c-0.4,0-0.5-0.2-0.4-0.4c0.1-0.2,0.3-0.4,0.4-0.3c0.4,0.1,0.7-4.9,0.4-5.5c-0.8-1.3-0.9-1.4-3.7-1.6l-2.9-0.2l-0.1-18.9L168,81.2
	h2.8c2.6,0,2.8-0.1,3.5-0.9c0.7-0.7,0.8-1.1,0.7-1.9c-0.1-0.6-0.2-1.8-0.2-2.7c0-1.1-0.1-1.6-0.4-1.6c-0.2,0-0.4-0.1-0.5-0.4
	c-0.1-0.3,0-0.3,0.4-0.2c0.5,0.2,0.5,0.2,0.1-0.3c-0.5-0.5-3.6-0.8-5-0.4c-1.4,0.4-1.5,0-1.7-5.6c-0.4-8.7-1-9.9-5.3-9.8
	c-1.3,0-2.4,0-2.6-0.1c-0.3-0.3-5.7-0.7-8.3-0.7c-1,0-2.9,0-4.1,0c-1.2,0-7.4,0.1-13.8,0.1c-6.4,0-12.8,0.1-14.2,0.2
	c-1.5,0.1-3.3,0.1-4.1,0.1c-12.1-0.2-22.2-0.3-22.7-0.1c-0.4,0.1-0.7,0.3-0.6,0.4c0,0.1-0.1,0.3-0.3,0.3c-0.2,0.1-0.3-0.1-0.3-0.3
	c0-0.3-1.5-0.4-6.4-0.4c-5,0-6.4,0.1-6.4,0.4c0.1,0.2-0.1,0.4-0.4,0.4c-0.3,0-0.4-0.1-0.3-0.3c0.4-0.6-1.7-0.7-15.9-0.7
	c-7.9,0-16.9-0.1-20-0.1C37.8,56.5,35.9,56.6,34.8,56.9L34.8,56.9z M98.4,65.3c42.8,0.1,57,0,57-0.3c0-0.3,0.1-0.3,0.3,0
	c0.1,0.2,0.9,0.4,1.8,0.5l1.6,0.1l0,1.6c0.1,2.5,0.5,27.8,0.4,28.3c-0.1,2.7,0,22.8,0.2,29.8s0.1,9-0.2,9.2
	c-0.2,0.1-1.4,0.2-2.6,0.2c-2.3-0.1-10.8-0.1-43.2-0.1c-16.8,0-19,0.1-18.8,0.5c0.1,0.3,0,0.5-0.4,0.5c-0.4,0-0.6-0.2-0.4-0.5
	c0.2-0.4-1.8-0.4-15.7-0.4c-8.7,0-18.5,0.1-21.6,0.2c-3.1,0.1-5.7,0.1-5.7,0c0-0.4-1.1-0.3-1.5,0.2c-0.3,0.3-0.5,0.3-0.6,0.1
	c-0.1-0.3-1.6-0.4-4.1-0.4c-2.1,0-4-0.1-4.1-0.2c-0.2-0.1-0.3-1.3-0.3-2.7c0-2.1-0.1-2.5-0.5-2.3c-0.3,0.1-0.5,0-0.5-0.4
	s0.2-0.6,0.5-0.4c0.4,0.2,0.5-1.2,0.5-11.2c0.1-37.4,0.1-37-0.3-37.1c-0.3-0.1-0.3-0.2-0.1-0.4c0.5-0.3,0.5-4.1,0.1-5.5
	c-0.2-0.6-0.3-1.3-0.1-1.5c0.1-0.2,0.3-2,0.3-3.8c0-1.9,0.1-3.6,0.1-3.9c0-0.3,0.2-0.4,0.6-0.2C41.1,65.2,67,65.3,98.4,65.3
	L98.4,65.3z"/>
<path class="st0" d="M139.5,73.2l-6.7,0.1l-1.2,1.2c-1,1-1.3,1.4-1.4,2.9c-0.4,3-0.4,7.1-0.1,13.8c0.2,3.5,0.3,7,0.2,7.7
	s-0.1,6.4-0.1,12.8l0,11.6l0.8,1.2c0.4,0.7,1.2,1.4,1.7,1.6c1.3,0.5,13.8,0.7,15.5,0.2c1.5-0.5,2.8-2,2.9-3.8c0.3-3,0.2-26.2-0.2-27
	l-0.4-0.8h-4.3c-2.9,0-4.4,0.1-4.7,0.4c-0.3,0.3-0.4,1.5-0.4,3.4v3l0.9,0.5l0.9,0.6l0,3.5c0,1.9,0,5.1,0,7c0,2.1,0.1,3.7,0.3,4.1
	c0.3,0.4,0.3,0.8,0,1.4c-0.3,0.8-0.4,0.8-2.7,0.7c-2.7-0.1-3.2-0.3-2.7-0.9c0.4-0.4,0.5-22.3,0.2-32.6l-0.2-5l2.2-0.1
	c3.4-0.2,3.3-0.2,3.3,2.1c0,1.1,0.2,2.1,0.4,2.3c0.3,0.3,0.3,0.4,0,0.4c-0.7,0-0.4,0.9,0.4,1c1.1,0.2,5.5,0,5.9-0.3
	c0.1-0.2,0.3-2.6,0.4-5.4l0.1-5.1l-0.9-0.9c-0.8-0.8-1.4-1-3.5-1.3C146.3,73.2,143.1,73.2,139.5,73.2L139.5,73.2z M50.1,73.8
	c-0.3,0.3-0.4,2.1-0.3,6.4c0.1,7,0.1,6.5,0.4,5.9c0.3-0.4,0.3-0.3,0.3,0.4c0,0.4-0.2,0.9-0.4,0.9c-0.3,0.1-0.4,1.4-0.4,4.7
	c0,3.9-0.1,4.6-0.6,5.1c-0.5,0.4-0.6,1.1-0.6,4c0,1.9,0.1,3.4,0.2,3.3c0.3-0.3,1.3,0.7,1.3,1.3c0,0.2-0.1,0.4-0.2,0.4
	c-0.2,0-0.3,4.3-0.4,9.5c0,5.3,0.1,9.5,0.2,9.5c0.2,0,0.4,0.4,0.6,0.8c0.4,0.8,0.5,0.8,3.5,0.8c4.6,0,4.4,0.6,4.3-10.8
	c-0.1-5-0.1-9.2-0.2-9.4c-0.4-1.3-0.2-1.4,4.3-1.4c4.8,0,6.6-0.4,7.7-1.5l0.7-0.8l0.1-13.6c0.1-9.1,0-13.8-0.3-14.2
	c-0.8-1.4-1.6-1.6-11.2-1.7C52.8,73.5,50.3,73.5,50.1,73.8L50.1,73.8z M62.4,81.3c0,0.3,0,3.7,0.1,7.4c0,3.8,0.1,6.6,0.2,6.3
	c0.3-0.9,0.7-0.6,0.7,0.6c0,0.9-0.1,1.1-0.5,0.9c-0.4-0.1-0.4,0-0.3,0.4c0.2,0.5,0,0.5-1.9,0.4c-1.2-0.1-2.2-0.3-2.5-0.5
	c-0.5-0.5-0.5-1.4-0.1-1.4c0.2,0,0.3-2.2,0.2-7.2c-0.1-3.9-0.1-7.3,0-7.3c0.1-0.1,1.1-0.2,2.2-0.2C62.1,80.8,62.4,80.9,62.4,81.3
	L62.4,81.3z M76.9,73.7c-0.5,0.6-0.4,7.6,0.2,7.4c0.2,0,0.4,0.2,0.4,0.4c0,0.3-0.2,0.4-0.4,0.4c-0.3,0-0.4,0.5-0.5,1.6
	c-0.1,1.3,0,1.6,0.3,1.4s0.3-0.2,0.1,0.2c-0.5,0.7-0.8,36.1-0.4,38.2c0.3,1.1,0.6,1.7,1.4,2.3l1,0.8l8.2-0.1
	c9.1-0.1,9.8-0.3,10.8-2.2c0.7-1.3,1-11.9,0.8-30.3c-0.1-7.5-0.1-14.9-0.1-16.5c0-1.8-0.1-3-0.4-3.1c-0.2-0.1-0.4,0-0.5,0.2
	c-0.2,0.5-0.7,0.5-0.7-0.1c0-0.4-0.5-0.5-2.7-0.5c-4.3,0-4-1-3.9,13.4c0,6.7,0.1,14,0.2,16.2c0.2,3,0.1,4.2-0.2,4.2
	c-0.6,0-0.4,1.2,0.2,1.5c0.4,0.3,0.4,0.4,0.2,0.6c-0.2,0.2-0.4,1.7-0.5,4.5c-0.1,3.6-0.2,4.4-0.7,4.8c-0.5,0.5-0.6,0.5-1,0
	c-0.5-0.6-1.8-0.7-2.7-0.2c-0.9,0.5-1.9-0.4-1.7-1.6c0.2-0.9,0.4-26.9,0.2-36.3l-0.1-6.4l-1.3-0.7c-0.9-0.5-1.6-0.7-1.9-0.5
	c-0.6,0.3-2.7,0.3-3.6,0C77.5,73.4,77.1,73.5,76.9,73.7L76.9,73.7z M104.7,73.7c-0.4,0.5-0.5,11.8-0.1,13.4c0.2,0.6,0.2,2.1,0.1,3.3
	c-0.1,1.2-0.1,2.3,0.1,2.6c0.4,0.5,0,1.7-0.6,1.7c-0.3,0-0.4,0.2-0.3,0.3c0.1,0.2,0,0.5-0.3,0.8c-0.6,0.6-0.7,4.9-0.2,5.3
	c0.2,0.1,0.3,0.5,0.3,0.8s0.2,0.6,0.4,0.7c0.3,0.1,0.4,2.9,0.4,10.3c0,5.9,0.1,10.3,0.3,10.6c0.2,0.2,0.2,0.4,0,0.5
	c-0.2,0.1-0.2,0.8-0.2,1.4l0.1,1.3l8.4-0.1c12.4-0.1,11.7,0.8,11.8-14.6c0-10.4,0-10.8-0.6-11.5c-1.9-2-2.1-2.4-1.6-2.7
	c1.3-0.7,1.6-2.1,1.6-6.8c0-2.5,0.1-7,0.2-10.1c0.1-5.3,0.1-5.6-0.6-6.2c-1-1-2.4-1.2-10.9-1.2C107,73.3,105,73.4,104.7,73.7
	L104.7,73.7z M116.5,80.8c0.2,0.3,0.2,2.7,0,11.9c0,2.3-0.2,2.4-2.5,2l-1.3-0.2l-0.2-2.7c-0.1-1.5-0.2-2.9-0.2-3.2
	c0-0.3,0.1-2.2,0.2-4.3l0.2-3.8h1.8C115.4,80.5,116.3,80.6,116.5,80.8z M116.3,102.8c0.1,0.2,0.3,2.6,0.3,5.4c0,2.8,0,6.3,0,7.9
	c0,1.6,0,3-0.2,3.2c-0.3,0.4-3.5,0.3-4-0.2c-0.4-0.3-0.4-0.7-0.2-1.5c0.2-0.6,0.3-4.2,0.3-7.9c0-5.8,0.1-6.8,0.5-7.1
	C113.6,102.1,116,102.3,116.3,102.8L116.3,102.8z"/>
</svg>
