<?xml version="1.0" encoding="utf-8"?>
<!-- Generator: Adobe Illustrator 27.0.1, SVG Export Plug-In . SVG Version: 6.00 Build 0)  -->
<svg version="1.1" id="Шар_1" xmlns="http://www.w3.org/2000/svg" xmlns:xlink="http://www.w3.org/1999/xlink" x="0px" y="0px"
	 viewBox="0 0 200 200" style="enable-background:new 0 0 200 200;" xml:space="preserve">
<style type="text/css">
	.st0{fill:#F1F9FB;}
</style>
<g>
	<path class="st0" d="M111.4,74.1c0,0-15.8-0.3-16.7,4.7l-0.2-25.5c0,0,5.1-5.7,11.6,0.2L106,68.7H137V49.4c0,0-0.1-25.8-36.6-24.4
		c0,0-34.7-2.9-37.5,24.4v101.8c0,0-1.6,24.4,36,23.5c0,0,33.8,4.1,38.1-22.7V87.4C137,87.4,134.4,74.1,111.4,74.1z M121.7,116
		c-10,0-15.5,2.8-15.5,2.8v12.7c-6.2-0.8-8.9,2.8-8.9,2.8v24.3h-1v1h-7.5v-0.9h-2.5v-2.5h0.9v-46.7l0,0l0-0.6h-0.9v-1.9h0.9v-1.7
		h1.8v-0.8h8.2c2.1,6.1,12,0.7,12,0.7c8.7-5.9,12.4-0.6,12.4-0.6V116z"/>
	<path class="st0" d="M102.7,118.8l0,1.7c0,0,1.7,0.3,1.9,1.4l-0.6,0.6c0,0-1.9-2.8-5.9,0.9v7.1h7.3v-9.9l-1-1.8H102.7z"/>
</g>
</svg>
