<?xml version="1.0" encoding="utf-8"?>
<!-- Generator: Adobe Illustrator 27.0.1, SVG Export Plug-In . SVG Version: 6.00 Build 0)  -->
<svg version="1.1" id="Шар_1" xmlns="http://www.w3.org/2000/svg" xmlns:xlink="http://www.w3.org/1999/xlink" x="0px" y="0px"
	 viewBox="0 0 200 200" style="enable-background:new 0 0 200 200;" xml:space="preserve">
<style type="text/css">
	.st0{fill:#00689B;}
</style>
<path class="st0" d="M49,26.2c-7,0-12.8,2.8-16.5,7s-5.5,9.6-5.5,15s1.8,10.8,5.5,15c0.7,0.8,1.5,1.5,2.3,2.2
	C36.5,90,47,142.7,103.3,169.1c0,0,0,0,0,0c0.1,0.1,0.4,0.2,1.1,0.5l1.5,0.7l1.4-0.7c0.5-0.2,1-0.5,1-0.5
	c75-35.1,68.6-117.1,68.6-117.1l-0.1-1.7l-1.4-0.9c-18.3-12-42.4-16-68.5-16.2h0h-2.1h0c-13,0.1-25.4,1.2-36.9,3.7
	C64,30.5,57,26.2,49,26.2z M49,33c8.4,0,15.1,6.7,15.1,15.1S57.4,63.3,49,63.3c-5.3,0-8.9-1.9-11.4-4.7c-2.5-2.8-3.8-6.6-3.8-10.5
	s1.3-7.7,3.8-10.5C40.1,34.9,43.7,33,49,33z M104.8,40L104.8,40l2.1,0l0,0c24.6,0.2,46.8,4.1,63.2,14.3c0.2,2.5,1.1,21.2-6.2,43.4
	c-3.1-5.6-10.1-11.2-19.8-13.1c-3.4-0.6-7.9,0.3-10.4,2.5l-2.3-0.6v-0.3c0,0,4.2-2.8,5.9-3.4c0,0,0.8-0.3,1.4-0.6
	c0-0.6-0.3-1.1-2.5-2.3c-2.3-1.1-5.4-0.8-5.4-0.8l2.3-1.4v-0.3l-4.8-4.8v-0.8l-2-2c0,0,0.3-0.8-0.6-1.4c-0.8-0.8-1.7-1.4-2-1.7
	s-1.1-0.6-1.1-0.6s0.6-1.1,0.6-1.7c0,0,0-0.3-0.3-0.3c-0.3,0-3.1-2-4-2.3c-0.8-0.3-3.4-0.8-3.7-0.8c-0.3,0-0.6,0.3-0.6,0.6
	c0,0.3-0.3,1.7-0.3,1.7l2.3,0.8l-0.3,0.8l-1.4-0.3c-0.8-0.6-5.1-2.3-9.6-2.8c-4.5-0.6-9.6-0.8-10.2-0.8s-1.1,0.3-3.9,1.1
	c-2.8,0.8-4.8,1.7-5.9,1.7c-1.1,0.3-5.1,0.3-5.1,0.3s0-0.3-1.7-1.1c-1.7-0.8-5.6-2.8-7.1-3.1c-0.3,0-0.3,0.3-0.3,0.3s-0.8,0-0.8,1.4
	c-0.3-0.3-0.8-0.3-0.8-0.3L69,62.8c-1.2-0.2-2.2-0.5-3-0.7c3.1-3.8,5-8.6,5-13.9c0-1.7-0.2-3.3-0.6-4.9C81,41.1,92.6,40.1,104.8,40z
	 M70.9,61.1c0,0,6.2,2,7.6,3.1c-0.8,0-2.5,0.3-2.5,0.3s-0.8-0.8-5.4-1.4C70.7,62,70.9,61.1,70.9,61.1z M93.3,61.7c0,0,4,1.1,8.2,2.8
	c0,0-4.8,2.8-5.1,2.8c-0.3,0-1.1,0.6-2.5,0c-1.7-0.6-5.6-2-5.9-2c-0.3,0-2.3-1.1-2.3-1.1S93,61.7,93.3,61.7z M66.2,62.8
	c0.6,0.3,1.4,0.6,2.5,0.8V64l0.3-0.8l5.4,1.4c0,0-1.2,0.2-1.9,0.2l0.2,0c0,0-4.2,0.8-4.8,0.8c0,0.3-0.3,0.3-0.3,0.6h-0.3v1.1
	L67,67.6v0.3c0.6,0.3,2.3,1.4,2.8,1.7h0.6l0.3,0.3c0,0-1.1-0.3-1.4,0.3c-0.3,0.6-0.6,2.5-0.6,2.5s0,0.8,1.7,0.8v0.3l-0.3,0.3h-0.6
	L69,73.6L68.7,73l-2.5-1.4v1.1h0.3v1.7h-0.3v-1.1l-0.3,2h-1.7l0.3-3.1c0,0-0.8-0.3-0.6-0.8c0-0.6,0.3-4.5,0.3-4.5
	S64.7,64.5,66.2,62.8z M103.7,65.1c0.6,0,3.4,0.3,6.5,0.6c3.4,0.6,3.9,0.6,4.2,1.1c0,0,0.8,2.8,1.4,3.9c0.6,1.4,0.8,2.5,0.6,2.5
	h-7.3c-2.8,0.3-7.3,0.6-7.3,0.6s-0.8-0.6-1.1-0.6l-2.3-2.8c0,0-0.8-1.1-0.6-1.4c0.3-0.6,0.6-0.8,2-1.7c1.4-0.8,3.1-2,3.1-2
	S103.1,65.1,103.7,65.1z M62.3,65.6l1,0.6l-0.3,3.4l-0.3,0.3v0.6l0.3,0.3l-0.3,1.4l-0.3,0.6h0.3V73h0.3v0.3h-2l0.3-3.1
	c0,0-0.6,0-0.6-0.8c0-0.4,0.1-1.6,0.2-2.8C61.4,66.3,61.9,66,62.3,65.6z M59.7,67.4H60c0,0,0,1.1,0.6,3.1c-0.3,0.3-1.1,2.8-0.6,5.6
	c0.8,2.8,4,5.9,7.6,7.1c3.7,1.1,7.1-1.7,7.1-1.7l1.1,1.4l2.8,0.6c0,0-1.7,4.2,0,8.2c1.7,4,7.3,6.8,9.9,6.8c2.5,0,5.9-2,7.6-3.4
	c1.7-1.4,3.1-4.2,3.4-5.4c2.5,2,5.4,2.8,7.6,1.7l1.1,0.3l7.1,3.9l5.6,2c0,0,0,3.1,1.4,4.8c1.4,1.7,5.1,3.4,6.2,3.4
	c1.1,0,4,0,6.5-3.4v-0.3c4.2,5.1,10.2,7.1,16.1,7.1c3.2,0,5.6,1.3,6.5,3.5c0.1,0,0.1-0.1,0.1-0.1c-6,12.2-14.9,24.5-28,35.1
	c-3.2-15.8-32.7-37.6-63.3-42.5c-6.9-1.2-12.8-2.6-17.4-4.8c-4.2-11.7-6.2-22.7-7-31.2c2.1,0.6,4.5,1,7,1
	C52.9,70.2,56.5,69.1,59.7,67.4z M88.2,67.6c0,0,0.2,0,0.3,0.3c0,0,0.8,0.3,0.8,1.1c0,0.6-0.3,1.1-0.8,1.1c-0.6-0.3-0.9-0.3-0.8-0.3
	L87,70.2h-0.3l0.3-2l0.5-0.2C87.8,67.8,88,67.6,88.2,67.6z M87.6,68c-0.1,0.2-0.3,0.3-0.3,0.5c0,0.6,0,0.8,0.3,1.4
	c0,0,0.8,0,0.8-1.1c0.1-0.4,0.1-0.7,0-0.8l0,0h-0.6L87.6,68z M91.6,68.8c0,0,4.5,1.1,7.3,3.1C94.7,71,91.6,71,91.6,71V68.8z
	 M118.1,69.3c0,0,3.7,0.8,5.9,5.6l-5.6-2l-1.7-3.1L118.1,69.3z M82.7,70.6c0.2,0,0.6,0,1.5,0.1c1.7,0.3,4.8,0.6,5.6,1.1
	c0.8,0.6,1.4,1.1,1.4,1.1l0.6,1.1c0.6,0.8,0.8,1.1,0.8,1.1s0.6,0.6,1.4,0.8c0.8,0,2.3,0.3,2.3,0.3s5.4,5.1,7.6,10.7l2.8,2l-6.2-2
	c0,0,0.9-4.5-2.3-7.9c-3.4-3.4-7.6-3.9-10.2-3.9c-2.5,0.3-6.2,2.8-7.3,4.5c-1.1,0-4-0.3-4-0.3l-0.6,1.1L76,80.9h-0.3l-1.7,0.6
	c0,0-0.3,0.3-1.4-0.3c-0.3-0.3-0.6-0.3-1.1-0.6c-0.6,0.3-2,0.3-3.1-0.3c-1.4-0.6-2-1.7-2.3-2.3h-0.3v-2.3l4,3.1h0.3l1.1-0.6
	c0,0,0.3-0.3,0.3-0.6s0.3-0.8,0.3-0.8l0.8-0.8c-0.3-0.6-1.7-2.8-2-3.1l0.6-2.3c0,0,2.5,3.1,3.1,4.2l1.7-0.6c0.2-1.1,0.8-2.1,1.4-2.5
	c0.8-0.6,1.7,0.6,1.7,0.6s-0.8-0.8-1.7,0.3c-1.1,1.4-1.4,3.7,0,4.2c-0.8,0-1.1,0-1.4-1.4c-0.1-0.3-0.1-0.7,0-1
	c-0.1,0.4-0.4,2.5,0.9,2.7l1.4,0.3h0.6c0,0,1.7-0.8,2.3-1.4c0.6-0.8,0.6-2,0-2.8c0.8-0.3,4.5-0.8,8.5,0C89.3,73,89,72.4,89,72.4
	c-0.3-0.3-1.7-0.6-6.5-1.7C82.5,70.7,82.5,70.7,82.7,70.6z M69.5,74.1v2.3L69,76.7v-2.3L69.5,74.1z M107.9,75
	c3.6,0,8.5,0.3,13.9,1.4c-7.6-0.3-13.5,0.8-16.4,3.7c0,0-1.7-2.8-3.4-4.8C102,75.3,104.3,75,107.9,75z M97.8,76.7
	c0,0,3.7,0.3,6.8,4.2l-1.7,0.3l-0.8-0.3C102,80.9,99.5,77.8,97.8,76.7z M128.5,77.5l2.3,0.3l-0.8,1.7c-5.6,0-9.3,2.8-9.3,2.8v0.8
	c0,0.1,0.1,0.1,0.1,0.2c0.2,0.1,0.3,0.1,0.5,0.1l-0.1,0.1c0.2,0.1,0.4,0.2,0.4,0.2c1.4,0.6,6.2,2.5,7.3,3.1c0,0-2,0.3-3.4,1.4
	l-6.2-2l-0.6-0.6l2.4-2.1c-0.1-0.1-0.2-0.1-0.3-0.2c-0.2-0.1-0.4-0.2-0.4-0.2c0-0.3,0-1.1,0.3-1.4c0.6-0.6,2.5-1.4,3.7-2
	c1.1-0.3,3.1-0.6,3.4-0.8C128,78.6,128.5,77.5,128.5,77.5z M93.5,81.5l-2.5,4l-0.6,0.3L88.2,84C88.2,84,90.4,81.2,93.5,81.5z
	 M94.9,82c0,0,2.5,1.4,2.5,4.5L93,86.3L92.7,86L94.9,82z M87,85.7l2,2v0.6l-2.5,3.7C86.5,91.9,85.1,89.4,87,85.7z M117.5,86.5
	l0.6,0.6l2,0.8l-3.7,3.9l-3.7-1.1L117.5,86.5z M137.9,87.1c8.7-0.4,20.9,8.9,21.6,18.3c-4.2-4.2-15.2,0-23.1-5.4
	c1.4-2.5,2-5.4,1.7-7.3c-0.3-2.5-1.1-3.1-2.8-4.2c-0.3-0.3-0.6-0.3-0.8-0.6C135.5,87.5,136.7,87.2,137.9,87.1z M97.2,88.5
	c0,0-0.6,3.1-3.4,5.1l-1.4-4.5l0.3-0.3L97.2,88.5z M122.3,88.8l1.7,0.6c0,0-2.3,2.5-2.8,4.8l-2.8-0.8L122.3,88.8z M89.9,89.9h0.6
	l1.7,4.2c0,0-3.1,0.9-5.1-0.8L89.9,89.9z M133.9,91.9v0.3l-2.3,2.8l-0.3,0.3l-0.6-0.8C130.8,94.4,132.8,91.9,133.9,91.9z
	 M135.3,92.2c0,0,1.4,1.4,0.8,3.4h-3.1v-0.3L135.3,92.2z M129.9,95.9c0.3,0.6,0.6,1.1,0.3,1.1v0.6l-1.4,3.1
	C128.8,100.7,128.5,98.7,129.9,95.9z M136.2,97.3c0,0-0.3,1.1-1.1,2.3c-0.8,1.1-1.7,2-1.7,2l-0.8-3.7l0.3-0.3L136.2,97.3z M130.8,99
	h0.3l1.1,3.4c0,0-1.4,0.6-2.8,0l-0.3-0.3L130.8,99z M57.4,113.6c30.8,1.1,63.2,17.8,69.2,32.5c0.4,1,0.6,2.2,0.7,3.5
	c-6.2,4.8-13.3,9.2-21.5,13c-26.1-12.3-41.7-30.6-50.9-48.7C55.7,113.7,56.6,113.6,57.4,113.6z"/>
</svg>
