<?xml version="1.0" encoding="utf-8"?>
<!-- Generator: Adobe Illustrator 26.0.3, SVG Export Plug-In . SVG Version: 6.00 Build 0)  -->
<svg version="1.1" id="Шар_1" xmlns="http://www.w3.org/2000/svg" xmlns:xlink="http://www.w3.org/1999/xlink" x="0px" y="0px"
	 viewBox="0 0 200 200" style="enable-background:new 0 0 200 200;" xml:space="preserve">
<style type="text/css">
	.st0{fill:#F1F9FB;}
</style>
<path class="st0" d="M25.8,38.6c0.9-0.6,1.5,0.6,2,1.1c32,40.1,64.1,80.2,96.2,120.3c0.7,0.6,0.2,1.8-0.7,1.7c-15.3,0-30.7,0-46,0
	c-1.2,0-2.4-0.6-3.2-1.6c-15.9-19.9-31.8-39.8-47.8-59.7c-0.7-0.8-1-1.8-1-2.9c0-19.2,0-38.4,0-57.7C25.3,39.4,25.3,38.8,25.8,38.6z
	"/>
<path class="st0" d="M174,38.5c0.7-0.2,1.4,0.4,1.3,1c0,19.2,0,38.5,0,57.7c0,1.1-0.2,2.2-0.9,3.1c-4.8,6.1-9.7,12.1-14.5,18.2
	c-0.8,1-2.1,1.6-3.4,1.6c-15.2,0-30.5,0-45.7,0c-0.9,0.1-1.4-1.1-0.7-1.7c21.1-26.4,42.3-52.9,63.4-79.3
	C173.5,38.8,173.7,38.6,174,38.5z"/>
</svg>
