<?xml version="1.0" encoding="utf-8"?>
<!-- Generator: Adobe Illustrator 27.0.1, SVG Export Plug-In . SVG Version: 6.00 Build 0)  -->
<svg version="1.1" id="Шар_1" xmlns="http://www.w3.org/2000/svg" xmlns:xlink="http://www.w3.org/1999/xlink" x="0px" y="0px"
	 viewBox="0 0 200 200" style="enable-background:new 0 0 200 200;" xml:space="preserve">
<style type="text/css">
	.st0{fill:#F1F9FB;}
</style>
<path class="st0" d="M97.6,111.4C92,97.5,85.2,79.1,87.1,77.6c0.8-0.8,4.5,2.6,10.1,12.4c0.8,1.1,0.4-0.4,0.4-1.1v-53H75.4
	c-1.1,0-1.5,0-1.5,0.4c-0.4,0.4,0,0.8,0,1.5c7.1,21.4,10.1,33.4,8.6,34.6c-0.8,0.8-4.5-4.9-10.5-17.7C63,35.2,57.4,24.3,56.7,25
	c-1.1,0.8,5.3,20.7,21.4,65.4c5.3,14.6,7.1,22.2,6,22.9c-1.1,0.8-4.1-4.1-8.6-13.1c-5.3-10.5-7.5-14.6-8.3-14.6
	c-0.8,0.4,1.1,7.1,4.5,16.9c4.9,15.4,13.1,42.1,11.6,43.2c-0.8,0.4-3.4-3.8-8.6-15.4c-1.1-2.6-1.9-3.8-1.9-3.8s-0.4,0.4-0.4,1.1
	v17.3l-6,12.4h27.8c-7.1-20.7-9.4-30-8.3-30.4c1.5-0.8,7.5,11.3,15,30.4c7.1,3.4,16.2,12,21.4,16.9c1.1,1.1,1.5,1.1,1.1,0
	C117.1,159.1,108.9,139.2,97.6,111.4"/>
<polygon class="st0" points="111.9,134.8 121.3,158.5 136.7,158.5 143.5,134.8 "/>
</svg>
