<?xml version="1.0" encoding="utf-8"?>
<!-- Generator: Adobe Illustrator 26.0.3, SVG Export Plug-In . SVG Version: 6.00 Build 0)  -->
<svg version="1.1" id="Шар_1" xmlns="http://www.w3.org/2000/svg" xmlns:xlink="http://www.w3.org/1999/xlink" x="0px" y="0px"
	 viewBox="0 0 200 200" style="enable-background:new 0 0 200 200;" xml:space="preserve">
<style type="text/css">
	.st0{fill:#F0FFFF;}
</style>
<g id="world_time">
	<path class="st0" d="M135,175c-22,0-40-17.9-40-40s17.9-40,40-40s40,17.9,40,40S157,175,135,175z M135,105c-16.5,0-30,13.5-30,30
		s13.5,30,30,30s30-13.5,30-30S151.5,105,135,105z M140,110h-10v20h-15v10h25V110z M100,25c-41.3,0-75,33.6-75,75s33.6,75,75,75
		c1.6,0,3.2,0,4.8-0.2c-4.2-3.1-7.8-7-10.8-11.3c-6.6-3.2-12.9-11.5-17.4-23.5h8.7c-0.1-1.6-0.2-3.3-0.2-5s0.1-3.3,0.2-5H73.5
		c-1.8-7.4-3.1-15.8-3.4-25h24.9c2.9-3.8,6.2-7.1,10-10H70.1c0.3-9.2,1.5-17.6,3.4-25h53c1.2,4.7,2.1,9.8,2.7,15.3
		C131,85.1,133,85,135,85c1.4,0,2.8,0,4.1,0.2c-0.5-5.3-1.3-10.4-2.4-15.2h20.8c3.9,7.5,6.4,15.9,7.2,24.8c3.8,2.8,7.2,6.2,10,9.9
		c0.2-1.6,0.2-3.2,0.2-4.8C175,58.7,141.3,25,100,25z M42.4,70h20.8c-1.7,7.7-2.8,16.1-3.1,25H35.3C36,86,38.5,77.6,42.4,70z
		 M42.4,130c-3.9-7.6-6.4-16-7.1-25h24.9c0.3,8.8,1.3,17.3,3.1,25H42.4z M76.1,160.4C65.3,156.1,56,149,48.9,140h17.2
		C68.7,147.9,72.1,154.8,76.1,160.4z M66.1,60H48.9c7.1-9,16.4-16.1,27.2-20.4C72.1,45.2,68.7,52.1,66.1,60z M76.6,60
		c5.8-15.7,14.8-25,23.4-25c8.6,0,17.6,9.3,23.4,25H76.6z M133.9,60c-2.6-7.9-6-14.8-10-20.4C134.7,43.9,144,51,151.1,60H133.9z"/>
</g>
</svg>
