<?xml version="1.0" encoding="utf-8"?>
<!-- Generator: Adobe Illustrator 22.0.1, SVG Export Plug-In . SVG Version: 6.00 Build 0)  -->
<svg version="1.1" id="Шар_1" xmlns="http://www.w3.org/2000/svg" xmlns:xlink="http://www.w3.org/1999/xlink" x="0px" y="0px"
	 viewBox="0 0 200 200" style="enable-background:new 0 0 200 200;" xml:space="preserve">
<style type="text/css">
	.st0{fill:#212121;}
</style>
<g>
	<g>
		<path class="st0" d="M101.4,30.6c-40.9-0.7-74.6,31.9-75.3,72.7c-0.4,23.2,9.9,44,26.4,57.9c1.1-0.9,2.2-1.8,3.5-2.5l22.1-12
			c2.9-1.6,4.7-4.6,4.7-7.9v-9c0,0-6.5-7.8-8.9-18.5c-2.1-1.3-3.4-3.6-3.4-6.2V95c0-2.2,1-4.1,2.5-5.5V75.2c0,0-2.9-22.3,27.2-22.3
			s27.2,22.3,27.2,22.3v14.3c1.5,1.4,2.5,3.3,2.5,5.5v9.9c0,3.3-2.2,6.1-5.3,7.1c-1.7,5.3-4.1,10.3-7.3,14.8
			c-0.8,1.1-1.6,2.1-2.2,2.9v9.3c0,3.4,1.9,6.6,5,8.1l23.7,11.8c1.4,0.7,2.7,1.6,3.9,2.6c16-13.3,26.3-33.2,26.6-55.6
			C174.9,65,142.3,31.3,101.4,30.6L101.4,30.6z"/>
	</g>
</g>
</svg>
