<?xml version="1.0" encoding="utf-8"?>
<!-- Generator: Adobe Illustrator 27.4.0, SVG Export Plug-In . SVG Version: 6.00 Build 0)  -->
<svg version="1.1" id="svg285" xmlns:svg="http://www.w3.org/2000/svg"
	 xmlns="http://www.w3.org/2000/svg" xmlns:xlink="http://www.w3.org/1999/xlink" x="0px" y="0px" viewBox="0 0 200 200"
	 style="enable-background:new 0 0 200 200;" xml:space="preserve">
<style type="text/css">
	.st0{fill:#212121;}
</style>
<path class="st0" d="M185.2,64.1c-4.7-11-11.4-20.9-19.9-29.4s-18.4-15.2-29.4-19.9C124.5,10,112.4,7.5,100,7.5
	c-12.4,0-24.5,2.5-35.9,7.3c-11,4.7-20.9,11.4-29.4,19.9c-8.5,8.5-15.2,18.4-19.9,29.4C10,75.5,7.5,87.6,7.5,100
	c0,12.4,2.5,24.5,7.3,35.9c4.7,11,11.4,20.9,19.9,29.4c8.5,8.5,18.4,15.2,29.4,19.9c11.4,4.8,23.5,7.3,35.9,7.3
	c12.4,0,24.5-2.5,35.9-7.3c11-4.7,20.9-11.4,29.4-19.9c8.5-8.5,15.2-18.4,19.9-29.4c4.8-11.4,7.3-23.5,7.3-35.9
	C192.5,87.6,190,75.5,185.2,64.1z M18.5,105.4h32.8c0.4,13.4,2.3,26.3,5.5,37.9H30.8C23.8,132.2,19.4,119.3,18.5,105.4z M105.4,45.8
	V19.3c7.4,2.5,14.6,10.1,20.4,21.6c0.8,1.6,1.5,3.2,2.2,4.9H105.4z M132,56.6c3.4,11.4,5.5,24.4,5.9,37.9h-32.4V56.6H132z
	 M94.6,19.3v26.5H71.9c0.7-1.7,1.5-3.3,2.2-4.9C79.9,29.4,87.1,21.8,94.6,19.3z M94.6,56.6v37.9H62.1C62.6,81,64.6,68.1,68,56.6
	H94.6z M51.3,94.6H18.5c0.9-13.9,5.3-26.8,12.3-37.9h25.9C53.6,68.3,51.7,81.2,51.3,94.6z M62.1,105.4h32.4v37.9H68
	C64.6,131.9,62.6,119,62.1,105.4z M94.6,154.2v26.5c-7.4-2.5-14.6-10.1-20.4-21.6c-0.8-1.6-1.5-3.2-2.2-4.9H94.6z M105.4,180.7
	v-26.5h22.6c-0.7,1.7-1.5,3.3-2.2,4.9C120.1,170.6,112.9,178.2,105.4,180.7z M105.4,143.4v-37.9h32.4c-0.4,13.6-2.5,26.5-5.9,37.9
	H105.4z M148.7,105.4h32.8c-0.9,13.9-5.3,26.8-12.3,37.9h-25.9C146.4,131.7,148.3,118.8,148.7,105.4z M148.7,94.6
	c-0.4-13.4-2.3-26.3-5.5-37.9h25.9c7,11.1,11.4,24.1,12.3,37.9H148.7z M161,45.8h-21.3c-1.3-3.4-2.7-6.6-4.2-9.7
	c-2.5-4.9-5.2-9.3-8.1-13C140.5,27.8,152,35.6,161,45.8z M72.6,23.1c-2.9,3.7-5.6,8.1-8.1,13c-1.5,3.1-2.9,6.3-4.2,9.7H39
	C48,35.6,59.5,27.8,72.6,23.1z M39,154.2h21.3c1.3,3.4,2.7,6.6,4.2,9.7c2.5,4.9,5.2,9.3,8.1,13C59.5,172.2,48,164.4,39,154.2z
	 M127.4,176.9c2.9-3.7,5.6-8.1,8.1-13c1.5-3.1,2.9-6.3,4.2-9.7H161C152,164.4,140.5,172.2,127.4,176.9z"/>
</svg>
